<?xml version="1.0" encoding="utf-8"?>
<!-- Generator: Adobe Illustrator 24.0.3, SVG Export Plug-In . SVG Version: 6.00 Build 0)  -->
<svg version="1.1" xmlns="http://www.w3.org/2000/svg" xmlns:xlink="http://www.w3.org/1999/xlink" x="0px" y="0px"
	 viewBox="0 0 253.45 94.16" style="enable-background:new 0 0 253.45 94.16;" xml:space="preserve">
<style type="text/css">
	.st0{fill:none;stroke:#E7004C;stroke-miterlimit:10;}
	.st1{fill:#FFFFFF;}
	.st2{fill:url(#SVGID_1_);}
	.st3{fill:#E7004C;}
	.st4{fill:#42050E;}
	.st5{fill:none;stroke:#FFFFFF;stroke-width:0.75;stroke-miterlimit:10;}
	.st6{fill-rule:evenodd;clip-rule:evenodd;fill:#FFFFFF;}
	.st7{fill:none;stroke:#00B2E3;stroke-miterlimit:10;}
	.st8{fill:url(#SVGID_2_);}
	.st9{fill:#FCFCFC;}
	.st10{fill:url(#SVGID_3_);}
	.st11{fill:url(#SVGID_4_);}
	.st12{opacity:0.8;fill:#E7004C;}
	.st13{opacity:0.7;fill:#E7004C;}
	.st14{opacity:0.7;}
	.st15{fill:#00B2E3;}
	.st16{opacity:0.8;fill:#00B2E3;}
	.st17{opacity:0.7;fill:#00B2E3;}
	.st18{fill:#BBBBBB;}
	.st19{opacity:0.8;fill:#BBBBBB;}
	.st20{opacity:0.7;fill:#BBBBBB;}
	.st21{fill:url(#SVGID_5_);}
	.st22{fill:url(#SVGID_6_);}
	.st23{fill:none;stroke:#E7004C;stroke-width:2;stroke-miterlimit:10;}
	.st24{fill:url(#SVGID_7_);}
	.st25{fill:url(#SVGID_8_);}
	.st26{fill:url(#SVGID_9_);}
	.st27{fill:none;stroke:#FFFFFF;stroke-miterlimit:10;}
	.st28{fill-rule:evenodd;clip-rule:evenodd;fill:#E7004C;}
	.st29{fill:none;stroke:#000000;stroke-miterlimit:10;}
	.st30{fill:#38A8E0;}
	.st31{clip-path:url(#SVGID_11_);fill:#00B2E3;}
	.st32{fill:none;stroke:#E7004C;stroke-width:3;stroke-miterlimit:10;}
	.st33{clip-path:url(#SVGID_13_);}
	.st34{fill:none;stroke:#FFFFFF;stroke-width:2;stroke-miterlimit:10;}
	.st35{fill:none;stroke:#FFFFFF;stroke-width:3;stroke-miterlimit:10;}
	.st36{clip-path:url(#SVGID_15_);}
	.st37{fill:url(#SVGID_16_);}
	.st38{fill:none;stroke:#FFFFFF;stroke-width:0.5;stroke-miterlimit:10;}
	.st39{clip-path:url(#SVGID_18_);fill:#00B2E3;}
	.st40{clip-path:url(#SVGID_20_);}
	.st41{clip-path:url(#SVGID_22_);}
	.st42{fill:url(#SVGID_23_);}
	.st43{clip-path:url(#SVGID_25_);}
	.st44{fill:url(#SVGID_26_);}
	.st45{fill:url(#SVGID_27_);}
	.st46{fill:url(#SVGID_28_);}
	.st47{fill:url(#SVGID_29_);}
	.st48{clip-path:url(#SVGID_31_);fill:#00B2E3;}
	.st49{clip-path:url(#SVGID_33_);}
	.st50{clip-path:url(#SVGID_35_);}
	.st51{fill:url(#SVGID_36_);}
	.st52{clip-path:url(#SVGID_38_);}
	.st53{clip-path:url(#SVGID_40_);}
	.st54{fill:#280210;}
	.st55{opacity:0.5;}
	.st56{opacity:0.6;}
	.st57{fill:url(#SVGID_41_);}
	.st58{fill:url(#SVGID_42_);}
	.st59{fill:url(#SVGID_43_);}
	.st60{fill:url(#SVGID_44_);}
	.st61{opacity:0.8;}
	.st62{opacity:0.9;}
	.st63{fill:url(#SVGID_45_);}
	.st64{clip-path:url(#SVGID_47_);}
	.st65{clip-path:url(#SVGID_49_);}
	.st66{fill:url(#SVGID_50_);}
	.st67{clip-path:url(#SVGID_52_);}
	.st68{fill:url(#SVGID_53_);}
	.st69{clip-path:url(#SVGID_55_);}
	.st70{fill:url(#SVGID_56_);}
	.st71{clip-path:url(#SVGID_58_);fill:#00B2E3;}
	.st72{clip-path:url(#SVGID_60_);}
	.st73{clip-path:url(#SVGID_62_);}
	.st74{fill:none;stroke:#FFFFFF;stroke-width:5;stroke-miterlimit:10;}
	.st75{clip-path:url(#SVGID_64_);fill:#00B2E3;}
	.st76{clip-path:url(#SVGID_66_);}
	.st77{clip-path:url(#SVGID_68_);}
	.st78{clip-path:url(#SVGID_70_);fill:#00B2E3;}
	.st79{clip-path:url(#SVGID_72_);}
	.st80{fill:#5B0323;}
	.st81{fill:url(#SVGID_73_);}
	.st82{fill:url(#SVGID_74_);}
	.st83{fill:url(#SVGID_75_);}
	.st84{clip-path:url(#SVGID_77_);fill:#00B2E3;}
	.st85{clip-path:url(#SVGID_80_);}
	.st86{fill:none;stroke:#00B2E3;stroke-width:2;stroke-miterlimit:10;}
	.st87{fill-rule:evenodd;clip-rule:evenodd;fill:#00B2E3;}
	.st88{clip-path:url(#SVGID_84_);}
	.st89{fill:#E5E5E5;}
	.st90{clip-path:url(#SVGID_86_);}
	.st91{fill-rule:evenodd;clip-rule:evenodd;fill:none;stroke:#E7004C;stroke-width:3;stroke-miterlimit:10;}
	.st92{fill:#020202;}
	.st93{fill:none;stroke:#5B0323;stroke-miterlimit:10;}
	.st94{fill:#070101;}
	.st95{fill:none;stroke:#068FFF;stroke-width:5;stroke-miterlimit:10;}
</style>
<g id="Capa_2">
</g>
<g id="Capa_1">
</g>
<g id="Capa_3">
</g>
<g id="Capa_4">
	<g>
		<g>
			<g>
				<g>
					<path class="st3" d="M33.58,69.63c-0.32,0-0.63-0.01-0.95-0.02l-0.03-0.79c6.46-0.24,12.5-2.95,17.01-7.62
						c4.52-4.68,7.01-10.83,7.01-17.33s-2.49-12.65-7.01-17.33c-4.51-4.67-10.55-7.37-17.01-7.62l0-0.79
						c0.34-0.01,0.66-0.02,0.98-0.02c14.2,0,25.76,11.55,25.76,25.76S47.78,69.63,33.58,69.63z M42.99,20.74
						c2.65,1.3,5.08,3.07,7.19,5.25c4.66,4.83,7.23,11.18,7.23,17.88s-2.57,13.05-7.23,17.88c-2.11,2.18-4.54,3.95-7.19,5.25
						c9.12-3.72,15.56-12.69,15.56-23.13S52.11,24.47,42.99,20.74z"/>
				</g>
				<g>
					<path class="st3" d="M31.66,75.53C14.2,75.53,0,61.33,0,43.87s14.2-31.66,31.66-31.66c0.24,0,0.49,0.01,0.73,0.02l0.24,0.01
						v0.79c-8.03,0.24-15.55,3.56-21.18,9.35c-5.64,5.8-8.74,13.43-8.74,21.5s3.1,15.7,8.74,21.5c5.62,5.78,13.15,9.1,21.18,9.35
						l0,0.79l-0.23,0.01C32.16,75.52,31.91,75.53,31.66,75.53z M19.86,15.35C8.67,19.99,0.79,31.03,0.79,43.87
						c0,12.84,7.89,23.88,19.07,28.53c-3.3-1.59-6.34-3.77-8.97-6.48c-5.78-5.94-8.96-13.77-8.96-22.05c0-8.27,3.18-16.1,8.96-22.05
						C13.52,19.12,16.55,16.94,19.86,15.35z"/>
				</g>
			</g>
			<g>
				<g>
					<path class="st15" d="M33.58,58.33c-0.3,0-0.61-0.01-0.99-0.04V57.5c7.14-0.48,12.73-6.47,12.73-13.63s-5.59-13.15-12.73-13.63
						v-0.79c0.38-0.03,0.69-0.04,0.99-0.04c7.97,0,14.46,6.49,14.46,14.46S41.55,58.33,33.58,58.33z M38.33,31.05
						c4.64,2.43,7.79,7.29,7.79,12.82s-3.15,10.39-7.79,12.82c5.21-1.93,8.92-6.95,8.92-12.82S43.53,32.98,38.33,31.05z"/>
				</g>
				<g>
					<path class="st15" d="M31.66,64.23c-11.23,0-20.36-9.13-20.36-20.36s9.13-20.36,20.36-20.36c0.33,0,0.66,0.01,0.98,0.03l0,0.79
						c-10.45,0.5-18.63,9.08-18.63,19.55s8.18,19.05,18.63,19.55l0,0.79C32.31,64.22,31.99,64.23,31.66,64.23z M24.32,25.73
						c-7.16,2.91-12.23,9.95-12.23,18.14c0,8.19,5.06,15.23,12.22,18.14c-6.61-3.37-11.09-10.24-11.09-18.14
						C13.22,35.97,17.7,29.1,24.32,25.73z"/>
				</g>
			</g>
			<g>
				<path class="st3" d="M31.66,52.43c-4.72,0-8.56-3.84-8.56-8.56s3.84-8.56,8.56-8.56c0.31,0,0.64,0.02,1.01,0.06L36,35.77
					l-3.34,0.39c-3.91,0.46-6.86,3.78-6.86,7.71c0,3.94,2.95,7.25,6.86,7.71l3.32,0.39l-3.32,0.39
					C32.3,52.41,31.97,52.43,31.66,52.43z M29.28,36.47c-3.12,1.01-5.39,3.94-5.39,7.4c0,3.45,2.27,6.39,5.39,7.4
					c-2.56-1.49-4.26-4.27-4.26-7.4C25.02,40.74,26.71,37.96,29.28,36.47z"/>
			</g>
			<g>
				<path class="st3" d="M33.58,52.43c-0.31,0-0.64-0.02-1.01-0.06l-3.32-0.39l3.32-0.39c3.91-0.46,6.86-3.78,6.86-7.71
					s-2.95-7.25-6.86-7.71l-3.34-0.39l3.34-0.39c0.37-0.04,0.7-0.06,1.01-0.06c4.72,0,8.56,3.84,8.56,8.56S38.3,52.43,33.58,52.43z
					 M35.96,36.47c2.56,1.49,4.26,4.27,4.26,7.4c0,3.13-1.69,5.91-4.26,7.4c3.12-1.01,5.39-3.94,5.39-7.4
					C41.35,40.42,39.09,37.48,35.96,36.47z"/>
			</g>
			<g>
				<path class="st15" d="M32.62,52.37l-0.05-0.01c-4.31-0.51-7.55-4.16-7.55-8.5c0-4.34,3.25-7.99,7.55-8.5l0.05-0.01l0.05,0.01
					c4.31,0.51,7.55,4.16,7.55,8.5c0,4.34-3.25,7.99-7.55,8.5L32.62,52.37z M32.62,36.16c-3.89,0.48-6.81,3.79-6.81,7.71
					c0,3.92,2.92,7.23,6.81,7.71c3.89-0.48,6.81-3.78,6.81-7.71C39.43,39.95,36.51,36.64,32.62,36.16z"/>
			</g>
			<g>
				<g>
					<path class="st15" d="M31.66,58.33c-7.97,0-14.46-6.49-14.46-14.46s6.49-14.46,14.46-14.46c0.3,0,0.61,0.01,0.99,0.04v0.79
						c-7.14,0.48-12.73,6.47-12.73,13.63s5.59,13.15,12.73,13.63v0.79C32.27,58.32,31.96,58.33,31.66,58.33z M26.91,31.05
						c-5.21,1.93-8.92,6.95-8.92,12.82s3.72,10.89,8.92,12.82c-4.64-2.43-7.79-7.29-7.79-12.82S22.28,33.48,26.91,31.05z"/>
				</g>
				<g>
					<path class="st15" d="M33.58,64.23c-0.33,0-0.66-0.01-0.98-0.02l0-0.79c10.45-0.5,18.63-9.08,18.63-19.55
						S43.05,24.82,32.6,24.33l0-0.79c0.33-0.02,0.65-0.03,0.98-0.03c11.23,0,20.36,9.13,20.36,20.36S44.81,64.23,33.58,64.23z
						 M40.92,25.73c6.61,3.37,11.09,10.24,11.09,18.14c0,7.9-4.48,14.77-11.09,18.14c7.16-2.91,12.22-9.95,12.22-18.14
						C53.15,35.68,48.09,28.64,40.92,25.73z"/>
				</g>
			</g>
			<g>
				<path class="st3" d="M32.64,64.21c-10.9-0.52-19.42-9.45-19.42-20.33s8.51-19.82,19.38-20.33l0.02,0l0.02,0
					c10.87,0.52,19.38,9.45,19.38,20.33S43.51,63.69,32.64,64.21z M32.62,24.33c-10.44,0.51-18.61,9.09-18.61,19.55
					c0,10.46,8.18,19.05,18.63,19.55c10.41-0.5,18.59-9.08,18.59-19.55C51.23,33.41,43.06,24.83,32.62,24.33z M33.58,58.33
					c-0.29,0-0.6-0.01-0.96-0.04c-0.37,0.02-0.67,0.04-0.96,0.04c-7.97,0-14.46-6.49-14.46-14.46s6.49-14.46,14.46-14.46
					c0.29,0,0.6,0.01,0.96,0.04c0.37-0.02,0.67-0.04,0.96-0.04c7.97,0,14.46,6.49,14.46,14.46S41.55,58.33,33.58,58.33z M32.62,57.5
					l0.03,0c0.36,0.02,0.66,0.04,0.93,0.04c7.54,0,13.67-6.13,13.67-13.67S41.12,30.2,33.58,30.2c-0.28,0-0.58,0.01-0.93,0.04
					l-0.03,0l-0.03,0c-0.36-0.02-0.66-0.04-0.94-0.04c-7.54,0-13.67,6.13-13.67,13.67s6.13,13.67,13.67,13.67
					c0.28,0,0.58-0.01,0.94-0.04L32.62,57.5z"/>
			</g>
			<g>
				<g>
					<path class="st3" d="M33.58,75.53c-0.25,0-0.5-0.01-0.75-0.02l-0.23-0.01l0-0.79c8.03-0.24,15.55-3.56,21.18-9.35
						c5.64-5.8,8.74-13.43,8.74-21.5s-3.1-15.7-8.74-21.5c-5.62-5.78-13.15-9.1-21.18-9.35v-0.79l0.24-0.01
						c0.24-0.01,0.49-0.02,0.73-0.02c17.46,0,31.66,14.2,31.66,31.66S51.04,75.53,33.58,75.53z M45.38,15.35
						c3.3,1.59,6.34,3.77,8.97,6.48c5.78,5.94,8.96,13.77,8.96,22.05s-3.18,16.1-8.96,22.05c-2.63,2.7-5.67,4.88-8.97,6.48
						c11.18-4.64,19.07-15.68,19.07-28.53C64.45,31.03,56.57,19.99,45.38,15.35z"/>
				</g>
				<g>
					<path class="st3" d="M31.66,69.63c-14.2,0-25.76-11.55-25.76-25.76s11.55-25.76,25.76-25.76c0.32,0,0.63,0.01,0.95,0.02
						l0.03,0.79c-6.46,0.24-12.5,2.95-17.01,7.62c-4.52,4.68-7.01,10.83-7.01,17.33s2.49,12.65,7.01,17.33
						c4.51,4.67,10.55,7.37,17.01,7.62l0,0.79C32.29,69.61,31.98,69.63,31.66,69.63z M22.25,20.74
						C13.13,24.47,6.69,33.43,6.69,43.87S13.13,63.28,22.25,67c-2.65-1.3-5.08-3.07-7.19-5.25c-4.66-4.83-7.23-11.18-7.23-17.88
						S10.39,30.82,15.06,26C17.17,23.81,19.6,22.05,22.25,20.74z"/>
				</g>
			</g>
			<g>
				<path class="st15" d="M32.63,75.5c-8.26-0.25-15.98-3.66-21.74-9.59c-5.78-5.94-8.96-13.77-8.96-22.05
					c0-8.27,3.18-16.1,8.96-22.05c5.77-5.93,13.48-9.34,21.72-9.59h0.02c8.24,0.25,15.95,3.66,21.72,9.59
					c5.78,5.94,8.96,13.77,8.96,22.05s-3.18,16.1-8.96,22.05C48.58,71.85,40.87,75.25,32.63,75.5z M32.62,13.03
					c-8.03,0.25-15.54,3.57-21.17,9.35c-5.64,5.8-8.74,13.43-8.74,21.5s3.1,15.7,8.74,21.5c5.62,5.78,13.15,9.1,21.18,9.35
					c8.01-0.24,15.53-3.56,21.15-9.35c5.64-5.8,8.74-13.43,8.74-21.5s-3.1-15.7-8.74-21.5C48.16,16.59,40.65,13.27,32.62,13.03z
					 M33.58,69.63c-0.32,0-0.63-0.01-0.95-0.02c-0.34,0.01-0.66,0.02-0.98,0.02c-14.2,0-25.76-11.55-25.76-25.76
					s11.55-25.76,25.76-25.76c0.32,0,0.63,0.01,0.95,0.02c0.34-0.01,0.66-0.02,0.98-0.02c14.2,0,25.76,11.55,25.76,25.76
					S47.78,69.63,33.58,69.63z M32.63,68.81c0.33,0.01,0.64,0.02,0.95,0.02c13.77,0,24.97-11.2,24.97-24.97S47.35,18.9,33.58,18.9
					c-0.31,0-0.61,0.01-0.92,0.02l-0.06,0c-0.33-0.01-0.64-0.02-0.95-0.02c-13.77,0-24.97,11.2-24.97,24.97s11.2,24.97,24.97,24.97
					c0.31,0,0.61-0.01,0.92-0.02L32.63,68.81z"/>
			</g>
			<g id="ssynEm_1_">
				<g>
					<g>
						<path class="st1" d="M29.9,49.01v-9.9l8.63,4.95L29.9,49.01z M30.69,40.47v7.18l6.26-3.59L30.69,40.47z"/>
					</g>
				</g>
			</g>
		</g>
		<g>
			<g>
				<path class="st1" d="M88.47,57.8H77.1v-31h11.37c2.51,0,4.74,0.41,6.64,1.22c1.9,0.81,3.51,1.93,4.79,3.33
					c1.28,1.4,2.25,3.05,2.89,4.93c0.64,1.86,0.96,3.88,0.96,5.98c0,2.33-0.36,4.48-1.07,6.37c-0.71,1.9-1.75,3.55-3.09,4.9
					c-1.34,1.35-2.97,2.41-4.84,3.15C92.9,57.43,90.78,57.8,88.47,57.8z M83.76,51.87h4.71c1.38,0,2.62-0.25,3.69-0.73
					c1.06-0.48,1.96-1.16,2.67-2c0.72-0.85,1.27-1.87,1.65-3.04c0.38-1.18,0.58-2.47,0.58-3.83c0-1.4-0.19-2.7-0.58-3.88
					c-0.38-1.16-0.94-2.18-1.67-3.01c-0.72-0.83-1.63-1.48-2.69-1.94c-1.07-0.46-2.3-0.69-3.65-0.69h-4.71V51.87z"/>
			</g>
			<g>
				<path class="st1" d="M161.21,57.8h-7.52l-6.17-10.13h-5.17V57.8h-6.66v-31h13.75c1.44,0,2.8,0.31,4.03,0.91
					c1.22,0.6,2.28,1.4,3.16,2.39c0.88,0.98,1.57,2.11,2.07,3.35c0.5,1.25,0.75,2.52,0.75,3.78c0,2.02-0.51,3.89-1.53,5.55
					c-0.94,1.53-2.2,2.69-3.75,3.44L161.21,57.8z M142.35,41.74h6.97c0.47,0,0.91-0.11,1.32-0.33c0.42-0.23,0.78-0.54,1.09-0.94
					c0.31-0.4,0.56-0.88,0.75-1.44c0.18-0.55,0.28-1.16,0.28-1.79c0-0.66-0.11-1.27-0.32-1.82c-0.21-0.55-0.49-1.03-0.84-1.43
					c-0.35-0.4-0.75-0.71-1.19-0.93c-0.44-0.21-0.89-0.32-1.34-0.32h-6.71V41.74z"/>
			</g>
			<g>
				<path class="st1" d="M174.76,57.8h-11.37v-31h11.37c2.51,0,4.74,0.41,6.64,1.22c1.9,0.81,3.51,1.93,4.8,3.33
					c1.28,1.4,2.25,3.05,2.89,4.93c0.64,1.86,0.96,3.87,0.96,5.98c0,2.33-0.36,4.48-1.07,6.37c-0.71,1.9-1.75,3.55-3.09,4.9
					c-1.34,1.35-2.97,2.41-4.84,3.15C179.19,57.43,177.07,57.8,174.76,57.8z M170.05,51.87h4.71c1.38,0,2.62-0.25,3.69-0.73
					c1.06-0.48,1.96-1.16,2.67-2c0.72-0.85,1.27-1.87,1.65-3.04c0.38-1.18,0.58-2.47,0.58-3.83c0-1.4-0.19-2.7-0.58-3.88
					c-0.38-1.16-0.94-2.18-1.67-3.01c-0.72-0.83-1.63-1.48-2.69-1.94c-1.07-0.46-2.3-0.69-3.65-0.69h-4.71V51.87z"/>
			</g>
			<g>
				<path class="st1" d="M207.14,58.02c-2.26,0-4.35-0.45-6.19-1.34c-1.84-0.88-3.44-2.07-4.76-3.54c-1.32-1.46-2.35-3.16-3.08-5.04
					c-0.72-1.88-1.09-3.83-1.09-5.8c0-2.06,0.39-4.05,1.16-5.94c0.77-1.88,1.84-3.57,3.18-5.01c1.35-1.45,2.97-2.62,4.83-3.47
					c1.86-0.86,3.91-1.29,6.08-1.29c2.24,0,4.31,0.46,6.15,1.38c1.84,0.91,3.43,2.12,4.74,3.6c1.3,1.47,2.33,3.18,3.05,5.05
					c0.72,1.88,1.09,3.82,1.09,5.76c0,2.05-0.38,4.04-1.13,5.91c-0.75,1.87-1.81,3.54-3.14,4.97c-1.33,1.44-2.95,2.6-4.8,3.45
					C211.36,57.58,209.31,58.02,207.14,58.02z M207.18,32.62c-1.35,0-2.56,0.28-3.6,0.83c-1.05,0.55-1.94,1.29-2.64,2.19
					c-0.71,0.91-1.25,1.96-1.62,3.11c-0.37,1.16-0.56,2.36-0.56,3.56c0,1.26,0.19,2.49,0.58,3.66c0.38,1.17,0.94,2.21,1.66,3.11
					c0.71,0.89,1.6,1.61,2.64,2.15c1.03,0.54,2.22,0.81,3.54,0.81c1.35,0,2.55-0.28,3.58-0.83c1.04-0.55,1.93-1.3,2.64-2.21
					c0.72-0.92,1.27-1.98,1.64-3.13c0.37-1.16,0.56-2.36,0.56-3.56c0-1.26-0.2-2.49-0.6-3.66c-0.39-1.17-0.96-2.22-1.68-3.11
					c-0.71-0.89-1.6-1.6-2.64-2.13C209.65,32.88,208.47,32.62,207.18,32.62z"/>
			</g>
			<g>
				<path class="st1" d="M132.78,57.8h-6.91l-7.81-17.16l-7.81,17.16h-6.91l14.72-32.17L132.78,57.8z"/>
			</g>
			<g>
				<g>
					<path class="st1" d="M79.45,69.52l-1.95-4.8h0.64l1.65,4.22l1.66-4.22h0.61l-1.95,4.8H79.45z"/>
				</g>
				<g>
					<path class="st1" d="M84.95,63.72V62.8h0.63v0.92H84.95z M84.95,69.52v-4.8h0.63v4.8H84.95z"/>
				</g>
				<g>
					<path class="st1" d="M90.95,69.62c-0.33,0-0.64-0.07-0.92-0.21s-0.52-0.32-0.73-0.55c-0.2-0.23-0.36-0.49-0.47-0.79
						c-0.11-0.3-0.17-0.61-0.17-0.94c0-0.34,0.06-0.66,0.17-0.96c0.11-0.3,0.26-0.57,0.46-0.8s0.42-0.41,0.69-0.54
						c0.27-0.13,0.56-0.2,0.88-0.2c0.41,0,0.76,0.11,1.08,0.32c0.31,0.21,0.56,0.47,0.74,0.77V62.8h0.63v5.91
						c0,0.17,0.07,0.26,0.22,0.26v0.55c-0.09,0.02-0.17,0.03-0.22,0.03c-0.15,0-0.28-0.05-0.39-0.14c-0.11-0.09-0.17-0.21-0.17-0.35
						v-0.47c-0.19,0.31-0.45,0.56-0.77,0.75C91.64,69.52,91.3,69.62,90.95,69.62z M91.09,69.06c0.15,0,0.32-0.03,0.49-0.09
						c0.18-0.06,0.34-0.15,0.49-0.25c0.15-0.11,0.28-0.23,0.39-0.38c0.11-0.14,0.17-0.3,0.2-0.46v-1.48
						c-0.06-0.17-0.15-0.32-0.27-0.46c-0.12-0.14-0.25-0.27-0.4-0.38c-0.15-0.11-0.31-0.2-0.48-0.26c-0.17-0.06-0.34-0.09-0.51-0.09
						c-0.26,0-0.49,0.05-0.7,0.17c-0.21,0.11-0.39,0.26-0.54,0.44c-0.15,0.18-0.27,0.39-0.34,0.62c-0.08,0.23-0.12,0.47-0.12,0.72
						c0,0.26,0.05,0.5,0.14,0.74c0.09,0.23,0.22,0.44,0.38,0.61c0.16,0.17,0.35,0.31,0.57,0.42C90.61,69.01,90.84,69.06,91.09,69.06
						z"/>
				</g>
				<g>
					<path class="st1" d="M98.81,69.62c-0.35,0-0.67-0.07-0.96-0.2c-0.29-0.13-0.55-0.31-0.76-0.54c-0.21-0.23-0.38-0.5-0.5-0.8
						c-0.12-0.3-0.18-0.62-0.18-0.97c0-0.34,0.06-0.66,0.18-0.95c0.12-0.3,0.29-0.56,0.5-0.78c0.21-0.22,0.47-0.4,0.76-0.53
						c0.29-0.13,0.61-0.2,0.96-0.2c0.35,0,0.67,0.07,0.96,0.2c0.29,0.13,0.54,0.31,0.75,0.54c0.21,0.23,0.37,0.49,0.49,0.78
						c0.12,0.29,0.18,0.61,0.18,0.94c0,0.05,0,0.1,0,0.15c0,0.05,0,0.08-0.01,0.1h-4.11c0.02,0.26,0.08,0.5,0.18,0.71
						c0.1,0.22,0.23,0.41,0.39,0.57c0.16,0.16,0.34,0.28,0.55,0.37c0.21,0.09,0.43,0.13,0.66,0.13c0.15,0,0.31-0.02,0.46-0.06
						c0.15-0.04,0.29-0.1,0.42-0.17c0.13-0.07,0.25-0.16,0.35-0.27c0.1-0.11,0.18-0.23,0.24-0.35l0.54,0.15
						c-0.07,0.18-0.18,0.34-0.31,0.48c-0.14,0.14-0.29,0.27-0.47,0.38c-0.18,0.11-0.37,0.19-0.59,0.25
						C99.27,69.59,99.05,69.62,98.81,69.62z M100.58,66.87c-0.02-0.26-0.08-0.49-0.18-0.7c-0.1-0.21-0.23-0.4-0.39-0.55
						c-0.16-0.15-0.34-0.27-0.54-0.36c-0.21-0.09-0.43-0.13-0.66-0.13c-0.23,0-0.45,0.04-0.66,0.13c-0.21,0.09-0.39,0.21-0.55,0.36
						c-0.16,0.15-0.28,0.34-0.38,0.55c-0.1,0.21-0.15,0.45-0.17,0.7H100.58z"/>
				</g>
				<g>
					<path class="st1" d="M106.22,69.62c-0.35,0-0.67-0.07-0.96-0.2c-0.29-0.13-0.54-0.31-0.75-0.54c-0.21-0.23-0.38-0.49-0.49-0.79
						c-0.12-0.3-0.17-0.62-0.17-0.95c0-0.34,0.06-0.66,0.18-0.96c0.12-0.3,0.29-0.56,0.5-0.79c0.21-0.23,0.46-0.41,0.75-0.54
						c0.29-0.14,0.6-0.2,0.95-0.2c0.34,0,0.66,0.07,0.95,0.2c0.29,0.14,0.54,0.32,0.76,0.54c0.21,0.23,0.38,0.49,0.5,0.79
						c0.12,0.3,0.18,0.62,0.18,0.96c0,0.33-0.06,0.65-0.17,0.95c-0.12,0.3-0.28,0.57-0.49,0.79c-0.21,0.23-0.46,0.41-0.76,0.54
						C106.89,69.55,106.57,69.62,106.22,69.62z M104.48,67.15c0,0.27,0.05,0.52,0.14,0.75c0.09,0.23,0.22,0.43,0.37,0.61
						c0.16,0.17,0.34,0.31,0.55,0.41c0.21,0.1,0.44,0.15,0.68,0.15c0.24,0,0.47-0.05,0.68-0.15c0.21-0.1,0.4-0.24,0.56-0.41
						c0.16-0.18,0.29-0.38,0.38-0.61c0.09-0.23,0.14-0.48,0.14-0.76c0-0.26-0.05-0.51-0.14-0.75c-0.09-0.24-0.22-0.44-0.38-0.62
						c-0.16-0.17-0.35-0.31-0.56-0.41c-0.21-0.1-0.44-0.15-0.68-0.15c-0.24,0-0.46,0.05-0.67,0.15c-0.21,0.1-0.39,0.24-0.55,0.42
						c-0.16,0.18-0.29,0.39-0.38,0.62C104.52,66.62,104.48,66.88,104.48,67.15z"/>
				</g>
				<g>
					<path class="st1" d="M118.17,69.52h-0.63v-2.68c0-0.56-0.09-0.97-0.27-1.23c-0.18-0.26-0.44-0.4-0.79-0.4
						c-0.18,0-0.36,0.03-0.52,0.1c-0.16,0.07-0.31,0.16-0.45,0.29c-0.14,0.12-0.26,0.27-0.36,0.44c-0.1,0.17-0.18,0.35-0.24,0.56
						v2.93h-0.63v-2.68c0-0.57-0.09-0.99-0.26-1.24c-0.17-0.26-0.44-0.39-0.79-0.39c-0.36,0-0.68,0.13-0.97,0.38
						c-0.28,0.25-0.49,0.58-0.61,1v2.94h-0.63v-4.8h0.57v1.09c0.2-0.37,0.45-0.66,0.77-0.86c0.32-0.21,0.67-0.31,1.06-0.31
						c0.41,0,0.73,0.11,0.97,0.34c0.24,0.23,0.39,0.52,0.45,0.89c0.45-0.82,1.07-1.23,1.85-1.23c0.27,0,0.5,0.05,0.69,0.15
						s0.34,0.24,0.45,0.42c0.11,0.18,0.2,0.4,0.25,0.65c0.05,0.25,0.08,0.54,0.08,0.85V69.52z"/>
				</g>
				<g>
					<path class="st1" d="M122.73,69.62c-0.23,0-0.44-0.04-0.63-0.12c-0.19-0.08-0.36-0.18-0.51-0.32s-0.26-0.29-0.34-0.47
						c-0.08-0.18-0.12-0.38-0.12-0.58c0-0.21,0.05-0.4,0.15-0.58c0.1-0.18,0.24-0.33,0.41-0.46c0.18-0.13,0.39-0.23,0.64-0.3
						c0.25-0.07,0.52-0.11,0.81-0.11c0.25,0,0.49,0.02,0.75,0.06c0.25,0.04,0.48,0.1,0.67,0.18v-0.43c0-0.42-0.12-0.76-0.36-1.01
						c-0.24-0.25-0.57-0.37-1-0.37c-0.25,0-0.5,0.05-0.76,0.15c-0.26,0.1-0.52,0.24-0.78,0.42l-0.22-0.41
						c0.62-0.42,1.22-0.63,1.81-0.63c0.6,0,1.07,0.17,1.42,0.51c0.34,0.34,0.52,0.8,0.52,1.4v2.16c0,0.17,0.08,0.26,0.23,0.26v0.55
						c-0.1,0.02-0.18,0.03-0.24,0.03c-0.16,0-0.28-0.04-0.37-0.12s-0.14-0.19-0.14-0.33l-0.02-0.38c-0.22,0.29-0.5,0.51-0.83,0.66
						C123.48,69.54,123.11,69.62,122.73,69.62z M122.88,69.14c0.33,0,0.62-0.06,0.9-0.18c0.27-0.12,0.48-0.29,0.62-0.49
						c0.06-0.05,0.1-0.11,0.12-0.18c0.03-0.06,0.04-0.12,0.04-0.18v-0.78c-0.21-0.08-0.43-0.14-0.65-0.18
						c-0.22-0.04-0.45-0.06-0.69-0.06c-0.44,0-0.8,0.09-1.08,0.28c-0.28,0.18-0.41,0.43-0.41,0.73c0,0.15,0.03,0.29,0.09,0.41
						c0.06,0.13,0.14,0.24,0.24,0.34c0.1,0.1,0.22,0.17,0.36,0.23C122.56,69.11,122.72,69.14,122.88,69.14z"/>
				</g>
				<g>
					<path class="st1" d="M130.96,65.28c-0.42,0.01-0.79,0.13-1.11,0.35c-0.31,0.22-0.53,0.52-0.66,0.91v2.98h-0.63v-4.8h0.59v1.15
						c0.18-0.37,0.42-0.66,0.72-0.87c0.3-0.21,0.62-0.31,0.97-0.31c0.05,0,0.09,0,0.12,0.01V65.28z"/>
				</g>
				<g>
					<path class="st1" d="M137.26,69.52l-1.77-2.46l-1.03,0.96v1.5h-0.63V62.8h0.63v4.57l2.7-2.63h0.71l-1.96,1.96l2.04,2.83H137.26
						z"/>
				</g>
				<g>
					<path class="st1" d="M142.56,69.62c-0.35,0-0.67-0.07-0.96-0.2c-0.29-0.13-0.55-0.31-0.76-0.54c-0.21-0.23-0.38-0.5-0.5-0.8
						c-0.12-0.3-0.18-0.62-0.18-0.97c0-0.34,0.06-0.66,0.18-0.95c0.12-0.3,0.29-0.56,0.5-0.78c0.21-0.22,0.47-0.4,0.76-0.53
						c0.29-0.13,0.61-0.2,0.96-0.2c0.35,0,0.67,0.07,0.96,0.2c0.29,0.13,0.54,0.31,0.75,0.54c0.21,0.23,0.37,0.49,0.49,0.78
						s0.18,0.61,0.18,0.94c0,0.05,0,0.1,0,0.15c0,0.05,0,0.08-0.01,0.1h-4.11c0.02,0.26,0.08,0.5,0.18,0.71
						c0.1,0.22,0.23,0.41,0.39,0.57c0.16,0.16,0.34,0.28,0.55,0.37c0.21,0.09,0.43,0.13,0.66,0.13c0.15,0,0.31-0.02,0.46-0.06
						c0.15-0.04,0.29-0.1,0.42-0.17c0.13-0.07,0.25-0.16,0.35-0.27c0.1-0.11,0.18-0.23,0.24-0.35l0.54,0.15
						c-0.07,0.18-0.18,0.34-0.31,0.48c-0.14,0.14-0.29,0.27-0.47,0.38c-0.18,0.11-0.37,0.19-0.59,0.25
						C143.02,69.59,142.79,69.62,142.56,69.62z M144.33,66.87c-0.02-0.26-0.08-0.49-0.18-0.7c-0.1-0.21-0.23-0.4-0.39-0.55
						c-0.16-0.15-0.34-0.27-0.54-0.36c-0.21-0.09-0.43-0.13-0.66-0.13c-0.23,0-0.45,0.04-0.66,0.13c-0.21,0.09-0.39,0.21-0.55,0.36
						c-0.16,0.15-0.28,0.34-0.38,0.55c-0.1,0.21-0.15,0.45-0.17,0.7H144.33z"/>
				</g>
				<g>
					<path class="st1" d="M150.19,69.29c-0.04,0.02-0.09,0.04-0.16,0.07c-0.07,0.03-0.15,0.06-0.24,0.09
						c-0.09,0.03-0.2,0.06-0.31,0.08c-0.12,0.02-0.24,0.04-0.37,0.04c-0.14,0-0.26-0.02-0.39-0.06c-0.12-0.04-0.23-0.09-0.32-0.17
						c-0.09-0.08-0.17-0.17-0.22-0.29c-0.06-0.12-0.08-0.25-0.08-0.4v-3.44h-0.66v-0.5h0.66V63.1h0.63v1.62h1.11v0.5h-1.11v3.26
						c0.01,0.18,0.08,0.31,0.19,0.39c0.11,0.08,0.24,0.12,0.39,0.12c0.18,0,0.33-0.03,0.47-0.09c0.14-0.06,0.22-0.1,0.26-0.12
						L150.19,69.29z"/>
				</g>
				<g>
					<path class="st1" d="M153,63.72V62.8h0.63v0.92H153z M153,69.52v-4.8h0.63v4.8H153z"/>
				</g>
				<g>
					<path class="st1" d="M161.07,69.52h-0.63v-2.68c0-0.57-0.08-0.99-0.25-1.24c-0.17-0.26-0.43-0.39-0.78-0.39
						c-0.18,0-0.37,0.03-0.55,0.1c-0.18,0.07-0.35,0.16-0.51,0.29c-0.16,0.12-0.3,0.27-0.42,0.44c-0.12,0.17-0.21,0.35-0.27,0.55
						v2.94h-0.63v-4.8h0.57v1.09c0.2-0.35,0.48-0.63,0.84-0.85c0.37-0.21,0.76-0.32,1.19-0.32c0.26,0,0.49,0.05,0.67,0.15
						c0.18,0.1,0.33,0.24,0.44,0.41c0.11,0.18,0.19,0.4,0.24,0.65c0.05,0.26,0.07,0.54,0.07,0.86V69.52z"/>
				</g>
				<g>
					<path class="st1" d="M166.36,69.59c-0.33,0-0.63-0.07-0.91-0.21s-0.51-0.32-0.71-0.55c-0.2-0.23-0.35-0.49-0.47-0.78
						c-0.11-0.29-0.17-0.6-0.17-0.91c0-0.33,0.05-0.65,0.16-0.95c0.11-0.3,0.26-0.57,0.46-0.8s0.43-0.41,0.7-0.54
						c0.27-0.14,0.58-0.2,0.91-0.2c0.41,0,0.77,0.1,1.07,0.31c0.3,0.21,0.56,0.46,0.77,0.78v-1h0.56v4.82
						c0,0.33-0.06,0.63-0.19,0.88c-0.13,0.25-0.29,0.47-0.51,0.64c-0.21,0.17-0.46,0.3-0.75,0.39c-0.29,0.09-0.59,0.13-0.91,0.13
						c-0.55,0-1-0.1-1.34-0.29c-0.34-0.2-0.61-0.46-0.82-0.79l0.39-0.3c0.19,0.31,0.44,0.53,0.76,0.68
						c0.31,0.14,0.65,0.22,1.01,0.22c0.23,0,0.45-0.03,0.66-0.1c0.21-0.06,0.39-0.16,0.55-0.29c0.16-0.13,0.28-0.29,0.37-0.48
						c0.09-0.19,0.14-0.42,0.14-0.68v-0.95c-0.18,0.31-0.44,0.55-0.76,0.73C167.04,69.5,166.71,69.59,166.36,69.59z M166.53,69.06
						c0.18,0,0.37-0.03,0.54-0.1c0.18-0.07,0.34-0.16,0.48-0.27c0.14-0.11,0.27-0.24,0.36-0.38c0.1-0.14,0.16-0.29,0.19-0.43v-1.48
						c-0.07-0.17-0.16-0.33-0.28-0.48c-0.12-0.15-0.25-0.27-0.4-0.38c-0.15-0.1-0.31-0.19-0.47-0.25c-0.17-0.06-0.34-0.09-0.51-0.09
						c-0.27,0-0.51,0.06-0.72,0.17c-0.21,0.11-0.39,0.26-0.54,0.45c-0.15,0.18-0.26,0.39-0.34,0.63c-0.08,0.23-0.11,0.47-0.11,0.71
						c0,0.26,0.05,0.5,0.14,0.74c0.09,0.23,0.22,0.44,0.38,0.61c0.16,0.17,0.35,0.31,0.57,0.41S166.28,69.06,166.53,69.06z"/>
				</g>
			</g>
			<g>
				<path class="st15" d="M231.39,69.52h-3.39l12.67-25.88h3.39L231.39,69.52z"/>
			</g>
			<g>
				<path class="st15" d="M230.04,44.43h-3.31v-5.99h3.31V44.43z"/>
			</g>
			<g>
				<path class="st3" d="M238.26,69.52h-3.39l15.18-31.09h3.39L238.26,69.52z"/>
			</g>
			<g>
				<path class="st1" d="M235.75,69.52h-5.24l12.28-25.09h-13.54v-5.99h21.68L235.75,69.52z"/>
			</g>
		</g>
	</g>
</g>
<g id="Capa_6">
</g>
<g id="Capa_5">
</g>
</svg>
