<?xml version="1.0" encoding="utf-8"?>
<!-- Generator: Adobe Illustrator 24.0.3, SVG Export Plug-In . SVG Version: 6.00 Build 0)  -->
<svg version="1.1" xmlns="http://www.w3.org/2000/svg" xmlns:xlink="http://www.w3.org/1999/xlink" x="0px" y="0px"
	 viewBox="0 0 187.66 96.65" style="enable-background:new 0 0 187.66 96.65;" xml:space="preserve">
<style type="text/css">
	.st0{fill:none;stroke:#E7004C;stroke-miterlimit:10;}
	.st1{fill:#FFFFFF;}
	.st2{fill:url(#SVGID_1_);}
	.st3{fill:#E7004C;}
	.st4{fill:#42050E;}
	.st5{fill:none;stroke:#FFFFFF;stroke-width:0.75;stroke-miterlimit:10;}
	.st6{fill-rule:evenodd;clip-rule:evenodd;fill:#FFFFFF;}
	.st7{fill:none;stroke:#00B2E3;stroke-miterlimit:10;}
	.st8{fill:url(#SVGID_2_);}
	.st9{fill:#FCFCFC;}
	.st10{fill:url(#SVGID_3_);}
	.st11{fill:url(#SVGID_4_);}
	.st12{opacity:0.8;fill:#E7004C;}
	.st13{opacity:0.7;fill:#E7004C;}
	.st14{opacity:0.7;}
	.st15{fill:#00B2E3;}
	.st16{opacity:0.8;fill:#00B2E3;}
	.st17{opacity:0.7;fill:#00B2E3;}
	.st18{fill:#BBBBBB;}
	.st19{opacity:0.8;fill:#BBBBBB;}
	.st20{opacity:0.7;fill:#BBBBBB;}
	.st21{fill:url(#SVGID_5_);}
	.st22{fill:url(#SVGID_6_);}
	.st23{fill:none;stroke:#E7004C;stroke-width:2;stroke-miterlimit:10;}
	.st24{fill:url(#SVGID_7_);}
	.st25{fill:url(#SVGID_8_);}
	.st26{fill:url(#SVGID_9_);}
	.st27{fill:none;stroke:#FFFFFF;stroke-miterlimit:10;}
	.st28{fill-rule:evenodd;clip-rule:evenodd;fill:#E7004C;}
	.st29{fill:none;stroke:#000000;stroke-miterlimit:10;}
	.st30{fill:#38A8E0;}
	.st31{clip-path:url(#SVGID_11_);fill:#00B2E3;}
	.st32{fill:none;stroke:#E7004C;stroke-width:3;stroke-miterlimit:10;}
	.st33{clip-path:url(#SVGID_13_);}
	.st34{fill:none;stroke:#FFFFFF;stroke-width:2;stroke-miterlimit:10;}
	.st35{fill:none;stroke:#FFFFFF;stroke-width:3;stroke-miterlimit:10;}
	.st36{clip-path:url(#SVGID_15_);}
	.st37{fill:url(#SVGID_16_);}
	.st38{fill:none;stroke:#FFFFFF;stroke-width:0.5;stroke-miterlimit:10;}
	.st39{clip-path:url(#SVGID_18_);fill:#00B2E3;}
	.st40{clip-path:url(#SVGID_20_);}
	.st41{clip-path:url(#SVGID_22_);}
	.st42{fill:url(#SVGID_23_);}
	.st43{clip-path:url(#SVGID_25_);}
	.st44{fill:url(#SVGID_26_);}
	.st45{fill:url(#SVGID_27_);}
	.st46{fill:url(#SVGID_28_);}
	.st47{fill:url(#SVGID_29_);}
	.st48{clip-path:url(#SVGID_31_);fill:#00B2E3;}
	.st49{clip-path:url(#SVGID_33_);}
	.st50{clip-path:url(#SVGID_35_);}
	.st51{fill:url(#SVGID_36_);}
	.st52{clip-path:url(#SVGID_38_);}
	.st53{clip-path:url(#SVGID_40_);}
	.st54{fill:#280210;}
	.st55{opacity:0.5;}
	.st56{opacity:0.6;}
	.st57{fill:url(#SVGID_41_);}
	.st58{fill:url(#SVGID_42_);}
	.st59{fill:url(#SVGID_43_);}
	.st60{fill:url(#SVGID_44_);}
	.st61{opacity:0.8;}
	.st62{opacity:0.9;}
	.st63{fill:url(#SVGID_45_);}
	.st64{clip-path:url(#SVGID_47_);}
	.st65{clip-path:url(#SVGID_49_);}
	.st66{fill:url(#SVGID_50_);}
	.st67{clip-path:url(#SVGID_52_);}
	.st68{fill:url(#SVGID_53_);}
	.st69{clip-path:url(#SVGID_55_);}
	.st70{fill:url(#SVGID_56_);}
	.st71{clip-path:url(#SVGID_58_);fill:#00B2E3;}
	.st72{clip-path:url(#SVGID_60_);}
	.st73{clip-path:url(#SVGID_62_);}
	.st74{fill:none;stroke:#FFFFFF;stroke-width:5;stroke-miterlimit:10;}
	.st75{clip-path:url(#SVGID_64_);fill:#00B2E3;}
	.st76{clip-path:url(#SVGID_66_);}
	.st77{clip-path:url(#SVGID_68_);}
	.st78{clip-path:url(#SVGID_70_);fill:#00B2E3;}
	.st79{clip-path:url(#SVGID_72_);}
	.st80{fill:#5B0323;}
	.st81{fill:url(#SVGID_73_);}
	.st82{fill:url(#SVGID_74_);}
	.st83{fill:url(#SVGID_75_);}
	.st84{clip-path:url(#SVGID_77_);fill:#00B2E3;}
	.st85{clip-path:url(#SVGID_80_);}
	.st86{fill:none;stroke:#00B2E3;stroke-width:2;stroke-miterlimit:10;}
	.st87{fill-rule:evenodd;clip-rule:evenodd;fill:#00B2E3;}
	.st88{clip-path:url(#SVGID_84_);}
	.st89{fill:#E5E5E5;}
	.st90{clip-path:url(#SVGID_86_);}
	.st91{fill-rule:evenodd;clip-rule:evenodd;fill:none;stroke:#E7004C;stroke-width:3;stroke-miterlimit:10;}
	.st92{fill:#020202;}
	.st93{fill:none;stroke:#5B0323;stroke-miterlimit:10;}
	.st94{fill:#070101;}
	.st95{fill:none;stroke:#068FFF;stroke-width:5;stroke-miterlimit:10;}
</style>
<g id="Capa_2">
</g>
<g id="Capa_1">
</g>
<g id="Capa_3">
</g>
<g id="Capa_4">
	<g>
	</g>
	<g>
		<g>
			<g>
				<path class="st1" d="M173.28,33.66c0.21,0,0.36,0.07,0.5,0.07c1.58,0.29,4.66,0.86,4.66,5.59v21.94c0,0-2.44,2.29-4.95,2.29
					c-3.22,0-5.28-2.19-5.32-5.89V31.79l-14.34,1.86c0.22,0,0.36,0.07,0.5,0.07c1.58,0.29,4.66,0.86,4.61,5.59v12.48v1.21v2.7
					c0,8.39,6.78,9.3,9.79,9.3c4.89,0,7.68-1.31,9.71-3.29v17.73c0,1.37,0,3.66-1.43,5.16c2.22-0.93,4.09-2.22,5.38-3.59
					c3.59-3.16,5.24-7.53,5.27-13.77V31.79L173.28,33.66z"/>
				<path class="st1" d="M46.98,47.21c0-6.27,2.11-13.69,5.59-15.38c-9.05,1.27-14.82,7.75-14.82,16.77
					c0,10.08,7.17,16.42,17.88,16.42c5.22,0,9.32-1.48,12.59-4.23c-2.71,1.41-5.64,2.26-8.63,2.26
					C51.53,63.05,46.98,57.01,46.98,47.21"/>
				<path class="st1" d="M114.89,63.55c-3.22,0-5.28-2.19-5.32-5.89V31.79l-14.34,1.86c0.22,0,0.36,0.07,0.5,0.07
					c1.58,0.29,4.66,0.86,4.61,5.59v16.4c0,1.81,0.32,3.27,0.84,4.45c-0.02,0.02-0.04,0.04-0.06,0.07c0.06,0.13,0.1,0.26,0.13,0.39
					c0.03-0.04,0.06-0.07,0.09-0.11c2,3.97,6.49,4.5,8.78,4.5c2.66,0,5.18-0.7,7.34-1.96C116.64,63.34,115.87,63.55,114.89,63.55"/>
				<path class="st1" d="M101.19,60.17l-0.24,0.29c-0.84,1.01-1.87,1.86-3.06,2.44c-0.76,0.37-1.64,0.65-2.53,0.65
					c-3.22,0-5.28-2.19-5.32-5.89V31.79L75.7,33.66c0.22,0,0.36,0.07,0.5,0.07c1.58,0.29,4.66,0.86,4.61,5.59v16.4
					c0,8.39,6.78,9.3,9.79,9.3c4.85,0,7.64-1.29,9.65-3.24l1.1-1.26L101.19,60.17z"/>
				<path class="st1" d="M129.11,57.67V31.79l-14.34,1.86c0.22,0,0.36,0.07,0.5,0.07c1.58,0.29,4.66,0.86,4.61,5.59v12.48v1.21v2.7
					c0,8.39,6.78,9.3,9.79,9.3c2.66,0,5.18-0.7,7.34-1.96c-0.84,0.28-1.61,0.49-2.59,0.49C131.21,63.55,129.15,61.37,129.11,57.67"
					/>
				<path class="st1" d="M148.65,57.67l0-30.21l5.19-0.67v-1.9l-5.17,0.67v-11c-0.28,0.93-0.67,1.94-1.15,2.97
					c-2.43,5.24-7.4,8.85-13.11,9.72l-0.01,0c2.77,0,5.02,2.25,5.02,5.02v23.45c0,8.39,6.78,9.3,9.79,9.3c2.66,0,5.18-0.7,7.34-1.96
					c-0.84,0.28-1.61,0.49-2.59,0.49C150.74,63.55,148.68,61.37,148.65,57.67"/>
				<path class="st1" d="M9.23,47.21c0-6.27,2.11-13.69,5.59-15.38C5.77,33.1,0,39.58,0,48.6c0,10.08,7.17,16.42,17.88,16.42
					c5.22,0,9.32-1.48,12.59-4.23c-2.71,1.41-5.64,2.26-8.63,2.26C13.78,63.05,9.23,57.01,9.23,47.21"/>
				<path class="st1" d="M23.91,47.21c0,0.41-0.01,0.82-0.03,1.22h9.25c-0.07-8.93-5.83-15.34-14.82-16.6
					C21.8,33.52,23.91,40.94,23.91,47.21"/>
				<path class="st1" d="M80,77.81c-2.51,0-4.58,2.08-4.58,4.66c0,2.58,2.08,4.58,4.58,4.58c2.58,0,4.66-2.01,4.66-4.58
					C84.66,79.89,82.58,77.81,80,77.81"/>
				<path class="st1" d="M124.87,9.24c2.58,0,4.66-2.01,4.66-4.58c0-2.58-2.08-4.66-4.66-4.66c-2.51,0-4.58,2.08-4.58,4.66
					C120.29,7.23,122.37,9.24,124.87,9.24"/>
				<path class="st1" d="M169.74,77.81c2.51,0,4.58,2.08,4.58,4.66c0,2.58-2.08,4.58-4.58,4.58c-2.58,0-4.66-2.01-4.66-4.58
					C165.09,79.89,167.16,77.81,169.74,77.81"/>
				<path class="st1" d="M71.26,79.47l0-47.67l-14.38,1.86c0.22,0,0.36,0.07,0.5,0.07c1.58,0.29,4.66,0.86,4.66,5.59l0,27.95
					c0.04,6.24,1.69,10.61,5.27,13.77c1.29,1.36,3.16,2.65,5.38,3.59C71.26,83.13,71.26,80.83,71.26,79.47"/>
			</g>
		</g>
	</g>
</g>
<g id="Capa_6">
</g>
<g id="Capa_5">
</g>
</svg>
