<?xml version="1.0" encoding="utf-8"?>
<!-- Generator: Adobe Illustrator 24.0.3, SVG Export Plug-In . SVG Version: 6.00 Build 0)  -->
<svg version="1.1" xmlns="http://www.w3.org/2000/svg" xmlns:xlink="http://www.w3.org/1999/xlink" x="0px" y="0px"
	 viewBox="0 0 132.71 54.99" style="enable-background:new 0 0 132.71 54.99;" xml:space="preserve">
<style type="text/css">
	.st0{fill:none;stroke:#E7004C;stroke-miterlimit:10;}
	.st1{fill:#FFFFFF;}
	.st2{fill:url(#SVGID_1_);}
	.st3{fill:#E7004C;}
	.st4{fill:#42050E;}
	.st5{fill:none;stroke:#FFFFFF;stroke-width:0.75;stroke-miterlimit:10;}
	.st6{fill-rule:evenodd;clip-rule:evenodd;fill:#FFFFFF;}
	.st7{fill:none;stroke:#00B2E3;stroke-miterlimit:10;}
	.st8{fill:url(#SVGID_2_);}
	.st9{fill:#FCFCFC;}
	.st10{fill:url(#SVGID_3_);}
	.st11{fill:url(#SVGID_4_);}
	.st12{opacity:0.8;fill:#E7004C;}
	.st13{opacity:0.7;fill:#E7004C;}
	.st14{opacity:0.7;}
	.st15{fill:#00B2E3;}
	.st16{opacity:0.8;fill:#00B2E3;}
	.st17{opacity:0.7;fill:#00B2E3;}
	.st18{fill:#BBBBBB;}
	.st19{opacity:0.8;fill:#BBBBBB;}
	.st20{opacity:0.7;fill:#BBBBBB;}
	.st21{fill:url(#SVGID_5_);}
	.st22{fill:url(#SVGID_6_);}
	.st23{fill:none;stroke:#E7004C;stroke-width:2;stroke-miterlimit:10;}
	.st24{fill:url(#SVGID_7_);}
	.st25{fill:url(#SVGID_8_);}
	.st26{fill:url(#SVGID_9_);}
	.st27{fill:none;stroke:#FFFFFF;stroke-miterlimit:10;}
	.st28{fill-rule:evenodd;clip-rule:evenodd;fill:#E7004C;}
	.st29{fill:none;stroke:#000000;stroke-miterlimit:10;}
	.st30{fill:#38A8E0;}
	.st31{clip-path:url(#SVGID_11_);fill:#00B2E3;}
	.st32{fill:none;stroke:#E7004C;stroke-width:3;stroke-miterlimit:10;}
	.st33{clip-path:url(#SVGID_13_);}
	.st34{fill:none;stroke:#FFFFFF;stroke-width:2;stroke-miterlimit:10;}
	.st35{fill:none;stroke:#FFFFFF;stroke-width:3;stroke-miterlimit:10;}
	.st36{clip-path:url(#SVGID_15_);}
	.st37{fill:url(#SVGID_16_);}
	.st38{fill:none;stroke:#FFFFFF;stroke-width:0.5;stroke-miterlimit:10;}
	.st39{clip-path:url(#SVGID_18_);fill:#00B2E3;}
	.st40{clip-path:url(#SVGID_20_);}
	.st41{clip-path:url(#SVGID_22_);}
	.st42{fill:url(#SVGID_23_);}
	.st43{clip-path:url(#SVGID_25_);}
	.st44{fill:url(#SVGID_26_);}
	.st45{fill:url(#SVGID_27_);}
	.st46{fill:url(#SVGID_28_);}
	.st47{fill:url(#SVGID_29_);}
	.st48{clip-path:url(#SVGID_31_);fill:#00B2E3;}
	.st49{clip-path:url(#SVGID_33_);}
	.st50{clip-path:url(#SVGID_35_);}
	.st51{fill:url(#SVGID_36_);}
	.st52{clip-path:url(#SVGID_38_);}
	.st53{clip-path:url(#SVGID_40_);}
	.st54{fill:#280210;}
	.st55{opacity:0.5;}
	.st56{opacity:0.6;}
	.st57{fill:url(#SVGID_41_);}
	.st58{fill:url(#SVGID_42_);}
	.st59{fill:url(#SVGID_43_);}
	.st60{fill:url(#SVGID_44_);}
	.st61{opacity:0.8;}
	.st62{opacity:0.9;}
	.st63{fill:url(#SVGID_45_);}
	.st64{clip-path:url(#SVGID_47_);}
	.st65{clip-path:url(#SVGID_49_);}
	.st66{fill:url(#SVGID_50_);}
	.st67{clip-path:url(#SVGID_52_);}
	.st68{fill:url(#SVGID_53_);}
	.st69{clip-path:url(#SVGID_55_);}
	.st70{fill:url(#SVGID_56_);}
	.st71{clip-path:url(#SVGID_58_);fill:#00B2E3;}
	.st72{clip-path:url(#SVGID_60_);}
	.st73{clip-path:url(#SVGID_62_);}
	.st74{fill:none;stroke:#FFFFFF;stroke-width:5;stroke-miterlimit:10;}
	.st75{clip-path:url(#SVGID_64_);fill:#00B2E3;}
	.st76{clip-path:url(#SVGID_66_);}
	.st77{clip-path:url(#SVGID_68_);}
	.st78{clip-path:url(#SVGID_70_);fill:#00B2E3;}
	.st79{clip-path:url(#SVGID_72_);}
	.st80{fill:#5B0323;}
	.st81{fill:url(#SVGID_73_);}
	.st82{fill:url(#SVGID_74_);}
	.st83{fill:url(#SVGID_75_);}
	.st84{clip-path:url(#SVGID_77_);fill:#00B2E3;}
	.st85{clip-path:url(#SVGID_80_);}
	.st86{fill:none;stroke:#00B2E3;stroke-width:2;stroke-miterlimit:10;}
	.st87{fill-rule:evenodd;clip-rule:evenodd;fill:#00B2E3;}
	.st88{clip-path:url(#SVGID_84_);}
	.st89{fill:#E5E5E5;}
	.st90{clip-path:url(#SVGID_86_);}
	.st91{fill-rule:evenodd;clip-rule:evenodd;fill:none;stroke:#E7004C;stroke-width:3;stroke-miterlimit:10;}
	.st92{fill:#020202;}
	.st93{fill:none;stroke:#5B0323;stroke-miterlimit:10;}
	.st94{fill:#070101;}
	.st95{fill:none;stroke:#068FFF;stroke-width:5;stroke-miterlimit:10;}
</style>
<g id="Capa_2">
</g>
<g id="Capa_1">
</g>
<g id="Capa_3">
</g>
<g id="Capa_4">
	<g>
	</g>
	<g>
		<g>
			<path class="st1" d="M48.78,42.16c0.55,0,1.01,0.14,1.38,0.4l0.1,0.07l0.51-0.56l-0.13-0.09c-0.52-0.35-1.15-0.53-1.87-0.53
				c-1.97,0-3.24,1.31-3.24,3.33c0,2.02,1.27,3.33,3.24,3.33c0.72,0,1.35-0.18,1.87-0.54l0.13-0.09l-0.51-0.56l-0.1,0.07
				c-0.37,0.27-0.84,0.4-1.38,0.4c-1.51,0-2.45-1-2.45-2.61C46.33,43.16,47.27,42.16,48.78,42.16z"/>
			<path class="st1" d="M54.29,43.2L54.29,43.2c-1.46,0-2.45,0.99-2.45,2.46c0,1.47,0.98,2.46,2.45,2.46c1.49,0,2.45-0.96,2.45-2.46
				C56.73,44.17,55.77,43.2,54.29,43.2z M54.29,47.44c-1.03,0-1.67-0.68-1.67-1.78c0-1.1,0.64-1.78,1.67-1.78
				c1.05,0,1.67,0.67,1.67,1.78S55.33,47.44,54.29,47.44z"/>
			<path class="st1" d="M60.4,43.2c-0.62,0-1.05,0.22-1.58,0.65l-0.01-0.53h-0.72V48h0.77v-3.41c0.61-0.55,0.94-0.71,1.42-0.71
				c0.65,0,1.35,0.37,1.35,1.18V48h0.77v-3.03C62.41,43.81,61.4,43.2,60.4,43.2z"/>
			<path class="st1" d="M65.37,46.98c-0.21-0.23-0.31-0.55-0.31-0.95v-2.06h1.34v-0.66h-1.34v-1.29h-0.77v1.29h-0.89v0.66h0.89v2.06
				c0,0.62,0.19,1.11,0.55,1.46c0.34,0.33,0.83,0.52,1.45,0.56l0.14,0.01v-0.65L66.3,47.4C65.89,47.36,65.58,47.22,65.37,46.98z"/>
			<path class="st1" d="M69.77,43.19c-1.44,0-2.37,0.96-2.37,2.45c0,1.5,0.95,2.46,2.42,2.46c0.67,0,1.28-0.17,1.76-0.49l0.12-0.08
				l-0.38-0.48l-0.1,0.05c-0.41,0.23-0.9,0.34-1.4,0.33c-0.89-0.01-1.49-0.52-1.63-1.38h3.75l0.02-0.11
				c0.03-0.18,0.05-0.41,0.05-0.6C72.01,43.96,71.22,43.19,69.77,43.19z M68.17,45.48c0.03-1.01,0.64-1.63,1.61-1.63
				c1,0,1.49,0.46,1.49,1.41c0,0.07,0,0.15-0.01,0.22H68.17z"/>
			<path class="st1" d="M75.61,43.2c-0.62,0-1.05,0.22-1.58,0.65l-0.01-0.53h-0.72V48h0.77v-3.41c0.61-0.55,0.94-0.71,1.42-0.71
				c0.65,0,1.35,0.37,1.35,1.18V48h0.77v-3.03C77.62,43.81,76.61,43.2,75.61,43.2z"/>
			<path class="st1" d="M80.57,46.98c-0.21-0.23-0.31-0.55-0.31-0.95v-2.06h1.34v-0.66h-1.34v-1.29h-0.77v1.29h-0.89v0.66h0.89v2.06
				c0,0.62,0.19,1.11,0.55,1.46c0.34,0.33,0.83,0.52,1.45,0.56l0.14,0.01v-0.65L81.5,47.4C81.09,47.36,80.78,47.22,80.57,46.98z"/>
			<polygon class="st1" points="89.19,46.93 86.85,41.55 85.98,41.55 85.98,48 86.78,48 86.78,43.33 88.85,48 89.53,48 91.61,43.33 
				91.61,48 92.4,48 92.4,41.55 91.53,41.55 			"/>
			<path class="st1" d="M95.93,43.2c-0.56,0-1.19,0.17-1.71,0.46l-0.11,0.06l0.25,0.57l0.13-0.07c0.41-0.23,0.92-0.37,1.35-0.37
				c0.69,0,1.4,0.39,1.4,1.12v0.28c-0.42-0.19-0.93-0.3-1.43-0.3c-1.23,0-2.03,0.62-2.03,1.59c0,1.09,0.96,1.58,1.86,1.58
				c0.46,0,1.1-0.11,1.64-0.59L97.31,48h0.72v-3.03C98.03,43.76,96.94,43.2,95.93,43.2z M95.77,47.46c-0.61,0-1.23-0.29-1.23-0.95
				c0-0.89,1.04-0.96,1.37-0.96c0.49,0,0.99,0.13,1.35,0.34v0.92C96.89,47.24,96.39,47.46,95.77,47.46z"/>
			<path class="st1" d="M100.28,43.88l-0.02-0.56h-0.72V48h0.77v-3.3c0.36-0.53,0.86-0.82,1.43-0.82l0.26,0v-0.68l-0.19,0
				C101.25,43.21,100.7,43.45,100.28,43.88z"/>
			<polygon class="st1" points="107.02,43.32 106.06,43.32 103.92,45.45 103.92,41.22 103.15,41.22 103.15,48 103.92,48 
				103.92,46.48 104.65,45.77 106.27,48 107.21,48 105.16,45.22 			"/>
			<path class="st1" d="M110.07,43.19c-1.44,0-2.37,0.96-2.37,2.45c0,1.5,0.95,2.46,2.42,2.46c0.67,0,1.28-0.17,1.76-0.49l0.12-0.08
				l-0.38-0.48l-0.1,0.05c-0.41,0.23-0.9,0.35-1.4,0.33c-0.89-0.01-1.49-0.52-1.63-1.38h3.75l0.02-0.11
				c0.03-0.18,0.05-0.41,0.05-0.6C112.32,43.96,111.52,43.19,110.07,43.19z M108.48,45.48c0.03-1.01,0.64-1.63,1.61-1.63
				c1,0,1.49,0.46,1.49,1.41c0,0.07,0,0.15-0.01,0.22H108.48z"/>
			<path class="st1" d="M115.04,46.98c-0.21-0.23-0.31-0.55-0.31-0.95v-2.06h1.34v-0.66h-1.34v-1.29h-0.77v1.29h-0.89v0.66h0.89
				v2.06c0,0.62,0.19,1.11,0.55,1.46c0.34,0.33,0.83,0.52,1.45,0.56l0.14,0.01v-0.65l-0.12-0.01
				C115.56,47.36,115.25,47.22,115.04,46.98z"/>
			<path class="st1" d="M117.95,41.7c-0.24,0-0.44,0.19-0.44,0.42c0,0.23,0.2,0.42,0.44,0.42c0.24,0,0.44-0.19,0.44-0.42
				C118.39,41.89,118.19,41.7,117.95,41.7z"/>
			<rect x="117.56" y="43.32" class="st1" width="0.77" height="4.68"/>
			<path class="st1" d="M122.25,43.2c-0.62,0-1.05,0.22-1.58,0.65l-0.01-0.53h-0.72V48h0.77v-3.41c0.61-0.55,0.94-0.71,1.42-0.71
				c0.65,0,1.35,0.37,1.35,1.18V48h0.77v-3.03C124.26,43.81,123.25,43.2,122.25,43.2z"/>
			<path class="st1" d="M129.8,47.81c-0.48-0.47-1.31-0.53-1.99-0.52H127c-0.35-0.01-0.58-0.14-0.58-0.34
				c0-0.15,0.14-0.31,0.37-0.42c0.26,0.11,0.57,0.17,0.92,0.17c1.28,0,2.05-0.66,2.05-1.77c0-0.4-0.13-0.75-0.38-1.01l0.75-0.02
				v-0.59h-1.49c-0.27-0.1-0.58-0.15-0.93-0.15c-1.24,0-2.05,0.69-2.05,1.77c0,0.53,0.18,0.97,0.52,1.27
				c-0.3,0.21-0.48,0.49-0.48,0.78c0,0.26,0.16,0.49,0.42,0.63c-0.44,0.24-0.66,0.63-0.66,1.16c0,0.93,0.89,1.49,2.39,1.49
				c1.12,0,2.31-0.39,2.31-1.49C130.16,48.37,130.04,48.05,129.8,47.81z M129.39,48.77c0,0.77-1.24,0.83-1.62,0.83
				c-0.74,0-1.54-0.22-1.54-0.83c0-0.59,0.42-0.83,1.49-0.83C128.8,47.95,129.39,48.08,129.39,48.77z M127.7,43.83
				c0.82,0,1.31,0.41,1.31,1.1c0,0.7-0.48,1.1-1.31,1.1c-0.49,0-1.31-0.14-1.31-1.1C126.4,44.24,126.88,43.83,127.7,43.83z"/>
		</g>
		<rect x="0.04" y="45.32" class="st1" width="43" height="0.54"/>
		<g>
			<path class="st1" d="M14.2,17.08c-3.68-0.35-5.07-1.15-5.21-2.51H8.98c0-1.38,0.81-2.28,1.73-2.84c1.63-1,3.71-1,5.34,0
				c0.93,0.57,1.73,1.46,1.73,2.84h8.55l-0.25-1.76c-0.97-6.9-7.02-9.99-12.6-9.99c-4.46,0-8.69,1.9-11.03,4.96
				c-1.59,2.07-2.33,4.69-2.11,7.38h0c0.69,8.69,9.18,9.89,12.84,9.92c5.28,0.04,5.08,1.96,5.08,1.96c0,1.38-0.81,2.28-1.73,2.84
				c-1.63,1-3.71,1-5.34,0c-0.93-0.57-1.73-1.46-1.73-2.88H0l0.15,1.47c0.69,6.68,7.33,10.29,13.22,10.29
				c6.68,0,13.59-4.33,13.59-11.58C26.96,16.26,14.2,17.08,14.2,17.08z"/>
		</g>
		<path class="st1" d="M44.12,38.74c-4.76,0-9.37-1.94-12.65-5.33c-3.35-3.45-5.19-7.95-5.19-12.65s1.84-9.2,5.19-12.65
			c3.34-3.39,7.94-5.33,12.65-5.33c4.75,0,9.25,1.88,12.67,5.3C60.16,11.57,62,16.07,62,20.77s-1.84,9.2-5.19,12.65
			C53.42,36.86,48.92,38.74,44.12,38.74z M44.12,12.54c-2.11,0-4.19,0.88-5.69,2.42c-1.56,1.56-2.41,3.62-2.41,5.8
			s0.85,4.24,2.4,5.79c1.52,1.55,3.6,2.44,5.71,2.44c2.13,0,4.24-0.89,5.79-2.44c1.52-1.55,2.36-3.61,2.36-5.79s-0.84-4.24-2.37-5.8
			C48.36,13.43,46.25,12.54,44.12,12.54z"/>
		<g>
			<path class="st1" d="M130.62,31.98c-1.69,2.16-3.83,3.83-6.41,5c-2.58,1.17-5.26,1.76-8.03,1.76c-2.63,0-5.11-0.42-7.43-1.27
				c-2.32-0.85-4.34-2.05-6.06-3.63c-1.71-1.57-3.06-3.46-4.05-5.67c-0.99-2.21-1.48-4.67-1.48-7.4c0-2.72,0.49-5.19,1.48-7.4
				c0.99-2.21,2.34-4.1,4.05-5.67c1.71-1.57,3.73-2.78,6.06-3.63c2.32-0.85,4.8-1.27,7.43-1.27c2.44,0,4.66,0.42,6.66,1.27
				c2,0.85,3.69,2.06,5.07,3.63c1.38,1.57,2.45,3.46,3.21,5.67c0.75,2.21,1.13,4.67,1.13,7.4v3.31h-24.52
				c0.42,2.02,1.34,3.63,2.75,4.83s3.15,1.8,5.21,1.8c1.74,0,3.21-0.39,4.4-1.16c1.2-0.77,2.24-1.77,3.13-2.99L130.62,31.98z
				 M121.68,16.9c0.05-1.78-0.54-3.31-1.76-4.58c-1.22-1.27-2.79-1.9-4.72-1.9c-1.17,0-2.21,0.19-3.1,0.56
				c-0.89,0.38-1.66,0.86-2.29,1.44c-0.63,0.59-1.13,1.27-1.48,2.04c-0.35,0.77-0.55,1.59-0.6,2.43H121.68z"/>
		</g>
		<g>
			<polygon class="st1" points="85.16,28.5 74.04,28.5 79.6,38.07 			"/>
			<path class="st1" d="M85.16,2.81l-5.56,9.57l-5.56-9.57H62.04v35.91h8.71V22.94c-0.59,0-1.07-0.48-1.07-1.07
				c0-0.59,0.48-1.07,1.07-1.07s1.07,0.48,1.07,1.07c0,0.53-0.39,0.97-0.91,1.05l3.12,5.57l5.53-9.53c-0.02,0-0.04,0-0.06,0
				c-0.55-0.05-0.98-0.5-0.98-1.06c0-0.59,0.48-1.07,1.07-1.07s1.07,0.48,1.07,1.07c0,0.56-0.44,1.02-0.99,1.06
				c-0.02,0-0.03,0-0.05,0l5.54,9.53h0l0,0l3.11-5.58c-0.51-0.08-0.91-0.52-0.91-1.05c0-0.59,0.48-1.07,1.07-1.07
				s1.07,0.48,1.07,1.07c0,0.59-0.48,1.07-1.07,1.07v15.79h8.73V2.81H85.16z"/>
		</g>
	</g>
</g>
<g id="Capa_6">
</g>
<g id="Capa_5">
</g>
</svg>
