<?xml version="1.0" encoding="utf-8"?>
<!-- Generator: Adobe Illustrator 24.0.3, SVG Export Plug-In . SVG Version: 6.00 Build 0)  -->
<svg version="1.1" xmlns="http://www.w3.org/2000/svg" xmlns:xlink="http://www.w3.org/1999/xlink" x="0px" y="0px"
	 viewBox="0 0 105.73 46.8" style="enable-background:new 0 0 105.73 46.8;" xml:space="preserve">
<style type="text/css">
	.st0{fill:#FFFFFF;}
	.st1{fill:url(#SVGID_1_);}
	.st2{fill:#E7004C;}
	.st3{fill:none;stroke:#00B2E3;stroke-miterlimit:10;}
	.st4{fill:url(#SVGID_2_);}
	.st5{fill:#FCFCFC;}
	.st6{fill:url(#SVGID_3_);}
	.st7{fill:url(#SVGID_4_);}
	.st8{opacity:0.8;fill:#E7004C;}
	.st9{opacity:0.7;fill:#E7004C;}
	.st10{opacity:0.7;}
	.st11{fill:#00B2E3;}
	.st12{opacity:0.8;fill:#00B2E3;}
	.st13{opacity:0.7;fill:#00B2E3;}
	.st14{fill:#BBBBBB;}
	.st15{opacity:0.8;fill:#BBBBBB;}
	.st16{opacity:0.7;fill:#BBBBBB;}
	.st17{fill:url(#SVGID_5_);}
	.st18{fill:url(#SVGID_6_);}
	.st19{fill:none;stroke:#E7004C;stroke-width:2;stroke-miterlimit:10;}
	.st20{fill:url(#SVGID_7_);}
	.st21{fill:url(#SVGID_8_);}
	.st22{fill:url(#SVGID_9_);}
	.st23{fill:none;stroke:#FFFFFF;stroke-miterlimit:10;}
	.st24{fill:none;stroke:#E7004C;stroke-miterlimit:10;}
	.st25{fill-rule:evenodd;clip-rule:evenodd;fill:#E7004C;}
	.st26{fill:none;stroke:#000000;stroke-miterlimit:10;}
	.st27{fill:#38A8E0;}
	.st28{clip-path:url(#SVGID_11_);fill:#00B2E3;}
	.st29{fill:none;stroke:#E7004C;stroke-width:3;stroke-miterlimit:10;}
	.st30{clip-path:url(#SVGID_13_);}
	.st31{fill:none;stroke:#FFFFFF;stroke-width:2;stroke-miterlimit:10;}
	.st32{fill:none;stroke:#FFFFFF;stroke-width:3;stroke-miterlimit:10;}
	.st33{clip-path:url(#SVGID_15_);}
	.st34{fill:url(#SVGID_16_);}
	.st35{fill:none;stroke:#FFFFFF;stroke-width:0.5;stroke-miterlimit:10;}
	.st36{clip-path:url(#SVGID_18_);fill:#00B2E3;}
	.st37{clip-path:url(#SVGID_20_);}
	.st38{clip-path:url(#SVGID_22_);}
	.st39{fill:url(#SVGID_23_);}
	.st40{clip-path:url(#SVGID_25_);}
	.st41{fill:url(#SVGID_26_);}
	.st42{fill:url(#SVGID_27_);}
	.st43{fill:url(#SVGID_28_);}
	.st44{fill:url(#SVGID_29_);}
	.st45{clip-path:url(#SVGID_31_);fill:#00B2E3;}
	.st46{clip-path:url(#SVGID_33_);}
	.st47{clip-path:url(#SVGID_35_);}
	.st48{fill:url(#SVGID_36_);}
	.st49{clip-path:url(#SVGID_38_);}
	.st50{clip-path:url(#SVGID_40_);}
	.st51{fill:#280210;}
	.st52{opacity:0.5;}
	.st53{opacity:0.6;}
	.st54{fill:url(#SVGID_41_);}
	.st55{fill:url(#SVGID_42_);}
	.st56{fill:url(#SVGID_43_);}
	.st57{fill:url(#SVGID_44_);}
	.st58{opacity:0.8;}
	.st59{opacity:0.9;}
	.st60{fill:url(#SVGID_45_);}
	.st61{clip-path:url(#SVGID_47_);}
	.st62{clip-path:url(#SVGID_49_);}
	.st63{fill:url(#SVGID_50_);}
	.st64{clip-path:url(#SVGID_52_);}
	.st65{fill:url(#SVGID_53_);}
	.st66{clip-path:url(#SVGID_55_);}
	.st67{fill:url(#SVGID_56_);}
	.st68{clip-path:url(#SVGID_58_);}
	.st69{clip-path:url(#SVGID_60_);fill:#00B2E3;}
	.st70{clip-path:url(#SVGID_62_);}
	.st71{clip-path:url(#SVGID_64_);}
	.st72{fill:none;stroke:#FFFFFF;stroke-width:5;stroke-miterlimit:10;}
	.st73{clip-path:url(#SVGID_66_);fill:#00B2E3;}
	.st74{clip-path:url(#SVGID_68_);}
	.st75{clip-path:url(#SVGID_70_);}
	.st76{clip-path:url(#SVGID_72_);fill:#00B2E3;}
	.st77{clip-path:url(#SVGID_74_);}
	.st78{fill:#5B0323;}
	.st79{fill:url(#SVGID_75_);}
	.st80{fill:url(#SVGID_76_);}
	.st81{fill:url(#SVGID_77_);}
	.st82{clip-path:url(#SVGID_80_);fill:#00B2E3;}
	.st83{clip-path:url(#SVGID_84_);}
	.st84{clip-path:url(#SVGID_86_);}
	.st85{fill-rule:evenodd;clip-rule:evenodd;fill:#FFFFFF;}
	.st86{fill:#E5E5E5;}
	.st87{clip-path:url(#SVGID_88_);}
	.st88{fill-rule:evenodd;clip-rule:evenodd;fill:none;stroke:#E7004C;stroke-width:3;stroke-miterlimit:10;}
	.st89{fill:#070101;}
	.st90{fill:none;stroke:#068FFF;stroke-width:5;stroke-miterlimit:10;}
</style>
<g id="Capa_2">
</g>
<g id="Capa_1">
</g>
<g id="Capa_3">
</g>
<g id="Capa_4">
	<g>
		<g>
			<path class="st0" d="M12.12,41.87c0.02-0.04,0.04-0.09,0.07-0.13c0.02-0.04,0.04-0.08,0.06-0.11c0.02-0.04,0.04-0.07,0.06-0.1
				l0-0.01c-0.02,0-0.04,0.01-0.07,0.01c-0.02,0-0.05,0.01-0.09,0.01c-0.04,0-0.08,0-0.12,0l-1.72,0l0-0.2l2.24,0l0,0.15l-1.68,3.39
				l-0.23,0L12.12,41.87z"/>
			<path class="st0" d="M17.8,41.34l0.23,0l1.32,3.54l-0.23,0l-0.46-1.23l-1.5,0l-0.46,1.22l-0.23,0L17.8,41.34z M18.58,43.46
				l-0.53-1.44c-0.02-0.04-0.03-0.08-0.05-0.13s-0.03-0.1-0.04-0.14c-0.01-0.05-0.03-0.1-0.05-0.16l-0.01,0
				c-0.02,0.05-0.03,0.11-0.05,0.16c-0.01,0.04-0.03,0.09-0.04,0.14c-0.02,0.05-0.03,0.09-0.04,0.13l-0.54,1.44L18.58,43.46z"/>
			<path class="st0" d="M21.3,41.35l0.22,0l0,3.34l1.69,0l0,0.2l-1.91,0L21.3,41.35z"/>
			<path class="st0" d="M27.27,44.69l0.8,0l0-2.88l0-0.12c0-0.02,0-0.04,0.01-0.06l-0.01,0c-0.01,0.01-0.02,0.03-0.04,0.05
				c-0.02,0.02-0.04,0.04-0.06,0.07c-0.02,0.03-0.05,0.06-0.09,0.1l-0.42,0.42l-0.15-0.15l0.76-0.77l0.22,0l0,3.34l0.78,0l0,0.2
				l-1.81,0L27.27,44.69z"/>
			<path class="st0" d="M32.08,44.96c-0.23,0-0.41-0.05-0.57-0.14c-0.15-0.09-0.27-0.22-0.37-0.39c-0.09-0.17-0.16-0.36-0.2-0.58
				c-0.04-0.22-0.06-0.46-0.06-0.72c0-0.26,0.02-0.5,0.06-0.72c0.04-0.22,0.11-0.42,0.2-0.58c0.09-0.17,0.22-0.3,0.37-0.39
				c0.15-0.09,0.34-0.14,0.57-0.14c0.23,0,0.41,0.05,0.57,0.14c0.15,0.09,0.27,0.22,0.37,0.39c0.09,0.17,0.16,0.36,0.2,0.58
				c0.04,0.22,0.06,0.46,0.06,0.72c0,0.26-0.02,0.5-0.06,0.72c-0.04,0.22-0.11,0.42-0.2,0.58c-0.09,0.17-0.22,0.29-0.37,0.39
				C32.49,44.91,32.3,44.96,32.08,44.96z M32.08,44.75c0.19,0,0.35-0.04,0.47-0.12c0.12-0.08,0.22-0.2,0.3-0.34s0.12-0.32,0.15-0.51
				c0.03-0.2,0.05-0.41,0.05-0.64c0-0.23-0.01-0.44-0.04-0.64c-0.03-0.2-0.08-0.37-0.15-0.52s-0.17-0.26-0.3-0.34
				c-0.12-0.08-0.28-0.12-0.47-0.12c-0.19,0-0.35,0.04-0.47,0.12c-0.12,0.08-0.22,0.2-0.3,0.34c-0.07,0.15-0.12,0.32-0.15,0.52
				c-0.03,0.2-0.05,0.41-0.05,0.63c0,0.23,0.01,0.44,0.04,0.64s0.08,0.37,0.15,0.51c0.07,0.15,0.17,0.26,0.3,0.34
				C31.73,44.7,31.89,44.75,32.08,44.75z"/>
			<path class="st0" d="M37.97,41.36l0.2,0l2.02,2.78c0.03,0.04,0.06,0.09,0.09,0.14c0.04,0.05,0.07,0.1,0.09,0.15
				c0.03,0.05,0.07,0.11,0.1,0.16l0.01,0c-0.01-0.05-0.01-0.1-0.01-0.16c0-0.05-0.01-0.1-0.01-0.14c0-0.05,0-0.1,0-0.14l0-2.78
				l0.22,0l0,3.54l-0.2,0l-2.02-2.78c-0.03-0.04-0.06-0.09-0.1-0.14c-0.03-0.05-0.06-0.1-0.09-0.15c-0.03-0.05-0.07-0.11-0.1-0.16
				l-0.01,0c0,0.05,0.01,0.1,0.01,0.16c0,0.05,0.01,0.1,0.01,0.15c0,0.05,0,0.1,0,0.14l0,2.78l-0.22,0L37.97,41.36z"/>
			<path class="st0" d="M42.78,43.11c0-0.25,0.05-0.49,0.14-0.71c0.09-0.22,0.22-0.41,0.38-0.57c0.16-0.16,0.35-0.29,0.57-0.38
				c0.22-0.09,0.46-0.14,0.71-0.14c0.25,0,0.49,0.05,0.71,0.14c0.22,0.09,0.41,0.22,0.57,0.38c0.16,0.16,0.29,0.35,0.38,0.57
				c0.09,0.22,0.14,0.46,0.14,0.71c0,0.26-0.05,0.5-0.14,0.73s-0.22,0.42-0.38,0.59c-0.16,0.17-0.35,0.3-0.57,0.39
				c-0.22,0.1-0.46,0.14-0.71,0.14c-0.25,0-0.49-0.05-0.71-0.14c-0.22-0.1-0.41-0.23-0.57-0.4c-0.16-0.17-0.29-0.36-0.38-0.59
				C42.83,43.62,42.78,43.37,42.78,43.11z M43.01,43.11c0,0.23,0.04,0.45,0.12,0.65c0.08,0.2,0.19,0.38,0.33,0.52
				c0.14,0.15,0.3,0.27,0.5,0.35c0.19,0.08,0.4,0.13,0.62,0.13c0.22,0,0.43-0.04,0.62-0.13c0.19-0.08,0.36-0.2,0.5-0.35
				c0.14-0.15,0.25-0.32,0.33-0.52c0.08-0.2,0.12-0.42,0.12-0.65c0-0.23-0.04-0.44-0.12-0.63c-0.08-0.2-0.19-0.37-0.33-0.51
				c-0.14-0.14-0.3-0.26-0.5-0.34c-0.19-0.08-0.4-0.12-0.62-0.12c-0.22,0-0.43,0.04-0.62,0.12c-0.19,0.08-0.36,0.19-0.5,0.34
				c-0.14,0.14-0.25,0.31-0.33,0.51C43.05,42.68,43.01,42.89,43.01,43.11z"/>
			<path class="st0" d="M47.98,41.37l0.23,0l1.06,2.87c0.02,0.04,0.03,0.09,0.05,0.14c0.02,0.05,0.03,0.09,0.04,0.14
				c0.01,0.05,0.03,0.1,0.05,0.15l0.01,0c0.02-0.05,0.03-0.1,0.05-0.15c0.01-0.04,0.03-0.09,0.04-0.14
				c0.02-0.05,0.03-0.09,0.05-0.14l1.08-2.86l0.23,0l-1.33,3.54l-0.24,0L47.98,41.37z"/>
			<path class="st0" d="M52.8,41.38l0.22,0l0,3.54l-0.22,0L52.8,41.38z"/>
			<path class="st0" d="M55.36,41.38l1.94,0l0,0.2l-1.72,0l0,1.45l1.41,0l0,0.2l-1.41,0l0,1.48l1.82,0l0,0.2l-2.03,0L55.36,41.38z"
				/>
			<path class="st0" d="M59.59,41.38l0.21,0l1.03,2.23c0.02,0.04,0.04,0.09,0.06,0.14c0.02,0.05,0.04,0.09,0.06,0.13
				c0.02,0.05,0.04,0.09,0.06,0.14l0.01,0c0.02-0.04,0.04-0.09,0.06-0.14c0.02-0.04,0.04-0.08,0.06-0.13s0.04-0.09,0.06-0.14
				l1.03-2.23l0.21,0l0.28,3.54l-0.22,0l-0.21-2.7c-0.01-0.04-0.01-0.09-0.01-0.15c0-0.05,0-0.1,0-0.15l0-0.17l-0.01,0
				c-0.02,0.06-0.04,0.11-0.06,0.17c-0.02,0.05-0.04,0.1-0.06,0.15c-0.02,0.05-0.04,0.1-0.06,0.15l-0.95,2.02l-0.22,0l-0.94-2.02
				c-0.02-0.04-0.04-0.09-0.06-0.14c-0.02-0.06-0.04-0.11-0.06-0.16c-0.02-0.06-0.04-0.12-0.07-0.18l-0.01,0l0,0.18
				c0,0.05,0,0.1-0.01,0.16c0,0.05-0.01,0.1-0.01,0.15l-0.22,2.7l-0.22,0L59.59,41.38z"/>
			<path class="st0" d="M64.93,41.39l1.19,0c0.13,0,0.25,0.02,0.36,0.06c0.11,0.04,0.2,0.1,0.28,0.18c0.08,0.08,0.14,0.17,0.19,0.28
				c0.05,0.11,0.07,0.23,0.07,0.37c0,0.19-0.04,0.35-0.13,0.48c-0.08,0.13-0.2,0.23-0.33,0.29l0,0.01c0.18,0.05,0.32,0.15,0.43,0.31
				c0.11,0.16,0.17,0.36,0.17,0.58c0,0.15-0.02,0.28-0.07,0.4c-0.05,0.12-0.12,0.22-0.21,0.31c-0.09,0.09-0.19,0.15-0.31,0.2
				c-0.12,0.05-0.25,0.07-0.39,0.07l-1.24,0L64.93,41.39z M66.11,42.97c0.2,0,0.36-0.06,0.49-0.19c0.12-0.12,0.19-0.29,0.19-0.51
				c0-0.21-0.06-0.38-0.18-0.5c-0.12-0.12-0.29-0.18-0.5-0.19l-0.96,0l0,1.38L66.11,42.97z M66.14,44.73c0.24,0,0.43-0.07,0.57-0.2
				c0.14-0.14,0.21-0.33,0.21-0.57c0-0.24-0.07-0.43-0.22-0.57c-0.15-0.14-0.33-0.21-0.56-0.21l-1,0l0,1.56L66.14,44.73z"/>
			<path class="st0" d="M69.27,41.39l1.04,0c0.17,0,0.3,0.01,0.39,0.03c0.09,0.02,0.18,0.04,0.25,0.08
				c0.15,0.07,0.27,0.18,0.36,0.33s0.13,0.32,0.13,0.52c0,0.13-0.02,0.25-0.05,0.35c-0.04,0.11-0.08,0.2-0.15,0.29
				c-0.06,0.08-0.14,0.16-0.22,0.21c-0.09,0.06-0.18,0.1-0.29,0.12l0,0.01c0.01,0.01,0.02,0.02,0.03,0.03
				c0.01,0.01,0.01,0.02,0.02,0.04c0.01,0.02,0.02,0.04,0.03,0.06l0.79,1.47l-0.26,0l-0.84-1.57l-1.02,0l0,1.57l-0.22,0L69.27,41.39
				z M70.45,43.17c0.11,0,0.22-0.02,0.31-0.06c0.09-0.04,0.17-0.1,0.24-0.17c0.07-0.07,0.12-0.16,0.15-0.26
				c0.04-0.1,0.05-0.21,0.05-0.33c0-0.16-0.04-0.3-0.11-0.42c-0.07-0.12-0.18-0.21-0.3-0.27c-0.05-0.02-0.11-0.04-0.18-0.05
				c-0.07-0.01-0.17-0.02-0.32-0.02l-0.81,0l0,1.57L70.45,43.17z"/>
			<path class="st0" d="M73.6,41.4l1.94,0l0,0.2l-1.72,0l0,1.45l1.41,0l0,0.2l-1.41,0l0,1.48l1.82,0l0,0.2l-2.03,0L73.6,41.4z"/>
			<path class="st0" d="M79.98,44.76c0-0.21,0.05-0.38,0.14-0.53c0.09-0.15,0.21-0.29,0.35-0.41c0.14-0.12,0.29-0.23,0.46-0.34
				c0.16-0.1,0.32-0.21,0.46-0.33c0.14-0.11,0.26-0.24,0.35-0.37c0.09-0.13,0.14-0.29,0.14-0.47c0-0.1-0.02-0.2-0.06-0.3
				c-0.04-0.09-0.09-0.17-0.16-0.24c-0.07-0.07-0.16-0.12-0.26-0.16c-0.1-0.04-0.22-0.06-0.34-0.06c-0.18,0-0.34,0.05-0.49,0.14
				c-0.15,0.09-0.27,0.21-0.37,0.37l-0.16-0.11c0.05-0.09,0.11-0.17,0.19-0.24c0.07-0.07,0.15-0.14,0.24-0.19
				c0.09-0.05,0.18-0.1,0.29-0.13c0.1-0.03,0.21-0.05,0.32-0.05c0.18,0,0.33,0.03,0.46,0.08c0.13,0.05,0.24,0.13,0.33,0.22
				c0.09,0.09,0.15,0.19,0.2,0.31c0.04,0.12,0.07,0.24,0.07,0.36c0,0.2-0.05,0.38-0.14,0.53c-0.09,0.15-0.21,0.28-0.35,0.4
				c-0.14,0.12-0.29,0.23-0.45,0.34s-0.31,0.21-0.45,0.32c-0.14,0.11-0.26,0.24-0.35,0.37c-0.09,0.13-0.14,0.29-0.14,0.47l1.94,0
				l0,0.2l-2.16,0C79.98,44.88,79.98,44.82,79.98,44.76z"/>
			<path class="st0" d="M85.29,45.01c-0.23,0-0.42-0.05-0.57-0.14c-0.15-0.09-0.27-0.22-0.37-0.39c-0.09-0.17-0.16-0.36-0.2-0.58
				c-0.04-0.22-0.06-0.46-0.06-0.72c0-0.26,0.02-0.5,0.06-0.72c0.04-0.22,0.11-0.42,0.2-0.58c0.09-0.17,0.22-0.3,0.37-0.39
				c0.15-0.09,0.34-0.14,0.57-0.14c0.23,0,0.41,0.05,0.57,0.14c0.15,0.09,0.27,0.22,0.37,0.39c0.09,0.17,0.16,0.36,0.2,0.58
				c0.04,0.22,0.06,0.46,0.06,0.72c0,0.26-0.02,0.5-0.06,0.72c-0.04,0.22-0.11,0.42-0.2,0.58c-0.09,0.17-0.22,0.29-0.37,0.39
				C85.71,44.97,85.52,45.01,85.29,45.01z M85.29,44.8c0.19,0,0.35-0.04,0.47-0.12c0.12-0.08,0.22-0.2,0.3-0.34
				c0.07-0.15,0.12-0.32,0.15-0.51c0.03-0.2,0.05-0.41,0.05-0.64c0-0.23-0.01-0.44-0.04-0.64c-0.03-0.2-0.08-0.37-0.15-0.52
				c-0.07-0.15-0.17-0.26-0.3-0.34c-0.12-0.08-0.28-0.12-0.47-0.12c-0.19,0-0.35,0.04-0.47,0.12c-0.12,0.08-0.22,0.2-0.3,0.34
				c-0.07,0.15-0.12,0.32-0.16,0.52c-0.03,0.2-0.05,0.41-0.05,0.63c0,0.23,0.01,0.44,0.04,0.64c0.03,0.2,0.08,0.37,0.15,0.51
				c0.07,0.15,0.17,0.26,0.3,0.34C84.94,44.76,85.1,44.8,85.29,44.8z"/>
			<path class="st0" d="M88.4,44.75l0.8,0l0-2.88l0-0.12c0-0.02,0-0.04,0.01-0.06l-0.01,0c-0.01,0.01-0.02,0.03-0.04,0.05
				c-0.02,0.02-0.04,0.04-0.06,0.07c-0.02,0.03-0.05,0.06-0.09,0.1l-0.42,0.42l-0.15-0.15l0.76-0.77l0.22,0l0,3.34l0.78,0l0,0.2
				l-1.81,0L88.4,44.75z"/>
			<path class="st0" d="M92.24,44.68c0.05,0.03,0.13,0.06,0.22,0.09c0.09,0.03,0.19,0.04,0.3,0.04c0.21,0,0.39-0.05,0.54-0.14
				c0.16-0.1,0.29-0.22,0.39-0.38c0.11-0.16,0.19-0.33,0.25-0.52c0.06-0.19,0.09-0.39,0.11-0.58l-0.01,0
				c-0.1,0.15-0.24,0.27-0.42,0.36c-0.18,0.09-0.38,0.13-0.58,0.13c-0.16,0-0.3-0.03-0.43-0.08c-0.13-0.05-0.25-0.13-0.34-0.23
				c-0.1-0.1-0.17-0.22-0.23-0.36c-0.06-0.14-0.08-0.29-0.08-0.47c0-0.19,0.03-0.36,0.09-0.51s0.14-0.27,0.24-0.37
				c0.1-0.1,0.22-0.17,0.35-0.22c0.13-0.05,0.27-0.08,0.42-0.08c0.2,0,0.37,0.04,0.52,0.13c0.15,0.09,0.28,0.21,0.39,0.36
				c0.11,0.15,0.19,0.33,0.24,0.53c0.06,0.2,0.08,0.41,0.08,0.64c0,0.22-0.03,0.44-0.08,0.68c-0.06,0.24-0.15,0.45-0.27,0.65
				c-0.12,0.2-0.28,0.36-0.47,0.49c-0.19,0.13-0.43,0.19-0.7,0.19c-0.1,0-0.21-0.01-0.31-0.04c-0.1-0.02-0.21-0.06-0.3-0.11
				L92.24,44.68z M93.04,43.45c0.13,0,0.26-0.02,0.38-0.07c0.12-0.04,0.22-0.1,0.31-0.17c0.09-0.07,0.16-0.14,0.21-0.22
				c0.05-0.08,0.08-0.16,0.08-0.25c0-0.12-0.02-0.25-0.07-0.39c-0.05-0.14-0.11-0.27-0.2-0.38c-0.09-0.12-0.19-0.21-0.31-0.29
				c-0.12-0.08-0.26-0.12-0.41-0.12c-0.14,0-0.26,0.02-0.37,0.07c-0.11,0.05-0.2,0.11-0.27,0.2c-0.07,0.09-0.13,0.19-0.17,0.31
				c-0.04,0.12-0.06,0.25-0.06,0.39c0,0.14,0.02,0.27,0.06,0.38c0.04,0.11,0.1,0.21,0.18,0.29c0.08,0.08,0.17,0.14,0.28,0.18
				C92.8,43.43,92.92,43.45,93.04,43.45z"/>
		</g>
		<g>
			<path class="st0" d="M1.11,30.64c0.25,0,0.49,0.04,0.72,0.11c0.24,0.07,0.41,0.14,0.52,0.21l0.17,0.11L2.1,31.9
				c-0.03-0.02-0.08-0.05-0.14-0.09c-0.06-0.04-0.17-0.08-0.33-0.14c-0.16-0.06-0.31-0.09-0.45-0.09c-0.17,0-0.31,0.04-0.4,0.11
				c-0.09,0.07-0.14,0.17-0.14,0.3c0,0.06,0.02,0.12,0.07,0.17c0.04,0.05,0.12,0.11,0.23,0.17c0.11,0.06,0.2,0.11,0.28,0.15
				c0.08,0.04,0.21,0.09,0.38,0.17c0.29,0.13,0.55,0.3,0.75,0.51c0.21,0.22,0.31,0.46,0.31,0.73c0,0.26-0.05,0.49-0.14,0.68
				c-0.09,0.19-0.22,0.35-0.39,0.46c-0.16,0.11-0.35,0.19-0.54,0.24c-0.2,0.05-0.41,0.08-0.65,0.08c-0.2,0-0.39-0.02-0.59-0.06
				C0.16,35.26,0,35.21-0.13,35.15c-0.13-0.06-0.24-0.12-0.35-0.18c-0.1-0.06-0.18-0.11-0.23-0.15l-0.07-0.06l0.52-0.87
				c0.04,0.04,0.1,0.08,0.18,0.14s0.21,0.13,0.41,0.23c0.2,0.1,0.37,0.14,0.52,0.14c0.44,0,0.66-0.15,0.66-0.45
				c0-0.06-0.02-0.12-0.05-0.17c-0.03-0.05-0.09-0.11-0.17-0.16c-0.08-0.05-0.15-0.1-0.21-0.13c-0.06-0.03-0.16-0.08-0.3-0.14
				c-0.14-0.06-0.24-0.11-0.31-0.15C0.21,33.07,0,32.89-0.15,32.69c-0.15-0.2-0.23-0.42-0.23-0.66c0-0.41,0.15-0.74,0.45-1
				C0.38,30.77,0.72,30.64,1.11,30.64z"/>
			<path class="st0" d="M7.12,30.73l1.83,4.56l-1.12,0L7.5,34.37l-1.73,0l-0.34,0.91l-1.12,0l1.84-4.55L7.12,30.73z M7.15,33.46
				l-0.51-1.33l-0.01,0l-0.51,1.32L7.15,33.46z"/>
			<path class="st0" d="M11.83,32.46l0,2.83l-1.04,0l0-4.55l1.04,0l1.81,2.83l0.01,0l0-2.83l1.04,0l0,4.55l-1.04,0l-1.81-2.83
				L11.83,32.46z"/>
			<path class="st0" d="M23.94,35.3l-0.21-2.7l-0.03,0l-0.94,2.67l-0.62,0l-0.93-2.67l-0.03,0l-0.22,2.7l-1.04,0l0.41-4.55l1.1,0
				l1.01,2.63l1.01-2.63l1.1,0l0.4,4.55L23.94,35.3z"/>
			<path class="st0" d="M28.1,30.75l0,4.55l-1.04,0l0-4.55L28.1,30.75z"/>
			<path class="st0" d="M34.54,32.76l0,0.99c-0.12,0.54-0.38,0.95-0.77,1.23c-0.4,0.28-0.84,0.42-1.33,0.42
				c-0.61,0-1.14-0.23-1.57-0.69c-0.43-0.46-0.65-1.02-0.65-1.67c0-0.66,0.21-1.22,0.64-1.68c0.42-0.46,0.95-0.68,1.59-0.68
				c0.74,0,1.32,0.26,1.75,0.78l-0.68,0.74c-0.24-0.39-0.58-0.59-1.02-0.59c-0.32,0-0.59,0.14-0.82,0.42
				c-0.23,0.28-0.34,0.61-0.34,1.01c0,0.39,0.11,0.72,0.34,0.99c0.23,0.27,0.5,0.41,0.82,0.41c0.27,0,0.5-0.08,0.69-0.24
				c0.2-0.16,0.3-0.37,0.3-0.64l-1.05,0l0-0.8L34.54,32.76z"/>
			<path class="st0" d="M40.17,30.76l0,2.94c0,0.56-0.15,0.98-0.45,1.27c-0.3,0.29-0.74,0.43-1.33,0.43c-0.58,0-1.02-0.14-1.32-0.43
				c-0.3-0.29-0.45-0.71-0.45-1.27l0-2.94l1.04,0l0,2.63c0,0.37,0.06,0.62,0.17,0.77c0.12,0.14,0.3,0.22,0.57,0.22
				c0.26,0,0.45-0.07,0.57-0.21c0.12-0.14,0.17-0.4,0.17-0.77l0-2.63L40.17,30.76z"/>
			<path class="st0" d="M45.04,30.77l0,0.91l-1.57,0l0,0.91l1.5,0l0,0.91l-1.5,0l0,0.92l1.57,0l0,0.91l-2.61,0l0-4.55L45.04,30.77z"
				/>
			<path class="st0" d="M48.34,30.77l0,3.64l1.57,0l0,0.91l-2.61,0l0-4.55L48.34,30.77z"/>
			<path class="st0" d="M55.25,30.78l1.32,0c0.63,0,1.17,0.22,1.62,0.65c0.45,0.43,0.67,0.98,0.67,1.63c0,0.66-0.22,1.2-0.67,1.63
				c-0.45,0.43-0.99,0.65-1.63,0.65l-1.32,0L55.25,30.78z M56.28,34.41l0.16,0c0.38,0,0.69-0.13,0.93-0.38
				c0.24-0.26,0.36-0.58,0.37-0.96c0-0.39-0.12-0.71-0.36-0.97c-0.24-0.26-0.55-0.39-0.94-0.39l-0.16,0L56.28,34.41z"/>
			<path class="st0" d="M63.59,30.79l0,0.91l-1.57,0l0,0.91l1.5,0l0,0.91l-1.5,0l0,0.92l1.57,0l0,0.91l-2.61,0l0-4.55L63.59,30.79z"
				/>
			<path class="st0" d="M71.33,30.8l1.83,4.56l-1.12,0l-0.34-0.91l-1.73,0l-0.34,0.91l-1.12,0l1.84-4.55L71.33,30.8z M71.36,33.53
				l-0.51-1.33l-0.01,0l-0.51,1.32L71.36,33.53z"/>
			<path class="st0" d="M76.04,30.8l0,3.64l1.57,0l0,0.91l-2.61,0l0-4.55L76.04,30.8z"/>
			<path class="st0" d="M80.82,30.81l0,3.64l1.57,0l0,0.91l-2.61,0l0-4.55L80.82,30.81z"/>
			<path class="st0" d="M87.17,30.81l0,0.91l-1.57,0l0,0.91l1.5,0l0,0.91l-1.5,0l0,0.92l1.57,0l0,0.91l-2.61,0l0-4.55L87.17,30.81z"
				/>
			<path class="st0" d="M90.46,32.54l0,2.83l-1.04,0l0-4.55l1.04,0l1.81,2.83l0.01,0l0-2.83l1.04,0l0,4.55l-1.04,0l-1.81-2.83
				L90.46,32.54z"/>
			<path class="st0" d="M95.65,30.82l1.32,0c0.63,0,1.17,0.22,1.62,0.65c0.45,0.43,0.67,0.98,0.67,1.63c0,0.66-0.22,1.2-0.67,1.63
				c-0.45,0.43-0.99,0.65-1.63,0.65l-1.32,0L95.65,30.82z M96.68,34.45l0.16,0c0.38,0,0.69-0.13,0.93-0.38
				c0.24-0.26,0.36-0.58,0.37-0.96c0-0.39-0.12-0.71-0.36-0.97c-0.24-0.26-0.55-0.39-0.94-0.39l-0.16,0L96.68,34.45z"/>
			<path class="st0" d="M103.99,30.83l0,0.91l-1.57,0l0,0.91l1.5,0l0,0.91l-1.5,0l0,0.92l1.57,0l0,0.91l-2.61,0l0-4.55L103.99,30.83
				z"/>
		</g>
		<g>
			<path class="st0" d="M0,27.36l0.01-13.72c0-4.22,3.02-7.28,6.82-7.28s6.81,3.08,6.81,7.3c0,4.22-3.02,7.28-6.82,7.28
				c-2.15,0-3.51-1.07-4.36-1.77l0-1.33c1.21,1.27,2.51,2.04,4.36,2.04c2.83,0,5.64-2.62,5.64-6.22c0-3.6-2.79-6.23-5.63-6.23
				c-3.36,0-5.7,2.97-5.7,6.22L1.12,27.36L0,27.36z"/>
			<path class="st0" d="M25.02,20.66l0.01-8.38c0-2.92-2.03-4.84-4.48-4.84c-2.45,0-4.48,1.91-4.49,4.83l-0.01,8.38l-1.12,0L14.96,0
				l1.12,0l-0.01,8.55l0.06,0c0.98-1.39,2.6-2.18,4.43-2.18c3.13,0,5.6,2.31,5.6,5.76l-0.01,8.52L25.02,20.66z"/>
			<path class="st0" d="M28.75,13.67c0,3.25,2.47,6.23,5.89,6.23c3.42,0,5.9-2.97,5.91-6.22c0-3.25-2.47-6.23-5.89-6.23
				C31.23,7.45,28.75,10.43,28.75,13.67 M41.73,13.69c0,3.95-3.08,7.28-7.09,7.28c-4.01,0-7.08-3.34-7.07-7.29s3.08-7.28,7.09-7.28
				C38.67,6.4,41.73,9.73,41.73,13.69"/>
			<path class="st0" d="M44.27,6.7l4.96,0.01l0,1.06l-4.96-0.01l-0.01,9.03c0,1.77,1.06,2.83,2.71,2.83l2.24,0l0,1.06l-2.01,0
				c-2.65,0-4.07-1.54-4.07-4.02l0.01-13.81l1.12,0L44.27,6.7z"/>
			<path class="st0" d="M50.4,13.7c0,3.25,2.47,6.23,5.89,6.23c3.42,0,5.9-2.97,5.91-6.22c0-3.25-2.47-6.23-5.89-6.23
				C52.88,7.47,50.4,10.45,50.4,13.7 M63.38,13.71c0,3.95-3.07,7.28-7.09,7.28c-4.01,0-7.08-3.34-7.07-7.29
				c0-3.95,3.08-7.28,7.09-7.28C60.32,6.42,63.38,9.76,63.38,13.71"/>
			<path class="st0" d="M67.25,21.21l0.01-10.11c0-2.66,1.39-4.63,4.26-4.63l3.39,0l0,2.95l-2.65,0c-1.29,0-1.88,0.55-1.88,1.77
				l0,1.56l4.53,0l0,2.95l-4.53,0l-0.01,5.52L67.25,21.21z"/>
			<path class="st0" d="M85.14,9.43l-1.9,0c-2.38,0-3.52,1.64-3.78,3.05l5.67,0.01l0,2.74l-5.67-0.01c0.25,1.41,1.39,3.05,3.77,3.06
				l1.9,0l0,2.95l-1.62,0c-5.06-0.01-7.25-3.76-7.24-7.38c0-3.62,2.2-7.37,7.26-7.37l1.62,0L85.14,9.43z"/>
			<path class="st0" d="M95.05,9.23l-4.22,0c-0.76,0-1.1,0.51-1.1,1.12c0,1.33,5.86,3.36,5.85,6.43c0,2.07-0.93,4.47-4.18,4.46
				l-4.93-0.01l0-2.95l4.84,0.01c0.55,0,0.97-0.42,0.97-1.05c0-1.56-5.86-3.13-5.85-6.83c0-2.74,2.01-3.92,3.67-3.91l4.93,0.01
				L95.05,9.23z"/>
			<polygon class="st0" points="99.4,9.44 96.2,9.44 96.21,6.49 105.73,6.5 105.73,9.45 102.52,9.45 102.51,21.25 99.39,21.25 			
				"/>
		</g>
	</g>
</g>
<g id="Capa_6">
</g>
<g id="Capa_5">
</g>
</svg>
