<?xml version="1.0" encoding="utf-8"?>
<!-- Generator: Adobe Illustrator 24.0.3, SVG Export Plug-In . SVG Version: 6.00 Build 0)  -->
<svg version="1.1" xmlns="http://www.w3.org/2000/svg" xmlns:xlink="http://www.w3.org/1999/xlink" x="0px" y="0px"
	 viewBox="0 0 208.6 80.63" style="enable-background:new 0 0 208.6 80.63;" xml:space="preserve">
<style type="text/css">
	.st0{fill:none;stroke:#E7004C;stroke-miterlimit:10;}
	.st1{fill:#FFFFFF;}
	.st2{fill:url(#SVGID_1_);}
	.st3{fill:#E7004C;}
	.st4{fill:#42050E;}
	.st5{fill-rule:evenodd;clip-rule:evenodd;fill:#FFFFFF;}
	.st6{fill:none;stroke:#00B2E3;stroke-miterlimit:10;}
	.st7{fill:url(#SVGID_2_);}
	.st8{fill:#FCFCFC;}
	.st9{fill:url(#SVGID_3_);}
	.st10{fill:url(#SVGID_4_);}
	.st11{opacity:0.8;fill:#E7004C;}
	.st12{opacity:0.7;fill:#E7004C;}
	.st13{opacity:0.7;}
	.st14{fill:#00B2E3;}
	.st15{opacity:0.8;fill:#00B2E3;}
	.st16{opacity:0.7;fill:#00B2E3;}
	.st17{fill:#BBBBBB;}
	.st18{opacity:0.8;fill:#BBBBBB;}
	.st19{opacity:0.7;fill:#BBBBBB;}
	.st20{fill:url(#SVGID_5_);}
	.st21{fill:url(#SVGID_6_);}
	.st22{fill:none;stroke:#E7004C;stroke-width:2;stroke-miterlimit:10;}
	.st23{fill:url(#SVGID_7_);}
	.st24{fill:url(#SVGID_8_);}
	.st25{fill:url(#SVGID_9_);}
	.st26{fill:none;stroke:#FFFFFF;stroke-miterlimit:10;}
	.st27{fill-rule:evenodd;clip-rule:evenodd;fill:#E7004C;}
	.st28{fill:none;stroke:#000000;stroke-miterlimit:10;}
	.st29{fill:#38A8E0;}
	.st30{clip-path:url(#SVGID_11_);fill:#00B2E3;}
	.st31{fill:none;stroke:#E7004C;stroke-width:3;stroke-miterlimit:10;}
	.st32{clip-path:url(#SVGID_13_);}
	.st33{fill:none;stroke:#FFFFFF;stroke-width:2;stroke-miterlimit:10;}
	.st34{fill:none;stroke:#FFFFFF;stroke-width:3;stroke-miterlimit:10;}
	.st35{clip-path:url(#SVGID_15_);}
	.st36{fill:url(#SVGID_16_);}
	.st37{fill:none;stroke:#FFFFFF;stroke-width:0.5;stroke-miterlimit:10;}
	.st38{clip-path:url(#SVGID_18_);fill:#00B2E3;}
	.st39{clip-path:url(#SVGID_20_);}
	.st40{clip-path:url(#SVGID_22_);}
	.st41{fill:url(#SVGID_23_);}
	.st42{clip-path:url(#SVGID_25_);}
	.st43{fill:url(#SVGID_26_);}
	.st44{fill:url(#SVGID_27_);}
	.st45{fill:url(#SVGID_28_);}
	.st46{fill:url(#SVGID_29_);}
	.st47{clip-path:url(#SVGID_31_);fill:#00B2E3;}
	.st48{clip-path:url(#SVGID_33_);}
	.st49{clip-path:url(#SVGID_35_);}
	.st50{fill:url(#SVGID_36_);}
	.st51{clip-path:url(#SVGID_38_);}
	.st52{clip-path:url(#SVGID_40_);}
	.st53{fill:#280210;}
	.st54{opacity:0.5;}
	.st55{opacity:0.6;}
	.st56{fill:url(#SVGID_41_);}
	.st57{fill:url(#SVGID_42_);}
	.st58{fill:url(#SVGID_43_);}
	.st59{fill:url(#SVGID_44_);}
	.st60{opacity:0.8;}
	.st61{opacity:0.9;}
	.st62{fill:url(#SVGID_45_);}
	.st63{clip-path:url(#SVGID_47_);}
	.st64{clip-path:url(#SVGID_49_);}
	.st65{clip-path:url(#SVGID_51_);fill:#00B2E3;}
	.st66{clip-path:url(#SVGID_53_);}
	.st67{clip-path:url(#SVGID_55_);}
	.st68{fill:none;stroke:#FFFFFF;stroke-width:5;stroke-miterlimit:10;}
	.st69{clip-path:url(#SVGID_57_);fill:#00B2E3;}
	.st70{clip-path:url(#SVGID_59_);}
	.st71{clip-path:url(#SVGID_61_);}
	.st72{clip-path:url(#SVGID_63_);fill:#00B2E3;}
	.st73{clip-path:url(#SVGID_65_);}
	.st74{fill:#5B0323;}
	.st75{fill:url(#SVGID_66_);}
	.st76{fill:url(#SVGID_67_);}
	.st77{fill:url(#SVGID_68_);}
	.st78{clip-path:url(#SVGID_70_);fill:#00B2E3;}
	.st79{clip-path:url(#SVGID_72_);}
	.st80{fill-rule:evenodd;clip-rule:evenodd;fill:#00B2E3;}
	.st81{clip-path:url(#SVGID_74_);}
	.st82{clip-path:url(#SVGID_76_);}
	.st83{opacity:0.3;fill:#6B0303;}
	.st84{opacity:0.3;}
	.st85{fill-rule:evenodd;clip-rule:evenodd;fill:#6B0303;}
	.st86{fill:#6B0303;}
	.st87{clip-path:url(#SVGID_78_);}
	.st88{clip-path:url(#SVGID_82_);}
	.st89{fill:none;stroke:#5B0323;stroke-miterlimit:10;}
	.st90{clip-path:url(#SVGID_85_);}
	.st91{clip-path:url(#SVGID_87_);fill:#00B2E3;}
	.st92{clip-path:url(#SVGID_89_);}
	.st93{clip-path:url(#SVGID_91_);}
	.st94{fill:#E5E5E5;}
	.st95{clip-path:url(#SVGID_93_);}
	.st96{fill:#020202;}
	.st97{fill:#070101;}
	.st98{fill:none;stroke:#068FFF;stroke-width:5;stroke-miterlimit:10;}
</style>
<g id="Capa_2">
	<g>
		<g>
			<g>
				<path class="st4" d="M9.88,13.97H17l9.84,28.4h-7.92l-1.72-5.56H9.64l-1.68,5.56H0L9.88,13.97z M15.96,31.61l-2.52-8.8
					l-2.64,8.8H15.96z"/>
			</g>
			<g>
				<path class="st4" d="M31.2,42.37v-28.4H39v21.6h12.88v6.8H31.2z"/>
			</g>
			<g>
				<path class="st4" d="M56.6,42.37v-28.4h7.8v28.4H56.6z"/>
			</g>
			<g>
				<path class="st4" d="M78.64,13.97h7.12l9.84,28.4h-7.92l-1.72-5.56H78.4l-1.68,5.56h-7.96L78.64,13.97z M84.72,31.61l-2.52-8.8
					l-2.64,8.8H84.72z"/>
			</g>
			<g>
				<path class="st4" d="M107.76,28.41v13.96h-7.8v-28.4h6.08l11.4,14.44V13.97h7.8v28.4h-6.2L107.76,28.41z"/>
			</g>
			<g>
				<path class="st4" d="M130.76,36.57l13.28-15.8h-12.68v-6.8h21.68v5.8l-12.48,15.8h12.72v6.8h-22.52V36.57z"/>
			</g>
			<g>
				<path class="st4" d="M166.36,13.97h7.12l9.84,28.4h-7.92l-1.72-5.56h-7.56l-1.68,5.56h-7.96L166.36,13.97z M172.44,31.61
					l-2.52-8.8l-2.64,8.8H172.44z"/>
			</g>
			<g>
				<path class="st4" d="M204.56,23.25c-0.8-0.48-1.63-0.91-2.48-1.28c-0.72-0.32-1.53-0.62-2.42-0.9
					c-0.89-0.28-1.77-0.42-2.62-0.42c-0.69,0-1.25,0.11-1.66,0.32c-0.41,0.21-0.62,0.57-0.62,1.08c0,0.37,0.12,0.68,0.36,0.92
					c0.24,0.24,0.59,0.46,1.04,0.66c0.45,0.2,1.01,0.39,1.66,0.58c0.65,0.19,1.39,0.41,2.22,0.68c1.31,0.4,2.49,0.84,3.54,1.32
					c1.05,0.48,1.95,1.05,2.7,1.7s1.32,1.45,1.72,2.38c0.4,0.93,0.6,2.07,0.6,3.4c0,1.71-0.31,3.14-0.94,4.3
					c-0.63,1.16-1.45,2.09-2.48,2.78c-1.03,0.69-2.19,1.19-3.48,1.5c-1.29,0.31-2.59,0.46-3.9,0.46c-1.04,0-2.11-0.08-3.2-0.24
					c-1.09-0.16-2.18-0.39-3.26-0.68c-1.08-0.29-2.12-0.64-3.12-1.04c-1-0.4-1.93-0.85-2.78-1.36l3.36-6.84
					c0.93,0.59,1.91,1.11,2.92,1.56c0.85,0.4,1.82,0.76,2.9,1.08c1.08,0.32,2.18,0.48,3.3,0.48c0.85,0,1.45-0.11,1.78-0.34
					s0.5-0.53,0.5-0.9c0-0.4-0.17-0.74-0.5-1.02c-0.33-0.28-0.79-0.53-1.38-0.74c-0.59-0.21-1.26-0.43-2.02-0.64
					c-0.76-0.21-1.57-0.47-2.42-0.76c-1.25-0.43-2.33-0.89-3.24-1.38c-0.91-0.49-1.65-1.05-2.24-1.68c-0.59-0.63-1.02-1.34-1.3-2.14
					c-0.28-0.8-0.42-1.72-0.42-2.76c0-1.57,0.29-2.96,0.86-4.16c0.57-1.2,1.35-2.2,2.34-3c0.99-0.8,2.11-1.41,3.38-1.82
					c1.27-0.41,2.61-0.62,4.02-0.62c1.04,0,2.05,0.1,3.04,0.3c0.99,0.2,1.94,0.45,2.86,0.76c0.92,0.31,1.78,0.64,2.58,1
					c0.8,0.36,1.52,0.7,2.16,1.02L204.56,23.25z"/>
			</g>
		</g>
		<g>
			<g>
				<path class="st1" d="M9.88,0.65H17l9.84,28.4h-7.92l-1.72-5.56H9.64l-1.68,5.56H0L9.88,0.65z M15.96,18.29l-2.52-8.8l-2.64,8.8
					H15.96z"/>
			</g>
			<g>
				<path class="st1" d="M31.2,29.05V0.65H39v21.6h12.88v6.8H31.2z"/>
			</g>
			<g>
				<path class="st1" d="M56.6,29.05V0.65h7.8v28.4H56.6z"/>
			</g>
			<g>
				<path class="st1" d="M78.64,0.65h7.12l9.84,28.4h-7.92l-1.72-5.56H78.4l-1.68,5.56h-7.96L78.64,0.65z M84.72,18.29l-2.52-8.8
					l-2.64,8.8H84.72z"/>
			</g>
			<g>
				<path class="st1" d="M107.76,15.09v13.96h-7.8V0.65h6.08l11.4,14.44V0.65h7.8v28.4h-6.2L107.76,15.09z"/>
			</g>
			<g>
				<path class="st1" d="M130.76,23.25l13.28-15.8h-12.68v-6.8h21.68v5.8l-12.48,15.8h12.72v6.8h-22.52V23.25z"/>
			</g>
			<g>
				<path class="st1" d="M166.36,0.65h7.12l9.84,28.4h-7.92l-1.72-5.56h-7.56l-1.68,5.56h-7.96L166.36,0.65z M172.44,18.29
					l-2.52-8.8l-2.64,8.8H172.44z"/>
			</g>
			<g>
				<path class="st1" d="M204.56,9.93c-0.8-0.48-1.63-0.91-2.48-1.28c-0.72-0.32-1.53-0.62-2.42-0.9c-0.89-0.28-1.77-0.42-2.62-0.42
					c-0.69,0-1.25,0.11-1.66,0.32c-0.41,0.21-0.62,0.57-0.62,1.08c0,0.37,0.12,0.68,0.36,0.92c0.24,0.24,0.59,0.46,1.04,0.66
					c0.45,0.2,1.01,0.39,1.66,0.58c0.65,0.19,1.39,0.41,2.22,0.68c1.31,0.4,2.49,0.84,3.54,1.32c1.05,0.48,1.95,1.05,2.7,1.7
					c0.75,0.65,1.32,1.45,1.72,2.38s0.6,2.07,0.6,3.4c0,1.71-0.31,3.14-0.94,4.3c-0.63,1.16-1.45,2.09-2.48,2.78
					c-1.03,0.69-2.19,1.19-3.48,1.5c-1.29,0.3-2.59,0.46-3.9,0.46c-1.04,0-2.11-0.08-3.2-0.24c-1.09-0.16-2.18-0.39-3.26-0.68
					s-2.12-0.64-3.12-1.04c-1-0.4-1.93-0.85-2.78-1.36l3.36-6.84c0.93,0.59,1.91,1.11,2.92,1.56c0.85,0.4,1.82,0.76,2.9,1.08
					c1.08,0.32,2.18,0.48,3.3,0.48c0.85,0,1.45-0.11,1.78-0.34s0.5-0.53,0.5-0.9c0-0.4-0.17-0.74-0.5-1.02
					c-0.33-0.28-0.79-0.53-1.38-0.74c-0.59-0.21-1.26-0.43-2.02-0.64c-0.76-0.21-1.57-0.47-2.42-0.76
					c-1.25-0.43-2.33-0.89-3.24-1.38c-0.91-0.49-1.65-1.05-2.24-1.68c-0.59-0.63-1.02-1.34-1.3-2.14c-0.28-0.8-0.42-1.72-0.42-2.76
					c0-1.57,0.29-2.96,0.86-4.16c0.57-1.2,1.35-2.2,2.34-3c0.99-0.8,2.11-1.41,3.38-1.82c1.27-0.41,2.61-0.62,4.02-0.62
					c1.04,0,2.05,0.1,3.04,0.3c0.99,0.2,1.94,0.45,2.86,0.76c0.92,0.31,1.78,0.64,2.58,1c0.8,0.36,1.52,0.7,2.16,1.02L204.56,9.93z"
					/>
			</g>
		</g>
		<g>
			<g>
				<path class="st1" d="M29.42,79.74h-6.6V57.69h9.55c1.09,0,2.12,0.23,3.04,0.68c0.92,0.45,1.72,1.05,2.38,1.77
					c0.66,0.72,1.18,1.55,1.56,2.48c0.38,0.93,0.57,1.88,0.57,2.83c0,0.98-0.18,1.95-0.54,2.88c-0.35,0.93-0.86,1.76-1.49,2.49
					c-0.64,0.73-1.43,1.31-2.34,1.74c-0.92,0.43-1.93,0.65-3.02,0.65h-3.1V79.74z M23.57,78.99h5.1v-6.54h3.85
					c0.98,0,1.89-0.2,2.71-0.58c0.82-0.38,1.52-0.91,2.1-1.56c0.58-0.65,1.03-1.41,1.36-2.26c0.32-0.84,0.49-1.72,0.49-2.61
					c0-0.85-0.17-1.7-0.51-2.54c-0.34-0.84-0.82-1.6-1.41-2.26c-0.59-0.65-1.32-1.19-2.15-1.6c-0.82-0.4-1.74-0.61-2.72-0.61h-8.8
					V78.99z M32.14,68.1h-3.46v-5.31h3.31c0.45,0,0.9,0.19,1.33,0.58c0.45,0.4,0.67,1.08,0.67,2.08c0,0.97-0.19,1.64-0.57,2.04
					C33.03,67.89,32.6,68.1,32.14,68.1z M29.42,67.35h2.71c0.25,0,0.49-0.12,0.73-0.38c0.17-0.18,0.36-0.58,0.36-1.53
					c0-0.75-0.14-1.28-0.41-1.52c-0.29-0.26-0.57-0.39-0.83-0.39h-2.56V67.35z"/>
			</g>
			<g>
				<path class="st1" d="M60.59,79.74h-6.74l-1.29-4.17h-5.12l-1.26,4.17h-6.78l7.67-22.05h5.87L60.59,79.74z M54.4,78.99h5.14
					l-7.12-20.55h-4.81l-7.15,20.55h5.16l1.26-4.17h6.22L54.4,78.99z M52.4,71.67h-4.87l2.49-8.31L52.4,71.67z M48.54,70.92h2.87
					l-1.4-4.89L48.54,70.92z"/>
			</g>
			<g>
				<path class="st1" d="M82.37,79.74h-7.47l-3.75-6.54h-1.6v6.54h-6.6V57.69h10.15c1.09,0,2.12,0.23,3.04,0.68
					c0.92,0.45,1.72,1.05,2.38,1.77c0.66,0.72,1.18,1.55,1.56,2.48c0.38,0.93,0.57,1.88,0.57,2.83c0,1.29-0.29,2.52-0.85,3.63
					c-0.51,1.02-1.22,1.88-2.09,2.56L82.37,79.74z M75.34,78.99h5.73l-4.35-7.56l0.28-0.2c0.91-0.64,1.62-1.48,2.13-2.49
					c0.51-1.01,0.77-2.12,0.77-3.3c0-0.85-0.17-1.7-0.51-2.54c-0.34-0.84-0.82-1.6-1.41-2.26c-0.59-0.65-1.32-1.19-2.15-1.6
					c-0.82-0.4-1.74-0.61-2.72-0.61h-9.4v20.55h5.1v-6.54h2.78L75.34,78.99z M72.88,68.1h-4.06v-5.31h3.92
					c0.47,0,0.92,0.24,1.36,0.71c0.42,0.46,0.64,1.12,0.64,1.95c0,0.8-0.18,1.44-0.54,1.91C73.79,67.85,73.35,68.1,72.88,68.1z
					 M69.56,67.35h3.31c0.24,0,0.47-0.15,0.71-0.45c0.26-0.33,0.39-0.82,0.39-1.45c0-0.64-0.15-1.12-0.44-1.44
					c-0.28-0.31-0.56-0.46-0.8-0.46h-3.17V67.35z"/>
			</g>
			<g>
				<path class="st1" d="M95.63,79.74h-6.6v-16.2h-6.15v-5.85h18.87v5.85h-6.12V79.74z M89.78,78.99h5.1v-16.2H101v-4.35H83.63v4.35
					h6.15V78.99z"/>
			</g>
			<g>
				<path class="st1" d="M124.34,79.74h-5.2l-7.91-9.79v9.79h-6.6V57.69h5.12l7.99,10.12V57.69h6.6V79.74z M119.49,78.99h4.1V58.44
					h-5.1v11.54l-9.11-11.54h-4v20.55h5.1V67.83L119.49,78.99z"/>
			</g>
			<g>
				<path class="st1" d="M144.68,79.74h-15.93V57.69h15.66v5.85h-9.06v2.25h7.74v5.49h-7.74v2.61h9.33V79.74z M129.5,78.99h14.43
					v-4.35h-9.33v-4.11h7.74v-3.99h-7.74v-3.75h9.06v-4.35H129.5V78.99z"/>
			</g>
			<g>
				<path class="st1" d="M167.57,79.74h-7.47l-3.75-6.54h-1.6v6.54h-6.6V57.69h10.15c1.09,0,2.12,0.23,3.04,0.68
					c0.92,0.45,1.72,1.05,2.38,1.77c0.66,0.72,1.18,1.55,1.56,2.48c0.38,0.93,0.57,1.88,0.57,2.83c0,1.29-0.29,2.52-0.85,3.63
					c-0.51,1.02-1.22,1.88-2.09,2.56L167.57,79.74z M160.54,78.99h5.73l-4.35-7.56l0.28-0.2c0.91-0.64,1.62-1.48,2.13-2.49
					c0.51-1.01,0.77-2.12,0.77-3.3c0-0.85-0.17-1.7-0.51-2.54c-0.34-0.84-0.82-1.6-1.41-2.26c-0.59-0.65-1.32-1.19-2.15-1.6
					c-0.82-0.4-1.74-0.61-2.72-0.61h-9.4v20.55h5.1v-6.54h2.78L160.54,78.99z M158.07,68.1h-4.06v-5.31h3.92
					c0.47,0,0.92,0.24,1.36,0.71c0.42,0.46,0.64,1.12,0.64,1.95c0,0.8-0.18,1.44-0.54,1.91C158.99,67.85,158.55,68.1,158.07,68.1z
					 M154.76,67.35h3.31c0.24,0,0.47-0.15,0.71-0.45c0.26-0.33,0.39-0.82,0.39-1.45c0-0.64-0.15-1.12-0.44-1.44
					c-0.28-0.31-0.56-0.46-0.8-0.46h-3.17V67.35z"/>
			</g>
			<g>
				<path class="st1" d="M178.11,80.01c-0.79,0-1.62-0.06-2.45-0.18c-0.85-0.12-1.68-0.3-2.49-0.52c-0.82-0.22-1.63-0.49-2.38-0.79
					c-0.77-0.3-1.48-0.66-2.14-1.04l-0.3-0.18l2.86-5.81l0.35,0.22c0.69,0.43,1.41,0.82,2.14,1.14c0.63,0.29,1.34,0.56,2.13,0.79
					c0.77,0.23,1.57,0.35,2.37,0.35c0.73,0,1.02-0.12,1.12-0.19c0.15-0.1,0.21-0.21,0.21-0.37c0-0.19-0.08-0.34-0.24-0.48
					c-0.21-0.18-0.52-0.35-0.92-0.49c-0.43-0.16-0.93-0.31-1.49-0.47c-0.58-0.16-1.19-0.35-1.84-0.58c-0.96-0.33-1.8-0.68-2.49-1.06
					c-0.71-0.39-1.31-0.83-1.77-1.33c-0.47-0.5-0.83-1.09-1.06-1.74c-0.22-0.64-0.34-1.38-0.34-2.19c0-1.23,0.23-2.33,0.68-3.28
					c0.45-0.95,1.08-1.75,1.86-2.38c0.77-0.63,1.66-1.11,2.65-1.43c1.7-0.55,3.69-0.62,5.49-0.25c0.76,0.15,1.49,0.35,2.19,0.58
					c0.7,0.23,1.36,0.49,1.97,0.76c0.6,0.27,1.15,0.53,1.63,0.77l0.34,0.17l-2.88,5.52l-0.34-0.21c-0.57-0.34-1.18-0.66-1.82-0.94
					c-0.52-0.23-1.12-0.46-1.78-0.66c-1.11-0.35-2.34-0.41-2.93-0.1c-0.13,0.07-0.26,0.18-0.26,0.48c0,0.18,0.05,0.32,0.16,0.42
					c0.15,0.15,0.37,0.29,0.67,0.42c0.33,0.15,0.74,0.29,1.2,0.42c0.5,0.14,1.05,0.31,1.68,0.51c0.98,0.3,1.89,0.64,2.7,1.01
					c0.82,0.38,1.54,0.83,2.12,1.33c0.6,0.53,1.07,1.17,1.39,1.92c0.32,0.75,0.48,1.65,0.48,2.7c0,1.34-0.25,2.48-0.75,3.4
					c-0.5,0.92-1.16,1.67-1.98,2.22c-0.8,0.54-1.72,0.94-2.73,1.18C180.13,79.89,179.12,80.01,178.11,80.01z M169.33,76.99
					c0.54,0.3,1.12,0.58,1.73,0.82c0.73,0.29,1.5,0.55,2.3,0.77c0.78,0.21,1.58,0.38,2.4,0.5c1.81,0.26,3.5,0.24,5.18-0.16
					c0.92-0.22,1.76-0.58,2.49-1.07c0.72-0.48,1.3-1.14,1.74-1.95c0.44-0.81,0.66-1.84,0.66-3.05c0-0.94-0.14-1.75-0.42-2.4
					c-0.28-0.64-0.68-1.2-1.19-1.65c-0.53-0.46-1.18-0.87-1.93-1.22c-0.77-0.35-1.65-0.68-2.61-0.97c-0.62-0.2-1.17-0.37-1.66-0.51
					c-0.49-0.14-0.92-0.29-1.29-0.45c-0.38-0.17-0.68-0.36-0.9-0.57c-0.25-0.25-0.38-0.57-0.38-0.96c0-0.52,0.23-0.92,0.67-1.14
					c0.79-0.41,2.18-0.36,3.49,0.05c0.68,0.21,1.31,0.44,1.85,0.69c0.54,0.24,1.06,0.5,1.56,0.78l2.16-4.14
					c-0.39-0.19-0.81-0.39-1.26-0.59c-0.59-0.26-1.23-0.51-1.9-0.74c-0.67-0.22-1.37-0.41-2.1-0.56c-1.66-0.34-3.53-0.29-5.1,0.23
					c-0.9,0.29-1.72,0.73-2.42,1.3c-0.69,0.56-1.25,1.28-1.65,2.12c-0.4,0.84-0.61,1.84-0.61,2.96c0,0.73,0.1,1.39,0.29,1.95
					c0.19,0.55,0.49,1.05,0.89,1.47c0.41,0.44,0.94,0.84,1.59,1.19c0.65,0.36,1.45,0.7,2.37,1.01c0.63,0.22,1.23,0.41,1.8,0.56
					c0.58,0.16,1.09,0.33,1.54,0.49c0.49,0.18,0.86,0.38,1.15,0.62c0.33,0.28,0.51,0.64,0.51,1.05c0,0.41-0.19,0.75-0.54,0.99
					c-0.32,0.22-0.82,0.32-1.55,0.32c-0.87,0-1.74-0.13-2.58-0.38c-0.82-0.24-1.57-0.52-2.23-0.83c-0.64-0.29-1.27-0.61-1.88-0.98
					L169.33,76.99z"/>
			</g>
		</g>
	</g>
</g>
<g id="Capa_1">
</g>
<g id="Capa_3">
</g>
<g id="Capa_4">
</g>
<g id="Capa_6">
</g>
<g id="Capa_5">
</g>
</svg>
