<?xml version="1.0" encoding="utf-8"?>
<!-- Generator: Adobe Illustrator 24.0.3, SVG Export Plug-In . SVG Version: 6.00 Build 0)  -->
<svg version="1.1" xmlns="http://www.w3.org/2000/svg" xmlns:xlink="http://www.w3.org/1999/xlink" x="0px" y="0px"
	 viewBox="0 0 465.74 120.03" style="enable-background:new 0 0 465.74 120.03;" xml:space="preserve">
<style type="text/css">
	.st0{fill:#FFFFFF;}
	.st1{fill:url(#SVGID_1_);}
	.st2{fill:#E7004C;}
	.st3{fill:none;stroke:#00B2E3;stroke-miterlimit:10;}
	.st4{fill:url(#SVGID_2_);}
	.st5{fill:#FCFCFC;}
	.st6{fill:url(#SVGID_3_);}
	.st7{fill:url(#SVGID_4_);}
	.st8{opacity:0.8;fill:#E7004C;}
	.st9{opacity:0.7;fill:#E7004C;}
	.st10{opacity:0.7;}
	.st11{fill:#00B2E3;}
	.st12{opacity:0.8;fill:#00B2E3;}
	.st13{opacity:0.7;fill:#00B2E3;}
	.st14{fill:#BBBBBB;}
	.st15{opacity:0.8;fill:#BBBBBB;}
	.st16{opacity:0.7;fill:#BBBBBB;}
	.st17{fill:url(#SVGID_5_);}
	.st18{fill:url(#SVGID_6_);}
	.st19{fill:none;stroke:#E7004C;stroke-width:2;stroke-miterlimit:10;}
	.st20{fill:url(#SVGID_7_);}
	.st21{fill:url(#SVGID_8_);}
	.st22{fill:url(#SVGID_9_);}
	.st23{fill:none;stroke:#FFFFFF;stroke-miterlimit:10;}
	.st24{fill:none;stroke:#E7004C;stroke-miterlimit:10;}
	.st25{fill-rule:evenodd;clip-rule:evenodd;fill:#E7004C;}
	.st26{fill:none;stroke:#000000;stroke-miterlimit:10;}
	.st27{fill:#38A8E0;}
	.st28{clip-path:url(#SVGID_11_);fill:#00B2E3;}
	.st29{fill:none;stroke:#E7004C;stroke-width:3;stroke-miterlimit:10;}
	.st30{clip-path:url(#SVGID_13_);}
	.st31{fill:none;stroke:#FFFFFF;stroke-width:2;stroke-miterlimit:10;}
	.st32{fill:none;stroke:#FFFFFF;stroke-width:3;stroke-miterlimit:10;}
	.st33{clip-path:url(#SVGID_15_);}
	.st34{fill:url(#SVGID_16_);}
	.st35{fill:none;stroke:#FFFFFF;stroke-width:0.5;stroke-miterlimit:10;}
	.st36{clip-path:url(#SVGID_18_);fill:#00B2E3;}
	.st37{clip-path:url(#SVGID_20_);}
	.st38{clip-path:url(#SVGID_22_);}
	.st39{fill:url(#SVGID_23_);}
	.st40{clip-path:url(#SVGID_25_);}
	.st41{fill:url(#SVGID_26_);}
	.st42{fill:url(#SVGID_27_);}
	.st43{fill:url(#SVGID_28_);}
	.st44{fill:url(#SVGID_29_);}
	.st45{clip-path:url(#SVGID_31_);fill:#00B2E3;}
	.st46{clip-path:url(#SVGID_33_);}
	.st47{clip-path:url(#SVGID_35_);}
	.st48{fill:url(#SVGID_36_);}
	.st49{clip-path:url(#SVGID_38_);}
	.st50{clip-path:url(#SVGID_40_);}
	.st51{fill:#280210;}
	.st52{opacity:0.5;}
	.st53{opacity:0.6;}
	.st54{fill:url(#SVGID_41_);}
	.st55{fill:url(#SVGID_42_);}
	.st56{fill:url(#SVGID_43_);}
	.st57{fill:url(#SVGID_44_);}
	.st58{opacity:0.8;}
	.st59{opacity:0.9;}
	.st60{fill:url(#SVGID_45_);}
	.st61{clip-path:url(#SVGID_47_);}
	.st62{clip-path:url(#SVGID_49_);}
	.st63{fill:url(#SVGID_50_);}
	.st64{clip-path:url(#SVGID_52_);}
	.st65{fill:url(#SVGID_53_);}
	.st66{clip-path:url(#SVGID_55_);}
	.st67{fill:url(#SVGID_56_);}
	.st68{clip-path:url(#SVGID_58_);}
	.st69{clip-path:url(#SVGID_60_);fill:#00B2E3;}
	.st70{clip-path:url(#SVGID_62_);}
	.st71{clip-path:url(#SVGID_64_);}
	.st72{fill:none;stroke:#FFFFFF;stroke-width:5;stroke-miterlimit:10;}
	.st73{clip-path:url(#SVGID_66_);fill:#00B2E3;}
	.st74{clip-path:url(#SVGID_68_);}
	.st75{clip-path:url(#SVGID_70_);}
	.st76{clip-path:url(#SVGID_72_);fill:#00B2E3;}
	.st77{clip-path:url(#SVGID_74_);}
	.st78{clip-path:url(#SVGID_76_);}
	.st79{fill-rule:evenodd;clip-rule:evenodd;fill:#FFFFFF;}
	.st80{fill:#E5E5E5;}
	.st81{clip-path:url(#SVGID_78_);}
	.st82{fill-rule:evenodd;clip-rule:evenodd;fill:none;stroke:#E7004C;stroke-width:3;stroke-miterlimit:10;}
	.st83{fill:none;stroke:#5B0323;stroke-miterlimit:10;}
	.st84{fill:#070101;}
	.st85{fill:none;stroke:#068FFF;stroke-width:5;stroke-miterlimit:10;}
</style>
<g id="Capa_2">
</g>
<g id="Capa_1">
</g>
<g id="Capa_3">
	<g>
		<g>
			<g>
				<path class="st0" d="M32.15,88.57H1.13V4.36h31.03c6.8,0,12.87,1.12,18.03,3.32c5.17,2.21,9.56,5.26,13.04,9.06
					c3.48,3.8,6.13,8.31,7.86,13.4c1.72,5.06,2.6,10.51,2.6,16.21c0,6.32-0.97,12.13-2.9,17.28c-1.93,5.17-4.76,9.66-8.4,13.34
					c-3.64,3.68-8.07,6.56-13.16,8.58C44.16,87.55,38.42,88.57,32.15,88.57z M2.13,87.57h30.03c6.14,0,11.76-0.99,16.71-2.95
					c4.96-1.96,9.27-4.77,12.81-8.35c3.54-3.58,6.29-7.95,8.18-12.99c1.88-5.03,2.83-10.73,2.83-16.93c0-5.59-0.86-10.93-2.54-15.88
					c-1.69-4.96-4.27-9.35-7.66-13.05c-3.39-3.7-7.66-6.66-12.7-8.82c-5.03-2.15-10.97-3.24-17.64-3.24H2.13V87.57z M32.15,72.63
					H19.01V20.3h13.15c3.71,0,7.07,0.64,10,1.9c2.92,1.26,5.41,3.05,7.4,5.33c1.99,2.29,3.53,5.07,4.57,8.26
					c1.04,3.21,1.57,6.76,1.57,10.56c0,3.73-0.53,7.24-1.57,10.45c-1.04,3.19-2.56,5.99-4.52,8.32c-1.95,2.32-4.42,4.18-7.34,5.5
					C39.34,71.96,35.94,72.63,32.15,72.63z M20.01,71.63h12.15c3.64,0,6.9-0.64,9.69-1.92c2.78-1.27,5.13-3.03,6.99-5.24
					c1.88-2.23,3.34-4.92,4.34-7.99c1.01-3.1,1.52-6.52,1.52-10.14c0-3.7-0.51-7.15-1.52-10.25c-1-3.06-2.47-5.72-4.38-7.91
					c-1.89-2.17-4.26-3.88-7.04-5.07c-2.8-1.2-6.03-1.82-9.6-1.82H20.01V71.63z"/>
			</g>
		</g>
		<g>
			<g>
				<path class="st0" d="M228.29,88.57h-21.35l-16.56-27.18h-13.1v27.18H158.4V4.36h37.42c3.95,0,7.66,0.84,11.03,2.5
					c3.32,1.64,6.23,3.84,8.64,6.52c2.39,2.67,4.3,5.75,5.65,9.14c1.36,3.41,2.05,6.89,2.05,10.35c0,5.52-1.4,10.62-4.17,15.15
					c-2.46,4.03-5.75,7.12-9.78,9.17L228.29,88.57z M207.5,87.57h19.01l-18.68-30.79l0.5-0.24c4.08-1.97,7.39-5.01,9.85-9.04
					c2.67-4.37,4.02-9.29,4.02-14.62c0-3.33-0.67-6.68-1.98-9.97c-1.31-3.28-3.15-6.26-5.47-8.85c-2.32-2.59-5.13-4.71-8.34-6.29
					c-3.22-1.59-6.79-2.4-10.58-2.4H159.4v82.21h16.88V60.39h14.66L207.5,87.57z M195.48,45.45h-19.2V20.3h18.51
					c1.27,0,2.56,0.31,3.81,0.91c1.26,0.61,2.39,1.49,3.36,2.61c0.98,1.13,1.77,2.48,2.35,4c0.58,1.53,0.88,3.23,0.88,5.05
					c0,1.75-0.26,3.42-0.77,4.96c-0.52,1.55-1.22,2.89-2.08,4c-0.86,1.11-1.9,2-3.08,2.65C198.1,45.13,196.83,45.45,195.48,45.45z
					 M177.28,44.45h18.2c1.18,0,2.29-0.28,3.31-0.84c1.06-0.58,1.99-1.38,2.77-2.38c0.8-1.02,1.44-2.27,1.93-3.71
					c0.48-1.44,0.72-3,0.72-4.64c0-1.71-0.27-3.29-0.81-4.7c-0.54-1.42-1.27-2.66-2.17-3.7c-0.88-1.01-1.91-1.81-3.05-2.36
					c-1.12-0.54-2.25-0.81-3.37-0.81h-17.51V44.45z"/>
			</g>
		</g>
		<g>
			<g>
				<path class="st0" d="M263.78,88.57h-31.03V4.36h31.03c6.8,0,12.87,1.12,18.03,3.32c5.17,2.21,9.56,5.26,13.04,9.06
					c3.48,3.8,6.13,8.31,7.86,13.4c1.72,5.05,2.6,10.51,2.6,16.21c0,6.32-0.97,12.13-2.9,17.28c-1.93,5.17-4.76,9.66-8.4,13.34
					c-3.64,3.68-8.07,6.56-13.16,8.58C275.79,87.55,270.04,88.57,263.78,88.57z M233.75,87.57h30.03c6.14,0,11.76-0.99,16.71-2.95
					c4.96-1.96,9.27-4.77,12.81-8.35c3.54-3.58,6.3-7.96,8.18-12.99c1.88-5.03,2.83-10.73,2.83-16.93c0-5.59-0.86-10.93-2.54-15.88
					c-1.69-4.96-4.27-9.35-7.66-13.05c-3.39-3.7-7.66-6.66-12.7-8.82c-5.03-2.15-10.97-3.24-17.64-3.24h-30.03V87.57z M263.78,72.63
					h-13.15V20.3h13.15c3.71,0,7.07,0.64,10,1.9c2.92,1.26,5.41,3.05,7.4,5.33c2,2.29,3.53,5.07,4.57,8.26
					c1.04,3.21,1.57,6.76,1.57,10.56c0,3.73-0.53,7.24-1.57,10.45c-1.04,3.19-2.56,5.99-4.52,8.32c-1.96,2.32-4.43,4.18-7.34,5.5
					C270.97,71.96,267.57,72.63,263.78,72.63z M251.63,71.63h12.15c3.64,0,6.9-0.64,9.69-1.92c2.78-1.27,5.13-3.03,6.99-5.24
					c1.88-2.24,3.34-4.92,4.33-7.99c1.01-3.1,1.52-6.52,1.52-10.14c0-3.7-0.51-7.15-1.52-10.25c-0.99-3.06-2.47-5.72-4.37-7.91
					c-1.89-2.17-4.26-3.88-7.04-5.07c-2.8-1.2-6.03-1.82-9.6-1.82h-12.15V71.63z"/>
			</g>
		</g>
		<g>
			<g>
				<path class="st0" d="M350.7,89.14c-6.15,0-11.82-1.22-16.84-3.64c-4.99-2.4-9.34-5.63-12.93-9.61
					c-3.58-3.97-6.39-8.57-8.35-13.68c-1.96-5.11-2.96-10.41-2.96-15.75c0-5.59,1.06-11.01,3.14-16.12
					c2.08-5.1,4.99-9.68,8.64-13.61c3.66-3.94,8.07-7.11,13.11-9.43c5.06-2.33,10.62-3.51,16.53-3.51c6.08,0,11.71,1.26,16.74,3.76
					c4.99,2.48,9.32,5.77,12.87,9.79c3.53,4,6.32,8.62,8.28,13.72c1.96,5.11,2.96,10.37,2.96,15.64c0,5.58-1.04,10.98-3.08,16.06
					c-2.04,5.06-4.91,9.6-8.53,13.5c-3.63,3.9-8.02,7.06-13.05,9.38C362.17,87.96,356.61,89.14,350.7,89.14z M351.04,4.79
					c-5.76,0-11.19,1.15-16.11,3.42c-4.92,2.27-9.22,5.37-12.8,9.21c-3.57,3.84-6.41,8.31-8.45,13.3
					c-2.04,4.99-3.07,10.29-3.07,15.75c0,5.22,0.97,10.4,2.89,15.39c1.92,4.99,4.66,9.49,8.16,13.37c3.5,3.88,7.75,7.04,12.62,9.38
					c4.89,2.35,10.41,3.54,16.41,3.54c5.76,0,11.18-1.15,16.11-3.42c4.92-2.26,9.2-5.34,12.74-9.15c3.53-3.8,6.34-8.24,8.33-13.19
					c2-4.96,3.01-10.24,3.01-15.69c0-5.14-0.97-10.28-2.89-15.28c-1.92-4.99-4.65-9.5-8.1-13.42c-3.46-3.92-7.69-7.14-12.56-9.55
					C362.44,6.02,356.96,4.79,351.04,4.79z M350.81,73.09c-3.63,0-6.9-0.75-9.73-2.22c-2.85-1.48-5.29-3.47-7.25-5.91
					c-1.97-2.45-3.49-5.31-4.53-8.5c-1.04-3.2-1.57-6.56-1.57-9.99c0-3.28,0.51-6.54,1.52-9.71c1-3.15,2.49-6.02,4.42-8.51
					c1.92-2.47,4.36-4.5,7.24-6.01c2.88-1.51,6.21-2.28,9.91-2.28c3.55,0,6.79,0.73,9.63,2.17c2.85,1.44,5.28,3.41,7.24,5.85
					c1.97,2.45,3.51,5.32,4.59,8.51c1.08,3.2,1.63,6.56,1.63,9.99c0,3.28-0.51,6.55-1.51,9.71c-1,3.16-2.51,6.04-4.48,8.56
					c-1.96,2.51-4.39,4.56-7.24,6.08C357.82,72.33,354.51,73.09,350.81,73.09z M350.81,20.95c-3.53,0-6.71,0.73-9.44,2.16
					c-2.76,1.45-5.08,3.38-6.92,5.74c-1.86,2.4-3.29,5.16-4.26,8.2c-0.97,3.07-1.47,6.23-1.47,9.41c0,3.33,0.51,6.58,1.52,9.68
					c1,3.08,2.47,5.83,4.36,8.19c1.87,2.33,4.2,4.23,6.93,5.65c2.69,1.4,5.81,2.11,9.27,2.11c3.53,0,6.69-0.73,9.38-2.16
					c2.73-1.45,5.06-3.41,6.92-5.81c1.9-2.43,3.35-5.21,4.31-8.25c0.97-3.06,1.47-6.23,1.47-9.41c0-3.31-0.53-6.57-1.57-9.67
					c-1.04-3.08-2.52-5.84-4.42-8.2c-1.87-2.33-4.19-4.2-6.91-5.58C357.29,21.65,354.2,20.95,350.81,20.95z"/>
			</g>
		</g>
		<g>
			<g>
				<path class="st0" d="M151.88,88.57h-19.65l-20.64-45.35L90.95,88.57H71.3L111.59,0.5L151.88,88.57z M132.87,87.57h17.45
					L111.59,2.9L72.86,87.57h17.45l21.28-46.76L132.87,87.57z"/>
			</g>
		</g>
		<g>
			<g>
				<path class="st0" d="M423.69,120.03h-15.17l32.97-67.36h-36.04V35.59h59.49L423.69,120.03z M410.12,119.03h12.95l40.27-82.45
					h-56.89v15.08h36.64L410.12,119.03z"/>
			</g>
		</g>
	</g>
</g>
<g id="Capa_4">
</g>
<g id="Capa_6">
</g>
<g id="Capa_5">
</g>
</svg>
