<?xml version="1.0" encoding="utf-8"?>
<!-- Generator: Adobe Illustrator 24.0.3, SVG Export Plug-In . SVG Version: 6.00 Build 0)  -->
<svg version="1.1" xmlns="http://www.w3.org/2000/svg" xmlns:xlink="http://www.w3.org/1999/xlink" x="0px" y="0px"
	 viewBox="0 0 208.6 78.99" style="enable-background:new 0 0 208.6 78.99;" xml:space="preserve">
<style type="text/css">
	.st0{fill:none;stroke:#E7004C;stroke-miterlimit:10;}
	.st1{fill:#FFFFFF;}
	.st2{fill:url(#SVGID_1_);}
	.st3{fill:#E7004C;}
	.st4{fill:#42050E;}
	.st5{fill:none;stroke:#FFFFFF;stroke-width:0.75;stroke-miterlimit:10;}
	.st6{fill-rule:evenodd;clip-rule:evenodd;fill:#FFFFFF;}
	.st7{fill:none;stroke:#00B2E3;stroke-miterlimit:10;}
	.st8{fill:url(#SVGID_2_);}
	.st9{fill:#FCFCFC;}
	.st10{fill:url(#SVGID_3_);}
	.st11{fill:url(#SVGID_4_);}
	.st12{opacity:0.8;fill:#E7004C;}
	.st13{opacity:0.7;fill:#E7004C;}
	.st14{opacity:0.7;}
	.st15{fill:#00B2E3;}
	.st16{opacity:0.8;fill:#00B2E3;}
	.st17{opacity:0.7;fill:#00B2E3;}
	.st18{fill:#BBBBBB;}
	.st19{opacity:0.8;fill:#BBBBBB;}
	.st20{opacity:0.7;fill:#BBBBBB;}
	.st21{fill:url(#SVGID_5_);}
	.st22{fill:url(#SVGID_6_);}
	.st23{fill:none;stroke:#E7004C;stroke-width:2;stroke-miterlimit:10;}
	.st24{fill:url(#SVGID_7_);}
	.st25{fill:url(#SVGID_8_);}
	.st26{fill:url(#SVGID_9_);}
	.st27{fill:none;stroke:#FFFFFF;stroke-miterlimit:10;}
	.st28{fill-rule:evenodd;clip-rule:evenodd;fill:#E7004C;}
	.st29{fill:none;stroke:#000000;stroke-miterlimit:10;}
	.st30{fill:#38A8E0;}
	.st31{clip-path:url(#SVGID_11_);fill:#00B2E3;}
	.st32{fill:none;stroke:#E7004C;stroke-width:3;stroke-miterlimit:10;}
	.st33{clip-path:url(#SVGID_13_);}
	.st34{fill:none;stroke:#FFFFFF;stroke-width:2;stroke-miterlimit:10;}
	.st35{fill:none;stroke:#FFFFFF;stroke-width:3;stroke-miterlimit:10;}
	.st36{clip-path:url(#SVGID_15_);}
	.st37{fill:url(#SVGID_16_);}
	.st38{fill:none;stroke:#FFFFFF;stroke-width:0.5;stroke-miterlimit:10;}
	.st39{clip-path:url(#SVGID_18_);fill:#00B2E3;}
	.st40{clip-path:url(#SVGID_20_);}
	.st41{clip-path:url(#SVGID_22_);}
	.st42{fill:url(#SVGID_23_);}
	.st43{clip-path:url(#SVGID_25_);}
	.st44{fill:url(#SVGID_26_);}
	.st45{fill:url(#SVGID_27_);}
	.st46{fill:url(#SVGID_28_);}
	.st47{fill:url(#SVGID_29_);}
	.st48{clip-path:url(#SVGID_31_);fill:#00B2E3;}
	.st49{clip-path:url(#SVGID_33_);}
	.st50{clip-path:url(#SVGID_35_);}
	.st51{fill:url(#SVGID_36_);}
	.st52{clip-path:url(#SVGID_38_);}
	.st53{clip-path:url(#SVGID_40_);}
	.st54{fill:#280210;}
	.st55{opacity:0.5;}
	.st56{opacity:0.6;}
	.st57{fill:url(#SVGID_41_);}
	.st58{fill:url(#SVGID_42_);}
	.st59{fill:url(#SVGID_43_);}
	.st60{fill:url(#SVGID_44_);}
	.st61{opacity:0.8;}
	.st62{opacity:0.9;}
	.st63{fill:url(#SVGID_45_);}
	.st64{clip-path:url(#SVGID_47_);}
	.st65{clip-path:url(#SVGID_49_);}
	.st66{fill:url(#SVGID_50_);}
	.st67{clip-path:url(#SVGID_52_);}
	.st68{fill:url(#SVGID_53_);}
	.st69{clip-path:url(#SVGID_55_);}
	.st70{fill:url(#SVGID_56_);}
	.st71{clip-path:url(#SVGID_58_);fill:#00B2E3;}
	.st72{clip-path:url(#SVGID_60_);}
	.st73{clip-path:url(#SVGID_62_);}
	.st74{fill:none;stroke:#FFFFFF;stroke-width:5;stroke-miterlimit:10;}
	.st75{clip-path:url(#SVGID_64_);fill:#00B2E3;}
	.st76{clip-path:url(#SVGID_66_);}
	.st77{clip-path:url(#SVGID_68_);}
	.st78{clip-path:url(#SVGID_70_);fill:#00B2E3;}
	.st79{clip-path:url(#SVGID_72_);}
	.st80{fill:#5B0323;}
	.st81{fill:url(#SVGID_73_);}
	.st82{fill:url(#SVGID_74_);}
	.st83{fill:url(#SVGID_75_);}
	.st84{clip-path:url(#SVGID_77_);fill:#00B2E3;}
	.st85{clip-path:url(#SVGID_80_);}
	.st86{fill:none;stroke:#00B2E3;stroke-width:2;stroke-miterlimit:10;}
	.st87{fill-rule:evenodd;clip-rule:evenodd;fill:#00B2E3;}
	.st88{clip-path:url(#SVGID_84_);}
	.st89{fill:#E5E5E5;}
	.st90{clip-path:url(#SVGID_86_);}
	.st91{fill-rule:evenodd;clip-rule:evenodd;fill:none;stroke:#E7004C;stroke-width:3;stroke-miterlimit:10;}
	.st92{fill:#020202;}
	.st93{fill:none;stroke:#5B0323;stroke-miterlimit:10;}
	.st94{fill:#070101;}
	.st95{fill:none;stroke:#068FFF;stroke-width:5;stroke-miterlimit:10;}
</style>
<g id="Capa_2">
	<g>
		<g>
			<path class="st4" d="M9.88,13.33H17l9.84,28.4h-7.92l-1.72-5.56H9.64l-1.68,5.56H0L9.88,13.33z M15.96,30.97l-2.52-8.8l-2.64,8.8
				H15.96z"/>
			<path class="st4" d="M31.2,41.73v-28.4H39v21.6h12.88v6.8H31.2z"/>
			<path class="st4" d="M56.6,41.73v-28.4h7.8v28.4H56.6z"/>
			<path class="st4" d="M78.64,13.33h7.12l9.84,28.4h-7.92l-1.72-5.56H78.4l-1.68,5.56h-7.96L78.64,13.33z M84.72,30.97l-2.52-8.8
				l-2.64,8.8H84.72z"/>
			<path class="st4" d="M107.76,27.77v13.96h-7.8v-28.4h6.08l11.4,14.44V13.33h7.8v28.4h-6.2L107.76,27.77z"/>
			<path class="st4" d="M130.76,35.93l13.28-15.8h-12.68v-6.8h21.68v5.8l-12.48,15.8h12.72v6.8h-22.52V35.93z"/>
			<path class="st4" d="M166.36,13.33h7.12l9.84,28.4h-7.92l-1.72-5.56h-7.56l-1.68,5.56h-7.96L166.36,13.33z M172.44,30.97
				l-2.52-8.8l-2.64,8.8H172.44z"/>
			<path class="st4" d="M204.56,22.61c-0.8-0.48-1.63-0.91-2.48-1.28c-0.72-0.32-1.53-0.62-2.42-0.9c-0.89-0.28-1.77-0.42-2.62-0.42
				c-0.69,0-1.25,0.11-1.66,0.32c-0.41,0.21-0.62,0.57-0.62,1.08c0,0.37,0.12,0.68,0.36,0.92c0.24,0.24,0.59,0.46,1.04,0.66
				c0.45,0.2,1.01,0.39,1.66,0.58c0.65,0.19,1.39,0.41,2.22,0.68c1.31,0.4,2.49,0.84,3.54,1.32c1.05,0.48,1.95,1.05,2.7,1.7
				s1.32,1.45,1.72,2.38c0.4,0.93,0.6,2.07,0.6,3.4c0,1.71-0.31,3.14-0.94,4.3c-0.63,1.16-1.45,2.09-2.48,2.78
				c-1.03,0.69-2.19,1.19-3.48,1.5c-1.29,0.31-2.59,0.46-3.9,0.46c-1.04,0-2.11-0.08-3.2-0.24c-1.09-0.16-2.18-0.39-3.26-0.68
				c-1.08-0.29-2.12-0.64-3.12-1.04c-1-0.4-1.93-0.85-2.78-1.36l3.36-6.84c0.93,0.59,1.91,1.11,2.92,1.56
				c0.85,0.4,1.82,0.76,2.9,1.08c1.08,0.32,2.18,0.48,3.3,0.48c0.85,0,1.45-0.11,1.78-0.34s0.5-0.53,0.5-0.9
				c0-0.4-0.17-0.74-0.5-1.02c-0.33-0.28-0.79-0.53-1.38-0.74c-0.59-0.21-1.26-0.43-2.02-0.64c-0.76-0.21-1.57-0.47-2.42-0.76
				c-1.25-0.43-2.33-0.89-3.24-1.38c-0.91-0.49-1.65-1.05-2.24-1.68c-0.59-0.63-1.02-1.34-1.3-2.14c-0.28-0.8-0.42-1.72-0.42-2.76
				c0-1.57,0.29-2.96,0.86-4.16c0.57-1.2,1.35-2.2,2.34-3c0.99-0.8,2.11-1.41,3.38-1.82c1.27-0.41,2.61-0.62,4.02-0.62
				c1.04,0,2.05,0.1,3.04,0.3c0.99,0.2,1.94,0.45,2.86,0.76c0.92,0.31,1.78,0.64,2.58,1c0.8,0.36,1.52,0.7,2.16,1.02L204.56,22.61z"
				/>
		</g>
		<g>
			<path class="st1" d="M9.88,0H17l9.84,28.4h-7.92l-1.72-5.56H9.64L7.96,28.4H0L9.88,0z M15.96,17.64l-2.52-8.8l-2.64,8.8H15.96z"
				/>
			<path class="st1" d="M31.2,28.4V0H39v21.6h12.88v6.8H31.2z"/>
			<path class="st1" d="M56.6,28.4V0h7.8v28.4H56.6z"/>
			<path class="st1" d="M78.64,0h7.12l9.84,28.4h-7.92l-1.72-5.56H78.4l-1.68,5.56h-7.96L78.64,0z M84.72,17.64l-2.52-8.8l-2.64,8.8
				H84.72z"/>
			<path class="st1" d="M107.76,14.44V28.4h-7.8V0h6.08l11.4,14.44V0h7.8v28.4h-6.2L107.76,14.44z"/>
			<path class="st1" d="M130.76,22.6l13.28-15.8h-12.68V0h21.68v5.8l-12.48,15.8h12.72v6.8h-22.52V22.6z"/>
			<path class="st1" d="M166.36,0h7.12l9.84,28.4h-7.92l-1.72-5.56h-7.56l-1.68,5.56h-7.96L166.36,0z M172.44,17.64l-2.52-8.8
				l-2.64,8.8H172.44z"/>
			<path class="st1" d="M204.56,9.28c-0.8-0.48-1.63-0.91-2.48-1.28c-0.72-0.32-1.53-0.62-2.42-0.9c-0.89-0.28-1.77-0.42-2.62-0.42
				c-0.69,0-1.25,0.11-1.66,0.32c-0.41,0.21-0.62,0.57-0.62,1.08c0,0.37,0.12,0.68,0.36,0.92c0.24,0.24,0.59,0.46,1.04,0.66
				c0.45,0.2,1.01,0.39,1.66,0.58c0.65,0.19,1.39,0.41,2.22,0.68c1.31,0.4,2.49,0.84,3.54,1.32c1.05,0.48,1.95,1.05,2.7,1.7
				c0.75,0.65,1.32,1.45,1.72,2.38s0.6,2.07,0.6,3.4c0,1.71-0.31,3.14-0.94,4.3c-0.63,1.16-1.45,2.09-2.48,2.78
				c-1.03,0.69-2.19,1.19-3.48,1.5c-1.29,0.3-2.59,0.46-3.9,0.46c-1.04,0-2.11-0.08-3.2-0.24c-1.09-0.16-2.18-0.39-3.26-0.68
				s-2.12-0.64-3.12-1.04c-1-0.4-1.93-0.85-2.78-1.36l3.36-6.84c0.93,0.59,1.91,1.11,2.92,1.56c0.85,0.4,1.82,0.76,2.9,1.08
				c1.08,0.32,2.18,0.48,3.3,0.48c0.85,0,1.45-0.11,1.78-0.34s0.5-0.53,0.5-0.9c0-0.4-0.17-0.74-0.5-1.02
				c-0.33-0.28-0.79-0.53-1.38-0.74c-0.59-0.21-1.26-0.43-2.02-0.64c-0.76-0.21-1.57-0.47-2.42-0.76c-1.25-0.43-2.33-0.89-3.24-1.38
				c-0.91-0.49-1.65-1.05-2.24-1.68c-0.59-0.63-1.02-1.34-1.3-2.14c-0.28-0.8-0.42-1.72-0.42-2.76c0-1.57,0.29-2.96,0.86-4.16
				c0.57-1.2,1.35-2.2,2.34-3c0.99-0.8,2.11-1.41,3.38-1.82c1.27-0.41,2.61-0.62,4.02-0.62c1.04,0,2.05,0.1,3.04,0.3
				c0.99,0.2,1.94,0.45,2.86,0.76c0.92,0.31,1.78,0.64,2.58,1c0.8,0.36,1.52,0.7,2.16,1.02L204.56,9.28z"/>
		</g>
		<g>
			<path class="st5" d="M23.2,78.72v-21.3h9.18c1.04,0,2,0.21,2.88,0.64c0.88,0.43,1.63,0.99,2.26,1.68
				c0.63,0.69,1.12,1.48,1.49,2.37c0.36,0.89,0.54,1.79,0.54,2.69c0,0.94-0.17,1.86-0.51,2.74c-0.34,0.89-0.81,1.68-1.42,2.37
				c-0.61,0.69-1.35,1.24-2.22,1.65c-0.87,0.41-1.83,0.62-2.86,0.62h-3.48v6.54H23.2z M29.05,67.08h3.09c0.36,0,0.69-0.16,1-0.49
				s0.47-0.93,0.47-1.79c0-0.88-0.18-1.48-0.54-1.8c-0.36-0.32-0.72-0.48-1.08-0.48h-2.94V67.08z"/>
			<path class="st5" d="M47.35,57.42h5.34l7.38,21.3h-5.94l-1.29-4.17h-5.67l-1.26,4.17h-5.97L47.35,57.42z M51.91,70.65l-1.89-6.6
				l-1.98,6.6H51.91z"/>
			<path class="st5" d="M63.33,78.72v-21.3h9.78c1.04,0,2,0.21,2.88,0.64c0.88,0.43,1.63,0.99,2.26,1.68
				c0.63,0.69,1.12,1.48,1.49,2.37c0.36,0.89,0.54,1.79,0.54,2.69c0,1.24-0.27,2.39-0.81,3.46c-0.54,1.07-1.29,1.95-2.25,2.62
				l4.5,7.83h-6.6l-3.75-6.54h-2.19v6.54H63.33z M69.19,67.08h3.69c0.36,0,0.69-0.2,1-0.6c0.31-0.4,0.46-0.96,0.46-1.68
				c0-0.74-0.18-1.3-0.54-1.7c-0.36-0.39-0.72-0.59-1.08-0.59h-3.54V67.08z"/>
			<path class="st5" d="M101.37,62.52h-6.12v16.2H89.4v-16.2h-6.15v-5.1h18.12V62.52z"/>
			<path class="st5" d="M110.85,68.25v10.47H105v-21.3h4.56l8.55,10.83V57.42h5.85v21.3h-4.65L110.85,68.25z"/>
			<path class="st5" d="M144.3,73.62v5.1h-15.18v-21.3h14.91v5.1h-9.06v3h7.74v4.74h-7.74v3.36H144.3z"/>
			<path class="st5" d="M148.53,78.72v-21.3h9.78c1.04,0,2,0.21,2.88,0.64c0.88,0.43,1.63,0.99,2.26,1.68
				c0.63,0.69,1.12,1.48,1.49,2.37c0.36,0.89,0.54,1.79,0.54,2.69c0,1.24-0.27,2.39-0.81,3.46c-0.54,1.07-1.29,1.95-2.25,2.62
				l4.5,7.83h-6.6l-3.75-6.54h-2.19v6.54H148.53z M154.38,67.08h3.69c0.36,0,0.69-0.2,1-0.6c0.31-0.4,0.46-0.96,0.46-1.68
				c0-0.74-0.18-1.3-0.54-1.7c-0.36-0.39-0.72-0.59-1.08-0.59h-3.54V67.08z"/>
			<path class="st5" d="M183.18,64.38c-0.6-0.36-1.22-0.68-1.86-0.96c-0.54-0.24-1.15-0.46-1.81-0.67
				c-0.67-0.21-1.33-0.32-1.97-0.32c-0.52,0-0.94,0.08-1.24,0.24c-0.31,0.16-0.47,0.43-0.47,0.81c0,0.28,0.09,0.51,0.27,0.69
				c0.18,0.18,0.44,0.35,0.78,0.5c0.34,0.15,0.75,0.29,1.24,0.43c0.49,0.14,1.04,0.31,1.67,0.51c0.98,0.3,1.86,0.63,2.66,0.99
				c0.79,0.36,1.46,0.79,2.02,1.28c0.56,0.49,0.99,1.09,1.29,1.79c0.3,0.7,0.45,1.55,0.45,2.55c0,1.28-0.23,2.35-0.7,3.22
				c-0.47,0.87-1.09,1.56-1.86,2.08c-0.77,0.52-1.64,0.9-2.61,1.12c-0.97,0.23-1.95,0.35-2.92,0.35c-0.78,0-1.58-0.06-2.4-0.18
				c-0.82-0.12-1.63-0.29-2.44-0.51s-1.59-0.48-2.34-0.78c-0.75-0.3-1.45-0.64-2.08-1.02l2.52-5.13c0.7,0.44,1.43,0.83,2.19,1.17
				c0.64,0.3,1.36,0.57,2.17,0.81s1.64,0.36,2.48,0.36c0.64,0,1.08-0.09,1.33-0.26c0.25-0.17,0.38-0.39,0.38-0.68
				c0-0.3-0.12-0.55-0.38-0.76c-0.25-0.21-0.6-0.39-1.04-0.55s-0.94-0.32-1.51-0.48c-0.57-0.16-1.18-0.35-1.81-0.57
				c-0.94-0.32-1.75-0.66-2.43-1.04c-0.68-0.37-1.24-0.79-1.68-1.26c-0.44-0.47-0.76-1.01-0.98-1.61c-0.21-0.6-0.31-1.29-0.31-2.07
				c0-1.18,0.21-2.22,0.65-3.12s1.02-1.65,1.76-2.25c0.74-0.6,1.58-1.05,2.53-1.37c0.95-0.31,1.95-0.46,3.02-0.46
				c0.78,0,1.54,0.07,2.28,0.22s1.46,0.34,2.15,0.57s1.33,0.48,1.94,0.75s1.14,0.53,1.62,0.77L183.18,64.38z"/>
		</g>
	</g>
</g>
<g id="Capa_1">
</g>
<g id="Capa_3">
</g>
<g id="Capa_4">
</g>
<g id="Capa_6">
</g>
<g id="Capa_5">
</g>
</svg>
