<?xml version="1.0" encoding="utf-8"?>
<!-- Generator: Adobe Illustrator 24.0.3, SVG Export Plug-In . SVG Version: 6.00 Build 0)  -->
<svg version="1.1" xmlns="http://www.w3.org/2000/svg" xmlns:xlink="http://www.w3.org/1999/xlink" x="0px" y="0px"
	 viewBox="0 0 50.53 26.1" style="enable-background:new 0 0 50.53 26.1;" xml:space="preserve">
<style type="text/css">
	.st0{fill:none;stroke:#E7004C;stroke-miterlimit:10;}
	.st1{fill:#FFFFFF;}
	.st2{fill:url(#SVGID_1_);}
	.st3{fill:#E7004C;}
	.st4{fill:#42050E;}
	.st5{fill:none;stroke:#FFFFFF;stroke-width:0.75;stroke-miterlimit:10;}
	.st6{fill-rule:evenodd;clip-rule:evenodd;fill:#FFFFFF;}
	.st7{fill:none;stroke:#00B2E3;stroke-miterlimit:10;}
	.st8{fill:url(#SVGID_2_);}
	.st9{fill:#FCFCFC;}
	.st10{fill:url(#SVGID_3_);}
	.st11{fill:url(#SVGID_4_);}
	.st12{opacity:0.8;fill:#E7004C;}
	.st13{opacity:0.7;fill:#E7004C;}
	.st14{opacity:0.7;}
	.st15{fill:#00B2E3;}
	.st16{opacity:0.8;fill:#00B2E3;}
	.st17{opacity:0.7;fill:#00B2E3;}
	.st18{fill:#BBBBBB;}
	.st19{opacity:0.8;fill:#BBBBBB;}
	.st20{opacity:0.7;fill:#BBBBBB;}
	.st21{fill:url(#SVGID_5_);}
	.st22{fill:url(#SVGID_6_);}
	.st23{fill:none;stroke:#E7004C;stroke-width:2;stroke-miterlimit:10;}
	.st24{fill:url(#SVGID_7_);}
	.st25{fill:url(#SVGID_8_);}
	.st26{fill:url(#SVGID_9_);}
	.st27{fill:none;stroke:#FFFFFF;stroke-miterlimit:10;}
	.st28{fill-rule:evenodd;clip-rule:evenodd;fill:#E7004C;}
	.st29{fill:none;stroke:#000000;stroke-miterlimit:10;}
	.st30{fill:#38A8E0;}
	.st31{clip-path:url(#SVGID_11_);fill:#00B2E3;}
	.st32{fill:none;stroke:#E7004C;stroke-width:3;stroke-miterlimit:10;}
	.st33{clip-path:url(#SVGID_13_);}
	.st34{fill:none;stroke:#FFFFFF;stroke-width:2;stroke-miterlimit:10;}
	.st35{fill:none;stroke:#FFFFFF;stroke-width:3;stroke-miterlimit:10;}
	.st36{clip-path:url(#SVGID_15_);}
	.st37{fill:url(#SVGID_16_);}
	.st38{fill:none;stroke:#FFFFFF;stroke-width:0.5;stroke-miterlimit:10;}
	.st39{clip-path:url(#SVGID_18_);fill:#00B2E3;}
	.st40{clip-path:url(#SVGID_20_);}
	.st41{clip-path:url(#SVGID_22_);}
	.st42{fill:url(#SVGID_23_);}
	.st43{clip-path:url(#SVGID_25_);}
	.st44{fill:url(#SVGID_26_);}
	.st45{fill:url(#SVGID_27_);}
	.st46{fill:url(#SVGID_28_);}
	.st47{fill:url(#SVGID_29_);}
	.st48{clip-path:url(#SVGID_31_);fill:#00B2E3;}
	.st49{clip-path:url(#SVGID_33_);}
	.st50{clip-path:url(#SVGID_35_);}
	.st51{fill:url(#SVGID_36_);}
	.st52{clip-path:url(#SVGID_38_);}
	.st53{clip-path:url(#SVGID_40_);}
	.st54{fill:#280210;}
	.st55{opacity:0.5;}
	.st56{opacity:0.6;}
	.st57{fill:url(#SVGID_41_);}
	.st58{fill:url(#SVGID_42_);}
	.st59{fill:url(#SVGID_43_);}
	.st60{fill:url(#SVGID_44_);}
	.st61{opacity:0.8;}
	.st62{opacity:0.9;}
	.st63{fill:url(#SVGID_45_);}
	.st64{clip-path:url(#SVGID_47_);}
	.st65{clip-path:url(#SVGID_49_);}
	.st66{clip-path:url(#SVGID_51_);fill:#00B2E3;}
	.st67{clip-path:url(#SVGID_53_);}
	.st68{clip-path:url(#SVGID_55_);}
	.st69{fill:none;stroke:#FFFFFF;stroke-width:5;stroke-miterlimit:10;}
	.st70{clip-path:url(#SVGID_57_);fill:#00B2E3;}
	.st71{clip-path:url(#SVGID_59_);}
	.st72{clip-path:url(#SVGID_61_);}
	.st73{clip-path:url(#SVGID_63_);fill:#00B2E3;}
	.st74{clip-path:url(#SVGID_65_);}
	.st75{fill:#5B0323;}
	.st76{fill:url(#SVGID_66_);}
	.st77{fill:url(#SVGID_67_);}
	.st78{fill:url(#SVGID_68_);}
	.st79{clip-path:url(#SVGID_70_);fill:#00B2E3;}
	.st80{clip-path:url(#SVGID_72_);}
	.st81{fill-rule:evenodd;clip-rule:evenodd;fill:#00B2E3;}
	.st82{clip-path:url(#SVGID_74_);}
	.st83{clip-path:url(#SVGID_76_);}
	.st84{opacity:0.3;fill:#6B0303;}
	.st85{opacity:0.3;}
	.st86{fill-rule:evenodd;clip-rule:evenodd;fill:#6B0303;}
	.st87{fill:#6B0303;}
	.st88{clip-path:url(#SVGID_78_);}
	.st89{clip-path:url(#SVGID_82_);}
	.st90{fill:none;stroke:#5B0323;stroke-miterlimit:10;}
	.st91{clip-path:url(#SVGID_85_);}
	.st92{clip-path:url(#SVGID_87_);fill:#00B2E3;}
	.st93{clip-path:url(#SVGID_89_);}
	.st94{clip-path:url(#SVGID_91_);}
	.st95{fill:#E5E5E5;}
	.st96{clip-path:url(#SVGID_93_);}
	.st97{fill:#020202;}
	.st98{fill:#070101;}
	.st99{fill:none;stroke:#068FFF;stroke-width:5;stroke-miterlimit:10;}
</style>
<g id="Capa_2">
</g>
<g id="Capa_1">
</g>
<g id="Capa_3">
	<g>
		<path class="st1" d="M50.53,26.1H0V0h50.53V26.1z M1,25.1h48.53V1H1V25.1z"/>
	</g>
	<g>
		<g>
			<path class="st3" d="M17.97,16.57v3.17H8.53V6.5h9.27v3.17h-5.64v1.87h4.81v2.95h-4.81v2.09H17.97z"/>
			<path class="st3" d="M28.63,10.83c-0.37-0.22-0.76-0.42-1.16-0.6c-0.34-0.15-0.71-0.29-1.13-0.42c-0.42-0.13-0.82-0.2-1.22-0.2
				c-0.32,0-0.58,0.05-0.77,0.15c-0.19,0.1-0.29,0.27-0.29,0.5c0,0.17,0.06,0.32,0.17,0.43s0.27,0.21,0.49,0.31
				c0.21,0.09,0.47,0.18,0.77,0.27c0.3,0.09,0.65,0.19,1.04,0.32c0.61,0.19,1.16,0.39,1.65,0.62c0.49,0.22,0.91,0.49,1.26,0.79
				c0.35,0.3,0.62,0.67,0.8,1.11s0.28,0.96,0.28,1.59c0,0.8-0.15,1.46-0.44,2.01c-0.29,0.54-0.68,0.97-1.16,1.3
				c-0.48,0.32-1.02,0.56-1.62,0.7c-0.6,0.14-1.21,0.21-1.82,0.21c-0.49,0-0.98-0.04-1.49-0.11c-0.51-0.07-1.02-0.18-1.52-0.32
				c-0.5-0.14-0.99-0.3-1.46-0.48c-0.47-0.19-0.9-0.4-1.3-0.63l1.57-3.19c0.43,0.27,0.89,0.52,1.36,0.73
				c0.4,0.19,0.85,0.36,1.35,0.5c0.5,0.15,1.02,0.22,1.54,0.22c0.4,0,0.67-0.05,0.83-0.16c0.16-0.11,0.23-0.25,0.23-0.42
				c0-0.19-0.08-0.34-0.23-0.48c-0.16-0.13-0.37-0.25-0.64-0.34c-0.27-0.1-0.59-0.2-0.94-0.3s-0.73-0.22-1.13-0.35
				c-0.58-0.2-1.09-0.41-1.51-0.64c-0.42-0.23-0.77-0.49-1.04-0.78c-0.27-0.29-0.48-0.62-0.61-1c-0.13-0.37-0.2-0.8-0.2-1.29
				c0-0.73,0.13-1.38,0.4-1.94c0.27-0.56,0.63-1.03,1.09-1.4c0.46-0.37,0.99-0.66,1.58-0.85c0.59-0.19,1.22-0.29,1.88-0.29
				c0.49,0,0.96,0.05,1.42,0.14s0.91,0.21,1.33,0.35c0.43,0.14,0.83,0.3,1.2,0.47s0.71,0.33,1.01,0.48L28.63,10.83z"/>
			<path class="st3" d="M33.05,19.75V6.5h5.71c0.65,0,1.24,0.13,1.79,0.4c0.55,0.27,1.02,0.62,1.41,1.04
				c0.39,0.43,0.7,0.92,0.92,1.47c0.22,0.55,0.34,1.11,0.34,1.67c0,0.58-0.11,1.15-0.32,1.71c-0.21,0.55-0.51,1.04-0.89,1.47
				c-0.38,0.43-0.84,0.77-1.38,1.03c-0.54,0.26-1.14,0.38-1.78,0.38h-2.17v4.07H33.05z M36.69,12.51h1.92c0.22,0,0.43-0.1,0.62-0.31
				c0.19-0.21,0.29-0.58,0.29-1.11c0-0.55-0.11-0.92-0.34-1.12c-0.22-0.2-0.45-0.3-0.67-0.3h-1.83V12.51z"/>
		</g>
		<g>
			<path class="st1" d="M50.53,26.1H0V0h50.53V26.1z M1,25.1h48.53V1H1V25.1z"/>
		</g>
	</g>
</g>
<g id="Capa_4">
</g>
<g id="Capa_6">
</g>
<g id="Capa_5">
</g>
</svg>
