<?xml version="1.0" encoding="utf-8"?>
<!-- Generator: Adobe Illustrator 24.0.3, SVG Export Plug-In . SVG Version: 6.00 Build 0)  -->
<svg version="1.1" xmlns="http://www.w3.org/2000/svg" xmlns:xlink="http://www.w3.org/1999/xlink" x="0px" y="0px"
	 viewBox="0 0 50.53 26.1" style="enable-background:new 0 0 50.53 26.1;" xml:space="preserve">
<style type="text/css">
	.st0{fill:none;stroke:#E7004C;stroke-miterlimit:10;}
	.st1{fill:#FFFFFF;}
	.st2{fill:url(#SVGID_1_);}
	.st3{fill:#E7004C;}
	.st4{fill:#42050E;}
	.st5{fill:none;stroke:#FFFFFF;stroke-width:0.75;stroke-miterlimit:10;}
	.st6{fill-rule:evenodd;clip-rule:evenodd;fill:#FFFFFF;}
	.st7{fill:none;stroke:#00B2E3;stroke-miterlimit:10;}
	.st8{fill:url(#SVGID_2_);}
	.st9{fill:#FCFCFC;}
	.st10{fill:url(#SVGID_3_);}
	.st11{fill:url(#SVGID_4_);}
	.st12{opacity:0.8;fill:#E7004C;}
	.st13{opacity:0.7;fill:#E7004C;}
	.st14{opacity:0.7;}
	.st15{fill:#00B2E3;}
	.st16{opacity:0.8;fill:#00B2E3;}
	.st17{opacity:0.7;fill:#00B2E3;}
	.st18{fill:#BBBBBB;}
	.st19{opacity:0.8;fill:#BBBBBB;}
	.st20{opacity:0.7;fill:#BBBBBB;}
	.st21{fill:url(#SVGID_5_);}
	.st22{fill:url(#SVGID_6_);}
	.st23{fill:none;stroke:#E7004C;stroke-width:2;stroke-miterlimit:10;}
	.st24{fill:url(#SVGID_7_);}
	.st25{fill:url(#SVGID_8_);}
	.st26{fill:url(#SVGID_9_);}
	.st27{fill:none;stroke:#FFFFFF;stroke-miterlimit:10;}
	.st28{fill-rule:evenodd;clip-rule:evenodd;fill:#E7004C;}
	.st29{fill:none;stroke:#000000;stroke-miterlimit:10;}
	.st30{fill:#38A8E0;}
	.st31{clip-path:url(#SVGID_11_);fill:#00B2E3;}
	.st32{fill:none;stroke:#E7004C;stroke-width:3;stroke-miterlimit:10;}
	.st33{clip-path:url(#SVGID_13_);}
	.st34{fill:none;stroke:#FFFFFF;stroke-width:2;stroke-miterlimit:10;}
	.st35{fill:none;stroke:#FFFFFF;stroke-width:3;stroke-miterlimit:10;}
	.st36{clip-path:url(#SVGID_15_);}
	.st37{fill:url(#SVGID_16_);}
	.st38{fill:none;stroke:#FFFFFF;stroke-width:0.5;stroke-miterlimit:10;}
	.st39{clip-path:url(#SVGID_18_);fill:#00B2E3;}
	.st40{clip-path:url(#SVGID_20_);}
	.st41{clip-path:url(#SVGID_22_);}
	.st42{fill:url(#SVGID_23_);}
	.st43{clip-path:url(#SVGID_25_);}
	.st44{fill:url(#SVGID_26_);}
	.st45{fill:url(#SVGID_27_);}
	.st46{fill:url(#SVGID_28_);}
	.st47{fill:url(#SVGID_29_);}
	.st48{clip-path:url(#SVGID_31_);fill:#00B2E3;}
	.st49{clip-path:url(#SVGID_33_);}
	.st50{clip-path:url(#SVGID_35_);}
	.st51{fill:url(#SVGID_36_);}
	.st52{clip-path:url(#SVGID_38_);}
	.st53{clip-path:url(#SVGID_40_);}
	.st54{fill:#280210;}
	.st55{opacity:0.5;}
	.st56{opacity:0.6;}
	.st57{fill:url(#SVGID_41_);}
	.st58{fill:url(#SVGID_42_);}
	.st59{fill:url(#SVGID_43_);}
	.st60{fill:url(#SVGID_44_);}
	.st61{opacity:0.8;}
	.st62{opacity:0.9;}
	.st63{fill:url(#SVGID_45_);}
	.st64{clip-path:url(#SVGID_47_);}
	.st65{clip-path:url(#SVGID_49_);}
	.st66{clip-path:url(#SVGID_51_);}
	.st67{fill:url(#SVGID_52_);}
	.st68{clip-path:url(#SVGID_54_);}
	.st69{fill:url(#SVGID_55_);}
	.st70{clip-path:url(#SVGID_57_);}
	.st71{fill:url(#SVGID_58_);}
	.st72{clip-path:url(#SVGID_60_);fill:#00B2E3;}
	.st73{clip-path:url(#SVGID_62_);}
	.st74{clip-path:url(#SVGID_64_);}
	.st75{fill:none;stroke:#FFFFFF;stroke-width:5;stroke-miterlimit:10;}
	.st76{clip-path:url(#SVGID_66_);fill:#00B2E3;}
	.st77{clip-path:url(#SVGID_68_);}
	.st78{clip-path:url(#SVGID_70_);}
	.st79{clip-path:url(#SVGID_72_);fill:#00B2E3;}
	.st80{clip-path:url(#SVGID_74_);}
	.st81{fill:#5B0323;}
	.st82{fill:url(#SVGID_75_);}
	.st83{fill:url(#SVGID_76_);}
	.st84{fill:url(#SVGID_77_);}
	.st85{clip-path:url(#SVGID_80_);fill:#00B2E3;}
	.st86{clip-path:url(#SVGID_84_);}
	.st87{fill-rule:evenodd;clip-rule:evenodd;fill:#00B2E3;}
	.st88{clip-path:url(#SVGID_86_);}
	.st89{clip-path:url(#SVGID_88_);}
	.st90{opacity:0.3;fill:#6B0303;}
	.st91{opacity:0.3;}
	.st92{fill-rule:evenodd;clip-rule:evenodd;fill:#6B0303;}
	.st93{fill:#6B0303;}
	.st94{clip-path:url(#SVGID_90_);}
	.st95{clip-path:url(#SVGID_92_);}
	.st96{fill:#E5E5E5;}
	.st97{clip-path:url(#SVGID_94_);}
	.st98{fill:#020202;}
	.st99{fill:none;stroke:#5B0323;stroke-miterlimit:10;}
	.st100{fill:#070101;}
	.st101{fill:none;stroke:#068FFF;stroke-width:5;stroke-miterlimit:10;}
</style>
<g id="Capa_2">
</g>
<g id="Capa_1">
</g>
<g id="Capa_3">
	<g>
		<path class="st3" d="M14.97,16.57v3.17H5.53V6.5h9.27v3.17H9.17v1.87h4.81v2.95H9.17v2.09H14.97z"/>
		<path class="st3" d="M21.24,13.23v6.51H17.6V6.5h2.84l5.32,6.74V6.5h3.64v13.25H26.5L21.24,13.23z"/>
		<path class="st3" d="M41.6,18.65c-0.95,0.8-2.03,1.2-3.27,1.2c-0.86,0-1.68-0.15-2.46-0.46c-0.78-0.3-1.47-0.75-2.05-1.33
			c-0.58-0.58-1.05-1.3-1.4-2.15c-0.35-0.85-0.52-1.81-0.52-2.89c0-0.93,0.17-1.8,0.52-2.6c0.35-0.8,0.83-1.5,1.44-2.09
			c0.61-0.59,1.33-1.06,2.16-1.4s1.72-0.51,2.68-0.51c0.6,0,1.17,0.07,1.72,0.2c0.55,0.13,1.05,0.32,1.52,0.58
			c0.47,0.25,0.89,0.56,1.26,0.91c0.37,0.35,0.68,0.76,0.91,1.2l-2.71,2.07c-0.26-0.52-0.65-0.94-1.18-1.26
			c-0.52-0.32-1.08-0.48-1.66-0.48c-0.44,0-0.83,0.09-1.19,0.26c-0.36,0.17-0.67,0.42-0.93,0.73c-0.26,0.31-0.47,0.68-0.62,1.11
			c-0.15,0.43-0.22,0.9-0.22,1.41c0,0.52,0.08,1,0.22,1.42c0.15,0.42,0.36,0.79,0.63,1.09c0.27,0.31,0.59,0.54,0.96,0.71
			s0.79,0.25,1.25,0.25c1.06,0,1.99-0.44,2.8-1.31h-2.3v-2.61h5.45v7.05h-3V18.65z"/>
	</g>
	<g>
		<path class="st1" d="M50.53,26.1H0V0h50.53V26.1z M1,25.1h48.53V1H1V25.1z"/>
	</g>
</g>
<g id="Capa_4">
</g>
<g id="Capa_6">
</g>
<g id="Capa_5">
</g>
</svg>
