<?xml version="1.0" encoding="utf-8"?>
<!-- Generator: Adobe Illustrator 24.0.3, SVG Export Plug-In . SVG Version: 6.00 Build 0)  -->
<svg version="1.1" xmlns="http://www.w3.org/2000/svg" xmlns:xlink="http://www.w3.org/1999/xlink" x="0px" y="0px"
	 viewBox="0 0 22.55 23.25" style="enable-background:new 0 0 22.55 23.25;" xml:space="preserve">
<style type="text/css">
	.st0{fill:#FFFFFF;}
	.st1{fill:url(#SVGID_1_);}
	.st2{fill:#E7004C;}
	.st3{fill:none;stroke:#00B2E3;stroke-miterlimit:10;}
	.st4{fill:url(#SVGID_2_);}
	.st5{fill:#FCFCFC;}
	.st6{fill:url(#SVGID_3_);}
	.st7{fill:url(#SVGID_4_);}
	.st8{opacity:0.8;fill:#E7004C;}
	.st9{opacity:0.7;fill:#E7004C;}
	.st10{opacity:0.7;}
	.st11{fill:#00B2E3;}
	.st12{opacity:0.8;fill:#00B2E3;}
	.st13{opacity:0.7;fill:#00B2E3;}
	.st14{fill:#BBBBBB;}
	.st15{opacity:0.8;fill:#BBBBBB;}
	.st16{opacity:0.7;fill:#BBBBBB;}
	.st17{fill:url(#SVGID_5_);}
	.st18{fill:url(#SVGID_6_);}
	.st19{fill:none;stroke:#E7004C;stroke-width:2;stroke-miterlimit:10;}
	.st20{fill:url(#SVGID_7_);}
	.st21{fill:url(#SVGID_8_);}
	.st22{fill:url(#SVGID_9_);}
	.st23{fill:none;stroke:#FFFFFF;stroke-miterlimit:10;}
	.st24{fill:none;stroke:#E7004C;stroke-miterlimit:10;}
	.st25{fill-rule:evenodd;clip-rule:evenodd;fill:#E7004C;}
	.st26{fill:none;stroke:#000000;stroke-miterlimit:10;}
	.st27{fill:#38A8E0;}
	.st28{clip-path:url(#SVGID_11_);fill:#00B2E3;}
	.st29{fill:none;stroke:#E7004C;stroke-width:3;stroke-miterlimit:10;}
	.st30{clip-path:url(#SVGID_13_);}
	.st31{fill:none;stroke:#FFFFFF;stroke-width:2;stroke-miterlimit:10;}
	.st32{fill:none;stroke:#FFFFFF;stroke-width:3;stroke-miterlimit:10;}
	.st33{clip-path:url(#SVGID_15_);}
	.st34{fill:url(#SVGID_16_);}
	.st35{fill:none;stroke:#FFFFFF;stroke-width:0.5;stroke-miterlimit:10;}
	.st36{clip-path:url(#SVGID_18_);fill:#00B2E3;}
	.st37{clip-path:url(#SVGID_20_);}
	.st38{clip-path:url(#SVGID_22_);}
	.st39{fill:url(#SVGID_23_);}
	.st40{clip-path:url(#SVGID_25_);}
	.st41{fill:url(#SVGID_26_);}
	.st42{fill:url(#SVGID_27_);}
	.st43{fill:url(#SVGID_28_);}
	.st44{fill:url(#SVGID_29_);}
	.st45{clip-path:url(#SVGID_31_);fill:#00B2E3;}
	.st46{clip-path:url(#SVGID_33_);}
	.st47{clip-path:url(#SVGID_35_);}
	.st48{fill:url(#SVGID_36_);}
	.st49{clip-path:url(#SVGID_38_);}
	.st50{clip-path:url(#SVGID_40_);}
	.st51{fill:#280210;}
	.st52{opacity:0.5;}
	.st53{opacity:0.6;}
	.st54{fill:url(#SVGID_41_);}
	.st55{fill:url(#SVGID_42_);}
	.st56{fill:url(#SVGID_43_);}
	.st57{fill:url(#SVGID_44_);}
	.st58{opacity:0.8;}
	.st59{opacity:0.9;}
	.st60{fill:url(#SVGID_45_);}
	.st61{clip-path:url(#SVGID_47_);}
	.st62{clip-path:url(#SVGID_49_);}
	.st63{fill:url(#SVGID_50_);}
	.st64{clip-path:url(#SVGID_52_);}
	.st65{fill:url(#SVGID_53_);}
	.st66{clip-path:url(#SVGID_55_);}
	.st67{fill:url(#SVGID_56_);}
	.st68{clip-path:url(#SVGID_58_);}
	.st69{clip-path:url(#SVGID_60_);fill:#00B2E3;}
	.st70{clip-path:url(#SVGID_62_);}
	.st71{clip-path:url(#SVGID_64_);}
	.st72{fill:none;stroke:#FFFFFF;stroke-width:5;stroke-miterlimit:10;}
	.st73{clip-path:url(#SVGID_66_);fill:#00B2E3;}
	.st74{clip-path:url(#SVGID_68_);}
	.st75{clip-path:url(#SVGID_70_);}
	.st76{clip-path:url(#SVGID_72_);fill:#00B2E3;}
	.st77{clip-path:url(#SVGID_74_);}
	.st78{fill:#5B0323;}
	.st79{fill:url(#SVGID_75_);}
	.st80{fill:url(#SVGID_76_);}
	.st81{fill:url(#SVGID_77_);}
	.st82{clip-path:url(#SVGID_80_);fill:#00B2E3;}
	.st83{clip-path:url(#SVGID_84_);}
	.st84{clip-path:url(#SVGID_86_);}
	.st85{fill-rule:evenodd;clip-rule:evenodd;fill:#FFFFFF;}
	.st86{fill:#E5E5E5;}
	.st87{clip-path:url(#SVGID_88_);}
	.st88{fill-rule:evenodd;clip-rule:evenodd;fill:none;stroke:#E7004C;stroke-width:3;stroke-miterlimit:10;}
	.st89{fill:none;stroke:#5B0323;stroke-miterlimit:10;}
	.st90{fill:#070101;}
	.st91{fill:none;stroke:#068FFF;stroke-width:5;stroke-miterlimit:10;}
</style>
<g id="Capa_2">
</g>
<g id="Capa_1">
</g>
<g id="Capa_3">
</g>
<g id="Capa_4">
	<g>
		<g>
			<path class="st0" d="M16.41,23.34H6.14C2.76,23.34,0,20.58,0,17.2V6.23c0-3.39,2.76-6.14,6.14-6.14h10.27
				c3.39,0,6.14,2.76,6.14,6.14V17.2C22.55,20.58,19.8,23.34,16.41,23.34z M6.14,1.92c-2.38,0-4.31,1.93-4.31,4.31V17.2
				c0,2.38,1.93,4.31,4.31,4.31h10.27c2.38,0,4.31-1.93,4.31-4.31V6.23c0-2.38-1.93-4.31-4.31-4.31H6.14z"/>
		</g>
		<path class="st0" d="M10.51,23.34c0-0.05,0.01-0.1,0.01-0.14c0-2.92,0-5.83,0-8.75c0-0.03,0-0.07,0-0.11c-0.05,0-0.09,0-0.12,0
			c-0.93,0-1.86,0-2.79,0c-0.13,0-0.13,0-0.13-0.12c0-1.09,0-2.18,0-3.27c0-0.1,0.03-0.12,0.13-0.12c0.93,0,1.86,0,2.79,0
			c0.04,0,0.08,0,0.13,0c0-0.04,0-0.07,0-0.11c0-0.91-0.01-1.81,0.01-2.72c0.01-0.73,0.15-1.44,0.47-2.1
			c0.43-0.9,1.11-1.54,2.03-1.92c0.62-0.26,1.26-0.38,1.93-0.37c0.76,0.01,1.52,0.05,2.28,0.07c0.14,0.01,0.28,0.03,0.42,0.04
			c0.08,0,0.11,0.03,0.1,0.11c0,0.45,0,0.9,0,1.36c0,0.53,0,1.07,0,1.6c0,0.09-0.03,0.12-0.12,0.12c-0.58,0-1.16-0.01-1.73,0
			c-0.26,0.01-0.53,0.03-0.79,0.09c-0.49,0.11-0.79,0.44-0.89,0.93c-0.04,0.2-0.06,0.4-0.06,0.6c-0.01,0.74,0,1.48,0,2.22
			c0,0.02,0,0.04,0,0.08c0.04,0,0.09,0,0.13,0c1.07,0,2.13,0,3.2,0c0.14,0,0.14,0,0.12,0.13c-0.08,0.58-0.15,1.16-0.23,1.74
			c-0.06,0.49-0.12,0.97-0.18,1.46c-0.02,0.19-0.02,0.19-0.2,0.19c-0.9,0-1.81,0-2.71,0c-0.04,0-0.08,0-0.13,0c0,0.05,0,0.1,0,0.14
			c0,2.88,0,5.77,0,8.65c0,0.07,0,0.14,0,0.21C12.95,23.34,11.73,23.34,10.51,23.34z"/>
	</g>
</g>
<g id="Capa_6">
</g>
<g id="Capa_5">
</g>
</svg>
