<?xml version="1.0" encoding="utf-8"?>
<!-- Generator: Adobe Illustrator 24.0.3, SVG Export Plug-In . SVG Version: 6.00 Build 0)  -->
<svg version="1.1" xmlns="http://www.w3.org/2000/svg" xmlns:xlink="http://www.w3.org/1999/xlink" x="0px" y="0px"
	 viewBox="0 0 231.84 85.38" style="enable-background:new 0 0 231.84 85.38;" xml:space="preserve">
<style type="text/css">
	.st0{fill:none;stroke:#E7004C;stroke-miterlimit:10;}
	.st1{fill:#FFFFFF;}
	.st2{fill:url(#SVGID_1_);}
	.st3{fill:#E7004C;}
	.st4{fill:#42050E;}
	.st5{fill-rule:evenodd;clip-rule:evenodd;fill:#FFFFFF;}
	.st6{fill:none;stroke:#00B2E3;stroke-miterlimit:10;}
	.st7{fill:url(#SVGID_2_);}
	.st8{fill:#FCFCFC;}
	.st9{fill:url(#SVGID_3_);}
	.st10{fill:url(#SVGID_4_);}
	.st11{opacity:0.8;fill:#E7004C;}
	.st12{opacity:0.7;fill:#E7004C;}
	.st13{opacity:0.7;}
	.st14{fill:#00B2E3;}
	.st15{opacity:0.8;fill:#00B2E3;}
	.st16{opacity:0.7;fill:#00B2E3;}
	.st17{fill:#BBBBBB;}
	.st18{opacity:0.8;fill:#BBBBBB;}
	.st19{opacity:0.7;fill:#BBBBBB;}
	.st20{fill:url(#SVGID_5_);}
	.st21{fill:url(#SVGID_6_);}
	.st22{fill:none;stroke:#E7004C;stroke-width:2;stroke-miterlimit:10;}
	.st23{fill:url(#SVGID_7_);}
	.st24{fill:url(#SVGID_8_);}
	.st25{fill:url(#SVGID_9_);}
	.st26{fill:none;stroke:#FFFFFF;stroke-miterlimit:10;}
	.st27{fill-rule:evenodd;clip-rule:evenodd;fill:#E7004C;}
	.st28{fill:none;stroke:#000000;stroke-miterlimit:10;}
	.st29{fill:#38A8E0;}
	.st30{clip-path:url(#SVGID_11_);fill:#00B2E3;}
	.st31{fill:none;stroke:#E7004C;stroke-width:3;stroke-miterlimit:10;}
	.st32{clip-path:url(#SVGID_13_);}
	.st33{fill:none;stroke:#FFFFFF;stroke-width:2;stroke-miterlimit:10;}
	.st34{fill:none;stroke:#FFFFFF;stroke-width:3;stroke-miterlimit:10;}
	.st35{clip-path:url(#SVGID_15_);}
	.st36{fill:url(#SVGID_16_);}
	.st37{fill:none;stroke:#FFFFFF;stroke-width:0.5;stroke-miterlimit:10;}
	.st38{clip-path:url(#SVGID_18_);fill:#00B2E3;}
	.st39{clip-path:url(#SVGID_20_);}
	.st40{clip-path:url(#SVGID_22_);}
	.st41{fill:url(#SVGID_23_);}
	.st42{clip-path:url(#SVGID_25_);}
	.st43{fill:url(#SVGID_26_);}
	.st44{fill:url(#SVGID_27_);}
	.st45{fill:url(#SVGID_28_);}
	.st46{fill:url(#SVGID_29_);}
	.st47{clip-path:url(#SVGID_31_);fill:#00B2E3;}
	.st48{clip-path:url(#SVGID_33_);}
	.st49{clip-path:url(#SVGID_35_);}
	.st50{fill:url(#SVGID_36_);}
	.st51{clip-path:url(#SVGID_38_);}
	.st52{clip-path:url(#SVGID_40_);}
	.st53{fill:#280210;}
	.st54{opacity:0.5;}
	.st55{opacity:0.6;}
	.st56{fill:url(#SVGID_41_);}
	.st57{fill:url(#SVGID_42_);}
	.st58{fill:url(#SVGID_43_);}
	.st59{fill:url(#SVGID_44_);}
	.st60{opacity:0.8;}
	.st61{opacity:0.9;}
	.st62{fill:url(#SVGID_45_);}
	.st63{clip-path:url(#SVGID_47_);}
	.st64{clip-path:url(#SVGID_49_);}
	.st65{clip-path:url(#SVGID_51_);fill:#00B2E3;}
	.st66{clip-path:url(#SVGID_53_);}
	.st67{clip-path:url(#SVGID_55_);}
	.st68{fill:none;stroke:#FFFFFF;stroke-width:5;stroke-miterlimit:10;}
	.st69{clip-path:url(#SVGID_57_);fill:#00B2E3;}
	.st70{clip-path:url(#SVGID_59_);}
	.st71{clip-path:url(#SVGID_61_);}
	.st72{clip-path:url(#SVGID_63_);fill:#00B2E3;}
	.st73{clip-path:url(#SVGID_65_);}
	.st74{fill:#5B0323;}
	.st75{fill:url(#SVGID_66_);}
	.st76{fill:url(#SVGID_67_);}
	.st77{fill:url(#SVGID_68_);}
	.st78{clip-path:url(#SVGID_70_);fill:#00B2E3;}
	.st79{clip-path:url(#SVGID_72_);}
	.st80{fill-rule:evenodd;clip-rule:evenodd;fill:#00B2E3;}
	.st81{clip-path:url(#SVGID_74_);}
	.st82{clip-path:url(#SVGID_76_);}
	.st83{opacity:0.3;fill:#6B0303;}
	.st84{opacity:0.3;}
	.st85{fill-rule:evenodd;clip-rule:evenodd;fill:#6B0303;}
	.st86{fill:#6B0303;}
	.st87{clip-path:url(#SVGID_78_);}
	.st88{clip-path:url(#SVGID_82_);}
	.st89{fill:none;stroke:#5B0323;stroke-miterlimit:10;}
	.st90{clip-path:url(#SVGID_85_);}
	.st91{clip-path:url(#SVGID_87_);fill:#00B2E3;}
	.st92{clip-path:url(#SVGID_89_);}
	.st93{clip-path:url(#SVGID_91_);}
	.st94{fill:#E5E5E5;}
	.st95{clip-path:url(#SVGID_93_);}
	.st96{fill:#020202;}
	.st97{fill:#070101;}
	.st98{fill:none;stroke:#068FFF;stroke-width:5;stroke-miterlimit:10;}
</style>
<g id="Capa_2">
	<g>
		<g>
			<g>
				<path class="st4" d="M0.36,28.69c0-1.73,0.33-3.44,0.98-5.12c0.65-1.68,1.61-3.19,2.86-4.52c1.25-1.33,2.77-2.41,4.56-3.24
					c1.79-0.83,3.83-1.24,6.12-1.24c2.75,0,5.13,0.57,7.14,1.7c2.01,1.13,3.51,2.63,4.5,4.5l-5.96,4.24
					c-0.27-0.69-0.62-1.27-1.06-1.72s-0.93-0.81-1.46-1.08c-0.53-0.27-1.09-0.45-1.66-0.56c-0.57-0.11-1.13-0.16-1.66-0.16
					c-1.12,0-2.09,0.22-2.9,0.66s-1.48,1.01-2,1.72s-0.91,1.51-1.16,2.4c-0.25,0.89-0.38,1.78-0.38,2.66c0,0.99,0.15,1.93,0.44,2.84
					c0.29,0.91,0.72,1.71,1.28,2.4s1.25,1.25,2.06,1.66c0.81,0.41,1.73,0.62,2.74,0.62c0.53,0,1.08-0.06,1.64-0.18
					c0.56-0.12,1.1-0.32,1.62-0.6c0.52-0.28,0.99-0.64,1.4-1.08c0.41-0.44,0.74-0.98,0.98-1.62l6.36,3.8
					c-0.43,1.04-1.07,1.97-1.94,2.8c-0.87,0.83-1.85,1.52-2.96,2.08c-1.11,0.56-2.29,0.99-3.56,1.28s-2.5,0.44-3.7,0.44
					c-2.11,0-4.03-0.42-5.78-1.26c-1.75-0.84-3.25-1.95-4.52-3.34c-1.27-1.38-2.25-2.96-2.94-4.72C0.7,32.29,0.36,30.5,0.36,28.69z"
					/>
			</g>
			<g>
				<path class="st4" d="M43.92,43.37c-2.16,0-4.12-0.41-5.88-1.24c-1.76-0.83-3.27-1.91-4.52-3.26c-1.25-1.35-2.23-2.89-2.92-4.62
					c-0.69-1.73-1.04-3.52-1.04-5.36c0-1.87,0.36-3.67,1.08-5.4c0.72-1.73,1.73-3.26,3.02-4.58c1.29-1.32,2.83-2.37,4.6-3.16
					c1.77-0.79,3.71-1.18,5.82-1.18c2.16,0,4.12,0.41,5.88,1.24c1.76,0.83,3.27,1.92,4.52,3.28c1.25,1.36,2.22,2.91,2.9,4.64
					c0.68,1.73,1.02,3.51,1.02,5.32c0,1.87-0.36,3.66-1.08,5.38c-0.72,1.72-1.72,3.24-3,4.56c-1.28,1.32-2.81,2.38-4.58,3.18
					C47.96,42.97,46.02,43.37,43.92,43.37z M37.48,28.97c0,0.96,0.13,1.89,0.4,2.78c0.27,0.89,0.67,1.69,1.2,2.38
					c0.53,0.69,1.21,1.25,2.02,1.68c0.81,0.43,1.78,0.64,2.9,0.64c1.12,0,2.09-0.22,2.92-0.66c0.83-0.44,1.5-1.01,2.02-1.72
					c0.52-0.71,0.91-1.51,1.16-2.42c0.25-0.91,0.38-1.83,0.38-2.76c0-0.96-0.13-1.89-0.4-2.78c-0.27-0.89-0.67-1.68-1.22-2.36
					c-0.55-0.68-1.23-1.23-2.04-1.64c-0.81-0.41-1.77-0.62-2.86-0.62c-1.12,0-2.09,0.21-2.9,0.64s-1.49,0.99-2.02,1.7
					c-0.53,0.71-0.93,1.51-1.18,2.4C37.6,27.12,37.48,28.04,37.48,28.97z"/>
			</g>
			<g>
				<path class="st4" d="M71.52,29.17v13.96h-7.8v-28.4h6.08l11.4,14.44V14.73H89v28.4h-6.2L71.52,29.17z"/>
			</g>
			<g>
				<path class="st4" d="M118,21.53h-8.16v21.6h-7.8v-21.6h-8.2v-6.8H118V21.53z"/>
			</g>
			<g>
				<path class="st4" d="M127.6,14.73h7.12l9.84,28.4h-7.92l-1.72-5.56h-7.56l-1.68,5.56h-7.96L127.6,14.73z M133.68,32.37
					l-2.52-8.8l-2.64,8.8H133.68z"/>
			</g>
			<g>
				<path class="st4" d="M146.2,28.69c0-1.73,0.33-3.44,0.98-5.12c0.65-1.68,1.61-3.19,2.86-4.52c1.25-1.33,2.77-2.41,4.56-3.24
					c1.79-0.83,3.83-1.24,6.12-1.24c2.75,0,5.13,0.57,7.14,1.7c2.01,1.13,3.51,2.63,4.5,4.5l-5.96,4.24
					c-0.27-0.69-0.62-1.27-1.06-1.72s-0.93-0.81-1.46-1.08c-0.53-0.27-1.09-0.45-1.66-0.56c-0.57-0.11-1.13-0.16-1.66-0.16
					c-1.12,0-2.09,0.22-2.9,0.66s-1.48,1.01-2,1.72s-0.91,1.51-1.16,2.4c-0.25,0.89-0.38,1.78-0.38,2.66c0,0.99,0.15,1.93,0.44,2.84
					c0.29,0.91,0.72,1.71,1.28,2.4s1.25,1.25,2.06,1.66c0.81,0.41,1.73,0.62,2.74,0.62c0.53,0,1.08-0.06,1.64-0.18
					c0.56-0.12,1.1-0.32,1.62-0.6c0.52-0.28,0.99-0.64,1.4-1.08c0.41-0.44,0.74-0.98,0.98-1.62l6.36,3.8
					c-0.43,1.04-1.07,1.97-1.94,2.8c-0.87,0.83-1.85,1.52-2.96,2.08c-1.11,0.56-2.29,0.99-3.56,1.28s-2.5,0.44-3.7,0.44
					c-2.11,0-4.03-0.42-5.78-1.26c-1.75-0.84-3.25-1.95-4.52-3.34c-1.27-1.38-2.25-2.96-2.94-4.72
					C146.54,32.29,146.2,30.5,146.2,28.69z"/>
			</g>
			<g>
				<path class="st4" d="M199.52,21.53h-8.16v21.6h-7.8v-21.6h-8.2v-6.8h24.16V21.53z"/>
			</g>
			<g>
				<path class="st4" d="M216.72,43.37c-2.16,0-4.12-0.41-5.88-1.24c-1.76-0.83-3.27-1.91-4.52-3.26c-1.25-1.35-2.23-2.89-2.92-4.62
					c-0.69-1.73-1.04-3.52-1.04-5.36c0-1.87,0.36-3.67,1.08-5.4c0.72-1.73,1.73-3.26,3.02-4.58c1.29-1.32,2.83-2.37,4.6-3.16
					c1.77-0.79,3.71-1.18,5.82-1.18c2.16,0,4.12,0.41,5.88,1.24c1.76,0.83,3.27,1.92,4.52,3.28c1.25,1.36,2.22,2.91,2.9,4.64
					c0.68,1.73,1.02,3.51,1.02,5.32c0,1.87-0.36,3.66-1.08,5.38c-0.72,1.72-1.72,3.24-3,4.56c-1.28,1.32-2.81,2.38-4.58,3.18
					C220.76,42.97,218.82,43.37,216.72,43.37z M210.28,28.97c0,0.96,0.13,1.89,0.4,2.78c0.27,0.89,0.67,1.69,1.2,2.38
					c0.53,0.69,1.21,1.25,2.02,1.68c0.81,0.43,1.78,0.64,2.9,0.64c1.12,0,2.09-0.22,2.92-0.66c0.83-0.44,1.5-1.01,2.02-1.72
					c0.52-0.71,0.91-1.51,1.16-2.42c0.25-0.91,0.38-1.83,0.38-2.76c0-0.96-0.13-1.89-0.4-2.78c-0.27-0.89-0.67-1.68-1.22-2.36
					c-0.55-0.68-1.23-1.23-2.04-1.64c-0.81-0.41-1.77-0.62-2.86-0.62c-1.12,0-2.09,0.21-2.9,0.64s-1.49,0.99-2.02,1.7
					c-0.53,0.71-0.93,1.51-1.18,2.4C210.4,27.12,210.28,28.04,210.28,28.97z"/>
			</g>
		</g>
		<g>
			<g>
				<path class="st1" d="M0.36,15.36c0-1.73,0.33-3.44,0.98-5.12C1.99,8.56,2.94,7.06,4.2,5.72c1.25-1.33,2.77-2.41,4.56-3.24
					c1.79-0.83,3.83-1.24,6.12-1.24c2.75,0,5.13,0.57,7.14,1.7c2.01,1.13,3.51,2.63,4.5,4.5l-5.96,4.24
					c-0.27-0.69-0.62-1.27-1.06-1.72s-0.93-0.81-1.46-1.08c-0.53-0.27-1.09-0.45-1.66-0.56c-0.57-0.11-1.13-0.16-1.66-0.16
					c-1.12,0-2.09,0.22-2.9,0.66c-0.81,0.44-1.48,1.01-2,1.72c-0.52,0.71-0.91,1.51-1.16,2.4c-0.25,0.89-0.38,1.78-0.38,2.66
					c0,0.99,0.15,1.93,0.44,2.84c0.29,0.91,0.72,1.71,1.28,2.4s1.25,1.25,2.06,1.66c0.81,0.41,1.73,0.62,2.74,0.62
					c0.53,0,1.08-0.06,1.64-0.18s1.1-0.32,1.62-0.6s0.99-0.64,1.4-1.08c0.41-0.44,0.74-0.98,0.98-1.62l6.36,3.8
					c-0.43,1.04-1.07,1.97-1.94,2.8c-0.87,0.83-1.85,1.52-2.96,2.08c-1.11,0.56-2.29,0.99-3.56,1.28s-2.5,0.44-3.7,0.44
					c-2.11,0-4.03-0.42-5.78-1.26c-1.75-0.84-3.25-1.95-4.52-3.34c-1.27-1.39-2.25-2.96-2.94-4.72C0.7,18.96,0.36,17.18,0.36,15.36z
					"/>
			</g>
			<g>
				<path class="st1" d="M43.92,30.04c-2.16,0-4.12-0.41-5.88-1.24c-1.76-0.83-3.27-1.91-4.52-3.26s-2.23-2.89-2.92-4.62
					c-0.69-1.73-1.04-3.52-1.04-5.36c0-1.87,0.36-3.67,1.08-5.4c0.72-1.73,1.73-3.26,3.02-4.58c1.29-1.32,2.83-2.37,4.6-3.16
					c1.77-0.79,3.71-1.18,5.82-1.18c2.16,0,4.12,0.41,5.88,1.24c1.76,0.83,3.27,1.92,4.52,3.28s2.22,2.91,2.9,4.64
					c0.68,1.73,1.02,3.51,1.02,5.32c0,1.87-0.36,3.66-1.08,5.38c-0.72,1.72-1.72,3.24-3,4.56c-1.28,1.32-2.81,2.38-4.58,3.18
					C47.96,29.64,46.02,30.04,43.92,30.04z M37.48,15.64c0,0.96,0.13,1.89,0.4,2.78c0.27,0.89,0.67,1.69,1.2,2.38
					c0.53,0.69,1.21,1.25,2.02,1.68c0.81,0.43,1.78,0.64,2.9,0.64c1.12,0,2.09-0.22,2.92-0.66c0.83-0.44,1.5-1.01,2.02-1.72
					c0.52-0.71,0.91-1.51,1.16-2.42c0.25-0.91,0.38-1.83,0.38-2.76c0-0.96-0.13-1.89-0.4-2.78c-0.27-0.89-0.67-1.68-1.22-2.36
					c-0.55-0.68-1.23-1.23-2.04-1.64C46,8.37,45.05,8.16,43.96,8.16c-1.12,0-2.09,0.21-2.9,0.64c-0.81,0.43-1.49,0.99-2.02,1.7
					c-0.53,0.71-0.93,1.51-1.18,2.4C37.6,13.8,37.48,14.71,37.48,15.64z"/>
			</g>
			<g>
				<path class="st1" d="M71.52,15.84V29.8h-7.8V1.4h6.08l11.4,14.44V1.4H89v28.4h-6.2L71.52,15.84z"/>
			</g>
			<g>
				<path class="st1" d="M118,8.2h-8.16v21.6h-7.8V8.2h-8.2V1.4H118V8.2z"/>
			</g>
			<g>
				<path class="st1" d="M127.6,1.4h7.12l9.84,28.4h-7.92l-1.72-5.56h-7.56l-1.68,5.56h-7.96L127.6,1.4z M133.68,19.04l-2.52-8.8
					l-2.64,8.8H133.68z"/>
			</g>
			<g>
				<path class="st1" d="M146.2,15.36c0-1.73,0.33-3.44,0.98-5.12c0.65-1.68,1.61-3.19,2.86-4.52c1.25-1.33,2.77-2.41,4.56-3.24
					c1.79-0.83,3.83-1.24,6.12-1.24c2.75,0,5.13,0.57,7.14,1.7c2.01,1.13,3.51,2.63,4.5,4.5l-5.96,4.24
					c-0.27-0.69-0.62-1.27-1.06-1.72s-0.93-0.81-1.46-1.08c-0.53-0.27-1.09-0.45-1.66-0.56c-0.57-0.11-1.13-0.16-1.66-0.16
					c-1.12,0-2.09,0.22-2.9,0.66c-0.81,0.44-1.48,1.01-2,1.72c-0.52,0.71-0.91,1.51-1.16,2.4c-0.25,0.89-0.38,1.78-0.38,2.66
					c0,0.99,0.15,1.93,0.44,2.84c0.29,0.91,0.72,1.71,1.28,2.4s1.25,1.25,2.06,1.66c0.81,0.41,1.73,0.62,2.74,0.62
					c0.53,0,1.08-0.06,1.64-0.18s1.1-0.32,1.62-0.6s0.99-0.64,1.4-1.08c0.41-0.44,0.74-0.98,0.98-1.62l6.36,3.8
					c-0.43,1.04-1.07,1.97-1.94,2.8c-0.87,0.83-1.85,1.52-2.96,2.08c-1.11,0.56-2.29,0.99-3.56,1.28s-2.5,0.44-3.7,0.44
					c-2.11,0-4.03-0.42-5.78-1.26c-1.75-0.84-3.25-1.95-4.52-3.34c-1.27-1.39-2.25-2.96-2.94-4.72
					C146.54,18.96,146.2,17.18,146.2,15.36z"/>
			</g>
			<g>
				<path class="st1" d="M199.52,8.2h-8.16v21.6h-7.8V8.2h-8.2V1.4h24.16V8.2z"/>
			</g>
			<g>
				<path class="st1" d="M216.72,30.04c-2.16,0-4.12-0.41-5.88-1.24c-1.76-0.83-3.27-1.91-4.52-3.26s-2.23-2.89-2.92-4.62
					c-0.69-1.73-1.04-3.52-1.04-5.36c0-1.87,0.36-3.67,1.08-5.4c0.72-1.73,1.73-3.26,3.02-4.58c1.29-1.32,2.83-2.37,4.6-3.16
					c1.77-0.79,3.71-1.18,5.82-1.18c2.16,0,4.12,0.41,5.88,1.24c1.76,0.83,3.27,1.92,4.52,3.28s2.22,2.91,2.9,4.64
					c0.68,1.73,1.02,3.51,1.02,5.32c0,1.87-0.36,3.66-1.08,5.38c-0.72,1.72-1.72,3.24-3,4.56c-1.28,1.32-2.81,2.38-4.58,3.18
					C220.76,29.64,218.82,30.04,216.72,30.04z M210.28,15.64c0,0.96,0.13,1.89,0.4,2.78c0.27,0.89,0.67,1.69,1.2,2.38
					c0.53,0.69,1.21,1.25,2.02,1.68c0.81,0.43,1.78,0.64,2.9,0.64c1.12,0,2.09-0.22,2.92-0.66c0.83-0.44,1.5-1.01,2.02-1.72
					c0.52-0.71,0.91-1.51,1.16-2.42c0.25-0.91,0.38-1.83,0.38-2.76c0-0.96-0.13-1.89-0.4-2.78c-0.27-0.89-0.67-1.68-1.22-2.36
					c-0.55-0.68-1.23-1.23-2.04-1.64c-0.81-0.41-1.77-0.62-2.86-0.62c-1.12,0-2.09,0.21-2.9,0.64c-0.81,0.43-1.49,0.99-2.02,1.7
					c-0.53,0.71-0.93,1.51-1.18,2.4C210.4,13.8,210.28,14.71,210.28,15.64z"/>
			</g>
		</g>
		<g>
			<g>
				<path class="st1" d="M25.99,84.64c-1.65,0-3.18-0.33-4.55-0.99c-1.36-0.65-2.55-1.54-3.54-2.62c-0.99-1.08-1.76-2.32-2.3-3.69
					c-0.54-1.37-0.81-2.79-0.81-4.2c0-1.36,0.26-2.71,0.77-4.02c0.51-1.31,1.27-2.51,2.25-3.55c0.98-1.04,2.18-1.9,3.57-2.54
					c1.4-0.65,3.02-0.98,4.8-0.98c2.14,0,4.02,0.45,5.6,1.34c1.59,0.89,2.79,2.1,3.57,3.58l0.2,0.39l-5.35,3.81l-0.23-0.6
					c-0.18-0.46-0.41-0.83-0.69-1.12c-0.29-0.3-0.61-0.54-0.96-0.71c-0.36-0.18-0.73-0.3-1.11-0.38c-1.24-0.22-2.3-0.1-3.09,0.32
					c-0.54,0.29-0.99,0.68-1.34,1.15c-0.35,0.48-0.62,1.03-0.79,1.64c-0.18,0.62-0.27,1.25-0.27,1.86c0,0.69,0.1,1.35,0.31,1.98
					c0.2,0.62,0.49,1.17,0.87,1.64c0.37,0.46,0.84,0.84,1.38,1.11c0.82,0.42,1.85,0.52,2.95,0.29c0.37-0.08,0.74-0.22,1.08-0.4
					c0.34-0.18,0.65-0.42,0.92-0.71c0.26-0.28,0.48-0.63,0.63-1.05l0.21-0.56l5.65,3.38l-0.16,0.4c-0.35,0.84-0.87,1.6-1.57,2.27
					c-0.68,0.65-1.47,1.2-2.34,1.64c-0.86,0.44-1.8,0.77-2.78,1C27.9,84.52,26.93,84.64,25.99,84.64z M26.17,63.04
					c-1.64,0-3.11,0.3-4.38,0.88c-1.27,0.59-2.37,1.37-3.27,2.32c-0.89,0.95-1.58,2.03-2.04,3.23c-0.46,1.19-0.7,2.43-0.7,3.66
					c0,1.29,0.25,2.58,0.75,3.84c0.5,1.26,1.21,2.4,2.11,3.39c0.9,0.99,1.99,1.79,3.24,2.39c1.94,0.93,4.3,1.15,6.78,0.58
					c0.91-0.21,1.77-0.52,2.56-0.92c0.78-0.4,1.49-0.89,2.1-1.48c0.48-0.46,0.87-0.98,1.16-1.54l-3.9-2.33
					c-0.17,0.31-0.37,0.6-0.6,0.84c-0.35,0.37-0.74,0.67-1.18,0.91c-0.43,0.23-0.88,0.4-1.35,0.5c-1.33,0.29-2.59,0.15-3.62-0.37
					c-0.67-0.34-1.25-0.81-1.71-1.38c-0.46-0.57-0.81-1.23-1.05-1.96c-0.24-0.72-0.35-1.49-0.35-2.28c0-0.7,0.1-1.42,0.3-2.13
					c0.21-0.72,0.52-1.38,0.95-1.96c0.43-0.59,0.99-1.07,1.67-1.43c0.99-0.54,2.28-0.7,3.75-0.43c0.47,0.09,0.94,0.24,1.38,0.46
					c0.45,0.22,0.86,0.53,1.23,0.91c0.24,0.25,0.46,0.55,0.64,0.88l3.61-2.57c-0.69-1.13-1.68-2.07-2.96-2.79
					C29.85,63.44,28.13,63.04,26.17,63.04z"/>
			</g>
			<g>
				<path class="st1" d="M47.95,84.64c-1.69,0-3.24-0.33-4.62-0.98c-1.37-0.64-2.57-1.5-3.54-2.56c-0.98-1.05-1.75-2.27-2.29-3.62
					c-0.54-1.35-0.82-2.77-0.82-4.21c0-1.46,0.29-2.89,0.85-4.24c0.56-1.35,1.36-2.56,2.37-3.59c1.01-1.03,2.22-1.87,3.6-2.48
					c1.39-0.62,2.92-0.93,4.57-0.93c1.69,0,3.24,0.33,4.62,0.98c1.37,0.65,2.56,1.51,3.55,2.57c0.98,1.06,1.74,2.29,2.27,3.64
					c0.53,1.35,0.8,2.76,0.8,4.17c0,1.46-0.29,2.88-0.85,4.23c-0.56,1.34-1.35,2.55-2.35,3.58c-1,1.03-2.21,1.87-3.59,2.49
					C51.13,84.32,49.59,84.64,47.95,84.64z M48.07,63.04c-1.5,0-2.9,0.28-4.16,0.84c-1.27,0.56-2.37,1.32-3.3,2.26
					c-0.92,0.94-1.65,2.04-2.16,3.28c-0.51,1.23-0.77,2.53-0.77,3.86c0,1.31,0.25,2.6,0.74,3.83c0.49,1.24,1.2,2.35,2.09,3.31
					c0.89,0.96,1.98,1.74,3.24,2.33c1.25,0.58,2.66,0.88,4.2,0.88c1.5,0,2.9-0.29,4.16-0.86c1.27-0.57,2.37-1.34,3.28-2.28
					s1.63-2.04,2.15-3.27c0.51-1.22,0.77-2.51,0.77-3.84c0-1.29-0.25-2.57-0.73-3.81s-1.18-2.35-2.08-3.32
					c-0.89-0.97-1.98-1.76-3.23-2.35C51.02,63.33,49.61,63.04,48.07,63.04z M48.01,79.45c-0.92,0-1.73-0.18-2.41-0.54
					c-0.67-0.35-1.24-0.82-1.68-1.4c-0.44-0.57-0.77-1.22-0.98-1.95c-0.21-0.71-0.32-1.46-0.32-2.23c0-0.74,0.1-1.48,0.3-2.19
					c0.21-0.73,0.53-1.39,0.97-1.96c0.44-0.59,1.01-1.06,1.68-1.42c0.68-0.36,1.49-0.54,2.41-0.54c0.9,0,1.69,0.17,2.37,0.52
					c0.67,0.34,1.24,0.8,1.69,1.36c0.45,0.56,0.79,1.21,1,1.94c0.21,0.72,0.32,1.46,0.32,2.23c0,0.74-0.1,1.48-0.3,2.2
					c-0.21,0.74-0.53,1.4-0.95,1.98c-0.43,0.59-1,1.07-1.68,1.43C49.75,79.26,48.93,79.45,48.01,79.45z M47.98,68.23
					c-0.75,0-1.41,0.14-1.94,0.42c-0.54,0.28-1,0.67-1.35,1.13c-0.36,0.48-0.63,1.03-0.8,1.64c-0.18,0.62-0.27,1.27-0.27,1.92
					c0,0.67,0.09,1.32,0.28,1.94c0.18,0.61,0.46,1.15,0.82,1.62c0.35,0.46,0.81,0.84,1.35,1.12c1.07,0.56,2.81,0.57,3.9-0.01
					c0.55-0.29,1-0.68,1.35-1.14c0.35-0.48,0.62-1.03,0.79-1.65c0.18-0.63,0.27-1.28,0.27-1.93c0-0.67-0.09-1.32-0.28-1.94
					c-0.18-0.61-0.46-1.14-0.83-1.6c-0.36-0.45-0.82-0.82-1.37-1.1C49.36,68.36,48.72,68.23,47.98,68.23z"/>
			</g>
			<g>
				<path class="st1" d="M82.26,84.46h-5.39l-7.72-9.56v9.56H62.3v-22.3h5.3l7.81,9.89v-9.89h6.85V84.46z M77.35,83.46h3.91v-20.3
					h-4.85v11.77l-9.29-11.77H63.3v20.3h4.85V72.07L77.35,83.46z"/>
			</g>
			<g>
				<path class="st1" d="M97.89,84.46h-6.85v-16.2h-6.15v-6.1h19.12v6.1h-6.12V84.46z M92.04,83.46h4.85v-16.2h6.12v-4.1H85.89v4.1
					h6.15V83.46z"/>
			</g>
			<g>
				<path class="st1" d="M124.13,84.46h-7.01l-1.29-4.17h-4.93l-1.26,4.17h-7.04l7.76-22.3h6.05L124.13,84.46z M117.86,83.46h4.87
					l-7.03-20.3h-4.63L104,83.46h4.9l1.26-4.17h6.41L117.86,83.46z M115.93,76.39h-5.21l2.66-8.88L115.93,76.39z M112.07,75.39h2.54
					l-1.24-4.32L112.07,75.39z"/>
			</g>
			<g>
				<path class="st1" d="M135.37,84.64c-1.65,0-3.18-0.33-4.55-0.99c-1.36-0.65-2.55-1.54-3.54-2.62c-0.99-1.08-1.76-2.32-2.3-3.69
					c-0.54-1.37-0.81-2.79-0.81-4.2c0-1.36,0.26-2.71,0.77-4.02c0.51-1.31,1.27-2.51,2.25-3.55c0.98-1.04,2.18-1.9,3.57-2.54
					c1.4-0.65,3.02-0.98,4.8-0.98c2.14,0,4.02,0.45,5.6,1.34c1.59,0.89,2.79,2.1,3.57,3.58l0.2,0.39l-5.35,3.81l-0.23-0.6
					c-0.18-0.46-0.41-0.83-0.69-1.12c-0.29-0.3-0.61-0.54-0.96-0.71c-0.36-0.18-0.73-0.3-1.11-0.38c-1.24-0.22-2.3-0.1-3.09,0.32
					c-0.54,0.29-0.99,0.68-1.34,1.15c-0.35,0.48-0.62,1.03-0.79,1.64c-0.18,0.62-0.27,1.25-0.27,1.86c0,0.69,0.1,1.35,0.31,1.98
					c0.2,0.62,0.49,1.17,0.87,1.64c0.37,0.46,0.84,0.84,1.38,1.11c0.82,0.42,1.85,0.52,2.95,0.29c0.37-0.08,0.74-0.22,1.08-0.4
					c0.34-0.18,0.65-0.42,0.92-0.71c0.26-0.28,0.48-0.63,0.63-1.05l0.21-0.56l5.65,3.38l-0.16,0.4c-0.35,0.84-0.87,1.6-1.57,2.27
					c-0.68,0.65-1.47,1.2-2.34,1.64c-0.86,0.44-1.8,0.77-2.78,1C137.28,84.52,136.31,84.64,135.37,84.64z M135.55,63.04
					c-1.64,0-3.11,0.3-4.38,0.88c-1.27,0.59-2.37,1.37-3.27,2.32c-0.89,0.95-1.58,2.03-2.04,3.23c-0.46,1.19-0.7,2.43-0.7,3.66
					c0,1.29,0.25,2.58,0.75,3.84c0.5,1.26,1.21,2.4,2.11,3.39c0.9,0.99,1.99,1.79,3.24,2.39c1.94,0.93,4.3,1.15,6.78,0.58
					c0.91-0.21,1.77-0.52,2.56-0.92c0.78-0.4,1.49-0.89,2.1-1.48c0.48-0.46,0.87-0.98,1.16-1.54l-3.9-2.33
					c-0.17,0.31-0.37,0.6-0.6,0.84c-0.35,0.37-0.74,0.67-1.18,0.91c-0.43,0.23-0.88,0.4-1.35,0.5c-1.33,0.29-2.59,0.15-3.62-0.37
					c-0.67-0.34-1.25-0.81-1.71-1.38c-0.46-0.57-0.81-1.23-1.05-1.96c-0.24-0.72-0.35-1.49-0.35-2.28c0-0.7,0.1-1.42,0.3-2.13
					c0.21-0.72,0.52-1.38,0.95-1.96c0.43-0.59,0.99-1.07,1.67-1.43c0.99-0.54,2.28-0.7,3.75-0.43c0.47,0.09,0.94,0.24,1.38,0.46
					c0.45,0.22,0.86,0.53,1.23,0.91c0.24,0.25,0.46,0.55,0.64,0.88l3.61-2.57c-0.69-1.13-1.68-2.07-2.96-2.79
					C139.23,63.44,137.51,63.04,135.55,63.04z"/>
			</g>
			<g>
				<path class="st1" d="M159.03,84.46h-6.85v-16.2h-6.15v-6.1h19.12v6.1h-6.12V84.46z M153.18,83.46h4.85v-16.2h6.12v-4.1h-17.12
					v4.1h6.15V83.46z"/>
			</g>
			<g>
				<path class="st1" d="M184.99,84.64c-1.77,0-3.31-0.3-4.58-0.9c-1.27-0.6-2.34-1.42-3.16-2.43c-0.82-1.01-1.43-2.19-1.8-3.52
					c-0.37-1.31-0.56-2.71-0.56-4.17V62.16h6.85v11.45c0,0.66,0.07,1.31,0.2,1.92c0.13,0.59,0.33,1.11,0.6,1.55
					c0.26,0.42,0.59,0.76,0.99,1.01c0.77,0.48,2.14,0.48,2.94-0.01c0.41-0.26,0.75-0.6,1.01-1.02c0.27-0.44,0.47-0.96,0.6-1.54
					c0.13-0.6,0.2-1.24,0.2-1.9V62.16h6.85v11.45c0,1.52-0.2,2.97-0.59,4.3c-0.4,1.35-1.03,2.54-1.87,3.53
					c-0.85,0.99-1.92,1.78-3.19,2.35C188.2,84.35,186.69,84.64,184.99,84.64z M175.89,63.16v10.45c0,1.37,0.18,2.68,0.52,3.9
					c0.34,1.2,0.88,2.26,1.62,3.17c0.73,0.9,1.67,1.62,2.81,2.16c1.14,0.54,2.53,0.81,4.15,0.81c1.56,0,2.93-0.26,4.07-0.77
					c1.13-0.51,2.09-1.21,2.84-2.09c0.75-0.88,1.31-1.95,1.67-3.16c0.36-1.24,0.55-2.59,0.55-4.01V63.16h-4.85v10.45
					c0,0.73-0.07,1.44-0.22,2.12c-0.15,0.69-0.39,1.31-0.72,1.85c-0.34,0.55-0.79,1.01-1.33,1.35c-1.12,0.7-2.9,0.69-3.99,0.02
					c-0.53-0.33-0.98-0.78-1.32-1.33c-0.33-0.54-0.57-1.16-0.72-1.87c-0.15-0.68-0.22-1.4-0.22-2.13V63.16H175.89z"/>
			</g>
			<g>
				<path class="st1" d="M207.31,84.73c-0.8,0-1.63-0.06-2.47-0.18c-0.84-0.12-1.69-0.3-2.5-0.52c-0.82-0.22-1.62-0.49-2.39-0.8
					c-0.77-0.31-1.5-0.66-2.15-1.05l-0.4-0.24l2.97-6.04l0.47,0.29c0.68,0.43,1.4,0.81,2.13,1.14c0.62,0.29,1.33,0.55,2.11,0.79
					c0.76,0.23,1.54,0.34,2.33,0.34c0.73,0,0.98-0.12,1.05-0.17c0.13-0.09,0.16-0.17,0.16-0.26c0-0.11-0.02-0.24-0.2-0.38
					c-0.2-0.17-0.5-0.33-0.88-0.47c-0.43-0.16-0.92-0.31-1.48-0.47c-0.58-0.16-1.19-0.35-1.84-0.58c-0.96-0.33-1.81-0.69-2.51-1.07
					c-0.72-0.39-1.33-0.85-1.81-1.36c-0.48-0.52-0.85-1.12-1.08-1.78c-0.23-0.65-0.34-1.4-0.34-2.24c0-1.25,0.23-2.37,0.69-3.34
					c0.46-0.96,1.1-1.78,1.89-2.42c0.78-0.64,1.69-1.12,2.69-1.45c1.72-0.56,3.73-0.62,5.55-0.25c0.75,0.15,1.5,0.35,2.2,0.59
					c0.7,0.23,1.37,0.49,1.98,0.77c0.61,0.27,1.15,0.53,1.64,0.77l0.46,0.23l-3,5.75l-0.46-0.27c-0.57-0.34-1.18-0.66-1.8-0.93
					c-0.52-0.23-1.11-0.45-1.76-0.66c-1.08-0.34-2.28-0.39-2.83-0.11c-0.12,0.06-0.2,0.14-0.2,0.37c0,0.19,0.07,0.28,0.12,0.34
					c0.13,0.13,0.35,0.27,0.63,0.39c0.32,0.14,0.72,0.28,1.18,0.41c0.5,0.14,1.06,0.31,1.68,0.51c1,0.3,1.91,0.65,2.71,1.01
					c0.83,0.38,1.55,0.83,2.15,1.35c0.61,0.54,1.09,1.2,1.42,1.96c0.33,0.76,0.49,1.68,0.49,2.75c0,1.36-0.26,2.52-0.76,3.46
					c-0.51,0.94-1.19,1.7-2.02,2.26c-0.82,0.55-1.75,0.96-2.77,1.2C209.35,84.61,208.32,84.73,207.31,84.73z M198.7,81.53
					c0.5,0.28,1.04,0.53,1.61,0.76c0.73,0.29,1.5,0.55,2.29,0.76c0.78,0.21,1.58,0.38,2.39,0.5c1.77,0.26,3.46,0.24,5.14-0.16
					c0.91-0.21,1.73-0.57,2.45-1.05c0.7-0.47,1.27-1.11,1.7-1.91c0.43-0.79,0.64-1.8,0.64-2.99c0-0.93-0.14-1.72-0.41-2.35
					c-0.27-0.63-0.66-1.17-1.16-1.61c-0.52-0.46-1.16-0.86-1.9-1.2c-0.76-0.35-1.63-0.67-2.59-0.97c-0.62-0.2-1.17-0.37-1.66-0.51
					c-0.5-0.14-0.94-0.3-1.31-0.46c-0.4-0.18-0.71-0.37-0.93-0.6c-0.27-0.28-0.42-0.64-0.42-1.04c0-0.56,0.26-1.01,0.74-1.25
					c0.82-0.42,2.24-0.38,3.59,0.04c0.69,0.22,1.32,0.45,1.87,0.7c0.5,0.22,0.98,0.46,1.46,0.72l2.04-3.91
					c-0.35-0.17-0.73-0.35-1.15-0.53c-0.58-0.26-1.22-0.51-1.89-0.73c-0.67-0.22-1.37-0.41-2.09-0.55
					c-1.65-0.34-3.48-0.28-5.04,0.23c-0.89,0.29-1.69,0.72-2.38,1.28c-0.68,0.55-1.22,1.25-1.62,2.08c-0.4,0.83-0.6,1.8-0.6,2.9
					c0,0.72,0.1,1.36,0.29,1.91c0.19,0.53,0.48,1.01,0.87,1.43c0.4,0.43,0.92,0.82,1.55,1.16c0.65,0.35,1.44,0.69,2.35,1
					c0.63,0.22,1.23,0.4,1.79,0.56c0.58,0.16,1.1,0.33,1.55,0.49c0.5,0.18,0.89,0.39,1.19,0.64c0.36,0.3,0.55,0.7,0.55,1.15
					c0,0.45-0.21,0.83-0.59,1.09c-0.34,0.23-0.86,0.34-1.62,0.34c-0.88,0-1.76-0.13-2.62-0.38c-0.83-0.25-1.59-0.53-2.25-0.84
					c-0.6-0.27-1.19-0.58-1.77-0.91L198.7,81.53z"/>
			</g>
		</g>
	</g>
</g>
<g id="Capa_1">
</g>
<g id="Capa_3">
</g>
<g id="Capa_4">
</g>
<g id="Capa_6">
</g>
<g id="Capa_5">
</g>
</svg>
