<?xml version="1.0" encoding="utf-8"?>
<!-- Generator: Adobe Illustrator 24.0.3, SVG Export Plug-In . SVG Version: 6.00 Build 0)  -->
<svg version="1.1" xmlns="http://www.w3.org/2000/svg" xmlns:xlink="http://www.w3.org/1999/xlink" x="0px" y="0px"
	 viewBox="0 0 231.84 84.18" style="enable-background:new 0 0 231.84 84.18;" xml:space="preserve">
<style type="text/css">
	.st0{fill:none;stroke:#E7004C;stroke-miterlimit:10;}
	.st1{fill:#FFFFFF;}
	.st2{fill:url(#SVGID_1_);}
	.st3{fill:#E7004C;}
	.st4{fill:#42050E;}
	.st5{fill:none;stroke:#FFFFFF;stroke-width:0.75;stroke-miterlimit:10;}
	.st6{fill-rule:evenodd;clip-rule:evenodd;fill:#FFFFFF;}
	.st7{fill:none;stroke:#00B2E3;stroke-miterlimit:10;}
	.st8{fill:url(#SVGID_2_);}
	.st9{fill:#FCFCFC;}
	.st10{fill:url(#SVGID_3_);}
	.st11{fill:url(#SVGID_4_);}
	.st12{opacity:0.8;fill:#E7004C;}
	.st13{opacity:0.7;fill:#E7004C;}
	.st14{opacity:0.7;}
	.st15{fill:#00B2E3;}
	.st16{opacity:0.8;fill:#00B2E3;}
	.st17{opacity:0.7;fill:#00B2E3;}
	.st18{fill:#BBBBBB;}
	.st19{opacity:0.8;fill:#BBBBBB;}
	.st20{opacity:0.7;fill:#BBBBBB;}
	.st21{fill:url(#SVGID_5_);}
	.st22{fill:url(#SVGID_6_);}
	.st23{fill:none;stroke:#E7004C;stroke-width:2;stroke-miterlimit:10;}
	.st24{fill:url(#SVGID_7_);}
	.st25{fill:url(#SVGID_8_);}
	.st26{fill:url(#SVGID_9_);}
	.st27{fill:none;stroke:#FFFFFF;stroke-miterlimit:10;}
	.st28{fill-rule:evenodd;clip-rule:evenodd;fill:#E7004C;}
	.st29{fill:none;stroke:#000000;stroke-miterlimit:10;}
	.st30{fill:#38A8E0;}
	.st31{clip-path:url(#SVGID_11_);fill:#00B2E3;}
	.st32{fill:none;stroke:#E7004C;stroke-width:3;stroke-miterlimit:10;}
	.st33{clip-path:url(#SVGID_13_);}
	.st34{fill:none;stroke:#FFFFFF;stroke-width:2;stroke-miterlimit:10;}
	.st35{fill:none;stroke:#FFFFFF;stroke-width:3;stroke-miterlimit:10;}
	.st36{clip-path:url(#SVGID_15_);}
	.st37{fill:url(#SVGID_16_);}
	.st38{fill:none;stroke:#FFFFFF;stroke-width:0.5;stroke-miterlimit:10;}
	.st39{clip-path:url(#SVGID_18_);fill:#00B2E3;}
	.st40{clip-path:url(#SVGID_20_);}
	.st41{clip-path:url(#SVGID_22_);}
	.st42{fill:url(#SVGID_23_);}
	.st43{clip-path:url(#SVGID_25_);}
	.st44{fill:url(#SVGID_26_);}
	.st45{fill:url(#SVGID_27_);}
	.st46{fill:url(#SVGID_28_);}
	.st47{fill:url(#SVGID_29_);}
	.st48{clip-path:url(#SVGID_31_);fill:#00B2E3;}
	.st49{clip-path:url(#SVGID_33_);}
	.st50{clip-path:url(#SVGID_35_);}
	.st51{fill:url(#SVGID_36_);}
	.st52{clip-path:url(#SVGID_38_);}
	.st53{clip-path:url(#SVGID_40_);}
	.st54{fill:#280210;}
	.st55{opacity:0.5;}
	.st56{opacity:0.6;}
	.st57{fill:url(#SVGID_41_);}
	.st58{fill:url(#SVGID_42_);}
	.st59{fill:url(#SVGID_43_);}
	.st60{fill:url(#SVGID_44_);}
	.st61{opacity:0.8;}
	.st62{opacity:0.9;}
	.st63{fill:url(#SVGID_45_);}
	.st64{clip-path:url(#SVGID_47_);}
	.st65{clip-path:url(#SVGID_49_);}
	.st66{fill:url(#SVGID_50_);}
	.st67{clip-path:url(#SVGID_52_);}
	.st68{fill:url(#SVGID_53_);}
	.st69{clip-path:url(#SVGID_55_);}
	.st70{fill:url(#SVGID_56_);}
	.st71{clip-path:url(#SVGID_58_);fill:#00B2E3;}
	.st72{clip-path:url(#SVGID_60_);}
	.st73{clip-path:url(#SVGID_62_);}
	.st74{fill:none;stroke:#FFFFFF;stroke-width:5;stroke-miterlimit:10;}
	.st75{clip-path:url(#SVGID_64_);fill:#00B2E3;}
	.st76{clip-path:url(#SVGID_66_);}
	.st77{clip-path:url(#SVGID_68_);}
	.st78{clip-path:url(#SVGID_70_);fill:#00B2E3;}
	.st79{clip-path:url(#SVGID_72_);}
	.st80{fill:#5B0323;}
	.st81{fill:url(#SVGID_73_);}
	.st82{fill:url(#SVGID_74_);}
	.st83{fill:url(#SVGID_75_);}
	.st84{clip-path:url(#SVGID_77_);fill:#00B2E3;}
	.st85{clip-path:url(#SVGID_80_);}
	.st86{fill:none;stroke:#00B2E3;stroke-width:2;stroke-miterlimit:10;}
	.st87{fill-rule:evenodd;clip-rule:evenodd;fill:#00B2E3;}
	.st88{clip-path:url(#SVGID_84_);}
	.st89{fill:#E5E5E5;}
	.st90{clip-path:url(#SVGID_86_);}
	.st91{fill-rule:evenodd;clip-rule:evenodd;fill:none;stroke:#E7004C;stroke-width:3;stroke-miterlimit:10;}
	.st92{fill:#020202;}
	.st93{fill:none;stroke:#5B0323;stroke-miterlimit:10;}
	.st94{fill:#070101;}
	.st95{fill:none;stroke:#068FFF;stroke-width:5;stroke-miterlimit:10;}
</style>
<g id="Capa_2">
	<g>
		<g>
			<path class="st5" d="M43.95,73.17c0-1.3,0.24-2.58,0.73-3.84c0.49-1.26,1.2-2.39,2.15-3.39c0.94-1,2.08-1.81,3.42-2.43
				c1.34-0.62,2.87-0.93,4.59-0.93c2.06,0,3.84,0.42,5.35,1.28c1.51,0.85,2.64,1.97,3.38,3.38l-4.47,3.18
				c-0.2-0.52-0.46-0.95-0.79-1.29s-0.7-0.61-1.1-0.81c-0.4-0.2-0.81-0.34-1.25-0.42c-0.43-0.08-0.84-0.12-1.24-0.12
				c-0.84,0-1.57,0.16-2.18,0.49c-0.61,0.33-1.11,0.76-1.5,1.29c-0.39,0.53-0.68,1.13-0.87,1.8s-0.28,1.33-0.28,1.99
				c0,0.74,0.11,1.45,0.33,2.13c0.22,0.68,0.54,1.28,0.96,1.8c0.42,0.52,0.93,0.94,1.54,1.25c0.61,0.31,1.29,0.46,2.06,0.46
				c0.4,0,0.81-0.04,1.23-0.13c0.42-0.09,0.82-0.24,1.21-0.45c0.39-0.21,0.74-0.48,1.05-0.81s0.56-0.73,0.74-1.21l4.77,2.85
				c-0.32,0.78-0.81,1.48-1.46,2.1c-0.65,0.62-1.39,1.14-2.22,1.56c-0.83,0.42-1.72,0.74-2.67,0.96c-0.95,0.22-1.88,0.33-2.77,0.33
				c-1.58,0-3.03-0.31-4.33-0.95c-1.31-0.63-2.44-1.46-3.39-2.5c-0.95-1.04-1.69-2.22-2.21-3.54S43.95,74.53,43.95,73.17z"/>
			<path class="st5" d="M76.62,84.18c-1.62,0-3.09-0.31-4.41-0.93c-1.32-0.62-2.45-1.44-3.39-2.45c-0.94-1.01-1.67-2.16-2.19-3.46
				s-0.78-2.64-0.78-4.02c0-1.4,0.27-2.75,0.81-4.05c0.54-1.3,1.29-2.45,2.26-3.44s2.12-1.78,3.45-2.37
				c1.33-0.59,2.78-0.88,4.36-0.88c1.62,0,3.09,0.31,4.41,0.93s2.45,1.44,3.39,2.46c0.94,1.02,1.67,2.18,2.17,3.48
				c0.51,1.3,0.77,2.63,0.77,3.99c0,1.4-0.27,2.74-0.81,4.04c-0.54,1.29-1.29,2.43-2.25,3.42s-2.1,1.79-3.44,2.38
				S78.2,84.18,76.62,84.18z M71.79,73.38c0,0.72,0.1,1.42,0.3,2.09c0.2,0.67,0.5,1.27,0.9,1.79s0.9,0.94,1.52,1.26
				c0.61,0.32,1.33,0.48,2.18,0.48c0.84,0,1.57-0.17,2.19-0.5c0.62-0.33,1.12-0.76,1.51-1.29c0.39-0.53,0.68-1.13,0.87-1.82
				c0.19-0.68,0.29-1.37,0.29-2.07c0-0.72-0.1-1.42-0.3-2.09c-0.2-0.67-0.5-1.26-0.92-1.77s-0.92-0.92-1.53-1.23
				c-0.61-0.31-1.33-0.46-2.15-0.46c-0.84,0-1.56,0.16-2.17,0.48c-0.61,0.32-1.12,0.74-1.52,1.28c-0.4,0.53-0.7,1.13-0.89,1.8
				S71.79,72.68,71.79,73.38z"/>
			<path class="st5" d="M97.32,73.53V84h-5.85V62.7h4.56l8.55,10.83V62.7h5.85V84h-4.65L97.32,73.53z"/>
			<path class="st5" d="M132.18,67.8h-6.12V84h-5.85V67.8h-6.15v-5.1h18.12V67.8z"/>
			<path class="st5" d="M139.38,62.7h5.34L152.1,84h-5.94l-1.29-4.17h-5.67L137.94,84h-5.97L139.38,62.7z M143.94,75.93l-1.89-6.6
				l-1.98,6.6H143.94z"/>
			<path class="st5" d="M153.33,73.17c0-1.3,0.24-2.58,0.73-3.84c0.49-1.26,1.2-2.39,2.15-3.39c0.94-1,2.08-1.81,3.42-2.43
				c1.34-0.62,2.87-0.93,4.59-0.93c2.06,0,3.84,0.42,5.35,1.28c1.51,0.85,2.64,1.97,3.38,3.38l-4.47,3.18
				c-0.2-0.52-0.46-0.95-0.79-1.29s-0.7-0.61-1.1-0.81c-0.4-0.2-0.81-0.34-1.25-0.42c-0.43-0.08-0.84-0.12-1.24-0.12
				c-0.84,0-1.57,0.16-2.18,0.49c-0.61,0.33-1.11,0.76-1.5,1.29c-0.39,0.53-0.68,1.13-0.87,1.8s-0.28,1.33-0.28,1.99
				c0,0.74,0.11,1.45,0.33,2.13c0.22,0.68,0.54,1.28,0.96,1.8c0.42,0.52,0.93,0.94,1.54,1.25c0.61,0.31,1.29,0.46,2.06,0.46
				c0.4,0,0.81-0.04,1.23-0.13c0.42-0.09,0.82-0.24,1.21-0.45c0.39-0.21,0.74-0.48,1.05-0.81s0.56-0.73,0.74-1.21l4.77,2.85
				c-0.32,0.78-0.81,1.48-1.46,2.1c-0.65,0.62-1.39,1.14-2.22,1.56c-0.83,0.42-1.72,0.74-2.67,0.96c-0.95,0.22-1.88,0.33-2.77,0.33
				c-1.58,0-3.03-0.31-4.33-0.95c-1.31-0.63-2.44-1.46-3.39-2.5c-0.95-1.04-1.69-2.22-2.21-3.54S153.33,74.53,153.33,73.17z"/>
			<path class="st5" d="M193.32,67.8h-6.12V84h-5.85V67.8h-6.15v-5.1h18.12V67.8z"/>
		</g>
		<g>
			<path class="st4" d="M1,27.73c0-1.73,0.33-3.44,0.98-5.12c0.65-1.68,1.61-3.19,2.86-4.52c1.25-1.33,2.77-2.41,4.56-3.24
				s3.83-1.24,6.12-1.24c2.75,0,5.13,0.57,7.14,1.7c2.01,1.13,3.51,2.63,4.5,4.5l-5.96,4.24c-0.27-0.69-0.62-1.27-1.06-1.72
				s-0.93-0.81-1.46-1.08c-0.53-0.27-1.09-0.45-1.66-0.56c-0.57-0.11-1.13-0.16-1.66-0.16c-1.12,0-2.09,0.22-2.9,0.66
				s-1.48,1.01-2,1.72s-0.91,1.51-1.16,2.4c-0.25,0.89-0.38,1.78-0.38,2.66c0,0.99,0.15,1.93,0.44,2.84
				c0.29,0.91,0.72,1.71,1.28,2.4s1.25,1.25,2.06,1.66c0.81,0.41,1.73,0.62,2.74,0.62c0.53,0,1.08-0.06,1.64-0.18
				c0.56-0.12,1.1-0.32,1.62-0.6c0.52-0.28,0.99-0.64,1.4-1.08c0.41-0.44,0.74-0.98,0.98-1.62l6.36,3.8
				c-0.43,1.04-1.07,1.97-1.94,2.8c-0.87,0.83-1.85,1.52-2.96,2.08c-1.11,0.56-2.29,0.99-3.56,1.28s-2.5,0.44-3.7,0.44
				c-2.11,0-4.03-0.42-5.78-1.26c-1.75-0.84-3.25-1.95-4.52-3.34c-1.27-1.38-2.25-2.96-2.94-4.72C1.35,31.33,1,29.55,1,27.73z"/>
			<path class="st4" d="M44.56,42.41c-2.16,0-4.12-0.41-5.88-1.24c-1.76-0.83-3.27-1.91-4.52-3.26c-1.25-1.35-2.23-2.89-2.92-4.62
				c-0.69-1.73-1.04-3.52-1.04-5.36c0-1.87,0.36-3.67,1.08-5.4c0.72-1.73,1.73-3.26,3.02-4.58c1.29-1.32,2.83-2.37,4.6-3.16
				c1.77-0.79,3.71-1.18,5.82-1.18c2.16,0,4.12,0.41,5.88,1.24c1.76,0.83,3.27,1.92,4.52,3.28c1.25,1.36,2.22,2.91,2.9,4.64
				c0.68,1.73,1.02,3.51,1.02,5.32c0,1.87-0.36,3.66-1.08,5.38c-0.72,1.72-1.72,3.24-3,4.56c-1.28,1.32-2.81,2.38-4.58,3.18
				C48.61,42.01,46.67,42.41,44.56,42.41z M38.12,28.01c0,0.96,0.13,1.89,0.4,2.78c0.27,0.89,0.67,1.69,1.2,2.38
				c0.53,0.69,1.21,1.25,2.02,1.68c0.81,0.43,1.78,0.64,2.9,0.64c1.12,0,2.09-0.22,2.92-0.66c0.83-0.44,1.5-1.01,2.02-1.72
				c0.52-0.71,0.91-1.51,1.16-2.42c0.25-0.91,0.38-1.83,0.38-2.76c0-0.96-0.13-1.89-0.4-2.78c-0.27-0.89-0.67-1.68-1.22-2.36
				c-0.55-0.68-1.23-1.23-2.04-1.64c-0.81-0.41-1.77-0.62-2.86-0.62c-1.12,0-2.09,0.21-2.9,0.64s-1.49,0.99-2.02,1.7
				c-0.53,0.71-0.93,1.51-1.18,2.4C38.25,26.17,38.12,27.08,38.12,28.01z"/>
			<path class="st4" d="M72.16,28.21v13.96h-7.8v-28.4h6.08l11.4,14.44V13.77h7.8v28.4h-6.2L72.16,28.21z"/>
			<path class="st4" d="M118.64,20.57h-8.16v21.6h-7.8v-21.6h-8.2v-6.8h24.16V20.57z"/>
			<path class="st4" d="M128.24,13.77h7.12l9.84,28.4h-7.92l-1.72-5.56H128l-1.68,5.56h-7.96L128.24,13.77z M134.32,31.41l-2.52-8.8
				l-2.64,8.8H134.32z"/>
			<path class="st4" d="M146.84,27.73c0-1.73,0.33-3.44,0.98-5.12c0.65-1.68,1.61-3.19,2.86-4.52c1.25-1.33,2.77-2.41,4.56-3.24
				s3.83-1.24,6.12-1.24c2.75,0,5.13,0.57,7.14,1.7c2.01,1.13,3.51,2.63,4.5,4.5l-5.96,4.24c-0.27-0.69-0.62-1.27-1.06-1.72
				s-0.93-0.81-1.46-1.08c-0.53-0.27-1.09-0.45-1.66-0.56c-0.57-0.11-1.13-0.16-1.66-0.16c-1.12,0-2.09,0.22-2.9,0.66
				s-1.48,1.01-2,1.72s-0.91,1.51-1.16,2.4c-0.25,0.89-0.38,1.78-0.38,2.66c0,0.99,0.15,1.93,0.44,2.84
				c0.29,0.91,0.72,1.71,1.28,2.4s1.25,1.25,2.06,1.66c0.81,0.41,1.73,0.62,2.74,0.62c0.53,0,1.08-0.06,1.64-0.18
				c0.56-0.12,1.1-0.32,1.62-0.6c0.52-0.28,0.99-0.64,1.4-1.08c0.41-0.44,0.74-0.98,0.98-1.62l6.36,3.8
				c-0.43,1.04-1.07,1.97-1.94,2.8c-0.87,0.83-1.85,1.52-2.96,2.08c-1.11,0.56-2.29,0.99-3.56,1.28s-2.5,0.44-3.7,0.44
				c-2.11,0-4.03-0.42-5.78-1.26c-1.75-0.84-3.25-1.95-4.52-3.34c-1.27-1.38-2.25-2.96-2.94-4.72
				C147.19,31.33,146.84,29.55,146.84,27.73z"/>
			<path class="st4" d="M200.16,20.57H192v21.6h-7.8v-21.6H176v-6.8h24.16V20.57z"/>
			<path class="st4" d="M217.36,42.41c-2.16,0-4.12-0.41-5.88-1.24c-1.76-0.83-3.27-1.91-4.52-3.26c-1.25-1.35-2.23-2.89-2.92-4.62
				c-0.69-1.73-1.04-3.52-1.04-5.36c0-1.87,0.36-3.67,1.08-5.4c0.72-1.73,1.73-3.26,3.02-4.58c1.29-1.32,2.83-2.37,4.6-3.16
				c1.77-0.79,3.71-1.18,5.82-1.18c2.16,0,4.12,0.41,5.88,1.24c1.76,0.83,3.27,1.92,4.52,3.28c1.25,1.36,2.22,2.91,2.9,4.64
				c0.68,1.73,1.02,3.51,1.02,5.32c0,1.87-0.36,3.66-1.08,5.38c-0.72,1.72-1.72,3.24-3,4.56c-1.28,1.32-2.81,2.38-4.58,3.18
				C221.41,42.01,219.47,42.41,217.36,42.41z M210.92,28.01c0,0.96,0.13,1.89,0.4,2.78c0.27,0.89,0.67,1.69,1.2,2.38
				c0.53,0.69,1.21,1.25,2.02,1.68c0.81,0.43,1.78,0.64,2.9,0.64c1.12,0,2.09-0.22,2.92-0.66c0.83-0.44,1.5-1.01,2.02-1.72
				c0.52-0.71,0.91-1.51,1.16-2.42c0.25-0.91,0.38-1.83,0.38-2.76c0-0.96-0.13-1.89-0.4-2.78c-0.27-0.89-0.67-1.68-1.22-2.36
				c-0.55-0.68-1.23-1.23-2.04-1.64c-0.81-0.41-1.77-0.62-2.86-0.62c-1.12,0-2.09,0.21-2.9,0.64s-1.49,0.99-2.02,1.7
				c-0.53,0.71-0.93,1.51-1.18,2.4C211.05,26.17,210.92,27.08,210.92,28.01z"/>
		</g>
		<g>
			<path class="st1" d="M0,14.41c0-1.73,0.33-3.44,0.98-5.12C1.63,7.61,2.59,6.1,3.84,4.77C5.09,3.43,6.61,2.35,8.4,1.53
				c1.79-0.83,3.83-1.24,6.12-1.24c2.75,0,5.13,0.57,7.14,1.7c2.01,1.13,3.51,2.63,4.5,4.5l-5.96,4.24
				c-0.27-0.69-0.62-1.27-1.06-1.72s-0.93-0.81-1.46-1.08c-0.53-0.27-1.09-0.45-1.66-0.56c-0.57-0.11-1.13-0.16-1.66-0.16
				c-1.12,0-2.09,0.22-2.9,0.66c-0.81,0.44-1.48,1.01-2,1.72c-0.52,0.71-0.91,1.51-1.16,2.4c-0.25,0.89-0.38,1.78-0.38,2.66
				c0,0.99,0.15,1.93,0.44,2.84c0.29,0.91,0.72,1.71,1.28,2.4s1.25,1.25,2.06,1.66c0.81,0.41,1.73,0.62,2.74,0.62
				c0.53,0,1.08-0.06,1.64-0.18s1.1-0.32,1.62-0.6s0.99-0.64,1.4-1.08c0.41-0.44,0.74-0.98,0.98-1.62l6.36,3.8
				c-0.43,1.04-1.07,1.97-1.94,2.8c-0.87,0.83-1.85,1.52-2.96,2.08c-1.11,0.56-2.29,0.99-3.56,1.28s-2.5,0.44-3.7,0.44
				c-2.11,0-4.03-0.42-5.78-1.26c-1.75-0.84-3.25-1.95-4.52-3.34c-1.27-1.39-2.25-2.96-2.94-4.72C0.35,18.01,0,16.22,0,14.41z"/>
			<path class="st1" d="M43.56,29.09c-2.16,0-4.12-0.41-5.88-1.24c-1.76-0.83-3.27-1.91-4.52-3.26s-2.23-2.89-2.92-4.62
				c-0.69-1.73-1.04-3.52-1.04-5.36c0-1.87,0.36-3.67,1.08-5.4C31,7.47,32.01,5.95,33.3,4.63c1.29-1.32,2.83-2.37,4.6-3.16
				c1.77-0.79,3.71-1.18,5.82-1.18c2.16,0,4.12,0.41,5.88,1.24c1.76,0.83,3.27,1.92,4.52,3.28s2.22,2.91,2.9,4.64
				c0.68,1.73,1.02,3.51,1.02,5.32c0,1.87-0.36,3.66-1.08,5.38c-0.72,1.72-1.72,3.24-3,4.56c-1.28,1.32-2.81,2.38-4.58,3.18
				C47.61,28.69,45.67,29.09,43.56,29.09z M37.12,14.69c0,0.96,0.13,1.89,0.4,2.78c0.27,0.89,0.67,1.69,1.2,2.38
				c0.53,0.69,1.21,1.25,2.02,1.68c0.81,0.43,1.78,0.64,2.9,0.64c1.12,0,2.09-0.22,2.92-0.66c0.83-0.44,1.5-1.01,2.02-1.72
				c0.52-0.71,0.91-1.51,1.16-2.42c0.25-0.91,0.38-1.83,0.38-2.76c0-0.96-0.13-1.89-0.4-2.78c-0.27-0.89-0.67-1.68-1.22-2.36
				c-0.55-0.68-1.23-1.23-2.04-1.64c-0.81-0.41-1.77-0.62-2.86-0.62c-1.12,0-2.09,0.21-2.9,0.64c-0.81,0.43-1.49,0.99-2.02,1.7
				c-0.53,0.71-0.93,1.51-1.18,2.4C37.25,12.84,37.12,13.75,37.12,14.69z"/>
			<path class="st1" d="M71.16,14.89v13.96h-7.8V0.45h6.08l11.4,14.44V0.45h7.8v28.4h-6.2L71.16,14.89z"/>
			<path class="st1" d="M117.64,7.25h-8.16v21.6h-7.8V7.25h-8.2v-6.8h24.16V7.25z"/>
			<path class="st1" d="M127.24,0.45h7.12l9.84,28.4h-7.92l-1.72-5.56H127l-1.68,5.56h-7.96L127.24,0.45z M133.32,18.09l-2.52-8.8
				l-2.64,8.8H133.32z"/>
			<path class="st1" d="M145.84,14.41c0-1.73,0.33-3.44,0.98-5.12c0.65-1.68,1.61-3.19,2.86-4.52c1.25-1.33,2.77-2.41,4.56-3.24
				c1.79-0.83,3.83-1.24,6.12-1.24c2.75,0,5.13,0.57,7.14,1.7c2.01,1.13,3.51,2.63,4.5,4.5l-5.96,4.24
				c-0.27-0.69-0.62-1.27-1.06-1.72s-0.93-0.81-1.46-1.08c-0.53-0.27-1.09-0.45-1.66-0.56c-0.57-0.11-1.13-0.16-1.66-0.16
				c-1.12,0-2.09,0.22-2.9,0.66c-0.81,0.44-1.48,1.01-2,1.72c-0.52,0.71-0.91,1.51-1.16,2.4c-0.25,0.89-0.38,1.78-0.38,2.66
				c0,0.99,0.15,1.93,0.44,2.84c0.29,0.91,0.72,1.71,1.28,2.4s1.25,1.25,2.06,1.66c0.81,0.41,1.73,0.62,2.74,0.62
				c0.53,0,1.08-0.06,1.64-0.18s1.1-0.32,1.62-0.6s0.99-0.64,1.4-1.08c0.41-0.44,0.74-0.98,0.98-1.62l6.36,3.8
				c-0.43,1.04-1.07,1.97-1.94,2.8c-0.87,0.83-1.85,1.52-2.96,2.08c-1.11,0.56-2.29,0.99-3.56,1.28s-2.5,0.44-3.7,0.44
				c-2.11,0-4.03-0.42-5.78-1.26c-1.75-0.84-3.25-1.95-4.52-3.34c-1.27-1.39-2.25-2.96-2.94-4.72
				C146.19,18.01,145.84,16.22,145.84,14.41z"/>
			<path class="st1" d="M199.16,7.25H191v21.6h-7.8V7.25H175v-6.8h24.16V7.25z"/>
			<path class="st1" d="M216.36,29.09c-2.16,0-4.12-0.41-5.88-1.24c-1.76-0.83-3.27-1.91-4.52-3.26s-2.23-2.89-2.92-4.62
				c-0.69-1.73-1.04-3.52-1.04-5.36c0-1.87,0.36-3.67,1.08-5.4c0.72-1.73,1.73-3.26,3.02-4.58c1.29-1.32,2.83-2.37,4.6-3.16
				c1.77-0.79,3.71-1.18,5.82-1.18c2.16,0,4.12,0.41,5.88,1.24c1.76,0.83,3.27,1.92,4.52,3.28s2.22,2.91,2.9,4.64
				c0.68,1.73,1.02,3.51,1.02,5.32c0,1.87-0.36,3.66-1.08,5.38c-0.72,1.72-1.72,3.24-3,4.56c-1.28,1.32-2.81,2.38-4.58,3.18
				C220.41,28.69,218.47,29.09,216.36,29.09z M209.92,14.69c0,0.96,0.13,1.89,0.4,2.78c0.27,0.89,0.67,1.69,1.2,2.38
				c0.53,0.69,1.21,1.25,2.02,1.68c0.81,0.43,1.78,0.64,2.9,0.64c1.12,0,2.09-0.22,2.92-0.66c0.83-0.44,1.5-1.01,2.02-1.72
				c0.52-0.71,0.91-1.51,1.16-2.42c0.25-0.91,0.38-1.83,0.38-2.76c0-0.96-0.13-1.89-0.4-2.78c-0.27-0.89-0.67-1.68-1.22-2.36
				c-0.55-0.68-1.23-1.23-2.04-1.64c-0.81-0.41-1.77-0.62-2.86-0.62c-1.12,0-2.09,0.21-2.9,0.64c-0.81,0.43-1.49,0.99-2.02,1.7
				c-0.53,0.71-0.93,1.51-1.18,2.4C210.05,12.84,209.92,13.75,209.92,14.69z"/>
		</g>
	</g>
</g>
<g id="Capa_1">
</g>
<g id="Capa_3">
</g>
<g id="Capa_4">
</g>
<g id="Capa_6">
</g>
<g id="Capa_5">
</g>
</svg>
