<svg xmlns="http://www.w3.org/2000/svg" viewBox="0 0 1078.26 454.58"><defs><style>.cls-1{fill:#fff;}</style></defs><g id="Layer_2" data-name="Layer 2"><g id="Layer_2-2" data-name="Layer 2"><path class="cls-1" d="M657.72,105.54q-7.54-12.48-26-12.48H591v96.2h40.69q16.89,0,25.22-11.9t8.32-36.2Q665.26,118,657.72,105.54Zm-15.47,58.82q-3.78,7.6-12.48,7.61h-19.5V110.35h19.5A15.1,15.1,0,0,1,639,113q3.51,2.6,5.26,9.29T646,141.16Q646,156.76,642.25,164.36Z"/><path class="cls-1" d="M731.43,150.65a25.38,25.38,0,0,0,11.11-8.84q4.1-5.85,4.1-17.94,0-17.16-7.35-24t-20.08-6.82H679.43v96.2h19.24V153.38q9.36.26,15.6.26l15.47,35.62h19.63Zm-7-15.67q-3,3.2-8.58,3.19H698.67V110.35h17.16q5.58,0,8.58,2.92t3,10.6Q727.4,131.79,724.41,135Z"/><path class="cls-1" d="M839.46,189.26,809.3,93.06H785l-30.16,96.2h19.76l6-20.15h32.76l6.11,20.15Zm-54.34-37.44L797,109.57l11.83,42.25Z"/><path class="cls-1" d="M910.44,99.82q-7.8-6.76-19.89-6.76H850v96.2h19.24V157.8q4.68.64,11.31,1.36a104.09,104.09,0,0,0,10.79.72q26.91,0,26.91-33.8Q918.24,106.58,910.44,99.82ZM896.2,138.69a8.91,8.91,0,0,1-7.86,3.9H869.23V110.35h19.5q10.14,0,10.14,15.86Q898.87,134.79,896.2,138.69Z"/><path class="cls-1" d="M937.15,98.19q-6.43,5.15-6.44,16.84v53.69q0,12.87,7,17a31.56,31.56,0,0,0,16.38,4.16A362.9,362.9,0,0,0,994.28,188V171.84H958q-8.06,0-8.06-8.58V150L988,149V133.75l-38.09-1V118.8q0-7.93,8.45-7.93h35.88V94.75q-21.71-1.69-41.6-1.69A24.14,24.14,0,0,0,937.15,98.19Z"/><path class="cls-1" d="M1060.32,150.65a25.41,25.41,0,0,0,11.12-8.84q4.1-5.85,4.09-17.94,0-17.16-7.34-24t-20.09-6.82h-39.78v96.2h19.24V153.38q9.36.26,15.6.26l15.47,35.62h19.63Zm-7-15.67q-3,3.2-8.58,3.19h-17.16V110.35h17.16q5.6,0,8.58,2.92t3,10.6Q1056.29,131.79,1053.3,135Z"/><path class="cls-1" d="M623.66,248.15q-11.83,0-19.37,4.09T592.65,267q-4.1,10.65-4.09,29.9,0,20,4,30.74T603.9,342.2q7.41,3.84,19.5,3.84,18.72,0,30.29-3.77V327.44a210.7,210.7,0,0,1-26,1.31q-8.19,0-12.35-2.6t-5.85-9.23q-1.69-6.63-1.69-19.89t1.88-20.09q1.89-6.69,6.05-9.1t12-2.4q7.8,0,14.95.65a84.8,84.8,0,0,1,11.05,1.56V252.7a97.92,97.92,0,0,0-13.39-3.19A96.57,96.57,0,0,0,623.66,248.15Z"/><path class="cls-1" d="M713.75,277.59q-6.9-3.18-18.85-3.18t-18.72,3a19.22,19.22,0,0,0-10.08,10.79q-3.18,7.74-3.18,21.91,0,13.65,3.18,21.38a20.26,20.26,0,0,0,10.08,11q6.89,3.32,18.72,3.32,12.09,0,19-3.19a19.45,19.45,0,0,0,10-10.92q3.12-7.73,3.12-21.64t-3.19-21.65A19.72,19.72,0,0,0,713.75,277.59Zm-7.28,45.89c-.87,2.91-2.17,4.81-3.9,5.72s-4.29,1.36-7.67,1.36a16.59,16.59,0,0,1-7.54-1.36c-1.74-.91-3-2.81-3.9-5.72s-1.3-7.34-1.3-13.32.43-10.43,1.3-13.33,2.16-4.81,3.9-5.72a16.59,16.59,0,0,1,7.54-1.36c3.38,0,5.93.45,7.67,1.36s3,2.82,3.9,5.72,1.3,7.35,1.3,13.33S707.33,320.58,706.47,323.48Z"/><path class="cls-1" d="M781.74,277.66a53.47,53.47,0,0,0-17.81-3.25q-10,0-15.73,3.77t-8.13,11.7q-2.4,7.92-2.4,21.19,0,18.58,6.17,26.78T762.63,346a26.81,26.81,0,0,0,10.27-2.15,32.65,32.65,0,0,0,8.84-5.26l3.12,6.63h16.25V246.07H781.74Zm0,49a22.75,22.75,0,0,1-12.35,3.89,13.28,13.28,0,0,1-7.35-1.75q-2.65-1.76-3.9-6.11a48.84,48.84,0,0,1-1.23-12.54q0-8.58,1.3-13.2c.86-3.07,2.23-5.2,4.09-6.37s4.49-1.75,7.87-1.75a21.48,21.48,0,0,1,5.52.71,62,62,0,0,1,6,2Z"/><path class="cls-1" d="M867,312.89q5.79-4.29,5.79-14.43,0-9.49-2.8-14.69a15.16,15.16,0,0,0-8.9-7.28q-6.12-2.08-16.77-2.08-12,0-18.53,3.12t-9.42,10.85q-2.87,7.74-2.86,22,0,13.9,3,21.58a19,19,0,0,0,9.82,10.78q6.75,3.14,18.59,3.13a95.25,95.25,0,0,0,13-.78q5.58-.79,12.48-2.21V331.6H850q-7,0-10.66-1.36a8.6,8.6,0,0,1-5.07-4.42,23.36,23.36,0,0,1-1.69-8.64h17.55Q861.16,317.18,867,312.89Zm-34.64-7.15a37.66,37.66,0,0,1,1.17-10.66,8.79,8.79,0,0,1,3.7-5.27,14.09,14.09,0,0,1,7.09-1.49c4.16,0,7.1.76,8.84,2.27s2.6,4.18,2.6,8q0,3.9-1.76,5.52c-1.17,1.08-3.1,1.63-5.78,1.63Z"/><rect class="cls-1" x="529.53" width="8" height="454.58"/><path class="cls-1" d="M370.39.77,123.86,0,0,226.53,122.66,453.82l246.52.76L493,228.06ZM267,62.69,336,95l7.71,49.09L255.09,67.66Zm-20.45,5-88.59,76.42L165.65,95l69-32.3ZM229,60.32,165.45,90.07l-7.93-59.72Zm-45.83,133,11.3,79.77-64.57-17.26Zm3.9-2.8s19.11-3.31,34.56,13.46,27.12,36.89,27.12,36.89v78L212.61,278,199,274.3ZM108.79,348.29l18.71-88.35L209,281.71,163,408.37Zm58.08,61.93L212.6,284.31,322.9,410.22ZM253,323.77v-83.1s14.29-25.33,27.38-37,21.32-13.87,34.06-13.1L284.53,359.75ZM316,186s-28.46-4.62-47.94,25.71H233.53C214.05,181.33,185.59,186,185.59,186l-27.66-36,92.88-80.12h0L343.69,150Zm20.13-95.88L272.61,60.32l71.48-30Z"/></g></g></svg>