<?xml version="1.0" encoding="utf-8"?>
<!-- Generator: Adobe Illustrator 24.0.3, SVG Export Plug-In . SVG Version: 6.00 Build 0)  -->
<svg version="1.1" xmlns="http://www.w3.org/2000/svg" xmlns:xlink="http://www.w3.org/1999/xlink" x="0px" y="0px"
	 viewBox="0 0 200 200" style="enable-background:new 0 0 200 200;" xml:space="preserve">
<style type="text/css">
	.st0{fill:#FFFFFF;}
	.st1{fill:url(#SVGID_1_);}
	.st2{fill:#E7004C;}
	.st3{fill:none;stroke:#00B2E3;stroke-miterlimit:10;}
	.st4{fill:url(#SVGID_2_);}
	.st5{fill:#FCFCFC;}
	.st6{fill:url(#SVGID_3_);}
	.st7{fill:url(#SVGID_4_);}
	.st8{opacity:0.8;fill:#E7004C;}
	.st9{opacity:0.7;fill:#E7004C;}
	.st10{opacity:0.7;}
	.st11{fill:#00B2E3;}
	.st12{opacity:0.8;fill:#00B2E3;}
	.st13{opacity:0.7;fill:#00B2E3;}
	.st14{fill:#BBBBBB;}
	.st15{opacity:0.8;fill:#BBBBBB;}
	.st16{opacity:0.7;fill:#BBBBBB;}
	.st17{fill:url(#SVGID_5_);}
	.st18{fill:url(#SVGID_6_);}
	.st19{fill:none;stroke:#E7004C;stroke-width:2;stroke-miterlimit:10;}
	.st20{fill:url(#SVGID_7_);}
	.st21{fill:url(#SVGID_8_);}
	.st22{fill:url(#SVGID_9_);}
	.st23{fill:none;stroke:#FFFFFF;stroke-miterlimit:10;}
	.st24{fill:none;stroke:#E7004C;stroke-miterlimit:10;}
	.st25{fill-rule:evenodd;clip-rule:evenodd;fill:#E7004C;}
	.st26{fill:none;stroke:#000000;stroke-miterlimit:10;}
	.st27{fill:#38A8E0;}
	.st28{clip-path:url(#SVGID_11_);fill:#00B2E3;}
	.st29{fill:none;stroke:#E7004C;stroke-width:3;stroke-miterlimit:10;}
	.st30{clip-path:url(#SVGID_13_);}
	.st31{fill:none;stroke:#FFFFFF;stroke-width:2;stroke-miterlimit:10;}
	.st32{fill:none;stroke:#FFFFFF;stroke-width:3;stroke-miterlimit:10;}
	.st33{clip-path:url(#SVGID_15_);}
	.st34{fill:url(#SVGID_16_);}
	.st35{fill:none;stroke:#FFFFFF;stroke-width:0.5;stroke-miterlimit:10;}
	.st36{clip-path:url(#SVGID_18_);fill:#00B2E3;}
	.st37{clip-path:url(#SVGID_20_);}
	.st38{clip-path:url(#SVGID_22_);}
	.st39{fill:url(#SVGID_23_);}
	.st40{clip-path:url(#SVGID_25_);}
	.st41{fill:url(#SVGID_26_);}
	.st42{fill:url(#SVGID_27_);}
	.st43{fill:url(#SVGID_28_);}
	.st44{fill:url(#SVGID_29_);}
	.st45{clip-path:url(#SVGID_31_);fill:#00B2E3;}
	.st46{clip-path:url(#SVGID_33_);}
	.st47{clip-path:url(#SVGID_35_);}
	.st48{fill:url(#SVGID_36_);}
	.st49{clip-path:url(#SVGID_38_);}
	.st50{clip-path:url(#SVGID_40_);}
	.st51{fill:#280210;}
	.st52{opacity:0.5;}
	.st53{opacity:0.6;}
	.st54{fill:url(#SVGID_41_);}
	.st55{fill:url(#SVGID_42_);}
	.st56{fill:url(#SVGID_43_);}
	.st57{fill:url(#SVGID_44_);}
	.st58{opacity:0.8;}
	.st59{opacity:0.9;}
	.st60{fill:url(#SVGID_45_);}
	.st61{clip-path:url(#SVGID_47_);}
	.st62{clip-path:url(#SVGID_49_);}
	.st63{fill:url(#SVGID_50_);}
	.st64{clip-path:url(#SVGID_52_);}
	.st65{fill:url(#SVGID_53_);}
	.st66{clip-path:url(#SVGID_55_);}
	.st67{fill:url(#SVGID_56_);}
	.st68{clip-path:url(#SVGID_58_);}
	.st69{clip-path:url(#SVGID_60_);fill:#00B2E3;}
	.st70{clip-path:url(#SVGID_62_);}
	.st71{clip-path:url(#SVGID_64_);}
	.st72{fill:none;stroke:#FFFFFF;stroke-width:5;stroke-miterlimit:10;}
	.st73{clip-path:url(#SVGID_66_);fill:#00B2E3;}
	.st74{clip-path:url(#SVGID_68_);}
	.st75{clip-path:url(#SVGID_70_);}
	.st76{clip-path:url(#SVGID_72_);fill:#00B2E3;}
	.st77{clip-path:url(#SVGID_74_);}
	.st78{fill:#5B0323;}
	.st79{fill:url(#SVGID_75_);}
	.st80{fill:url(#SVGID_76_);}
	.st81{fill:url(#SVGID_77_);}
	.st82{clip-path:url(#SVGID_80_);fill:#00B2E3;}
	.st83{clip-path:url(#SVGID_84_);}
	.st84{clip-path:url(#SVGID_86_);}
	.st85{fill-rule:evenodd;clip-rule:evenodd;fill:#FFFFFF;}
	.st86{fill:#E5E5E5;}
	.st87{clip-path:url(#SVGID_88_);}
	.st88{fill-rule:evenodd;clip-rule:evenodd;fill:none;stroke:#E7004C;stroke-width:3;stroke-miterlimit:10;}
	.st89{fill:#020202;}
	.st90{fill:none;stroke:#5B0323;stroke-miterlimit:10;}
	.st91{fill:#070101;}
	.st92{fill:none;stroke:#068FFF;stroke-width:5;stroke-miterlimit:10;}
</style>
<g id="Capa_2">
</g>
<g id="Capa_1">
</g>
<g id="Capa_3">
</g>
<g id="Capa_4">
	<g>
		<g>
			<g>
				<g>
					<path class="st2" d="M103.33,179.33c-0.96,0-1.92-0.04-2.87-0.07l-0.09-2.39c19.56-0.73,37.86-8.93,51.52-23.07
						c13.7-14.18,21.24-32.82,21.24-52.48s-7.54-38.3-21.24-52.48c-13.66-14.14-31.95-22.33-51.52-23.07l0-2.39
						c1.04-0.04,2-0.07,2.96-0.07c43.02,0,78.01,34.99,78.01,78.01S146.35,179.33,103.33,179.33z M131.83,31.28
						c8.03,3.95,15.4,9.3,21.78,15.91c14.13,14.63,21.91,33.85,21.91,54.14s-7.78,39.52-21.91,54.14
						c-6.39,6.61-13.75,11.96-21.78,15.91c27.62-11.28,47.12-38.43,47.12-70.05S159.45,42.55,131.83,31.28z"/>
				</g>
				<g>
					<path class="st2" d="M97.51,197.21c-52.87,0-95.89-43.02-95.89-95.89S44.64,5.44,97.51,5.44c0.74,0,1.48,0.02,2.21,0.05
						l0.74,0.02V7.9C76.13,8.64,53.35,18.7,36.31,36.21C19.24,53.77,9.83,76.9,9.83,101.32s9.4,47.55,26.48,65.11
						c17.04,17.52,39.82,27.57,64.15,28.31l0,2.39l-0.69,0.02C99.02,197.19,98.27,197.21,97.51,197.21z M61.76,14.93
						C27.89,29,4.01,62.43,4.01,101.32c0,38.9,23.88,72.33,57.76,86.4c-10.01-4.83-19.2-11.43-27.17-19.62
						C17.09,150.1,7.44,126.38,7.44,101.32c0-25.05,9.64-48.77,27.15-66.78C42.56,26.36,51.75,19.76,61.76,14.93z"/>
				</g>
			</g>
			<g>
				<g>
					<path class="st11" d="M103.33,145.11c-0.9,0-1.85-0.04-2.99-0.11v-2.38c21.63-1.47,38.57-19.61,38.57-41.29
						s-16.94-39.82-38.57-41.29v-2.38c1.14-0.08,2.09-0.11,2.99-0.11c24.14,0,43.79,19.64,43.79,43.79S127.48,145.11,103.33,145.11z
						 M117.7,62.5c14.05,7.35,23.59,22.09,23.59,38.83s-9.54,31.48-23.59,38.83c15.77-5.85,27.03-21.05,27.03-38.83
						S133.47,68.35,117.7,62.5z"/>
				</g>
				<g>
					<path class="st11" d="M97.51,162.99c-34,0-61.67-27.66-61.67-61.66s27.66-61.67,61.67-61.67c1,0,1.99,0.03,2.97,0.08l0,2.39
						c-31.64,1.51-56.42,27.51-56.42,59.2s24.78,57.7,56.42,59.2l0,2.39C99.49,162.96,98.5,162.99,97.51,162.99z M75.27,46.38
						c-21.7,8.81-37.04,30.12-37.04,54.95c0,24.82,15.33,46.13,37.03,54.94c-20.02-10.22-33.59-31.02-33.59-54.94
						C41.67,77.4,55.24,56.59,75.27,46.38z"/>
				</g>
			</g>
			<g>
				<path class="st2" d="M97.51,127.25c-14.3,0-25.93-11.63-25.93-25.93S83.21,75.4,97.51,75.4c0.94,0,1.94,0.06,3.05,0.19
					l10.11,1.18l-10.11,1.19c-11.84,1.39-20.77,11.44-20.77,23.36c0,11.93,8.93,21.97,20.77,23.36l10.07,1.18l-10.06,1.19
					C99.45,127.19,98.45,127.25,97.51,127.25z M90.29,78.92c-9.46,3.05-16.33,11.94-16.33,22.41s6.86,19.36,16.33,22.41
					c-7.76-4.51-12.89-12.92-12.89-22.41C77.41,91.84,82.53,83.43,90.29,78.92z"/>
			</g>
			<g>
				<path class="st2" d="M103.33,127.25c-0.95,0-1.94-0.06-3.05-0.19l-10.06-1.19l10.06-1.18c11.84-1.39,20.77-11.43,20.77-23.36
					s-8.93-21.97-20.77-23.36l-10.11-1.19l10.11-1.18c1.11-0.13,2.11-0.19,3.05-0.19c14.3,0,25.93,11.63,25.93,25.93
					S117.63,127.25,103.33,127.25z M110.55,78.92c7.76,4.52,12.89,12.92,12.89,22.41c0,9.49-5.13,17.89-12.89,22.41
					c9.46-3.05,16.33-11.94,16.33-22.41S120.01,81.97,110.55,78.92z"/>
			</g>
			<g>
				<path class="st11" d="M100.42,127.07l-0.14-0.02c-13.04-1.53-22.88-12.6-22.88-25.73c0-13.14,9.83-24.2,22.88-25.73l0.14-0.02
					l0.14,0.02c13.04,1.53,22.88,12.6,22.88,25.73c0,13.14-9.83,24.2-22.88,25.73L100.42,127.07z M100.42,77.98
					c-11.77,1.45-20.63,11.47-20.63,23.35c0,11.88,8.86,21.89,20.63,23.34c11.77-1.45,20.63-11.46,20.63-23.34
					C121.05,89.44,112.19,79.43,100.42,77.98z"/>
			</g>
			<g>
				<g>
					<path class="st11" d="M97.51,145.11c-24.14,0-43.79-19.64-43.79-43.79s19.64-43.79,43.79-43.79c0.9,0,1.85,0.04,2.99,0.11v2.38
						c-21.63,1.47-38.57,19.61-38.57,41.29s16.94,39.82,38.57,41.29V145C99.36,145.08,98.41,145.11,97.51,145.11z M83.14,62.5
						c-15.77,5.85-27.03,21.05-27.03,38.83s11.26,32.97,27.03,38.83c-14.05-7.35-23.59-22.09-23.59-38.83S69.09,69.85,83.14,62.5z"
						/>
				</g>
				<g>
					<path class="st11" d="M103.33,162.99c-1,0-1.98-0.03-2.97-0.07l0-2.39c31.64-1.51,56.42-27.51,56.42-59.2
						s-24.78-57.7-56.42-59.2l0-2.39c0.98-0.05,1.97-0.08,2.97-0.08c34,0,61.66,27.66,61.66,61.67S137.34,162.99,103.33,162.99z
						 M125.58,46.38c20.02,10.22,33.6,31.03,33.6,54.95c0,23.92-13.57,44.72-33.59,54.94c21.69-8.82,37.02-30.12,37.02-54.94
						C162.61,76.5,147.27,55.19,125.58,46.38z"/>
				</g>
			</g>
			<g>
				<path class="st2" d="M100.48,162.91c-33.03-1.57-58.81-28.62-58.81-61.59s25.78-60.02,58.7-61.59l0.06,0l0.06,0
					c32.91,1.57,58.7,28.62,58.7,61.59S133.39,161.35,100.48,162.91z M100.42,42.12c-31.61,1.54-56.36,27.53-56.36,59.2
					c0,31.69,24.78,57.7,56.42,59.2c31.52-1.51,56.31-27.51,56.31-59.2C156.78,69.65,132.03,43.66,100.42,42.12z M103.33,145.11
					c-0.88,0-1.81-0.03-2.91-0.11c-1.11,0.07-2.03,0.11-2.91,0.11c-24.14,0-43.79-19.64-43.79-43.79s19.64-43.79,43.79-43.79
					c0.88,0,1.81,0.03,2.91,0.11c1.11-0.07,2.03-0.11,2.91-0.11c24.14,0,43.79,19.64,43.79,43.79S127.48,145.11,103.33,145.11z
					 M100.42,142.61l0.08,0c1.09,0.07,1.99,0.11,2.83,0.11c22.83,0,41.4-18.57,41.4-41.4s-18.57-41.4-41.4-41.4
					c-0.84,0-1.74,0.03-2.83,0.11l-0.08,0l-0.08,0c-1.09-0.07-1.99-0.11-2.83-0.11c-22.83,0-41.4,18.57-41.4,41.4
					s18.57,41.4,41.4,41.4c0.84,0,1.74-0.03,2.83-0.11L100.42,142.61z"/>
			</g>
			<g>
				<g>
					<path class="st2" d="M103.33,197.21c-0.76,0-1.51-0.03-2.26-0.05l-0.69-0.02l0-2.39c24.33-0.74,47.11-10.8,64.15-28.31
						c17.07-17.56,26.48-40.68,26.48-65.11s-9.4-47.55-26.48-65.11C147.5,18.7,124.71,8.64,100.39,7.9V5.51l0.74-0.02
						c0.74-0.03,1.47-0.05,2.21-0.05c52.87,0,95.89,43.02,95.89,95.89S156.21,197.21,103.33,197.21z M139.08,14.93
						c10.01,4.83,19.2,11.43,27.16,19.62c17.51,18.01,27.15,41.72,27.15,66.78s-9.64,48.77-27.15,66.78
						c-7.97,8.19-17.16,14.79-27.17,19.62c33.87-14.07,57.76-47.5,57.76-86.4C196.83,62.43,172.95,29,139.08,14.93z"/>
				</g>
				<g>
					<path class="st2" d="M97.51,179.33c-43.02,0-78.01-34.99-78.01-78.01s35-78.01,78.01-78.01c0.96,0,1.92,0.03,2.87,0.07
						l0.09,2.39C80.9,26.51,62.61,34.7,48.95,48.84c-13.7,14.18-21.24,32.82-21.24,52.48s7.54,38.3,21.24,52.48
						c13.66,14.14,31.95,22.33,51.52,23.07l0,2.39C99.42,179.3,98.47,179.33,97.51,179.33z M69.01,31.28
						C41.4,42.55,21.89,69.7,21.89,101.32s19.51,58.77,47.13,70.05c-8.03-3.94-15.4-9.29-21.78-15.91
						c-14.13-14.63-21.91-33.85-21.91-54.14s7.78-39.52,21.91-54.14C53.62,40.57,60.99,35.22,69.01,31.28z"/>
				</g>
			</g>
			<g>
				<path class="st11" d="M100.46,197.14c-25.03-0.76-48.39-11.07-65.86-29.04C17.09,150.1,7.44,126.38,7.44,101.32
					c0-25.05,9.64-48.77,27.15-66.78C52.07,16.58,75.43,6.27,100.39,5.51h0.07c24.95,0.76,48.32,11.07,65.79,29.04
					c17.51,18.01,27.15,41.72,27.15,66.78s-9.64,48.77-27.15,66.78C148.77,186.07,125.41,196.38,100.46,197.14z M100.42,7.9
					C76.1,8.65,53.34,18.7,36.31,36.21C19.24,53.77,9.83,76.9,9.83,101.32s9.4,47.55,26.48,65.11
					c17.04,17.52,39.82,27.57,64.15,28.31c24.26-0.74,47.04-10.8,64.07-28.31c17.07-17.56,26.48-40.68,26.48-65.11
					s-9.4-47.55-26.48-65.11C147.5,18.7,124.74,8.65,100.42,7.9z M103.33,179.33c-0.96,0-1.92-0.04-2.87-0.07
					c-1.04,0.04-2,0.07-2.96,0.07c-43.02,0-78.01-34.99-78.01-78.01s35-78.01,78.01-78.01c0.96,0,1.92,0.03,2.87,0.07
					c1.04-0.04,2-0.07,2.96-0.07c43.02,0,78.01,34.99,78.01,78.01S146.35,179.33,103.33,179.33z M100.47,176.87
					c1.01,0.04,1.94,0.07,2.87,0.07c41.7,0,75.62-33.92,75.62-75.62S145.03,25.7,103.33,25.7c-0.93,0-1.85,0.03-2.78,0.07l-0.18,0
					c-1.01-0.04-1.94-0.07-2.87-0.07c-41.7,0-75.62,33.92-75.62,75.62s33.92,75.62,75.62,75.62c0.93,0,1.86-0.04,2.78-0.07
					L100.47,176.87z"/>
			</g>
			<g id="ssynEm_5_">
				<g>
					<g>
						<path class="st89" d="M92.2,116.89v-30l26.15,15L92.2,116.89z M94.58,91.02v21.75l18.96-10.87L94.58,91.02z"/>
					</g>
				</g>
			</g>
		</g>
	</g>
</g>
<g id="Capa_6">
</g>
<g id="Capa_5">
</g>
</svg>
