<?xml version="1.0" encoding="utf-8"?>
<!-- Generator: Adobe Illustrator 24.0.3, SVG Export Plug-In . SVG Version: 6.00 Build 0)  -->
<svg version="1.1" xmlns="http://www.w3.org/2000/svg" xmlns:xlink="http://www.w3.org/1999/xlink" x="0px" y="0px"
	 viewBox="0 0 168.19 168.34" style="enable-background:new 0 0 168.19 168.34;" xml:space="preserve">
<style type="text/css">
	.st0{fill:none;stroke:#E7004C;stroke-miterlimit:10;}
	.st1{fill:#FFFFFF;}
	.st2{fill:url(#SVGID_1_);}
	.st3{fill:#E7004C;}
	.st4{fill:#42050E;}
	.st5{fill:none;stroke:#FFFFFF;stroke-width:0.75;stroke-miterlimit:10;}
	.st6{fill-rule:evenodd;clip-rule:evenodd;fill:#FFFFFF;}
	.st7{fill:none;stroke:#00B2E3;stroke-miterlimit:10;}
	.st8{fill:url(#SVGID_2_);}
	.st9{fill:#FCFCFC;}
	.st10{fill:url(#SVGID_3_);}
	.st11{fill:url(#SVGID_4_);}
	.st12{opacity:0.8;fill:#E7004C;}
	.st13{opacity:0.7;fill:#E7004C;}
	.st14{opacity:0.7;}
	.st15{fill:#00B2E3;}
	.st16{opacity:0.8;fill:#00B2E3;}
	.st17{opacity:0.7;fill:#00B2E3;}
	.st18{fill:#BBBBBB;}
	.st19{opacity:0.8;fill:#BBBBBB;}
	.st20{opacity:0.7;fill:#BBBBBB;}
	.st21{fill:url(#SVGID_5_);}
	.st22{fill:url(#SVGID_6_);}
	.st23{fill:none;stroke:#E7004C;stroke-width:2;stroke-miterlimit:10;}
	.st24{fill:url(#SVGID_7_);}
	.st25{fill:url(#SVGID_8_);}
	.st26{fill:url(#SVGID_9_);}
	.st27{fill:none;stroke:#FFFFFF;stroke-miterlimit:10;}
	.st28{fill-rule:evenodd;clip-rule:evenodd;fill:#E7004C;}
	.st29{fill:none;stroke:#000000;stroke-miterlimit:10;}
	.st30{fill:#38A8E0;}
	.st31{clip-path:url(#SVGID_11_);fill:#00B2E3;}
	.st32{fill:none;stroke:#E7004C;stroke-width:3;stroke-miterlimit:10;}
	.st33{clip-path:url(#SVGID_13_);}
	.st34{fill:none;stroke:#FFFFFF;stroke-width:2;stroke-miterlimit:10;}
	.st35{fill:none;stroke:#FFFFFF;stroke-width:3;stroke-miterlimit:10;}
	.st36{clip-path:url(#SVGID_15_);}
	.st37{fill:url(#SVGID_16_);}
	.st38{fill:none;stroke:#FFFFFF;stroke-width:0.5;stroke-miterlimit:10;}
	.st39{clip-path:url(#SVGID_18_);fill:#00B2E3;}
	.st40{clip-path:url(#SVGID_20_);}
	.st41{clip-path:url(#SVGID_22_);}
	.st42{fill:url(#SVGID_23_);}
	.st43{clip-path:url(#SVGID_25_);}
	.st44{fill:url(#SVGID_26_);}
	.st45{fill:url(#SVGID_27_);}
	.st46{fill:url(#SVGID_28_);}
	.st47{fill:url(#SVGID_29_);}
	.st48{clip-path:url(#SVGID_31_);fill:#00B2E3;}
	.st49{clip-path:url(#SVGID_33_);}
	.st50{clip-path:url(#SVGID_35_);}
	.st51{fill:url(#SVGID_36_);}
	.st52{clip-path:url(#SVGID_38_);}
	.st53{clip-path:url(#SVGID_40_);}
	.st54{fill:#280210;}
	.st55{opacity:0.5;}
	.st56{opacity:0.6;}
	.st57{fill:url(#SVGID_41_);}
	.st58{fill:url(#SVGID_42_);}
	.st59{fill:url(#SVGID_43_);}
	.st60{fill:url(#SVGID_44_);}
	.st61{opacity:0.8;}
	.st62{opacity:0.9;}
	.st63{fill:url(#SVGID_45_);}
	.st64{clip-path:url(#SVGID_47_);}
	.st65{clip-path:url(#SVGID_49_);}
	.st66{clip-path:url(#SVGID_51_);}
	.st67{fill:url(#SVGID_52_);}
	.st68{clip-path:url(#SVGID_54_);}
	.st69{fill:url(#SVGID_55_);}
	.st70{clip-path:url(#SVGID_57_);}
	.st71{fill:url(#SVGID_58_);}
	.st72{clip-path:url(#SVGID_60_);fill:#00B2E3;}
	.st73{clip-path:url(#SVGID_62_);}
	.st74{clip-path:url(#SVGID_64_);}
	.st75{fill:none;stroke:#FFFFFF;stroke-width:5;stroke-miterlimit:10;}
	.st76{clip-path:url(#SVGID_66_);fill:#00B2E3;}
	.st77{clip-path:url(#SVGID_68_);}
	.st78{clip-path:url(#SVGID_70_);}
	.st79{clip-path:url(#SVGID_72_);fill:#00B2E3;}
	.st80{clip-path:url(#SVGID_74_);}
	.st81{fill:#5B0323;}
	.st82{fill:url(#SVGID_75_);}
	.st83{fill:url(#SVGID_76_);}
	.st84{fill:url(#SVGID_77_);}
	.st85{clip-path:url(#SVGID_80_);fill:#00B2E3;}
	.st86{clip-path:url(#SVGID_84_);}
	.st87{fill-rule:evenodd;clip-rule:evenodd;fill:#00B2E3;}
	.st88{clip-path:url(#SVGID_86_);}
	.st89{clip-path:url(#SVGID_88_);}
	.st90{opacity:0.3;fill:#6B0303;}
	.st91{opacity:0.3;}
	.st92{fill-rule:evenodd;clip-rule:evenodd;fill:#6B0303;}
	.st93{fill:#6B0303;}
	.st94{clip-path:url(#SVGID_90_);}
	.st95{clip-path:url(#SVGID_92_);}
	.st96{fill:#E5E5E5;}
	.st97{clip-path:url(#SVGID_94_);}
	.st98{fill:#020202;}
	.st99{fill:none;stroke:#5B0323;stroke-miterlimit:10;}
	.st100{fill:#070101;}
	.st101{fill:none;stroke:#068FFF;stroke-width:5;stroke-miterlimit:10;}
</style>
<g id="Capa_2">
</g>
<g id="Capa_1">
</g>
<g id="Capa_3">
	<circle class="st3" cx="84.17" cy="84.17" r="84.17"/>
	<g class="st91">
		<g>
			<path class="st92" d="M59.31,71.93v52.15h-4.1c-3.18,0-5.78-2.6-5.78-5.78V64.47L59.31,71.93z"/>
			<path class="st92" d="M128.79,71.93v52.15h4.1c3.18,0,5.78-2.6,5.78-5.78V64.47L128.79,71.93z"/>
			<polygon class="st92" points="54.23,59.08 134.09,59.09 94.05,85.48 			"/>
			<path class="st92" d="M57.17,59.95l36.88,25.53l36.88-25.53c2.23-1.55,5.33-0.98,6.87,1.25l0,0c0.63,0.91,0.91,1.96,0.87,2.99v0
				l0,2.46c-0.7,0.52-1.43,0.94-2.12,1.42l-42.5,29.42l-42.5-29.42c-0.7-0.48-1.43-0.91-2.12-1.42l0-2.46v0
				c-0.04-1.03,0.24-2.08,0.87-2.99l0,0C51.85,58.97,54.94,58.41,57.17,59.95z"/>
			<polygon class="st92" points="59.31,73.45 49.43,66.65 59.31,77.31 			"/>
			<polygon class="st92" points="128.79,73.45 138.67,66.65 128.79,77.31 			"/>
		</g>
		<path class="st92" d="M131.79,124.07H59.31h-4.1V67.7l18.51,10.59l14.68,8.87c0,0,5.35,4.12,5.65,3.72
			c0.3-0.39,14.27-4.42,15.1-5.4c0.83-0.98,19.64-13.55,19.64-13.55l2.65-4.23l2.29,15.47c0,0,0.46,20.13,0,21.96
			S131.79,124.07,131.79,124.07z"/>
	</g>
	<g>
		<g>
			<g>
				<path class="st6" d="M49.43,63.69v52.15h-4.1c-3.18,0-5.78-2.6-5.78-5.78V56.24L49.43,63.69z"/>
			</g>
			<g>
				<path class="st6" d="M118.91,63.69v52.15h4.1c3.18,0,5.78-2.6,5.78-5.78V56.24L118.91,63.69z"/>
			</g>
			<g>
				<path class="st1" d="M47.67,51.85l73.2,0.01l-36.7,24.19L47.67,51.85 M44.35,50.85l39.82,26.4l40.04-26.39L44.35,50.85
					L44.35,50.85z"/>
			</g>
			<g>
				<path class="st6" d="M47.29,51.72l36.88,25.53l36.88-25.53c2.23-1.55,5.33-0.98,6.87,1.25l0,0c0.63,0.91,0.91,1.96,0.87,2.99v0
					l0,2.46c-0.7,0.52-1.43,0.94-2.12,1.42l-42.5,29.42l-42.5-29.42c-0.7-0.48-1.43-0.91-2.12-1.42l0-2.46v0
					c-0.04-1.03,0.24-2.08,0.87-2.99l0,0C41.97,50.74,45.06,50.18,47.29,51.72z"/>
			</g>
			<g>
				<polygon class="st6" points="49.43,65.21 39.55,58.42 49.43,69.08 				"/>
			</g>
			<g>
				<polygon class="st6" points="118.91,65.21 128.79,58.42 118.91,69.08 				"/>
			</g>
		</g>
		<g>
			<g>
				<path class="st1" d="M46.33,61.19l17,9.72l14.63,8.84c5.1,3.92,5.83,3.92,6.14,3.92c0.25,0,0.48-0.08,0.67-0.22
					c0.49-0.22,2.76-0.95,4.77-1.6c7.89-2.53,9.95-3.31,10.48-3.94c0.83-0.83,12.37-8.66,19.45-13.39l0.18-0.12l0.11-0.18l1.21-1.93
					l1.89,12.72c0.18,7.73,0.34,20.39,0.03,21.62c-0.42,1.67-1.56,14.38-1.89,18.2H49.43h-3.1V61.19 M121.56,59.47l-2.65,4.23
					c0,0-18.81,12.57-19.64,13.55c-0.83,0.98-14.8,5.01-15.1,5.4c-0.01,0.02-0.04,0.03-0.07,0.03c-0.7,0-5.57-3.75-5.57-3.75
					l-14.68-8.87L45.33,59.47v56.38h4.1h72.48c0,0,1.48-17.12,1.94-18.95c0.46-1.83,0-21.96,0-21.96L121.56,59.47L121.56,59.47z"/>
			</g>
		</g>
	</g>
</g>
<g id="Capa_4">
</g>
<g id="Capa_6">
</g>
<g id="Capa_5">
</g>
</svg>
