<?xml version="1.0" encoding="utf-8"?>
<!-- Generator: Adobe Illustrator 24.0.3, SVG Export Plug-In . SVG Version: 6.00 Build 0)  -->
<svg version="1.1" xmlns="http://www.w3.org/2000/svg" xmlns:xlink="http://www.w3.org/1999/xlink" x="0px" y="0px"
	 viewBox="0 0 168.51 168.34" style="enable-background:new 0 0 168.51 168.34;" xml:space="preserve">
<style type="text/css">
	.st0{fill:none;stroke:#E7004C;stroke-miterlimit:10;}
	.st1{fill:#FFFFFF;}
	.st2{fill:url(#SVGID_1_);}
	.st3{fill:#E7004C;}
	.st4{fill:#42050E;}
	.st5{fill:none;stroke:#FFFFFF;stroke-width:0.75;stroke-miterlimit:10;}
	.st6{fill-rule:evenodd;clip-rule:evenodd;fill:#FFFFFF;}
	.st7{fill:none;stroke:#00B2E3;stroke-miterlimit:10;}
	.st8{fill:url(#SVGID_2_);}
	.st9{fill:#FCFCFC;}
	.st10{fill:url(#SVGID_3_);}
	.st11{fill:url(#SVGID_4_);}
	.st12{opacity:0.8;fill:#E7004C;}
	.st13{opacity:0.7;fill:#E7004C;}
	.st14{opacity:0.7;}
	.st15{fill:#00B2E3;}
	.st16{opacity:0.8;fill:#00B2E3;}
	.st17{opacity:0.7;fill:#00B2E3;}
	.st18{fill:#BBBBBB;}
	.st19{opacity:0.8;fill:#BBBBBB;}
	.st20{opacity:0.7;fill:#BBBBBB;}
	.st21{fill:url(#SVGID_5_);}
	.st22{fill:url(#SVGID_6_);}
	.st23{fill:none;stroke:#E7004C;stroke-width:2;stroke-miterlimit:10;}
	.st24{fill:url(#SVGID_7_);}
	.st25{fill:url(#SVGID_8_);}
	.st26{fill:url(#SVGID_9_);}
	.st27{fill:none;stroke:#FFFFFF;stroke-miterlimit:10;}
	.st28{fill-rule:evenodd;clip-rule:evenodd;fill:#E7004C;}
	.st29{fill:none;stroke:#000000;stroke-miterlimit:10;}
	.st30{fill:#38A8E0;}
	.st31{clip-path:url(#SVGID_11_);fill:#00B2E3;}
	.st32{fill:none;stroke:#E7004C;stroke-width:3;stroke-miterlimit:10;}
	.st33{clip-path:url(#SVGID_13_);}
	.st34{fill:none;stroke:#FFFFFF;stroke-width:2;stroke-miterlimit:10;}
	.st35{fill:none;stroke:#FFFFFF;stroke-width:3;stroke-miterlimit:10;}
	.st36{clip-path:url(#SVGID_15_);}
	.st37{fill:url(#SVGID_16_);}
	.st38{fill:none;stroke:#FFFFFF;stroke-width:0.5;stroke-miterlimit:10;}
	.st39{clip-path:url(#SVGID_18_);fill:#00B2E3;}
	.st40{clip-path:url(#SVGID_20_);}
	.st41{clip-path:url(#SVGID_22_);}
	.st42{fill:url(#SVGID_23_);}
	.st43{clip-path:url(#SVGID_25_);}
	.st44{fill:url(#SVGID_26_);}
	.st45{fill:url(#SVGID_27_);}
	.st46{fill:url(#SVGID_28_);}
	.st47{fill:url(#SVGID_29_);}
	.st48{clip-path:url(#SVGID_31_);fill:#00B2E3;}
	.st49{clip-path:url(#SVGID_33_);}
	.st50{clip-path:url(#SVGID_35_);}
	.st51{fill:url(#SVGID_36_);}
	.st52{clip-path:url(#SVGID_38_);}
	.st53{clip-path:url(#SVGID_40_);}
	.st54{fill:#280210;}
	.st55{opacity:0.5;}
	.st56{opacity:0.6;}
	.st57{fill:url(#SVGID_41_);}
	.st58{fill:url(#SVGID_42_);}
	.st59{fill:url(#SVGID_43_);}
	.st60{fill:url(#SVGID_44_);}
	.st61{opacity:0.8;}
	.st62{opacity:0.9;}
	.st63{fill:url(#SVGID_45_);}
	.st64{clip-path:url(#SVGID_47_);}
	.st65{clip-path:url(#SVGID_49_);}
	.st66{clip-path:url(#SVGID_51_);}
	.st67{fill:url(#SVGID_52_);}
	.st68{clip-path:url(#SVGID_54_);}
	.st69{fill:url(#SVGID_55_);}
	.st70{clip-path:url(#SVGID_57_);}
	.st71{fill:url(#SVGID_58_);}
	.st72{clip-path:url(#SVGID_60_);fill:#00B2E3;}
	.st73{clip-path:url(#SVGID_62_);}
	.st74{clip-path:url(#SVGID_64_);}
	.st75{fill:none;stroke:#FFFFFF;stroke-width:5;stroke-miterlimit:10;}
	.st76{clip-path:url(#SVGID_66_);fill:#00B2E3;}
	.st77{clip-path:url(#SVGID_68_);}
	.st78{clip-path:url(#SVGID_70_);}
	.st79{clip-path:url(#SVGID_72_);fill:#00B2E3;}
	.st80{clip-path:url(#SVGID_74_);}
	.st81{fill:#5B0323;}
	.st82{fill:url(#SVGID_75_);}
	.st83{fill:url(#SVGID_76_);}
	.st84{fill:url(#SVGID_77_);}
	.st85{clip-path:url(#SVGID_80_);fill:#00B2E3;}
	.st86{clip-path:url(#SVGID_84_);}
	.st87{fill-rule:evenodd;clip-rule:evenodd;fill:#00B2E3;}
	.st88{clip-path:url(#SVGID_86_);}
	.st89{clip-path:url(#SVGID_88_);}
	.st90{opacity:0.3;fill:#6B0303;}
	.st91{opacity:0.3;}
	.st92{fill-rule:evenodd;clip-rule:evenodd;fill:#6B0303;}
	.st93{fill:#6B0303;}
	.st94{clip-path:url(#SVGID_90_);}
	.st95{clip-path:url(#SVGID_92_);}
	.st96{fill:#E5E5E5;}
	.st97{clip-path:url(#SVGID_94_);}
	.st98{fill:#020202;}
	.st99{fill:none;stroke:#5B0323;stroke-miterlimit:10;}
	.st100{fill:#070101;}
	.st101{fill:none;stroke:#068FFF;stroke-width:5;stroke-miterlimit:10;}
</style>
<g id="Capa_2">
</g>
<g id="Capa_1">
</g>
<g id="Capa_3">
	<circle class="st3" cx="84.17" cy="84.17" r="84.17"/>
	<g class="st91">
		<g>
			<path class="st93" d="M92.48,50.65C71.23,50.65,54,67.87,54,89.12c0,10.55,5.58,19.97,5.58,19.97l-6.73,20.49l21.08-6.74
				c0,0,7.83,4.75,18.54,4.75c21.25,0,38.48-17.23,38.48-38.48C130.96,67.87,113.73,50.65,92.48,50.65z M92.48,121.44
				c-9.89,0-17.81-5.35-17.81-5.35l-12.15,3.97l3.94-11.77c0,0-6.3-8.72-6.3-19.17c0-17.85,14.47-32.32,32.32-32.32
				c17.85,0,32.32,14.47,32.32,32.32C124.8,106.97,110.33,121.44,92.48,121.44z"/>
			<path class="st93" d="M77.83,72.37c0,0,1.04-0.66,1.58-0.66c0.54,0,3.03,0,3.03,0s0.81,0.14,1.19,0.99
				c0.37,0.85,2.93,6.85,3.12,7.31c0.19,0.46,0.69,1.61-0.11,2.64s-2.46,2.94-2.46,2.94s-0.66,0.59-0.09,1.54
				c0.57,0.94,2.58,4.06,5.21,6.41c2.63,2.35,5.84,4.09,7.45,4.61c1.6,0.53,1.95-0.18,2.57-0.97c0.62-0.79,2.53-3.21,2.53-3.21
				s0.66-0.97,1.95-0.37c1.3,0.59,7.6,3.65,7.6,3.65s0.77,0.13,0.81,0.99c0.04,0.86,0.57,3.42-1.71,5.89
				c-2.28,2.47-7.14,3.61-9.44,2.96c-2.3-0.64-9.91-2.63-14.87-7.26s-8.98-9.5-10.62-13.09c-1.64-3.59-1.55-5.72-1.46-6.73
				S74.71,74.37,77.83,72.37z"/>
		</g>
	</g>
	<g>
		<g>
			<path class="st1" d="M83.48,42.06C62.23,42.06,45,59.29,45,80.54c0,10.55,5.58,19.97,5.58,19.97L43.86,121l21.08-6.74
				c0,0,7.83,4.75,18.54,4.75c21.25,0,38.48-17.23,38.48-38.48C121.96,59.29,104.73,42.06,83.48,42.06z M83.48,112.86
				c-9.89,0-17.81-5.35-17.81-5.35l-12.15,3.97l3.94-11.77c0,0-6.3-8.72-6.3-19.17c0-17.85,14.47-32.32,32.32-32.32
				c17.85,0,32.32,14.47,32.32,32.32C115.8,98.39,101.33,112.86,83.48,112.86z"/>
			<path class="st1" d="M68.83,63.79c0,0,1.04-0.66,1.58-0.66c0.54,0,3.03,0,3.03,0s0.81,0.14,1.19,0.99
				c0.37,0.85,2.93,6.85,3.12,7.31c0.19,0.46,0.69,1.61-0.11,2.64s-2.46,2.94-2.46,2.94s-0.66,0.59-0.09,1.54
				c0.57,0.94,2.58,4.06,5.21,6.41c2.63,2.35,5.84,4.09,7.45,4.61c1.6,0.53,1.95-0.18,2.57-0.97c0.62-0.79,2.53-3.21,2.53-3.21
				s0.66-0.97,1.95-0.37c1.3,0.59,7.6,3.65,7.6,3.65s0.77,0.13,0.81,0.99c0.04,0.86,0.57,3.42-1.71,5.89
				c-2.28,2.47-7.14,3.61-9.44,2.96c-2.3-0.64-9.91-2.63-14.87-7.26s-8.98-9.5-10.62-13.09c-1.64-3.59-1.55-5.72-1.46-6.73
				S65.71,65.79,68.83,63.79z"/>
		</g>
	</g>
</g>
<g id="Capa_4">
</g>
<g id="Capa_6">
</g>
<g id="Capa_5">
</g>
</svg>
