<?xml version="1.0" encoding="utf-8"?>
<!-- Generator: Adobe Illustrator 24.0.3, SVG Export Plug-In . SVG Version: 6.00 Build 0)  -->
<svg version="1.1" xmlns="http://www.w3.org/2000/svg" xmlns:xlink="http://www.w3.org/1999/xlink" x="0px" y="0px"
	 viewBox="0 0 1080 1080" style="enable-background:new 0 0 1080 1080;" xml:space="preserve">
<style type="text/css">
	.st0{fill:none;stroke:#00B2E3;stroke-width:3;stroke-miterlimit:10;}
	.st1{fill:#FFFFFF;stroke:#000000;stroke-width:5;stroke-miterlimit:10;}
	.st2{stroke:#FFFFFF;stroke-width:4;stroke-miterlimit:10;}
	.st3{fill:#FFFFFF;}
	.st4{fill:none;stroke:#FFFFFF;stroke-width:2;stroke-miterlimit:10;}
	.st5{fill:#FFFFFF;stroke:#000000;stroke-width:3;stroke-miterlimit:10;}
	.st6{fill:none;stroke:#000000;stroke-width:5;stroke-miterlimit:10;}
	.st7{fill:#FFFFFF;stroke:#000000;stroke-width:4;stroke-miterlimit:10;}
	.st8{fill:none;stroke:#000000;stroke-width:3;stroke-miterlimit:10;}
	.st9{fill:none;stroke:#000000;stroke-width:2;stroke-miterlimit:10;}
	.st10{fill:#FFFFFF;stroke:#000000;stroke-width:2;stroke-miterlimit:10;}
	.st11{stroke:#FFFFFF;stroke-width:5;stroke-miterlimit:10;}
	.st12{stroke:#000000;stroke-width:5;stroke-miterlimit:10;}
	.st13{stroke:#FFFFFF;stroke-width:2;stroke-miterlimit:10;}
	.st14{fill:#CCCCCC;}
</style>
<g id="Capa_2">
</g>
<g id="_x30_3_x5F_PIERNA_x5F_IZQ">
</g>
<g id="_x30_3_x5F_PIERNA_x5F_DER">
</g>
<g id="_x30_3_x5F_CUERPO">
</g>
<g id="_x30_3_x5F_BRAZO_x5F_DER">
</g>
<g id="_x30_3_x5F_HOMBRO_x5F_DER">
</g>
<g id="_x30_3_x5F_BRAZO_x5F_IZQ">
</g>
<g id="_x30_3_x5F_HOMBRO_x5F_IZQ">
</g>
<g id="_x30_3_x5F_OREJA_x5F_DER">
</g>
<g id="_x30_3_x5F_OREJA_x5F_IZQ">
</g>
<g id="_x30_3_x5F_CABEZA">
</g>
<g id="_x30_3_x5F_PUPILAS">
	<ellipse class="st0" cx="539.42" cy="966.91" rx="323.15" ry="36.41"/>
</g>
<g id="_x30_3_x5F_MECHON">
	<g>
		<g>
			<path class="st1" d="M660.25,924.89c0.09-0.58,0.17-1.26,0.24-1.69c12.61-86.75-13.84-166.08-39.18-251.69
				c2.24,7.58,26.41-1.77,28.8,5.77c27,85.17,52.98,159.38,38.74,247.32c0,0,18.96,36.33,14.05,40.31
				c-4.92,3.98-39.76,3.12-48.55,1.83c-8.78-1.29,6.15-43.54,6.15-43.54"/>
		</g>
		<g>
			<path d="M683.9,968.94c-0.16-2.94-0.3-5.62-0.55-8.26c-0.24-2.63-0.62-5.17-1.15-7.66c-0.12-0.63-0.23-1.26-0.42-1.86l-0.46-1.86
				c-0.41-1.21-0.71-2.47-1.2-3.68c-0.8-2.52-1.99-4.89-3.02-7.69c2.57,1.39,4.86,3.39,6.5,5.87c0.91,1.19,1.52,2.56,2.18,3.91
				c0.52,1.4,1.05,2.81,1.31,4.29c0.61,2.93,0.68,5.96,0.17,8.86C686.73,963.76,685.72,966.6,683.9,968.94z"/>
		</g>
		<path d="M653.8,681.53l16.56,57.02c0,0-8.61,15.19-25.67,8.7l-20-61.29"/>
		<g>
			<path class="st1" d="M451.83,923.88c-0.09-0.58-0.17-1.26-0.24-1.69c-12.61-86.75,13.84-166.08,39.18-251.69
				c-2.24,7.58-26.41-1.77-28.8,5.77c-27,85.17-52.98,159.38-38.74,247.32c0,0-18.96,36.33-14.05,40.31
				c4.92,3.98,39.76,3.12,48.55,1.83s-6.15-43.54-6.15-43.54"/>
		</g>
		<g>
			<path d="M428.18,967.93c-1.83-2.35-2.84-5.19-3.36-8.08c-0.51-2.91-0.45-5.93,0.17-8.86c0.26-1.47,0.79-2.89,1.31-4.29
				c0.65-1.35,1.27-2.72,2.18-3.91c1.64-2.48,3.93-4.48,6.5-5.87c-1.03,2.8-2.22,5.18-3.02,7.69c-0.49,1.21-0.79,2.47-1.2,3.68
				l-0.46,1.86c-0.19,0.61-0.3,1.23-0.42,1.86c-0.53,2.49-0.91,5.03-1.15,7.66C428.48,962.31,428.34,965,428.18,967.93z"/>
		</g>
		<path d="M455.66,695.03l-16.56,57.02c0,0,8.61,15.19,25.67,8.7l20-61.29"/>
		<path class="st3" d="M746.86,519.97c-0.06-2.62-0.46-21.34-0.46-21.34s6.89-2.34,5.71-7.5c-1.18-5.17-9.36-8.47-9.36-8.47
			s11.71-6.75,9.88-17.28c-1.84-10.54-15.55-9.25-15.55-9.25c0.16-2.6-4.91-11.5-4.91-11.5l0.02-0.02c0.24-0.26,2.82-3.06,4.49-6.97
			c1.54-3.57,2.32-8.08-0.1-12.43c-4.77-8.57-15.21-5.72-15.46-5.66c0.11-0.18,1.62-2.79-1.18-12.73
			c-2.9-10.31-11.12-10.53-11.12-10.53c7.62-10.74,5.02-24.25-2.98-30.46c-7.99-6.21-16.55,2.55-16.55,2.55l-8.63-8.89
			c0,0,0.57-10.79-6.73-13.79c-7.29-3-14.32,0.31-14.32,0.31s1.49-17.97-7.85-22.54c-9.34-4.56-18.79,5.66-18.79,5.66
			s0.4-11.09-3.9-11.93c-4.31-0.84-6.93,6.67-6.93,6.67s-2.16-15.46-11.06-17.42c-7.54-1.67-10.95,8.31-11.81,11.41
			c1.47-7.36-8.37-15.91-15.26-13.75c-7.19,2.25-4.25,13.55-4.25,13.55l-22.25-1.02c0,0-1.03-10.44-7.95-8.77
			c-6.93,1.68-9.98,9.15-9.98,9.15s1.34-15.81-14.29-13.75c-15.32,2.03-11.81,13.83-11.67,14.3c-0.22-0.52-6.32-14.73-18.31-10.35
			c-12.22,4.45-9.87,19.6-9.87,19.6s-9.14-9.99-19.96-8.19c-10.81,1.8-11.18,16.71-11.18,16.71s-6.19-13.82-19.93-5.14
			c-13.4,8.46-9.12,21.55-8.9,22.2c-0.28-0.48-5.65-9.8-11.36-5.78c-12.09,8.51-8.31,20.59-8.12,21.17
			c-0.37-0.46-7.28-9.19-11.28-1.53c-4.03,7.72-0.81,17.02-0.7,17.37c-0.28-0.32-7.27-8.04-13.36,0.9
			c-6.23,9.11-0.89,20.67-0.89,20.67s-11.25-4.04-15.32,5.92c-4.06,9.96,5.77,19.03,5.77,19.03s-16.38-5.18-19.26,10.45
			c-2.88,15.63,7.88,19.45,7.88,19.45c-1.91,5.85-4,15.27-4.13,15.84c0,0.02-0.01,0.03-0.01,0.03s-14.39,0.17-15.36,16.95
			c-0.95,16.29,11.26,22.7,11.98,23.07c-4.6-1.94-12.66,7.49-11.77,11.34c0.86,3.76,9.5,6.49,10.03,6.66
			c-0.74-0.07-18.75-1.69-17.93,12.07c0.79,13.17,16.44,17.34,18.4,17.81c-5.6-1.12-11.41,7.86-9.94,14.63
			c1.49,6.86,15.06,8.06,15.06,8.06s-3.76,6.66,0.24,11.07c3.78,4.15,5.51,2.69,5.7,2.51c-0.41,0.51-8.41,10.57-4.11,16.31
			c4.41,5.89,9.49,5.61,9.49,5.61c1.16,2.82,8.28,11.08,8.28,11.08s-8.14,7.56-2.36,14.91c5.78,7.35,12.7,5.49,12.7,5.49
			s-4.95,6.4,0.28,12.86c5.22,6.48,11.88,4.53,11.88,4.53s-6.8,7.93,0.27,12.27c7.05,4.33,10.47,1.27,10.47,1.27
			c-3.85,7.86-1.69,20.98,6.13,23.51c7.83,2.53,13.74-7.3,13.74-7.3c4.17,3.61,13.15,12.4,13.15,12.4s-1.94,9.33,2.39,11.32
			c4.33,2,10.33-5.17,10.33-5.17s-5.01,15.84,11.97,21.15c8.87,2.78,10.17-9.73,10.17-9.73c1.89,0.83,17.79,6.7,17.79,6.7
			s-6.64,10.2,8.68,13.46c6.2,1.32,10.74-8.43,10.74-8.43s-1.02,11.96,14,13.43c8.95,0.87,10.34-10.23,10.34-10.23
			s4.81,17.08,17.65,16.81c12.85-0.28,10.88-16.76,10.88-16.76c3.79,0.15,15.49-2.58,15.49-2.58s1.6,12.46,15.99,9.45
			c14.4-3.01,12.52-17.04,12.52-17.04s6.36,10.34,17.22,5.33c8.08-3.74,7.94-16.42,7.94-16.42s1.74,5.74,9.72,2.87
			c7.05-2.54,7.72-11.09,7.77-13.01c0.2,5.28,11.99,5.92,16.1,2.62c4.21-3.39-3.11-12.6-1.8-13.66c1.31-1.06,10.32-9.03,10.32-9.03
			s7.7,5.28,10.34,3.43c2.59-1.82-0.39-10.72-0.5-11.05c0.26,0.25,6.4,6,11.77-0.26c5.49-6.41-0.74-14.78-0.74-14.78l8-10.77
			c0,0,3.5,3.17,8.46-2.63c4.96-5.79,3.45-16.48,3.45-16.48s5.13,4.92,13.19-6.33c7.93-11.07,3.62-24.77,3.48-25.21
			c0.28,0.07,6.31,1.59,11.2-14.02c5.01-15.97-1.22-19.42-1.22-19.42s6.97,0.45,9.52-5.3c2.56-5.74-9.07-13.45-9.07-13.45
			s14.12-0.72,17.25-17.25C765.49,524.05,746.86,519.97,746.86,519.97z"/>
		<path class="st6" d="M746.86,519.97c-0.06-2.62-0.46-21.34-0.46-21.34s6.89-2.34,5.71-7.5c-1.18-5.17-9.36-8.47-9.36-8.47
			s11.71-6.75,9.88-17.28c-1.84-10.54-15.55-9.25-15.55-9.25c0.16-2.6-4.91-11.5-4.91-11.5l0.02-0.02c0.24-0.26,2.82-3.06,4.49-6.97
			c1.54-3.57,2.32-8.08-0.1-12.43c-4.77-8.57-15.21-5.72-15.46-5.66c0.11-0.18,1.62-2.79-1.18-12.73
			c-2.9-10.31-11.12-10.53-11.12-10.53c7.62-10.74,5.02-24.25-2.98-30.46c-7.99-6.21-16.55,2.55-16.55,2.55l-8.63-8.89
			c0,0,0.57-10.79-6.73-13.79c-7.29-3-14.32,0.31-14.32,0.31s1.49-17.97-7.85-22.54c-9.34-4.56-18.79,5.66-18.79,5.66
			s0.4-11.09-3.9-11.93c-4.31-0.84-6.93,6.67-6.93,6.67s-2.16-15.46-11.06-17.42c-7.54-1.67-10.95,8.31-11.81,11.41
			c1.47-7.36-8.37-15.91-15.26-13.75c-7.19,2.25-4.25,13.55-4.25,13.55l-22.25-1.02c0,0-1.03-10.44-7.95-8.77
			c-6.93,1.68-9.98,9.15-9.98,9.15s1.34-15.81-14.29-13.75c-15.32,2.03-11.81,13.83-11.67,14.3c-0.22-0.52-6.32-14.73-18.31-10.35
			c-12.22,4.45-9.87,19.6-9.87,19.6s-9.14-9.99-19.96-8.19c-10.81,1.8-11.18,16.71-11.18,16.71s-6.19-13.82-19.93-5.14
			c-13.4,8.46-9.12,21.55-8.9,22.2c-0.28-0.48-5.65-9.8-11.36-5.78c-12.09,8.51-8.31,20.59-8.12,21.17
			c-0.37-0.46-7.28-9.19-11.28-1.53c-4.03,7.72-0.81,17.02-0.7,17.37c-0.28-0.32-7.27-8.04-13.36,0.9
			c-6.23,9.11-0.89,20.67-0.89,20.67s-11.25-4.04-15.32,5.92c-4.06,9.96,5.77,19.03,5.77,19.03s-16.38-5.18-19.26,10.45
			c-2.88,15.63,7.88,19.45,7.88,19.45c-1.91,5.85-4,15.27-4.13,15.84c0,0.02-0.01,0.03-0.01,0.03s-14.39,0.17-15.36,16.95
			c-0.95,16.29,11.26,22.7,11.98,23.07c-4.6-1.94-12.66,7.49-11.77,11.34c0.86,3.76,9.5,6.49,10.03,6.66
			c-0.74-0.07-18.75-1.69-17.93,12.07c0.79,13.17,16.44,17.34,18.4,17.81c-5.6-1.12-11.41,7.86-9.94,14.63
			c1.49,6.86,15.06,8.06,15.06,8.06s-3.76,6.66,0.24,11.07c3.78,4.15,5.51,2.69,5.7,2.51c-0.41,0.51-8.41,10.57-4.11,16.31
			c4.41,5.89,9.49,5.61,9.49,5.61c1.16,2.82,8.28,11.08,8.28,11.08s-8.14,7.56-2.36,14.91c5.78,7.35,12.7,5.49,12.7,5.49
			s-4.95,6.4,0.28,12.86c5.22,6.48,11.88,4.53,11.88,4.53s-6.8,7.93,0.27,12.27c7.05,4.33,10.47,1.27,10.47,1.27
			c-3.85,7.86-1.69,20.98,6.13,23.51c7.83,2.53,13.74-7.3,13.74-7.3c4.17,3.61,13.15,12.4,13.15,12.4s-1.94,9.33,2.39,11.32
			c4.33,2,10.33-5.17,10.33-5.17s-5.01,15.84,11.97,21.15c8.87,2.78,10.17-9.73,10.17-9.73c1.89,0.83,17.79,6.7,17.79,6.7
			s-6.64,10.2,8.68,13.46c6.2,1.32,10.74-8.43,10.74-8.43s-1.02,11.96,14,13.43c8.95,0.87,10.34-10.23,10.34-10.23
			s4.81,17.08,17.65,16.81c12.85-0.28,10.88-16.76,10.88-16.76c3.79,0.15,15.49-2.58,15.49-2.58s1.6,12.46,15.99,9.45
			c14.4-3.01,12.52-17.04,12.52-17.04s6.36,10.34,17.22,5.33c8.08-3.74,7.94-16.42,7.94-16.42s1.74,5.74,9.72,2.87
			c7.05-2.54,7.72-11.09,7.77-13.01c0.2,5.28,11.99,5.92,16.1,2.62c4.21-3.39-3.11-12.6-1.8-13.66c1.31-1.06,10.32-9.03,10.32-9.03
			s7.7,5.28,10.34,3.43c2.59-1.82-0.39-10.72-0.5-11.05c0.26,0.25,6.4,6,11.77-0.26c5.49-6.41-0.74-14.78-0.74-14.78l8-10.77
			c0,0,3.5,3.17,8.46-2.63c4.96-5.79,3.45-16.48,3.45-16.48s5.13,4.92,13.19-6.33c7.93-11.07,3.62-24.77,3.48-25.21
			c0.28,0.07,6.31,1.59,11.2-14.02c5.01-15.97-1.22-19.42-1.22-19.42s6.97,0.45,9.52-5.3c2.56-5.74-9.07-13.45-9.07-13.45
			s14.12-0.72,17.25-17.25C765.49,524.05,746.86,519.97,746.86,519.97z"/>
		<path class="st3" d="M444.21,451.99c0,0-21.12,65.81-25.3,86.67s-8.26,62.36-6,79.01c2.26,16.65,10.96,61.25,10.96,61.25
			s19.6,3.95,23.5,6.21c3.89,2.27,13.24,10.13,12.99,13.17s-3.56,6.57-9.87,4.63c-6.31-1.94-14.39-0.29-14.77,5.46
			c-0.39,5.75,12.28,17.09,9.49,20.79c-2.79,3.7-7.31,7.53-10.14,7.12c-2.82-0.41-4.95-1.23-4.95-1.23s2.08,3.19-2.37,4.84
			c-4.44,1.65-7.82,1.1-7.82,1.1s-3.9,3.15-8.85,2.87c-4.95-0.28-18.08-13.3-16.73-28.96c1.35-15.66,1.61-20.6,4.48-24.77
			c2.87-4.17,5.74-8.73,5.74-8.73s-12.09-57.24-10.22-92.7c1.87-35.46,12.87-79.59,15.6-90.31c2.72-10.72,15.18-52.41,15.18-52.41"
			/>
		<g>
			<path class="st6" d="M426.18,443.02c0,0-19.09,52.5-28.35,117.3s6.74,121.11,6.74,121.11s-8.86,9.51-9.95,24.87
				c-0.68,9.7-0.65,19.51,7.08,31.34c4.01,6.13,15.08,8.66,18.23,3.38"/>
			<path class="st6" d="M444.99,450.03c0,0-24.62,60.07-29.75,128.12c-5.13,68.05,8.64,100.76,8.64,100.76s6.7-0.57,15.12,2.51
				c8.43,3.08,23.47,10.53,21.12,19.91c-1.39,5.55-16.43-5.21-22.96,2.63c-4.64,5.58,2.98,16.41,7.83,22.66
				c3.51,4.52-15.34,22.03-25.93-12.52"/>
			<path class="st6" d="M432.26,735.9c0,0-11,14.06-18.29-1.97c-4.75-10.44-6.34-17.16-6.34-17.16"/>
		</g>
		<path class="st1" d="M463.18,440.16c0,0,4.69,17.99-7.04,19.41c-6.02,0.73-7.82-18.63-7.82-18.63s-2.61,13.69-11.08,12.52
			c-8.47-1.17-6.91-14.67-6.91-14.67s-9.19,7.87-16.23,4.23c-7.04-3.64,6.45-14.78,6.45-14.78"/>
		<path class="st3" d="M663.03,447.81c0,0,21.12,65.81,25.3,86.67c4.17,20.86,8.26,62.36,6,79.01
			c-2.26,16.65-10.96,61.25-10.96,61.25s-19.6,3.95-23.5,6.21c-3.89,2.27-13.24,10.13-12.99,13.17c0.25,3.04,3.56,6.57,9.87,4.63
			c6.31-1.94,14.39-0.29,14.77,5.46c0.39,5.75-12.28,17.09-9.49,20.79c2.79,3.7,7.31,7.53,10.14,7.12c2.82-0.41,4.95-1.23,4.95-1.23
			s-2.08,3.19,2.37,4.84c4.44,1.65,7.82,1.1,7.82,1.1s3.9,3.15,8.85,2.87c4.95-0.28,18.08-13.3,16.73-28.96
			c-1.35-15.66-1.61-20.6-4.48-24.77c-2.87-4.17-5.74-8.73-5.74-8.73s12.09-57.24,10.22-92.7c-1.87-35.46-12.87-79.59-15.6-90.31
			s-15.18-52.41-15.18-52.41"/>
		<g>
			<path class="st6" d="M681.07,438.84c0,0,19.09,52.5,28.35,117.3c9.26,64.8-6.74,121.11-6.74,121.11s8.86,9.51,9.95,24.87
				c0.68,9.7,0.65,19.51-7.08,31.34c-4.01,6.13-15.08,8.66-18.23,3.38"/>
			<path class="st6" d="M662.26,445.85c0,0,24.62,60.07,29.75,128.12s-8.64,100.76-8.64,100.76s-6.7-0.57-15.12,2.51
				c-8.43,3.08-23.47,10.53-21.12,19.91c1.39,5.55,16.43-5.21,22.96,2.63c4.64,5.58-2.98,16.41-7.83,22.66
				c-3.51,4.52,15.34,22.03,25.93-12.52"/>
			<path class="st6" d="M674.99,731.72c0,0,11,14.06,18.29-1.97c4.75-10.44,6.34-17.16,6.34-17.16"/>
		</g>
		<path class="st1" d="M644.07,435.98c0,0-4.69,17.99,7.04,19.41c6.02,0.73,7.82-18.63,7.82-18.63s2.61,13.69,11.08,12.52
			c8.47-1.17,6.91-14.67,6.91-14.67s9.19,7.87,16.23,4.23c7.04-3.64-6.45-14.78-6.45-14.78"/>
		<path class="st1" d="M489.47,210.55c0,0-79.98,74.27-57.16,98.61c22.82,24.34,68.33-26.77,74.7-56.56s-6.17-44.4-6.17-44.4
			L489.47,210.55z"/>
		<path class="st1" d="M606.62,209.77c0,0,84.81,68.69,63.69,94.52c-21.12,25.83-69.99-22.09-78.36-51.38
			c-8.37-29.29,3.16-44.71,3.16-44.71L606.62,209.77z"/>
		<path class="st1" d="M552.2,167.67c0,0-42.03-1.83-54.89,21.86s-35.35,93.75-34.51,147.72c0.85,53.97,33.62,75.35,86.87,76.38
			c59.6,1.15,85.28-24.19,85.7-64.83s-13.54-129.61-35.71-163.12C585.35,164.02,552.2,167.67,552.2,167.67z"/>
		
			<ellipse transform="matrix(0.1463 -0.9892 0.9892 0.1463 173.0796 695.0637)" class="st1" cx="489.25" cy="247.25" rx="43.56" ry="29.52"/>
		<g>
			<path class="st3" d="M475.89,303.1c0,0,9.24-10.84,20.26-33.46s12.25-49.87,9.88-60.5c-2.37-10.63-3.94-17.67-2.37-18.45
				s25.81,15.25,28.94,31.29s13.69,47.53,0,59.36c-13.69,11.83-14.86,25.13-14.86,25.13l-32.07,2.35L475.89,303.1z"/>
			<g>
				<path d="M480.55,296.14c4.88-7.22,8.88-14.83,12.34-22.63c3.4-7.83,6.17-15.88,8.14-24.14c2.03-8.24,3.2-16.67,3.77-25.19
					c0.47-8.52,0.24-17.11-0.4-25.82c2.68,8.31,4.04,17.07,4.3,25.89c0.22,8.81-0.71,17.7-2.82,26.3
					c-2.08,8.6-5.27,16.94-9.51,24.67c-2.09,3.88-4.47,7.6-7.07,11.14C486.65,289.85,483.84,293.25,480.55,296.14z"/>
			</g>
		</g>
		
			<ellipse transform="matrix(0.9892 -0.1463 0.1463 0.9892 -29.285 91.6807)" class="st1" cx="608.6" cy="244.92" rx="29.52" ry="43.56"/>
		<g>
			<path class="st3" d="M622.31,300.62c0,0-9.24-10.83-20.26-33.46s-12.25-49.87-9.88-60.5c2.37-10.63,3.94-17.67,2.37-18.45
				c-1.56-0.78-25.81,15.25-28.94,31.29c-3.13,16.04-13.69,47.53,0,59.36c13.69,11.83,14.86,25.13,14.86,25.13l32.07,2.35
				L622.31,300.62z"/>
			<g>
				<path d="M618.2,293.81c-3.29-2.89-6.1-6.29-8.76-9.79c-2.6-3.54-4.98-7.26-7.07-11.14c-4.24-7.73-7.44-16.07-9.51-24.67
					c-2.11-8.6-3.04-17.49-2.82-26.3c0.26-8.81,1.62-17.57,4.3-25.89c-0.63,8.71-0.87,17.3-0.4,25.82
					c0.57,8.51,1.75,16.94,3.77,25.19c1.97,8.25,4.75,16.31,8.14,24.14C609.32,278.98,613.32,286.59,618.2,293.81z"/>
			</g>
		</g>
		<line class="st6" x1="553.46" y1="415.19" x2="553.46" y2="359.13"/>
		<path class="st6" d="M525.82,331.17c0,0,20.34,30.77,27.64,30.25c7.3-0.52,25.74-31.13,25.74-31.13"/>
		<ellipse transform="matrix(0.2455 -0.9694 0.9694 0.2455 124.9825 660.0446)" cx="486.51" cy="249.73" rx="17.9" ry="11.97"/>
		<ellipse transform="matrix(0.9795 -0.2014 0.2014 0.9795 -37.7551 128.4242)" cx="612.17" cy="249.73" rx="11.97" ry="17.9"/>
		<path class="st1" d="M554.01,167.73c-8.43,7.89-19.24,12.82-30.77,13.29c-9.82,0.4-19.32-1.44-20.99-9.57
			c-3.67-17.8,17.03-13.26,17.03-13.26s-17.47-19.53-5.77-28.48c8.67-6.64,19.02,13.12,19.02,13.12s-5.45-35.08,12.9-35.26
			c18.34-0.19,16.96,39.58,16.96,39.58s5.75-14.47,16.81-10.3c10.42,3.93-1.06,31.75-1.06,31.75s-16.3-5.12-21.06-3.02
			C556.07,166,555.02,166.78,554.01,167.73z"/>
	</g>
</g>
</svg>
