<?xml version="1.0" encoding="utf-8"?>
<!-- Generator: Adobe Illustrator 24.0.3, SVG Export Plug-In . SVG Version: 6.00 Build 0)  -->
<svg version="1.1" xmlns="http://www.w3.org/2000/svg" xmlns:xlink="http://www.w3.org/1999/xlink" x="0px" y="0px"
	 viewBox="0 0 1080 1080" style="enable-background:new 0 0 1080 1080;" xml:space="preserve">
<style type="text/css">
	.st0{fill:none;stroke:#00B2E3;stroke-width:3;stroke-miterlimit:10;}
	.st1{fill:#FFFFFF;stroke:#000000;stroke-width:5;stroke-miterlimit:10;}
	.st2{stroke:#FFFFFF;stroke-width:4;stroke-miterlimit:10;}
	.st3{fill:#FFFFFF;}
	.st4{fill:none;stroke:#FFFFFF;stroke-width:2;stroke-miterlimit:10;}
	.st5{fill:#FFFFFF;stroke:#000000;stroke-width:3;stroke-miterlimit:10;}
	.st6{fill:none;stroke:#000000;stroke-width:5;stroke-miterlimit:10;}
	.st7{fill:#FFFFFF;stroke:#000000;stroke-width:4;stroke-miterlimit:10;}
	.st8{fill:none;stroke:#000000;stroke-width:3;stroke-miterlimit:10;}
	.st9{fill:none;stroke:#000000;stroke-width:2;stroke-miterlimit:10;}
	.st10{fill:#FFFFFF;stroke:#000000;stroke-width:2;stroke-miterlimit:10;}
	.st11{stroke:#FFFFFF;stroke-width:5;stroke-miterlimit:10;}
	.st12{stroke:#000000;stroke-width:5;stroke-miterlimit:10;}
	.st13{stroke:#FFFFFF;stroke-width:2;stroke-miterlimit:10;}
	.st14{fill:#CCCCCC;}
</style>
<g id="Capa_2">
</g>
<g id="_x30_3_x5F_PIERNA_x5F_IZQ">
</g>
<g id="_x30_3_x5F_PIERNA_x5F_DER">
</g>
<g id="_x30_3_x5F_CUERPO">
</g>
<g id="_x30_3_x5F_BRAZO_x5F_DER">
</g>
<g id="_x30_3_x5F_HOMBRO_x5F_DER">
</g>
<g id="_x30_3_x5F_BRAZO_x5F_IZQ">
</g>
<g id="_x30_3_x5F_HOMBRO_x5F_IZQ">
</g>
<g id="_x30_3_x5F_OREJA_x5F_DER">
</g>
<g id="_x30_3_x5F_OREJA_x5F_IZQ">
</g>
<g id="_x30_3_x5F_CABEZA">
</g>
<g id="_x30_3_x5F_PUPILAS">
	<ellipse class="st0" cx="539.42" cy="966.91" rx="323.15" ry="36.41"/>
	<g>
		<g>
			<path class="st1" d="M837.46,757.77c-112.53,41.06-148.02-58.8-169.82-147.67c-10.69,2.64-21.47,4.83-32.16,7.45
				C667.33,721.56,723.17,836,857.94,784.58"/>
		</g>
		<path d="M653.17,666.24l27.09,57.07c0,0,12.74,1.99,23.26-12.56l-34.15-87.24l10.77-14.26l-34.02,9.1L653.17,666.24z"/>
		<path class="st1" d="M845.5,788.93c0,0,54.85,5.17,58.11-0.9s-10.93-39.22-14.11-48.37c-3.17-9.15-54.83,18.92-54.83,18.92"/>
		<g>
			<path d="M900.81,770.49c-2.19,2.35-5.03,3.96-8.01,5.08c-3,1.11-6.25,1.63-9.49,1.57c-1.62,0.02-3.24-0.25-4.83-0.52
				c-1.57-0.42-3.15-0.78-4.61-1.5c-2.99-1.22-5.6-3.21-7.67-5.6c3.17,0.62,5.94,1.46,8.81,1.84c1.4,0.3,2.82,0.37,4.2,0.57
				l2.1,0.13c0.69,0.09,1.4,0.08,2.1,0.08c2.8,0.06,5.62-0.06,8.49-0.38C894.77,771.45,897.67,770.99,900.81,770.49z"/>
		</g>
		<g>
			<path class="st1" d="M597.7,918.74c-0.1-0.63-0.19-1.37-0.26-1.85c-13.76-94.64-29.41-179.81-42.64-275.82
				c-8.41,1.93-23,4.39-31.42,6.29c15.07,97.15,27.59,175.11,43.13,271.05c0,0-20.69,39.64-15.32,43.98s43.38,3.41,52.96,2
				c9.58-1.41-6.71-47.5-6.71-47.5"/>
		</g>
		<g>
			<path d="M571.9,966.8c-1.9-2.59-2.95-5.68-3.49-8.82c-0.53-3.16-0.44-6.44,0.23-9.61c0.28-1.6,0.85-3.14,1.41-4.65
				c0.7-1.47,1.36-2.95,2.33-4.25c1.75-2.71,4.2-4.91,6.94-6.49c-1.19,2.99-2.54,5.57-3.45,8.31c-0.55,1.32-0.89,2.7-1.35,4.02
				l-0.52,2.04c-0.21,0.67-0.34,1.36-0.46,2.05c-0.58,2.74-0.98,5.53-1.21,8.41C572.09,960.69,571.99,963.63,571.9,966.8z"/>
		</g>
		<path d="M531.26,695.57l9.87,59.72c0,0,17.99,2.98,30.05-10.33l-12.05-89.9l-2.53-12.71l-34.81,5.33L531.26,695.57z"/>
		<g>
			<path class="st1" d="M263.51,231.26c65.31,115.54,101.4,134.11,207.56,207.27c3.95-7.7,7.89-15.39,11.84-23.09
				c-109.8-72.88-139.43-89.61-207.52-205.22"/>
		</g>
		<path d="M260.05,117.28c0,0,26.33-65.31,29.1-65.27c2.76,0.04,5.23,0.74,2.87,6.04c-2.36,5.3-25.49,62.12-25.49,62.12"/>
		<polygon class="st2" points="169.76,277.67 251.02,110.8 292.19,111.91 326.98,132.74 306.62,176.75 291.74,189.16 256.28,276.99 
			260.66,308.17 253.17,325.83 214.95,313.86 		"/>
		<g>
			<path class="st3" d="M287.05,117.54c-1.6,3.73-3.2,7.45-4.85,11.16l-4.91,11.14c-1.62,3.72-3.31,7.4-4.97,11.11l-5.01,11.09
				l-0.08,0.18l-0.17,0.16l-7.54,7.16l-7.57,7.12l0.31-0.43l-8.51,19.25c-2.87,6.4-5.69,12.83-8.6,19.22l-8.68,19.18l-8.78,19.13
				l0.08-0.75c1.32,7.07,2.69,14.13,3.97,21.21c1.31,7.07,2.57,14.16,3.81,21.24l0.03,0.16l-0.07,0.12l-3.52,6.71l-3.57,6.69
				l3.12-6.91l3.17-6.89l-0.04,0.29c-1.62-7.01-3.21-14.03-4.75-21.05c-1.57-7.02-3.05-14.06-4.58-21.09l-0.08-0.38l0.17-0.38
				l8.46-19.28l8.56-19.23c2.84-6.42,5.77-12.79,8.65-19.19l8.73-19.15l0.12-0.26l0.19-0.18l7.69-6.99l7.73-6.96l-0.25,0.34
				l5.36-10.92c1.8-3.63,3.57-7.28,5.4-10.9l5.46-10.87C283.34,124.75,285.19,121.14,287.05,117.54z"/>
		</g>
		<g>
			<path class="st4" d="M252.99,198.66l-3.22-1.44c-1.55-0.69-2.25-2.52-1.56-4.07l0.05-0.12c0.69-1.55,2.52-2.25,4.07-1.56
				l3.22,1.44c1.55,0.69,2.25,2.52,1.56,4.07l-0.05,0.12C256.36,198.65,254.53,199.35,252.99,198.66z"/>
			<path class="st4" d="M264.03,203.59l-3.22-1.44c-1.55-0.69-2.25-2.52-1.56-4.07l0.05-0.12c0.69-1.55,2.52-2.25,4.07-1.56
				l3.22,1.44c1.55,0.69,2.25,2.52,1.56,4.07l-0.05,0.12C267.41,203.57,265.58,204.28,264.03,203.59z"/>
			<path class="st4" d="M275.19,208.56l-3.22-1.44c-1.55-0.69-2.25-2.52-1.56-4.07l0.05-0.12c0.69-1.55,2.52-2.25,4.07-1.56
				l3.22,1.44c1.55,0.69,2.25,2.52,1.56,4.07l-0.05,0.12C278.56,208.55,276.73,209.25,275.19,208.56z"/>
			<path class="st4" d="M247.53,211.45l-3.22-1.44c-1.55-0.69-2.25-2.52-1.56-4.07l0.05-0.12c0.69-1.55,2.52-2.25,4.07-1.56
				l3.22,1.44c1.55,0.69,2.25,2.52,1.56,4.07l-0.05,0.12C250.91,211.44,249.08,212.14,247.53,211.45z"/>
			<path class="st4" d="M258.57,216.37l-3.22-1.44c-1.55-0.69-2.25-2.52-1.56-4.07l0.05-0.12c0.69-1.55,2.52-2.25,4.07-1.56
				l3.22,1.44c1.55,0.69,2.25,2.52,1.56,4.07l-0.05,0.12C261.95,216.36,260.12,217.06,258.57,216.37z"/>
			<path class="st4" d="M269.73,221.35l-3.22-1.44c-1.55-0.69-2.25-2.52-1.56-4.07l0.05-0.12c0.69-1.55,2.52-2.25,4.07-1.56
				l3.22,1.44c1.55,0.69,2.25,2.52,1.56,4.07l-0.05,0.12C273.11,221.33,271.28,222.04,269.73,221.35z"/>
			<path class="st4" d="M241.17,225.57l-3.22-1.44c-1.55-0.69-2.25-2.52-1.56-4.07l0.05-0.12c0.69-1.55,2.52-2.25,4.07-1.56
				l3.22,1.44c1.55,0.69,2.25,2.52,1.56,4.07l-0.05,0.12C244.55,225.55,242.72,226.26,241.17,225.57z"/>
			<path class="st4" d="M252.22,230.49l-3.22-1.44c-1.55-0.69-2.25-2.52-1.56-4.07l0.05-0.12c0.69-1.55,2.52-2.25,4.07-1.56
				l3.22,1.44c1.55,0.69,2.25,2.52,1.56,4.07l-0.05,0.12C255.59,230.48,253.76,231.18,252.22,230.49z"/>
			<path class="st4" d="M267.46,233.84L267.46,233.84c-0.7,1.58-2.57,2.3-4.15,1.59l-3.1-1.38c-1.58-0.7-2.3-2.57-1.59-4.15v0
				c0.7-1.58,2.57-2.3,4.15-1.59l3.1,1.38C267.45,230.4,268.17,232.27,267.46,233.84"/>
			<path class="st4" d="M235,238.87l-3.22-1.44c-1.55-0.69-2.25-2.52-1.56-4.07l0.05-0.12c0.69-1.55,2.52-2.25,4.07-1.56l3.22,1.44
				c1.55,0.69,2.25,2.52,1.56,4.07l-0.05,0.12C238.37,238.86,236.54,239.56,235,238.87z"/>
			<path class="st4" d="M246.04,243.8l-3.22-1.44c-1.55-0.69-2.25-2.52-1.56-4.07l0.05-0.12c0.69-1.55,2.52-2.25,4.07-1.56
				l3.22,1.44c1.55,0.69,2.25,2.52,1.56,4.07l-0.05,0.12C249.42,243.78,247.59,244.49,246.04,243.8z"/>
			<path class="st4" d="M257.2,248.77l-3.22-1.44c-1.55-0.69-2.25-2.52-1.56-4.07l0.05-0.12c0.69-1.55,2.52-2.25,4.07-1.56
				l3.22,1.44c1.55,0.69,2.25,2.52,1.56,4.07l-0.05,0.12C260.57,248.76,258.74,249.46,257.2,248.77z"/>
			<path class="st4" d="M229.33,251.43l-3.22-1.44c-1.55-0.69-2.25-2.52-1.56-4.07l0.05-0.12c0.69-1.55,2.52-2.25,4.07-1.56
				l3.22,1.44c1.55,0.69,2.25,2.52,1.56,4.07l-0.05,0.12C232.71,251.42,230.88,252.12,229.33,251.43z"/>
			<path class="st4" d="M240.38,256.36l-3.22-1.44c-1.55-0.69-2.25-2.52-1.56-4.07l0.05-0.12c0.69-1.55,2.52-2.25,4.07-1.56
				l3.22,1.44c1.55,0.69,2.25,2.52,1.56,4.07l-0.05,0.12C243.75,256.35,241.92,257.05,240.38,256.36z"/>
			<path class="st4" d="M251.53,261.33l-3.22-1.44c-1.55-0.69-2.25-2.52-1.56-4.07l0.05-0.12c0.69-1.55,2.52-2.25,4.07-1.56
				l3.22,1.44c1.55,0.69,2.25,2.52,1.56,4.07l-0.05,0.12C254.91,261.32,253.08,262.02,251.53,261.33z"/>
			<path class="st4" d="M278.02,197.87l-19.9-8.87c-2.54-1.13-3.7-4.14-2.56-6.69l0.09-0.19c1.13-2.54,4.14-3.7,6.69-2.56l19.9,8.87
				c2.54,1.13,3.7,4.14,2.56,6.69l-0.09,0.19C283.57,197.85,280.56,199.01,278.02,197.87z"/>
		</g>
		<g>
			<path class="st4" d="M290.56,163.71l-1.05-0.47c-6.03-2.69-8.76-9.82-6.07-15.85l2.44-5.47c2.69-6.03,9.82-8.76,15.85-6.07
				l1.05,0.47c6.03,2.69,8.76,9.82,6.07,15.85l-2.44,5.47C303.72,163.67,296.59,166.4,290.56,163.71z"/>
			<g>
				<g>
					<path class="st3" d="M293.3,141.02c1.93,0,1.93-3,0-3C291.37,138.02,291.37,141.02,293.3,141.02L293.3,141.02z"/>
				</g>
			</g>
			<g>
				<g>
					<path class="st3" d="M299.81,143.65c1.93,0,1.93-3,0-3C297.88,140.65,297.87,143.65,299.81,143.65L299.81,143.65z"/>
				</g>
			</g>
			<g>
				<g>
					<path class="st3" d="M305.5,146.32c1.93,0,1.93-3,0-3C303.57,143.32,303.57,146.32,305.5,146.32L305.5,146.32z"/>
				</g>
			</g>
			<g>
				<g>
					<path class="st3" d="M289.48,148.71c1.93,0,1.93-3,0-3C287.55,145.71,287.54,148.71,289.48,148.71L289.48,148.71z"/>
				</g>
			</g>
			<g>
				<g>
					<path class="st3" d="M297.07,151.57c1.93,0,1.93-3,0-3C295.14,148.57,295.14,151.57,297.07,151.57L297.07,151.57z"/>
				</g>
			</g>
			<g>
				<g>
					<path class="st3" d="M302.2,153.72c1.93,0,1.93-3,0-3C300.27,150.72,300.27,153.72,302.2,153.72L302.2,153.72z"/>
				</g>
			</g>
			<g>
				<g>
					<path class="st3" d="M288.11,154.45c1.93,0,1.93-3,0-3C286.18,151.45,286.17,154.45,288.11,154.45L288.11,154.45z"/>
				</g>
			</g>
			<g>
				<g>
					<path class="st3" d="M294.55,158.12c1.93,0,1.93-3,0-3C292.62,155.12,292.62,158.12,294.55,158.12L294.55,158.12z"/>
				</g>
			</g>
			<g>
				<g>
					<path class="st3" d="M299.06,159.87c1.93,0,1.93-3,0-3C297.13,156.87,297.13,159.87,299.06,159.87L299.06,159.87z"/>
				</g>
			</g>
		</g>
		<path class="st5" d="M204.36,199.8c0,0-9.84-4.38-16.74,11.1c-4.83,10.85,11.49,20.34,18.41,19.97
			c7.85-0.42,11.56-12.88,8.62-15.24c-2.94-2.36-14.58-7.54-14.58-7.54"/>
		<path class="st5" d="M211.31,186.4c0,0-9.84-4.38-15.82,9.04c-4.19,9.4,12.25,18.65,18.99,18.66c7.66,0.01,10.67-10.88,7.68-13.12
			c-2.99-2.24-14.63-7.43-14.63-7.43"/>
		<path class="st5" d="M220.68,168.47c0,0-9.84-4.38-16.35,10.23c-4.56,10.24,11.81,19.63,18.65,19.42
			c7.77-0.24,11.18-12.04,8.22-14.34c-2.96-2.31-14.6-7.49-14.6-7.49"/>
		<path class="st1" d="M285.57,231.87c0,0,14.4-37.07-5.7-44.39c-15.42-5.61-29.76,0.15-23.87,9.65
			c5.89,9.5,15.86,11.78,15.86,11.78s-23.52,12.98,1.2,31.72"/>
		<path class="st3" d="M373.26,529.51c0.43,2.68,3.54,21.83,3.54,21.83s-6.74,3.39-4.78,8.51c1.96,5.13,10.82,7.35,10.82,7.35
			s-11.05,8.6-7.66,19.14c3.39,10.55,17.28,7.26,17.28,7.26c0.2,2.69,6.68,11.1,6.68,11.1l-0.01,0.02c-0.21,0.3-2.45,3.54-3.61,7.79
			c-1.07,3.89-1.22,8.62,1.88,12.73c6.12,8.1,16.42,3.69,16.67,3.59c-0.08,0.2-1.26,3.09,3.04,12.89
			c4.46,10.16,12.92,9.21,12.92,9.21c-6.28,12.11-1.67,25.6,7.42,30.82c9.09,5.23,16.61-4.99,16.61-4.99l10.12,7.89
			c0,0,0.96,11.15,8.88,13.18c7.91,2.03,14.65-2.37,14.65-2.37s1.05,18.65,11.29,21.99c10.23,3.34,18.47-8.51,18.47-8.51
			s1.18,11.43,5.71,11.68c4.54,0.25,6.16-7.84,6.16-7.84s4.44,15.55,13.85,16.29c7.97,0.63,10.04-10.1,10.48-13.4
			c-0.45,7.76,10.87,15.12,17.63,11.91c7.05-3.34,2.42-14.51,2.42-14.51l22.98-2.15c0,0,2.55,10.57,9.42,7.85
			c6.87-2.72,8.93-10.82,8.93-10.82s0.89,16.42,16.64,12.06c15.42-4.28,10.14-15.88,9.92-16.34c0.3,0.51,8.59,14.2,20.27,8
			c11.9-6.32,7.31-21.53,7.31-21.53s10.81,8.94,21.65,5.54c10.84-3.4,9.08-18.75,9.08-18.75s8.34,13.29,21.19,2.41
			c12.53-10.6,6.26-23.42,5.94-24.05c0.35,0.46,7.2,9.24,12.49,4.3c11.19-10.46,5.57-22.32,5.29-22.88
			c0.45,0.42,8.78,8.38,11.79-0.05c3.03-8.5-1.61-17.58-1.78-17.92c0.34,0.28,8.61,7.21,13.58-2.84
			c5.09-10.24-2.05-21.33-2.05-21.33s12.12,2.54,14.87-8.27c2.74-10.8-8.65-18.69-8.65-18.69s17.55,2.96,18.26-13.48
			c0.71-16.45-10.88-18.82-10.88-18.82c1.12-6.27,1.91-16.23,1.96-16.85c0-0.02,0-0.03,0-0.03s14.74-2.24,13.33-19.6
			c-1.36-16.85-14.8-21.67-15.6-21.95c5,1.33,11.92-9.5,10.45-13.33c-1.42-3.73-10.67-5.3-11.25-5.4
			c0.77-0.03,19.48-0.96,16.66-14.95c-2.7-13.4-19.36-15.43-21.43-15.63c5.9,0.34,10.58-9.7,8.1-16.43
			c-2.51-6.82-16.61-6.11-16.61-6.11s2.91-7.38-1.83-11.32c-4.47-3.72-6.04-1.97-6.2-1.76c0.34-0.58,7.11-12.05,1.87-17.32
			c-5.37-5.41-10.54-4.39-10.54-4.39c-1.6-2.73-10.08-10.18-10.08-10.18s7.27-8.93,0.28-15.64c-6.98-6.72-13.82-3.81-13.82-3.81
			s4.16-7.27-2.13-13.16c-6.29-5.89-12.84-2.95-12.84-2.95s5.83-9.11-2.03-12.55c-7.86-3.43-10.92,0.2-10.92,0.2
			c2.82-8.62-1.28-21.77-9.66-23.24c-8.39-1.47-13.05,9.46-13.05,9.46c-4.79-3.1-15.27-10.83-15.27-10.83s0.65-9.85-4.07-11.27
			c-4.73-1.43-9.86,6.79-9.86,6.79s2.87-16.97-15.32-19.98c-9.5-1.58-9.04,11.44-9.04,11.44c-2.05-0.59-19.21-4.32-19.21-4.32
			s5.35-11.42-10.84-12.57c-6.55-0.46-9.81,10.19-9.81,10.19s-0.67-12.42-16.29-11.77c-9.31,0.39-9.14,11.98-9.14,11.98
			s-7.38-16.84-20.52-14.71c-13.14,2.13-8.76,18.76-8.76,18.76c-3.91,0.39-15.52,4.87-15.52,4.87s-3.43-12.55-17.76-7.4
			c-14.34,5.15-10.4,19.28-10.4,19.28s-8-9.7-18.44-2.99c-7.75,4.99-5.79,17.99-5.79,17.99s-2.61-5.64-10.38-1.55
			c-6.87,3.62-6.33,12.49-6.11,14.47c-0.96-5.38-13.15-4.35-16.9-0.38c-3.83,4.08,5,12.48,3.81,13.75s-9.29,10.75-9.29,10.75
			s-8.66-4.31-11.1-2.03c-2.4,2.24,1.94,10.94,2.1,11.27c-0.3-0.22-7.42-5.24-12.04,1.96c-4.71,7.36,2.88,15.06,2.88,15.06
			l-6.67,12.19c0,0-4.04-2.75-8.31,3.91c-4.26,6.65-1.18,17.4-1.18,17.4s-5.97-4.31-12.62,8.39c-6.55,12.5-0.16,25.93,0.04,26.36
			c-0.3-0.03-6.7-0.73-9.48,15.99c-2.85,17.11,4.04,19.75,4.04,19.75s-7.21,0.54-9.01,6.8c-1.8,6.25,11.24,12.5,11.24,12.5
			s-14.39,2.77-15.22,20.17C353.56,527.99,373.26,529.51,373.26,529.51z"/>
		<path class="st6" d="M373.26,529.51c0.43,2.68,3.54,21.83,3.54,21.83s-6.74,3.39-4.78,8.51c1.96,5.13,10.82,7.35,10.82,7.35
			s-11.05,8.6-7.66,19.14c3.39,10.55,17.28,7.26,17.28,7.26c0.2,2.69,6.68,11.1,6.68,11.1l-0.01,0.02c-0.21,0.3-2.45,3.54-3.61,7.79
			c-1.07,3.89-1.22,8.62,1.88,12.73c6.12,8.1,16.42,3.69,16.67,3.59c-0.08,0.2-1.26,3.09,3.04,12.89
			c4.46,10.16,12.92,9.21,12.92,9.21c-6.28,12.11-1.67,25.6,7.42,30.82c9.09,5.23,16.61-4.99,16.61-4.99l10.12,7.89
			c0,0,0.96,11.15,8.88,13.18c7.91,2.03,14.65-2.37,14.65-2.37s1.05,18.65,11.29,21.99c10.23,3.34,18.47-8.51,18.47-8.51
			s1.18,11.43,5.71,11.68c4.54,0.25,6.16-7.84,6.16-7.84s4.44,15.55,13.85,16.29c7.97,0.63,10.04-10.1,10.48-13.4
			c-0.45,7.76,10.87,15.12,17.63,11.91c7.05-3.34,2.42-14.51,2.42-14.51l22.98-2.15c0,0,2.55,10.57,9.42,7.85
			c6.87-2.72,8.93-10.82,8.93-10.82s0.89,16.42,16.64,12.06c15.42-4.28,10.14-15.88,9.92-16.34c0.3,0.51,8.59,14.2,20.27,8
			c11.9-6.32,7.31-21.53,7.31-21.53s10.81,8.94,21.65,5.54c10.84-3.4,9.08-18.75,9.08-18.75s8.34,13.29,21.19,2.41
			c12.53-10.6,6.26-23.42,5.94-24.05c0.35,0.46,7.2,9.24,12.49,4.3c11.19-10.46,5.57-22.32,5.29-22.88
			c0.45,0.42,8.78,8.38,11.79-0.05c3.03-8.5-1.61-17.58-1.78-17.92c0.34,0.28,8.61,7.21,13.58-2.84
			c5.09-10.24-2.05-21.33-2.05-21.33s12.12,2.54,14.87-8.27c2.74-10.8-8.65-18.69-8.65-18.69s17.55,2.96,18.26-13.48
			c0.71-16.45-10.88-18.82-10.88-18.82c1.12-6.27,1.91-16.23,1.96-16.85c0-0.02,0-0.03,0-0.03s14.74-2.24,13.33-19.6
			c-1.36-16.85-14.8-21.67-15.6-21.95c5,1.33,11.92-9.5,10.45-13.33c-1.42-3.73-10.67-5.3-11.25-5.4
			c0.77-0.03,19.48-0.96,16.66-14.95c-2.7-13.4-19.36-15.43-21.43-15.63c5.9,0.34,10.58-9.7,8.1-16.43
			c-2.51-6.82-16.61-6.11-16.61-6.11s2.91-7.38-1.83-11.32c-4.47-3.72-6.04-1.97-6.2-1.76c0.34-0.58,7.11-12.05,1.87-17.32
			c-5.37-5.41-10.54-4.39-10.54-4.39c-1.6-2.73-10.08-10.18-10.08-10.18s7.27-8.93,0.28-15.64c-6.98-6.72-13.82-3.81-13.82-3.81
			s4.16-7.27-2.13-13.16c-6.29-5.89-12.84-2.95-12.84-2.95s5.83-9.11-2.03-12.55c-7.86-3.43-10.92,0.2-10.92,0.2
			c2.82-8.62-1.28-21.77-9.66-23.24c-8.39-1.47-13.05,9.46-13.05,9.46c-4.79-3.1-15.27-10.83-15.27-10.83s0.65-9.85-4.07-11.27
			c-4.73-1.43-9.86,6.79-9.86,6.79s2.87-16.97-15.32-19.98c-9.5-1.58-9.04,11.44-9.04,11.44c-2.05-0.59-19.21-4.32-19.21-4.32
			s5.35-11.42-10.84-12.57c-6.55-0.46-9.81,10.19-9.81,10.19s-0.67-12.42-16.29-11.77c-9.31,0.39-9.14,11.98-9.14,11.98
			s-7.38-16.84-20.52-14.71c-13.14,2.13-8.76,18.76-8.76,18.76c-3.91,0.39-15.52,4.87-15.52,4.87s-3.43-12.55-17.76-7.4
			c-14.34,5.15-10.4,19.28-10.4,19.28s-8-9.7-18.44-2.99c-7.75,4.99-5.79,17.99-5.79,17.99s-2.61-5.64-10.38-1.55
			c-6.87,3.62-6.33,12.49-6.11,14.47c-0.96-5.38-13.15-4.35-16.9-0.38c-3.83,4.08,5,12.48,3.81,13.75s-9.29,10.75-9.29,10.75
			s-8.66-4.31-11.1-2.03c-2.4,2.24,1.94,10.94,2.1,11.27c-0.3-0.22-7.42-5.24-12.04,1.96c-4.71,7.36,2.88,15.06,2.88,15.06
			l-6.67,12.19c0,0-4.04-2.75-8.31,3.91c-4.26,6.65-1.18,17.4-1.18,17.4s-5.97-4.31-12.62,8.39c-6.55,12.5-0.16,25.93,0.04,26.36
			c-0.3-0.03-6.7-0.73-9.48,15.99c-2.85,17.11,4.04,19.75,4.04,19.75s-7.21,0.54-9.01,6.8c-1.8,6.25,11.24,12.5,11.24,12.5
			s-14.39,2.77-15.22,20.17C353.56,527.99,373.26,529.51,373.26,529.51z"/>
		<g>
			<path d="M520.83,634.1c0.05,2.58,0.18,5.15,0.52,7.66c0.19,1.24,0.41,2.49,0.8,3.6c0.19,0.55,0.44,1.08,0.74,1.46
				c0.31,0.38,0.59,0.57,0.86,0.55c0.31,0.02,0.79-0.12,1.27-0.36c0.48-0.24,0.97-0.56,1.45-0.91c0.95-0.72,1.88-1.54,2.77-2.4
				c1.77-1.74,3.44-3.67,5.02-5.59l1.93-2.35l0.64,2.99c0.33,1.55,0.82,3.19,1.38,4.72c0.55,1.55,1.19,3.07,1.99,4.45
				c0.79,1.39,1.75,2.65,2.85,3.64c1.12,0.96,2.43,1.56,3.85,1.59c1.41,0.07,2.76-0.4,3.85-1.44c1.09-1.02,1.98-2.41,2.64-3.92
				c1.34-3.03,2.08-6.41,2.58-9.82c0.24,3.45-0.02,6.97-1.07,10.39c-0.55,1.69-1.31,3.42-2.64,4.85c-0.66,0.71-1.47,1.35-2.4,1.78
				c-0.93,0.43-1.96,0.66-2.98,0.69c-2.04,0.06-4.07-0.76-5.6-1.98c-1.55-1.21-2.69-2.75-3.62-4.32c-1.87-3.18-2.99-6.54-3.72-10.11
				l2.57,0.64c-1.7,2.05-3.5,3.92-5.49,5.7c-1,0.88-2.03,1.74-3.21,2.47c-0.59,0.37-1.21,0.71-1.9,0.99
				c-0.69,0.26-1.49,0.51-2.47,0.38c-1.04-0.13-1.8-0.91-2.2-1.58c-0.42-0.69-0.63-1.38-0.79-2.06c-0.32-1.36-0.4-2.68-0.41-4
				C520.05,639.23,520.34,636.64,520.83,634.1z"/>
		</g>
		<g>
			<path d="M663.25,374.72c0.77-2.41,1.73-4.77,2.92-7.04c0.6-1.13,1.26-2.24,2.04-3.3c0.79-1.04,1.67-2.07,2.93-2.84
				c0.63-0.38,1.38-0.68,2.24-0.71c0.83,0,1.59,0.19,2.29,0.52c1.4,0.68,2.39,1.79,3.18,2.9c1.57,2.29,2.46,4.75,3.13,7.37
				l-2.42-0.54c1.88-2.5,3.95-4.72,6.57-6.6c1.32-0.9,2.79-1.75,4.62-2.07c0.91-0.15,1.93-0.11,2.89,0.21
				c0.45,0.15,1.02,0.41,1.46,0.8c0.24,0.19,0.44,0.4,0.61,0.65c0.19,0.23,0.31,0.48,0.44,0.73c0.46,1.01,0.52,1.96,0.51,2.83
				c-0.02,0.87-0.14,1.69-0.32,2.47c-0.33,1.57-0.85,3.03-1.43,4.45c-1.18,2.83-2.52,5.5-4.12,8.1l-1.63-1.63
				c1.08-0.54,2.04-0.79,3.1-0.96c1.05-0.15,2.12-0.16,3.16,0c1.05,0.17,2.04,0.53,2.98,0.97c0.45,0.26,0.92,0.48,1.32,0.8
				l0.62,0.45l0.59,0.56l0.29,0.28l0.24,0.35c0.15,0.24,0.32,0.46,0.43,0.71l0.28,0.79c0.07,0.27,0.07,0.55,0.11,0.82
				c0.04,1.09-0.27,2.11-0.72,3c-0.95,1.76-2.28,3.19-3.77,4.39c1.26-1.43,2.33-3.03,2.98-4.73c0.29-0.86,0.45-1.74,0.32-2.54
				c-0.09-0.82-0.58-1.47-1.2-1.99l-0.48-0.38l-0.57-0.33c-0.37-0.24-0.78-0.39-1.18-0.58c-0.81-0.3-1.65-0.52-2.5-0.58
				c-0.85-0.06-1.7-0.01-2.53,0.17c-0.81,0.16-1.69,0.49-2.29,0.85l-3.55,2.08l1.92-3.72c1.32-2.56,2.6-5.21,3.58-7.9
				c0.48-1.35,0.91-2.71,1.18-4.03c0.28-1.3,0.34-2.72-0.02-3.44c-0.19-0.34-0.31-0.45-0.77-0.61c-0.45-0.14-0.95-0.17-1.5-0.09
				c-1.1,0.16-2.3,0.77-3.42,1.53c-1.12,0.76-2.19,1.69-3.2,2.68c-1,0.98-2.01,2.06-2.87,3.13l-1.83,2.28l-0.59-2.82
				c-0.48-2.27-1.28-4.66-2.44-6.61c-0.59-0.97-1.32-1.83-2.17-2.31c-0.42-0.24-0.91-0.37-1.33-0.43c-0.41-0.03-0.88,0.09-1.35,0.32
				c-0.95,0.46-1.85,1.3-2.66,2.19c-0.82,0.89-1.57,1.88-2.27,2.91C665.69,370.3,664.42,372.47,663.25,374.72z"/>
		</g>
		<g>
			<path d="M688.53,553.19c1.4,2.71,2.84,5.39,4.51,7.87c0.82,1.24,1.71,2.43,2.71,3.44c0.49,0.51,1.01,0.97,1.54,1.31
				c0.27,0.17,0.54,0.31,0.79,0.4c0.25,0.11,0.54,0.13,0.65,0.12c0.24-0.02,0.49-0.21,0.82-0.68c0.31-0.46,0.56-1.08,0.76-1.73
				c0.42-1.31,0.63-2.76,0.84-4.21c0.4-2.9,0.48-5.93,0.53-8.87l0.03-1.97l1.89,0.54c1.02,0.29,2.32,0.49,3.51,0.53
				c1.21,0.04,2.43,0.01,3.63-0.17c1.2-0.19,2.37-0.51,3.49-0.96c0.54-0.27,1.13-0.46,1.65-0.78l0.8-0.45
				c0.22-0.16,0.48-0.3,0.64-0.47c0.79-0.69,0.91-1.2,0.37-2.19c-0.55-0.93-1.56-1.75-2.56-2.51c-2.07-1.5-4.4-2.75-6.76-3.92
				c2.58,0.61,5.1,1.49,7.5,2.76c1.19,0.66,2.37,1.4,3.36,2.62c0.47,0.61,0.91,1.46,0.84,2.47c-0.07,1.01-0.64,1.83-1.19,2.39
				c-0.28,0.31-0.59,0.52-0.89,0.77l-0.88,0.59c-0.58,0.41-1.22,0.72-1.85,1.05c-1.29,0.59-2.65,1.03-4.04,1.33
				c-1.39,0.28-2.81,0.41-4.22,0.36c-1.44-0.05-2.77-0.19-4.28-0.6l1.92-1.43c0.05,3.14-0.19,6.19-0.63,9.31
				c-0.23,1.56-0.58,3.11-1.15,4.68c-0.3,0.78-0.64,1.57-1.21,2.36c-0.3,0.39-0.64,0.78-1.15,1.1c-0.48,0.33-1.15,0.51-1.76,0.5
				c-0.64-0.04-1.11-0.19-1.55-0.4c-0.45-0.2-0.83-0.45-1.19-0.72c-0.71-0.54-1.28-1.15-1.8-1.78c-1.01-1.28-1.79-2.64-2.5-4.02
				C690.34,559.04,689.27,556.16,688.53,553.19z"/>
		</g>
		<g>
			<path d="M671.47,551.53c2.32,0.81,4.51,1.68,6.71,2.4c2.17,0.72,4.39,1.36,6.39,1.38c2.03,0.03,3.37-0.76,4.19-2.7
				c0.8-1.92,1.02-4.32,1.3-6.74c0.94,2.27,1.46,4.74,0.96,7.43c-0.28,1.32-0.98,2.76-2.25,3.72c-1.26,0.98-2.84,1.3-4.21,1.29
				c-2.79-0.05-5.17-1.06-7.33-2.23C675.08,554.85,673.1,553.38,671.47,551.53z"/>
		</g>
		<g>
			<path d="M424.71,460.19c-2.68-2.23-5.53-4.25-8.6-5.68c-1.53-0.69-3.12-1.26-4.7-1.39c-1.56-0.15-3.12,0.13-4.25,0.95
				c-1.09,0.75-1.4,2-1.25,3.49c0.15,1.48,0.75,3.03,1.45,4.51c1.43,2.96,3.33,5.87,5.4,8.47l1.89,2.38l-3.06,0.05
				c-1.72,0.03-3.57,0.16-5.23,0.54c-0.83,0.19-1.64,0.44-2.3,0.78c-0.68,0.34-1.09,0.77-1.2,1.12c-0.07,0.18-0.05,0.43-0.04,0.67
				c0.05,0.12,0.04,0.24,0.11,0.36c0.08,0.12,0.13,0.25,0.22,0.38c0.35,0.53,1.01,1.03,1.71,1.45c1.42,0.84,3.17,1.48,4.83,1.93
				l2.39,0.63l-1.91,1.43c-1.29,0.96-2.54,2.18-3.49,3.46c-0.46,0.65-0.87,1.34-1.06,2.04c-0.19,0.7-0.15,1.39,0.13,2.03
				c0.29,0.61,0.91,1.27,1.5,1.83c0.63,0.54,1.33,1.01,2.08,1.42c1.51,0.78,3.22,1.29,4.97,1.45c-1.76,0.15-3.58-0.08-5.3-0.69
				c-0.86-0.31-1.69-0.74-2.46-1.26c-0.75-0.58-1.46-1.11-2.07-2.03c-0.56-0.92-0.7-2.07-0.52-3.09c0.18-1.03,0.62-1.91,1.1-2.75
				c1.01-1.65,2.26-2.98,3.7-4.23l0.48,2.06c-1.98-0.38-3.84-0.92-5.69-1.93c-0.91-0.51-1.84-1.1-2.6-2.1
				c-0.19-0.25-0.35-0.54-0.51-0.82c-0.16-0.29-0.24-0.64-0.35-0.96c-0.13-0.67-0.18-1.39,0.04-2.11c0.2-0.72,0.63-1.33,1.1-1.79
				c0.47-0.46,0.97-0.79,1.47-1.06c1-0.53,2-0.84,2.99-1.08c1.99-0.45,3.9-0.65,5.93-0.66l-1.18,2.43
				c-1.13-1.45-2.12-2.89-3.08-4.42c-0.94-1.52-1.84-3.09-2.55-4.78c-0.71-1.69-1.34-3.45-1.48-5.46c-0.06-0.99,0.01-2.07,0.44-3.11
				c0.41-1.04,1.22-1.95,2.14-2.51c1.8-1.11,3.92-1.3,5.78-0.94c1.88,0.35,3.56,1.12,5.11,2.02
				C419.85,455.11,422.48,457.5,424.71,460.19z"/>
		</g>
		<path class="st1" d="M581.16,179.14c0,0,48.94,34.95,72.18,59.33s0.88,66.78-31.89,56.61c-31.7-9.83-48.69-83.51-49.5-106.74"/>
		<path class="st1" d="M503.84,177.85c0,0-10.11,59.28-21.92,90.83s-59.71,29.91-64.85-4.01c-4.97-32.81,53.92-80.23,74.47-91.09"/>
		
			<ellipse transform="matrix(0.0677 -0.9977 0.9977 0.0677 171.81 697.1465)" class="st7" cx="458.91" cy="256.65" rx="47.14" ry="35.5"/>
		<ellipse transform="matrix(0.1728 -0.985 0.985 0.1728 127.9711 631.8471)" cx="440.16" cy="239.73" rx="13.56" ry="8.64"/>
		<path class="st1" d="M483.71,175.59c0,0-24.72,16.23-39.27,90.43s2.5,114.77,24.26,135.16c21.76,20.4,56.57,34.14,103.03-16.93
			s26.83-131.94,23.49-168.08C591.88,180.03,544.97,134.33,483.71,175.59z"/>
		<path class="st1" d="M558.95,175.52c0,0-12.7,24.19-34.85,25.49c-22.15,1.3-4.53-22.3-4.53-22.3s-21.63,19.61-28.12,11.32
			c-6.49-8.29,5.17-16.26,5.17-16.26s-57.43-20.35-27.84-51.98c29.6-31.63,69.31,25.94,69.31,25.94s-0.43-41.54,25.74-34.85
			s4.43,41.53,4.43,41.53s30.42-15.79,42.62,0.95c12.21,16.73-31.23,26.43-31.23,26.43"/>
		<path class="st8" d="M482.56,362.14c2.67,45.5,20.71,58.54,20.71,58.54"/>
		<path class="st8" d="M464.86,337.45c0,0,9.56,25.99,17.7,24.68c8.14-1.31,22.56-25.69,22.56-25.69"/>
		
			<ellipse transform="matrix(0.0677 -0.9977 0.9977 0.0677 258.0516 797.9579)" class="st7" cx="555.97" cy="260.91" rx="47.14" ry="35.5"/>
		<ellipse transform="matrix(0.0677 -0.9977 0.9977 0.0677 255.7381 769.1867)" cx="539.42" cy="247.76" rx="15.37" ry="12.12"/>
		<path class="st3" d="M528.99,418.75c0,0-6.81,21.51,2.78,29.27s68.26-8.12,68.26-8.12l14.93-25.79l12.2-30.55l-0.69-22.43
			l-19.73-15.91l-12.45,25.97l-14.32,2.32"/>
		<g>
			<path class="st3" d="M616.16,345.81c0,0-4.26-8.13-14.21-6.03s-10.25,27.45-10.25,27.45s-11.9-16.02-23.01-12.75
				c-11.11,3.27-12.03,25.9-12.03,25.9s-5.46-2.98-14.39,2.33s-2.61,31.34-2.61,31.34s-17.56-4.61-14.45,14.59"/>
			<path d="M616.16,345.81c-2.2-3.29-5.84-5.51-9.62-5.7c-0.94-0.07-1.89,0.01-2.82,0.11l-1.39,0.27c-0.24,0.03-0.43,0.12-0.64,0.19
				c-0.21,0.06-0.41,0.13-0.6,0.24c-1.57,0.74-2.74,2.23-3.64,3.84c-1.79,3.28-2.63,7.12-3.23,10.93
				c-0.59,3.81-0.89,7.75-0.91,11.57l-0.02,4.42l-2.88-3.48c-2.92-3.52-6.34-6.91-10.16-9.33c-1.91-1.21-3.94-2.16-6-2.61
				c-2.04-0.49-4.12-0.33-5.89,0.41c-1.75,0.78-3.25,2.27-4.43,4.08c-1.19,1.81-2.07,3.91-2.8,6.07c-1.44,4.33-2.24,9.07-2.54,13.64
				l-2.86,1.62c0.03,0.02-0.01,0-0.04-0.02c-0.03-0.01-0.06-0.03-0.11-0.05c-0.08-0.03-0.16-0.07-0.25-0.09
				c-0.17-0.06-0.37-0.12-0.56-0.17c-0.39-0.1-0.8-0.17-1.22-0.22c-0.84-0.09-1.71-0.07-2.58-0.01c-1.75,0.18-3.51,0.69-5.21,1.42
				c-0.85,0.36-1.68,0.8-2.5,1.25c-0.65,0.39-1.19,0.86-1.68,1.5c-0.94,1.3-1.56,3.03-1.93,4.85c-0.76,3.66-0.75,7.62-0.49,11.53
				c0.28,3.91,0.78,7.87,1.55,11.72l0.35,1.74l-1.68-0.44c-1.89-0.49-4.02-0.71-6.02-0.52c-2,0.19-3.96,0.88-5.4,2.26
				c-0.72,0.68-1.32,1.51-1.75,2.44c-0.41,0.94-0.73,1.94-0.9,2.98c-0.38,2.08-0.33,4.25-0.11,6.39c-0.44-2.1-0.75-4.27-0.57-6.47
				c0.08-1.1,0.31-2.19,0.68-3.26c0.39-1.06,0.97-2.07,1.74-2.94c1.56-1.75,3.83-2.73,6.07-3.11c2.27-0.38,4.51-0.32,6.81,0.15
				l-1.33,1.31c-1.02-3.96-1.8-7.92-2.26-11.98c-0.43-4.05-0.65-8.18,0.04-12.41c0.35-2.1,1.02-4.27,2.36-6.27
				c0.69-0.98,1.65-1.89,2.7-2.54c0.92-0.53,1.85-1.06,2.83-1.5c1.95-0.9,4.06-1.59,6.29-1.87c1.12-0.12,2.26-0.15,3.41-0.03
				c0.58,0.07,1.16,0.16,1.74,0.3c0.29,0.07,0.58,0.15,0.88,0.26c0.32,0.11,0.55,0.19,0.99,0.41l-2.86,1.62
				c0.13-2.56,0.43-4.98,0.85-7.44c0.43-2.45,0.99-4.89,1.77-7.3c0.8-2.4,1.83-4.78,3.29-7c1.45-2.2,3.48-4.29,6.17-5.47
				c2.68-1.13,5.65-1.23,8.29-0.58c2.65,0.65,5.01,1.86,7.13,3.28c2.13,1.42,4.04,3.07,5.83,4.81c1.79,1.76,3.41,3.59,4.93,5.66
				l-2.9,0.94c0.19-4.08,0.66-8.04,1.45-12.02c0.86-3.94,1.94-7.91,4.16-11.49c0.57-0.88,1.21-1.74,2.01-2.48
				c0.78-0.74,1.69-1.41,2.74-1.8c0.25-0.12,0.52-0.19,0.79-0.26c0.27-0.06,0.54-0.16,0.8-0.17l1.54-0.18
				c0.52-0.03,1.04-0.01,1.55-0.02c0.52-0.01,1.03,0.1,1.54,0.15c2.04,0.31,4.01,1.1,5.63,2.32
				C613.91,342.5,615.26,344.04,616.16,345.81z"/>
		</g>
		<path class="st1" d="M861.48,658.52c0,0,14.95-2.05,9.43-16.93c-5.74-15.48-14.75-19.11-14.75-19.11s-12.93-20.32-25.63-23.76"/>
		<path class="st1" d="M850.59,628.53c0,0,10.83,10.12,10.88,21.04c0.05,9.19-3.46,17.8-17.09,12.77"/>
		<g>
			<path class="st1" d="M831.43,600.54c-36.19-73.43-85.98-119.81-149.39-159.78c7.32,4.61-19.66,17.88-12.5,22.74
				c67.55,45.78,105.31,71.76,142.02,154.41c0,0-13.84,13.57-8.99,23.08c4.85,9.5,16.83,7.07,16.83,7.07s-1.94,7.32,0.96,11.43
				c2.9,4.11,13.06,18.86,23.22,4.11c10.16-14.75-3.87-27.57-3.87-27.57"/>
		</g>
		<g>
			<path class="st3" d="M633.02,470.16c0,0,18.45,19.23,33.25,18.1c14.79-1.13,10.87-17.43,10.87-17.43s11.52,8.19,21.31,4.49
				c9.79-3.71-0.61-24.96-0.61-24.96s7.14,4.72,15.28-2.47c8.14-7.2-19.05-23.83-19.05-23.83"/>
			<path d="M633.02,470.16c3.84,3.54,7.93,6.81,12.26,9.68c2.16,1.43,4.41,2.74,6.72,3.88c2.3,1.16,4.69,2.12,7.13,2.78
				c2.44,0.65,4.96,0.94,7.39,0.68c2.45-0.26,4.8-1.07,6.5-2.62c1.72-1.54,2.68-3.77,3.06-6.15c0.38-2.36,0.24-4.95-0.26-7.25
				l-0.71-3.29l2.82,1.86c1.6,1.06,3.44,2.02,5.26,2.81c1.84,0.79,3.73,1.43,5.65,1.83c1.92,0.41,3.87,0.54,5.75,0.35
				c0.94-0.11,1.86-0.31,2.75-0.59c0.46-0.16,0.86-0.29,1.19-0.48c0.34-0.19,0.65-0.42,0.93-0.68c1.12-1.04,1.62-2.82,1.7-4.69
				c0.08-1.89-0.19-3.87-0.61-5.82c-0.87-3.9-2.26-7.82-3.92-11.49l-1.91-4.23l3.87,2.51c0.27,0.18,0.74,0.41,1.15,0.58
				c0.43,0.17,0.87,0.32,1.32,0.44c0.9,0.24,1.83,0.35,2.76,0.35c1.87,0,3.74-0.51,5.45-1.4c0.86-0.45,1.68-0.98,2.46-1.58
				c0.83-0.65,1.4-1.15,1.68-1.88c0.59-1.42-0.1-3.38-1.13-5.04c-1.03-1.69-2.38-3.25-3.8-4.74c-1.42-1.49-2.94-2.91-4.51-4.27
				c-3.15-2.71-6.48-5.23-9.9-7.64c3.66,2.03,7.17,4.33,10.54,6.85c3.34,2.54,6.65,5.22,9.18,8.82c0.62,0.91,1.17,1.9,1.54,3.02
				c0.36,1.11,0.5,2.45,0.04,3.72c-0.41,1.27-1.48,2.23-2.26,2.88c-0.85,0.7-1.76,1.35-2.73,1.91c-1.95,1.11-4.19,1.85-6.51,1.9
				c-1.16,0.04-2.32-0.08-3.44-0.35c-0.56-0.13-1.12-0.3-1.66-0.51c-0.56-0.22-1.04-0.43-1.66-0.8l1.95-1.71
				c1.86,3.88,3.38,7.82,4.34,12.05c0.47,2.11,0.8,4.29,0.72,6.57c-0.05,1.14-0.2,2.31-0.58,3.48c-0.38,1.16-1.02,2.33-1.98,3.25
				c-0.47,0.46-1.02,0.85-1.58,1.15c-0.58,0.32-1.17,0.51-1.7,0.69c-1.1,0.35-2.22,0.58-3.35,0.7c-2.26,0.22-4.52,0.03-6.67-0.44
				c-4.33-0.96-8.23-2.8-11.88-5.28l2.1-1.42c0.3,1.44,0.42,2.77,0.46,4.16c0.02,1.38-0.05,2.78-0.31,4.16
				c-0.47,2.75-1.77,5.57-4.03,7.48c-2.25,1.93-5.14,2.75-7.86,2.96c-2.78,0.24-5.53-0.25-8.09-1.04
				c-5.16-1.62-9.72-4.43-13.94-7.56C640.47,477.53,636.55,474.02,633.02,470.16z"/>
		</g>
	</g>
</g>
<g id="_x30_3_x5F_MECHON">
</g>
</svg>
