<?xml version="1.0" encoding="utf-8"?>
<!-- Generator: Adobe Illustrator 24.0.3, SVG Export Plug-In . SVG Version: 6.00 Build 0)  -->
<svg version="1.1" xmlns="http://www.w3.org/2000/svg" xmlns:xlink="http://www.w3.org/1999/xlink" x="0px" y="0px"
	 viewBox="0 0 1080 1080" style="enable-background:new 0 0 1080 1080;" xml:space="preserve">
<style type="text/css">
	.st0{fill:none;stroke:#00B2E3;stroke-width:3;stroke-miterlimit:10;}
	.st1{fill:#FFFFFF;stroke:#000000;stroke-width:5;stroke-miterlimit:10;}
	.st2{stroke:#FFFFFF;stroke-width:4;stroke-miterlimit:10;}
	.st3{fill:#FFFFFF;}
	.st4{fill:none;stroke:#FFFFFF;stroke-width:2;stroke-miterlimit:10;}
	.st5{fill:#FFFFFF;stroke:#000000;stroke-width:3;stroke-miterlimit:10;}
	.st6{fill:none;stroke:#000000;stroke-width:5;stroke-miterlimit:10;}
	.st7{fill:#FFFFFF;stroke:#000000;stroke-width:4;stroke-miterlimit:10;}
	.st8{fill:none;stroke:#000000;stroke-width:3;stroke-miterlimit:10;}
	.st9{fill:none;stroke:#000000;stroke-width:2;stroke-miterlimit:10;}
	.st10{fill:#FFFFFF;stroke:#000000;stroke-width:2;stroke-miterlimit:10;}
	.st11{stroke:#FFFFFF;stroke-width:5;stroke-miterlimit:10;}
	.st12{stroke:#000000;stroke-width:5;stroke-miterlimit:10;}
	.st13{stroke:#FFFFFF;stroke-width:2;stroke-miterlimit:10;}
	.st14{fill:#CCCCCC;}
</style>
<g id="Capa_2">
</g>
<g id="_x30_3_x5F_PIERNA_x5F_IZQ">
</g>
<g id="_x30_3_x5F_PIERNA_x5F_DER">
</g>
<g id="_x30_3_x5F_CUERPO">
</g>
<g id="_x30_3_x5F_BRAZO_x5F_DER">
</g>
<g id="_x30_3_x5F_HOMBRO_x5F_DER">
</g>
<g id="_x30_3_x5F_BRAZO_x5F_IZQ">
</g>
<g id="_x30_3_x5F_HOMBRO_x5F_IZQ">
</g>
<g id="_x30_3_x5F_OREJA_x5F_DER">
</g>
<g id="_x30_3_x5F_OREJA_x5F_IZQ">
</g>
<g id="_x30_3_x5F_CABEZA">
</g>
<g id="_x30_3_x5F_PUPILAS">
	<ellipse class="st0" cx="539.42" cy="994.62" rx="323.15" ry="36.41"/>
	<g>
		<g>
			<g>
				<path class="st1" d="M624.17,934.69c79.01-60.86,24.59-130.3-28.21-185.23c6.62-6.34,12.96-12.95,19.57-19.3
					c58.96,68.75,114.57,159,18.37,230.88"/>
			</g>
			<path d="M641.89,764.29l29.89,47.36c0,0-3.84,11.39-18.76,12.32l-25.06-40.63l-32-33.89l19.57-19.3L641.89,764.29z"/>
			<path class="st1" d="M642.5,954.23c0,0-20.8,40.88-26.53,40.47c-5.73-0.41-22.71-25.16-27.74-31.47
				c-5.02-6.31,37.74-30.14,37.74-30.14"/>
			<g>
				<path d="M604.89,984.91c1.67-2.13,3.2-4.03,4.64-5.95c1.44-1.91,2.74-3.82,3.92-5.78c0.31-0.48,0.62-0.96,0.87-1.48l0.85-1.5
					c0.48-1.04,1.07-2.05,1.52-3.14c1.06-2.14,1.79-4.43,2.95-6.92c0.94,2.52,1.26,5.29,0.84,7.98c-0.12,1.37-0.55,2.67-0.96,3.98
					c-0.52,1.26-1.05,2.54-1.8,3.69c-1.42,2.34-3.28,4.4-5.46,5.99C610.08,983.34,607.6,984.57,604.89,984.91z"/>
			</g>
		</g>
		<g>
			<g>
				<path class="st1" d="M469.14,934.83c-80.43-58.98-27.66-129.69,23.83-185.85c-6.76-6.18-13.26-12.64-20.02-18.84
					c-57.32,70.12-110.79,161.66-12.92,231.25"/>
			</g>
			<path d="M447.41,764.91l-29.98,51.95c0,0,3.74,11,18.68,11.57l25.68-44.81l31.19-34.63l-20.02-18.84L447.41,764.91z"/>
			<path class="st1" d="M451.28,954.8c0,0,21.75,40.38,27.47,39.83c5.72-0.55,22.11-25.69,26.99-32.12s-38.44-29.24-38.44-29.24"/>
			<g>
				<path d="M489.6,984.59c-2.72-0.27-5.23-1.44-7.44-2.97c-2.21-1.54-4.12-3.56-5.6-5.86c-0.78-1.13-1.33-2.4-1.88-3.65
					c-0.43-1.31-0.9-2.59-1.05-3.96c-0.48-2.68-0.22-5.46,0.65-8c1.21,2.47,2,4.74,3.11,6.85c0.47,1.08,1.08,2.08,1.59,3.11
					l0.88,1.48c0.26,0.51,0.58,0.98,0.91,1.46c1.23,1.93,2.57,3.82,4.06,5.69C486.31,980.64,487.89,982.5,489.6,984.59z"/>
			</g>
		</g>
		<path class="st3" d="M709.47,647.24c-0.05-2.26-0.4-18.41-0.4-18.41s5.94-2.02,4.92-6.47c-1.02-4.46-8.08-7.31-8.08-7.31
			s10.1-5.82,8.52-14.9c-1.58-9.09-13.41-7.98-13.41-7.98c0.14-2.24-4.23-9.92-4.23-9.92l0.01-0.01c0.21-0.22,2.43-2.64,3.87-6.01
			c1.33-3.08,2-6.97-0.08-10.72c-4.12-7.39-13.12-4.94-13.33-4.88c0.09-0.15,1.4-2.4-1.02-10.98c-2.5-8.89-9.59-9.08-9.59-9.08
			c6.58-9.26,4.33-20.91-2.57-26.27c-6.89-5.36-14.27,2.2-14.27,2.2l-7.44-7.67c0,0,0.49-9.3-5.8-11.89
			c-6.29-2.59-12.35,0.27-12.35,0.27s1.28-15.5-6.77-19.44c-8.05-3.93-16.21,4.88-16.21,4.88s0.34-9.56-3.36-10.29
			c-3.71-0.73-5.98,5.75-5.98,5.75s-1.87-13.33-9.54-15.03c-6.5-1.44-9.44,7.17-10.19,9.84c1.27-6.35-7.22-13.72-13.16-11.85
			c-6.2,1.94-3.67,11.69-3.67,11.69l-19.19-0.88c0,0-0.89-9.01-6.86-7.56c-5.98,1.45-8.61,7.89-8.61,7.89s1.16-13.64-12.33-11.86
			c-13.21,1.75-10.19,11.93-10.07,12.33c-0.19-0.45-5.45-12.7-15.79-8.93c-10.54,3.84-8.51,16.91-8.51,16.91s-7.88-8.62-17.21-7.06
			c-9.33,1.55-9.65,14.41-9.65,14.41s-5.34-11.92-17.19-4.43c-11.55,7.3-7.86,18.59-7.67,19.14c-0.24-0.42-4.87-8.45-9.8-4.99
			c-10.43,7.34-7.17,17.76-7,18.26c-0.32-0.4-6.28-7.93-9.73-1.32c-3.48,6.66-0.7,14.68-0.6,14.98c-0.24-0.27-6.27-6.93-11.52,0.77
			c-5.38,7.86-0.77,17.83-0.77,17.83s-9.7-3.49-13.21,5.11c-3.5,8.59,4.98,16.41,4.98,16.41s-14.13-4.47-16.61,9.01
			c-2.48,13.48,6.8,16.77,6.8,16.77c-1.64,5.05-3.45,13.17-3.56,13.66c0,0.02-0.01,0.03-0.01,0.03s-12.41,0.15-13.25,14.62
			c-0.82,14.05,9.71,19.58,10.33,19.9c-3.97-1.67-10.92,6.46-10.15,9.78c0.74,3.24,8.19,5.6,8.65,5.75
			c-0.64-0.06-16.18-1.46-15.46,10.41c0.68,11.36,14.18,14.95,15.87,15.36c-4.83-0.96-9.84,6.78-8.57,12.62
			c1.28,5.91,12.99,6.95,12.99,6.95s-3.25,5.75,0.21,9.55c3.26,3.58,4.75,2.32,4.91,2.16c-0.35,0.44-7.25,9.12-3.54,14.07
			c3.81,5.08,8.19,4.84,8.19,4.84c1,2.43,7.14,9.56,7.14,9.56s-7.02,6.52-2.03,12.86c4.98,6.34,10.96,4.74,10.96,4.74
			s-4.27,5.52,0.24,11.09c4.51,5.59,10.25,3.91,10.25,3.91s-5.86,6.84,0.23,10.58c6.08,3.74,9.03,1.1,9.03,1.1
			c-3.32,6.78-1.46,18.1,5.29,20.28c6.75,2.18,11.85-6.29,11.85-6.29c3.6,3.11,11.34,10.69,11.34,10.69s-1.67,8.04,2.06,9.76
			c3.74,1.73,8.91-4.46,8.91-4.46s-4.32,13.66,10.33,18.24c7.65,2.4,8.77-8.39,8.77-8.39c1.63,0.72,15.34,5.78,15.34,5.78
			s-5.73,8.8,7.49,11.61c5.35,1.14,9.26-7.27,9.26-7.27s-0.88,10.32,12.08,11.59c7.72,0.75,8.92-8.83,8.92-8.83
			s4.15,14.74,15.23,14.5s9.39-14.46,9.39-14.46c3.27,0.13,13.36-2.23,13.36-2.23s1.38,10.74,13.79,8.15
			c12.42-2.59,10.8-14.7,10.8-14.7s5.48,8.92,14.86,4.59c6.97-3.22,6.84-14.16,6.84-14.16s1.5,4.95,8.38,2.48
			c6.08-2.19,6.66-9.57,6.7-11.22c0.17,4.55,10.34,5.11,13.89,2.26c3.63-2.92-2.68-10.87-1.55-11.78c1.13-0.91,8.9-7.79,8.9-7.79
			s6.64,4.55,8.92,2.95c2.24-1.57-0.34-9.24-0.43-9.53c0.22,0.21,5.52,5.18,10.15-0.23c4.73-5.53-0.64-12.75-0.64-12.75l6.9-9.28
			c0,0,3.02,2.74,7.3-2.27c4.28-4.99,2.98-14.21,2.98-14.21s4.43,4.24,11.38-5.46c6.84-9.55,3.12-21.36,3-21.74
			c0.24,0.06,5.44,1.37,9.66-12.09c4.32-13.78-1.06-16.75-1.06-16.75s6.01,0.39,8.21-4.57c2.2-4.95-7.82-11.6-7.82-11.6
			s12.18-0.62,14.88-14.87C725.54,650.77,709.47,647.24,709.47,647.24z"/>
		<path class="st6" d="M709.47,647.24c-0.05-2.26-0.4-18.41-0.4-18.41s5.94-2.02,4.92-6.47c-1.02-4.46-8.08-7.31-8.08-7.31
			s10.1-5.82,8.52-14.9c-1.58-9.09-13.41-7.98-13.41-7.98c0.14-2.24-4.23-9.92-4.23-9.92l0.01-0.01c0.21-0.22,2.43-2.64,3.87-6.01
			c1.33-3.08,2-6.97-0.08-10.72c-4.12-7.39-13.12-4.94-13.33-4.88c0.09-0.15,1.4-2.4-1.02-10.98c-2.5-8.89-9.59-9.08-9.59-9.08
			c6.58-9.26,4.33-20.91-2.57-26.27c-6.89-5.36-14.27,2.2-14.27,2.2l-7.44-7.67c0,0,0.49-9.3-5.8-11.89
			c-6.29-2.59-12.35,0.27-12.35,0.27s1.28-15.5-6.77-19.44c-8.05-3.93-16.21,4.88-16.21,4.88s0.34-9.56-3.36-10.29
			c-3.71-0.73-5.98,5.75-5.98,5.75s-1.87-13.33-9.54-15.03c-6.5-1.44-9.44,7.17-10.19,9.84c1.27-6.35-7.22-13.72-13.16-11.85
			c-6.2,1.94-3.67,11.69-3.67,11.69l-19.19-0.88c0,0-0.89-9.01-6.86-7.56c-5.98,1.45-8.61,7.89-8.61,7.89s1.16-13.64-12.33-11.86
			c-13.21,1.75-10.19,11.93-10.07,12.33c-0.19-0.45-5.45-12.7-15.79-8.93c-10.54,3.84-8.51,16.91-8.51,16.91s-7.88-8.62-17.21-7.06
			c-9.33,1.55-9.65,14.41-9.65,14.41s-5.34-11.92-17.19-4.43c-11.55,7.3-7.86,18.59-7.67,19.14c-0.24-0.42-4.87-8.45-9.8-4.99
			c-10.43,7.34-7.17,17.76-7,18.26c-0.32-0.4-6.28-7.93-9.73-1.32c-3.48,6.66-0.7,14.68-0.6,14.98c-0.24-0.27-6.27-6.93-11.52,0.77
			c-5.38,7.86-0.77,17.83-0.77,17.83s-9.7-3.49-13.21,5.11c-3.5,8.59,4.98,16.41,4.98,16.41s-14.13-4.47-16.61,9.01
			c-2.48,13.48,6.8,16.77,6.8,16.77c-1.64,5.05-3.45,13.17-3.56,13.66c0,0.02-0.01,0.03-0.01,0.03s-12.41,0.15-13.25,14.62
			c-0.82,14.05,9.71,19.58,10.33,19.9c-3.97-1.67-10.92,6.46-10.15,9.78c0.74,3.24,8.19,5.6,8.65,5.75
			c-0.64-0.06-16.18-1.46-15.46,10.41c0.68,11.36,14.18,14.95,15.87,15.36c-4.83-0.96-9.84,6.78-8.57,12.62
			c1.28,5.91,12.99,6.95,12.99,6.95s-3.25,5.75,0.21,9.55c3.26,3.58,4.75,2.32,4.91,2.16c-0.35,0.44-7.25,9.12-3.54,14.07
			c3.81,5.08,8.19,4.84,8.19,4.84c1,2.43,7.14,9.56,7.14,9.56s-7.02,6.52-2.03,12.86c4.98,6.34,10.96,4.74,10.96,4.74
			s-4.27,5.52,0.24,11.09c4.51,5.59,10.25,3.91,10.25,3.91s-5.86,6.84,0.23,10.58c6.08,3.74,9.03,1.1,9.03,1.1
			c-3.32,6.78-1.46,18.1,5.29,20.28c6.75,2.18,11.85-6.29,11.85-6.29c3.6,3.11,11.34,10.69,11.34,10.69s-1.67,8.04,2.06,9.76
			c3.74,1.73,8.91-4.46,8.91-4.46s-4.32,13.66,10.33,18.24c7.65,2.4,8.77-8.39,8.77-8.39c1.63,0.72,15.34,5.78,15.34,5.78
			s-5.73,8.8,7.49,11.61c5.35,1.14,9.26-7.27,9.26-7.27s-0.88,10.32,12.08,11.59c7.72,0.75,8.92-8.83,8.92-8.83
			s4.15,14.74,15.23,14.5s9.39-14.46,9.39-14.46c3.27,0.13,13.36-2.23,13.36-2.23s1.38,10.74,13.79,8.15
			c12.42-2.59,10.8-14.7,10.8-14.7s5.48,8.92,14.86,4.59c6.97-3.22,6.84-14.16,6.84-14.16s1.5,4.95,8.38,2.48
			c6.08-2.19,6.66-9.57,6.7-11.22c0.17,4.55,10.34,5.11,13.89,2.26c3.63-2.92-2.68-10.87-1.55-11.78c1.13-0.91,8.9-7.79,8.9-7.79
			s6.64,4.55,8.92,2.95c2.24-1.57-0.34-9.24-0.43-9.53c0.22,0.21,5.52,5.18,10.15-0.23c4.73-5.53-0.64-12.75-0.64-12.75l6.9-9.28
			c0,0,3.02,2.74,7.3-2.27c4.28-4.99,2.98-14.21,2.98-14.21s4.43,4.24,11.38-5.46c6.84-9.55,3.12-21.36,3-21.74
			c0.24,0.06,5.44,1.37,9.66-12.09c4.32-13.78-1.06-16.75-1.06-16.75s6.01,0.39,8.21-4.57c2.2-4.95-7.82-11.6-7.82-11.6
			s12.18-0.62,14.88-14.87C725.54,650.77,709.47,647.24,709.47,647.24z"/>
		<path class="st3" d="M424.26,555.59c0,0-14.64-49.43-22.22-81.93c-7.58-32.5-7.12-67.94-4.8-86.06
			c2.32-18.12,6.23-37.42,6.23-37.42s-10.48-1.58-14.21-12.14c-3.73-10.56-3.44-14.6-1.79-16.5s3.28-4.34,5.98-2.91
			c0,0,2.87-5.52,7.25-5.33c4.39,0.19,5.43,4.7,5.43,4.7s0.85-5.37,6.14-4.69s7.71,8.9,10.35,11.65c2.64,2.75,6.19,3.99,9.22,1.93
			c3.04-2.06,8.21-7.37,11.55-3.55c3.34,3.81-0.03,13.43-1.72,14.44c-1.69,1.01-6.92,7.08-11.13,8.94
			c-4.22,1.86-11.98,4.55-11.98,4.55s-4.05,11.81-5.4,32.72c-1.35,20.91-2.02,43.35,0.34,56.67c2.36,13.32,9.11,50.09,12.37,63.25
			s13.8,43.68,13.8,43.68"/>
		<path class="st6" d="M424.26,555.59c0,0-16.94-45.1-25.51-100.91s4.72-104.51,4.72-104.51s-10.41-1.8-13.84-11.11
			c-3.43-9.31-4.84-17.14,0.18-19.88c5.02-2.74,7.56,5.26,10.01,10.7s8.43,8.04,8.43,8.04"/>
		<path class="st6" d="M440.42,549.38c0,0-21.78-51.59-26.82-110.23c-5.04-58.64,5.05-88.39,5.05-88.39s12.71-2.66,20.52-10.03
			c5.66-5.34,7.51-15.22,2.94-18.72c-6.04-4.63-9.29,6.91-15.37,6.35c-4.11-0.38-10-14.74-14.47-15.04s-5.22,5.72-5.22,5.72"/>
		<path class="st6" d="M418.02,332.95c0,0-9.21-7.56-11.88-14.95c-2.93-8.11-13.32-3.14-11.35,2.2"/>
		<g>
			<path class="st3" d="M415.09,568.55c0,0-6.75-13.49-1.8-16.64c4.95-3.15,14.62,3.67,14.62,3.67s-2.25-7.04,1.57-8.39
				c3.82-1.35,11.13,6.3,11.13,6.3s-1.91-14.84,6.19-15.07c8.1-0.22,11.02,6.07,11.02,6.07"/>
			<path d="M415.09,568.55c-0.8-1.17-1.52-2.4-2.17-3.66c-0.66-1.27-1.25-2.57-1.73-3.94c-0.48-1.37-0.91-2.79-1.06-4.34
				c-0.07-0.78-0.08-1.59,0.05-2.45c0.13-0.85,0.43-1.79,1.07-2.63c0.17-0.2,0.34-0.4,0.52-0.59c0.2-0.17,0.41-0.35,0.61-0.5
				c0.41-0.24,0.83-0.46,1.25-0.68c0.43-0.15,0.88-0.28,1.32-0.4c0.44-0.09,0.87-0.12,1.31-0.18c1.72-0.09,3.31,0.21,4.81,0.61
				c3,0.87,5.59,2.18,8.2,3.84l-3.65,2.68c-0.36-1.13-0.56-2.1-0.71-3.21c-0.13-1.09-0.2-2.25,0.02-3.54c0.04-0.31,0.14-0.66,0.25-1
				c0.08-0.33,0.26-0.69,0.43-1.04c0.35-0.7,0.92-1.4,1.63-1.92c0.71-0.5,1.49-0.85,2.39-0.97c0.46-0.1,0.81-0.06,1.2-0.05
				l0.57,0.04l0.49,0.11c1.35,0.28,2.35,0.8,3.32,1.33c0.96,0.53,1.8,1.13,2.61,1.76c1.62,1.27,3.04,2.56,4.45,4.08l-4,1.91
				c-0.13-1.5-0.15-2.83-0.09-4.25c0.07-1.4,0.2-2.81,0.5-4.22c0.29-1.41,0.72-2.85,1.47-4.23c0.73-1.36,1.89-2.76,3.51-3.47
				c0.79-0.38,1.64-0.55,2.45-0.58l0.61-0.01l0.54,0.05l1.07,0.1c1.42,0.23,2.81,0.67,4.08,1.31c2.54,1.29,4.48,3.53,5.38,6.02
				c-1.58-2.12-3.77-3.61-6.09-4.29c-1.17-0.34-2.37-0.45-3.55-0.46l-0.9,0.05l-0.44,0.03l-0.37,0.07c-0.49,0.1-0.93,0.27-1.29,0.53
				c-1.47,0.97-2.17,3.22-2.41,5.55c-0.25,2.32-0.14,4.91,0.17,7.22l0.87,6.52l-4.88-4.61c-1.23-1.17-2.63-2.38-4.02-3.38
				c-0.7-0.49-1.41-0.97-2.1-1.35c-0.68-0.37-1.4-0.69-1.9-0.77l-0.2-0.05l-0.13,0.01c-0.08,0.01-0.2-0.04-0.2,0
				c-0.04-0.01-0.14,0.03-0.2,0.06c-0.07,0.04-0.26,0.25-0.37,0.84c-0.24,1.12-0.02,2.97,0.37,4.4l1.8,6.66l-5.45-3.98
				c-0.98-0.71-2.15-1.44-3.28-2.07c-1.14-0.64-2.3-1.22-3.47-1.64c-1.16-0.44-2.34-0.76-3.42-0.81c-0.26,0.01-0.53-0.01-0.78,0
				c-0.23,0.05-0.47,0.08-0.71,0.12c-0.2,0.09-0.41,0.17-0.63,0.24c-0.08,0.05-0.14,0.09-0.23,0.13l-0.21,0.16
				c-0.56,0.47-0.9,1.64-0.96,2.87c-0.05,1.25,0.05,2.59,0.26,3.93C413.54,563.13,414.25,565.85,415.09,568.55z"/>
		</g>
		<path class="st3" d="M653.53,565.68c0,0,14.64-49.43,22.22-81.93c7.58-32.5,7.12-67.94,4.8-86.06
			c-2.32-18.12-6.23-37.42-6.23-37.42s10.48-1.58,14.21-12.14c3.73-10.56,3.44-14.6,1.79-16.5c-1.65-1.91-3.28-4.34-5.98-2.91
			c0,0-2.87-5.52-7.25-5.34c-4.39,0.19-5.43,4.7-5.43,4.7s-0.85-5.37-6.14-4.69c-5.29,0.68-7.71,8.9-10.35,11.65
			c-2.64,2.75-6.19,3.99-9.22,1.93c-3.04-2.06-8.21-7.37-11.55-3.55s0.03,13.43,1.72,14.44c1.69,1.01,6.92,7.08,11.13,8.94
			s11.98,4.55,11.98,4.55s4.05,11.81,5.4,32.72c1.35,20.91,2.02,43.35-0.34,56.67c-2.36,13.32-9.11,50.09-12.37,63.25
			c-3.26,13.16-13.8,43.68-13.8,43.68"/>
		<path class="st6" d="M653.53,565.68c0,0,16.94-45.1,25.51-100.91c8.57-55.8-4.72-104.51-4.72-104.51s10.41-1.8,13.84-11.11
			c3.43-9.31,4.84-17.14-0.18-19.88c-5.02-2.74-7.56,5.26-10.01,10.7c-2.45,5.44-8.43,8.04-8.43,8.04"/>
		<path class="st6" d="M637.37,559.46c0,0,21.78-51.59,26.82-110.23s-5.05-88.39-5.05-88.39s-12.71-2.66-20.52-10.03
			c-5.66-5.34-7.37-15.04-2.94-18.72c6.61-5.5,9.29,6.91,15.37,6.35c4.11-0.38,10-14.74,14.47-15.04c4.46-0.3,5.22,5.72,5.22,5.72"
			/>
		<path class="st6" d="M659.78,343.04c0,0,9.21-7.56,11.88-14.95c2.93-8.11,13.32-3.14,11.35,2.2"/>
		<g>
			<path class="st3" d="M617.55,556c0,0,7.42-13.13,12.8-10.79c5.38,2.34,5.13,14.17,5.13,14.17s4.58-5.8,7.84-3.38s1,12.75,1,12.75
				s11.24-9.88,15.95-3.29c4.71,6.59,1.12,12.53,1.12,12.53"/>
			<path d="M617.55,556c0.52-1.32,1.14-2.6,1.83-3.84c0.68-1.25,1.44-2.47,2.3-3.64c0.87-1.16,1.81-2.31,3.01-3.3
				c0.61-0.49,1.27-0.96,2.06-1.33c0.78-0.37,1.73-0.64,2.78-0.58c0.26,0.03,0.52,0.05,0.78,0.11c0.25,0.07,0.51,0.14,0.75,0.23
				c0.42,0.21,0.85,0.43,1.26,0.66c0.36,0.28,0.72,0.57,1.07,0.87c0.32,0.31,0.59,0.65,0.88,0.99c1.04,1.38,1.68,2.86,2.18,4.33
				c0.95,2.98,1.31,5.85,1.4,8.94l-4.26-1.53c0.74-0.93,1.43-1.63,2.26-2.39c0.83-0.72,1.75-1.42,2.95-1.96
				c0.28-0.14,0.63-0.25,0.97-0.35c0.32-0.12,0.72-0.17,1.1-0.22c0.77-0.1,1.68-0.02,2.51,0.28c0.81,0.3,1.54,0.77,2.14,1.44
				c0.34,0.32,0.5,0.64,0.71,0.97l0.29,0.5l0.19,0.47c0.52,1.28,0.65,2.4,0.75,3.49c0.1,1.09,0.06,2.13,0,3.15
				c-0.14,2.05-0.43,3.96-0.89,5.97l-3.82-2.25c1.16-0.95,2.26-1.71,3.47-2.45c1.2-0.73,2.44-1.4,3.78-1.94
				c1.33-0.54,2.76-0.99,4.33-1.14c1.54-0.15,3.34,0.03,4.84,0.97c0.75,0.44,1.37,1.06,1.85,1.71l0.35,0.49l0.26,0.47l0.52,0.94
				c0.61,1.31,1.01,2.7,1.19,4.11c0.35,2.83-0.42,5.69-1.98,7.83c0.88-2.5,0.89-5.15,0.15-7.45c-0.37-1.16-0.95-2.21-1.6-3.2
				l-0.55-0.71l-0.27-0.35l-0.27-0.27c-0.36-0.35-0.74-0.62-1.16-0.78c-1.62-0.68-3.88,0-5.95,1.1c-2.07,1.09-4.14,2.63-5.89,4.17
				l-4.92,4.37l1.1-6.62c0.28-1.68,0.5-3.51,0.56-5.22c0.01-0.86,0.02-1.71-0.05-2.49c-0.07-0.77-0.2-1.55-0.42-2.01l-0.07-0.19
				l-0.08-0.11c-0.05-0.06-0.08-0.19-0.11-0.17c-0.02-0.04-0.1-0.1-0.16-0.13c-0.07-0.04-0.36-0.07-0.9,0.16
				c-1.07,0.43-2.47,1.65-3.44,2.76l-4.51,5.21l0.26-6.74c0.05-1.21,0-2.59-0.12-3.87c-0.1-1.3-0.28-2.59-0.58-3.8
				c-0.29-1.21-0.68-2.37-1.24-3.29c-0.15-0.21-0.29-0.44-0.44-0.65c-0.17-0.17-0.33-0.35-0.49-0.53c-0.19-0.12-0.37-0.25-0.55-0.39
				c-0.08-0.04-0.16-0.07-0.23-0.12l-0.25-0.09c-0.7-0.21-1.86,0.17-2.92,0.81c-1.06,0.66-2.12,1.49-3.12,2.41
				C621.17,551.7,619.31,553.8,617.55,556z"/>
		</g>
		<path class="st1" d="M487.48,380.37c0,0-68.98,64.05-49.3,85.05s58.94-23.09,64.43-48.78c5.49-25.7-5.32-38.29-5.32-38.29
			L487.48,380.37z"/>
		<path class="st1" d="M585.87,379.7c0,0,73.15,59.24,54.93,81.52c-18.22,22.28-60.36-19.05-67.58-44.32s2.72-38.56,2.72-38.56
			L585.87,379.7z"/>
		<path class="st1" d="M541.58,343.39c0,0-36.25-1.58-47.34,18.86s-30.49,80.86-29.76,127.41c0.73,46.55,29,64.98,74.93,65.87
			c51.4,0.99,73.56-20.86,73.92-55.91c0.36-35.05-11.67-111.78-30.8-140.69C570.17,340.25,541.58,343.39,541.58,343.39z"/>
		
			<ellipse transform="matrix(0.1463 -0.9892 0.9892 0.1463 8.4011 833.7924)" class="st1" cx="487.29" cy="412.03" rx="37.57" ry="25.46"/>
		<g>
			<path class="st3" d="M475.76,460.2c0,0,7.97-9.35,17.48-28.86c9.51-19.52,10.57-43.01,8.52-52.18
				c-2.05-9.17-3.4-15.24-2.05-15.91c1.35-0.67,22.26,13.16,24.96,26.99c2.7,13.83,11.81,40.99,0,51.19
				c-11.81,10.2-12.82,21.67-12.82,21.67l-27.66,2.02L475.76,460.2z"/>
			<path class="st6" d="M477.79,454.32c0,0,30.7-33.06,20.58-84.33"/>
		</g>
		
			<ellipse transform="matrix(0.9892 -0.1463 0.1463 0.9892 -53.6387 90.7692)" class="st1" cx="590.22" cy="410.02" rx="25.46" ry="37.57"/>
		<g>
			<path class="st3" d="M602.05,458.06c0,0-7.97-9.35-17.48-28.86s-10.57-43.01-8.52-52.18s3.4-15.24,2.05-15.91
				c-1.35-0.67-22.26,13.16-24.96,26.99c-2.7,13.83-11.81,40.99,0,51.19c11.81,10.2,12.82,21.67,12.82,21.67l27.66,2.02
				L602.05,458.06z"/>
			<path class="st6" d="M600.03,452.18c0,0-30.7-33.06-20.58-84.33"/>
		</g>
		<line class="st6" x1="542.67" y1="556.87" x2="542.67" y2="508.52"/>
		<path class="st6" d="M518.83,484.41c0,0,17.54,26.54,23.84,26.09c6.3-0.45,22.2-26.85,22.2-26.85"/>
		<ellipse transform="matrix(0.2455 -0.9694 0.9694 0.2455 -19.6281 768.7311)" cx="484.03" cy="396.97" rx="15.44" ry="10.32"/>
		<ellipse transform="matrix(0.9795 -0.2014 0.2014 0.9795 -67.3775 127.3448)" cx="592.05" cy="394.75" rx="10.32" ry="15.44"/>
		<path class="st1" d="M570.82,345.61c0,0,13.67-10.81,4.53-17.29c-5.41-3.83-10.3,0.58-10.3,0.58s7.38-33.6-13.86-35.55
			c-21.24-1.94-13.53,33.56-13.53,33.56s-8.87-25.3-19.74-21.09c-10.87,4.21-3.37,22.91-3.37,22.91s-7.11-3.76-13.47,1.86
			c-6.96,6.15,6.79,16.57,6.79,16.57s-19.8,1.71-17.21,8.98s31.08,3.36,37.15-2.02c0,0-2.14,10.59,12.65,9.67
			c14.79-0.92,17.94-12.86,17.94-12.86s3.72-5.2,15.13-1.09L570.82,345.61z"/>
		<path class="st5" d="M517.76,85.28c0,0-13.97-21.42-3.78-26.65c10.19-5.23,21.23,16.02,21.23,16.02s0.09-9.61,8.18-7.42
			c8.1,2.19,7.25,11.64,7.25,11.64s3.88-4.72,8.6-1.43c4.72,3.29-3.72,12.57-3.72,12.57"/>
		<g>
			<path class="st7" d="M508.87,219.52c0,0-0.63,16.19,1.08,24.79c1.7,8.6,5.23,18.72,5.23,18.72s-8.84,12.65-6.81,14.67
				c2.02,2.02,9.78-5.73,9.78-5.73s6.53,12.17,9.78,10.8c4.39-1.86-1.18-15.18-1.18-15.18s12.31,2.55,13.49-2.36
				c1.18-4.89-16.06-5.4-16.06-5.4s-7.89-14.34-4.01-38.62"/>
			<path class="st9" d="M513.97,259.37c0,0,4.8-3.53,8.85-2.66"/>
			<path class="st9" d="M511.09,249.33c0,0,4.41-4.38,9.25-1.55"/>
			<path class="st9" d="M509.08,237.01c0,0,6.05-3.03,10.07,0"/>
		</g>
		<g>
			<path class="st7" d="M574.33,223.23c0,0,0.63,16.19-1.08,24.79c-1.7,8.6-5.23,18.72-5.23,18.72s8.84,12.65,6.81,14.67
				s-9.78-5.73-9.78-5.73s-6.53,12.17-9.78,10.8c-4.39-1.86,1.18-15.18,1.18-15.18s-12.31,2.55-13.49-2.36
				c-1.18-4.89,16.06-5.4,16.06-5.4s7.89-14.34,4.01-38.62"/>
			<path class="st9" d="M569.23,263.08c0,0-4.8-3.53-8.85-2.66"/>
			<path class="st9" d="M572.12,253.04c0,0-4.41-4.38-9.25-1.55"/>
			<path class="st9" d="M574.13,240.72c0,0-6.05-3.03-10.07,0"/>
		</g>
		<path class="st1" d="M513.98,139.48c0,0-35.18,11.24-51.6,31.03c-11.67,14.07-4.53,18.99,1.09,21.01
			c5.62,2.02,20.28-10.67,20.28-10.67s-10.54,17.03-4.95,20.02c9.67,5.17,13.94-9.22,13.94-9.22s0,13.49,4.27,15.52
			c4.27,2.02,10.12-10.57,10.12-10.57"/>
		<path class="st1" d="M555.54,139.48c0,0,36.9,1.7,57.9,16.54c14.93,10.55,9.32,17.15,4.42,20.57s-22.35-5.02-22.35-5.02
			s14.6,13.7,9.99,18.04c-7.99,7.51-15.86-5.27-15.86-5.27s3.51,13.03-0.09,16.09s-12.52-7.57-12.52-7.57"/>
		<path class="st1" d="M513.98,144.36c0,0-7.3,16.48-10.44,42.35c-3.15,25.86-1.71,36.58,17.99,42.73
			c13.69,4.27,48.13,2.28,55.1-2.7c7.87-5.62,4.05-29.46-0.22-44.75c-4.27-15.29-13.57-38.68-13.57-38.68"/>
		<path class="st1" d="M517.93,125.08c0,0-5.17,2.02-4.95,4.72c0.22,2.7,2.47,6.3,2.47,6.3s-4.94,1.8-3.82,4.5
			s24.74,35.76,27.66,36.66c2.92,0.9,23.39-33.28,24.51-35.76c1.12-2.47-0.22-8.1-2.25-8.1c0,0-0.29-12.81-6.55-11.58"/>
		<path class="st1" d="M552.34,129.81c-4.95,10.12-14.85,13.5-14.85,13.5s-14.39-7.87-20.01-22.49c-0.64-1.66-1.18-3.35-1.63-5.05
			c-3.12-11.73-1.93-23.68,0.61-27.75c0.33-0.52,0.67-0.91,1.02-1.15c3.6-2.47,8.77-6.53,21.81-5.62
			c13.05,0.9,17.09,8.77,17.09,16.42S557.28,119.69,552.34,129.81z"/>
		<path class="st10" d="M530.75,102.84c0,7.79-5.17,14.11-11.53,14.11c-0.81,0-1.6-0.1-2.36-0.3c-2.55-11.73-1.58-23.68,0.5-27.75
			c0.61-0.12,1.23-0.18,1.87-0.18C525.58,88.73,530.75,95.05,530.75,102.84z"/>
		<path d="M524.85,102.58c0,4.81-3.19,8.71-7.12,8.71c-0.5,0-0.99-0.06-1.46-0.18c-1.57-7.24-0.97-14.61,0.31-17.13
			c0.38-0.07,0.76-0.11,1.15-0.11C521.66,93.87,524.85,97.77,524.85,102.58z"/>
		<path class="st10" d="M540.45,102.84c0,7.79,5.25,14.11,11.72,14.11c0.82,0,1.63-0.1,2.4-0.3c2.59-11.73,1.6-23.68-0.5-27.75
			c-0.62-0.12-1.25-0.18-1.9-0.18C545.7,88.73,540.45,95.05,540.45,102.84z"/>
		<path class="st9" d="M526.45,134.52c0,0,4.47-8.85,11.05-8.68c6.58,0.17,12.97,7.19,12.97,7.19"/>
		<g>
			<g>
				<path d="M537.18,129.92c-0.25,0.26-0.45,0.55-0.69,0.82c-0.07,0.07-0.11,0.16-0.11,0.27c0,0.09,0.04,0.2,0.11,0.27
					c0.07,0.07,0.17,0.11,0.27,0.11c0.1,0,0.2-0.04,0.27-0.11c0.24-0.26,0.44-0.56,0.69-0.82c0.07-0.07,0.11-0.17,0.11-0.27
					c0-0.09-0.04-0.2-0.11-0.27c-0.07-0.07-0.17-0.11-0.27-0.11C537.34,129.81,537.25,129.84,537.18,129.92L537.18,129.92z"/>
			</g>
		</g>
		<g>
			<g>
				<path d="M538.12,130.45c0.24,0.29,0.5,0.56,0.77,0.81c0.07,0.07,0.17,0.11,0.27,0.11c0.09,0,0.2-0.04,0.27-0.11
					c0.07-0.07,0.11-0.17,0.11-0.27c0-0.1-0.04-0.2-0.11-0.27c-0.27-0.26-0.54-0.52-0.77-0.81c-0.06-0.07-0.18-0.11-0.27-0.11
					c-0.09,0-0.2,0.04-0.27,0.11c-0.07,0.07-0.11,0.17-0.11,0.27c0,0.03,0.01,0.07,0.01,0.1
					C538.04,130.35,538.07,130.4,538.12,130.45L538.12,130.45z"/>
			</g>
		</g>
		<path d="M546.61,102.08c0,4.81,3.19,8.71,7.12,8.71c0.5,0,0.99-0.06,1.46-0.18c1.57-7.24,0.97-14.61-0.31-17.13
			c-0.38-0.07-0.76-0.11-1.15-0.11C549.79,93.36,546.61,97.27,546.61,102.08z"/>
		<g>
			<path d="M517.42,136.98c2.8,3.02,5.46,6.11,8.23,9.1c1.38,1.5,2.78,2.98,4.25,4.37c0.74,0.69,1.49,1.38,2.29,1.99
				c0.79,0.62,1.65,1.18,2.65,1.44c-1.04-0.04-2.02-0.53-2.92-1.03c-0.9-0.54-1.73-1.15-2.53-1.81c-1.61-1.31-3.06-2.78-4.47-4.28
				C522.15,143.71,519.6,140.47,517.42,136.98z"/>
		</g>
		<g>
			<path d="M560.9,133.69c-2.23,3.29-4.74,6.36-7.35,9.34c-1.32,1.48-2.66,2.94-4.08,4.33c-1.42,1.37-2.87,2.79-4.6,3.79
				c0.76-0.64,1.42-1.37,2.07-2.11c0.66-0.73,1.31-1.47,1.96-2.22l3.9-4.46C555.43,139.41,558.06,136.47,560.9,133.69z"/>
		</g>
	</g>
</g>
<g id="_x30_3_x5F_MECHON">
</g>
</svg>
