<?xml version="1.0" encoding="utf-8"?>
<!-- Generator: Adobe Illustrator 24.0.3, SVG Export Plug-In . SVG Version: 6.00 Build 0)  -->
<svg version="1.1" xmlns="http://www.w3.org/2000/svg" xmlns:xlink="http://www.w3.org/1999/xlink" x="0px" y="0px"
	 viewBox="0 0 1080 1080" style="enable-background:new 0 0 1080 1080;" xml:space="preserve">
<style type="text/css">
	.st0{fill:none;stroke:#00B2E3;stroke-width:3;stroke-miterlimit:10;}
	.st1{fill:#FFFFFF;stroke:#000000;stroke-width:5;stroke-miterlimit:10;}
	.st2{stroke:#FFFFFF;stroke-width:4;stroke-miterlimit:10;}
	.st3{fill:#FFFFFF;}
	.st4{fill:none;stroke:#FFFFFF;stroke-width:2;stroke-miterlimit:10;}
	.st5{fill:#FFFFFF;stroke:#000000;stroke-width:3;stroke-miterlimit:10;}
	.st6{fill:none;stroke:#000000;stroke-width:5;stroke-miterlimit:10;}
	.st7{fill:#FFFFFF;stroke:#000000;stroke-width:4;stroke-miterlimit:10;}
	.st8{fill:none;stroke:#000000;stroke-width:3;stroke-miterlimit:10;}
	.st9{fill:none;stroke:#000000;stroke-width:2;stroke-miterlimit:10;}
	.st10{fill:#FFFFFF;stroke:#000000;stroke-width:2;stroke-miterlimit:10;}
	.st11{stroke:#FFFFFF;stroke-width:5;stroke-miterlimit:10;}
	.st12{stroke:#000000;stroke-width:5;stroke-miterlimit:10;}
	.st13{stroke:#FFFFFF;stroke-width:2;stroke-miterlimit:10;}
	.st14{fill:#CCCCCC;}
</style>
<g id="Capa_2">
</g>
<g id="_x30_3_x5F_PIERNA_x5F_IZQ">
</g>
<g id="_x30_3_x5F_PIERNA_x5F_DER">
</g>
<g id="_x30_3_x5F_CUERPO">
</g>
<g id="_x30_3_x5F_BRAZO_x5F_DER">
</g>
<g id="_x30_3_x5F_HOMBRO_x5F_DER">
</g>
<g id="_x30_3_x5F_BRAZO_x5F_IZQ">
</g>
<g id="_x30_3_x5F_HOMBRO_x5F_IZQ">
</g>
<g id="_x30_3_x5F_OREJA_x5F_DER">
</g>
<g id="_x30_3_x5F_OREJA_x5F_IZQ">
</g>
<g id="_x30_3_x5F_CABEZA">
</g>
<g id="_x30_3_x5F_PUPILAS">
	<ellipse class="st0" cx="539.42" cy="966.91" rx="323.15" ry="36.41"/>
	<g>
		<g>
			<path class="st1" d="M704.01,923.04c0.1-0.64,0.19-1.38,0.26-1.86c13.85-95.26-15.19-182.37-43.03-276.39
				c2.46,8.33,29-1.94,31.62,6.34c29.65,93.52,58.18,175.02,42.54,271.59c0,0,20.82,39.9,15.42,44.27
				c-5.4,4.37-43.67,3.43-53.31,2.01s6.75-47.82,6.75-47.82"/>
		</g>
		<g>
			<path d="M729.98,971.43c-0.08-3.2-0.17-6.15-0.41-9.06c-0.22-2.9-0.63-5.72-1.21-8.47c-0.13-0.69-0.25-1.39-0.47-2.06l-0.52-2.05
				c-0.46-1.33-0.8-2.72-1.36-4.05c-0.92-2.76-2.28-5.35-3.48-8.36c2.75,1.6,5.21,3.82,6.97,6.54c0.98,1.31,1.64,2.8,2.34,4.28
				c0.56,1.53,1.14,3.07,1.42,4.68c0.67,3.19,0.76,6.5,0.23,9.67C732.94,965.71,731.89,968.82,729.98,971.43z"/>
		</g>
		<path d="M663.26,653.01l18.9,62.87c0,0,29.63,0.15,23.48-19.18c-1.44-4.52-14.56-49.87-14.56-49.87L663.26,653.01z"/>
		<g>
			<path class="st1" d="M433.88,922.42c-0.1-0.64-0.19-1.38-0.26-1.86c-13.85-95.26,15.19-182.37,43.03-276.39
				c-2.46,8.33-29-1.94-31.62,6.34c-29.65,93.52-58.18,175.02-42.54,271.59c0,0-20.82,39.9-15.42,44.27
				c5.4,4.37,43.67,3.43,53.31,2.01c9.65-1.42-6.75-47.82-6.75-47.82"/>
		</g>
		<g>
			<path d="M407.91,970.81c-1.91-2.61-2.96-5.72-3.5-8.88c-0.53-3.18-0.44-6.48,0.23-9.67c0.28-1.61,0.86-3.15,1.42-4.68
				c0.71-1.48,1.36-2.97,2.34-4.28c1.76-2.72,4.22-4.94,6.97-6.54c-1.21,3.01-2.56,5.6-3.48,8.36c-0.56,1.33-0.9,2.72-1.36,4.05
				l-0.52,2.05c-0.22,0.67-0.34,1.37-0.47,2.06c-0.58,2.76-0.99,5.57-1.21,8.47C408.08,964.65,407.99,967.61,407.91,970.81z"/>
		</g>
		<path d="M440.95,661.49l-18.19,62.61c0,0,9.45,16.68,28.19,9.55l21.96-67.3"/>
		<path class="st3" d="M771.32,503.69c0.01,2.74,0.07,22.26,0.07,22.26s7.71,2.26,6.53,7.67c-1.17,5.42-10.15,9.08-10.15,9.08
			s13.17,6.73,11.42,17.75c-1.75,11.03-16.99,10.04-16.99,10.04c0.25,2.7-5.13,12.12-5.13,12.12l0.02,0.02
			c0.27,0.26,3.21,3.11,5.17,7.15c1.8,3.68,2.8,8.36,0.23,12.96c-5.06,9.05-16.71,6.36-16.99,6.3c0.12,0.18,1.87,2.86-0.96,13.3
			c-2.94,10.82-12.04,11.27-12.04,11.27c8.75,11,6.22,25.15-2.47,31.83c-8.69,6.68-18.42-2.23-18.42-2.23l-9.32,9.49
			c0,0,0.93,11.23-7.09,14.55c-8,3.32-15.89,0.05-15.89,0.05s2.14,18.69-8.09,23.69c-10.23,4.99-20.99-5.42-20.99-5.42
			s0.74,11.55-4,12.53c-4.75,0.99-7.87-6.77-7.87-6.77s-1.98,16.17-11.79,18.45c-8.31,1.93-12.36-8.38-13.4-11.58
			c1.83,7.64-8.84,16.8-16.55,14.72c-8.03-2.16-5.08-14.02-5.08-14.02l-24.65,1.64c0,0-0.86,10.91-8.58,9.34
			c-7.73-1.57-11.32-9.28-11.32-9.28s1.92,16.45-15.47,14.7c-17.04-1.71-13.47-14.11-13.33-14.6c-0.23,0.55-6.6,15.52-20.02,11.27
			c-13.67-4.32-11.47-20.18-11.47-20.18s-9.86,10.65-21.91,9.05c-12.04-1.6-12.85-17.13-12.85-17.13s-6.49,14.57-21.96,5.88
			c-15.08-8.47-10.69-22.23-10.47-22.91c-0.3,0.51-6,10.36-12.44,6.32c-13.64-8.55-9.77-21.25-9.57-21.86
			c-0.4,0.49-7.82,9.77-12.46,1.89c-4.68-7.95-1.36-17.72-1.24-18.09c-0.3,0.34-7.84,8.57-14.84-0.59
			c-7.16-9.34-1.55-21.52-1.55-21.52s-12.36,4.51-17.14-5.77c-4.78-10.28,5.88-19.98,5.88-19.98s-18.02,5.82-21.63-10.39
			c-3.61-16.22,8.21-20.47,8.21-20.47c-2.27-6.05-4.85-15.81-5-16.41c0-0.02-0.01-0.03-0.01-0.03s-15.96,0.2-17.49-17.27
			c-1.49-16.95,11.86-23.95,12.66-24.36c-5.04,2.14-14.24-7.47-13.36-11.52c0.85-3.94,10.35-7.01,10.94-7.21
			c-0.82,0.09-20.75,2.25-20.21-12.11c0.52-13.75,17.76-18.5,19.92-19.04c-6.17,1.31-12.86-7.9-11.41-14.99
			c1.46-7.19,16.48-8.79,16.48-8.79s-4.36-6.85-0.04-11.54c4.08-4.42,6.04-2.94,6.25-2.76c-0.46-0.52-9.61-10.8-5-16.89
			c4.73-6.26,10.37-6.09,10.37-6.09c1.21-2.97,8.88-11.77,8.88-11.77s-9.23-7.67-3.02-15.49c6.21-7.82,13.94-6.06,13.94-6.06
			s-5.66-6.54-0.04-13.42c5.62-6.89,13.05-5.03,13.05-5.03s-7.75-8.09-0.04-12.79c7.7-4.7,11.57-1.6,11.57-1.6
			c-4.48-8.1-2.44-21.83,6.16-24.67c8.61-2.84,15.43,7.25,15.43,7.25c4.52-3.87,14.25-13.26,14.25-13.26s-2.41-9.67,2.34-11.86
			c4.75-2.2,11.59,5.12,11.59,5.12s-5.98-16.38,12.7-22.36c9.76-3.13,11.54,9.88,11.54,9.88c2.07-0.92,19.54-7.45,19.54-7.45
			s-7.64-10.46,9.26-14.26c6.84-1.53,12.14,8.51,12.14,8.51s-1.45-12.44,15.16-14.37c9.9-1.14,11.74,10.4,11.74,10.4
			s4.87-17.93,19.12-17.98s12.52,17.19,12.52,17.19c4.2-0.25,17.24,2.29,17.24,2.29s1.44-13.03,17.47-10.27
			c16.04,2.76,14.34,17.44,14.34,17.44s6.77-10.95,18.95-6c9.06,3.69,9.24,16.91,9.24,16.91s1.77-6.03,10.69-3.24
			c7.89,2.47,8.86,11.36,8.97,13.36c0.08-5.5,13.13-6.48,17.78-3.15c4.76,3.42-3.11,13.21-1.63,14.28s11.68,9.15,11.68,9.15
			s8.4-5.7,11.37-3.84c2.92,1.83-0.14,11.18-0.25,11.54c0.28-0.26,6.93-6.42,13.06-0.03c6.26,6.54-0.42,15.43-0.42,15.43l9.17,11.01
			c0,0,3.79-3.4,9.45,2.52c5.65,5.91,4.27,17.08,4.27,17.08s5.56-5.26,14.8,6.26c9.1,11.33,4.68,25.73,4.54,26.19
			c0.31-0.08,6.95-1.82,12.8,14.32c5.99,16.52-0.83,20.28-0.83,20.28s7.71-0.65,10.7,5.27c2.99,5.91-9.69,14.26-9.69,14.26
			s15.68,0.39,19.59,17.53C791.87,498.94,771.32,503.69,771.32,503.69z"/>
		<path class="st6" d="M771.32,503.69c0.01,2.74,0.07,22.26,0.07,22.26s7.71,2.26,6.53,7.67c-1.17,5.42-10.15,9.08-10.15,9.08
			s13.17,6.73,11.42,17.75c-1.75,11.03-16.99,10.04-16.99,10.04c0.25,2.7-5.13,12.12-5.13,12.12l0.02,0.02
			c0.27,0.26,3.21,3.11,5.17,7.15c1.8,3.68,2.8,8.36,0.23,12.96c-5.06,9.05-16.71,6.36-16.99,6.3c0.12,0.18,1.87,2.86-0.96,13.3
			c-2.94,10.82-12.04,11.27-12.04,11.27c8.75,11,6.22,25.15-2.47,31.83c-8.69,6.68-18.42-2.23-18.42-2.23l-9.32,9.49
			c0,0,0.93,11.23-7.09,14.55c-8,3.32-15.89,0.05-15.89,0.05s2.14,18.69-8.09,23.69c-10.23,4.99-20.99-5.42-20.99-5.42
			s0.74,11.55-4,12.53c-4.75,0.99-7.87-6.77-7.87-6.77s-1.98,16.17-11.79,18.45c-8.31,1.93-12.36-8.38-13.4-11.58
			c1.83,7.64-8.84,16.8-16.55,14.72c-8.03-2.16-5.08-14.02-5.08-14.02l-24.65,1.64c0,0-0.86,10.91-8.58,9.34
			c-7.73-1.57-11.32-9.28-11.32-9.28s1.92,16.45-15.47,14.7c-17.04-1.71-13.47-14.11-13.33-14.6c-0.23,0.55-6.6,15.52-20.02,11.27
			c-13.67-4.32-11.47-20.18-11.47-20.18s-9.86,10.65-21.91,9.05c-12.04-1.6-12.85-17.13-12.85-17.13s-6.49,14.57-21.96,5.88
			c-15.08-8.47-10.69-22.23-10.47-22.91c-0.3,0.51-6,10.36-12.44,6.32c-13.64-8.55-9.77-21.25-9.57-21.86
			c-0.4,0.49-7.82,9.77-12.46,1.89c-4.68-7.95-1.36-17.72-1.24-18.09c-0.3,0.34-7.84,8.57-14.84-0.59
			c-7.16-9.34-1.55-21.52-1.55-21.52s-12.36,4.51-17.14-5.77c-4.78-10.28,5.88-19.98,5.88-19.98s-18.02,5.82-21.63-10.39
			c-3.61-16.22,8.21-20.47,8.21-20.47c-2.27-6.05-4.85-15.81-5-16.41c0-0.02-0.01-0.03-0.01-0.03s-15.96,0.2-17.49-17.27
			c-1.49-16.95,11.86-23.95,12.66-24.36c-5.04,2.14-14.24-7.47-13.36-11.52c0.85-3.94,10.35-7.01,10.94-7.21
			c-0.82,0.09-20.75,2.25-20.21-12.11c0.52-13.75,17.76-18.5,19.92-19.04c-6.17,1.31-12.86-7.9-11.41-14.99
			c1.46-7.19,16.48-8.79,16.48-8.79s-4.36-6.85-0.04-11.54c4.08-4.42,6.04-2.94,6.25-2.76c-0.46-0.52-9.61-10.8-5-16.89
			c4.73-6.26,10.37-6.09,10.37-6.09c1.21-2.97,8.88-11.77,8.88-11.77s-9.23-7.67-3.02-15.49c6.21-7.82,13.94-6.06,13.94-6.06
			s-5.66-6.54-0.04-13.42c5.62-6.89,13.05-5.03,13.05-5.03s-7.75-8.09-0.04-12.79c7.7-4.7,11.57-1.6,11.57-1.6
			c-4.48-8.1-2.44-21.83,6.16-24.67c8.61-2.84,15.43,7.25,15.43,7.25c4.52-3.87,14.25-13.26,14.25-13.26s-2.41-9.67,2.34-11.86
			c4.75-2.2,11.59,5.12,11.59,5.12s-5.98-16.38,12.7-22.36c9.76-3.13,11.54,9.88,11.54,9.88c2.07-0.92,19.54-7.45,19.54-7.45
			s-7.64-10.46,9.26-14.26c6.84-1.53,12.14,8.51,12.14,8.51s-1.45-12.44,15.16-14.37c9.9-1.14,11.74,10.4,11.74,10.4
			s4.87-17.93,19.12-17.98s12.52,17.19,12.52,17.19c4.2-0.25,17.24,2.29,17.24,2.29s1.44-13.03,17.47-10.27
			c16.04,2.76,14.34,17.44,14.34,17.44s6.77-10.95,18.95-6c9.06,3.69,9.24,16.91,9.24,16.91s1.77-6.03,10.69-3.24
			c7.89,2.47,8.86,11.36,8.97,13.36c0.08-5.5,13.13-6.48,17.78-3.15c4.76,3.42-3.11,13.21-1.63,14.28s11.68,9.15,11.68,9.15
			s8.4-5.7,11.37-3.84c2.92,1.83-0.14,11.18-0.25,11.54c0.28-0.26,6.93-6.42,13.06-0.03c6.26,6.54-0.42,15.43-0.42,15.43l9.17,11.01
			c0,0,3.79-3.4,9.45,2.52c5.65,5.91,4.27,17.08,4.27,17.08s5.56-5.26,14.8,6.26c9.1,11.33,4.68,25.73,4.54,26.19
			c0.31-0.08,6.95-1.82,12.8,14.32c5.99,16.52-0.83,20.28-0.83,20.28s7.71-0.65,10.7,5.27c2.99,5.91-9.69,14.26-9.69,14.26
			s15.68,0.39,19.59,17.53C791.87,498.94,771.32,503.69,771.32,503.69z"/>
		<path class="st1" d="M505.29,182.97c0,0-33.19,6.35-62.78,35.35c-20.63,20.22-24.13,57-1.56,55.32
			c21.83-1.63,57.73-61.09,66.42-80.8"/>
		<path class="st1" d="M576.84,180.68c0,0,33.74,1.85,66.95,26.63c23.15,17.28,31.54,53.26,8.94,54.61
			c-21.85,1.31-65.38-52.82-76.63-71.19"/>
		<path class="st1" d="M500.07,181.5c0,0-22,16.36-31.45,85.82c-9.45,69.46,11.63,102.39,27.87,124.77
			c16.89,23.27,77.54,31.32,111.87-22.71c32.63-51.34,16-129.51-0.44-161.24C584.3,162.55,541.88,138.78,500.07,181.5z"/>
		<g>
			<path class="st3" d="M440.58,343.62c0,0,16.58-17.47,25.32-9.93c8.75,7.55,4.14,19.06,4.14,19.06s5.99-5.96,15.66,2.38
				c9.67,8.34,0,19.46,0,19.46s4.92-1.19,13.97,5.16s0,20.26,0,20.26s5.83-3.97,10.89,3.18c5.06,7.15,0,14.69,0,14.69"/>
			<path d="M440.58,343.62c2.7-3.22,5.75-6.18,9.21-8.7c1.74-1.25,3.59-2.39,5.63-3.26c1.02-0.44,2.09-0.8,3.23-1.02
				c1.13-0.22,2.33-0.34,3.55-0.18c1.21,0.15,2.46,0.5,3.56,1.16c0.29,0.14,0.53,0.35,0.79,0.52c0.27,0.18,0.52,0.37,0.72,0.56
				l1.28,1.17c1.6,1.69,2.89,3.73,3.69,5.95c0.81,2.22,1.13,4.57,1.09,6.88c0,1.16-0.15,2.3-0.33,3.44
				c-0.22,1.16-0.44,2.2-0.89,3.44l-3.62-2.39c0.31-0.3,0.48-0.43,0.71-0.6c0.22-0.17,0.43-0.31,0.65-0.46
				c0.44-0.28,0.89-0.53,1.36-0.73c0.93-0.44,1.92-0.72,2.93-0.88c2.02-0.31,4.05-0.07,5.9,0.5c1.83,0.61,3.47,1.5,4.96,2.52
				c0.76,0.5,1.42,1.08,2.14,1.62c0.69,0.61,1.36,1.31,2.03,1.98c2.54,2.9,3.91,7.29,3.12,11.1c-0.31,1.9-0.92,3.7-1.74,5.33
				c-0.41,0.82-0.85,1.61-1.34,2.37c-0.51,0.78-0.97,1.46-1.66,2.27l-2.41-3.96c0.52-0.11,0.69-0.11,0.99-0.13
				c0.27-0.01,0.53-0.02,0.77-0.02c0.5,0.01,0.97,0.04,1.43,0.1c0.93,0.11,1.8,0.31,2.66,0.55c1.7,0.48,3.28,1.16,4.77,1.94
				c1.49,0.79,2.91,1.64,4.26,2.59l1.02,0.71c0.37,0.3,0.75,0.57,1.1,0.91c0.7,0.65,1.34,1.4,1.86,2.23
				c1.05,1.65,1.61,3.58,1.71,5.41c0.12,1.84-0.13,3.6-0.54,5.26c-0.42,1.66-1,3.23-1.69,4.74c-0.7,1.52-1.47,2.92-2.44,4.35
				l-2.24-2.2c0.75-0.44,1.34-0.65,2.03-0.86c0.68-0.19,1.37-0.31,2.08-0.34c1.41-0.07,2.85,0.24,4.08,0.87
				c1.22,0.63,2.3,1.47,3.11,2.47c0.86,0.96,1.51,2.03,2.1,3.16c1.13,2.28,1.47,4.89,1.11,7.3c-0.35,2.42-1.35,4.68-2.72,6.59
				c1.07-2.1,1.62-4.42,1.68-6.68c0.03-2.27-0.58-4.46-1.72-6.31c-1.18-1.82-2.82-3.45-4.62-4.16c-0.9-0.36-1.85-0.48-2.78-0.35
				c-0.47,0.06-0.93,0.18-1.37,0.34c-0.42,0.16-0.92,0.42-1.17,0.6l-5.77,4.3l3.53-6.49c1.37-2.52,2.56-5.38,3.08-8.17
				c0.54-2.8,0.28-5.56-1.05-7.48c-0.34-0.48-0.73-0.92-1.2-1.32c-0.22-0.21-0.49-0.37-0.73-0.56l-0.93-0.6
				c-1.25-0.82-2.54-1.52-3.84-2.16c-1.3-0.64-2.65-1.12-3.96-1.49c-0.66-0.17-1.32-0.32-1.94-0.38c-0.32-0.04-0.62-0.06-0.91-0.06
				c-0.15,0-0.28,0-0.4,0.01c-0.09,0-0.3,0.04-0.17,0.01l-2.41-3.96c0.37-0.44,0.83-1.11,1.2-1.7c0.38-0.62,0.73-1.25,1.04-1.9
				c0.64-1.29,1.05-2.64,1.25-3.95c0.47-2.65-0.27-5.08-1.93-7.14c-0.5-0.47-0.94-0.97-1.46-1.45c-0.58-0.45-1.14-0.96-1.74-1.36
				c-1.19-0.83-2.43-1.51-3.7-1.96c-1.26-0.43-2.53-0.62-3.75-0.48c-0.61,0.07-1.21,0.21-1.76,0.45c-0.28,0.11-0.55,0.25-0.81,0.39
				c-0.12,0.08-0.26,0.15-0.36,0.23c-0.1,0.06-0.25,0.19-0.24,0.17l-3.62-2.39c0.28-0.72,0.57-1.72,0.76-2.61
				c0.18-0.93,0.33-1.86,0.38-2.8c0.14-1.87-0.01-3.75-0.53-5.51c-0.52-1.76-1.41-3.39-2.6-4.82l-0.96-1.03
				c-0.16-0.19-0.32-0.33-0.48-0.45c-0.16-0.12-0.31-0.29-0.49-0.39c-0.67-0.49-1.46-0.78-2.31-0.97c-1.7-0.36-3.65-0.04-5.52,0.53
				c-1.89,0.58-3.74,1.46-5.53,2.47C447.15,338.4,443.76,340.88,440.58,343.62z"/>
		</g>
		<g>
			<path class="st3" d="M650.28,341.36c0,0-16.58-17.47-25.32-9.93c-8.75,7.55-4.14,19.06-4.14,19.06s-5.99-5.96-15.66,2.38
				c-9.67,8.34,0,19.46,0,19.46s-4.92-1.19-13.97,5.16c-9.05,6.35,0,20.26,0,20.26s-5.83-3.97-10.89,3.18
				c-5.06,7.15,0,14.69,0,14.69"/>
			<path d="M650.28,341.36c-3.18-2.74-6.57-5.22-10.14-7.26c-1.78-1.01-3.63-1.89-5.53-2.47c-1.88-0.58-3.82-0.89-5.52-0.53
				c-0.84,0.19-1.63,0.48-2.31,0.97c-0.18,0.1-0.32,0.26-0.49,0.39c-0.16,0.13-0.32,0.26-0.48,0.45l-0.96,1.03
				c-1.19,1.43-2.08,3.06-2.6,4.82c-0.52,1.76-0.67,3.63-0.53,5.51c0.05,0.94,0.2,1.87,0.38,2.8c0.19,0.9,0.47,1.89,0.76,2.61
				l-3.62,2.39c0.01,0.02-0.14-0.11-0.24-0.17c-0.1-0.08-0.24-0.15-0.36-0.23c-0.26-0.14-0.52-0.29-0.81-0.39
				c-0.56-0.24-1.15-0.38-1.76-0.45c-1.22-0.14-2.49,0.05-3.75,0.48c-1.26,0.44-2.51,1.13-3.7,1.96c-0.6,0.4-1.16,0.91-1.74,1.36
				c-0.52,0.48-0.96,0.97-1.46,1.45c-1.66,2.06-2.4,4.49-1.93,7.14c0.2,1.31,0.61,2.66,1.25,3.95c0.31,0.64,0.66,1.28,1.04,1.9
				c0.37,0.59,0.83,1.26,1.2,1.7l-2.41,3.96c0.13,0.03-0.08-0.01-0.17-0.01c-0.13-0.01-0.26-0.02-0.4-0.01
				c-0.28,0-0.59,0.01-0.91,0.06c-0.63,0.06-1.29,0.21-1.95,0.38c-1.32,0.37-2.66,0.85-3.96,1.49c-1.3,0.63-2.6,1.34-3.84,2.16
				l-0.93,0.6c-0.24,0.19-0.51,0.35-0.73,0.56c-0.46,0.39-0.86,0.83-1.2,1.32c-1.33,1.92-1.59,4.68-1.05,7.48
				c0.52,2.78,1.71,5.64,3.08,8.17l3.53,6.49l-5.77-4.3c-0.24-0.18-0.75-0.44-1.17-0.6c-0.44-0.17-0.9-0.29-1.37-0.34
				c-0.93-0.13-1.88-0.01-2.78,0.35c-1.8,0.71-3.45,2.34-4.62,4.16c-1.15,1.84-1.76,4.04-1.73,6.31c0.06,2.26,0.61,4.58,1.68,6.68
				c-1.37-1.91-2.37-4.17-2.72-6.59c-0.36-2.41-0.02-5.02,1.11-7.3c0.59-1.12,1.25-2.2,2.1-3.16c0.81-1,1.89-1.84,3.11-2.47
				c1.23-0.62,2.67-0.94,4.08-0.87c0.71,0.03,1.4,0.15,2.08,0.34c0.7,0.21,1.28,0.42,2.03,0.86l-2.24,2.2
				c-0.98-1.43-1.74-2.83-2.44-4.35c-0.69-1.51-1.27-3.08-1.69-4.74c-0.41-1.66-0.66-3.42-0.54-5.26c0.09-1.83,0.65-3.76,1.71-5.41
				c0.52-0.83,1.16-1.58,1.86-2.23c0.34-0.34,0.73-0.61,1.1-0.91l1.02-0.71c1.34-0.95,2.77-1.81,4.26-2.59
				c1.49-0.78,3.07-1.46,4.77-1.94c0.85-0.23,1.73-0.44,2.66-0.55c0.46-0.06,0.94-0.1,1.43-0.1c0.24-0.01,0.5,0,0.77,0.02
				c0.3,0.03,0.48,0.02,0.99,0.13l-2.41,3.96c-0.69-0.81-1.14-1.49-1.66-2.27c-0.49-0.76-0.93-1.55-1.34-2.37
				c-0.82-1.63-1.43-3.42-1.74-5.33c-0.79-3.8,0.58-8.2,3.12-11.1c0.67-0.66,1.34-1.37,2.03-1.98c0.71-0.54,1.38-1.12,2.14-1.62
				c1.5-1.02,3.14-1.91,4.96-2.52c1.84-0.56,3.88-0.81,5.9-0.5c1,0.16,2,0.44,2.93,0.88c0.47,0.2,0.92,0.46,1.36,0.73
				c0.22,0.15,0.44,0.28,0.65,0.46c0.23,0.18,0.39,0.3,0.71,0.6l-3.62,2.39c-0.44-1.25-0.67-2.29-0.89-3.44
				c-0.18-1.14-0.33-2.28-0.33-3.44c-0.04-2.31,0.29-4.66,1.09-6.88c0.8-2.22,2.09-4.26,3.69-5.95l1.28-1.17
				c0.2-0.2,0.45-0.38,0.72-0.56c0.26-0.17,0.5-0.38,0.79-0.52c1.09-0.65,2.34-1.01,3.56-1.16c1.23-0.16,2.42-0.04,3.55,0.18
				c1.14,0.21,2.21,0.58,3.23,1.02c2.04,0.87,3.89,2.02,5.63,3.26C644.52,335.18,647.58,338.14,650.28,341.36z"/>
		</g>
		<path class="st1" d="M571.37,167.67c0,0,7.9-16.85,0-20.4c-5.14-2.31-11.14,4.29-11.14,4.29s-5.59-31.23-25.82-32.63
			c-20.23-1.4-15.95,25.22-15.95,25.22s-6.48-6.85-14-2.8c-7.51,4.06-2.17,20.28,1.26,21.63c0,0-18.76,1.61-11.62,13.34
			s31.53,9.01,41.78,3.24c0,0-2.06,5.54,2.56,8.38C547.29,193.36,571.37,167.67,571.37,167.67z"/>
		<g>
			<path class="st11" d="M483.89,262.61h-6.3c-5.98,0-10.82-4.85-10.82-10.82v-3.48c0-5.98,4.85-10.82,10.82-10.82h6.3
				c5.98,0,10.82,4.85,10.82,10.82v3.48C494.72,257.76,489.87,262.61,483.89,262.61z"/>
			<polygon class="st11" points="594.13,272.98 499.21,272.98 512.12,223.02 578.29,223.02 			"/>
			<path class="st12" d="M623.8,370.36H469.53c-9.08,0-16.43-7.36-16.43-16.43v-90.76c0-9.08,7.36-16.43,16.43-16.43H623.8
				c9.08,0,16.43,7.36,16.43,16.43v90.76C640.23,363,632.88,370.36,623.8,370.36z"/>
			<circle class="st1" cx="546.67" cy="308.55" r="48.48"/>
			<circle cx="546.67" cy="308.55" r="42.31"/>
			<circle class="st13" cx="546.67" cy="308.55" r="28.39"/>
			<rect x="464.66" y="258.86" class="st5" width="31.75" height="12.28"/>
			<rect x="464.66" y="279.82" class="st5" width="17.15" height="12.28"/>
		</g>
		<g>
			<path class="st3" d="M374.4,498.48v-30.42c0,0,18.71,10.47,31.73-9.33c13.01-19.8,13.84-123.73,16.89-145.41
				c3.05-21.67,5.36-25.47-0.53-38.84c-5.9-13.37,2.67-28.11,11.13-36.59s22.31-19.55,33.68-12.77c11.37,6.78,13.72,1.83,15.28,9.41
				s-16.7,4.3-16.7,4.3s15.05,4.47,15.58,10.56c0.53,6.09,0.06,11.88-3.92,8.7c-3.98-3.19-8.96-4.01-8.96-4.01s8.82,8.99,8.84,13.64
				c0.02,4.64-6.88,4.34-6.88,4.34l-8.89-4.53c0,0,4.87,6.37,4.09,12.55c-0.78,6.18-2.4,12.97-8.61,16.45
				c-6.21,3.49-6.23,8.4-6.38,19.35s4,109.29-5.03,138.08c-9.03,28.79-13.88,37.61-30.45,44.52
				C398.7,505.39,389.55,501.43,374.4,498.48z"/>
			<path class="st1" d="M453.66,240.86c4.78-4.09,7.5-2.9,16.37-1.36c8.87,1.54,11.09-2.56,11.09-2.56
				c5.8-5.29-5.9-11.3-22.53-13.35c-16.63-2.05-31.47,22.6-34.28,28.44c-2.81,5.84-6.4,19.4,2.81,31.17c0,0-8.33,63.23-9.79,126.15
				s-29.21,69.74-48.69,55.14"/>
			<path class="st1" d="M440.69,246.83c4.26-4.61,12.33-10.1,20.83-8.72c8.5,1.38,17.03,6.84,19.93,11.28
				c2.9,4.43-0.34,9.21-3.92,8.7s-13.3-7.5-18.25-6.65c-4.95,0.85-9.55,2.87-9.55,2.87"/>
			<path class="st6" d="M443.76,259.11c0,0,4.92-6.96,14.14-7.4c9.23-0.44,17.24,8.77,19.12,13.03c1.88,4.26-3.54,10.19-6.5,7.31
				c-6.47-6.29-11.81-3.57-11.81-3.57s8.24,3.85,6.87,14.72c-1.36,10.87-11.27,14.6-14.68,16.81c0,0-0.68,86.09-3.75,141.59
				s-47.86,74-78.53,53.55"/>
		</g>
		<g>
			<path class="st3" d="M356.77,527.58c0,0,23.8-11.18,20.18-25.02c-3.62-13.84-11.39-12.8-11.39-12.8s10.18-2.67,9.95-11.86
				c-0.23-9.2-6.08-13.77-6.08-13.77s9.85-0.83,6.85-8.06c-3-7.23-12.75-13.5-12.75-13.5"/>
			<path d="M356.77,527.58c3.73-2.4,7.27-5.02,10.44-7.96c3.14-2.92,5.98-6.26,7.36-9.94c0.71-1.82,0.86-3.71,0.57-5.47
				c-0.11-0.45-0.18-0.85-0.34-1.34l-0.49-1.47c-0.15-0.5-0.36-0.96-0.55-1.43c-0.21-0.46-0.37-0.96-0.61-1.38
				c-0.84-1.81-1.95-3.44-3.26-4.59c-0.64-0.6-1.36-1.03-2.09-1.35c-0.36-0.15-0.73-0.27-1.09-0.33c-0.18-0.04-0.35-0.06-0.52-0.07
				c-0.13-0.02-0.4,0-0.3-0.01l-0.96-4.85c0.39-0.11,1.02-0.35,1.52-0.57c0.53-0.23,1.05-0.49,1.54-0.79
				c0.98-0.58,1.89-1.25,2.65-2.01c0.74-0.77,1.32-1.63,1.76-2.55c0.14-0.49,0.4-0.93,0.46-1.45l0.16-0.76l0.04-0.79
				c0.07-0.5-0.01-1.14-0.03-1.73c-0.05-0.59-0.13-1.18-0.21-1.77c-0.2-1.17-0.51-2.31-0.93-3.42c-0.44-1.1-0.96-2.17-1.6-3.16
				c-0.31-0.5-0.67-0.97-1.03-1.43c-0.19-0.22-0.37-0.45-0.56-0.66c-0.18-0.2-0.42-0.44-0.53-0.54l-3.32-3.38l4.41-0.27
				c1.01-0.06,2.25-0.3,3.24-0.67c1.01-0.38,1.85-0.92,2.27-1.56c0.44-0.61,0.57-1.47,0.34-2.51c-0.07-0.26-0.12-0.52-0.2-0.79
				l-0.33-0.83c-0.21-0.56-0.53-1.09-0.8-1.64c-1.22-2.16-2.81-4.2-4.56-6.1c-1.76-1.91-3.66-3.72-5.68-5.43
				c2.36,1.21,4.57,2.69,6.69,4.34c2.09,1.68,4.07,3.55,5.74,5.79c0.38,0.59,0.81,1.15,1.13,1.79l0.51,0.95
				c0.15,0.34,0.28,0.72,0.42,1.08c0.06,0.19,0.15,0.36,0.19,0.56l0.11,0.62c0.08,0.41,0.15,0.82,0.11,1.28
				c-0.02,0.45-0.02,0.9-0.18,1.35l-0.2,0.67c-0.08,0.22-0.21,0.41-0.31,0.62c-0.92,1.65-2.39,2.63-3.77,3.28
				c-0.7,0.32-1.42,0.59-2.13,0.79c-0.74,0.21-1.4,0.36-2.25,0.48l1.09-3.65c0.74,0.59,1.22,1.06,1.76,1.63
				c0.51,0.56,0.99,1.14,1.43,1.75c0.88,1.21,1.64,2.52,2.24,3.89c1.17,2.79,1.84,5.69,1.79,8.79l-0.05,1.22
				c-0.06,0.41-0.14,0.81-0.21,1.22c-0.11,0.82-0.45,1.6-0.71,2.39c-0.68,1.52-1.62,2.9-2.74,4.07c-1.13,1.15-2.39,2.09-3.72,2.85
				c-0.66,0.39-1.35,0.73-2.05,1.03c-0.73,0.31-1.36,0.56-2.25,0.81l-0.96-4.85c0.65-0.06,0.93-0.03,1.35-0.01
				c0.38,0.03,0.76,0.09,1.11,0.17c0.72,0.15,1.4,0.39,2.05,0.68c1.28,0.59,2.44,1.37,3.39,2.3c1.96,1.82,3.22,4.04,4.16,6.25
				c0.28,0.55,0.43,1.12,0.64,1.68c0.2,0.56,0.41,1.12,0.54,1.69l0.46,1.7c0.15,0.57,0.26,1.26,0.35,1.89
				c0.24,2.61-0.27,5.24-1.34,7.46c-0.5,1.13-1.15,2.15-1.83,3.14c-0.71,0.95-1.47,1.86-2.28,2.69c-1.62,1.66-3.35,3.16-5.22,4.44
				c-1.86,1.29-3.76,2.48-5.75,3.5C360.9,525.91,358.87,526.84,356.77,527.58z"/>
		</g>
		<g>
			<path class="st3" d="M725.06,521.96v-30.42c0,0-18.71,10.47-31.73-9.33c-13.01-19.8-9.57-77-12.62-98.68s-5.36-25.47,0.53-38.84
				s-2.67-28.11-11.13-36.59c-8.46-8.47-22.31-19.55-33.68-12.77c-11.37,6.78-13.72,1.83-15.28,9.41s16.7,4.3,16.7,4.3
				s-15.05,4.47-15.58,10.56c-0.53,6.09-0.06,11.88,3.92,8.7c3.98-3.19,8.96-4.01,8.96-4.01s-8.82,8.99-8.84,13.64
				c-0.02,4.64,6.88,4.34,6.88,4.34l8.89-4.53c0,0-4.87,6.37-4.09,12.55s2.4,12.97,8.61,16.45c6.21,3.49,6.23,8.4,6.38,19.35
				c0.15,10.95-8.27,62.56,0.77,91.35s13.88,37.61,30.45,44.52C700.77,528.87,709.92,524.91,725.06,521.96z"/>
			<path class="st1" d="M650.07,311.07c-4.78-4.09-7.5-2.9-16.37-1.36c-8.87,1.54-11.09-2.56-11.09-2.56
				c-5.8-5.29,5.9-11.3,22.53-13.35s31.47,22.6,34.28,28.44c2.81,5.84,6.4,19.4-2.81,31.17c0,0,4.07,16.5,5.53,79.43
				s29.21,69.74,48.69,55.14"/>
			<path class="st1" d="M663.04,317.04c-4.26-4.61-12.33-10.1-20.83-8.72c-8.5,1.38-17.03,6.84-19.93,11.28
				c-2.9,4.43,0.34,9.21,3.92,8.7c3.58-0.51,13.3-7.5,18.25-6.65c4.95,0.85,9.55,2.87,9.55,2.87"/>
			<path class="st6" d="M659.97,329.32c0,0-4.92-6.96-14.14-7.4c-9.23-0.44-17.24,8.77-19.12,13.03c-1.88,4.26,3.54,10.19,6.5,7.31
				c6.47-6.29,11.81-3.57,11.81-3.57s-8.24,3.85-6.87,14.72c1.36,10.87,11.27,14.6,14.68,16.81c0,0-3.59,39.37-0.52,94.87
				c3.07,55.5,47.86,74,78.53,53.55"/>
		</g>
		<g>
			<path class="st3" d="M732.47,550.83c0,0-22.64-14.61-16.8-27.75c5.84-13.15,13.63-10.95,13.63-10.95s-10.01-4.16-8.35-13.21
				c1.66-9.06,8.35-12.71,8.35-12.71s-9.96-2.29-5.77-9s15.14-11.45,15.14-11.45"/>
			<path d="M732.47,550.83c-2-1.03-3.92-2.24-5.77-3.55c-1.87-1.29-3.62-2.74-5.32-4.29c-1.7-1.54-3.25-3.27-4.66-5.16
				c-0.71-0.94-1.34-1.96-1.93-3.01c-0.54-1.08-1.06-2.2-1.4-3.41c-0.77-2.38-0.87-5.13-0.19-7.71c0.21-0.61,0.42-1.31,0.67-1.83
				l0.74-1.62c0.23-0.55,0.55-1.07,0.83-1.6c0.3-0.53,0.57-1.07,0.93-1.57c1.33-2.05,2.99-4.03,5.25-5.51
				c1.1-0.76,2.4-1.32,3.76-1.7c0.69-0.18,1.4-0.3,2.13-0.34c0.36-0.03,0.74-0.02,1.12,0c0.42,0.04,0.7,0.05,1.33,0.2l-1.62,4.67
				c-0.85-0.37-1.45-0.7-2.13-1.11c-0.66-0.4-1.3-0.82-1.91-1.3c-1.23-0.94-2.38-2.03-3.35-3.34c-0.96-1.31-1.74-2.81-2.21-4.45
				c-0.11-0.41-0.17-0.83-0.25-1.25l-0.11-0.63l-0.03-0.63l-0.03-1.26l0.14-1.23c0.43-3.12,1.58-5.92,3.22-8.5
				c0.84-1.27,1.81-2.44,2.9-3.5c0.54-0.53,1.12-1.03,1.71-1.5c0.63-0.48,1.19-0.87,2.02-1.32l0.52,3.8
				c-0.83-0.24-1.47-0.48-2.18-0.8c-0.69-0.3-1.37-0.67-2.03-1.08c-1.3-0.84-2.66-2-3.38-3.8c-0.08-0.22-0.18-0.44-0.24-0.67
				c-0.04-0.24-0.08-0.48-0.11-0.71c-0.09-0.48-0.03-0.94,0.02-1.4c0.02-0.48,0.18-0.88,0.32-1.28l0.22-0.61
				c0.09-0.18,0.19-0.35,0.29-0.53c0.2-0.34,0.39-0.71,0.61-1.01l0.67-0.87c0.45-0.58,0.96-1.08,1.45-1.6
				c2.06-1.97,4.36-3.51,6.74-4.84c2.4-1.3,4.87-2.42,7.45-3.25c-2.31,1.38-4.53,2.88-6.63,4.5c-2.09,1.61-4.04,3.4-5.64,5.35
				c-0.37,0.5-0.78,0.99-1.09,1.51l-0.48,0.78c-0.14,0.26-0.22,0.51-0.34,0.76c-0.41,1.01-0.41,1.87-0.06,2.54
				c0.34,0.69,1.13,1.37,2.11,1.88c0.96,0.5,2.19,0.92,3.21,1.13l4.75,0.97l-4.23,2.83c-0.34,0.23-0.87,0.65-1.3,1.02
				c-0.44,0.4-0.88,0.81-1.28,1.25c-0.81,0.88-1.51,1.86-2.14,2.88c-0.6,1.04-1.1,2.12-1.49,3.25c-0.18,0.57-0.35,1.14-0.49,1.72
				c-0.11,0.58-0.29,1.21-0.3,1.71l-0.08,0.79l0.05,0.77l0.02,0.39l0.08,0.37c0.06,0.25,0.09,0.5,0.15,0.75
				c0.3,0.97,0.78,1.9,1.42,2.78c0.66,0.87,1.5,1.65,2.41,2.37c0.45,0.36,0.95,0.69,1.45,1c0.48,0.3,1.07,0.62,1.46,0.79l-1.62,4.67
				c0.08,0.02-0.19-0.03-0.33-0.04c-0.18-0.01-0.36-0.02-0.55-0.01c-0.38,0.01-0.78,0.06-1.18,0.16c-0.79,0.21-1.6,0.5-2.35,1
				c-1.53,0.93-2.92,2.35-4.07,4.02c-0.31,0.39-0.57,0.84-0.85,1.28c-0.27,0.44-0.57,0.86-0.79,1.33l-0.73,1.39
				c-0.26,0.48-0.36,0.86-0.57,1.29c-0.58,1.71-0.72,3.61-0.27,5.54c0.86,3.87,3.3,7.62,6.07,10.97
				C725.82,544.82,729.04,547.93,732.47,550.83z"/>
		</g>
		<path class="st14" d="M274.28,81.1c0,0-6.82,115.39-60.86,121.23s-95.39,7.56-95.39,7.56s112.43-7.56,135.31,34.8
			c19.82,36.69,13.63,136.81,13.63,136.81s5.36-98.64,45.76-141.68c18.88-20.1,84.97-34.45,122.93-36.03c0,0-95.14,8.6-128.53-20.82
			C287.66,165.82,272.38,129.61,274.28,81.1z"/>
	</g>
</g>
<g id="_x30_3_x5F_MECHON">
</g>
</svg>
