<?xml version="1.0" encoding="utf-8"?>
<!-- Generator: Adobe Illustrator 24.0.3, SVG Export Plug-In . SVG Version: 6.00 Build 0)  -->
<svg version="1.1" xmlns="http://www.w3.org/2000/svg" xmlns:xlink="http://www.w3.org/1999/xlink" x="0px" y="0px"
	 viewBox="0 0 141.48 36.07" style="enable-background:new 0 0 141.48 36.07;" xml:space="preserve">
<style type="text/css">
	.st0{fill:none;stroke:#E7004C;stroke-miterlimit:10;}
	.st1{fill:#FFFFFF;}
	.st2{fill:url(#SVGID_1_);}
	.st3{fill:#E7004C;}
	.st4{fill:#42050E;}
	.st5{fill:none;stroke:#FFFFFF;stroke-width:0.75;stroke-miterlimit:10;}
	.st6{fill-rule:evenodd;clip-rule:evenodd;fill:#FFFFFF;}
	.st7{fill:none;stroke:#00B2E3;stroke-miterlimit:10;}
	.st8{fill:url(#SVGID_2_);}
	.st9{fill:#FCFCFC;}
	.st10{fill:url(#SVGID_3_);}
	.st11{fill:url(#SVGID_4_);}
	.st12{opacity:0.8;fill:#E7004C;}
	.st13{opacity:0.7;fill:#E7004C;}
	.st14{opacity:0.7;}
	.st15{fill:#00B2E3;}
	.st16{opacity:0.8;fill:#00B2E3;}
	.st17{opacity:0.7;fill:#00B2E3;}
	.st18{fill:#BBBBBB;}
	.st19{opacity:0.8;fill:#BBBBBB;}
	.st20{opacity:0.7;fill:#BBBBBB;}
	.st21{fill:url(#SVGID_5_);}
	.st22{fill:url(#SVGID_6_);}
	.st23{fill:none;stroke:#E7004C;stroke-width:2;stroke-miterlimit:10;}
	.st24{fill:url(#SVGID_7_);}
	.st25{fill:url(#SVGID_8_);}
	.st26{fill:url(#SVGID_9_);}
	.st27{fill:none;stroke:#FFFFFF;stroke-miterlimit:10;}
	.st28{fill-rule:evenodd;clip-rule:evenodd;fill:#E7004C;}
	.st29{fill:none;stroke:#000000;stroke-miterlimit:10;}
	.st30{fill:#38A8E0;}
	.st31{clip-path:url(#SVGID_11_);fill:#00B2E3;}
	.st32{fill:none;stroke:#E7004C;stroke-width:3;stroke-miterlimit:10;}
	.st33{clip-path:url(#SVGID_13_);}
	.st34{fill:none;stroke:#FFFFFF;stroke-width:2;stroke-miterlimit:10;}
	.st35{fill:none;stroke:#FFFFFF;stroke-width:3;stroke-miterlimit:10;}
	.st36{clip-path:url(#SVGID_15_);}
	.st37{fill:url(#SVGID_16_);}
	.st38{fill:none;stroke:#FFFFFF;stroke-width:0.5;stroke-miterlimit:10;}
	.st39{clip-path:url(#SVGID_18_);fill:#00B2E3;}
	.st40{clip-path:url(#SVGID_20_);}
	.st41{clip-path:url(#SVGID_22_);}
	.st42{fill:url(#SVGID_23_);}
	.st43{clip-path:url(#SVGID_25_);}
	.st44{fill:url(#SVGID_26_);}
	.st45{fill:url(#SVGID_27_);}
	.st46{fill:url(#SVGID_28_);}
	.st47{fill:url(#SVGID_29_);}
	.st48{clip-path:url(#SVGID_31_);fill:#00B2E3;}
	.st49{clip-path:url(#SVGID_33_);}
	.st50{clip-path:url(#SVGID_35_);}
	.st51{fill:url(#SVGID_36_);}
	.st52{clip-path:url(#SVGID_38_);}
	.st53{clip-path:url(#SVGID_40_);}
	.st54{fill:#280210;}
	.st55{opacity:0.5;}
	.st56{opacity:0.6;}
	.st57{fill:url(#SVGID_41_);}
	.st58{fill:url(#SVGID_42_);}
	.st59{fill:url(#SVGID_43_);}
	.st60{fill:url(#SVGID_44_);}
	.st61{opacity:0.8;}
	.st62{opacity:0.9;}
	.st63{fill:url(#SVGID_45_);}
	.st64{clip-path:url(#SVGID_47_);}
	.st65{clip-path:url(#SVGID_49_);}
	.st66{clip-path:url(#SVGID_51_);}
	.st67{fill:url(#SVGID_52_);}
	.st68{clip-path:url(#SVGID_54_);}
	.st69{fill:url(#SVGID_55_);}
	.st70{clip-path:url(#SVGID_57_);}
	.st71{fill:url(#SVGID_58_);}
	.st72{clip-path:url(#SVGID_60_);fill:#00B2E3;}
	.st73{clip-path:url(#SVGID_62_);}
	.st74{clip-path:url(#SVGID_64_);}
	.st75{fill:none;stroke:#FFFFFF;stroke-width:5;stroke-miterlimit:10;}
	.st76{clip-path:url(#SVGID_66_);fill:#00B2E3;}
	.st77{clip-path:url(#SVGID_68_);}
	.st78{clip-path:url(#SVGID_70_);}
	.st79{clip-path:url(#SVGID_72_);fill:#00B2E3;}
	.st80{clip-path:url(#SVGID_74_);}
	.st81{fill:#5B0323;}
	.st82{fill:url(#SVGID_75_);}
	.st83{fill:url(#SVGID_76_);}
	.st84{fill:url(#SVGID_77_);}
	.st85{clip-path:url(#SVGID_80_);fill:#00B2E3;}
	.st86{clip-path:url(#SVGID_84_);}
	.st87{fill-rule:evenodd;clip-rule:evenodd;fill:#00B2E3;}
	.st88{clip-path:url(#SVGID_86_);}
	.st89{clip-path:url(#SVGID_88_);}
	.st90{opacity:0.3;fill:#6B0303;}
	.st91{opacity:0.3;}
	.st92{fill-rule:evenodd;clip-rule:evenodd;fill:#6B0303;}
	.st93{fill:#6B0303;}
	.st94{clip-path:url(#SVGID_90_);}
	.st95{fill:none;stroke:#5B0323;stroke-miterlimit:10;}
	.st96{clip-path:url(#SVGID_92_);}
	.st97{fill:#E5E5E5;}
	.st98{clip-path:url(#SVGID_94_);}
	.st99{fill:#020202;}
	.st100{fill:#070101;}
	.st101{fill:none;stroke:#068FFF;stroke-width:5;stroke-miterlimit:10;}
</style>
<g id="Capa_2">
	<g>
		<g>
			<g>
				<path class="st1" d="M9.26,26.19H0V0.96h9.26c2.04,0,3.86,0.33,5.41,1c1.55,0.66,2.86,1.57,3.9,2.71
					c1.04,1.14,1.83,2.49,2.35,4.01c0.52,1.52,0.78,3.15,0.78,4.86c0,1.9-0.29,3.64-0.87,5.19c-0.58,1.55-1.42,2.89-2.51,3.99
					c-1.09,1.1-2.41,1.96-3.94,2.57C12.86,25.88,11.14,26.19,9.26,26.19z M5.42,21.35h3.83c1.13,0,2.14-0.2,3-0.59
					c0.86-0.39,1.59-0.94,2.17-1.63c0.58-0.69,1.03-1.52,1.34-2.47c0.31-0.96,0.47-2.01,0.47-3.12c0-1.14-0.16-2.2-0.47-3.16
					c-0.31-0.95-0.76-1.77-1.36-2.45c-0.59-0.68-1.32-1.21-2.19-1.58c-0.87-0.37-1.87-0.56-2.97-0.56H5.42V21.35z"/>
			</g>
			<g>
				<path class="st1" d="M68.46,26.19h-6.12l-5.02-8.24h-4.21v8.24h-5.42V0.96h11.2c1.18,0,2.28,0.25,3.28,0.74
					c0.99,0.49,1.86,1.14,2.57,1.94c0.71,0.8,1.28,1.72,1.69,2.73c0.41,1.02,0.61,2.05,0.61,3.08c0,1.65-0.42,3.16-1.24,4.51
					c-0.76,1.25-1.79,2.19-3.05,2.8L68.46,26.19z M53.11,13.11h5.67c0.38,0,0.74-0.09,1.08-0.27c0.34-0.19,0.64-0.44,0.89-0.76
					c0.25-0.32,0.46-0.72,0.61-1.17c0.15-0.45,0.23-0.94,0.23-1.46c0-0.54-0.09-1.03-0.26-1.48c-0.17-0.45-0.4-0.84-0.69-1.17
					c-0.28-0.32-0.61-0.58-0.97-0.75c-0.36-0.17-0.73-0.26-1.09-0.26h-5.46V13.11z"/>
			</g>
			<g>
				<path class="st1" d="M79.49,26.19h-9.26V0.96h9.26c2.04,0,3.86,0.33,5.41,1c1.55,0.66,2.86,1.57,3.9,2.71
					c1.04,1.14,1.83,2.49,2.35,4.01c0.52,1.52,0.78,3.15,0.78,4.86c0,1.9-0.29,3.64-0.87,5.19c-0.58,1.55-1.42,2.89-2.51,3.99
					c-1.09,1.1-2.41,1.96-3.94,2.57C83.09,25.88,81.37,26.19,79.49,26.19z M75.65,21.35h3.83c1.13,0,2.14-0.2,3-0.59
					c0.86-0.39,1.59-0.94,2.17-1.63c0.58-0.69,1.03-1.52,1.34-2.47c0.31-0.96,0.47-2.01,0.47-3.12c0-1.14-0.16-2.2-0.47-3.16
					c-0.31-0.95-0.76-1.77-1.36-2.45c-0.59-0.68-1.32-1.21-2.19-1.58c-0.87-0.37-1.87-0.56-2.97-0.56h-3.83V21.35z"/>
			</g>
			<g>
				<path class="st1" d="M105.84,26.36c-1.84,0-3.54-0.37-5.04-1.09c-1.5-0.72-2.8-1.69-3.87-2.88c-1.07-1.19-1.91-2.57-2.5-4.1
					c-0.59-1.53-0.89-3.12-0.89-4.72c0-1.67,0.32-3.3,0.94-4.83c0.62-1.53,1.49-2.9,2.59-4.08c1.1-1.18,2.42-2.13,3.93-2.83
					c1.51-0.7,3.18-1.05,4.95-1.05c1.82,0,3.5,0.38,5.01,1.12c1.5,0.74,2.79,1.73,3.86,2.93c1.06,1.2,1.89,2.58,2.48,4.11
					c0.59,1.53,0.89,3.11,0.89,4.69c0,1.67-0.31,3.29-0.92,4.81c-0.61,1.52-1.47,2.88-2.56,4.05c-1.09,1.17-2.4,2.11-3.91,2.81
					C109.27,26.01,107.61,26.36,105.84,26.36z M105.87,5.69c-1.1,0-2.08,0.23-2.93,0.67c-0.86,0.45-1.58,1.05-2.15,1.78
					c-0.57,0.74-1.02,1.59-1.32,2.53c-0.3,0.95-0.45,1.92-0.45,2.9c0,1.02,0.16,2.03,0.47,2.98c0.31,0.95,0.76,1.8,1.35,2.53
					c0.58,0.72,1.3,1.31,2.15,1.75c0.84,0.44,1.81,0.66,2.88,0.66c1.1,0,2.08-0.23,2.91-0.67c0.85-0.45,1.57-1.06,2.15-1.8
					c0.59-0.75,1.03-1.61,1.33-2.55c0.3-0.94,0.45-1.92,0.45-2.9c0-1.02-0.16-2.02-0.48-2.98c-0.32-0.95-0.78-1.8-1.37-2.53
					c-0.58-0.72-1.3-1.31-2.15-1.73C107.88,5.9,106.92,5.69,105.87,5.69z"/>
			</g>
			<g>
				<path class="st1" d="M45.32,26.19H39.7l-6.36-13.96l-6.36,13.96h-5.62L33.34,0L45.32,26.19z"/>
			</g>
			<g>
				<polygon class="st1" points="141.48,10.77 129.12,36.07 122.81,36.07 132.8,15.64 121.79,15.64 121.79,10.77 				"/>
			</g>
		</g>
	</g>
</g>
<g id="Capa_1">
</g>
<g id="Capa_3">
</g>
<g id="Capa_4">
</g>
<g id="Capa_6">
</g>
<g id="Capa_5">
</g>
</svg>
