<?xml version="1.0" encoding="utf-8"?>
<!-- Generator: Adobe Illustrator 24.0.3, SVG Export Plug-In . SVG Version: 6.00 Build 0)  -->
<svg version="1.1" xmlns="http://www.w3.org/2000/svg" xmlns:xlink="http://www.w3.org/1999/xlink" x="0px" y="0px"
	 viewBox="0 0 443.55 62.23" style="enable-background:new 0 0 443.55 62.23;" xml:space="preserve">
<style type="text/css">
	.st0{fill:none;stroke:#E7004C;stroke-miterlimit:10;}
	.st1{fill:#FFFFFF;}
	.st2{fill:url(#SVGID_1_);}
	.st3{fill:#E7004C;}
	.st4{fill:#42050E;}
	.st5{fill:none;stroke:#FFFFFF;stroke-width:0.75;stroke-miterlimit:10;}
	.st6{fill-rule:evenodd;clip-rule:evenodd;fill:#FFFFFF;}
	.st7{fill:none;stroke:#00B2E3;stroke-miterlimit:10;}
	.st8{fill:url(#SVGID_2_);}
	.st9{fill:#FCFCFC;}
	.st10{fill:url(#SVGID_3_);}
	.st11{fill:url(#SVGID_4_);}
	.st12{opacity:0.8;fill:#E7004C;}
	.st13{opacity:0.7;fill:#E7004C;}
	.st14{opacity:0.7;}
	.st15{fill:#00B2E3;}
	.st16{opacity:0.8;fill:#00B2E3;}
	.st17{opacity:0.7;fill:#00B2E3;}
	.st18{fill:#BBBBBB;}
	.st19{opacity:0.8;fill:#BBBBBB;}
	.st20{opacity:0.7;fill:#BBBBBB;}
	.st21{fill:url(#SVGID_5_);}
	.st22{fill:url(#SVGID_6_);}
	.st23{fill:none;stroke:#E7004C;stroke-width:2;stroke-miterlimit:10;}
	.st24{fill:url(#SVGID_7_);}
	.st25{fill:url(#SVGID_8_);}
	.st26{fill:url(#SVGID_9_);}
	.st27{fill:none;stroke:#FFFFFF;stroke-miterlimit:10;}
	.st28{fill-rule:evenodd;clip-rule:evenodd;fill:#E7004C;}
	.st29{fill:none;stroke:#000000;stroke-miterlimit:10;}
	.st30{fill:#38A8E0;}
	.st31{clip-path:url(#SVGID_11_);fill:#00B2E3;}
	.st32{fill:none;stroke:#E7004C;stroke-width:3;stroke-miterlimit:10;}
	.st33{clip-path:url(#SVGID_13_);}
	.st34{fill:none;stroke:#FFFFFF;stroke-width:2;stroke-miterlimit:10;}
	.st35{fill:none;stroke:#FFFFFF;stroke-width:3;stroke-miterlimit:10;}
	.st36{clip-path:url(#SVGID_15_);}
	.st37{fill:url(#SVGID_16_);}
	.st38{fill:none;stroke:#FFFFFF;stroke-width:0.5;stroke-miterlimit:10;}
	.st39{clip-path:url(#SVGID_18_);fill:#00B2E3;}
	.st40{clip-path:url(#SVGID_20_);}
	.st41{clip-path:url(#SVGID_22_);}
	.st42{fill:url(#SVGID_23_);}
	.st43{clip-path:url(#SVGID_25_);}
	.st44{fill:url(#SVGID_26_);}
	.st45{fill:url(#SVGID_27_);}
	.st46{fill:url(#SVGID_28_);}
	.st47{fill:url(#SVGID_29_);}
	.st48{clip-path:url(#SVGID_31_);fill:#00B2E3;}
	.st49{clip-path:url(#SVGID_33_);}
	.st50{clip-path:url(#SVGID_35_);}
	.st51{fill:url(#SVGID_36_);}
	.st52{clip-path:url(#SVGID_38_);}
	.st53{clip-path:url(#SVGID_40_);}
	.st54{fill:#280210;}
	.st55{opacity:0.5;}
	.st56{opacity:0.6;}
	.st57{fill:url(#SVGID_41_);}
	.st58{fill:url(#SVGID_42_);}
	.st59{fill:url(#SVGID_43_);}
	.st60{fill:url(#SVGID_44_);}
	.st61{opacity:0.8;}
	.st62{opacity:0.9;}
	.st63{fill:url(#SVGID_45_);}
	.st64{clip-path:url(#SVGID_47_);}
	.st65{clip-path:url(#SVGID_49_);}
	.st66{clip-path:url(#SVGID_51_);}
	.st67{fill:url(#SVGID_52_);}
	.st68{clip-path:url(#SVGID_54_);}
	.st69{fill:url(#SVGID_55_);}
	.st70{clip-path:url(#SVGID_57_);}
	.st71{fill:url(#SVGID_58_);}
	.st72{clip-path:url(#SVGID_60_);fill:#00B2E3;}
	.st73{clip-path:url(#SVGID_62_);}
	.st74{clip-path:url(#SVGID_64_);}
	.st75{fill:none;stroke:#FFFFFF;stroke-width:5;stroke-miterlimit:10;}
	.st76{clip-path:url(#SVGID_66_);fill:#00B2E3;}
	.st77{clip-path:url(#SVGID_68_);}
	.st78{clip-path:url(#SVGID_70_);}
	.st79{clip-path:url(#SVGID_72_);fill:#00B2E3;}
	.st80{clip-path:url(#SVGID_74_);}
	.st81{fill:#5B0323;}
	.st82{fill:url(#SVGID_75_);}
	.st83{fill:url(#SVGID_76_);}
	.st84{fill:url(#SVGID_77_);}
	.st85{clip-path:url(#SVGID_80_);fill:#00B2E3;}
	.st86{clip-path:url(#SVGID_84_);}
	.st87{fill-rule:evenodd;clip-rule:evenodd;fill:#00B2E3;}
	.st88{clip-path:url(#SVGID_86_);}
	.st89{clip-path:url(#SVGID_88_);}
	.st90{opacity:0.3;fill:#6B0303;}
	.st91{opacity:0.3;}
	.st92{fill-rule:evenodd;clip-rule:evenodd;fill:#6B0303;}
	.st93{fill:#6B0303;}
	.st94{clip-path:url(#SVGID_90_);}
	.st95{fill:none;stroke:#5B0323;stroke-miterlimit:10;}
	.st96{clip-path:url(#SVGID_92_);}
	.st97{fill:#E5E5E5;}
	.st98{clip-path:url(#SVGID_94_);}
	.st99{fill:#020202;}
	.st100{fill:#070101;}
	.st101{fill:none;stroke:#068FFF;stroke-width:5;stroke-miterlimit:10;}
</style>
<g id="Capa_2">
</g>
<g id="Capa_1">
</g>
<g id="Capa_3">
	<g>
		<defs>
			<rect id="SVGID_89_" x="-127.42" y="-62.23" width="570.97" height="124.46"/>
		</defs>
		<clipPath id="SVGID_1_">
			<use xlink:href="#SVGID_89_"  style="overflow:visible;"/>
		</clipPath>
		<g style="clip-path:url(#SVGID_1_);">
			<g>
				<g>
					<path class="st1" d="M31.03,89.56H0V5.35h31.03c6.8,0,12.87,1.12,18.03,3.32c5.17,2.21,9.56,5.26,13.04,9.06
						c3.48,3.8,6.13,8.31,7.86,13.4c1.72,5.06,2.6,10.51,2.6,16.21c0,6.32-0.97,12.13-2.9,17.28c-1.94,5.17-4.76,9.66-8.4,13.34
						c-3.64,3.68-8.07,6.56-13.16,8.58C43.04,88.54,37.29,89.56,31.03,89.56z M1,88.56h30.03c6.14,0,11.76-0.99,16.71-2.95
						c4.96-1.96,9.27-4.77,12.81-8.35c3.54-3.58,6.29-7.95,8.18-12.99c1.88-5.03,2.83-10.73,2.83-16.93
						c0-5.59-0.86-10.93-2.54-15.88c-1.69-4.96-4.27-9.35-7.66-13.05c-3.39-3.7-7.66-6.66-12.7-8.82
						c-5.03-2.15-10.97-3.24-17.64-3.24H1V88.56z M31.03,73.62H17.88V21.28h13.15c3.71,0,7.07,0.64,10,1.9
						c2.92,1.26,5.41,3.05,7.4,5.34c1.99,2.29,3.53,5.07,4.57,8.26c1.04,3.21,1.57,6.76,1.57,10.56c0,3.73-0.53,7.24-1.57,10.45
						c-1.04,3.19-2.56,5.99-4.52,8.32c-1.95,2.32-4.42,4.18-7.34,5.5C38.21,72.94,34.81,73.62,31.03,73.62z M18.88,72.62h12.15
						c3.64,0,6.9-0.64,9.69-1.92c2.78-1.27,5.13-3.03,6.99-5.24c1.88-2.23,3.34-4.92,4.34-7.99c1.01-3.11,1.52-6.52,1.52-10.14
						c0-3.7-0.51-7.15-1.52-10.25c-1-3.06-2.47-5.72-4.38-7.91c-1.89-2.17-4.26-3.88-7.04-5.07c-2.8-1.2-6.03-1.82-9.6-1.82H18.88
						V72.62z"/>
				</g>
			</g>
			<g>
				<g>
					<path class="st1" d="M227.16,89.56h-21.35l-16.56-27.18h-13.1v27.18h-18.88V5.35h37.42c3.95,0,7.66,0.84,11.03,2.5
						c3.32,1.64,6.23,3.84,8.64,6.52c2.39,2.67,4.3,5.75,5.65,9.14c1.36,3.41,2.05,6.89,2.05,10.35c0,5.52-1.4,10.62-4.17,15.15
						c-2.46,4.03-5.75,7.11-9.78,9.17L227.16,89.56z M206.38,88.56h19.01L206.7,57.76l0.5-0.24c4.08-1.97,7.39-5.01,9.85-9.04
						c2.67-4.37,4.02-9.29,4.02-14.62c0-3.33-0.67-6.68-1.98-9.97c-1.31-3.28-3.15-6.26-5.47-8.85c-2.32-2.59-5.13-4.71-8.34-6.29
						c-3.22-1.59-6.79-2.4-10.58-2.4h-36.42v82.21h16.88V61.37h14.66L206.38,88.56z M194.35,46.44h-19.2V21.28h18.51
						c1.27,0,2.56,0.31,3.81,0.91c1.26,0.61,2.39,1.49,3.36,2.61c0.98,1.13,1.77,2.47,2.35,4c0.58,1.53,0.88,3.23,0.88,5.05
						c0,1.75-0.26,3.42-0.77,4.96c-0.52,1.55-1.22,2.89-2.08,4.01c-0.86,1.11-1.9,2-3.08,2.65
						C196.97,46.11,195.7,46.44,194.35,46.44z M176.15,45.44h18.2c1.18,0,2.29-0.28,3.31-0.84c1.06-0.58,1.99-1.38,2.77-2.38
						c0.8-1.03,1.44-2.27,1.93-3.71c0.48-1.44,0.72-3,0.72-4.64c0-1.71-0.27-3.29-0.81-4.7c-0.54-1.42-1.27-2.66-2.17-3.7
						c-0.88-1.01-1.91-1.81-3.05-2.36c-1.12-0.54-2.25-0.81-3.37-0.81h-17.51V45.44z"/>
				</g>
			</g>
			<g>
				<g>
					<path class="st1" d="M262.65,89.56h-31.03V5.35h31.03c6.8,0,12.87,1.12,18.03,3.32c5.17,2.21,9.56,5.26,13.04,9.06
						c3.48,3.8,6.13,8.31,7.86,13.4c1.72,5.05,2.6,10.51,2.6,16.21c0,6.32-0.97,12.13-2.9,17.28c-1.93,5.17-4.76,9.66-8.4,13.34
						c-3.64,3.68-8.07,6.56-13.16,8.58C274.66,88.54,268.92,89.56,262.65,89.56z M232.63,88.56h30.03c6.14,0,11.76-0.99,16.71-2.95
						c4.96-1.96,9.27-4.77,12.81-8.35c3.54-3.58,6.29-7.95,8.18-12.99c1.88-5.03,2.83-10.73,2.83-16.93
						c0-5.59-0.86-10.93-2.54-15.88c-1.69-4.96-4.27-9.35-7.66-13.05c-3.39-3.7-7.66-6.66-12.7-8.82
						c-5.03-2.15-10.97-3.24-17.64-3.24h-30.03V88.56z M262.65,73.62H249.5V21.28h13.15c3.71,0,7.07,0.64,10,1.9
						c2.92,1.26,5.41,3.05,7.4,5.34c2,2.29,3.53,5.07,4.57,8.26c1.04,3.21,1.57,6.76,1.57,10.56c0,3.73-0.53,7.24-1.57,10.45
						c-1.04,3.19-2.56,5.99-4.52,8.32c-1.96,2.32-4.43,4.18-7.34,5.5C269.84,72.94,266.44,73.62,262.65,73.62z M250.5,72.62h12.15
						c3.64,0,6.9-0.64,9.69-1.92c2.78-1.27,5.13-3.03,6.99-5.24c1.88-2.24,3.34-4.92,4.33-7.99c1.01-3.11,1.52-6.52,1.52-10.14
						c0-3.7-0.51-7.15-1.52-10.25c-0.99-3.06-2.47-5.72-4.37-7.91c-1.89-2.17-4.26-3.88-7.04-5.07c-2.8-1.2-6.03-1.82-9.6-1.82
						H250.5V72.62z"/>
				</g>
			</g>
			<g>
				<g>
					<path class="st1" d="M349.57,90.13c-6.15,0-11.82-1.22-16.84-3.64c-4.99-2.4-9.35-5.63-12.93-9.61
						c-3.58-3.97-6.39-8.57-8.35-13.68c-1.96-5.11-2.96-10.41-2.96-15.75c0-5.59,1.06-11.01,3.14-16.12
						c2.08-5.1,4.99-9.68,8.64-13.61c3.66-3.94,8.07-7.11,13.11-9.43c5.06-2.33,10.62-3.51,16.53-3.51c6.08,0,11.71,1.26,16.74,3.76
						c4.99,2.48,9.32,5.77,12.87,9.79c3.53,4,6.32,8.62,8.28,13.72c1.96,5.11,2.96,10.37,2.96,15.64c0,5.58-1.04,10.98-3.08,16.06
						c-2.04,5.06-4.91,9.6-8.53,13.5c-3.63,3.9-8.02,7.06-13.05,9.38C361.04,88.95,355.48,90.13,349.57,90.13z M349.91,5.78
						c-5.76,0-11.18,1.15-16.11,3.42c-4.92,2.27-9.22,5.37-12.8,9.21c-3.57,3.84-6.41,8.31-8.45,13.3
						c-2.04,4.99-3.07,10.29-3.07,15.75c0,5.22,0.97,10.4,2.89,15.39c1.92,4.99,4.66,9.49,8.16,13.37c3.5,3.88,7.74,7.04,12.62,9.38
						c4.89,2.35,10.41,3.54,16.41,3.54c5.76,0,11.18-1.15,16.11-3.42c4.92-2.26,9.2-5.34,12.74-9.15c3.53-3.8,6.34-8.24,8.33-13.19
						c2-4.96,3.01-10.24,3.01-15.69c0-5.14-0.97-10.28-2.89-15.28c-1.92-4.99-4.65-9.5-8.1-13.42c-3.46-3.92-7.69-7.13-12.56-9.55
						C361.31,7.01,355.83,5.78,349.91,5.78z M349.68,74.08c-3.63,0-6.9-0.75-9.73-2.22c-2.85-1.48-5.29-3.47-7.25-5.91
						c-1.97-2.45-3.49-5.31-4.53-8.5c-1.04-3.2-1.57-6.56-1.57-9.99c0-3.28,0.51-6.54,1.52-9.71c1-3.16,2.49-6.02,4.42-8.51
						c1.92-2.47,4.36-4.5,7.24-6.02c2.88-1.51,6.21-2.28,9.91-2.28c3.55,0,6.79,0.73,9.63,2.17c2.85,1.44,5.28,3.41,7.24,5.85
						c1.97,2.45,3.51,5.32,4.59,8.51c1.08,3.2,1.63,6.56,1.63,9.99c0,3.28-0.51,6.55-1.51,9.71c-1,3.16-2.51,6.04-4.48,8.56
						c-1.96,2.51-4.39,4.56-7.24,6.08C356.69,73.31,353.38,74.08,349.68,74.08z M349.68,21.94c-3.53,0-6.71,0.73-9.44,2.16
						c-2.76,1.45-5.09,3.38-6.92,5.74c-1.86,2.4-3.29,5.15-4.26,8.2c-0.97,3.07-1.47,6.23-1.47,9.41c0,3.33,0.51,6.58,1.52,9.68
						c1,3.08,2.47,5.83,4.36,8.19c1.87,2.33,4.2,4.23,6.93,5.65c2.69,1.4,5.81,2.11,9.27,2.11c3.53,0,6.68-0.73,9.38-2.16
						c2.73-1.45,5.06-3.41,6.92-5.81c1.9-2.43,3.35-5.21,4.31-8.25c0.97-3.06,1.47-6.23,1.47-9.41c0-3.31-0.53-6.57-1.57-9.67
						c-1.04-3.08-2.52-5.84-4.42-8.2c-1.87-2.33-4.19-4.2-6.91-5.58C356.16,22.63,353.07,21.94,349.68,21.94z"/>
				</g>
			</g>
			<g>
				<g>
					<path class="st1" d="M150.75,89.56H131.1l-20.64-45.35L89.82,89.56H70.17l40.29-88.07L150.75,89.56z M131.74,88.56h17.45
						L110.46,3.89L71.73,88.56h17.45l21.28-46.76L131.74,88.56z"/>
				</g>
			</g>
			<g>
				<g>
					<path class="st1" d="M422.56,121.02h-15.17l32.97-67.36h-36.04V36.57h59.49L422.56,121.02z M408.99,120.02h12.95l40.27-82.45
						h-56.89v15.08h36.64L408.99,120.02z"/>
				</g>
			</g>
		</g>
	</g>
</g>
<g id="Capa_4">
</g>
<g id="Capa_6">
</g>
<g id="Capa_5">
</g>
</svg>
