<?xml version="1.0" encoding="utf-8"?>
<!-- Generator: Adobe Illustrator 24.0.3, SVG Export Plug-In . SVG Version: 6.00 Build 0)  -->
<svg version="1.1" xmlns="http://www.w3.org/2000/svg" xmlns:xlink="http://www.w3.org/1999/xlink" x="0px" y="0px"
	 viewBox="0 0 102.29 102.29" style="enable-background:new 0 0 102.29 102.29;" xml:space="preserve">
<style type="text/css">
	.st0{fill:none;stroke:#E7004C;stroke-miterlimit:10;}
	.st1{fill:#FFFFFF;}
	.st2{fill:url(#SVGID_1_);}
	.st3{fill:#E7004C;}
	.st4{fill-rule:evenodd;clip-rule:evenodd;fill:#FFFFFF;}
	.st5{fill:none;stroke:#00B2E3;stroke-miterlimit:10;}
	.st6{fill:url(#SVGID_2_);}
	.st7{fill:#FCFCFC;}
	.st8{fill:url(#SVGID_3_);}
	.st9{fill:url(#SVGID_4_);}
	.st10{opacity:0.8;fill:#E7004C;}
	.st11{opacity:0.7;fill:#E7004C;}
	.st12{opacity:0.7;}
	.st13{fill:#00B2E3;}
	.st14{opacity:0.8;fill:#00B2E3;}
	.st15{opacity:0.7;fill:#00B2E3;}
	.st16{fill:#BBBBBB;}
	.st17{opacity:0.8;fill:#BBBBBB;}
	.st18{opacity:0.7;fill:#BBBBBB;}
	.st19{fill:url(#SVGID_5_);}
	.st20{fill:url(#SVGID_6_);}
	.st21{fill:none;stroke:#E7004C;stroke-width:2;stroke-miterlimit:10;}
	.st22{fill:url(#SVGID_7_);}
	.st23{fill:url(#SVGID_8_);}
	.st24{fill:url(#SVGID_9_);}
	.st25{fill:none;stroke:#FFFFFF;stroke-miterlimit:10;}
	.st26{fill-rule:evenodd;clip-rule:evenodd;fill:#E7004C;}
	.st27{fill:none;stroke:#000000;stroke-miterlimit:10;}
	.st28{fill:#38A8E0;}
	.st29{clip-path:url(#SVGID_11_);fill:#00B2E3;}
	.st30{fill:none;stroke:#E7004C;stroke-width:3;stroke-miterlimit:10;}
	.st31{clip-path:url(#SVGID_13_);}
	.st32{fill:none;stroke:#FFFFFF;stroke-width:2;stroke-miterlimit:10;}
	.st33{fill:none;stroke:#FFFFFF;stroke-width:3;stroke-miterlimit:10;}
	.st34{clip-path:url(#SVGID_15_);}
	.st35{fill:url(#SVGID_16_);}
	.st36{fill:none;stroke:#FFFFFF;stroke-width:0.5;stroke-miterlimit:10;}
	.st37{clip-path:url(#SVGID_18_);fill:#00B2E3;}
	.st38{clip-path:url(#SVGID_20_);}
	.st39{clip-path:url(#SVGID_22_);}
	.st40{fill:url(#SVGID_23_);}
	.st41{clip-path:url(#SVGID_25_);}
	.st42{fill:url(#SVGID_26_);}
	.st43{fill:url(#SVGID_27_);}
	.st44{fill:url(#SVGID_28_);}
	.st45{fill:url(#SVGID_29_);}
	.st46{clip-path:url(#SVGID_31_);fill:#00B2E3;}
	.st47{clip-path:url(#SVGID_33_);}
	.st48{clip-path:url(#SVGID_35_);}
	.st49{fill:url(#SVGID_36_);}
	.st50{clip-path:url(#SVGID_38_);}
	.st51{clip-path:url(#SVGID_40_);}
	.st52{fill:#280210;}
	.st53{opacity:0.5;}
	.st54{opacity:0.6;}
	.st55{fill:url(#SVGID_41_);}
	.st56{fill:url(#SVGID_42_);}
	.st57{fill:url(#SVGID_43_);}
	.st58{fill:url(#SVGID_44_);}
	.st59{fill:#42050E;}
	.st60{opacity:0.8;}
	.st61{opacity:0.9;}
	.st62{fill:url(#SVGID_45_);}
	.st63{clip-path:url(#SVGID_47_);}
	.st64{clip-path:url(#SVGID_49_);}
	.st65{fill:url(#SVGID_50_);}
	.st66{clip-path:url(#SVGID_52_);}
	.st67{fill:url(#SVGID_53_);}
	.st68{clip-path:url(#SVGID_55_);}
	.st69{fill:url(#SVGID_56_);}
	.st70{clip-path:url(#SVGID_58_);fill:#00B2E3;}
	.st71{clip-path:url(#SVGID_60_);}
	.st72{clip-path:url(#SVGID_62_);}
	.st73{fill:none;stroke:#FFFFFF;stroke-width:5;stroke-miterlimit:10;}
	.st74{clip-path:url(#SVGID_64_);fill:#00B2E3;}
	.st75{clip-path:url(#SVGID_66_);}
	.st76{clip-path:url(#SVGID_68_);}
	.st77{clip-path:url(#SVGID_70_);fill:#00B2E3;}
	.st78{clip-path:url(#SVGID_72_);}
	.st79{fill:#5B0323;}
	.st80{fill:url(#SVGID_73_);}
	.st81{fill:url(#SVGID_74_);}
	.st82{fill:url(#SVGID_75_);}
	.st83{clip-path:url(#SVGID_77_);fill:#00B2E3;}
	.st84{clip-path:url(#SVGID_80_);}
	.st85{fill:none;stroke:#00B2E3;stroke-width:2;stroke-miterlimit:10;}
	.st86{fill-rule:evenodd;clip-rule:evenodd;fill:#00B2E3;}
	.st87{clip-path:url(#SVGID_84_);}
	.st88{fill:#E5E5E5;}
	.st89{clip-path:url(#SVGID_86_);}
	.st90{fill-rule:evenodd;clip-rule:evenodd;fill:none;stroke:#E7004C;stroke-width:3;stroke-miterlimit:10;}
	.st91{fill:#020202;}
	.st92{fill:none;stroke:#5B0323;stroke-miterlimit:10;}
	.st93{fill:#070101;}
	.st94{fill:none;stroke:#068FFF;stroke-width:5;stroke-miterlimit:10;}
</style>
<g id="Capa_2">
</g>
<g id="Capa_1">
</g>
<g id="Capa_3">
	<g>
		<path class="st1" d="M88.44,102.29H13.85C6.21,102.29,0,96.08,0,88.44V13.85C0,6.21,6.21,0,13.85,0h74.59
			c7.64,0,13.85,6.21,13.85,13.85v74.59C102.29,96.08,96.08,102.29,88.44,102.29z M13.85,2C7.31,2,2,7.31,2,13.85v74.59
			c0,6.53,5.31,11.85,11.85,11.85h74.59c6.53,0,11.85-5.31,11.85-11.85V13.85C100.29,7.31,94.97,2,88.44,2H13.85z"/>
	</g>
	<g>
		<g>
			<g>
				<path class="st4" d="M26,36.36V75.6h-3.08c-2.39,0-4.35-1.96-4.35-4.35v-40.5L26,36.36z"/>
			</g>
			<g>
				<path class="st4" d="M78.29,36.36V75.6h3.08c2.39,0,4.35-1.96,4.35-4.35v-40.5L78.29,36.36z"/>
			</g>
			<g>
				<path class="st1" d="M25.5,27.69l53.44,0.01L52.15,45.36L25.5,27.69 M22.18,26.69l29.96,19.86L82.27,26.7L22.18,26.69
					L22.18,26.69z"/>
			</g>
			<g>
				<path class="st4" d="M24.39,27.35l27.75,19.21L79.9,27.35c1.68-1.16,4.01-0.74,5.17,0.94l0,0c0.47,0.68,0.68,1.47,0.65,2.25v0
					l0,1.85c-0.53,0.39-1.07,0.71-1.6,1.07L52.14,55.6L20.16,33.46c-0.52-0.36-1.07-0.68-1.6-1.07l0-1.85v0
					c-0.03-0.77,0.18-1.56,0.65-2.25l0,0C20.38,26.61,22.71,26.18,24.39,27.35z"/>
			</g>
			<g>
				<polygon class="st4" points="26,37.5 18.56,32.39 26,40.41 				"/>
			</g>
			<g>
				<polygon class="st4" points="78.29,37.5 85.72,32.39 78.29,40.41 				"/>
			</g>
		</g>
		<g>
			<g>
				<path class="st1" d="M23.91,34.9L36.33,42l11,6.65c3.89,2.99,4.44,2.99,4.76,2.99c0.23,0,0.45-0.07,0.63-0.2
					c0.4-0.17,2.06-0.71,3.54-1.18c6.06-1.95,7.56-2.52,7.99-3.03c0.69-0.67,9.32-6.52,14.6-10.05l0.18-0.12l0.11-0.18L79.69,36
					l1.32,8.9c0.16,7.19,0.23,15.29,0.03,16.19c-0.31,1.24-1.14,10.39-1.41,13.51H26h-2.08V34.9 M80.28,33.17l-1.99,3.18
					c0,0-14.16,9.46-14.78,10.2c-0.63,0.74-11.14,3.77-11.36,4.06c-0.01,0.01-0.03,0.02-0.05,0.02c-0.53,0-4.2-2.82-4.2-2.82
					l-11.05-6.67l-13.93-7.97V75.6H26h54.55c0,0,1.11-12.88,1.46-14.26c0.35-1.38,0-16.52,0-16.52L80.28,33.17L80.28,33.17z"/>
			</g>
		</g>
	</g>
</g>
<g id="Capa_4">
</g>
<g id="Capa_6">
</g>
<g id="Capa_5">
</g>
</svg>
