<?xml version="1.0" encoding="utf-8"?>
<!-- Generator: Adobe Illustrator 24.0.3, SVG Export Plug-In . SVG Version: 6.00 Build 0)  -->
<svg version="1.1" xmlns="http://www.w3.org/2000/svg" xmlns:xlink="http://www.w3.org/1999/xlink" x="0px" y="0px"
	 viewBox="0 0 233.83 84.42" style="enable-background:new 0 0 233.83 84.42;" xml:space="preserve">
<style type="text/css">
	.st0{fill:none;stroke:#E7004C;stroke-miterlimit:10;}
	.st1{fill:#FFFFFF;}
	.st2{fill:url(#SVGID_1_);}
	.st3{fill:#E7004C;}
	.st4{fill:#42050E;}
	.st5{fill:none;stroke:#FFFFFF;stroke-width:0.75;stroke-miterlimit:10;}
	.st6{fill-rule:evenodd;clip-rule:evenodd;fill:#FFFFFF;}
	.st7{fill:none;stroke:#00B2E3;stroke-miterlimit:10;}
	.st8{fill:url(#SVGID_2_);}
	.st9{fill:#FCFCFC;}
	.st10{fill:url(#SVGID_3_);}
	.st11{fill:url(#SVGID_4_);}
	.st12{opacity:0.8;fill:#E7004C;}
	.st13{opacity:0.7;fill:#E7004C;}
	.st14{opacity:0.7;}
	.st15{fill:#00B2E3;}
	.st16{opacity:0.8;fill:#00B2E3;}
	.st17{opacity:0.7;fill:#00B2E3;}
	.st18{fill:#BBBBBB;}
	.st19{opacity:0.8;fill:#BBBBBB;}
	.st20{opacity:0.7;fill:#BBBBBB;}
	.st21{fill:url(#SVGID_5_);}
	.st22{fill:url(#SVGID_6_);}
	.st23{fill:none;stroke:#E7004C;stroke-width:2;stroke-miterlimit:10;}
	.st24{fill:url(#SVGID_7_);}
	.st25{fill:url(#SVGID_8_);}
	.st26{fill:url(#SVGID_9_);}
	.st27{fill:none;stroke:#FFFFFF;stroke-miterlimit:10;}
	.st28{fill-rule:evenodd;clip-rule:evenodd;fill:#E7004C;}
	.st29{fill:none;stroke:#000000;stroke-miterlimit:10;}
	.st30{fill:#38A8E0;}
	.st31{clip-path:url(#SVGID_11_);fill:#00B2E3;}
	.st32{fill:none;stroke:#E7004C;stroke-width:3;stroke-miterlimit:10;}
	.st33{clip-path:url(#SVGID_13_);}
	.st34{fill:none;stroke:#FFFFFF;stroke-width:2;stroke-miterlimit:10;}
	.st35{fill:none;stroke:#FFFFFF;stroke-width:3;stroke-miterlimit:10;}
	.st36{clip-path:url(#SVGID_15_);}
	.st37{fill:url(#SVGID_16_);}
	.st38{fill:none;stroke:#FFFFFF;stroke-width:0.5;stroke-miterlimit:10;}
	.st39{clip-path:url(#SVGID_18_);fill:#00B2E3;}
	.st40{clip-path:url(#SVGID_20_);}
	.st41{clip-path:url(#SVGID_22_);}
	.st42{fill:url(#SVGID_23_);}
	.st43{clip-path:url(#SVGID_25_);}
	.st44{fill:url(#SVGID_26_);}
	.st45{fill:url(#SVGID_27_);}
	.st46{fill:url(#SVGID_28_);}
	.st47{fill:url(#SVGID_29_);}
	.st48{clip-path:url(#SVGID_31_);fill:#00B2E3;}
	.st49{clip-path:url(#SVGID_33_);}
	.st50{clip-path:url(#SVGID_35_);}
	.st51{fill:url(#SVGID_36_);}
	.st52{clip-path:url(#SVGID_38_);}
	.st53{clip-path:url(#SVGID_40_);}
	.st54{fill:#280210;}
	.st55{opacity:0.5;}
	.st56{opacity:0.6;}
	.st57{fill:url(#SVGID_41_);}
	.st58{fill:url(#SVGID_42_);}
	.st59{fill:url(#SVGID_43_);}
	.st60{fill:url(#SVGID_44_);}
	.st61{opacity:0.8;}
	.st62{opacity:0.9;}
	.st63{fill:url(#SVGID_45_);}
	.st64{clip-path:url(#SVGID_47_);}
	.st65{clip-path:url(#SVGID_49_);}
	.st66{fill:url(#SVGID_50_);}
	.st67{clip-path:url(#SVGID_52_);}
	.st68{fill:url(#SVGID_53_);}
	.st69{clip-path:url(#SVGID_55_);}
	.st70{fill:url(#SVGID_56_);}
	.st71{clip-path:url(#SVGID_58_);fill:#00B2E3;}
	.st72{clip-path:url(#SVGID_60_);}
	.st73{clip-path:url(#SVGID_62_);}
	.st74{fill:none;stroke:#FFFFFF;stroke-width:5;stroke-miterlimit:10;}
	.st75{clip-path:url(#SVGID_64_);fill:#00B2E3;}
	.st76{clip-path:url(#SVGID_66_);}
	.st77{clip-path:url(#SVGID_68_);}
	.st78{clip-path:url(#SVGID_70_);fill:#00B2E3;}
	.st79{clip-path:url(#SVGID_72_);}
	.st80{fill:#5B0323;}
	.st81{fill:url(#SVGID_73_);}
	.st82{fill:url(#SVGID_74_);}
	.st83{fill:url(#SVGID_75_);}
	.st84{clip-path:url(#SVGID_77_);fill:#00B2E3;}
	.st85{clip-path:url(#SVGID_80_);}
	.st86{fill:none;stroke:#00B2E3;stroke-width:2;stroke-miterlimit:10;}
	.st87{fill-rule:evenodd;clip-rule:evenodd;fill:#00B2E3;}
	.st88{clip-path:url(#SVGID_84_);}
	.st89{fill:#E5E5E5;}
	.st90{clip-path:url(#SVGID_86_);}
	.st91{fill-rule:evenodd;clip-rule:evenodd;fill:none;stroke:#E7004C;stroke-width:3;stroke-miterlimit:10;}
	.st92{fill:#020202;}
	.st93{fill:none;stroke:#5B0323;stroke-miterlimit:10;}
	.st94{fill:#070101;}
	.st95{fill:none;stroke:#068FFF;stroke-width:5;stroke-miterlimit:10;}
</style>
<g id="Capa_2">
	<g>
		<g>
			<path class="st5" d="M106.44,79.14c0.68,0,1.26-0.15,1.74-0.45s0.87-0.69,1.17-1.18s0.52-1.05,0.66-1.7
				c0.14-0.64,0.21-1.31,0.21-2.01V62.85h5.85V73.8c0,1.48-0.19,2.86-0.57,4.15s-0.97,2.41-1.77,3.35c-0.8,0.94-1.81,1.68-3.02,2.22
				s-2.64,0.81-4.27,0.81c-1.7,0-3.16-0.29-4.36-0.85c-1.21-0.57-2.21-1.33-2.99-2.29c-0.78-0.96-1.35-2.08-1.71-3.35
				c-0.36-1.27-0.54-2.61-0.54-4.03V62.85h5.85V73.8c0,0.7,0.07,1.38,0.21,2.02c0.14,0.65,0.36,1.22,0.66,1.71
				c0.3,0.49,0.69,0.88,1.15,1.17C105.19,79,105.76,79.14,106.44,79.14z"/>
			<path class="st5" d="M133.83,69.81c-0.6-0.36-1.22-0.68-1.86-0.96c-0.54-0.24-1.15-0.46-1.81-0.67
				c-0.67-0.21-1.33-0.32-1.97-0.32c-0.52,0-0.94,0.08-1.24,0.24c-0.31,0.16-0.47,0.43-0.47,0.81c0,0.28,0.09,0.51,0.27,0.69
				c0.18,0.18,0.44,0.34,0.78,0.5c0.34,0.15,0.75,0.29,1.24,0.43c0.49,0.14,1.04,0.31,1.67,0.51c0.98,0.3,1.86,0.63,2.66,0.99
				c0.79,0.36,1.46,0.79,2.02,1.28c0.56,0.49,0.99,1.08,1.29,1.79c0.3,0.7,0.45,1.55,0.45,2.55c0,1.28-0.23,2.35-0.7,3.22
				c-0.47,0.87-1.09,1.57-1.86,2.08c-0.77,0.52-1.64,0.9-2.61,1.12c-0.97,0.23-1.95,0.34-2.92,0.34c-0.78,0-1.58-0.06-2.4-0.18
				s-1.63-0.29-2.44-0.51c-0.81-0.22-1.59-0.48-2.34-0.78s-1.45-0.64-2.08-1.02l2.52-5.13c0.7,0.44,1.43,0.83,2.19,1.17
				c0.64,0.3,1.36,0.57,2.17,0.81s1.64,0.36,2.48,0.36c0.64,0,1.08-0.08,1.33-0.25c0.25-0.17,0.38-0.4,0.38-0.68
				c0-0.3-0.12-0.55-0.38-0.76c-0.25-0.21-0.6-0.39-1.04-0.55s-0.94-0.32-1.51-0.48c-0.57-0.16-1.18-0.35-1.81-0.57
				c-0.94-0.32-1.75-0.67-2.43-1.04c-0.68-0.37-1.24-0.79-1.68-1.26c-0.44-0.47-0.76-1-0.98-1.6c-0.21-0.6-0.31-1.29-0.31-2.07
				c0-1.18,0.21-2.22,0.65-3.12c0.43-0.9,1.02-1.65,1.76-2.25c0.74-0.6,1.58-1.05,2.53-1.36c0.95-0.31,1.95-0.47,3.02-0.47
				c0.78,0,1.54,0.08,2.28,0.23c0.74,0.15,1.46,0.34,2.15,0.57c0.69,0.23,1.33,0.48,1.94,0.75c0.6,0.27,1.14,0.52,1.62,0.76
				L133.83,69.81z"/>
		</g>
		<g>
			<path class="st4" d="M8.8,27.77v13.96H1v-28.4h6.08l11.4,14.44V13.33h7.8v28.4h-6.2L8.8,27.77z"/>
			<path class="st4" d="M45.96,41.97c-2.16,0-4.12-0.41-5.88-1.24c-1.76-0.83-3.27-1.91-4.52-3.26c-1.25-1.35-2.23-2.89-2.92-4.62
				c-0.69-1.73-1.04-3.52-1.04-5.36c0-1.87,0.36-3.67,1.08-5.4c0.72-1.73,1.73-3.26,3.02-4.58c1.29-1.32,2.83-2.37,4.6-3.16
				c1.77-0.79,3.71-1.18,5.82-1.18c2.16,0,4.12,0.41,5.88,1.24c1.76,0.83,3.27,1.92,4.52,3.28c1.25,1.36,2.22,2.91,2.9,4.64
				c0.68,1.73,1.02,3.51,1.02,5.32c0,1.87-0.36,3.66-1.08,5.38c-0.72,1.72-1.72,3.24-3,4.56c-1.28,1.32-2.81,2.38-4.58,3.18
				C50.01,41.57,48.07,41.97,45.96,41.97z M39.52,27.57c0,0.96,0.13,1.89,0.4,2.78c0.27,0.89,0.67,1.69,1.2,2.38
				c0.53,0.69,1.21,1.25,2.02,1.68c0.81,0.43,1.78,0.64,2.9,0.64c1.12,0,2.09-0.22,2.92-0.66c0.83-0.44,1.5-1.01,2.02-1.72
				c0.52-0.71,0.91-1.51,1.16-2.42c0.25-0.91,0.38-1.83,0.38-2.76c0-0.96-0.13-1.88-0.4-2.78c-0.27-0.89-0.67-1.68-1.22-2.36
				c-0.55-0.68-1.23-1.23-2.04-1.64c-0.81-0.41-1.77-0.62-2.86-0.62c-1.12,0-2.09,0.21-2.9,0.64c-0.81,0.43-1.49,0.99-2.02,1.7
				c-0.53,0.71-0.93,1.51-1.18,2.4C39.65,25.72,39.52,26.63,39.52,27.57z"/>
			<path class="st4" d="M82.72,22.61c-0.8-0.48-1.63-0.91-2.48-1.28c-0.72-0.32-1.53-0.62-2.42-0.9c-0.89-0.28-1.77-0.42-2.62-0.42
				c-0.69,0-1.25,0.11-1.66,0.32c-0.41,0.21-0.62,0.57-0.62,1.08c0,0.38,0.12,0.68,0.36,0.92c0.24,0.24,0.59,0.46,1.04,0.66
				c0.45,0.2,1.01,0.39,1.66,0.58c0.65,0.19,1.39,0.41,2.22,0.68c1.31,0.4,2.49,0.84,3.54,1.32c1.05,0.48,1.95,1.05,2.7,1.7
				c0.75,0.65,1.32,1.45,1.72,2.38c0.4,0.93,0.6,2.07,0.6,3.4c0,1.71-0.31,3.14-0.94,4.3c-0.63,1.16-1.45,2.09-2.48,2.78
				c-1.03,0.69-2.19,1.19-3.48,1.5s-2.59,0.46-3.9,0.46c-1.04,0-2.11-0.08-3.2-0.24c-1.09-0.16-2.18-0.39-3.26-0.68
				c-1.08-0.29-2.12-0.64-3.12-1.04s-1.93-0.85-2.78-1.36l3.36-6.84c0.93,0.59,1.91,1.11,2.92,1.56c0.85,0.4,1.82,0.76,2.9,1.08
				c1.08,0.32,2.18,0.48,3.3,0.48c0.85,0,1.45-0.11,1.78-0.34s0.5-0.53,0.5-0.9c0-0.4-0.17-0.74-0.5-1.02s-0.79-0.53-1.38-0.74
				c-0.59-0.21-1.26-0.43-2.02-0.64c-0.76-0.21-1.57-0.46-2.42-0.76c-1.25-0.43-2.33-0.88-3.24-1.38c-0.91-0.49-1.65-1.05-2.24-1.68
				c-0.59-0.63-1.02-1.34-1.3-2.14c-0.28-0.8-0.42-1.72-0.42-2.76c0-1.57,0.29-2.96,0.86-4.16c0.57-1.2,1.35-2.2,2.34-3
				c0.99-0.8,2.11-1.41,3.38-1.82s2.61-0.62,4.02-0.62c1.04,0,2.05,0.1,3.04,0.3c0.99,0.2,1.94,0.45,2.86,0.76
				c0.92,0.31,1.78,0.64,2.58,1c0.8,0.36,1.52,0.7,2.16,1.02L82.72,22.61z"/>
			<path class="st4" d="M105,41.97c-2.16,0-4.12-0.41-5.88-1.24c-1.76-0.83-3.27-1.91-4.52-3.26c-1.25-1.35-2.23-2.89-2.92-4.62
				c-0.69-1.73-1.04-3.52-1.04-5.36c0-1.87,0.36-3.67,1.08-5.4c0.72-1.73,1.73-3.26,3.02-4.58c1.29-1.32,2.83-2.37,4.6-3.16
				c1.77-0.79,3.71-1.18,5.82-1.18c2.16,0,4.12,0.41,5.88,1.24c1.76,0.83,3.27,1.92,4.52,3.28c1.25,1.36,2.22,2.91,2.9,4.64
				c0.68,1.73,1.02,3.51,1.02,5.32c0,1.87-0.36,3.66-1.08,5.38c-0.72,1.72-1.72,3.24-3,4.56c-1.28,1.32-2.81,2.38-4.58,3.18
				C109.05,41.57,107.11,41.97,105,41.97z M98.56,27.57c0,0.96,0.13,1.89,0.4,2.78c0.27,0.89,0.67,1.69,1.2,2.38
				c0.53,0.69,1.21,1.25,2.02,1.68c0.81,0.43,1.78,0.64,2.9,0.64c1.12,0,2.09-0.22,2.92-0.66c0.83-0.44,1.5-1.01,2.02-1.72
				c0.52-0.71,0.91-1.51,1.16-2.42c0.25-0.91,0.38-1.83,0.38-2.76c0-0.96-0.13-1.88-0.4-2.78c-0.27-0.89-0.67-1.68-1.22-2.36
				c-0.55-0.68-1.23-1.23-2.04-1.64c-0.81-0.41-1.77-0.62-2.86-0.62c-1.12,0-2.09,0.21-2.9,0.64c-0.81,0.43-1.49,0.99-2.02,1.7
				c-0.53,0.71-0.93,1.51-1.18,2.4C98.69,25.72,98.56,26.63,98.56,27.57z"/>
			<path class="st4" d="M146.48,20.13h-8.16v21.6h-7.8v-21.6h-8.2v-6.8h24.16V20.13z"/>
			<path class="st4" d="M151.32,41.73v-28.4h13.04c1.39,0,2.67,0.29,3.84,0.86s2.18,1.32,3.02,2.24c0.84,0.92,1.5,1.97,1.98,3.16
				c0.48,1.19,0.72,2.38,0.72,3.58c0,1.65-0.36,3.19-1.08,4.62c-0.72,1.43-1.72,2.59-3,3.5l6,10.44h-8.8l-5-8.72h-2.92v8.72H151.32z
				 M159.12,26.21h4.92c0.48,0,0.93-0.27,1.34-0.8c0.41-0.53,0.62-1.28,0.62-2.24c0-0.99-0.24-1.74-0.72-2.26
				c-0.48-0.52-0.96-0.78-1.44-0.78h-4.72V26.21z"/>
			<path class="st4" d="M192.76,41.97c-2.16,0-4.12-0.41-5.88-1.24c-1.76-0.83-3.27-1.91-4.52-3.26c-1.25-1.35-2.23-2.89-2.92-4.62
				c-0.69-1.73-1.04-3.52-1.04-5.36c0-1.87,0.36-3.67,1.08-5.4c0.72-1.73,1.73-3.26,3.02-4.58c1.29-1.32,2.83-2.37,4.6-3.16
				c1.77-0.79,3.71-1.18,5.82-1.18c2.16,0,4.12,0.41,5.88,1.24c1.76,0.83,3.27,1.92,4.52,3.28c1.25,1.36,2.22,2.91,2.9,4.64
				c0.68,1.73,1.02,3.51,1.02,5.32c0,1.87-0.36,3.66-1.08,5.38c-0.72,1.72-1.72,3.24-3,4.56c-1.28,1.32-2.81,2.38-4.58,3.18
				C196.81,41.57,194.87,41.97,192.76,41.97z M186.32,27.57c0,0.96,0.13,1.89,0.4,2.78c0.27,0.89,0.67,1.69,1.2,2.38
				c0.53,0.69,1.21,1.25,2.02,1.68c0.81,0.43,1.78,0.64,2.9,0.64c1.12,0,2.09-0.22,2.92-0.66c0.83-0.44,1.5-1.01,2.02-1.72
				c0.52-0.71,0.91-1.51,1.16-2.42c0.25-0.91,0.38-1.83,0.38-2.76c0-0.96-0.13-1.88-0.4-2.78c-0.27-0.89-0.67-1.68-1.22-2.36
				c-0.55-0.68-1.23-1.23-2.04-1.64c-0.81-0.41-1.77-0.62-2.86-0.62c-1.12,0-2.09,0.21-2.9,0.64c-0.81,0.43-1.49,0.99-2.02,1.7
				c-0.53,0.71-0.93,1.51-1.18,2.4C186.45,25.72,186.32,26.63,186.32,27.57z"/>
			<path class="st4" d="M229.52,22.61c-0.8-0.48-1.63-0.91-2.48-1.28c-0.72-0.32-1.53-0.62-2.42-0.9c-0.89-0.28-1.77-0.42-2.62-0.42
				c-0.69,0-1.25,0.11-1.66,0.32c-0.41,0.21-0.62,0.57-0.62,1.08c0,0.38,0.12,0.68,0.36,0.92c0.24,0.24,0.59,0.46,1.04,0.66
				c0.45,0.2,1.01,0.39,1.66,0.58c0.65,0.19,1.39,0.41,2.22,0.68c1.31,0.4,2.49,0.84,3.54,1.32c1.05,0.48,1.95,1.05,2.7,1.7
				c0.75,0.65,1.32,1.45,1.72,2.38c0.4,0.93,0.6,2.07,0.6,3.4c0,1.71-0.31,3.14-0.94,4.3c-0.63,1.16-1.45,2.09-2.48,2.78
				c-1.03,0.69-2.19,1.19-3.48,1.5s-2.59,0.46-3.9,0.46c-1.04,0-2.11-0.08-3.2-0.24c-1.09-0.16-2.18-0.39-3.26-0.68
				c-1.08-0.29-2.12-0.64-3.12-1.04s-1.93-0.85-2.78-1.36l3.36-6.84c0.93,0.59,1.91,1.11,2.92,1.56c0.85,0.4,1.82,0.76,2.9,1.08
				c1.08,0.32,2.18,0.48,3.3,0.48c0.85,0,1.45-0.11,1.78-0.34s0.5-0.53,0.5-0.9c0-0.4-0.17-0.74-0.5-1.02s-0.79-0.53-1.38-0.74
				c-0.59-0.21-1.26-0.43-2.02-0.64c-0.76-0.21-1.57-0.46-2.42-0.76c-1.25-0.43-2.33-0.88-3.24-1.38c-0.91-0.49-1.65-1.05-2.24-1.68
				c-0.59-0.63-1.02-1.34-1.3-2.14c-0.28-0.8-0.42-1.72-0.42-2.76c0-1.57,0.29-2.96,0.86-4.16c0.57-1.2,1.35-2.2,2.34-3
				c0.99-0.8,2.11-1.41,3.38-1.82s2.61-0.62,4.02-0.62c1.04,0,2.05,0.1,3.04,0.3c0.99,0.2,1.94,0.45,2.86,0.76
				c0.92,0.31,1.78,0.64,2.58,1c0.8,0.36,1.52,0.7,2.16,1.02L229.52,22.61z"/>
		</g>
		<g>
			<path class="st1" d="M7.8,14.44V28.4H0V0h6.08l11.4,14.44V0h7.8v28.4h-6.2L7.8,14.44z"/>
			<path class="st1" d="M44.96,28.64c-2.16,0-4.12-0.41-5.88-1.24c-1.76-0.83-3.27-1.91-4.52-3.26c-1.25-1.35-2.23-2.89-2.92-4.62
				c-0.69-1.73-1.04-3.52-1.04-5.36c0-1.87,0.36-3.67,1.08-5.4c0.72-1.73,1.73-3.26,3.02-4.58c1.29-1.32,2.83-2.37,4.6-3.16
				c1.77-0.79,3.71-1.18,5.82-1.18c2.16,0,4.12,0.41,5.88,1.24c1.76,0.83,3.27,1.92,4.52,3.28c1.25,1.36,2.22,2.91,2.9,4.64
				c0.68,1.73,1.02,3.51,1.02,5.32c0,1.87-0.36,3.66-1.08,5.38c-0.72,1.72-1.72,3.24-3,4.56c-1.28,1.32-2.81,2.38-4.58,3.18
				C49.01,28.24,47.07,28.64,44.96,28.64z M38.52,14.24c0,0.96,0.13,1.89,0.4,2.78c0.27,0.89,0.67,1.69,1.2,2.38
				c0.53,0.69,1.21,1.25,2.02,1.68c0.81,0.43,1.78,0.64,2.9,0.64c1.12,0,2.09-0.22,2.92-0.66c0.83-0.44,1.5-1.01,2.02-1.72
				c0.52-0.71,0.91-1.51,1.16-2.42c0.25-0.91,0.38-1.83,0.38-2.76c0-0.96-0.13-1.88-0.4-2.78c-0.27-0.89-0.67-1.68-1.22-2.36
				c-0.55-0.68-1.23-1.23-2.04-1.64C47.05,6.97,46.09,6.76,45,6.76c-1.12,0-2.09,0.21-2.9,0.64c-0.81,0.43-1.49,0.99-2.02,1.7
				c-0.53,0.71-0.93,1.51-1.18,2.4C38.65,12.39,38.52,13.31,38.52,14.24z"/>
			<path class="st1" d="M81.72,9.28C80.92,8.8,80.09,8.38,79.24,8c-0.72-0.32-1.53-0.62-2.42-0.9c-0.89-0.28-1.77-0.42-2.62-0.42
				c-0.69,0-1.25,0.11-1.66,0.32c-0.41,0.21-0.62,0.57-0.62,1.08c0,0.38,0.12,0.68,0.36,0.92c0.24,0.24,0.59,0.46,1.04,0.66
				c0.45,0.2,1.01,0.39,1.66,0.58c0.65,0.19,1.39,0.41,2.22,0.68c1.31,0.4,2.49,0.84,3.54,1.32c1.05,0.48,1.95,1.05,2.7,1.7
				c0.75,0.65,1.32,1.45,1.72,2.38c0.4,0.93,0.6,2.07,0.6,3.4c0,1.71-0.31,3.14-0.94,4.3c-0.63,1.16-1.45,2.09-2.48,2.78
				c-1.03,0.69-2.19,1.19-3.48,1.5s-2.59,0.46-3.9,0.46c-1.04,0-2.11-0.08-3.2-0.24c-1.09-0.16-2.18-0.39-3.26-0.68
				c-1.08-0.29-2.12-0.64-3.12-1.04s-1.93-0.85-2.78-1.36l3.36-6.84c0.93,0.59,1.91,1.11,2.92,1.56c0.85,0.4,1.82,0.76,2.9,1.08
				c1.08,0.32,2.18,0.48,3.3,0.48c0.85,0,1.45-0.11,1.78-0.34s0.5-0.53,0.5-0.9c0-0.4-0.17-0.74-0.5-1.02s-0.79-0.53-1.38-0.74
				c-0.59-0.21-1.26-0.43-2.02-0.64c-0.76-0.21-1.57-0.46-2.42-0.76c-1.25-0.43-2.33-0.88-3.24-1.38c-0.91-0.49-1.65-1.05-2.24-1.68
				c-0.59-0.63-1.02-1.34-1.3-2.14c-0.28-0.8-0.42-1.72-0.42-2.76c0-1.57,0.29-2.96,0.86-4.16c0.57-1.2,1.35-2.2,2.34-3
				c0.99-0.8,2.11-1.41,3.38-1.82s2.61-0.62,4.02-0.62c1.04,0,2.05,0.1,3.04,0.3c0.99,0.2,1.94,0.45,2.86,0.76
				c0.92,0.31,1.78,0.64,2.58,1c0.8,0.36,1.52,0.7,2.16,1.02L81.72,9.28z"/>
			<path class="st1" d="M104,28.64c-2.16,0-4.12-0.41-5.88-1.24c-1.76-0.83-3.27-1.91-4.52-3.26c-1.25-1.35-2.23-2.89-2.92-4.62
				c-0.69-1.73-1.04-3.52-1.04-5.36c0-1.87,0.36-3.67,1.08-5.4c0.72-1.73,1.73-3.26,3.02-4.58c1.29-1.32,2.83-2.37,4.6-3.16
				c1.77-0.79,3.71-1.18,5.82-1.18c2.16,0,4.12,0.41,5.88,1.24c1.76,0.83,3.27,1.92,4.52,3.28c1.25,1.36,2.22,2.91,2.9,4.64
				c0.68,1.73,1.02,3.51,1.02,5.32c0,1.87-0.36,3.66-1.08,5.38c-0.72,1.72-1.72,3.24-3,4.56c-1.28,1.32-2.81,2.38-4.58,3.18
				C108.05,28.24,106.11,28.64,104,28.64z M97.56,14.24c0,0.96,0.13,1.89,0.4,2.78c0.27,0.89,0.67,1.69,1.2,2.38
				c0.53,0.69,1.21,1.25,2.02,1.68c0.81,0.43,1.78,0.64,2.9,0.64c1.12,0,2.09-0.22,2.92-0.66c0.83-0.44,1.5-1.01,2.02-1.72
				c0.52-0.71,0.91-1.51,1.16-2.42c0.25-0.91,0.38-1.83,0.38-2.76c0-0.96-0.13-1.88-0.4-2.78c-0.27-0.89-0.67-1.68-1.22-2.36
				c-0.55-0.68-1.23-1.23-2.04-1.64c-0.81-0.41-1.77-0.62-2.86-0.62c-1.12,0-2.09,0.21-2.9,0.64c-0.81,0.43-1.49,0.99-2.02,1.7
				c-0.53,0.71-0.93,1.51-1.18,2.4C97.69,12.39,97.56,13.31,97.56,14.24z"/>
			<path class="st1" d="M145.48,6.8h-8.16v21.6h-7.8V6.8h-8.2V0h24.16V6.8z"/>
			<path class="st1" d="M150.32,28.4V0h13.04c1.39,0,2.67,0.29,3.84,0.86s2.18,1.32,3.02,2.24c0.84,0.92,1.5,1.97,1.98,3.16
				c0.48,1.19,0.72,2.38,0.72,3.58c0,1.65-0.36,3.19-1.08,4.62c-0.72,1.43-1.72,2.59-3,3.5l6,10.44h-8.8l-5-8.72h-2.92v8.72H150.32z
				 M158.12,12.88h4.92c0.48,0,0.93-0.27,1.34-0.8c0.41-0.53,0.62-1.28,0.62-2.24c0-0.99-0.24-1.74-0.72-2.26
				c-0.48-0.52-0.96-0.78-1.44-0.78h-4.72V12.88z"/>
			<path class="st1" d="M191.76,28.64c-2.16,0-4.12-0.41-5.88-1.24c-1.76-0.83-3.27-1.91-4.52-3.26c-1.25-1.35-2.23-2.89-2.92-4.62
				c-0.69-1.73-1.04-3.52-1.04-5.36c0-1.87,0.36-3.67,1.08-5.4c0.72-1.73,1.73-3.26,3.02-4.58c1.29-1.32,2.83-2.37,4.6-3.16
				c1.77-0.79,3.71-1.18,5.82-1.18c2.16,0,4.12,0.41,5.88,1.24c1.76,0.83,3.27,1.92,4.52,3.28c1.25,1.36,2.22,2.91,2.9,4.64
				c0.68,1.73,1.02,3.51,1.02,5.32c0,1.87-0.36,3.66-1.08,5.38c-0.72,1.72-1.72,3.24-3,4.56c-1.28,1.32-2.81,2.38-4.58,3.18
				C195.81,28.24,193.87,28.64,191.76,28.64z M185.32,14.24c0,0.96,0.13,1.89,0.4,2.78c0.27,0.89,0.67,1.69,1.2,2.38
				c0.53,0.69,1.21,1.25,2.02,1.68c0.81,0.43,1.78,0.64,2.9,0.64c1.12,0,2.09-0.22,2.92-0.66c0.83-0.44,1.5-1.01,2.02-1.72
				c0.52-0.71,0.91-1.51,1.16-2.42c0.25-0.91,0.38-1.83,0.38-2.76c0-0.96-0.13-1.88-0.4-2.78c-0.27-0.89-0.67-1.68-1.22-2.36
				c-0.55-0.68-1.23-1.23-2.04-1.64c-0.81-0.41-1.77-0.62-2.86-0.62c-1.12,0-2.09,0.21-2.9,0.64c-0.81,0.43-1.49,0.99-2.02,1.7
				c-0.53,0.71-0.93,1.51-1.18,2.4C185.45,12.39,185.32,13.31,185.32,14.24z"/>
			<path class="st1" d="M228.52,9.28c-0.8-0.48-1.63-0.91-2.48-1.28c-0.72-0.32-1.53-0.62-2.42-0.9c-0.89-0.28-1.77-0.42-2.62-0.42
				c-0.69,0-1.25,0.11-1.66,0.32c-0.41,0.21-0.62,0.57-0.62,1.08c0,0.38,0.12,0.68,0.36,0.92c0.24,0.24,0.59,0.46,1.04,0.66
				c0.45,0.2,1.01,0.39,1.66,0.58c0.65,0.19,1.39,0.41,2.22,0.68c1.31,0.4,2.49,0.84,3.54,1.32c1.05,0.48,1.95,1.05,2.7,1.7
				c0.75,0.65,1.32,1.45,1.72,2.38c0.4,0.93,0.6,2.07,0.6,3.4c0,1.71-0.31,3.14-0.94,4.3c-0.63,1.16-1.45,2.09-2.48,2.78
				c-1.03,0.69-2.19,1.19-3.48,1.5s-2.59,0.46-3.9,0.46c-1.04,0-2.11-0.08-3.2-0.24c-1.09-0.16-2.18-0.39-3.26-0.68
				c-1.08-0.29-2.12-0.64-3.12-1.04s-1.93-0.85-2.78-1.36l3.36-6.84c0.93,0.59,1.91,1.11,2.92,1.56c0.85,0.4,1.82,0.76,2.9,1.08
				c1.08,0.32,2.18,0.48,3.3,0.48c0.85,0,1.45-0.11,1.78-0.34s0.5-0.53,0.5-0.9c0-0.4-0.17-0.74-0.5-1.02s-0.79-0.53-1.38-0.74
				c-0.59-0.21-1.26-0.43-2.02-0.64c-0.76-0.21-1.57-0.46-2.42-0.76c-1.25-0.43-2.33-0.88-3.24-1.38c-0.91-0.49-1.65-1.05-2.24-1.68
				c-0.59-0.63-1.02-1.34-1.3-2.14c-0.28-0.8-0.42-1.72-0.42-2.76c0-1.57,0.29-2.96,0.86-4.16c0.57-1.2,1.35-2.2,2.34-3
				c0.99-0.8,2.11-1.41,3.38-1.82s2.61-0.62,4.02-0.62c1.04,0,2.05,0.1,3.04,0.3c0.99,0.2,1.94,0.45,2.86,0.76
				c0.92,0.31,1.78,0.64,2.58,1c0.8,0.36,1.52,0.7,2.16,1.02L228.52,9.28z"/>
		</g>
	</g>
</g>
<g id="Capa_1">
</g>
<g id="Capa_3">
</g>
<g id="Capa_4">
</g>
<g id="Capa_6">
</g>
<g id="Capa_5">
</g>
</svg>
