<?xml version="1.0" encoding="utf-8"?>
<!-- Generator: Adobe Illustrator 24.0.3, SVG Export Plug-In . SVG Version: 6.00 Build 0)  -->
<svg version="1.1" xmlns="http://www.w3.org/2000/svg" xmlns:xlink="http://www.w3.org/1999/xlink" x="0px" y="0px"
	 viewBox="0 0 233.83 85.43" style="enable-background:new 0 0 233.83 85.43;" xml:space="preserve">
<style type="text/css">
	.st0{fill:none;stroke:#E7004C;stroke-miterlimit:10;}
	.st1{fill:#FFFFFF;}
	.st2{fill:url(#SVGID_1_);}
	.st3{fill:#E7004C;}
	.st4{fill:#42050E;}
	.st5{fill-rule:evenodd;clip-rule:evenodd;fill:#FFFFFF;}
	.st6{fill:none;stroke:#00B2E3;stroke-miterlimit:10;}
	.st7{fill:url(#SVGID_2_);}
	.st8{fill:#FCFCFC;}
	.st9{fill:url(#SVGID_3_);}
	.st10{fill:url(#SVGID_4_);}
	.st11{opacity:0.8;fill:#E7004C;}
	.st12{opacity:0.7;fill:#E7004C;}
	.st13{opacity:0.7;}
	.st14{fill:#00B2E3;}
	.st15{opacity:0.8;fill:#00B2E3;}
	.st16{opacity:0.7;fill:#00B2E3;}
	.st17{fill:#BBBBBB;}
	.st18{opacity:0.8;fill:#BBBBBB;}
	.st19{opacity:0.7;fill:#BBBBBB;}
	.st20{fill:url(#SVGID_5_);}
	.st21{fill:url(#SVGID_6_);}
	.st22{fill:none;stroke:#E7004C;stroke-width:2;stroke-miterlimit:10;}
	.st23{fill:url(#SVGID_7_);}
	.st24{fill:url(#SVGID_8_);}
	.st25{fill:url(#SVGID_9_);}
	.st26{fill:none;stroke:#FFFFFF;stroke-miterlimit:10;}
	.st27{fill-rule:evenodd;clip-rule:evenodd;fill:#E7004C;}
	.st28{fill:none;stroke:#000000;stroke-miterlimit:10;}
	.st29{fill:#38A8E0;}
	.st30{clip-path:url(#SVGID_11_);fill:#00B2E3;}
	.st31{fill:none;stroke:#E7004C;stroke-width:3;stroke-miterlimit:10;}
	.st32{clip-path:url(#SVGID_13_);}
	.st33{fill:none;stroke:#FFFFFF;stroke-width:2;stroke-miterlimit:10;}
	.st34{fill:none;stroke:#FFFFFF;stroke-width:3;stroke-miterlimit:10;}
	.st35{clip-path:url(#SVGID_15_);}
	.st36{fill:url(#SVGID_16_);}
	.st37{fill:none;stroke:#FFFFFF;stroke-width:0.5;stroke-miterlimit:10;}
	.st38{clip-path:url(#SVGID_18_);fill:#00B2E3;}
	.st39{clip-path:url(#SVGID_20_);}
	.st40{clip-path:url(#SVGID_22_);}
	.st41{fill:url(#SVGID_23_);}
	.st42{clip-path:url(#SVGID_25_);}
	.st43{fill:url(#SVGID_26_);}
	.st44{fill:url(#SVGID_27_);}
	.st45{fill:url(#SVGID_28_);}
	.st46{fill:url(#SVGID_29_);}
	.st47{clip-path:url(#SVGID_31_);fill:#00B2E3;}
	.st48{clip-path:url(#SVGID_33_);}
	.st49{clip-path:url(#SVGID_35_);}
	.st50{fill:url(#SVGID_36_);}
	.st51{clip-path:url(#SVGID_38_);}
	.st52{clip-path:url(#SVGID_40_);}
	.st53{fill:#280210;}
	.st54{opacity:0.5;}
	.st55{opacity:0.6;}
	.st56{fill:url(#SVGID_41_);}
	.st57{fill:url(#SVGID_42_);}
	.st58{fill:url(#SVGID_43_);}
	.st59{fill:url(#SVGID_44_);}
	.st60{opacity:0.8;}
	.st61{opacity:0.9;}
	.st62{fill:url(#SVGID_45_);}
	.st63{clip-path:url(#SVGID_47_);}
	.st64{clip-path:url(#SVGID_49_);}
	.st65{clip-path:url(#SVGID_51_);fill:#00B2E3;}
	.st66{clip-path:url(#SVGID_53_);}
	.st67{clip-path:url(#SVGID_55_);}
	.st68{fill:none;stroke:#FFFFFF;stroke-width:5;stroke-miterlimit:10;}
	.st69{clip-path:url(#SVGID_57_);fill:#00B2E3;}
	.st70{clip-path:url(#SVGID_59_);}
	.st71{clip-path:url(#SVGID_61_);}
	.st72{clip-path:url(#SVGID_63_);fill:#00B2E3;}
	.st73{clip-path:url(#SVGID_65_);}
	.st74{fill:#5B0323;}
	.st75{fill:url(#SVGID_66_);}
	.st76{fill:url(#SVGID_67_);}
	.st77{fill:url(#SVGID_68_);}
	.st78{clip-path:url(#SVGID_70_);fill:#00B2E3;}
	.st79{clip-path:url(#SVGID_72_);}
	.st80{fill-rule:evenodd;clip-rule:evenodd;fill:#00B2E3;}
	.st81{clip-path:url(#SVGID_74_);}
	.st82{clip-path:url(#SVGID_76_);}
	.st83{opacity:0.3;fill:#6B0303;}
	.st84{opacity:0.3;}
	.st85{fill-rule:evenodd;clip-rule:evenodd;fill:#6B0303;}
	.st86{fill:#6B0303;}
	.st87{clip-path:url(#SVGID_78_);}
	.st88{clip-path:url(#SVGID_82_);}
	.st89{fill:none;stroke:#5B0323;stroke-miterlimit:10;}
	.st90{clip-path:url(#SVGID_85_);}
	.st91{clip-path:url(#SVGID_87_);fill:#00B2E3;}
	.st92{clip-path:url(#SVGID_89_);}
	.st93{clip-path:url(#SVGID_91_);}
	.st94{fill:#E5E5E5;}
	.st95{clip-path:url(#SVGID_93_);}
	.st96{fill:#020202;}
	.st97{fill:#070101;}
	.st98{fill:none;stroke:#068FFF;stroke-width:5;stroke-miterlimit:10;}
</style>
<g id="Capa_2">
	<g>
		<g>
			<g>
				<path class="st1" d="M106.44,84.71c-1.75,0-3.27-0.3-4.52-0.89c-1.26-0.59-2.3-1.4-3.12-2.4c-0.81-1-1.41-2.17-1.78-3.48
					c-0.37-1.3-0.55-2.69-0.55-4.14V62.49h6.6v11.33c0,0.67,0.07,1.33,0.2,1.95c0.13,0.61,0.34,1.14,0.61,1.59
					c0.27,0.44,0.61,0.79,1.03,1.05c0.82,0.5,2.23,0.51,3.07-0.01c0.43-0.27,0.78-0.62,1.05-1.06c0.28-0.45,0.48-0.98,0.61-1.58
					c0.13-0.61,0.2-1.26,0.2-1.93V62.49h6.6v11.33c0,1.51-0.2,2.94-0.58,4.26c-0.39,1.33-1.01,2.51-1.84,3.48
					c-0.83,0.98-1.89,1.76-3.15,2.32C109.62,84.43,108.13,84.71,106.44,84.71z M97.22,63.24v10.58c0,1.38,0.18,2.7,0.53,3.93
					c0.34,1.22,0.9,2.3,1.64,3.21c0.74,0.91,1.7,1.65,2.85,2.19c1.15,0.54,2.57,0.82,4.21,0.82c1.58,0,2.97-0.26,4.12-0.78
					c1.15-0.51,2.12-1.23,2.88-2.12c0.76-0.9,1.33-1.98,1.7-3.21c0.37-1.25,0.55-2.61,0.55-4.05V63.24h-5.1v10.58
					c0,0.72-0.07,1.43-0.22,2.09c-0.15,0.68-0.39,1.29-0.71,1.81c-0.33,0.54-0.76,0.98-1.29,1.31c-0.54,0.34-1.19,0.51-1.94,0.51
					c-0.75,0-1.39-0.17-1.92-0.49c-0.52-0.32-0.95-0.75-1.28-1.29c-0.32-0.52-0.56-1.14-0.71-1.83c-0.15-0.67-0.22-1.38-0.22-2.1
					V63.24H97.22z"/>
			</g>
			<g>
				<path class="st1" d="M128.76,84.8c-0.8,0-1.62-0.06-2.45-0.18c-0.84-0.12-1.68-0.3-2.49-0.52c-0.81-0.22-1.62-0.49-2.38-0.79
					c-0.77-0.31-1.48-0.66-2.14-1.05l-0.3-0.18l2.86-5.81l0.35,0.22c0.69,0.43,1.41,0.82,2.14,1.14c0.62,0.29,1.34,0.56,2.13,0.79
					c0.77,0.23,1.57,0.34,2.37,0.34c0.73,0,1.02-0.12,1.12-0.19c0.15-0.1,0.21-0.21,0.21-0.37c0-0.19-0.08-0.34-0.24-0.48
					c-0.21-0.18-0.53-0.34-0.92-0.49c-0.43-0.16-0.93-0.31-1.49-0.47c-0.58-0.16-1.19-0.35-1.84-0.58
					c-0.96-0.33-1.79-0.68-2.49-1.06c-0.71-0.39-1.31-0.84-1.77-1.33c-0.47-0.5-0.83-1.09-1.06-1.74c-0.22-0.64-0.34-1.38-0.34-2.19
					c0-1.23,0.23-2.33,0.68-3.28c0.45-0.95,1.08-1.75,1.86-2.38c0.77-0.63,1.67-1.11,2.65-1.43c1.7-0.56,3.69-0.62,5.49-0.25
					c0.75,0.15,1.49,0.35,2.19,0.58c0.7,0.23,1.36,0.49,1.97,0.76c0.6,0.27,1.15,0.53,1.63,0.77l0.34,0.17l-2.88,5.52l-0.34-0.21
					c-0.58-0.35-1.19-0.66-1.82-0.94c-0.52-0.23-1.12-0.46-1.78-0.66c-1.12-0.35-2.34-0.4-2.93-0.1c-0.13,0.07-0.26,0.18-0.26,0.48
					c0,0.18,0.05,0.32,0.16,0.43c0.15,0.15,0.37,0.29,0.67,0.42c0.33,0.14,0.73,0.28,1.2,0.42c0.49,0.14,1.05,0.31,1.68,0.51
					c0.99,0.3,1.9,0.64,2.7,1.01c0.82,0.37,1.53,0.82,2.12,1.33c0.6,0.53,1.07,1.17,1.39,1.92c0.32,0.74,0.48,1.65,0.48,2.7
					c0,1.34-0.25,2.48-0.75,3.4c-0.5,0.92-1.16,1.67-1.98,2.22c-0.8,0.54-1.72,0.94-2.73,1.18C130.78,84.69,129.77,84.8,128.76,84.8
					z M119.98,81.79c0.54,0.3,1.12,0.58,1.73,0.82c0.74,0.3,1.51,0.55,2.3,0.77c0.79,0.21,1.59,0.38,2.4,0.5
					c1.79,0.26,3.49,0.24,5.18-0.16c0.92-0.22,1.76-0.58,2.49-1.07c0.72-0.48,1.3-1.14,1.74-1.95c0.44-0.81,0.66-1.83,0.66-3.05
					c0-0.94-0.14-1.75-0.42-2.4c-0.28-0.64-0.68-1.2-1.19-1.65c-0.53-0.46-1.18-0.87-1.93-1.22c-0.77-0.35-1.64-0.68-2.61-0.97
					c-0.62-0.2-1.17-0.37-1.66-0.51c-0.5-0.14-0.93-0.29-1.29-0.45c-0.39-0.17-0.68-0.36-0.89-0.57c-0.25-0.25-0.38-0.58-0.38-0.96
					c0-0.52,0.23-0.92,0.67-1.14c0.79-0.41,2.18-0.36,3.49,0.05c0.68,0.21,1.31,0.45,1.85,0.69c0.53,0.23,1.05,0.5,1.56,0.78
					l2.16-4.14c-0.39-0.19-0.81-0.38-1.26-0.59c-0.59-0.26-1.23-0.51-1.9-0.74c-0.67-0.22-1.38-0.41-2.1-0.56
					c-1.68-0.34-3.53-0.29-5.1,0.23c-0.9,0.29-1.71,0.73-2.42,1.3c-0.69,0.56-1.25,1.28-1.65,2.12s-0.61,1.84-0.61,2.96
					c0,0.73,0.1,1.39,0.29,1.95c0.19,0.55,0.49,1.04,0.89,1.47c0.41,0.44,0.94,0.84,1.59,1.19c0.66,0.36,1.45,0.7,2.37,1.01
					c0.63,0.22,1.23,0.41,1.79,0.56c0.58,0.16,1.09,0.33,1.54,0.49c0.49,0.18,0.86,0.38,1.15,0.62c0.33,0.28,0.51,0.64,0.51,1.05
					c0,0.41-0.19,0.75-0.54,0.99c-0.32,0.21-0.82,0.32-1.55,0.32c-0.87,0-1.74-0.13-2.58-0.38c-0.83-0.25-1.58-0.52-2.23-0.83
					c-0.64-0.29-1.27-0.61-1.88-0.98L119.98,81.79z"/>
			</g>
		</g>
		<g>
			<g>
				<path class="st4" d="M8.8,28.78v13.96H1v-28.4h6.08l11.4,14.44V14.33h7.8v28.4h-6.2L8.8,28.78z"/>
			</g>
			<g>
				<path class="st4" d="M45.96,42.97c-2.16,0-4.12-0.41-5.88-1.24c-1.76-0.83-3.27-1.91-4.52-3.26c-1.25-1.35-2.23-2.89-2.92-4.62
					c-0.69-1.73-1.04-3.52-1.04-5.36c0-1.87,0.36-3.67,1.08-5.4c0.72-1.73,1.73-3.26,3.02-4.58c1.29-1.32,2.83-2.37,4.6-3.16
					c1.77-0.79,3.71-1.18,5.82-1.18c2.16,0,4.12,0.41,5.88,1.24c1.76,0.83,3.27,1.92,4.52,3.28c1.25,1.36,2.22,2.91,2.9,4.64
					c0.68,1.73,1.02,3.51,1.02,5.32c0,1.87-0.36,3.66-1.08,5.38c-0.72,1.72-1.72,3.24-3,4.56c-1.28,1.32-2.81,2.38-4.58,3.18
					C50.01,42.57,48.07,42.97,45.96,42.97z M39.52,28.57c0,0.96,0.13,1.89,0.4,2.78c0.27,0.89,0.67,1.69,1.2,2.38
					c0.53,0.69,1.21,1.25,2.02,1.68c0.81,0.43,1.78,0.64,2.9,0.64c1.12,0,2.09-0.22,2.92-0.66c0.83-0.44,1.5-1.01,2.02-1.72
					c0.52-0.71,0.91-1.51,1.16-2.42c0.25-0.91,0.38-1.83,0.38-2.76c0-0.96-0.13-1.88-0.4-2.78c-0.27-0.89-0.67-1.68-1.22-2.36
					c-0.55-0.68-1.23-1.23-2.04-1.64C48.05,21.3,47.09,21.1,46,21.1c-1.12,0-2.09,0.21-2.9,0.64c-0.81,0.43-1.49,0.99-2.02,1.7
					c-0.53,0.71-0.93,1.51-1.18,2.4C39.65,26.73,39.52,27.64,39.52,28.57z"/>
			</g>
			<g>
				<path class="st4" d="M82.72,23.62c-0.8-0.48-1.63-0.91-2.48-1.28c-0.72-0.32-1.53-0.62-2.42-0.9c-0.89-0.28-1.77-0.42-2.62-0.42
					c-0.69,0-1.25,0.11-1.66,0.32c-0.41,0.21-0.62,0.57-0.62,1.08c0,0.38,0.12,0.68,0.36,0.92c0.24,0.24,0.59,0.46,1.04,0.66
					c0.45,0.2,1.01,0.39,1.66,0.58c0.65,0.19,1.39,0.41,2.22,0.68c1.31,0.4,2.49,0.84,3.54,1.32c1.05,0.48,1.95,1.05,2.7,1.7
					c0.75,0.65,1.32,1.45,1.72,2.38c0.4,0.93,0.6,2.07,0.6,3.4c0,1.71-0.31,3.14-0.94,4.3c-0.63,1.16-1.45,2.09-2.48,2.78
					c-1.03,0.69-2.19,1.19-3.48,1.5s-2.59,0.46-3.9,0.46c-1.04,0-2.11-0.08-3.2-0.24c-1.09-0.16-2.18-0.39-3.26-0.68
					c-1.08-0.29-2.12-0.64-3.12-1.04s-1.93-0.85-2.78-1.36l3.36-6.84c0.93,0.59,1.91,1.11,2.92,1.56c0.85,0.4,1.82,0.76,2.9,1.08
					c1.08,0.32,2.18,0.48,3.3,0.48c0.85,0,1.45-0.11,1.78-0.34s0.5-0.53,0.5-0.9c0-0.4-0.17-0.74-0.5-1.02s-0.79-0.53-1.38-0.74
					c-0.59-0.21-1.26-0.43-2.02-0.64c-0.76-0.21-1.57-0.46-2.42-0.76c-1.25-0.43-2.33-0.88-3.24-1.38
					c-0.91-0.49-1.65-1.05-2.24-1.68c-0.59-0.63-1.02-1.34-1.3-2.14c-0.28-0.8-0.42-1.72-0.42-2.76c0-1.57,0.29-2.96,0.86-4.16
					c0.57-1.2,1.35-2.2,2.34-3c0.99-0.8,2.11-1.41,3.38-1.82s2.61-0.62,4.02-0.62c1.04,0,2.05,0.1,3.04,0.3
					c0.99,0.2,1.94,0.45,2.86,0.76c0.92,0.31,1.78,0.64,2.58,1c0.8,0.36,1.52,0.7,2.16,1.02L82.72,23.62z"/>
			</g>
			<g>
				<path class="st4" d="M105,42.97c-2.16,0-4.12-0.41-5.88-1.24c-1.76-0.83-3.27-1.91-4.52-3.26c-1.25-1.35-2.23-2.89-2.92-4.62
					c-0.69-1.73-1.04-3.52-1.04-5.36c0-1.87,0.36-3.67,1.08-5.4c0.72-1.73,1.73-3.26,3.02-4.58c1.29-1.32,2.83-2.37,4.6-3.16
					c1.77-0.79,3.71-1.18,5.82-1.18c2.16,0,4.12,0.41,5.88,1.24c1.76,0.83,3.27,1.92,4.52,3.28c1.25,1.36,2.22,2.91,2.9,4.64
					c0.68,1.73,1.02,3.51,1.02,5.32c0,1.87-0.36,3.66-1.08,5.38c-0.72,1.72-1.72,3.24-3,4.56c-1.28,1.32-2.81,2.38-4.58,3.18
					C109.05,42.57,107.11,42.97,105,42.97z M98.56,28.57c0,0.96,0.13,1.89,0.4,2.78c0.27,0.89,0.67,1.69,1.2,2.38
					c0.53,0.69,1.21,1.25,2.02,1.68c0.81,0.43,1.78,0.64,2.9,0.64c1.12,0,2.09-0.22,2.92-0.66c0.83-0.44,1.5-1.01,2.02-1.72
					c0.52-0.71,0.91-1.51,1.16-2.42c0.25-0.91,0.38-1.83,0.38-2.76c0-0.96-0.13-1.88-0.4-2.78c-0.27-0.89-0.67-1.68-1.22-2.36
					c-0.55-0.68-1.23-1.23-2.04-1.64c-0.81-0.41-1.77-0.62-2.86-0.62c-1.12,0-2.09,0.21-2.9,0.64c-0.81,0.43-1.49,0.99-2.02,1.7
					c-0.53,0.71-0.93,1.51-1.18,2.4C98.69,26.73,98.56,27.64,98.56,28.57z"/>
			</g>
			<g>
				<path class="st4" d="M146.48,21.13h-8.16v21.6h-7.8v-21.6h-8.2v-6.8h24.16V21.13z"/>
			</g>
			<g>
				<path class="st4" d="M151.32,42.73v-28.4h13.04c1.39,0,2.67,0.29,3.84,0.86s2.18,1.32,3.02,2.24c0.84,0.92,1.5,1.97,1.98,3.16
					c0.48,1.19,0.72,2.38,0.72,3.58c0,1.65-0.36,3.19-1.08,4.62c-0.72,1.43-1.72,2.59-3,3.5l6,10.44h-8.8l-5-8.72h-2.92v8.72H151.32
					z M159.12,27.21h4.92c0.48,0,0.93-0.27,1.34-0.8c0.41-0.53,0.62-1.28,0.62-2.24c0-0.99-0.24-1.74-0.72-2.26
					c-0.48-0.52-0.96-0.78-1.44-0.78h-4.72V27.21z"/>
			</g>
			<g>
				<path class="st4" d="M192.76,42.97c-2.16,0-4.12-0.41-5.88-1.24c-1.76-0.83-3.27-1.91-4.52-3.26c-1.25-1.35-2.23-2.89-2.92-4.62
					c-0.69-1.73-1.04-3.52-1.04-5.36c0-1.87,0.36-3.67,1.08-5.4c0.72-1.73,1.73-3.26,3.02-4.58c1.29-1.32,2.83-2.37,4.6-3.16
					c1.77-0.79,3.71-1.18,5.82-1.18c2.16,0,4.12,0.41,5.88,1.24c1.76,0.83,3.27,1.92,4.52,3.28c1.25,1.36,2.22,2.91,2.9,4.64
					c0.68,1.73,1.02,3.51,1.02,5.32c0,1.87-0.36,3.66-1.08,5.38c-0.72,1.72-1.72,3.24-3,4.56c-1.28,1.32-2.81,2.38-4.58,3.18
					C196.81,42.57,194.87,42.97,192.76,42.97z M186.32,28.57c0,0.96,0.13,1.89,0.4,2.78c0.27,0.89,0.67,1.69,1.2,2.38
					c0.53,0.69,1.21,1.25,2.02,1.68c0.81,0.43,1.78,0.64,2.9,0.64c1.12,0,2.09-0.22,2.92-0.66c0.83-0.44,1.5-1.01,2.02-1.72
					c0.52-0.71,0.91-1.51,1.16-2.42c0.25-0.91,0.38-1.83,0.38-2.76c0-0.96-0.13-1.88-0.4-2.78c-0.27-0.89-0.67-1.68-1.22-2.36
					c-0.55-0.68-1.23-1.23-2.04-1.64c-0.81-0.41-1.77-0.62-2.86-0.62c-1.12,0-2.09,0.21-2.9,0.64c-0.81,0.43-1.49,0.99-2.02,1.7
					c-0.53,0.71-0.93,1.51-1.18,2.4C186.45,26.73,186.32,27.64,186.32,28.57z"/>
			</g>
			<g>
				<path class="st4" d="M229.52,23.62c-0.8-0.48-1.63-0.91-2.48-1.28c-0.72-0.32-1.53-0.62-2.42-0.9
					c-0.89-0.28-1.77-0.42-2.62-0.42c-0.69,0-1.25,0.11-1.66,0.32c-0.41,0.21-0.62,0.57-0.62,1.08c0,0.38,0.12,0.68,0.36,0.92
					c0.24,0.24,0.59,0.46,1.04,0.66c0.45,0.2,1.01,0.39,1.66,0.58c0.65,0.19,1.39,0.41,2.22,0.68c1.31,0.4,2.49,0.84,3.54,1.32
					c1.05,0.48,1.95,1.05,2.7,1.7c0.75,0.65,1.32,1.45,1.72,2.38c0.4,0.93,0.6,2.07,0.6,3.4c0,1.71-0.31,3.14-0.94,4.3
					c-0.63,1.16-1.45,2.09-2.48,2.78c-1.03,0.69-2.19,1.19-3.48,1.5s-2.59,0.46-3.9,0.46c-1.04,0-2.11-0.08-3.2-0.24
					c-1.09-0.16-2.18-0.39-3.26-0.68c-1.08-0.29-2.12-0.64-3.12-1.04s-1.93-0.85-2.78-1.36l3.36-6.84c0.93,0.59,1.91,1.11,2.92,1.56
					c0.85,0.4,1.82,0.76,2.9,1.08c1.08,0.32,2.18,0.48,3.3,0.48c0.85,0,1.45-0.11,1.78-0.34s0.5-0.53,0.5-0.9
					c0-0.4-0.17-0.74-0.5-1.02s-0.79-0.53-1.38-0.74c-0.59-0.21-1.26-0.43-2.02-0.64c-0.76-0.21-1.57-0.46-2.42-0.76
					c-1.25-0.43-2.33-0.88-3.24-1.38c-0.91-0.49-1.65-1.05-2.24-1.68c-0.59-0.63-1.02-1.34-1.3-2.14c-0.28-0.8-0.42-1.72-0.42-2.76
					c0-1.57,0.29-2.96,0.86-4.16c0.57-1.2,1.35-2.2,2.34-3c0.99-0.8,2.11-1.41,3.38-1.82s2.61-0.62,4.02-0.62
					c1.04,0,2.05,0.1,3.04,0.3c0.99,0.2,1.94,0.45,2.86,0.76c0.92,0.31,1.78,0.64,2.58,1c0.8,0.36,1.52,0.7,2.16,1.02L229.52,23.62z
					"/>
			</g>
		</g>
		<g>
			<g>
				<path class="st1" d="M7.8,15.45v13.96H0V1.01h6.08l11.4,14.44V1.01h7.8v28.4h-6.2L7.8,15.45z"/>
			</g>
			<g>
				<path class="st1" d="M44.96,29.65c-2.16,0-4.12-0.41-5.88-1.24c-1.76-0.83-3.27-1.91-4.52-3.26c-1.25-1.35-2.23-2.89-2.92-4.62
					c-0.69-1.73-1.04-3.52-1.04-5.36c0-1.87,0.36-3.67,1.08-5.4c0.72-1.73,1.73-3.26,3.02-4.58c1.29-1.32,2.83-2.37,4.6-3.16
					c1.77-0.79,3.71-1.18,5.82-1.18c2.16,0,4.12,0.41,5.88,1.24c1.76,0.83,3.27,1.92,4.52,3.28c1.25,1.36,2.22,2.91,2.9,4.64
					c0.68,1.73,1.02,3.51,1.02,5.32c0,1.87-0.36,3.66-1.08,5.38c-0.72,1.72-1.72,3.24-3,4.56c-1.28,1.32-2.81,2.38-4.58,3.18
					C49.01,29.25,47.07,29.65,44.96,29.65z M38.52,15.25c0,0.96,0.13,1.89,0.4,2.78c0.27,0.89,0.67,1.69,1.2,2.38
					c0.53,0.69,1.21,1.25,2.02,1.68c0.81,0.43,1.78,0.64,2.9,0.64c1.12,0,2.09-0.22,2.92-0.66c0.83-0.44,1.5-1.01,2.02-1.72
					c0.52-0.71,0.91-1.51,1.16-2.42c0.25-0.91,0.38-1.83,0.38-2.76c0-0.96-0.13-1.88-0.4-2.78c-0.27-0.89-0.67-1.68-1.22-2.36
					c-0.55-0.68-1.23-1.23-2.04-1.64C47.05,7.97,46.09,7.77,45,7.77c-1.12,0-2.09,0.21-2.9,0.64c-0.81,0.43-1.49,0.99-2.02,1.7
					c-0.53,0.71-0.93,1.51-1.18,2.4C38.65,13.4,38.52,14.32,38.52,15.25z"/>
			</g>
			<g>
				<path class="st1" d="M81.72,10.29c-0.8-0.48-1.63-0.91-2.48-1.28c-0.72-0.32-1.53-0.62-2.42-0.9c-0.89-0.28-1.77-0.42-2.62-0.42
					c-0.69,0-1.25,0.11-1.66,0.32c-0.41,0.21-0.62,0.57-0.62,1.08c0,0.38,0.12,0.68,0.36,0.92c0.24,0.24,0.59,0.46,1.04,0.66
					c0.45,0.2,1.01,0.39,1.66,0.58c0.65,0.19,1.39,0.41,2.22,0.68c1.31,0.4,2.49,0.84,3.54,1.32c1.05,0.48,1.95,1.05,2.7,1.7
					c0.75,0.65,1.32,1.45,1.72,2.38c0.4,0.93,0.6,2.07,0.6,3.4c0,1.71-0.31,3.14-0.94,4.3c-0.63,1.16-1.45,2.09-2.48,2.78
					c-1.03,0.69-2.19,1.19-3.48,1.5s-2.59,0.46-3.9,0.46c-1.04,0-2.11-0.08-3.2-0.24c-1.09-0.16-2.18-0.39-3.26-0.68
					c-1.08-0.29-2.12-0.64-3.12-1.04s-1.93-0.85-2.78-1.36l3.36-6.84c0.93,0.59,1.91,1.11,2.92,1.56c0.85,0.4,1.82,0.76,2.9,1.08
					c1.08,0.32,2.18,0.48,3.3,0.48c0.85,0,1.45-0.11,1.78-0.34s0.5-0.53,0.5-0.9c0-0.4-0.17-0.74-0.5-1.02s-0.79-0.53-1.38-0.74
					c-0.59-0.21-1.26-0.43-2.02-0.64c-0.76-0.21-1.57-0.46-2.42-0.76c-1.25-0.43-2.33-0.88-3.24-1.38
					c-0.91-0.49-1.65-1.05-2.24-1.68c-0.59-0.63-1.02-1.34-1.3-2.14c-0.28-0.8-0.42-1.72-0.42-2.76c0-1.57,0.29-2.96,0.86-4.16
					c0.57-1.2,1.35-2.2,2.34-3c0.99-0.8,2.11-1.41,3.38-1.82s2.61-0.62,4.02-0.62c1.04,0,2.05,0.1,3.04,0.3
					c0.99,0.2,1.94,0.45,2.86,0.76c0.92,0.31,1.78,0.64,2.58,1c0.8,0.36,1.52,0.7,2.16,1.02L81.72,10.29z"/>
			</g>
			<g>
				<path class="st1" d="M104,29.65c-2.16,0-4.12-0.41-5.88-1.24c-1.76-0.83-3.27-1.91-4.52-3.26c-1.25-1.35-2.23-2.89-2.92-4.62
					c-0.69-1.73-1.04-3.52-1.04-5.36c0-1.87,0.36-3.67,1.08-5.4c0.72-1.73,1.73-3.26,3.02-4.58c1.29-1.32,2.83-2.37,4.6-3.16
					c1.77-0.79,3.71-1.18,5.82-1.18c2.16,0,4.12,0.41,5.88,1.24c1.76,0.83,3.27,1.92,4.52,3.28c1.25,1.36,2.22,2.91,2.9,4.64
					c0.68,1.73,1.02,3.51,1.02,5.32c0,1.87-0.36,3.66-1.08,5.38c-0.72,1.72-1.72,3.24-3,4.56c-1.28,1.32-2.81,2.38-4.58,3.18
					C108.05,29.25,106.11,29.65,104,29.65z M97.56,15.25c0,0.96,0.13,1.89,0.4,2.78c0.27,0.89,0.67,1.69,1.2,2.38
					c0.53,0.69,1.21,1.25,2.02,1.68c0.81,0.43,1.78,0.64,2.9,0.64c1.12,0,2.09-0.22,2.92-0.66c0.83-0.44,1.5-1.01,2.02-1.72
					c0.52-0.71,0.91-1.51,1.16-2.42c0.25-0.91,0.38-1.83,0.38-2.76c0-0.96-0.13-1.88-0.4-2.78c-0.27-0.89-0.67-1.68-1.22-2.36
					c-0.55-0.68-1.23-1.23-2.04-1.64c-0.81-0.41-1.77-0.62-2.86-0.62c-1.12,0-2.09,0.21-2.9,0.64c-0.81,0.43-1.49,0.99-2.02,1.7
					c-0.53,0.71-0.93,1.51-1.18,2.4C97.69,13.4,97.56,14.32,97.56,15.25z"/>
			</g>
			<g>
				<path class="st1" d="M145.48,7.81h-8.16v21.6h-7.8V7.81h-8.2v-6.8h24.16V7.81z"/>
			</g>
			<g>
				<path class="st1" d="M150.32,29.41V1.01h13.04c1.39,0,2.67,0.29,3.84,0.86s2.18,1.32,3.02,2.24c0.84,0.92,1.5,1.97,1.98,3.16
					c0.48,1.19,0.72,2.38,0.72,3.58c0,1.65-0.36,3.19-1.08,4.62c-0.72,1.43-1.72,2.59-3,3.5l6,10.44h-8.8l-5-8.72h-2.92v8.72H150.32
					z M158.12,13.89h4.92c0.48,0,0.93-0.27,1.34-0.8c0.41-0.53,0.62-1.28,0.62-2.24c0-0.99-0.24-1.74-0.72-2.26
					c-0.48-0.52-0.96-0.78-1.44-0.78h-4.72V13.89z"/>
			</g>
			<g>
				<path class="st1" d="M191.76,29.65c-2.16,0-4.12-0.41-5.88-1.24c-1.76-0.83-3.27-1.91-4.52-3.26c-1.25-1.35-2.23-2.89-2.92-4.62
					c-0.69-1.73-1.04-3.52-1.04-5.36c0-1.87,0.36-3.67,1.08-5.4c0.72-1.73,1.73-3.26,3.02-4.58c1.29-1.32,2.83-2.37,4.6-3.16
					c1.77-0.79,3.71-1.18,5.82-1.18c2.16,0,4.12,0.41,5.88,1.24c1.76,0.83,3.27,1.92,4.52,3.28c1.25,1.36,2.22,2.91,2.9,4.64
					c0.68,1.73,1.02,3.51,1.02,5.32c0,1.87-0.36,3.66-1.08,5.38c-0.72,1.72-1.72,3.24-3,4.56c-1.28,1.32-2.81,2.38-4.58,3.18
					C195.81,29.25,193.87,29.65,191.76,29.65z M185.32,15.25c0,0.96,0.13,1.89,0.4,2.78c0.27,0.89,0.67,1.69,1.2,2.38
					c0.53,0.69,1.21,1.25,2.02,1.68c0.81,0.43,1.78,0.64,2.9,0.64c1.12,0,2.09-0.22,2.92-0.66c0.83-0.44,1.5-1.01,2.02-1.72
					c0.52-0.71,0.91-1.51,1.16-2.42c0.25-0.91,0.38-1.83,0.38-2.76c0-0.96-0.13-1.88-0.4-2.78c-0.27-0.89-0.67-1.68-1.22-2.36
					c-0.55-0.68-1.23-1.23-2.04-1.64c-0.81-0.41-1.77-0.62-2.86-0.62c-1.12,0-2.09,0.21-2.9,0.64c-0.81,0.43-1.49,0.99-2.02,1.7
					c-0.53,0.71-0.93,1.51-1.18,2.4C185.45,13.4,185.32,14.32,185.32,15.25z"/>
			</g>
			<g>
				<path class="st1" d="M228.52,10.29c-0.8-0.48-1.63-0.91-2.48-1.28c-0.72-0.32-1.53-0.62-2.42-0.9
					c-0.89-0.28-1.77-0.42-2.62-0.42c-0.69,0-1.25,0.11-1.66,0.32c-0.41,0.21-0.62,0.57-0.62,1.08c0,0.38,0.12,0.68,0.36,0.92
					c0.24,0.24,0.59,0.46,1.04,0.66c0.45,0.2,1.01,0.39,1.66,0.58c0.65,0.19,1.39,0.41,2.22,0.68c1.31,0.4,2.49,0.84,3.54,1.32
					c1.05,0.48,1.95,1.05,2.7,1.7c0.75,0.65,1.32,1.45,1.72,2.38c0.4,0.93,0.6,2.07,0.6,3.4c0,1.71-0.31,3.14-0.94,4.3
					c-0.63,1.16-1.45,2.09-2.48,2.78c-1.03,0.69-2.19,1.19-3.48,1.5s-2.59,0.46-3.9,0.46c-1.04,0-2.11-0.08-3.2-0.24
					c-1.09-0.16-2.18-0.39-3.26-0.68c-1.08-0.29-2.12-0.64-3.12-1.04s-1.93-0.85-2.78-1.36l3.36-6.84c0.93,0.59,1.91,1.11,2.92,1.56
					c0.85,0.4,1.82,0.76,2.9,1.08c1.08,0.32,2.18,0.48,3.3,0.48c0.85,0,1.45-0.11,1.78-0.34s0.5-0.53,0.5-0.9
					c0-0.4-0.17-0.74-0.5-1.02s-0.79-0.53-1.38-0.74c-0.59-0.21-1.26-0.43-2.02-0.64c-0.76-0.21-1.57-0.46-2.42-0.76
					c-1.25-0.43-2.33-0.88-3.24-1.38c-0.91-0.49-1.65-1.05-2.24-1.68c-0.59-0.63-1.02-1.34-1.3-2.14c-0.28-0.8-0.42-1.72-0.42-2.76
					c0-1.57,0.29-2.96,0.86-4.16c0.57-1.2,1.35-2.2,2.34-3c0.99-0.8,2.11-1.41,3.38-1.82s2.61-0.62,4.02-0.62
					c1.04,0,2.05,0.1,3.04,0.3c0.99,0.2,1.94,0.45,2.86,0.76c0.92,0.31,1.78,0.64,2.58,1c0.8,0.36,1.52,0.7,2.16,1.02L228.52,10.29z
					"/>
			</g>
		</g>
	</g>
</g>
<g id="Capa_1">
</g>
<g id="Capa_3">
</g>
<g id="Capa_4">
</g>
<g id="Capa_6">
</g>
<g id="Capa_5">
</g>
</svg>
