<?xml version="1.0" encoding="utf-8"?>
<!-- Generator: Adobe Illustrator 24.0.3, SVG Export Plug-In . SVG Version: 6.00 Build 0)  -->
<svg version="1.1" xmlns="http://www.w3.org/2000/svg" xmlns:xlink="http://www.w3.org/1999/xlink" x="0px" y="0px"
	 viewBox="0 0 266.44 79.28" style="enable-background:new 0 0 266.44 79.28;" xml:space="preserve">
<style type="text/css">
	.st0{fill:none;stroke:#E7004C;stroke-miterlimit:10;}
	.st1{fill:#FFFFFF;}
	.st2{fill:url(#SVGID_1_);}
	.st3{fill:#E7004C;}
	.st4{fill:#42050E;}
	.st5{fill:none;stroke:#FFFFFF;stroke-width:0.75;stroke-miterlimit:10;}
	.st6{fill-rule:evenodd;clip-rule:evenodd;fill:#FFFFFF;}
	.st7{fill:none;stroke:#00B2E3;stroke-miterlimit:10;}
	.st8{fill:url(#SVGID_2_);}
	.st9{fill:#FCFCFC;}
	.st10{fill:url(#SVGID_3_);}
	.st11{fill:url(#SVGID_4_);}
	.st12{opacity:0.8;fill:#E7004C;}
	.st13{opacity:0.7;fill:#E7004C;}
	.st14{opacity:0.7;}
	.st15{fill:#00B2E3;}
	.st16{opacity:0.8;fill:#00B2E3;}
	.st17{opacity:0.7;fill:#00B2E3;}
	.st18{fill:#BBBBBB;}
	.st19{opacity:0.8;fill:#BBBBBB;}
	.st20{opacity:0.7;fill:#BBBBBB;}
	.st21{fill:url(#SVGID_5_);}
	.st22{fill:url(#SVGID_6_);}
	.st23{fill:none;stroke:#E7004C;stroke-width:2;stroke-miterlimit:10;}
	.st24{fill:url(#SVGID_7_);}
	.st25{fill:url(#SVGID_8_);}
	.st26{fill:url(#SVGID_9_);}
	.st27{fill:none;stroke:#FFFFFF;stroke-miterlimit:10;}
	.st28{fill-rule:evenodd;clip-rule:evenodd;fill:#E7004C;}
	.st29{fill:none;stroke:#000000;stroke-miterlimit:10;}
	.st30{fill:#38A8E0;}
	.st31{clip-path:url(#SVGID_11_);fill:#00B2E3;}
	.st32{fill:none;stroke:#E7004C;stroke-width:3;stroke-miterlimit:10;}
	.st33{clip-path:url(#SVGID_13_);}
	.st34{fill:none;stroke:#FFFFFF;stroke-width:2;stroke-miterlimit:10;}
	.st35{fill:none;stroke:#FFFFFF;stroke-width:3;stroke-miterlimit:10;}
	.st36{clip-path:url(#SVGID_15_);}
	.st37{fill:url(#SVGID_16_);}
	.st38{fill:none;stroke:#FFFFFF;stroke-width:0.5;stroke-miterlimit:10;}
	.st39{clip-path:url(#SVGID_18_);fill:#00B2E3;}
	.st40{clip-path:url(#SVGID_20_);}
	.st41{clip-path:url(#SVGID_22_);}
	.st42{fill:url(#SVGID_23_);}
	.st43{clip-path:url(#SVGID_25_);}
	.st44{fill:url(#SVGID_26_);}
	.st45{fill:url(#SVGID_27_);}
	.st46{fill:url(#SVGID_28_);}
	.st47{fill:url(#SVGID_29_);}
	.st48{clip-path:url(#SVGID_31_);fill:#00B2E3;}
	.st49{clip-path:url(#SVGID_33_);}
	.st50{clip-path:url(#SVGID_35_);}
	.st51{fill:url(#SVGID_36_);}
	.st52{clip-path:url(#SVGID_38_);}
	.st53{clip-path:url(#SVGID_40_);}
	.st54{fill:#280210;}
	.st55{opacity:0.5;}
	.st56{opacity:0.6;}
	.st57{fill:url(#SVGID_41_);}
	.st58{fill:url(#SVGID_42_);}
	.st59{fill:url(#SVGID_43_);}
	.st60{fill:url(#SVGID_44_);}
	.st61{opacity:0.8;}
	.st62{opacity:0.9;}
	.st63{fill:url(#SVGID_45_);}
	.st64{clip-path:url(#SVGID_47_);}
	.st65{clip-path:url(#SVGID_49_);}
	.st66{fill:url(#SVGID_50_);}
	.st67{clip-path:url(#SVGID_52_);}
	.st68{fill:url(#SVGID_53_);}
	.st69{clip-path:url(#SVGID_55_);}
	.st70{fill:url(#SVGID_56_);}
	.st71{clip-path:url(#SVGID_58_);fill:#00B2E3;}
	.st72{clip-path:url(#SVGID_60_);}
	.st73{clip-path:url(#SVGID_62_);}
	.st74{fill:none;stroke:#FFFFFF;stroke-width:5;stroke-miterlimit:10;}
	.st75{clip-path:url(#SVGID_64_);fill:#00B2E3;}
	.st76{clip-path:url(#SVGID_66_);}
	.st77{clip-path:url(#SVGID_68_);}
	.st78{clip-path:url(#SVGID_70_);fill:#00B2E3;}
	.st79{clip-path:url(#SVGID_72_);}
	.st80{fill:#5B0323;}
	.st81{fill:url(#SVGID_73_);}
	.st82{fill:url(#SVGID_74_);}
	.st83{fill:url(#SVGID_75_);}
	.st84{clip-path:url(#SVGID_77_);fill:#00B2E3;}
	.st85{clip-path:url(#SVGID_80_);}
	.st86{fill:none;stroke:#00B2E3;stroke-width:2;stroke-miterlimit:10;}
	.st87{fill-rule:evenodd;clip-rule:evenodd;fill:#00B2E3;}
	.st88{clip-path:url(#SVGID_84_);}
	.st89{fill:#E5E5E5;}
	.st90{clip-path:url(#SVGID_86_);}
	.st91{fill-rule:evenodd;clip-rule:evenodd;fill:none;stroke:#E7004C;stroke-width:3;stroke-miterlimit:10;}
	.st92{fill:#020202;}
	.st93{fill:none;stroke:#5B0323;stroke-miterlimit:10;}
	.st94{fill:#070101;}
	.st95{fill:none;stroke:#068FFF;stroke-width:5;stroke-miterlimit:10;}
</style>
<g id="Capa_2">
	<g>
		<g>
			<path class="st5" d="M43.26,79.01v-21.3h9.18c1.04,0,2,0.21,2.88,0.64c0.88,0.43,1.63,0.99,2.26,1.68
				c0.63,0.69,1.12,1.48,1.49,2.37c0.36,0.89,0.54,1.79,0.54,2.69c0,0.94-0.17,1.86-0.51,2.74c-0.34,0.89-0.81,1.68-1.42,2.37
				c-0.61,0.69-1.35,1.24-2.22,1.65c-0.87,0.41-1.83,0.62-2.86,0.62h-3.48v6.54H43.26z M49.11,67.37h3.09c0.36,0,0.69-0.16,1-0.49
				s0.47-0.93,0.47-1.79c0-0.88-0.18-1.48-0.54-1.8c-0.36-0.32-0.72-0.48-1.08-0.48h-2.94V67.37z"/>
			<path class="st5" d="M73.05,79.19c-1.62,0-3.09-0.31-4.41-0.93c-1.32-0.62-2.45-1.44-3.39-2.45c-0.94-1.01-1.67-2.16-2.19-3.46
				s-0.78-2.64-0.78-4.02c0-1.4,0.27-2.75,0.81-4.05c0.54-1.3,1.29-2.45,2.26-3.44s2.12-1.78,3.45-2.37
				c1.33-0.59,2.78-0.88,4.36-0.88c1.62,0,3.09,0.31,4.41,0.93s2.45,1.44,3.39,2.46c0.94,1.02,1.67,2.18,2.17,3.48
				c0.51,1.3,0.77,2.63,0.77,3.99c0,1.4-0.27,2.74-0.81,4.04c-0.54,1.29-1.29,2.43-2.25,3.42s-2.1,1.79-3.44,2.38
				S74.63,79.19,73.05,79.19z M68.22,68.39c0,0.72,0.1,1.42,0.3,2.09c0.2,0.67,0.5,1.27,0.9,1.79s0.9,0.94,1.52,1.26
				c0.61,0.32,1.33,0.48,2.18,0.48c0.84,0,1.57-0.17,2.19-0.5c0.62-0.33,1.12-0.76,1.51-1.29c0.39-0.53,0.68-1.13,0.87-1.82
				c0.19-0.68,0.29-1.37,0.29-2.07c0-0.72-0.1-1.42-0.3-2.09c-0.2-0.67-0.5-1.26-0.92-1.77s-0.92-0.92-1.53-1.23
				c-0.61-0.31-1.33-0.46-2.15-0.46c-0.84,0-1.56,0.16-2.17,0.48c-0.61,0.32-1.12,0.74-1.52,1.28c-0.4,0.53-0.7,1.13-0.89,1.8
				S68.22,67.69,68.22,68.39z"/>
			<path class="st5" d="M87.9,79.01v-21.3h9.78c1.04,0,2,0.21,2.88,0.64c0.88,0.43,1.63,0.99,2.26,1.68
				c0.63,0.69,1.12,1.48,1.49,2.37c0.36,0.89,0.54,1.79,0.54,2.69c0,1.24-0.27,2.39-0.81,3.46c-0.54,1.07-1.29,1.95-2.25,2.62
				l4.5,7.83h-6.6l-3.75-6.54h-2.19v6.54H87.9z M93.75,67.37h3.69c0.36,0,0.69-0.2,1-0.6c0.31-0.4,0.46-0.96,0.46-1.68
				c0-0.74-0.18-1.3-0.54-1.7c-0.36-0.39-0.72-0.59-1.08-0.59h-3.54V67.37z"/>
			<path class="st5" d="M125.94,62.81h-6.12v16.2h-5.85v-16.2h-6.15v-5.1h18.12V62.81z"/>
			<path class="st5" d="M129.57,79.01v-21.3h14.61v5.1h-8.76v3.54h7.14v4.74h-7.14v7.92H129.57z"/>
			<path class="st5" d="M157.29,79.19c-1.62,0-3.09-0.31-4.41-0.93c-1.32-0.62-2.45-1.44-3.39-2.45c-0.94-1.01-1.67-2.16-2.19-3.46
				s-0.78-2.64-0.78-4.02c0-1.4,0.27-2.75,0.81-4.05c0.54-1.3,1.29-2.45,2.26-3.44s2.12-1.78,3.45-2.37
				c1.33-0.59,2.78-0.88,4.36-0.88c1.62,0,3.09,0.31,4.41,0.93s2.45,1.44,3.39,2.46c0.94,1.02,1.67,2.18,2.17,3.48
				c0.51,1.3,0.77,2.63,0.77,3.99c0,1.4-0.27,2.74-0.81,4.04c-0.54,1.29-1.29,2.43-2.25,3.42s-2.1,1.79-3.44,2.38
				S158.87,79.19,157.29,79.19z M152.46,68.39c0,0.72,0.1,1.42,0.3,2.09c0.2,0.67,0.5,1.27,0.9,1.79s0.9,0.94,1.52,1.26
				c0.61,0.32,1.33,0.48,2.18,0.48c0.84,0,1.57-0.17,2.19-0.5c0.62-0.33,1.12-0.76,1.51-1.29c0.39-0.53,0.68-1.13,0.87-1.82
				c0.19-0.68,0.29-1.37,0.29-2.07c0-0.72-0.1-1.42-0.3-2.09c-0.2-0.67-0.5-1.26-0.92-1.77s-0.92-0.92-1.53-1.23
				c-0.61-0.31-1.33-0.46-2.15-0.46c-0.84,0-1.56,0.16-2.17,0.48c-0.61,0.32-1.12,0.74-1.52,1.28c-0.4,0.53-0.7,1.13-0.89,1.8
				S152.46,67.69,152.46,68.39z"/>
			<path class="st5" d="M172.14,79.01v-21.3h5.85v16.2h9.66v5.1H172.14z"/>
			<path class="st5" d="M191.19,79.01v-21.3h5.85v21.3H191.19z"/>
			<path class="st5" d="M211.8,79.19c-1.62,0-3.09-0.31-4.41-0.93c-1.32-0.62-2.45-1.44-3.39-2.45c-0.94-1.01-1.67-2.16-2.19-3.46
				s-0.78-2.64-0.78-4.02c0-1.4,0.27-2.75,0.81-4.05c0.54-1.3,1.29-2.45,2.26-3.44s2.12-1.78,3.45-2.37
				c1.33-0.59,2.78-0.88,4.36-0.88c1.62,0,3.09,0.31,4.41,0.93s2.45,1.44,3.39,2.46c0.94,1.02,1.67,2.18,2.17,3.48
				c0.51,1.3,0.77,2.63,0.77,3.99c0,1.4-0.27,2.74-0.81,4.04c-0.54,1.29-1.29,2.43-2.25,3.42s-2.1,1.79-3.44,2.38
				S213.38,79.19,211.8,79.19z M206.97,68.39c0,0.72,0.1,1.42,0.3,2.09c0.2,0.67,0.5,1.27,0.9,1.79s0.9,0.94,1.52,1.26
				c0.61,0.32,1.33,0.48,2.18,0.48c0.84,0,1.57-0.17,2.19-0.5c0.62-0.33,1.12-0.76,1.51-1.29c0.39-0.53,0.68-1.13,0.87-1.82
				c0.19-0.68,0.29-1.37,0.29-2.07c0-0.72-0.1-1.42-0.3-2.09c-0.2-0.67-0.5-1.26-0.92-1.77s-0.92-0.92-1.53-1.23
				c-0.61-0.31-1.33-0.46-2.15-0.46c-0.84,0-1.56,0.16-2.17,0.48c-0.61,0.32-1.12,0.74-1.52,1.28c-0.4,0.53-0.7,1.13-0.89,1.8
				S206.97,67.69,206.97,68.39z"/>
		</g>
		<g>
			<path class="st4" d="M1.16,41.73v-28.4H13.4c1.39,0,2.67,0.29,3.84,0.86c1.17,0.57,2.18,1.32,3.02,2.24s1.5,1.97,1.98,3.16
				c0.48,1.19,0.72,2.38,0.72,3.58c0,1.25-0.23,2.47-0.68,3.66c-0.45,1.19-1.09,2.24-1.9,3.16c-0.81,0.92-1.8,1.65-2.96,2.2
				c-1.16,0.55-2.43,0.82-3.82,0.82H8.96v8.72H1.16z M8.96,26.21h4.12c0.48,0,0.93-0.22,1.34-0.66c0.41-0.44,0.62-1.23,0.62-2.38
				c0-1.17-0.24-1.97-0.72-2.4c-0.48-0.43-0.96-0.64-1.44-0.64H8.96V26.21z"/>
			<path class="st4" d="M40.88,41.97c-2.16,0-4.12-0.41-5.88-1.24c-1.76-0.83-3.27-1.91-4.52-3.26c-1.25-1.35-2.23-2.89-2.92-4.62
				c-0.69-1.73-1.04-3.52-1.04-5.36c0-1.87,0.36-3.67,1.08-5.4c0.72-1.73,1.73-3.26,3.02-4.58c1.29-1.32,2.83-2.37,4.6-3.16
				c1.77-0.79,3.71-1.18,5.82-1.18c2.16,0,4.12,0.41,5.88,1.24c1.76,0.83,3.27,1.92,4.52,3.28c1.25,1.36,2.22,2.91,2.9,4.64
				c0.68,1.73,1.02,3.51,1.02,5.32c0,1.87-0.36,3.66-1.08,5.38c-0.72,1.72-1.72,3.24-3,4.56c-1.28,1.32-2.81,2.38-4.58,3.18
				C44.93,41.57,42.99,41.97,40.88,41.97z M34.44,27.57c0,0.96,0.13,1.89,0.4,2.78c0.27,0.89,0.67,1.69,1.2,2.38
				c0.53,0.69,1.21,1.25,2.02,1.68c0.81,0.43,1.78,0.64,2.9,0.64c1.12,0,2.09-0.22,2.92-0.66c0.83-0.44,1.5-1.01,2.02-1.72
				c0.52-0.71,0.91-1.51,1.16-2.42c0.25-0.91,0.38-1.83,0.38-2.76c0-0.96-0.13-1.89-0.4-2.78c-0.27-0.89-0.67-1.68-1.22-2.36
				c-0.55-0.68-1.23-1.23-2.04-1.64c-0.81-0.41-1.77-0.62-2.86-0.62c-1.12,0-2.09,0.21-2.9,0.64s-1.49,0.99-2.02,1.7
				c-0.53,0.71-0.93,1.51-1.18,2.4C34.57,25.72,34.44,26.63,34.44,27.57z"/>
			<path class="st4" d="M60.68,41.73v-28.4h13.04c1.39,0,2.67,0.29,3.84,0.86c1.17,0.57,2.18,1.32,3.02,2.24
				c0.84,0.92,1.5,1.97,1.98,3.16c0.48,1.19,0.72,2.38,0.72,3.58c0,1.65-0.36,3.19-1.08,4.62c-0.72,1.43-1.72,2.59-3,3.5l6,10.44
				h-8.8l-5-8.72h-2.92v8.72H60.68z M68.48,26.21h4.92c0.48,0,0.93-0.27,1.34-0.8c0.41-0.53,0.62-1.28,0.62-2.24
				c0-0.99-0.24-1.74-0.72-2.26s-0.96-0.78-1.44-0.78h-4.72V26.21z"/>
			<path class="st4" d="M111.4,20.13h-8.16v21.6h-7.8v-21.6h-8.2v-6.8h24.16V20.13z"/>
			<path class="st4" d="M121,13.33h7.12l9.84,28.4h-7.92l-1.72-5.56h-7.56l-1.68,5.56h-7.96L121,13.33z M127.08,30.97l-2.52-8.8
				l-2.64,8.8H127.08z"/>
			<path class="st4" d="M142.32,41.73v-28.4h19.48v6.8h-11.68v4.72h9.52v6.32h-9.52v10.56H142.32z"/>
			<path class="st4" d="M179.28,41.97c-2.16,0-4.12-0.41-5.88-1.24c-1.76-0.83-3.27-1.91-4.52-3.26c-1.25-1.35-2.23-2.89-2.92-4.62
				c-0.69-1.73-1.04-3.52-1.04-5.36c0-1.87,0.36-3.67,1.08-5.4c0.72-1.73,1.73-3.26,3.02-4.58c1.29-1.32,2.83-2.37,4.6-3.16
				c1.77-0.79,3.71-1.18,5.82-1.18c2.16,0,4.12,0.41,5.88,1.24c1.76,0.83,3.27,1.92,4.52,3.28c1.25,1.36,2.22,2.91,2.9,4.64
				c0.68,1.73,1.02,3.51,1.02,5.32c0,1.87-0.36,3.66-1.08,5.38c-0.72,1.72-1.72,3.24-3,4.56c-1.28,1.32-2.81,2.38-4.58,3.18
				C183.33,41.57,181.39,41.97,179.28,41.97z M172.84,27.57c0,0.96,0.13,1.89,0.4,2.78c0.27,0.89,0.67,1.69,1.2,2.38
				c0.53,0.69,1.21,1.25,2.02,1.68c0.81,0.43,1.78,0.64,2.9,0.64c1.12,0,2.09-0.22,2.92-0.66c0.83-0.44,1.5-1.01,2.02-1.72
				c0.52-0.71,0.91-1.51,1.16-2.42c0.25-0.91,0.38-1.83,0.38-2.76c0-0.96-0.13-1.89-0.4-2.78c-0.27-0.89-0.67-1.68-1.22-2.36
				c-0.55-0.68-1.23-1.23-2.04-1.64c-0.81-0.41-1.77-0.62-2.86-0.62c-1.12,0-2.09,0.21-2.9,0.64s-1.49,0.99-2.02,1.7
				c-0.53,0.71-0.93,1.51-1.18,2.4C172.97,25.72,172.84,26.63,172.84,27.57z"/>
			<path class="st4" d="M199.08,41.73v-28.4h7.8v21.6h12.88v6.8H199.08z"/>
			<path class="st4" d="M224.48,41.73v-28.4h7.8v28.4H224.48z"/>
			<path class="st4" d="M251.96,41.97c-2.16,0-4.12-0.41-5.88-1.24c-1.76-0.83-3.27-1.91-4.52-3.26c-1.25-1.35-2.23-2.89-2.92-4.62
				c-0.69-1.73-1.04-3.52-1.04-5.36c0-1.87,0.36-3.67,1.08-5.4c0.72-1.73,1.73-3.26,3.02-4.58c1.29-1.32,2.83-2.37,4.6-3.16
				c1.77-0.79,3.71-1.18,5.82-1.18c2.16,0,4.12,0.41,5.88,1.24c1.76,0.83,3.27,1.92,4.52,3.28c1.25,1.36,2.22,2.91,2.9,4.64
				c0.68,1.73,1.02,3.51,1.02,5.32c0,1.87-0.36,3.66-1.08,5.38c-0.72,1.72-1.72,3.24-3,4.56c-1.28,1.32-2.81,2.38-4.58,3.18
				C256,41.57,254.06,41.97,251.96,41.97z M245.52,27.57c0,0.96,0.13,1.89,0.4,2.78c0.27,0.89,0.67,1.69,1.2,2.38
				c0.53,0.69,1.21,1.25,2.02,1.68c0.81,0.43,1.78,0.64,2.9,0.64c1.12,0,2.09-0.22,2.92-0.66c0.83-0.44,1.5-1.01,2.02-1.72
				c0.52-0.71,0.91-1.51,1.16-2.42c0.25-0.91,0.38-1.83,0.38-2.76c0-0.96-0.13-1.89-0.4-2.78c-0.27-0.89-0.67-1.68-1.22-2.36
				c-0.55-0.68-1.23-1.23-2.04-1.64c-0.81-0.41-1.77-0.62-2.86-0.62c-1.12,0-2.09,0.21-2.9,0.64s-1.49,0.99-2.02,1.7
				c-0.53,0.71-0.93,1.51-1.18,2.4C245.64,25.72,245.52,26.63,245.52,27.57z"/>
		</g>
		<g>
			<path class="st1" d="M0,28.4V0h12.24c1.39,0,2.67,0.29,3.84,0.86c1.17,0.57,2.18,1.32,3.02,2.24s1.5,1.97,1.98,3.16
				s0.72,2.38,0.72,3.58c0,1.25-0.23,2.47-0.68,3.66c-0.45,1.19-1.09,2.24-1.9,3.16c-0.81,0.92-1.8,1.65-2.96,2.2
				c-1.16,0.55-2.43,0.82-3.82,0.82H7.8v8.72H0z M7.8,12.88h4.12c0.48,0,0.93-0.22,1.34-0.66c0.41-0.44,0.62-1.23,0.62-2.38
				c0-1.17-0.24-1.97-0.72-2.4S12.2,6.8,11.72,6.8H7.8V12.88z"/>
			<path class="st1" d="M39.72,28.64c-2.16,0-4.12-0.41-5.88-1.24c-1.76-0.83-3.27-1.91-4.52-3.26s-2.23-2.89-2.92-4.62
				c-0.69-1.73-1.04-3.52-1.04-5.36c0-1.87,0.36-3.67,1.08-5.4c0.72-1.73,1.73-3.26,3.02-4.58c1.29-1.32,2.83-2.37,4.6-3.16
				c1.77-0.79,3.71-1.18,5.82-1.18c2.16,0,4.12,0.41,5.88,1.24c1.76,0.83,3.27,1.92,4.52,3.28S52.5,7.27,53.18,9
				c0.68,1.73,1.02,3.51,1.02,5.32c0,1.87-0.36,3.66-1.08,5.38c-0.72,1.72-1.72,3.24-3,4.56c-1.28,1.32-2.81,2.38-4.58,3.18
				C43.77,28.24,41.83,28.64,39.72,28.64z M33.28,14.24c0,0.96,0.13,1.89,0.4,2.78c0.27,0.89,0.67,1.69,1.2,2.38
				c0.53,0.69,1.21,1.25,2.02,1.68c0.81,0.43,1.78,0.64,2.9,0.64c1.12,0,2.09-0.22,2.92-0.66c0.83-0.44,1.5-1.01,2.02-1.72
				c0.52-0.71,0.91-1.51,1.16-2.42c0.25-0.91,0.38-1.83,0.38-2.76c0-0.96-0.13-1.89-0.4-2.78c-0.27-0.89-0.67-1.68-1.22-2.36
				c-0.55-0.68-1.23-1.23-2.04-1.64c-0.81-0.41-1.77-0.62-2.86-0.62c-1.12,0-2.09,0.21-2.9,0.64c-0.81,0.43-1.49,0.99-2.02,1.7
				c-0.53,0.71-0.93,1.51-1.18,2.4C33.41,12.39,33.28,13.31,33.28,14.24z"/>
			<path class="st1" d="M59.52,28.4V0h13.04c1.39,0,2.67,0.29,3.84,0.86c1.17,0.57,2.18,1.32,3.02,2.24
				c0.84,0.92,1.5,1.97,1.98,3.16s0.72,2.38,0.72,3.58c0,1.65-0.36,3.19-1.08,4.62c-0.72,1.43-1.72,2.59-3,3.5l6,10.44h-8.8l-5-8.72
				h-2.92v8.72H59.52z M67.32,12.88h4.92c0.48,0,0.93-0.27,1.34-0.8c0.41-0.53,0.62-1.28,0.62-2.24c0-0.99-0.24-1.74-0.72-2.26
				C73,7.06,72.52,6.8,72.04,6.8h-4.72V12.88z"/>
			<path class="st1" d="M110.24,6.8h-8.16v21.6h-7.8V6.8h-8.2V0h24.16V6.8z"/>
			<path class="st1" d="M119.84,0h7.12l9.84,28.4h-7.92l-1.72-5.56h-7.56l-1.68,5.56h-7.96L119.84,0z M125.92,17.64l-2.52-8.8
				l-2.64,8.8H125.92z"/>
			<path class="st1" d="M141.16,28.4V0h19.48v6.8h-11.68v4.72h9.52v6.32h-9.52V28.4H141.16z"/>
			<path class="st1" d="M178.12,28.64c-2.16,0-4.12-0.41-5.88-1.24c-1.76-0.83-3.27-1.91-4.52-3.26s-2.23-2.89-2.92-4.62
				c-0.69-1.73-1.04-3.52-1.04-5.36c0-1.87,0.36-3.67,1.08-5.4c0.72-1.73,1.73-3.26,3.02-4.58c1.29-1.32,2.83-2.37,4.6-3.16
				c1.77-0.79,3.71-1.18,5.82-1.18c2.16,0,4.12,0.41,5.88,1.24c1.76,0.83,3.27,1.92,4.52,3.28s2.22,2.91,2.9,4.64
				c0.68,1.73,1.02,3.51,1.02,5.32c0,1.87-0.36,3.66-1.08,5.38c-0.72,1.72-1.72,3.24-3,4.56c-1.28,1.32-2.81,2.38-4.58,3.18
				C182.17,28.24,180.23,28.64,178.12,28.64z M171.68,14.24c0,0.96,0.13,1.89,0.4,2.78c0.27,0.89,0.67,1.69,1.2,2.38
				c0.53,0.69,1.21,1.25,2.02,1.68c0.81,0.43,1.78,0.64,2.9,0.64c1.12,0,2.09-0.22,2.92-0.66c0.83-0.44,1.5-1.01,2.02-1.72
				c0.52-0.71,0.91-1.51,1.16-2.42c0.25-0.91,0.38-1.83,0.38-2.76c0-0.96-0.13-1.89-0.4-2.78c-0.27-0.89-0.67-1.68-1.22-2.36
				c-0.55-0.68-1.23-1.23-2.04-1.64c-0.81-0.41-1.77-0.62-2.86-0.62c-1.12,0-2.09,0.21-2.9,0.64c-0.81,0.43-1.49,0.99-2.02,1.7
				c-0.53,0.71-0.93,1.51-1.18,2.4C171.81,12.39,171.68,13.31,171.68,14.24z"/>
			<path class="st1" d="M197.92,28.4V0h7.8v21.6h12.88v6.8H197.92z"/>
			<path class="st1" d="M223.32,28.4V0h7.8v28.4H223.32z"/>
			<path class="st1" d="M250.8,28.64c-2.16,0-4.12-0.41-5.88-1.24c-1.76-0.83-3.27-1.91-4.52-3.26s-2.23-2.89-2.92-4.62
				c-0.69-1.73-1.04-3.52-1.04-5.36c0-1.87,0.36-3.67,1.08-5.4c0.72-1.73,1.73-3.26,3.02-4.58c1.29-1.32,2.83-2.37,4.6-3.16
				c1.77-0.79,3.71-1.18,5.82-1.18c2.16,0,4.12,0.41,5.88,1.24c1.76,0.83,3.27,1.92,4.52,3.28s2.22,2.91,2.9,4.64
				c0.68,1.73,1.02,3.51,1.02,5.32c0,1.87-0.36,3.66-1.08,5.38c-0.72,1.72-1.72,3.24-3,4.56c-1.28,1.32-2.81,2.38-4.58,3.18
				C254.84,28.24,252.9,28.64,250.8,28.64z M244.36,14.24c0,0.96,0.13,1.89,0.4,2.78c0.27,0.89,0.67,1.69,1.2,2.38
				c0.53,0.69,1.21,1.25,2.02,1.68c0.81,0.43,1.78,0.64,2.9,0.64c1.12,0,2.09-0.22,2.92-0.66c0.83-0.44,1.5-1.01,2.02-1.72
				c0.52-0.71,0.91-1.51,1.16-2.42c0.25-0.91,0.38-1.83,0.38-2.76c0-0.96-0.13-1.89-0.4-2.78c-0.27-0.89-0.67-1.68-1.22-2.36
				c-0.55-0.68-1.23-1.23-2.04-1.64c-0.81-0.41-1.77-0.62-2.86-0.62c-1.12,0-2.09,0.21-2.9,0.64c-0.81,0.43-1.49,0.99-2.02,1.7
				c-0.53,0.71-0.93,1.51-1.18,2.4C244.48,12.39,244.36,13.31,244.36,14.24z"/>
		</g>
	</g>
</g>
<g id="Capa_1">
</g>
<g id="Capa_3">
</g>
<g id="Capa_4">
</g>
<g id="Capa_6">
</g>
<g id="Capa_5">
</g>
</svg>
