<?xml version="1.0" encoding="utf-8"?>
<!-- Generator: Adobe Illustrator 24.0.3, SVG Export Plug-In . SVG Version: 6.00 Build 0)  -->
<svg version="1.1" xmlns="http://www.w3.org/2000/svg" xmlns:xlink="http://www.w3.org/1999/xlink" x="0px" y="0px"
	 viewBox="0 0 266.44 80.92" style="enable-background:new 0 0 266.44 80.92;" xml:space="preserve">
<style type="text/css">
	.st0{fill:none;stroke:#E7004C;stroke-miterlimit:10;}
	.st1{fill:#FFFFFF;}
	.st2{fill:url(#SVGID_1_);}
	.st3{fill:#E7004C;}
	.st4{fill:#42050E;}
	.st5{fill-rule:evenodd;clip-rule:evenodd;fill:#FFFFFF;}
	.st6{fill:none;stroke:#00B2E3;stroke-miterlimit:10;}
	.st7{fill:url(#SVGID_2_);}
	.st8{fill:#FCFCFC;}
	.st9{fill:url(#SVGID_3_);}
	.st10{fill:url(#SVGID_4_);}
	.st11{opacity:0.8;fill:#E7004C;}
	.st12{opacity:0.7;fill:#E7004C;}
	.st13{opacity:0.7;}
	.st14{fill:#00B2E3;}
	.st15{opacity:0.8;fill:#00B2E3;}
	.st16{opacity:0.7;fill:#00B2E3;}
	.st17{fill:#BBBBBB;}
	.st18{opacity:0.8;fill:#BBBBBB;}
	.st19{opacity:0.7;fill:#BBBBBB;}
	.st20{fill:url(#SVGID_5_);}
	.st21{fill:url(#SVGID_6_);}
	.st22{fill:none;stroke:#E7004C;stroke-width:2;stroke-miterlimit:10;}
	.st23{fill:url(#SVGID_7_);}
	.st24{fill:url(#SVGID_8_);}
	.st25{fill:url(#SVGID_9_);}
	.st26{fill:none;stroke:#FFFFFF;stroke-miterlimit:10;}
	.st27{fill-rule:evenodd;clip-rule:evenodd;fill:#E7004C;}
	.st28{fill:none;stroke:#000000;stroke-miterlimit:10;}
	.st29{fill:#38A8E0;}
	.st30{clip-path:url(#SVGID_11_);fill:#00B2E3;}
	.st31{fill:none;stroke:#E7004C;stroke-width:3;stroke-miterlimit:10;}
	.st32{clip-path:url(#SVGID_13_);}
	.st33{fill:none;stroke:#FFFFFF;stroke-width:2;stroke-miterlimit:10;}
	.st34{fill:none;stroke:#FFFFFF;stroke-width:3;stroke-miterlimit:10;}
	.st35{clip-path:url(#SVGID_15_);}
	.st36{fill:url(#SVGID_16_);}
	.st37{fill:none;stroke:#FFFFFF;stroke-width:0.5;stroke-miterlimit:10;}
	.st38{clip-path:url(#SVGID_18_);fill:#00B2E3;}
	.st39{clip-path:url(#SVGID_20_);}
	.st40{clip-path:url(#SVGID_22_);}
	.st41{fill:url(#SVGID_23_);}
	.st42{clip-path:url(#SVGID_25_);}
	.st43{fill:url(#SVGID_26_);}
	.st44{fill:url(#SVGID_27_);}
	.st45{fill:url(#SVGID_28_);}
	.st46{fill:url(#SVGID_29_);}
	.st47{clip-path:url(#SVGID_31_);fill:#00B2E3;}
	.st48{clip-path:url(#SVGID_33_);}
	.st49{clip-path:url(#SVGID_35_);}
	.st50{fill:url(#SVGID_36_);}
	.st51{clip-path:url(#SVGID_38_);}
	.st52{clip-path:url(#SVGID_40_);}
	.st53{fill:#280210;}
	.st54{opacity:0.5;}
	.st55{opacity:0.6;}
	.st56{fill:url(#SVGID_41_);}
	.st57{fill:url(#SVGID_42_);}
	.st58{fill:url(#SVGID_43_);}
	.st59{fill:url(#SVGID_44_);}
	.st60{opacity:0.8;}
	.st61{opacity:0.9;}
	.st62{fill:url(#SVGID_45_);}
	.st63{clip-path:url(#SVGID_47_);}
	.st64{clip-path:url(#SVGID_49_);}
	.st65{clip-path:url(#SVGID_51_);fill:#00B2E3;}
	.st66{clip-path:url(#SVGID_53_);}
	.st67{clip-path:url(#SVGID_55_);}
	.st68{fill:none;stroke:#FFFFFF;stroke-width:5;stroke-miterlimit:10;}
	.st69{clip-path:url(#SVGID_57_);fill:#00B2E3;}
	.st70{clip-path:url(#SVGID_59_);}
	.st71{clip-path:url(#SVGID_61_);}
	.st72{clip-path:url(#SVGID_63_);fill:#00B2E3;}
	.st73{clip-path:url(#SVGID_65_);}
	.st74{fill:#5B0323;}
	.st75{fill:url(#SVGID_66_);}
	.st76{fill:url(#SVGID_67_);}
	.st77{fill:url(#SVGID_68_);}
	.st78{clip-path:url(#SVGID_70_);fill:#00B2E3;}
	.st79{clip-path:url(#SVGID_72_);}
	.st80{fill-rule:evenodd;clip-rule:evenodd;fill:#00B2E3;}
	.st81{clip-path:url(#SVGID_74_);}
	.st82{clip-path:url(#SVGID_76_);}
	.st83{opacity:0.3;fill:#6B0303;}
	.st84{opacity:0.3;}
	.st85{fill-rule:evenodd;clip-rule:evenodd;fill:#6B0303;}
	.st86{fill:#6B0303;}
	.st87{clip-path:url(#SVGID_78_);}
	.st88{clip-path:url(#SVGID_82_);}
	.st89{fill:none;stroke:#5B0323;stroke-miterlimit:10;}
	.st90{clip-path:url(#SVGID_85_);}
	.st91{clip-path:url(#SVGID_87_);fill:#00B2E3;}
	.st92{clip-path:url(#SVGID_89_);}
	.st93{clip-path:url(#SVGID_91_);}
	.st94{fill:#E5E5E5;}
	.st95{clip-path:url(#SVGID_93_);}
	.st96{fill:#020202;}
	.st97{fill:#070101;}
	.st98{fill:none;stroke:#068FFF;stroke-width:5;stroke-miterlimit:10;}
</style>
<g id="Capa_2">
	<g>
		<g>
			<g>
				<path class="st1" d="M49.48,80.03h-6.6V57.98h9.55c1.09,0,2.12,0.23,3.04,0.68c0.92,0.45,1.72,1.05,2.38,1.77
					c0.66,0.72,1.18,1.55,1.56,2.48c0.38,0.93,0.57,1.88,0.57,2.83c0,0.98-0.18,1.95-0.54,2.88c-0.35,0.93-0.86,1.76-1.49,2.49
					c-0.64,0.73-1.43,1.31-2.34,1.74c-0.92,0.43-1.93,0.65-3.02,0.65h-3.1V80.03z M43.63,79.28h5.1v-6.54h3.85
					c0.98,0,1.89-0.2,2.71-0.58c0.82-0.38,1.52-0.91,2.1-1.56c0.58-0.65,1.03-1.41,1.36-2.26c0.32-0.84,0.49-1.72,0.49-2.61
					c0-0.85-0.17-1.7-0.51-2.54c-0.34-0.84-0.82-1.6-1.41-2.26c-0.59-0.65-1.32-1.19-2.15-1.6c-0.82-0.4-1.74-0.61-2.72-0.61h-8.8
					V79.28z M52.2,68.39h-3.46v-5.31h3.31c0.45,0,0.9,0.19,1.33,0.58c0.45,0.4,0.67,1.08,0.67,2.08c0,0.97-0.19,1.64-0.57,2.04
					C53.09,68.18,52.66,68.39,52.2,68.39z M49.48,67.64h2.71c0.25,0,0.49-0.12,0.73-0.38c0.17-0.18,0.36-0.58,0.36-1.53
					c0-0.75-0.14-1.28-0.41-1.52c-0.29-0.26-0.57-0.39-0.83-0.39h-2.56V67.64z"/>
			</g>
			<g>
				<path class="st1" d="M73.05,80.21c-1.67,0-3.2-0.33-4.57-0.96c-1.36-0.64-2.54-1.49-3.51-2.53c-0.97-1.04-1.73-2.24-2.26-3.58
					c-0.54-1.34-0.81-2.74-0.81-4.16c0-1.44,0.28-2.85,0.84-4.19c0.55-1.34,1.34-2.53,2.34-3.55c1-1.02,2.2-1.84,3.57-2.45
					c1.37-0.61,2.89-0.92,4.52-0.92c1.67,0,3.2,0.33,4.57,0.96c1.36,0.64,2.54,1.49,3.51,2.54c0.97,1.05,1.72,2.26,2.25,3.6
					c0.52,1.34,0.79,2.73,0.79,4.13c0,1.44-0.28,2.85-0.84,4.18c-0.56,1.33-1.34,2.52-2.33,3.54c-0.99,1.02-2.18,1.85-3.55,2.47
					C76.19,79.89,74.67,80.21,73.05,80.21z M73.17,58.61c-1.52,0-2.94,0.29-4.21,0.85c-1.28,0.57-2.4,1.34-3.33,2.29
					c-0.93,0.95-1.67,2.07-2.19,3.32s-0.78,2.56-0.78,3.91c0,1.33,0.25,2.63,0.75,3.88c0.5,1.25,1.21,2.38,2.12,3.35
					c0.9,0.97,2,1.76,3.28,2.36c1.26,0.59,2.69,0.89,4.25,0.89c1.52,0,2.93-0.29,4.21-0.87c1.28-0.58,2.4-1.35,3.32-2.3
					c0.92-0.95,1.65-2.06,2.17-3.3c0.52-1.24,0.78-2.55,0.78-3.89c0-1.31-0.25-2.6-0.74-3.85c-0.49-1.25-1.2-2.38-2.1-3.36
					c-0.9-0.98-2.01-1.78-3.27-2.37C76.15,58.91,74.72,58.61,73.17,58.61z M73.11,75.02c-0.9,0-1.69-0.18-2.35-0.52
					c-0.66-0.34-1.21-0.8-1.64-1.36c-0.43-0.55-0.75-1.2-0.96-1.91c-0.21-0.7-0.32-1.44-0.32-2.19c0-0.73,0.1-1.46,0.3-2.16
					c0.2-0.71,0.52-1.36,0.95-1.92c0.43-0.57,0.98-1.04,1.64-1.38c0.66-0.35,1.45-0.52,2.35-0.52c0.88,0,1.66,0.17,2.31,0.51
					c0.65,0.33,1.21,0.78,1.65,1.33c0.44,0.54,0.77,1.18,0.98,1.9c0.21,0.7,0.32,1.44,0.32,2.19c0,0.73-0.1,1.46-0.3,2.17
					c-0.2,0.72-0.52,1.38-0.93,1.94c-0.42,0.57-0.97,1.04-1.64,1.4C74.8,74.84,74,75.02,73.11,75.02z M73.08,63.8
					c-0.77,0-1.45,0.15-2,0.44c-0.56,0.29-1.03,0.69-1.39,1.17c-0.37,0.49-0.65,1.05-0.82,1.68c-0.18,0.63-0.27,1.29-0.27,1.95
					c0,0.68,0.1,1.35,0.28,1.98c0.19,0.62,0.47,1.18,0.84,1.66c0.36,0.47,0.83,0.86,1.39,1.16c0.55,0.29,1.23,0.44,2,0.44
					c0.77,0,1.45-0.15,2.01-0.45c0.57-0.3,1.04-0.7,1.39-1.18c0.36-0.49,0.63-1.06,0.81-1.69c0.18-0.64,0.27-1.31,0.27-1.97
					c0-0.68-0.1-1.34-0.28-1.98c-0.19-0.62-0.47-1.17-0.85-1.64c-0.38-0.47-0.85-0.85-1.41-1.13C74.5,63.94,73.83,63.8,73.08,63.8z"
					/>
			</g>
			<g>
				<path class="st1" d="M106.94,80.03h-7.47l-3.75-6.54h-1.6v6.54h-6.6V57.98h10.15c1.09,0,2.12,0.23,3.04,0.68
					c0.92,0.45,1.72,1.05,2.38,1.77c0.66,0.72,1.18,1.55,1.56,2.48c0.38,0.93,0.57,1.88,0.57,2.83c0,1.29-0.29,2.52-0.85,3.63
					c-0.51,1.02-1.22,1.88-2.09,2.56L106.94,80.03z M99.91,79.28h5.73l-4.35-7.56l0.28-0.2c0.91-0.64,1.62-1.48,2.13-2.49
					c0.51-1.01,0.77-2.12,0.77-3.3c0-0.85-0.17-1.7-0.51-2.54c-0.34-0.84-0.82-1.6-1.41-2.26c-0.59-0.65-1.32-1.19-2.15-1.6
					c-0.82-0.4-1.74-0.61-2.72-0.61h-9.4v20.55h5.1v-6.54h2.78L99.91,79.28z M97.44,68.39h-4.06v-5.31h3.92
					c0.47,0,0.92,0.24,1.36,0.71c0.42,0.46,0.64,1.12,0.64,1.95c0,0.8-0.18,1.44-0.54,1.91C98.36,68.14,97.92,68.39,97.44,68.39z
					 M94.12,67.64h3.31c0.24,0,0.47-0.15,0.71-0.45c0.26-0.33,0.39-0.82,0.39-1.45c0-0.64-0.15-1.12-0.44-1.44
					c-0.28-0.31-0.56-0.46-0.8-0.46h-3.17V67.64z"/>
			</g>
			<g>
				<path class="st1" d="M120.19,80.03h-6.6v-16.2h-6.15v-5.85h18.87v5.85h-6.12V80.03z M114.34,79.28h5.1v-16.2h6.12v-4.35h-17.37
					v4.35h6.15V79.28z"/>
			</g>
			<g>
				<path class="st1" d="M135.79,80.03h-6.6V57.98h15.36v5.85h-8.76v2.79h7.14v5.49h-7.14V80.03z M129.94,79.28h5.1v-7.92h7.14
					v-3.99h-7.14v-4.29h8.76v-4.35h-13.86V79.28z"/>
			</g>
			<g>
				<path class="st1" d="M157.29,80.21c-1.67,0-3.2-0.33-4.57-0.96c-1.36-0.64-2.54-1.49-3.51-2.53c-0.97-1.04-1.73-2.24-2.26-3.58
					c-0.54-1.34-0.81-2.74-0.81-4.16c0-1.44,0.28-2.85,0.84-4.19c0.55-1.34,1.34-2.53,2.34-3.55c1-1.02,2.2-1.84,3.57-2.45
					c1.37-0.61,2.89-0.92,4.52-0.92c1.67,0,3.2,0.33,4.57,0.96c1.36,0.64,2.54,1.49,3.51,2.54c0.97,1.05,1.72,2.26,2.25,3.6
					c0.52,1.34,0.79,2.73,0.79,4.13c0,1.44-0.28,2.85-0.84,4.18c-0.56,1.33-1.34,2.52-2.33,3.54c-0.99,1.02-2.18,1.85-3.55,2.47
					C160.43,79.89,158.91,80.21,157.29,80.21z M157.41,58.61c-1.52,0-2.94,0.29-4.21,0.85c-1.28,0.57-2.4,1.34-3.33,2.29
					c-0.93,0.95-1.67,2.07-2.19,3.32s-0.78,2.56-0.78,3.91c0,1.33,0.25,2.63,0.75,3.88c0.5,1.25,1.21,2.38,2.12,3.35
					c0.9,0.97,2,1.76,3.28,2.36c1.26,0.59,2.69,0.89,4.25,0.89c1.52,0,2.93-0.29,4.21-0.87c1.28-0.58,2.4-1.35,3.32-2.3
					c0.92-0.95,1.65-2.06,2.17-3.3c0.52-1.24,0.78-2.55,0.78-3.89c0-1.31-0.25-2.6-0.74-3.85c-0.49-1.25-1.2-2.38-2.1-3.36
					c-0.9-0.98-2.01-1.78-3.27-2.37C160.39,58.91,158.96,58.61,157.41,58.61z M157.35,75.02c-0.9,0-1.69-0.18-2.35-0.52
					c-0.66-0.34-1.21-0.8-1.64-1.36c-0.43-0.55-0.75-1.2-0.96-1.91c-0.21-0.7-0.32-1.44-0.32-2.19c0-0.73,0.1-1.46,0.3-2.16
					c0.2-0.71,0.52-1.36,0.95-1.92c0.43-0.57,0.98-1.04,1.64-1.38c0.66-0.35,1.45-0.52,2.35-0.52c0.88,0,1.66,0.17,2.31,0.51
					c0.65,0.33,1.21,0.78,1.65,1.33c0.44,0.54,0.77,1.18,0.98,1.9c0.21,0.7,0.32,1.44,0.32,2.19c0,0.73-0.1,1.46-0.3,2.17
					c-0.2,0.72-0.52,1.38-0.93,1.94c-0.42,0.57-0.97,1.04-1.64,1.4C159.04,74.84,158.24,75.02,157.35,75.02z M157.32,63.8
					c-0.77,0-1.45,0.15-2,0.44c-0.56,0.29-1.03,0.69-1.39,1.17c-0.37,0.49-0.65,1.05-0.82,1.68c-0.18,0.63-0.27,1.29-0.27,1.95
					c0,0.68,0.1,1.35,0.28,1.98c0.19,0.62,0.47,1.18,0.84,1.66c0.36,0.47,0.83,0.86,1.39,1.16c0.55,0.29,1.23,0.44,2,0.44
					c0.77,0,1.45-0.15,2.01-0.45c0.57-0.3,1.04-0.7,1.39-1.18c0.36-0.49,0.63-1.06,0.81-1.69c0.18-0.64,0.27-1.31,0.27-1.97
					c0-0.68-0.1-1.34-0.28-1.98c-0.19-0.62-0.47-1.17-0.85-1.64c-0.38-0.47-0.85-0.85-1.41-1.13
					C158.74,63.94,158.07,63.8,157.32,63.8z"/>
			</g>
			<g>
				<path class="st1" d="M188.02,80.03h-16.26V57.98h6.6v16.2h9.66V80.03z M172.51,79.28h14.76v-4.35h-9.66v-16.2h-5.1V79.28z"/>
			</g>
			<g>
				<path class="st1" d="M197.41,80.03h-6.6V57.98h6.6V80.03z M191.56,79.28h5.1V58.73h-5.1V79.28z"/>
			</g>
			<g>
				<path class="st1" d="M211.8,80.21c-1.67,0-3.2-0.33-4.57-0.96c-1.36-0.64-2.54-1.49-3.51-2.53c-0.97-1.04-1.73-2.24-2.26-3.58
					c-0.54-1.34-0.81-2.74-0.81-4.16c0-1.44,0.28-2.85,0.84-4.19c0.55-1.34,1.34-2.53,2.34-3.55c1-1.02,2.2-1.84,3.57-2.45
					c1.37-0.61,2.89-0.92,4.52-0.92c1.67,0,3.2,0.33,4.57,0.96c1.36,0.64,2.54,1.49,3.51,2.54c0.97,1.05,1.72,2.26,2.25,3.6
					c0.52,1.34,0.79,2.73,0.79,4.13c0,1.44-0.28,2.85-0.84,4.18c-0.56,1.33-1.34,2.52-2.33,3.54c-0.99,1.02-2.18,1.85-3.55,2.47
					C214.94,79.89,213.42,80.21,211.8,80.21z M211.92,58.61c-1.52,0-2.94,0.29-4.21,0.85c-1.28,0.57-2.4,1.34-3.33,2.29
					c-0.93,0.95-1.67,2.07-2.19,3.32s-0.78,2.56-0.78,3.91c0,1.33,0.25,2.63,0.75,3.88c0.5,1.25,1.21,2.38,2.12,3.35
					c0.9,0.97,2,1.76,3.28,2.36c1.26,0.59,2.69,0.89,4.25,0.89c1.52,0,2.93-0.29,4.21-0.87c1.28-0.58,2.4-1.35,3.32-2.3
					c0.92-0.95,1.65-2.06,2.17-3.3c0.52-1.24,0.78-2.55,0.78-3.89c0-1.31-0.25-2.6-0.74-3.85c-0.49-1.25-1.2-2.38-2.1-3.36
					c-0.9-0.98-2.01-1.78-3.27-2.37C214.9,58.91,213.47,58.61,211.92,58.61z M211.86,75.02c-0.9,0-1.69-0.18-2.35-0.52
					c-0.66-0.34-1.21-0.8-1.64-1.36c-0.43-0.55-0.75-1.2-0.96-1.91c-0.21-0.7-0.32-1.44-0.32-2.19c0-0.73,0.1-1.46,0.3-2.16
					c0.2-0.71,0.52-1.36,0.95-1.92c0.43-0.57,0.98-1.04,1.64-1.38c0.66-0.35,1.45-0.52,2.35-0.52c0.88,0,1.66,0.17,2.31,0.51
					c0.65,0.33,1.21,0.78,1.65,1.33c0.44,0.54,0.77,1.18,0.98,1.9c0.21,0.7,0.32,1.44,0.32,2.19c0,0.73-0.1,1.46-0.3,2.17
					c-0.2,0.72-0.52,1.38-0.93,1.94c-0.42,0.57-0.97,1.04-1.64,1.4C213.55,74.84,212.75,75.02,211.86,75.02z M211.83,63.8
					c-0.77,0-1.45,0.15-2,0.44c-0.56,0.29-1.03,0.69-1.39,1.17c-0.37,0.49-0.65,1.05-0.82,1.68c-0.18,0.63-0.27,1.29-0.27,1.95
					c0,0.68,0.1,1.35,0.28,1.98c0.19,0.62,0.47,1.18,0.84,1.66c0.36,0.47,0.83,0.86,1.39,1.16c0.55,0.29,1.23,0.44,2,0.44
					c0.77,0,1.45-0.15,2.01-0.45c0.57-0.3,1.04-0.7,1.39-1.18c0.36-0.49,0.63-1.06,0.81-1.69c0.18-0.64,0.27-1.31,0.27-1.97
					c0-0.68-0.1-1.34-0.28-1.98c-0.19-0.62-0.47-1.17-0.85-1.64c-0.38-0.47-0.85-0.85-1.41-1.13
					C213.25,63.94,212.58,63.8,211.83,63.8z"/>
			</g>
		</g>
		<g>
			<g>
				<path class="st4" d="M1.16,42.37v-28.4H13.4c1.39,0,2.67,0.29,3.84,0.86c1.17,0.57,2.18,1.32,3.02,2.24s1.5,1.97,1.98,3.16
					c0.48,1.19,0.72,2.38,0.72,3.58c0,1.25-0.23,2.47-0.68,3.66c-0.45,1.19-1.09,2.24-1.9,3.16c-0.81,0.92-1.8,1.65-2.96,2.2
					c-1.16,0.55-2.43,0.82-3.82,0.82H8.96v8.72H1.16z M8.96,26.85h4.12c0.48,0,0.93-0.22,1.34-0.66c0.41-0.44,0.62-1.23,0.62-2.38
					c0-1.17-0.24-1.97-0.72-2.4c-0.48-0.43-0.96-0.64-1.44-0.64H8.96V26.85z"/>
			</g>
			<g>
				<path class="st4" d="M40.88,42.61c-2.16,0-4.12-0.41-5.88-1.24c-1.76-0.83-3.27-1.91-4.52-3.26c-1.25-1.35-2.23-2.89-2.92-4.62
					c-0.69-1.73-1.04-3.52-1.04-5.36c0-1.87,0.36-3.67,1.08-5.4c0.72-1.73,1.73-3.26,3.02-4.58c1.29-1.32,2.83-2.37,4.6-3.16
					c1.77-0.79,3.71-1.18,5.82-1.18c2.16,0,4.12,0.41,5.88,1.24c1.76,0.83,3.27,1.92,4.52,3.28c1.25,1.36,2.22,2.91,2.9,4.64
					c0.68,1.73,1.02,3.51,1.02,5.32c0,1.87-0.36,3.66-1.08,5.38c-0.72,1.72-1.72,3.24-3,4.56c-1.28,1.32-2.81,2.38-4.58,3.18
					C44.93,42.21,42.99,42.61,40.88,42.61z M34.44,28.21c0,0.96,0.13,1.89,0.4,2.78c0.27,0.89,0.67,1.69,1.2,2.38
					c0.53,0.69,1.21,1.25,2.02,1.68c0.81,0.43,1.78,0.64,2.9,0.64c1.12,0,2.09-0.22,2.92-0.66c0.83-0.44,1.5-1.01,2.02-1.72
					c0.52-0.71,0.91-1.51,1.16-2.42c0.25-0.91,0.38-1.83,0.38-2.76c0-0.96-0.13-1.89-0.4-2.78c-0.27-0.89-0.67-1.68-1.22-2.36
					c-0.55-0.68-1.23-1.23-2.04-1.64c-0.81-0.41-1.77-0.62-2.86-0.62c-1.12,0-2.09,0.21-2.9,0.64s-1.49,0.99-2.02,1.7
					c-0.53,0.71-0.93,1.51-1.18,2.4C34.57,26.37,34.44,27.28,34.44,28.21z"/>
			</g>
			<g>
				<path class="st4" d="M60.68,42.37v-28.4h13.04c1.39,0,2.67,0.29,3.84,0.86c1.17,0.57,2.18,1.32,3.02,2.24
					c0.84,0.92,1.5,1.97,1.98,3.16c0.48,1.19,0.72,2.38,0.72,3.58c0,1.65-0.36,3.19-1.08,4.62c-0.72,1.43-1.72,2.59-3,3.5l6,10.44
					h-8.8l-5-8.72h-2.92v8.72H60.68z M68.48,26.85h4.92c0.48,0,0.93-0.27,1.34-0.8c0.41-0.53,0.62-1.28,0.62-2.24
					c0-0.99-0.24-1.74-0.72-2.26s-0.96-0.78-1.44-0.78h-4.72V26.85z"/>
			</g>
			<g>
				<path class="st4" d="M111.4,20.77h-8.16v21.6h-7.8v-21.6h-8.2v-6.8h24.16V20.77z"/>
			</g>
			<g>
				<path class="st4" d="M121,13.97h7.12l9.84,28.4h-7.92l-1.72-5.56h-7.56l-1.68,5.56h-7.96L121,13.97z M127.08,31.61l-2.52-8.8
					l-2.64,8.8H127.08z"/>
			</g>
			<g>
				<path class="st4" d="M142.32,42.37v-28.4h19.48v6.8h-11.68v4.72h9.52v6.32h-9.52v10.56H142.32z"/>
			</g>
			<g>
				<path class="st4" d="M179.28,42.61c-2.16,0-4.12-0.41-5.88-1.24c-1.76-0.83-3.27-1.91-4.52-3.26c-1.25-1.35-2.23-2.89-2.92-4.62
					c-0.69-1.73-1.04-3.52-1.04-5.36c0-1.87,0.36-3.67,1.08-5.4c0.72-1.73,1.73-3.26,3.02-4.58c1.29-1.32,2.83-2.37,4.6-3.16
					c1.77-0.79,3.71-1.18,5.82-1.18c2.16,0,4.12,0.41,5.88,1.24c1.76,0.83,3.27,1.92,4.52,3.28c1.25,1.36,2.22,2.91,2.9,4.64
					c0.68,1.73,1.02,3.51,1.02,5.32c0,1.87-0.36,3.66-1.08,5.38c-0.72,1.72-1.72,3.24-3,4.56c-1.28,1.32-2.81,2.38-4.58,3.18
					C183.33,42.21,181.39,42.61,179.28,42.61z M172.84,28.21c0,0.96,0.13,1.89,0.4,2.78c0.27,0.89,0.67,1.69,1.2,2.38
					c0.53,0.69,1.21,1.25,2.02,1.68c0.81,0.43,1.78,0.64,2.9,0.64c1.12,0,2.09-0.22,2.92-0.66c0.83-0.44,1.5-1.01,2.02-1.72
					c0.52-0.71,0.91-1.51,1.16-2.42c0.25-0.91,0.38-1.83,0.38-2.76c0-0.96-0.13-1.89-0.4-2.78c-0.27-0.89-0.67-1.68-1.22-2.36
					c-0.55-0.68-1.23-1.23-2.04-1.64c-0.81-0.41-1.77-0.62-2.86-0.62c-1.12,0-2.09,0.21-2.9,0.64s-1.49,0.99-2.02,1.7
					c-0.53,0.71-0.93,1.51-1.18,2.4C172.97,26.37,172.84,27.28,172.84,28.21z"/>
			</g>
			<g>
				<path class="st4" d="M199.08,42.37v-28.4h7.8v21.6h12.88v6.8H199.08z"/>
			</g>
			<g>
				<path class="st4" d="M224.48,42.37v-28.4h7.8v28.4H224.48z"/>
			</g>
			<g>
				<path class="st4" d="M251.96,42.61c-2.16,0-4.12-0.41-5.88-1.24c-1.76-0.83-3.27-1.91-4.52-3.26c-1.25-1.35-2.23-2.89-2.92-4.62
					c-0.69-1.73-1.04-3.52-1.04-5.36c0-1.87,0.36-3.67,1.08-5.4c0.72-1.73,1.73-3.26,3.02-4.58c1.29-1.32,2.83-2.37,4.6-3.16
					c1.77-0.79,3.71-1.18,5.82-1.18c2.16,0,4.12,0.41,5.88,1.24c1.76,0.83,3.27,1.92,4.52,3.28c1.25,1.36,2.22,2.91,2.9,4.64
					c0.68,1.73,1.02,3.51,1.02,5.32c0,1.87-0.36,3.66-1.08,5.38c-0.72,1.72-1.72,3.24-3,4.56c-1.28,1.32-2.81,2.38-4.58,3.18
					C256,42.21,254.06,42.61,251.96,42.61z M245.52,28.21c0,0.96,0.13,1.89,0.4,2.78c0.27,0.89,0.67,1.69,1.2,2.38
					c0.53,0.69,1.21,1.25,2.02,1.68c0.81,0.43,1.78,0.64,2.9,0.64c1.12,0,2.09-0.22,2.92-0.66c0.83-0.44,1.5-1.01,2.02-1.72
					c0.52-0.71,0.91-1.51,1.16-2.42c0.25-0.91,0.38-1.83,0.38-2.76c0-0.96-0.13-1.89-0.4-2.78c-0.27-0.89-0.67-1.68-1.22-2.36
					c-0.55-0.68-1.23-1.23-2.04-1.64c-0.81-0.41-1.77-0.62-2.86-0.62c-1.12,0-2.09,0.21-2.9,0.64s-1.49,0.99-2.02,1.7
					c-0.53,0.71-0.93,1.51-1.18,2.4C245.64,26.37,245.52,27.28,245.52,28.21z"/>
			</g>
		</g>
		<g>
			<g>
				<path class="st1" d="M0.58,29.05V0.65h12.24c1.39,0,2.67,0.29,3.84,0.86c1.17,0.57,2.18,1.32,3.02,2.24s1.5,1.97,1.98,3.16
					s0.72,2.38,0.72,3.58c0,1.25-0.23,2.47-0.68,3.66c-0.45,1.19-1.09,2.24-1.9,3.16c-0.81,0.92-1.8,1.65-2.96,2.2
					c-1.16,0.55-2.43,0.82-3.82,0.82H8.38v8.72H0.58z M8.38,13.53h4.12c0.48,0,0.93-0.22,1.34-0.66c0.41-0.44,0.62-1.23,0.62-2.38
					c0-1.17-0.24-1.97-0.72-2.4c-0.48-0.43-0.96-0.64-1.44-0.64H8.38V13.53z"/>
			</g>
			<g>
				<path class="st1" d="M40.3,29.29c-2.16,0-4.12-0.41-5.88-1.24c-1.76-0.83-3.27-1.91-4.52-3.26s-2.23-2.89-2.92-4.62
					c-0.69-1.73-1.04-3.52-1.04-5.36c0-1.87,0.36-3.67,1.08-5.4c0.72-1.73,1.73-3.26,3.02-4.58c1.29-1.32,2.83-2.37,4.6-3.16
					c1.77-0.79,3.71-1.18,5.82-1.18c2.16,0,4.12,0.41,5.88,1.24c1.76,0.83,3.27,1.92,4.52,3.28s2.22,2.91,2.9,4.64
					c0.68,1.73,1.02,3.51,1.02,5.32c0,1.87-0.36,3.66-1.08,5.38c-0.72,1.72-1.72,3.24-3,4.56c-1.28,1.32-2.81,2.38-4.58,3.18
					C44.35,28.89,42.41,29.29,40.3,29.29z M33.86,14.89c0,0.96,0.13,1.89,0.4,2.78c0.27,0.89,0.67,1.69,1.2,2.38
					c0.53,0.69,1.21,1.25,2.02,1.68c0.81,0.43,1.78,0.64,2.9,0.64c1.12,0,2.09-0.22,2.92-0.66c0.83-0.44,1.5-1.01,2.02-1.72
					c0.52-0.71,0.91-1.51,1.16-2.42c0.25-0.91,0.38-1.83,0.38-2.76c0-0.96-0.13-1.89-0.4-2.78c-0.27-0.89-0.67-1.68-1.22-2.36
					c-0.55-0.68-1.23-1.23-2.04-1.64c-0.81-0.41-1.77-0.62-2.86-0.62c-1.12,0-2.09,0.21-2.9,0.64c-0.81,0.43-1.49,0.99-2.02,1.7
					c-0.53,0.71-0.93,1.51-1.18,2.4C33.99,13.04,33.86,13.95,33.86,14.89z"/>
			</g>
			<g>
				<path class="st1" d="M60.1,29.05V0.65h13.04c1.39,0,2.67,0.29,3.84,0.86c1.17,0.57,2.18,1.32,3.02,2.24
					c0.84,0.92,1.5,1.97,1.98,3.16s0.72,2.38,0.72,3.58c0,1.65-0.36,3.19-1.08,4.62c-0.72,1.43-1.72,2.59-3,3.5l6,10.44h-8.8
					l-5-8.72H67.9v8.72H60.1z M67.9,13.53h4.92c0.48,0,0.93-0.27,1.34-0.8c0.41-0.53,0.62-1.28,0.62-2.24
					c0-0.99-0.24-1.74-0.72-2.26c-0.48-0.52-0.96-0.78-1.44-0.78H67.9V13.53z"/>
			</g>
			<g>
				<path class="st1" d="M110.82,7.45h-8.16v21.6h-7.8V7.45h-8.2v-6.8h24.16V7.45z"/>
			</g>
			<g>
				<path class="st1" d="M120.42,0.65h7.12l9.84,28.4h-7.92l-1.72-5.56h-7.56l-1.68,5.56h-7.96L120.42,0.65z M126.5,18.29l-2.52-8.8
					l-2.64,8.8H126.5z"/>
			</g>
			<g>
				<path class="st1" d="M141.74,29.05V0.65h19.48v6.8h-11.68v4.72h9.52v6.32h-9.52v10.56H141.74z"/>
			</g>
			<g>
				<path class="st1" d="M178.7,29.29c-2.16,0-4.12-0.41-5.88-1.24c-1.76-0.83-3.27-1.91-4.52-3.26s-2.23-2.89-2.92-4.62
					c-0.69-1.73-1.04-3.52-1.04-5.36c0-1.87,0.36-3.67,1.08-5.4c0.72-1.73,1.73-3.26,3.02-4.58c1.29-1.32,2.83-2.37,4.6-3.16
					c1.77-0.79,3.71-1.18,5.82-1.18c2.16,0,4.12,0.41,5.88,1.24c1.76,0.83,3.27,1.92,4.52,3.28s2.22,2.91,2.9,4.64
					c0.68,1.73,1.02,3.51,1.02,5.32c0,1.87-0.36,3.66-1.08,5.38c-0.72,1.72-1.72,3.24-3,4.56c-1.28,1.32-2.81,2.38-4.58,3.18
					C182.75,28.89,180.81,29.29,178.7,29.29z M172.26,14.89c0,0.96,0.13,1.89,0.4,2.78c0.27,0.89,0.67,1.69,1.2,2.38
					c0.53,0.69,1.21,1.25,2.02,1.68c0.81,0.43,1.78,0.64,2.9,0.64c1.12,0,2.09-0.22,2.92-0.66c0.83-0.44,1.5-1.01,2.02-1.72
					c0.52-0.71,0.91-1.51,1.16-2.42c0.25-0.91,0.38-1.83,0.38-2.76c0-0.96-0.13-1.89-0.4-2.78c-0.27-0.89-0.67-1.68-1.22-2.36
					c-0.55-0.68-1.23-1.23-2.04-1.64c-0.81-0.41-1.77-0.62-2.86-0.62c-1.12,0-2.09,0.21-2.9,0.64c-0.81,0.43-1.49,0.99-2.02,1.7
					c-0.53,0.71-0.93,1.51-1.18,2.4C172.39,13.04,172.26,13.95,172.26,14.89z"/>
			</g>
			<g>
				<path class="st1" d="M198.5,29.05V0.65h7.8v21.6h12.88v6.8H198.5z"/>
			</g>
			<g>
				<path class="st1" d="M223.9,29.05V0.65h7.8v28.4H223.9z"/>
			</g>
			<g>
				<path class="st1" d="M251.38,29.29c-2.16,0-4.12-0.41-5.88-1.24c-1.76-0.83-3.27-1.91-4.52-3.26s-2.23-2.89-2.92-4.62
					c-0.69-1.73-1.04-3.52-1.04-5.36c0-1.87,0.36-3.67,1.08-5.4c0.72-1.73,1.73-3.26,3.02-4.58c1.29-1.32,2.83-2.37,4.6-3.16
					c1.77-0.79,3.71-1.18,5.82-1.18c2.16,0,4.12,0.41,5.88,1.24c1.76,0.83,3.27,1.92,4.52,3.28s2.22,2.91,2.9,4.64
					c0.68,1.73,1.02,3.51,1.02,5.32c0,1.87-0.36,3.66-1.08,5.38c-0.72,1.72-1.72,3.24-3,4.56c-1.28,1.32-2.81,2.38-4.58,3.18
					C255.42,28.89,253.48,29.29,251.38,29.29z M244.94,14.89c0,0.96,0.13,1.89,0.4,2.78c0.27,0.89,0.67,1.69,1.2,2.38
					c0.53,0.69,1.21,1.25,2.02,1.68c0.81,0.43,1.78,0.64,2.9,0.64c1.12,0,2.09-0.22,2.92-0.66c0.83-0.44,1.5-1.01,2.02-1.72
					c0.52-0.71,0.91-1.51,1.16-2.42c0.25-0.91,0.38-1.83,0.38-2.76c0-0.96-0.13-1.89-0.4-2.78c-0.27-0.89-0.67-1.68-1.22-2.36
					c-0.55-0.68-1.23-1.23-2.04-1.64c-0.81-0.41-1.77-0.62-2.86-0.62c-1.12,0-2.09,0.21-2.9,0.64c-0.81,0.43-1.49,0.99-2.02,1.7
					c-0.53,0.71-0.93,1.51-1.18,2.4C245.06,13.04,244.94,13.95,244.94,14.89z"/>
			</g>
		</g>
	</g>
</g>
<g id="Capa_1">
</g>
<g id="Capa_3">
</g>
<g id="Capa_4">
</g>
<g id="Capa_6">
</g>
<g id="Capa_5">
</g>
</svg>
