<?xml version="1.0" encoding="utf-8"?>
<!-- Generator: Adobe Illustrator 24.0.3, SVG Export Plug-In . SVG Version: 6.00 Build 0)  -->
<svg version="1.1" xmlns="http://www.w3.org/2000/svg" xmlns:xlink="http://www.w3.org/1999/xlink" x="0px" y="0px"
	 viewBox="0 0 113.21 31.99" style="enable-background:new 0 0 113.21 31.99;" xml:space="preserve">
<style type="text/css">
	.st0{fill:#FFFFFF;}
	.st1{fill:url(#SVGID_1_);}
	.st2{fill:#E7004C;}
	.st3{fill:none;stroke:#00B2E3;stroke-miterlimit:10;}
	.st4{fill:url(#SVGID_2_);}
	.st5{fill:#FCFCFC;}
	.st6{fill:url(#SVGID_3_);}
	.st7{fill:url(#SVGID_4_);}
	.st8{opacity:0.8;fill:#E7004C;}
	.st9{opacity:0.7;fill:#E7004C;}
	.st10{opacity:0.7;}
	.st11{fill:#00B2E3;}
	.st12{opacity:0.8;fill:#00B2E3;}
	.st13{opacity:0.7;fill:#00B2E3;}
	.st14{fill:#BBBBBB;}
	.st15{opacity:0.8;fill:#BBBBBB;}
	.st16{opacity:0.7;fill:#BBBBBB;}
	.st17{fill:url(#SVGID_5_);}
	.st18{fill:url(#SVGID_6_);}
	.st19{fill:none;stroke:#E7004C;stroke-width:2;stroke-miterlimit:10;}
	.st20{fill:url(#SVGID_7_);}
	.st21{fill:url(#SVGID_8_);}
	.st22{fill:url(#SVGID_9_);}
	.st23{fill:none;stroke:#FFFFFF;stroke-miterlimit:10;}
	.st24{fill:none;stroke:#E7004C;stroke-miterlimit:10;}
	.st25{fill-rule:evenodd;clip-rule:evenodd;fill:#E7004C;}
	.st26{fill:none;stroke:#000000;stroke-miterlimit:10;}
	.st27{fill:#38A8E0;}
	.st28{clip-path:url(#SVGID_11_);fill:#00B2E3;}
	.st29{fill:none;stroke:#E7004C;stroke-width:3;stroke-miterlimit:10;}
	.st30{clip-path:url(#SVGID_13_);}
	.st31{fill:none;stroke:#FFFFFF;stroke-width:2;stroke-miterlimit:10;}
	.st32{fill:none;stroke:#FFFFFF;stroke-width:3;stroke-miterlimit:10;}
	.st33{clip-path:url(#SVGID_15_);}
	.st34{fill:url(#SVGID_16_);}
	.st35{fill:none;stroke:#FFFFFF;stroke-width:0.5;stroke-miterlimit:10;}
	.st36{clip-path:url(#SVGID_18_);fill:#00B2E3;}
	.st37{clip-path:url(#SVGID_20_);}
	.st38{clip-path:url(#SVGID_22_);}
	.st39{fill:url(#SVGID_23_);}
	.st40{clip-path:url(#SVGID_25_);}
	.st41{fill:url(#SVGID_26_);}
	.st42{fill:url(#SVGID_27_);}
	.st43{fill:url(#SVGID_28_);}
	.st44{fill:url(#SVGID_29_);}
	.st45{clip-path:url(#SVGID_31_);fill:#00B2E3;}
	.st46{clip-path:url(#SVGID_33_);}
	.st47{clip-path:url(#SVGID_35_);}
	.st48{fill:url(#SVGID_36_);}
	.st49{clip-path:url(#SVGID_38_);}
	.st50{clip-path:url(#SVGID_40_);}
	.st51{fill:#280210;}
	.st52{opacity:0.5;}
	.st53{opacity:0.6;}
	.st54{fill:url(#SVGID_41_);}
	.st55{fill:url(#SVGID_42_);}
	.st56{fill:url(#SVGID_43_);}
	.st57{fill:url(#SVGID_44_);}
	.st58{opacity:0.8;}
	.st59{opacity:0.9;}
	.st60{fill:url(#SVGID_45_);}
	.st61{clip-path:url(#SVGID_47_);}
	.st62{clip-path:url(#SVGID_49_);}
	.st63{fill:url(#SVGID_50_);}
	.st64{clip-path:url(#SVGID_52_);}
	.st65{fill:url(#SVGID_53_);}
	.st66{clip-path:url(#SVGID_55_);}
	.st67{fill:url(#SVGID_56_);}
	.st68{clip-path:url(#SVGID_58_);}
	.st69{clip-path:url(#SVGID_60_);fill:#00B2E3;}
	.st70{clip-path:url(#SVGID_62_);}
	.st71{clip-path:url(#SVGID_64_);}
	.st72{fill:none;stroke:#FFFFFF;stroke-width:5;stroke-miterlimit:10;}
	.st73{clip-path:url(#SVGID_66_);fill:#00B2E3;}
	.st74{clip-path:url(#SVGID_68_);}
	.st75{clip-path:url(#SVGID_70_);}
	.st76{clip-path:url(#SVGID_72_);fill:#00B2E3;}
	.st77{clip-path:url(#SVGID_74_);}
	.st78{fill:#5B0323;}
	.st79{fill:url(#SVGID_75_);}
	.st80{fill:url(#SVGID_76_);}
	.st81{fill:url(#SVGID_77_);}
	.st82{clip-path:url(#SVGID_80_);fill:#00B2E3;}
	.st83{clip-path:url(#SVGID_84_);}
	.st84{clip-path:url(#SVGID_86_);}
	.st85{fill-rule:evenodd;clip-rule:evenodd;fill:#FFFFFF;}
	.st86{fill:#E5E5E5;}
	.st87{clip-path:url(#SVGID_88_);}
	.st88{fill-rule:evenodd;clip-rule:evenodd;fill:none;stroke:#E7004C;stroke-width:3;stroke-miterlimit:10;}
	.st89{fill:#070101;}
	.st90{fill:none;stroke:#068FFF;stroke-width:5;stroke-miterlimit:10;}
</style>
<g id="Capa_2">
</g>
<g id="Capa_1">
</g>
<g id="Capa_3">
</g>
<g id="Capa_4">
	<g>
		<g>
			<g>
				<g>
					<g>
						<g>
							<path class="st0" d="M113.21,7.93c0,0.59-0.47,1.05-1.07,1.05c-0.6,0-1.08-0.47-1.08-1.05c0-0.59,0.48-1.05,1.09-1.05
								C112.74,6.88,113.21,7.34,113.21,7.93z M111.32,7.93c0,0.47,0.35,0.84,0.82,0.84c0.45,0.01,0.8-0.37,0.8-0.83
								c0-0.47-0.35-0.84-0.81-0.84C111.68,7.09,111.32,7.47,111.32,7.93z M111.97,8.47h-0.24V7.42c0.1-0.01,0.23-0.03,0.4-0.03
								c0.2,0,0.29,0.03,0.36,0.08c0.06,0.04,0.11,0.12,0.11,0.22c0,0.13-0.1,0.21-0.22,0.25v0.01c0.1,0.03,0.15,0.12,0.19,0.26
								c0.03,0.16,0.06,0.22,0.08,0.26h-0.26c-0.03-0.04-0.05-0.13-0.08-0.26c-0.02-0.11-0.08-0.16-0.22-0.16h-0.11V8.47z
								 M111.98,7.88h0.12c0.13,0,0.24-0.05,0.24-0.15c0-0.1-0.07-0.16-0.22-0.16c-0.06,0-0.11,0.01-0.13,0.01V7.88z"/>
						</g>
					</g>
				</g>
			</g>
		</g>
		<path class="st0" d="M95.08,22.29c0.29,0.07-0.15,0.48,0.21,0.5c0.16,0.01,0.53-0.08,0.42,0.16c0.13-0.2,0.42-0.42,0.72-0.49
			c0.26-0.07,0.5,0.19,0.29,0.33c0.48,0.11,1.26-0.22,1.67-0.51c-0.79-0.17-1.46-0.49-2-0.97c-0.84-0.74-1.26-1.74-1.26-3
			c0-1.51,0.52-2.69,1.57-3.53c1.1-0.88,2.59-1.29,4.47-1.25l2.37-0.23c0-2.22-1.04-3.33-3.1-3.33c-0.68,0-1.35,0.12-2.01,0.37
			c-0.68,0.26-1.26,0.61-1.73,1.06l-0.12-2.18c0.13-0.12,0.28-0.23,0.46-0.33c-0.45-0.03-0.89-0.07-1.35-0.07
			c-0.36,0-0.69-0.01-1.02-0.02l0.01,13.56C94.89,22.37,94.92,22.58,95.08,22.29z"/>
		<path class="st0" d="M98.12,8.4c0.89-0.33,1.81-0.49,2.74-0.49c1.8,0,3.11,0.53,3.91,1.59c0.74,0.96,1.11,2.45,1.12,4.47
			l0.01,5.86l-0.02,2.26l-2.07,0l0-1.87c-0.79,1.11-1.74,1.8-2.85,2.07c0.14-0.01,0.32-0.04,0.6-0.12c0.47-0.13,0.54,0.18,0.4,0.42
			c-0.24,0.43-0.13,0.1-0.4,0.09c-0.05,0.11-0.1,0.22-0.16,0.34l8.53-0.01l-0.02-16.32L94.67,6.69l0,1.83
			c1.09,0.03,2.1,0.06,2.94,0.08C97.77,8.53,97.94,8.47,98.12,8.4z"/>
		<path class="st0" d="M90.42,6.15l5.78-0.01l0-1.9L82.19,4.25l0,1.9l5.78-0.01l0,2.17c0.78,0.02,1.61,0.05,2.45,0.07L90.42,6.15z"
			/>
		<path class="st0" d="M87.97,8.63l0.01,13.44l2.45,0L90.42,8.68c-0.54-0.04-1.16-0.06-1.43-0.16C88.83,8.57,88.46,8.61,87.97,8.63z
			"/>
		<path class="st0" d="M55.91,26.5l0,1.14c1.04-0.22,2.16-0.75,2.46-1.49c0.73,0,0.19,0.33,0.31,0.55
			c-0.81-0.08-0.17,0.25-0.23,0.44c0.18-0.03,0.36-0.05,0.55-0.06c-0.04-0.15-0.07-0.29-0.08-0.44c0.34,0.07,0.16,0.28,0.16,0.44
			c0.12-0.01,0.23-0.05,0.31-0.11c-0.16-0.1-0.12-0.18-0.15-0.33c0.4,0.08,0.18,0.15,0.51,0.05c0.21-0.06,0.38-0.02,0.51,0.11
			c0.72-0.34,0.78-0.22,0.65,0.22c-0.2,0.69-0.95,0.53-1.82,0.5c0.48-0.06-0.08-0.37-0.23-0.39c-0.06,0.17,0.08,0.43,0.08,0.61
			c-0.5,0.14-0.23-0.3-0.47,0.22c0.37,0.04-0.13-0.15,0.23-0.11c0.24,0.18-0.3,0.17-0.39,0.22c0.12,0.04,0.25,0.06,0.39,0.05
			c-0.01,0.45-0.07,0.91-0.08,1.27c0.1,0.21,0.65-0.17,0.78-0.11c-0.03,0.24-0.23-0.09-0.08,0.22c0.3,0.01,0.73-0.43,0.86-0.08
			c0.07,0.19,0.79,0.1,1.09,0.08c0.01,0.08-0.02,0.15-0.08,0.22c0.38-0.04,0.57,0.16,0.94,0.16c0.19-0.12-0.15-0.29,0-0.44
			c0.14,0.19,0.27,0.02,0.47,0c-0.05,0.17,0,0.06,0,0.22c0.27-0.04-0.02-0.18,0.15-0.28c0.31,0.08,0.19,0.45,0.31,0.61
			c0.2-0.03,1.33-0.22,1.33-0.17c0.08,0.11,0.16,0.22,0.23,0.33c0.05-0.27,0.61-0.41,0.7-0.72c0.4-0.03,0.16,0.39,0.24,0.5
			c0.15-0.2,0.39-0.26,0.47-0.5c0.13,0.17,0.42,0.94-0.16,0.88c0.04,0.14,0.41-0.02,0.47,0.11c-0.13-0.3,0.06-0.23,0.23-0.44
			c0.19,0.04-0.07,0.18,0,0.28c0.59-0.14,0.13-0.33-0.08-0.44c0.14-0.24,0.39-0.22,0.39-0.5c0.35,0.11,0.05,0.46,0.47,0.55
			c0.07-0.04,0.1-0.1,0.08-0.17c0.14,0.01,0.19,0.06,0.16,0.17c0.14-0.01,0.22-0.07,0.23-0.17c0.3,0.46,1.27,0.25,1.79,0.27
			c0.23-0.12,0.33-0.29,0.31-0.5c0.17-0.02,0.33-0.07,0.47-0.15c0.38-0.3-0.04-0.03,0.47-0.13c0.08-0.17-0.2-0.1-0.31-0.11
			c0.07-0.12,0.17-0.14,0.31-0.05c0.01-0.08-0.04-0.12-0.16-0.11c0.21-0.23,1.23-0.63,1.25-0.28c0.81-0.28,0.55-0.44,0.62,0.16
			c0.4,0.09,0.55-0.22,0.93-0.22c-0.06,0.18,0.19,0.97,0.08,1.03c0.1-0.06,0.09-0.26,0.31-0.2c0.13,0.16,0.16,0.32,0.08,0.5
			c0.33-0.06,0.08-0.06,0.39,0c-0.09,0.02-0.71,0.39-0.66,0.51c-0.03-0.03-0.05-0.07-0.04-0.12c-0.19,0.1-0.16,0.3-0.47,0.28
			c-0.03,0.17,0.36,0.35-0.08,0.39c0.28,0.08,0.94,0.13,1.01-0.17c0.04,0.06,0.1,0.12,0.16,0.17c0.54-0.3,0.42-0.58,0.23-0.94
			c0.42,0.13,0.43-0.21,0.55-0.39c0.1,0.08,0.15,0.17,0.16,0.28c0.13-0.01,0.04-0.36-0.16-0.33c0.14-0.11,0.29-0.13,0.47-0.06
			c-0.01,0.1-0.09,0.14-0.23,0.11c0.05,0.19,0.12,0.37,0.23,0.55c0.09-0.09,0.41,0,0.23,0.11c0.13-0.06,0.25-0.12,0.39-0.17
			c0.02,0.35-0.05,0.79-0.62,0.89c0.27,0.13,0.06,0.38,0.08,0.55c0.31,0.08,0.19-0.65,0.5-0.31c0.17,0.18-0.43,0.49-0.43,0.69
			c0.15-0.31,0.88-0.27,0.78-0.66c0.3,0.15,0.7-0.16,0.7-0.39c0.1,0.04,0.2,0.04,0.31,0c-0.18,0.25-0.01,0.51,0,0.77
			c0.1-0.02,0.21-0.04,0.31-0.06c-0.01,0.1-0.03,0.19-0.08,0.28c0.14-0.04,0.16-1.03,0.17-1.03c-0.39-0.11,0.13-0.59-0.48-0.52
			c0.51-0.24-0.17-0.72,0.31-0.72c-0.29-0.12-0.01-0.28-0.08-0.39c-0.08,0-0.16,0-0.23,0c0.02-0.15,0.47-0.09,0.23-0.33
			c0.34,0.01,0.23,0.32,0.16,0.44c0.22-0.06,0.35-0.17,0.39-0.33c0.16,0.71,1.28-0.12,1.25-0.15c0.09,0.12,0.11,0.24,0.07,0.37
			c0.25-0.09,0.21,0.08,0.47,0.06c-0.04-0.17-0.24-0.18-0.16-0.39c0.51,0.05-0.32,0.35,0.46,0.05c0.43-0.17,0.32-0.21,0.32-0.55
			c0.25-0.05,0.16,0.16,0.08,0.22c0.14,0.05,0.36-0.09,0.16-0.11c0.09,0.01,0.18,0.04,0.26,0.08l-0.01-6.3
			c-0.05,0.02-0.1,0.06-0.11,0.08c-0.16-0.1-0.06-0.23,0.11-0.32L81.06,4.25L55.89,4.28l0.02,21.8
			C56.14,26.12,56.22,26.22,55.91,26.5z M70.94,14.94c1.1-0.88,2.59-1.29,4.47-1.25l2.36-0.23c0-2.22-1.03-3.33-3.09-3.33
			c-0.68,0-1.35,0.13-2.01,0.37c-0.68,0.26-1.26,0.61-1.73,1.06L70.81,9.4c0.34-0.31,0.86-0.59,1.55-0.84
			c0.89-0.33,1.81-0.49,2.74-0.49c1.8,0,3.11,0.53,3.91,1.59c0.74,0.96,1.11,2.45,1.11,4.47l0.01,5.86l-0.02,2.25l-2.07,0l0-1.87
			c-1.04,1.47-2.36,2.21-3.97,2.21c-1.46,0-2.6-0.37-3.44-1.11c-0.83-0.74-1.25-1.74-1.26-3C69.37,16.96,69.89,15.78,70.94,14.94z
			 M58.29,14.82c1.09-0.88,2.58-1.29,4.47-1.25l2.37-0.23c0-2.22-1.04-3.33-3.1-3.33c-0.68,0-1.35,0.12-2.01,0.37
			c-0.68,0.26-1.26,0.61-1.73,1.06l-0.12-2.18c0.34-0.31,0.85-0.59,1.55-0.84c0.89-0.33,1.8-0.49,2.74-0.49
			c1.8,0,3.11,0.53,3.91,1.59c0.74,0.96,1.11,2.45,1.11,4.47l0.01,5.86l-0.02,2.26l-2.07,0l0-1.87c-1.04,1.47-2.36,2.2-3.97,2.2
			c-1.45,0-2.6-0.37-3.44-1.11c-0.83-0.74-1.26-1.74-1.26-3C56.72,16.84,57.24,15.66,58.29,14.82z"/>
		<path class="st0" d="M48.83,7.72c0.59,0.03,3.36-0.06,5.27-0.03c-0.14-1.83-1.47-3.32-3.17-3.6L42.9,4.05l0,3.59
			C44.85,7.63,46.8,7.63,48.83,7.72z M44.6,5.18c-0.03,0.12-0.1,0.14-0.23,0.05C44.23,5.06,44.5,5.2,44.6,5.18z"/>
		<path class="st0" d="M52.77,8.07c-0.68,0.02-0.72,0.06-1.43,0.11c-0.29-0.37-1.07-0.19-1.63-0.11c0.08-0.04-1.31-0.01-1.6,0.13
			c-0.02-0.12-1.78-0.28-2.06-0.17c0.14-0.01-1.61,0.22-1.82,0.19c0.01-0.29-0.73-0.2-1.31-0.12l0.01,12.21
			c0.03,0.08,0.05,0.15,0.05,0.18c-0.03,0.28,0.04,0.23,0.39,0.42c0.29,0.16,0.43,0.33,0.91,0.16c-0.01,0.08,0.02,0.15,0.08,0.22
			c0.07-0.16,0.17-0.31,0.31-0.44c0.26,0.37,0.97-0.02,1.09,0.5c0.31-0.37,1.13-0.23,1.35-0.07c0.39,0.27,0.07,0.3-0.08,0.64l0.25,0
			c0.07-0.04,0.15-0.07,0.2-0.06c0,0.02,0,0.04,0.01,0.06l0.32,0c0.17-0.11,0.36-0.23,0.38-0.34c0.36,0.01,0.05,0.15,0.31,0.22
			c0.11-0.09,0.22-0.18,0.31-0.28c0.12,0.11,0.08,0.26-0.01,0.38l2.17-0.02c2.28-0.4,4.03-2.46,4.03-4.94
			c0-2.08-1.23-3.86-2.98-4.61l0-0.75c1.24-0.64,2.1-1.96,2.12-3.5C53.76,8.06,53.2,8.07,52.77,8.07z"/>
		<path class="st0" d="M39.26,7.67l0.29-0.61l0,0.61c0.74,0,1.47-0.01,2.21-0.02l0-3.59l-3.43,0l-1.52,3.6
			C37.63,7.67,38.45,7.67,39.26,7.67z"/>
		<path class="st0" d="M28.55,7.55c0-0.01,0.05-0.01,0.13-0.01l0-0.47l0.22,0.47c0.5,0,1.48,0.01,2.52,0.03L29.9,4.07l-3.35,0
			l0,3.44C27.21,7.49,28.07,7.59,28.55,7.55z"/>
		<path class="st0" d="M39.64,21.11c-0.09,0.09-0.07,0.16,0.05,0.22c0.45,0.11,0.75-0.07,0.91-0.48c0.29,0.03,0.77-0.25,1.17-0.44
			L41.76,8.09c-0.55-0.05-1.44-0.09-2.21-0.1l0.01,12.95C39.65,20.99,39.7,21.04,39.64,21.11z"/>
		<path class="st0" d="M38.06,8.01c-0.35-0.04-0.86-0.04-1.38-0.03l-2.5,5.93l-2.58-5.95c-0.21,0.01-0.41,0.03-0.56,0.04
			c0,0.01-0.01,0.02-0.04,0.04c-0.03-0.01-0.03-0.02-0.03-0.03c-0.06,0.01-0.1,0.01-0.14,0.02c0-0.16-0.16,0.03-0.39,0.04
			c-0.02-0.05-0.06-0.09-0.12-0.13c-0.14-0.02-0.7,0.02-1.18,0.05l4.18,9.05l1.57,0l4.26-9.07C38.52,7.97,38.08,7.98,38.06,8.01z
			 M38.32,7.99C38.47,8.06,38.18,8.06,38.32,7.99L38.32,7.99z"/>
		<path class="st0" d="M27.39,8.13c-0.28-0.02-0.56-0.04-0.84-0.05l0.01,8.35c0.03,0.02,0.05,0.04,0,0.07l0.01,5.43l2.13,0l0-3.89
			c-0.17,0.07-0.17,0.02,0-0.16v-0.03c-0.09,0.1-0.19,0.19-0.31,0.27c0.08-0.16,0.15-0.15,0.15-0.27c-0.11-0.03-0.15-0.02-0.14,0.04
			c-0.03-0.09-0.02-0.17,0.04-0.24c0.1,0.06,0.2,0.11,0.26,0.16l-0.01-9.78c-0.09,0.01-0.17,0.01-0.23,0.01
			C28.25,8.05,27.34,8.13,27.39,8.13z M26.73,16.23c-0.02,0.02-0.02,0.04-0.02,0.06C26.67,16.25,26.67,16.23,26.73,16.23z
			 M26.67,16.48c0.07,0.02,0.14,0.03,0.21,0.05C26.79,16.6,26.72,16.58,26.67,16.48z M26.95,17.03c-0.02-0.09-0.01-0.1,0.03-0.03
			C26.98,17.1,26.81,17.04,26.95,17.03z M27.21,17.33C27.2,17.33,27.17,17.25,27.21,17.33L27.21,17.33z M27.27,17.09
			C27.27,17.15,27.13,17,27.27,17.09L27.27,17.09z M27.29,17.22C27.26,17.21,27.31,17.2,27.29,17.22L27.29,17.22z M26.98,16.78
			c0.01-0.03,0.4-0.03,0.36-0.03C27.19,16.89,27.1,16.77,26.98,16.78z M28.57,18.09c-0.01,0.02-0.03,0.03-0.04,0.05
			C28.45,18.08,28.48,18.07,28.57,18.09z M27.85,17.6C27.75,17.71,27.52,17.58,27.85,17.6L27.85,17.6z M27.66,17.36
			c0.02-0.01,0.17-0.12,0.19-0.03C27.78,17.34,27.72,17.35,27.66,17.36z M28.06,18.32C27.87,18.25,28.3,18.22,28.06,18.32
			L28.06,18.32z M27.94,17.91c0.44-0.08-0.01-0.4,0.31-0.49c-0.03,0.09,0.06,0.16,0.16,0.22C28.29,17.71,28.01,18.04,27.94,17.91z"
			/>
		<path class="st0" d="M27.27,17.09C27.13,17,27.27,17.15,27.27,17.09L27.27,17.09z"/>
		<path class="st0" d="M28.06,18.32C28.3,18.22,27.87,18.25,28.06,18.32L28.06,18.32z"/>
		<path class="st0" d="M28.25,17.42c-0.32,0.09,0.14,0.41-0.31,0.49c0.06,0.13,0.34-0.19,0.47-0.27
			C28.31,17.57,28.23,17.51,28.25,17.42z"/>
		<path class="st0" d="M27.85,17.6C27.52,17.58,27.75,17.71,27.85,17.6L27.85,17.6z"/>
		<path class="st0" d="M27.66,17.36c0.06-0.01,0.12-0.02,0.19-0.03C27.82,17.24,27.68,17.36,27.66,17.36z"/>
		<path class="st0" d="M28.53,18.14c0.01-0.02,0.03-0.03,0.04-0.05C28.48,18.07,28.45,18.08,28.53,18.14z"/>
		<path class="st0" d="M26.88,16.53c-0.07-0.02-0.14-0.03-0.21-0.05C26.72,16.58,26.79,16.6,26.88,16.53z"/>
		<path class="st0" d="M26.95,17.03c-0.14,0.01,0.03,0.07,0.03-0.03C26.94,16.93,26.93,16.94,26.95,17.03z"/>
		<path class="st0" d="M27.21,17.33C27.17,17.25,27.2,17.33,27.21,17.33L27.21,17.33z"/>
		<path class="st0" d="M26.98,16.78c0.12-0.01,0.21,0.11,0.36-0.03C27.38,16.75,26.99,16.75,26.98,16.78z"/>
		<path class="st0" d="M27.29,17.22C27.31,17.2,27.26,17.21,27.29,17.22L27.29,17.22z"/>
		<path class="st0" d="M28.39,17.89c-0.02-0.06,0.03-0.07,0.14-0.04c0,0.12-0.07,0.11-0.15,0.27c0.12-0.08,0.23-0.17,0.31-0.27
			v-0.04c-0.06-0.06-0.17-0.11-0.26-0.16C28.37,17.72,28.36,17.8,28.39,17.89z"/>
		<path class="st0" d="M28.69,18.04v-0.16C28.52,18.06,28.52,18.11,28.69,18.04z"/>
		<path class="st0" d="M26.56,16.43v0.07C26.6,16.47,26.59,16.44,26.56,16.43z"/>
		<path class="st0" d="M26.73,16.23c-0.06,0-0.06,0.02-0.02,0.06C26.71,16.27,26.72,16.25,26.73,16.23z"/>
		<g>
			<g>
				<path class="st0" d="M25.32,0L13.08,0.01l0.02,16.92c0-1.51,0.52-2.69,1.57-3.53c1.09-0.88,2.58-1.29,4.47-1.25l2.36-0.23
					c0-2.22-1.03-3.33-3.1-3.33c-0.68,0-1.36,0.13-2.01,0.37c-0.68,0.26-1.26,0.61-1.73,1.06l-0.12-2.17
					c0.34-0.31,0.86-0.59,1.54-0.84c0.9-0.33,1.81-0.49,2.74-0.49c1.8,0,3.11,0.53,3.91,1.59c0.74,0.96,1.11,2.45,1.11,4.47
					l0.01,5.86l-0.02,2.25l-2.07,0l0-1.87c-1.04,1.47-2.36,2.2-3.97,2.2c-1.45,0-2.6-0.37-3.44-1.11c-0.83-0.74-1.25-1.74-1.26-2.99
					l0.01,6.61l12.24-0.01L25.32,0z M13.09,16.94C13.09,16.94,13.09,16.94,13.09,16.94L13.09,16.94
					C13.09,16.94,13.09,16.94,13.09,16.94z"/>
			</g>
		</g>
		<path class="st0" d="M0.16,6.78c-0.1,0.01,0.37,0.18,0.26,0.05C0.34,6.79,0.26,6.78,0.16,6.78z"/>
		<path class="st0" d="M0.32,4.58c-0.05,0.01-0.2-0.04-0.31-0.08V4.8C0.13,4.72,0.28,4.64,0.32,4.58z"/>
		<path class="st0" d="M0.33,4.55c0,0.01,0,0.02-0.01,0.03C0.33,4.58,0.34,4.57,0.33,4.55z"/>
		<path class="st0" d="M0.32,7.1c0,0.04,0.03,0.05,0.08,0.07C0.4,7.13,0.37,7.11,0.32,7.1z"/>
		<path class="st0" d="M0.21,8.2c0,0.05,0.05,0.07,0.09,0.07c0.02,0,0.05-0.01,0.07-0.01C0.43,8.23,0.44,8.19,0.21,8.2z"/>
		<path class="st0" d="M4.58,5.68C4.49,5.67,4.55,5.59,4.41,5.61C4.39,5.66,4.53,5.73,4.58,5.68z"/>
		<path class="st0" d="M4.58,5.55C4.57,5.58,4.52,5.59,4.54,5.63C4.68,5.65,4.71,5.56,4.58,5.55z"/>
		<path class="st0" d="M7.97,8.22c0.01,0.04-0.05,0.11,0.08,0.09C8.05,8.27,8.03,8.24,7.97,8.22z"/>
		<path class="st0" d="M4,4.21l-0.11,0C3.88,4.24,3.86,4.27,3.84,4.28C3.9,4.25,3.95,4.23,4,4.21z"/>
		<path class="st0" d="M5.27,7.34c0.01,0,0.02,0,0.03,0C5.3,7.34,5.29,7.34,5.27,7.34z"/>
		<path class="st0" d="M3.28,5.57C3.29,5.54,3.3,5.52,3.3,5.53C3.28,5.54,3.28,5.56,3.28,5.57z"/>
		<path class="st0" d="M5.32,4.6c-0.04,0-0.79-0.01-0.82-0.01C4.03,4.52,3.85,4.5,3.37,4.73C3.11,4.85,2.71,4.86,2.71,5.1
			C2.54,5.15,2.35,5.17,2.14,5.16C2.27,5.02,2.2,4.98,2.37,4.93c-0.06,0-0.11,0-0.17,0c0.15-0.14,0.35-0.08,0.48-0.14
			C2.63,4.72,2.3,4.56,2.22,4.52c-0.39,0.07-0.4,0.34-0.8,0.41C1.06,4.9,1.22,4.72,1.09,4.68c-0.13,0.06-0.26,0.06-0.39,0
			c0.16-0.08,0.25-0.18,0.27-0.29C0.74,4.35,0.11,5.07,0.07,5.2C0.04,5.19,0.02,5.18,0,5.17l0,1.09c0.09,0.02,0.16,0.01,0.19-0.05
			c0.11,0.11,0.06,0.2-0.14,0.27C0.03,6.46,0.01,6.45,0,6.43v0.1c0.19,0.12,0.26,0.26,0.54,0.34c0.03-0.1,0.5-0.45,0.85-0.46
			c-0.09,0.06-1,0.6-0.94,0.65C0.5,7.03,0.58,7.02,0.66,7.03c-0.24,0.55,2.49,0,2.7,0.39c0.36-0.16,1.69-0.1,1.91-0.09
			c-0.07,0-0.13-0.02-0.18-0.04c0,0,0.47-0.24,0.52-0.12c0,0-0.28,0.2-0.27,0.25c0.04,0.01,0.9-0.21,0.89-0.21
			c0.51-0.11,0.05,0.14,0.32,0.21c0.2-0.08,0.24-0.17,0.1-0.27C6.8,7.12,7.3,7.17,7.03,7.28C6.7,7.41,8.22,7.17,8.16,7.19
			c-0.13,0.26,0.12,0.2,0.42,0.17C8.49,7.3,9.79,7.37,9.79,7.37c0.01-0.08-0.05-0.15-0.16-0.21c0.14-0.01,0.23,0.02,0.25,0.09
			c0.07-0.07,0.17-0.13,0.31-0.17c0.04,0.06,0.11,0.11,0.21,0.15c-0.05-0.32,0.34-0.24,0.68-0.13c-0.03-0.1-0.06-0.21-0.09-0.31
			c-0.04,0-0.07-0.02-0.01-0.02c-0.47-1.3-1.59-2.28-2.96-2.5l-1.8-0.01c-0.19,0.17-0.45,0.35-0.46,0.3
			c0.11-0.04,0.08-0.17,0.15-0.3l-0.53,0C5.4,4.4,5.34,4.58,5.32,4.6z M0.34,6.6C0.33,6.7,0.14,6.6,0.34,6.6L0.34,6.6z M0.69,4.91
			C0.63,4.9,0.79,4.82,0.87,4.8C0.92,4.89,0.74,4.87,0.69,4.91z M3.48,5.13C3.49,5.17,3.44,5.17,3.44,5.2
			C3.35,5.2,3.38,5.1,3.48,5.13z M3.41,5.64c-0.07,0-0.05-0.06,0.05-0.06C3.56,5.57,3.44,5.64,3.41,5.64z M3.43,5.39
			C3.42,5.49,3.22,5.38,3.43,5.39L3.43,5.39z M3.31,5.22C3.3,5.32,3.1,5.21,3.31,5.22L3.31,5.22z M2.27,5.2
			c0.14,0.02,0.04,0.05,0,0.08C2.14,5.27,2.31,5.24,2.27,5.2z M2.38,5.63c-0.06,0.05-0.2,0.06-0.31,0.08
			C2.13,5.66,2.24,5.57,2.38,5.63z M1.99,5.54C1.89,5.5,2.04,5.46,1.96,5.41C2.12,5.39,2.03,5.52,1.99,5.54z M1.17,5.81
			c-0.35-0.06,0.24-0.38,0.4-0.4c-0.04-0.01-0.08-0.01-0.13,0c0.13-0.1,0.34-0.15,0.53-0.18c0-0.01,0-0.01,0,0h0
			c-0.02,0.06-0.1,0.39,0.01,0.39c0.01-0.04,0.03-0.07,0.1-0.05C2.04,5.59,2,5.61,1.98,5.61C1.97,5.68,2,5.78,1.98,5.79
			c-0.02,0-0.29-0.16-0.29-0.22C1.57,5.77,1.36,5.7,1.21,5.7C1.03,5.71,1.38,5.84,1.17,5.81z M1.69,6.43
			C1.68,6.37,1.78,6.37,1.86,6.36C1.87,6.42,1.8,6.43,1.69,6.43z M1.8,6.62C1.75,6.65,1.63,6.49,1.77,6.53
			C1.78,6.54,1.85,6.59,1.8,6.62z M1.81,5.77c0.09,0,0.05,0.06,0.17,0.04C1.92,5.87,1.77,5.86,1.81,5.77z M0.67,6.92
			C0.69,6.89,0.72,6.88,0.8,6.88C0.78,6.91,0.74,6.92,0.67,6.92z M1.51,6.53c0.02,0.02,0.04,0.04,0.08,0.04
			C1.46,6.59,0.93,6.64,1.51,6.53z M2.19,6.66c0.09,0.06,0.1,0.12,0.03,0.19c-0.1-0.03-0.1-0.07,0.01-0.11
			c-0.2-0.02-0.36,0.02-0.48,0.12C1.7,6.68,1.61,6.85,1.63,6.64c0.09-0.02,0.05,0.08,0.25,0.09c-0.03-0.05-0.03-0.1,0.01-0.15
			c0.07,0.01,0.1,0.03,0.08,0.06C2.07,6.53,2.23,6.5,2.45,6.56C2.47,6.65,2.28,6.66,2.19,6.66z M2.29,6.52
			C2.3,6.33,2.38,6.4,2.55,6.33C2.55,6.31,2.09,6.14,2.57,6.12c0.01-0.13-0.13-0.07,0.22-0.08C2.77,6.11,2.69,6.52,2.29,6.52z
			 M3.1,5.72C3.02,5.75,3.01,5.77,3.06,5.79c0.02,0,0.04,0.01,0.04,0.02c-0.02,0-0.03-0.01-0.04-0.02C2.92,5.77,2.48,5.86,2.38,5.92
			C2.37,5.94,2.37,5.95,2.36,5.95c0.01,0,0.01-0.01,0.02-0.02c0.06-0.08,0.15-0.37,0.09-0.47c0.14,0.02,0.16,0.06,0.04,0.11
			c0.2,0.11,0.17-0.12,0.18-0.12c0.25,0.08,0.02,0.04,0.08,0.15c0.09-0.16,0.34,0.07,0.4-0.12C3.2,5.5,3.24,5.51,3.29,5.49
			c0.12,0.01,0,0.15,0.04,0.21C3.35,5.7,3.35,5.71,3.37,5.72C3.35,5.71,3.35,5.7,3.33,5.7C3.29,5.67,3.27,5.65,3.27,5.62
			C3.22,5.71,3.1,5.89,3.1,5.72z M3.34,6.09c-0.54-0.17,0.22-0.1,0.22-0.1C3.49,6.02,3.42,6.05,3.34,6.09z M10.5,6.94
			C10.52,7.06,10.15,6.94,10.5,6.94L10.5,6.94z M10.7,6.27c0.01-0.01,0.02-0.02,0.02,0C10.71,6.26,10.7,6.26,10.7,6.27
			c-0.06,0.06-0.27,0.39-0.27,0.4c0.06-0.03,0.13-0.05,0.22-0.06c0.03,0.09,0.01,0.19-0.06,0.28c-0.09-0.05-0.17-0.05-0.26,0
			c0.04-0.05,0-0.15,0.06-0.21C10.05,6.6,10.5,6.3,10.7,6.27z M9.54,6.31c0.27,0.01,0.02-0.12,0.27-0.12
			c0.06,0.13-0.03,0.22-0.27,0.27C9.42,6.42,9.31,6.37,9.2,6.33C9.35,6.15,9.66,6.06,9.54,6.31z M9.13,5.27
			C9.12,5.36,9.06,5.43,8.94,5.5C8.87,5.49,8.8,5.48,8.73,5.47C8.84,5.35,8.83,5.26,9.13,5.27z M8.89,5.6
			c0.12,0.08,0.07,0.12-0.14,0.13C8.6,5.64,8.85,5.65,8.89,5.6z M8.71,5.75C8.73,5.75,8.68,5.88,8.71,5.75L8.71,5.75z M8.14,6
			c0.04,0,0.09,0,0.13,0C8.33,6.06,8.07,6.06,8.14,6z M7.82,4.64C7.94,4.66,7.8,4.72,7.69,4.7C7.68,4.65,7.82,4.68,7.82,4.64z
			 M7.73,4.74c0,0.07-0.08,0.09-0.18,0.1C7.6,4.81,7.62,4.75,7.73,4.74z M7.32,4.44c0.11,0,0.17,0.03,0.17,0.09
			C7.35,4.53,7.29,4.5,7.32,4.44z M7.33,5.8c0.1,0.02,0.04,0.13-0.09,0.11C7.21,5.84,7.36,5.86,7.33,5.8z M7.09,5.5
			C7.08,5.6,6.88,5.49,7.09,5.5L7.09,5.5z M5.18,4.94C5.02,4.87,5.31,4.87,5.18,4.94L5.18,4.94z M4.69,5.13
			C4.73,5.2,4.55,5.16,4.52,5.15C4.53,5.12,4.63,5.13,4.69,5.13z M4.21,5.23C4.23,5.23,4.18,5.35,4.21,5.23L4.21,5.23z M4.33,5.48
			c-0.02-0.16,0.24-0.3,0.06-0.3c0.12,0,0.23,0,0.34,0C4.92,5.32,4.53,5.46,4.33,5.48z M4.82,5.15c0.11,0,0.17,0.03,0.17,0.09
			C4.84,5.25,4.83,5.2,4.82,5.15z M5.16,5.26C5.09,5.22,5.04,5.18,4.99,5.13c0.12,0.01,0.18-0.02,0.18-0.08
			C5.24,5.12,5.23,5.19,5.16,5.26z M5.26,5.01C5.14,5.08,5.16,4.9,5.26,5.01L5.26,5.01z M5.43,4.99C5.46,5.06,5.09,5,5.43,4.99
			L5.43,4.99z M5.77,5.84C5.72,5.8,5.83,5.69,6,5.69C6.07,5.75,5.92,5.83,5.77,5.84z M5.92,5.5C5.91,5.6,5.51,5.5,5.92,5.5L5.92,5.5
			z M5.4,4.84C5.07,4.77,5.5,4.69,5.62,4.69C5.61,4.76,5.43,4.75,5.4,4.84z"/>
		<path class="st0" d="M3.44,4.51c-0.09,0-0.08-0.03-0.13-0.05C3.21,4.53,3.37,4.56,3.44,4.51z"/>
		<path class="st0" d="M3.14,4.42c0.07,0,0.16,0.01,0.17-0.02C3.26,4.37,3.16,4.37,3.14,4.42z"/>
		<path class="st0" d="M3.08,5.54C3.02,5.57,3.04,5.63,3.16,5.63C3.17,5.58,3.15,5.55,3.08,5.54z"/>
		<path class="st0" d="M1.68,14.3c0.03,0.07-0.18,0.02-0.14,0.1C1.69,14.43,1.77,14.32,1.68,14.3z"/>
		<path class="st0" d="M3.41,14.94c0.01,0.04-0.05,0.11,0.08,0.09C3.51,14.98,3.49,14.94,3.41,14.94z"/>
		<path class="st0" d="M3.19,10.35c0-0.12,0-0.03-0.17-0.11C2.81,10.38,3.07,10.32,3.19,10.35z"/>
		<path class="st0" d="M3.29,13.17c0,0-0.33,0.08-0.4,0.14c0.07,0.02,0.14,0.05,0.21,0.07c0.14-0.01,0.17-0.18,0.33-0.22
			C3.74,13.09,3.18,13.17,3.29,13.17z"/>
		<path class="st0" d="M4.81,9.89C4.81,9.95,4.96,9.9,4.81,9.89L4.81,9.89z"/>
		<path class="st0" d="M4.64,14.49c-0.07,0.03-0.15,0.07-0.22,0.1C4.8,14.78,4.69,14.49,4.64,14.49z"/>
		<path class="st0" d="M4.82,14.38C4.62,14.3,4.76,14.51,4.82,14.38L4.82,14.38z"/>
		<path class="st0" d="M4.03,9.92C4.08,9.9,5.01,9.6,4.79,9.55c-0.13,0.07-0.29,0.1-0.48,0.1c0-0.05,0.01-0.1,0.01-0.15
			C4.18,9.48,3.83,9.83,4.03,9.92z"/>
		<path class="st0" d="M4.01,9.58C3.9,9.57,3.89,9.62,3.87,9.66C4.01,9.68,3.94,9.59,4.01,9.58z"/>
		<path class="st0" d="M3.94,13.08C3.95,13.2,4.14,13.1,3.94,13.08L3.94,13.08z"/>
		<path class="st0" d="M4.19,13.31C4.16,13.42,4.17,13.39,4.19,13.31L4.19,13.31z"/>
		<path class="st0" d="M3.68,10.33c0.04-0.01,0.14,0.06,0.2-0.05C3.79,10.27,3.72,10.29,3.68,10.33z"/>
		<path class="st0" d="M1.39,15.5C1.29,15.48,1.37,15.54,1.39,15.5L1.39,15.5z"/>
		<path class="st0" d="M10.92,8.68C11,8.24,11,8.11,9.87,8.2c0.02-0.28-0.72,0.12-0.61,0.12C8.84,8.35,8.66,7.96,7.83,8.5
			c0-0.57-0.58-0.1-1.03-0.16C6.25,8.26,6.69,8.06,6.24,8.33C5.64,8.1,6.18,8.21,5.48,8.16C5.32,8.15,4.84,8.29,4.83,8.12
			C4.52,8.15,1.51,8.25,1.5,8.23c-0.09,0.02-0.15,0.06-0.18,0.1C1.3,8.28,1.24,8.23,1.16,8.2C0.77,8.53,0.78,8.35,0.55,8.26
			C0.51,8.28,0.44,8.29,0.37,8.31c-0.02,0-0.04,0.01-0.07,0.01C0.21,8.33,0.11,8.35,0,8.36l0,0.77c0.32-0.05,1.53-0.24,0.82-0.31
			c-0.04,0.05-0.04,0.1-0.01,0.15c-0.23-0.14-0.3-0.09-0.2-0.22C0.54,8.73,1.26,8.59,1.24,8.63C1.2,8.72,1.36,8.74,1.56,8.75
			c0.04-0.06,0.09-0.03,0.1,0c0.25,0,0.54-0.01,0.59,0.03C1.96,9.03,1.7,8.98,1.85,8.97C1.7,8.93,0.33,9.58,0.44,9.26
			C0.37,9.29,0.19,9.33,0,9.37l0,1.97c0.03-0.03,0.08-0.05,0.16-0.06c-0.01,0.15-0.09,0.05-0.16,0.12l0,2.98
			c0.02-0.01,0.05-0.02,0.07-0.02c0.09,0.08,0.12,0.17,0.07,0.26c-0.05,0.01-0.1,0.01-0.14,0.02l0.01,7.22l8.02-0.08
			c0.37-0.06,0.73-0.17,1.06-0.32c0.02-0.03,0.05-0.05,0.1-0.04c0,0,0,0,0,0c0.07-0.03,0.15-0.07,0.22-0.11
			c0.01-0.01,0.03-0.01,0.04-0.02c0.07-0.04,0.13-0.07,0.2-0.11c-0.01-0.02-0.01-0.05,0.01-0.05c0,0.02,0,0.03,0,0.04
			c1.44-0.85,2.4-2.44,2.4-4.25c0-2.04-1.23-3.8-2.97-4.54l0-0.48c-0.05,0.01-0.11,0.03-0.16,0.05c-0.15,0.13-0.22-0.14,0.01-0.23
			c0.04-0.01,0.09-0.04,0.14-0.06v-0.01c0.14-0.07,0.28-0.15,0.41-0.24c-0.1,0.05-0.22,0.08-0.32,0.06
			c0.02-0.26-0.15,0.07-0.43,0.06c-0.03-0.19,0.04-0.31,0.2-0.55c0.37,0.06-0.02,0.25-0.1,0.32c0.37,0.16,0.52-0.18,0.87-0.18
			c0.04,0.04,0.01,0.1-0.05,0.17c0.22-0.17,0.43-0.36,0.61-0.57c-0.04,0-0.07-0.01-0.11-0.01c0.03-0.06,0.07-0.36,0.35-0.3
			c0.35-0.51,0.58-1.11,0.66-1.76C11.04,8.7,10.93,8.74,10.92,8.68z M0.56,8.89C0.52,8.96,0.31,8.89,0.56,8.89L0.56,8.89z
			 M0.17,9.69c0.05-0.11,0.1-0.22,0.1-0.27C0.37,9.41,0.27,9.7,0.17,9.69z M1.01,10.09c0.03,0.04,0.04,0.09,0.04,0.13
			C0.88,10.35,1,10.03,1.01,10.09z M1.09,10.11C1.16,10.08,1.1,10,1.27,10.03C1.3,10.1,1.19,10.1,1.09,10.11z M1.44,9.37
			C1.43,9.47,1.23,9.37,1.44,9.37L1.44,9.37z M1.62,9.92c-0.07,0,0.03-0.1,0.13-0.08C1.79,9.91,1.64,9.88,1.62,9.92z M1.57,9.27
			C1.62,9.22,1.68,9.2,1.75,9.18C1.6,9.2,1.6,9.11,1.67,9.08c0.09,0,0.09,0.05,0.08,0.11C1.85,9.15,1.97,9.15,2.1,9.14
			C2.09,9.36,1.84,9.31,1.57,9.27z M1.94,11.16c0.01-0.05,0.07-0.08,0.18-0.08C2.13,11.14,2.08,11.17,1.94,11.16z M2.94,8.63
			C2.93,8.8,2.69,8.61,2.94,8.63L2.94,8.63z M3.2,8.65c0,0.02-0.54,0.46-0.54,0.46C2.26,8.89,3.17,8.65,3.2,8.65z M2.88,11.32
			c-0.19,0.07-0.25-0.12,0.01-0.09C2.89,11.26,2.88,11.29,2.88,11.32z M3.27,11.24c-0.18-0.02-0.25-0.08-0.21-0.17
			c0.12-0.03,0.23-0.03,0.35,0C3.41,11.14,3.36,11.19,3.27,11.24z M3.24,10.35c-0.1-0.02-0.04-0.21,0.18-0.19
			C3.4,10.22,3.26,10.31,3.24,10.35z M3.89,9.51C3.87,9.34,3.9,9.61,3.89,9.51L3.89,9.51z M4.23,9.55c-0.03,0-0.06,0-0.09,0
			C4.11,9.45,4.38,9.52,4.23,9.55z M4.5,9.28c-0.1,0.03-0.13,0.07-0.09,0.13c0.06,0-0.35,0.03-0.3,0.04C4.06,9.27,4.74,9,5.12,9.01
			C5,9.12,4.48,9.46,4.5,9.28z M5.06,9.44C5.04,9.36,5.1,9.31,5.24,9.31C5.23,9.38,5.23,9.45,5.06,9.44z M5.49,20.39
			C5.99,20.4,5.46,20.52,5.49,20.39L5.49,20.39z M5.81,11.36c-0.08,0.04-0.2-0.1-0.04-0.06C5.79,11.29,5.85,11.34,5.81,11.36z
			 M11.58,18.73c-0.12,0.14-0.24,0.15-0.34,0.03C11.35,18.75,11.47,18.74,11.58,18.73z M10.86,16.32c0,0.01,0,0.01,0,0.02
			C10.78,16.31,10.82,16.31,10.86,16.32z M10.33,16.45c-0.06-0.01-0.11-0.04-0.12-0.1C10.28,16.36,10.32,16.39,10.33,16.45z
			 M9.94,18.16c-0.01,0-0.01,0-0.02,0C9.95,18.14,9.97,18.13,9.94,18.16z M8.6,20.61C8.5,20.62,8.48,20.57,8.6,20.61L8.6,20.61z
			 M7.97,20.59c0.12-0.02,0.18-0.08,0.16-0.18c-0.01,0,0.33,0.22,0.34,0.22c0.02-0.04-0.41,0.15-0.48,0.14
			c0.01-0.08,0.07-0.11,0.19-0.09C8.11,20.65,8.04,20.62,7.97,20.59z M8,19.8c0.05,0.04,0.1,0.07,0.15,0.11
			C8.06,20.08,8.01,20.05,8,19.8z M8.12,8.63C8.04,8.75,7.88,8.84,7.63,8.9C7.45,8.82,7.98,8.6,8.12,8.63z M7.82,19.65
			C8.03,19.63,7.91,19.68,7.82,19.65L7.82,19.65z M7.78,20.03c-0.08,0.01-0.14-0.32-0.02-0.11C7.96,19.84,7.97,19.88,7.78,20.03z
			 M7.74,8.45C7.75,8.52,7.73,8.6,7.69,8.66C7.45,8.53,7.73,8.6,7.48,8.53C7.54,8.49,7.63,8.46,7.74,8.45z M6.91,19.89
			c0.06,0.01,0.11,0.04,0.12,0.1C6.96,19.98,6.92,19.95,6.91,19.89z M8.36,21.48C8.56,21.57,8.23,21.61,8.36,21.48L8.36,21.48z
			 M8.17,21.57c-0.04-0.01-0.49-0.15-0.58-0.01c-0.05-0.05-0.12-0.1-0.11-0.1c-0.07,0.07-0.06,0.13-0.29,0.21
			c0-0.07,0.06-0.12,0.17-0.15c-0.28,0.1,0.52-0.2,0.05-0.29c0.16-0.09,0.39-0.04,0.56-0.11c0.09-0.04,0.08-0.18,0.04-0.25
			c0.07,0.03,0.18,0.03,0.19-0.02c-0.02,0.07-0.03,0.14-0.05,0.2c0.01-0.04,0.04-0.11,0.03,0.01c0.3-0.03-0.05-0.25-0.05-0.32
			c0.45,0.01,0.46,0.57,0,0.56c0.1,0.02,0.2,0.04,0.3,0.06C8.43,21.43,8.18,21.37,8.17,21.57z M8.6,21.46
			C8.61,21.23,8.88,21.44,8.6,21.46L8.6,21.46z M8.97,21.22c0.05-0.07,0.02-0.07,0.01-0.08c0.01,0,0.05-0.01,0.17-0.05
			C9.29,21.37,8.73,21.55,8.97,21.22z M9.26,21.19c0.1,0.06,0.12-0.04,0.3-0.02C9.56,21.22,9.26,21.34,9.26,21.19z M9.52,19.01
			c0.03,0,0.04,0,0.05,0.01c0-0.03,0.06-0.08,0.08-0.01c-0.06,0.04-0.07,0.03-0.08,0.02c-0.03,0.01-0.36,0.01-0.29,0.01
			C9.29,18.61,9.52,19.03,9.52,19.01z M9.11,18.41c0.05-0.07,0.29-0.22,0.4-0.11c-0.07,0.04-0.11,0.09-0.11,0.13
			c-0.04-0.02,0.01-0.03-0.13-0.04C9.37,18.77,9.06,18.48,9.11,18.41z M9.17,20.63C9.33,20.75,8.99,20.68,9.17,20.63L9.17,20.63z
			 M8.99,20.61c0,0.05,0,0.09,0,0.14C8.91,20.67,8.91,20.63,8.99,20.61z M8.91,20.94c-0.01-0.03-0.01-0.07,0-0.11
			c0.16,0.05,0.31,0.12,0.43,0.21c-0.22,0.07-0.35,0.06-0.41-0.03c-0.1,0.12-0.35,0.3-0.45,0.31C8.41,20.97,8.67,20.97,8.91,20.94z
			 M8.7,10.59c-0.01-0.09,0.03-0.16,0.22-0.15C8.92,10.52,8.82,10.56,8.7,10.59z M8.98,8.74c0.04,0,0.09,0,0.13,0
			C9.17,8.81,8.91,8.81,8.98,8.74z M9.78,8.27c0.31,0.03,0.02-0.02-0.05,0.15C9.74,8.36,9.76,8.31,9.78,8.27z M9.45,8.86
			C9.32,8.88,9.37,8.81,9.37,8.77C9.44,8.78,9.46,8.81,9.45,8.86z M9.56,8.46c0.24-0.04,0.24,0.16,0.47,0.17
			C9.86,8.65,9.73,8.69,9.63,8.75C9.49,8.71,9.44,8.42,9.56,8.46z M9.61,8.96C9.58,8.9,9.83,8.74,9.93,8.76
			c-0.13-0.11-0.04-0.04,0.13-0.06C10.11,8.78,9.76,8.97,9.61,8.96z M10.52,8.95c-0.27-0.01,0.1-0.14,0.14-0.15
			C10.65,8.87,10.6,8.91,10.52,8.95z M10.88,8.66C10.87,8.76,10.68,8.66,10.88,8.66L10.88,8.66z"/>
		<path class="st0" d="M0.46,9.18C0.45,9.19,0.45,9.2,0.45,9.21C0.49,9.19,0.5,9.18,0.46,9.18z"/>
		<path class="st0" d="M1.13,8.66c0-0.03,0.06-0.03,0.05-0.06C1.08,8.56,1.05,8.66,1.13,8.66z"/>
		<path class="st0" d="M9.66,21.18c0,0,0.01,0,0.01-0.01c0-0.01,0-0.02,0-0.04C9.65,21.13,9.65,21.16,9.66,21.18z"/>
		<path class="st0" d="M11.58,18.73c-0.11,0.01-0.23,0.02-0.34,0.03C11.34,18.88,11.45,18.87,11.58,18.73z"/>
		<path class="st0" d="M8.97,21.14c0.01,0,0.04,0.01-0.01,0.08c-0.24,0.33,0.32,0.15,0.18-0.12C9.03,21.13,8.99,21.14,8.97,21.14z"
			/>
		<path class="st0" d="M6.91,19.89c0.01,0.06,0.05,0.09,0.12,0.1C7.02,19.93,6.97,19.9,6.91,19.89z"/>
		<path class="st0" d="M5.49,20.39C5.46,20.52,5.99,20.4,5.49,20.39L5.49,20.39z"/>
		<path class="st0" d="M10.86,16.33c0-0.01,0-0.01,0-0.02C10.82,16.31,10.78,16.31,10.86,16.33z"/>
		<path class="st0" d="M10.33,16.45c-0.01-0.06-0.05-0.09-0.12-0.1C10.22,16.41,10.27,16.44,10.33,16.45z"/>
		<path class="st0" d="M7.78,20.03c0.19-0.16,0.18-0.19-0.02-0.11C7.64,19.72,7.7,20.04,7.78,20.03z"/>
		<path class="st0" d="M7.82,19.65C7.91,19.68,8.03,19.63,7.82,19.65L7.82,19.65z"/>
		<path class="st0" d="M7.91,21.26c0.08,0.02,0.16,0.03,0.24,0.05c0.46,0.01,0.45-0.55,0-0.56c0,0.07,0.35,0.28,0.05,0.32
			c0.01-0.12-0.02-0.05-0.03-0.01c0.02-0.07,0.03-0.14,0.05-0.2c-0.01,0.05-0.12,0.05-0.19,0.02c0.04,0.07,0.05,0.21-0.04,0.25
			c-0.17,0.07-0.4,0.02-0.56,0.11c0.47,0.09-0.34,0.39-0.05,0.29c-0.12,0.03-0.18,0.08-0.17,0.15c0.23-0.09,0.22-0.14,0.29-0.21
			c-0.01,0,0.06,0.05,0.11,0.1c0.09-0.14,0.53,0,0.58,0.01c0.01-0.19,0.26-0.13,0.27-0.2c-0.1-0.02-0.2-0.04-0.3-0.06
			C8.07,21.31,7.99,21.29,7.91,21.26z"/>
		<path class="st0" d="M8.14,21.31c-0.08-0.02-0.16-0.03-0.24-0.05C7.99,21.29,8.07,21.31,8.14,21.31z"/>
		<path class="st0" d="M8.36,21.48C8.23,21.61,8.56,21.57,8.36,21.48L8.36,21.48z"/>
		<path class="st0" d="M8,20.76c0.07,0.01,0.5-0.18,0.48-0.14c-0.01,0-0.35-0.22-0.34-0.22c0.01,0.1-0.04,0.16-0.16,0.18
			c0.07,0.03,0.14,0.06,0.22,0.09C8.07,20.65,8,20.68,8,20.76z"/>
		<path class="st0" d="M8.15,19.91C8.1,19.87,8.05,19.84,8,19.8C8.01,20.05,8.06,20.08,8.15,19.91z"/>
		<path class="st0" d="M9.17,20.63C8.99,20.68,9.33,20.75,9.17,20.63L9.17,20.63z"/>
		<path class="st0" d="M9.27,18.39c0.14,0,0.08,0.01,0.13,0.04c0-0.04,0.04-0.08,0.11-0.13c-0.11-0.11-0.35,0.04-0.4,0.11
			C9.06,18.48,9.37,18.77,9.27,18.39z"/>
		<path class="st0" d="M8.99,20.61c-0.08,0.01-0.08,0.06,0,0.14C8.99,20.71,8.99,20.66,8.99,20.61z"/>
		<path class="st0" d="M8.6,20.61C8.48,20.57,8.5,20.62,8.6,20.61L8.6,20.61z"/>
		<path class="st0" d="M8.6,21.46C8.88,21.44,8.61,21.23,8.6,21.46L8.6,21.46z"/>
		<path class="st0" d="M9.1,21.45c0.03-0.01,0.06-0.03,0.1-0.04c0,0,0,0,0,0C9.15,21.4,9.12,21.42,9.1,21.45z"/>
		<path class="st0" d="M8.48,21.33c0.09-0.01,0.35-0.19,0.45-0.31c-0.01-0.02-0.02-0.04-0.02-0.07C8.67,20.97,8.41,20.97,8.48,21.33
			z"/>
		<path class="st0" d="M8.93,21.01c0.05,0.1,0.19,0.11,0.41,0.03c-0.13-0.09-0.27-0.16-0.43-0.21c-0.01,0.04,0,0.08,0,0.11
			c0.02,0,0.04,0,0.06-0.01C8.97,20.95,8.96,20.98,8.93,21.01z"/>
		<path class="st0" d="M8.97,20.93c-0.02,0-0.04,0.01-0.06,0.01c0,0.03,0.01,0.05,0.02,0.07C8.96,20.98,8.97,20.95,8.97,20.93z"/>
		<path class="st0" d="M9.26,21.19c-0.01,0.14,0.29,0.03,0.3-0.02C9.38,21.16,9.36,21.25,9.26,21.19z"/>
		<path class="st0" d="M9.28,19.03c-0.07,0,0.26,0,0.29-0.01c0,0.01,0.02,0.02,0.08-0.02c-0.02-0.07-0.07-0.01-0.08,0.01
			c-0.01,0-0.02,0-0.05-0.01C9.52,19.03,9.29,18.61,9.28,19.03z"/>
	</g>
</g>
<g id="Capa_6">
</g>
<g id="Capa_5">
</g>
</svg>
