<?xml version="1.0" encoding="utf-8"?>
<!-- Generator: Adobe Illustrator 24.0.3, SVG Export Plug-In . SVG Version: 6.00 Build 0)  -->
<svg version="1.1" xmlns="http://www.w3.org/2000/svg" xmlns:xlink="http://www.w3.org/1999/xlink" x="0px" y="0px"
	 viewBox="0 0 110.52 19.14" style="enable-background:new 0 0 110.52 19.14;" xml:space="preserve">
<style type="text/css">
	.st0{fill:#FFFFFF;}
	.st1{fill:url(#SVGID_1_);}
	.st2{fill:#E7004C;}
	.st3{fill:none;stroke:#00B2E3;stroke-miterlimit:10;}
	.st4{fill:url(#SVGID_2_);}
	.st5{fill:#FCFCFC;}
	.st6{fill:url(#SVGID_3_);}
	.st7{fill:url(#SVGID_4_);}
	.st8{opacity:0.8;fill:#E7004C;}
	.st9{opacity:0.7;fill:#E7004C;}
	.st10{opacity:0.7;}
	.st11{fill:#00B2E3;}
	.st12{opacity:0.8;fill:#00B2E3;}
	.st13{opacity:0.7;fill:#00B2E3;}
	.st14{fill:#BBBBBB;}
	.st15{opacity:0.8;fill:#BBBBBB;}
	.st16{opacity:0.7;fill:#BBBBBB;}
	.st17{fill:url(#SVGID_5_);}
	.st18{fill:url(#SVGID_6_);}
	.st19{fill:none;stroke:#E7004C;stroke-width:2;stroke-miterlimit:10;}
	.st20{fill:url(#SVGID_7_);}
	.st21{fill:url(#SVGID_8_);}
	.st22{fill:url(#SVGID_9_);}
	.st23{fill:none;stroke:#FFFFFF;stroke-miterlimit:10;}
	.st24{fill:none;stroke:#E7004C;stroke-miterlimit:10;}
	.st25{fill-rule:evenodd;clip-rule:evenodd;fill:#E7004C;}
	.st26{fill:none;stroke:#000000;stroke-miterlimit:10;}
	.st27{fill:#38A8E0;}
	.st28{clip-path:url(#SVGID_11_);fill:#00B2E3;}
	.st29{fill:none;stroke:#E7004C;stroke-width:3;stroke-miterlimit:10;}
	.st30{clip-path:url(#SVGID_13_);}
	.st31{fill:none;stroke:#FFFFFF;stroke-width:2;stroke-miterlimit:10;}
	.st32{fill:none;stroke:#FFFFFF;stroke-width:3;stroke-miterlimit:10;}
	.st33{clip-path:url(#SVGID_15_);}
	.st34{fill:url(#SVGID_16_);}
	.st35{fill:none;stroke:#FFFFFF;stroke-width:0.5;stroke-miterlimit:10;}
	.st36{clip-path:url(#SVGID_18_);fill:#00B2E3;}
	.st37{clip-path:url(#SVGID_20_);}
	.st38{clip-path:url(#SVGID_22_);}
	.st39{fill:url(#SVGID_23_);}
	.st40{clip-path:url(#SVGID_25_);}
	.st41{fill:url(#SVGID_26_);}
	.st42{fill:url(#SVGID_27_);}
	.st43{fill:url(#SVGID_28_);}
	.st44{fill:url(#SVGID_29_);}
	.st45{clip-path:url(#SVGID_31_);fill:#00B2E3;}
	.st46{clip-path:url(#SVGID_33_);}
	.st47{clip-path:url(#SVGID_35_);}
	.st48{fill:url(#SVGID_36_);}
	.st49{clip-path:url(#SVGID_38_);}
	.st50{clip-path:url(#SVGID_40_);}
	.st51{fill:#280210;}
	.st52{opacity:0.5;}
	.st53{opacity:0.6;}
	.st54{fill:url(#SVGID_41_);}
	.st55{fill:url(#SVGID_42_);}
	.st56{fill:url(#SVGID_43_);}
	.st57{fill:url(#SVGID_44_);}
	.st58{opacity:0.8;}
	.st59{opacity:0.9;}
	.st60{fill:url(#SVGID_45_);}
	.st61{clip-path:url(#SVGID_47_);}
	.st62{clip-path:url(#SVGID_49_);}
	.st63{fill:url(#SVGID_50_);}
	.st64{clip-path:url(#SVGID_52_);}
	.st65{fill:url(#SVGID_53_);}
	.st66{clip-path:url(#SVGID_55_);}
	.st67{fill:url(#SVGID_56_);}
	.st68{clip-path:url(#SVGID_58_);}
	.st69{clip-path:url(#SVGID_60_);fill:#00B2E3;}
	.st70{clip-path:url(#SVGID_62_);}
	.st71{clip-path:url(#SVGID_64_);}
	.st72{fill:none;stroke:#FFFFFF;stroke-width:5;stroke-miterlimit:10;}
	.st73{clip-path:url(#SVGID_66_);fill:#00B2E3;}
	.st74{clip-path:url(#SVGID_68_);}
	.st75{clip-path:url(#SVGID_70_);}
	.st76{clip-path:url(#SVGID_72_);fill:#00B2E3;}
	.st77{clip-path:url(#SVGID_74_);}
	.st78{fill:#5B0323;}
	.st79{fill:url(#SVGID_75_);}
	.st80{fill:url(#SVGID_76_);}
	.st81{fill:url(#SVGID_77_);}
	.st82{clip-path:url(#SVGID_80_);fill:#00B2E3;}
	.st83{clip-path:url(#SVGID_84_);}
	.st84{clip-path:url(#SVGID_86_);}
	.st85{fill-rule:evenodd;clip-rule:evenodd;fill:#FFFFFF;}
	.st86{fill:#E5E5E5;}
	.st87{clip-path:url(#SVGID_88_);}
	.st88{fill-rule:evenodd;clip-rule:evenodd;fill:none;stroke:#E7004C;stroke-width:3;stroke-miterlimit:10;}
	.st89{fill:#070101;}
	.st90{fill:none;stroke:#068FFF;stroke-width:5;stroke-miterlimit:10;}
</style>
<g id="Capa_2">
</g>
<g id="Capa_1">
</g>
<g id="Capa_3">
</g>
<g id="Capa_4">
	<g>
		<g>
			<polyline class="st0" points="88.44,4.13 84.94,4.13 85.5,2.03 89.01,2.03 88.44,4.13 			"/>
			<g>
				<g>
					<path class="st0" d="M109.47,3.8c-0.51,0-0.92-0.4-0.92-0.91c0-0.5,0.41-0.91,0.92-0.91c0.5,0,0.9,0.4,0.9,0.91
						C110.38,3.39,109.97,3.8,109.47,3.8z M109.47,3.92c0.57,0,1.03-0.47,1.03-1.04c0-0.57-0.46-1.03-1.03-1.03
						c-0.58,0-1.04,0.46-1.04,1.03C108.43,3.46,108.9,3.92,109.47,3.92z M109.63,2.95c0.2,0,0.35-0.09,0.35-0.31
						c0-0.19-0.1-0.3-0.4-0.3h-0.5v1.13h0.13V2.95h0.27l0.33,0.52h0.16L109.63,2.95z M109.22,2.82V2.47h0.33
						c0.14,0,0.31,0.02,0.31,0.17c0,0.21-0.26,0.19-0.42,0.19H109.22z"/>
					<polyline class="st0" points="96.25,18.7 96.96,16.13 0.69,16.13 0,18.7 96.25,18.7 					"/>
					<path class="st0" d="M72.97,2.04l-1.19,4.27h-0.14c-0.27-1.09-1.37-1.3-2.62-1.3c-2.86,0-4.22,1.02-4.89,3.58l-0.49,1.92
						c-0.58,2.23,0.63,3.09,3.14,3.09c1.49,0,2.66-0.28,3.39-1.55h0.07l-0.38,1.52h3.46l3.1-11.53H72.97z M70.96,9.32
						c-0.5,1.9-1,2.18-2.41,2.18c-1.43,0-1.72-0.13-1.18-2.18c0.43-1.66,0.61-2.19,2.32-2.19C71.49,7.13,71.38,7.69,70.96,9.32"/>
					<polyline class="st0" points="85.93,13.57 82.42,13.57 84.69,5.04 88.2,5.04 85.93,13.57 					"/>
					<path class="st0" d="M97.74,10.15c-0.4,1.57-0.97,2.43-1.9,2.9c-0.92,0.48-2.19,0.56-4.04,0.56c-4.03,0-4.73-0.98-3.87-4.29
						c0.74-2.85,1.84-4.3,6.1-4.3c3,0,4.98,0.26,4.2,3.24h-3.41c0.14-0.45,0.15-0.72-0.04-0.9c-0.19-0.17-0.58-0.24-1.29-0.24
						c-1.21,0-1.64,0.28-2.14,2.19c-0.51,1.97-0.28,2.18,1,2.18c1.55,0,1.71-0.3,1.98-1.34H97.74"/>
					<path class="st0" d="M37.42,5.61c0.34-1.17-0.91-1.15-2.06-1.15c-2.75,0-3.01,0.67-3.55,2.53l-0.51,1.88
						c-0.55,2.04,0.27,2.25,2.26,2.25c1.94,0,2.56-0.35,2.99-1.95h-2.66l0.57-2.13H41l-0.54,2.01c-1.05,3.88-2.47,4.59-7.59,4.59
						c-4.51,0-6.64-0.62-5.63-4.34l0.81-2.98c1.03-3.8,3.79-4.38,7.99-4.38c3.71,0,6.34,0.02,5.26,3.67H37.42"/>
					<path class="st0" d="M102.89,6.68h0.09c0.84-1.33,1.96-1.66,3.57-1.66c2.31,0,3.13,0.88,2.66,2.69l-1.56,5.87h-3.39l1.38-5.23
						c0.19-0.82,0.01-1.22-1.1-1.22c-1.53,0-1.98,0.74-2.24,1.76l-1.25,4.69h-3.37l3.12-11.53h3.38L102.89,6.68"/>
					<path class="st0" d="M47.61,5.02c-4.35,0-5.43,0.86-6.32,4.3c-0.87,3.36-0.18,4.29,4.1,4.29c4.4,0,5.44-0.83,6.34-4.29
						C52.65,5.77,51.98,5.02,47.61,5.02z M48.3,9.32c-0.47,1.82-0.73,2.18-2.31,2.18c-1.65,0-1.76-0.36-1.28-2.18
						c0.47-1.82,0.76-2.19,2.41-2.19C48.71,7.13,48.78,7.49,48.3,9.32"/>
					<path class="st0" d="M58.93,5.02c-4.35,0-5.43,0.86-6.32,4.3c-0.87,3.36-0.18,4.29,4.09,4.29c4.33,0,5.44-0.83,6.34-4.29
						C63.97,5.77,63.31,5.02,58.93,5.02z M59.63,9.32c-0.47,1.82-0.73,2.18-2.32,2.18c-1.65,0-1.76-0.36-1.28-2.18
						c0.48-1.82,0.77-2.19,2.41-2.19C60.04,7.13,60.1,7.49,59.63,9.32"/>
					<path class="st0" d="M12.03,2.04H4.49L1.38,13.58h7.61c3.04,0,4.79-0.39,5.55-3.21c0.39-1.45,0.31-2.48-1.78-2.58l0.03-0.12
						c1.96-0.24,2.58-1.19,2.98-2.65C16.45,2.49,14.88,2.04,12.03,2.04z M10.85,9.89c-0.25,0.94-0.84,1.17-2.07,1.17H5.89l0.6-2.26
						h2.97C10.7,8.8,11.11,8.94,10.85,9.89z M11.79,5.56c-0.25,0.92-0.63,1.1-1.97,1.1H7.07l0.57-2.09h3.22
						C11.92,4.61,11.98,4.87,11.79,5.56"/>
					<polyline class="st0" points="20.57,6.81 26.42,6.81 25.74,9.33 19.91,9.33 18.78,13.58 14.94,13.58 18.05,2.04 28.21,2.04 
						27.53,4.55 21.18,4.55 20.57,6.81 					"/>
					<path class="st0" d="M79.32,8.53l-1.33,5.05l-3.5,0l2.28-8.5h3.38l-0.38,1.38c0,0,0.89-1.37,3.11-1.37c1.32,0,1.02,0,1.02,0
						l-0.58,2.15h-2.31C80.22,7.25,79.6,7.55,79.32,8.53"/>
					<g>
						<path class="st0" d="M98.47,15.31h-1.03l0.1-0.37h2.45l-0.11,0.37h-1.03l-0.95,3.44h-0.37L98.47,15.31z"/>
						<path class="st0" d="M99.99,16.07h0.33l-0.74,2.68h-0.34L99.99,16.07z M100.3,14.94h0.34l-0.13,0.44h-0.34L100.3,14.94z"/>
						<path class="st0" d="M100.97,16.07h0.34l-0.09,0.32h0.01c0.2-0.26,0.38-0.37,0.72-0.37c0.42,0,0.57,0.18,0.42,0.72l-0.05,0.21
							H102c0.14-0.49,0.12-0.63-0.26-0.63c-0.33-0.01-0.56,0.18-0.67,0.55l-0.52,1.87h-0.34L100.97,16.07z"/>
						<path class="st0" d="M102.93,17.15c0.15-0.57,0.24-0.82,0.84-0.82c0.6,0,0.53,0.25,0.38,0.82H102.93z M104.39,17.48l0.11-0.4
							c0.2-0.73,0.16-1.06-0.64-1.06c-0.81,0-1.06,0.27-1.38,1.38c-0.3,1.09-0.27,1.38,0.61,1.38c0.8,0,0.99-0.21,1.14-0.74
							l0.03-0.1h-0.34c-0.15,0.53-0.27,0.53-0.81,0.53c-0.46,0-0.52-0.16-0.35-0.75l0.07-0.25H104.39z"/>
						<path class="st0" d="M105.16,17.91c-0.14,0.46-0.08,0.57,0.41,0.57c0.54,0,0.66-0.08,0.79-0.52c0.1-0.35,0.07-0.38-0.56-0.42
							c-0.66-0.04-0.82-0.13-0.66-0.73c0.16-0.56,0.32-0.78,1.12-0.78c0.79,0,0.89,0.18,0.73,0.74h-0.34
							c0.12-0.41,0.01-0.44-0.49-0.44c-0.47,0-0.56,0.04-0.68,0.46c-0.11,0.38-0.07,0.41,0.49,0.44c0.78,0.05,0.88,0.11,0.72,0.7
							c-0.17,0.63-0.36,0.86-1.23,0.86c-0.61,0-0.88-0.08-0.66-0.87H105.16z"/>
					</g>
				</g>
			</g>
		</g>
	</g>
</g>
<g id="Capa_6">
</g>
<g id="Capa_5">
</g>
</svg>
