<?xml version="1.0" encoding="utf-8"?>
<!-- Generator: Adobe Illustrator 24.0.3, SVG Export Plug-In . SVG Version: 6.00 Build 0)  -->
<svg version="1.1" xmlns="http://www.w3.org/2000/svg" xmlns:xlink="http://www.w3.org/1999/xlink" x="0px" y="0px"
	 viewBox="0 0 91.88 32.16" style="enable-background:new 0 0 91.88 32.16;" xml:space="preserve">
<style type="text/css">
	.st0{fill:#FFFFFF;}
	.st1{fill:url(#SVGID_1_);}
	.st2{fill:#E7004C;}
	.st3{fill:none;stroke:#00B2E3;stroke-miterlimit:10;}
	.st4{fill:url(#SVGID_2_);}
	.st5{fill:#FCFCFC;}
	.st6{fill:url(#SVGID_3_);}
	.st7{fill:url(#SVGID_4_);}
	.st8{opacity:0.8;fill:#E7004C;}
	.st9{opacity:0.7;fill:#E7004C;}
	.st10{opacity:0.7;}
	.st11{fill:#00B2E3;}
	.st12{opacity:0.8;fill:#00B2E3;}
	.st13{opacity:0.7;fill:#00B2E3;}
	.st14{fill:#BBBBBB;}
	.st15{opacity:0.8;fill:#BBBBBB;}
	.st16{opacity:0.7;fill:#BBBBBB;}
	.st17{fill:url(#SVGID_5_);}
	.st18{fill:url(#SVGID_6_);}
	.st19{fill:none;stroke:#E7004C;stroke-width:2;stroke-miterlimit:10;}
	.st20{fill:url(#SVGID_7_);}
	.st21{fill:url(#SVGID_8_);}
	.st22{fill:url(#SVGID_9_);}
	.st23{fill:none;stroke:#FFFFFF;stroke-miterlimit:10;}
	.st24{fill:none;stroke:#E7004C;stroke-miterlimit:10;}
	.st25{fill-rule:evenodd;clip-rule:evenodd;fill:#E7004C;}
	.st26{fill:none;stroke:#000000;stroke-miterlimit:10;}
	.st27{fill:#38A8E0;}
	.st28{clip-path:url(#SVGID_11_);fill:#00B2E3;}
	.st29{fill:none;stroke:#E7004C;stroke-width:3;stroke-miterlimit:10;}
	.st30{clip-path:url(#SVGID_13_);}
	.st31{fill:none;stroke:#FFFFFF;stroke-width:2;stroke-miterlimit:10;}
	.st32{fill:none;stroke:#FFFFFF;stroke-width:3;stroke-miterlimit:10;}
	.st33{clip-path:url(#SVGID_15_);}
	.st34{fill:url(#SVGID_16_);}
	.st35{fill:none;stroke:#FFFFFF;stroke-width:0.5;stroke-miterlimit:10;}
	.st36{clip-path:url(#SVGID_18_);fill:#00B2E3;}
	.st37{clip-path:url(#SVGID_20_);}
	.st38{clip-path:url(#SVGID_22_);}
	.st39{fill:url(#SVGID_23_);}
	.st40{clip-path:url(#SVGID_25_);}
	.st41{fill:url(#SVGID_26_);}
	.st42{fill:url(#SVGID_27_);}
	.st43{fill:url(#SVGID_28_);}
	.st44{fill:url(#SVGID_29_);}
	.st45{clip-path:url(#SVGID_31_);fill:#00B2E3;}
	.st46{clip-path:url(#SVGID_33_);}
	.st47{clip-path:url(#SVGID_35_);}
	.st48{fill:url(#SVGID_36_);}
	.st49{clip-path:url(#SVGID_38_);}
	.st50{clip-path:url(#SVGID_40_);}
	.st51{fill:#280210;}
	.st52{opacity:0.5;}
	.st53{opacity:0.6;}
	.st54{fill:url(#SVGID_41_);}
	.st55{fill:url(#SVGID_42_);}
	.st56{fill:url(#SVGID_43_);}
	.st57{fill:url(#SVGID_44_);}
	.st58{opacity:0.8;}
	.st59{opacity:0.9;}
	.st60{fill:url(#SVGID_45_);}
	.st61{clip-path:url(#SVGID_47_);}
	.st62{clip-path:url(#SVGID_49_);}
	.st63{fill:url(#SVGID_50_);}
	.st64{clip-path:url(#SVGID_52_);}
	.st65{fill:url(#SVGID_53_);}
	.st66{clip-path:url(#SVGID_55_);}
	.st67{fill:url(#SVGID_56_);}
	.st68{clip-path:url(#SVGID_58_);}
	.st69{clip-path:url(#SVGID_60_);fill:#00B2E3;}
	.st70{clip-path:url(#SVGID_62_);}
	.st71{clip-path:url(#SVGID_64_);}
	.st72{fill:none;stroke:#FFFFFF;stroke-width:5;stroke-miterlimit:10;}
	.st73{clip-path:url(#SVGID_66_);fill:#00B2E3;}
	.st74{clip-path:url(#SVGID_68_);}
	.st75{clip-path:url(#SVGID_70_);}
	.st76{clip-path:url(#SVGID_72_);fill:#00B2E3;}
	.st77{clip-path:url(#SVGID_74_);}
	.st78{fill:#5B0323;}
	.st79{fill:url(#SVGID_75_);}
	.st80{fill:url(#SVGID_76_);}
	.st81{fill:url(#SVGID_77_);}
	.st82{clip-path:url(#SVGID_80_);fill:#00B2E3;}
	.st83{clip-path:url(#SVGID_84_);}
	.st84{clip-path:url(#SVGID_86_);}
	.st85{fill-rule:evenodd;clip-rule:evenodd;fill:#FFFFFF;}
	.st86{fill:#E5E5E5;}
	.st87{clip-path:url(#SVGID_88_);}
	.st88{fill-rule:evenodd;clip-rule:evenodd;fill:none;stroke:#E7004C;stroke-width:3;stroke-miterlimit:10;}
	.st89{fill:#070101;}
	.st90{fill:none;stroke:#068FFF;stroke-width:5;stroke-miterlimit:10;}
</style>
<g id="Capa_2">
</g>
<g id="Capa_1">
</g>
<g id="Capa_3">
</g>
<g id="Capa_4">
	<g>
		<path class="st0" d="M36.22,21.28c-1.67-2.21-3.34-4.41-4.86-6.63c-0.29,0.03-0.59,0.07-0.89,0.07c-0.3,0-0.57-0.04-0.87-0.07
			c-0.72,3.57-1.4,6.84-2.16,9.68c0.34-0.03,0.63-0.07,0.97-0.07c0.34,0,0.66,0.04,1,0.07c0.06-1.97,0.4-3.94,0.89-6.42
			c1.61,2.21,3.28,4.4,4.63,6.34c0.27-0.04,0.53-0.03,0.8,0c1.5-2.19,3.09-4.35,4.69-6.5c0.32,2.17,0.74,4.33,0.91,6.57
			c0.59-0.03,1.12-0.07,1.72-0.07c0.59,0,1.16,0.04,1.75,0.07c-0.72-2.81-1.2-5.88-1.86-9.68c-0.29,0.03-0.61,0.07-0.91,0.07
			c-0.29,0-0.59-0.04-0.89-0.07C39.54,17.06,37.74,19.28,36.22,21.28"/>
		<path class="st85" d="M46.5,24.32c0.49-0.03,0.97-0.07,1.46-0.07c0.48,0,0.97,0.04,1.46,0.07v-6.84
			c-0.48,0.03-0.97,0.07-1.46,0.07c-0.49,0-0.98-0.04-1.46-0.07V24.32z M46.29,14.9c0,0.6,0.74,1.12,1.65,1.12
			c0.91,0,1.7-0.51,1.7-1.12c0-0.6-0.78-1.11-1.7-1.11C47.03,13.79,46.29,14.31,46.29,14.9"/>
		<path class="st0" d="M51.37,22.53c-0.08,0.45-0.19,0.89-0.32,1.34c0.87,0.4,1.89,0.58,2.92,0.58c2.56,0,4.09-0.95,4.09-2.26
			c0-2.62-4.97-1.93-4.97-3.3c0-0.58,0.8-0.82,1.56-0.82c0.95,0,1.84,0.58,2.01,1.18h0.59c0.15-0.41,0.32-0.82,0.51-1.24
			c-0.84-0.44-2.01-0.66-3.06-0.66c-1.92,0-3.64,0.8-3.64,2.24c0,2.46,4.89,1.94,4.89,3.27c0,0.5-0.89,0.86-1.63,0.86
			c-1.14,0-2.03-0.49-2.41-1.2H51.37z"/>
		<path class="st85" d="M59.6,24.32c0.49-0.03,0.97-0.07,1.46-0.07c0.49,0,0.97,0.04,1.46,0.07v-6.84
			c-0.49,0.03-0.97,0.07-1.46,0.07c-0.49,0-0.98-0.04-1.46-0.07V24.32z M59.39,14.9c0,0.6,0.74,1.12,1.65,1.12
			c0.91,0,1.69-0.51,1.69-1.12c0-0.6-0.78-1.11-1.69-1.11C60.13,13.79,59.39,14.31,59.39,14.9"/>
		<path class="st85" d="M67.71,16.57h1.18l2.77-1.14c0.49-0.21,1.1-0.4,1.1-0.85c0-0.35-0.4-0.62-0.93-0.62
			c-0.68,0-0.95,0.17-1.39,0.51L67.71,16.57z M69.34,24.45c3.32,0,5.23-1.57,5.23-3.71c0-2.09-2.01-3.38-5.2-3.38
			c-3.24,0-5.16,1.48-5.16,3.69C64.2,23.14,66.21,24.45,69.34,24.45 M69.49,17.99c1.42,0,1.95,1.16,1.95,2.52
			c0,1.55-0.47,3.27-2.1,3.3c-1.84,0-2.01-1.91-2.01-2.81C67.33,19.35,67.77,17.99,69.49,17.99"/>
		<path class="st0" d="M75.92,24.32c0.49-0.03,0.97-0.07,1.46-0.07c0.49,0,0.97,0.04,1.46,0.07v-3.24c0-0.89,0-2.54,1.84-2.54
			c1.48,0,1.73,0.96,1.73,2.27v3.51c0.48-0.03,0.97-0.07,1.46-0.07c0.49,0,0.97,0.04,1.46,0.07v-4.13c0-1.69-0.68-2.83-3.34-2.83
			c-1.31,0-2.41,0.51-3.26,1.17v-1.04c-0.47,0.03-0.93,0.07-1.4,0.07c-0.49,0-0.95-0.04-1.42-0.07V24.32z"/>
		<path class="st0" d="M60.21,4.65c0-0.11,0-0.23,0-0.35c0-0.13,0-0.25,0-0.35c0-0.11,0-0.18,0-0.22c0-0.12,0-0.25-0.01-0.4
			c0-0.14-0.02-0.3-0.03-0.48c0.09,0.01,0.2,0.02,0.32,0.03c0.12,0.01,0.23,0.02,0.33,0.02c0.1,0,0.21,0,0.33-0.02
			c0.12-0.01,0.23-0.02,0.32-0.03c-0.01,0.12-0.02,0.25-0.03,0.38c-0.01,0.14-0.01,0.27-0.02,0.4c-0.01,0.13-0.01,0.26-0.01,0.38
			c0,0.12,0,0.23,0,0.33c0.08,0,0.17,0.01,0.27,0.01c0.09,0,0.2,0,0.3,0c0.09,0,0.18,0,0.29-0.01c0.1,0,0.2,0,0.3,0
			c0-0.11,0-0.22-0.01-0.35c0-0.12,0-0.25-0.01-0.38c0-0.13-0.01-0.26-0.02-0.39c0-0.13-0.01-0.26-0.02-0.38
			c0.09,0.01,0.2,0.02,0.32,0.03c0.12,0.01,0.23,0.02,0.33,0.02c0.1,0,0.21,0,0.33-0.02c0.12-0.01,0.23-0.02,0.32-0.03
			c-0.02,0.22-0.04,0.45-0.04,0.69c-0.01,0.24-0.01,0.51-0.01,0.82c0,0.24,0,0.45,0,0.64c0,0.2,0.01,0.38,0.01,0.56
			c0.01,0.18,0.01,0.35,0.01,0.52c0.01,0.17,0.01,0.35,0.02,0.54c-0.23-0.03-0.46-0.05-0.69-0.05c-0.1,0-0.2,0-0.3,0.02
			c-0.1,0.01-0.2,0.02-0.31,0.03c0.01-0.12,0.03-0.25,0.03-0.42c0.01-0.16,0.02-0.33,0.02-0.5c0-0.17,0-0.33,0-0.47
			c0-0.15,0.01-0.27,0.01-0.36c-0.1,0-0.19,0-0.29,0c-0.09,0-0.2-0.01-0.29-0.01c-0.09,0-0.19,0-0.29,0c-0.1,0-0.2,0-0.29,0.01
			c0,0.1,0,0.22,0,0.37c0,0.15,0,0.31,0.01,0.47c0,0.17,0.01,0.33,0.02,0.49c0.01,0.16,0.02,0.3,0.02,0.42
			c-0.11-0.02-0.22-0.03-0.32-0.04c-0.11-0.01-0.22-0.01-0.33-0.01c-0.13,0-0.25,0-0.35,0.02c-0.1,0.01-0.19,0.02-0.28,0.03
			l0.02-0.26c0.01-0.08,0.01-0.17,0.02-0.29c0.01-0.12,0.01-0.24,0.01-0.38c0-0.14,0-0.27,0.01-0.42c0-0.14,0-0.27,0-0.39
			C60.21,4.83,60.21,4.75,60.21,4.65"/>
		<path class="st0" d="M67.61,2.92c0.26,0.08,0.5,0.2,0.69,0.37c0.2,0.16,0.35,0.36,0.46,0.6c0.11,0.24,0.17,0.51,0.17,0.82
			c0,0.33-0.06,0.62-0.17,0.86c-0.11,0.25-0.26,0.45-0.46,0.61c-0.19,0.16-0.42,0.28-0.69,0.36c-0.27,0.08-0.55,0.11-0.86,0.11
			c-0.29,0-0.56-0.04-0.82-0.12c-0.26-0.08-0.48-0.2-0.67-0.37c-0.2-0.17-0.35-0.37-0.46-0.61c-0.11-0.24-0.17-0.51-0.17-0.82
			c0-0.32,0.06-0.59,0.17-0.83c0.11-0.24,0.26-0.44,0.45-0.61c0.19-0.16,0.42-0.29,0.68-0.37c0.26-0.08,0.54-0.13,0.84-0.13
			C67.06,2.8,67.35,2.84,67.61,2.92 M67.13,6.16c0.09-0.05,0.17-0.11,0.23-0.19c0.07-0.08,0.12-0.17,0.15-0.28
			c0.04-0.1,0.07-0.21,0.09-0.32c0.02-0.11,0.04-0.22,0.04-0.34c0.01-0.11,0.01-0.22,0.01-0.31c0-0.15-0.01-0.31-0.03-0.49
			c-0.02-0.18-0.06-0.34-0.12-0.49c-0.06-0.15-0.15-0.27-0.27-0.37c-0.12-0.1-0.27-0.15-0.47-0.15c-0.18,0-0.34,0.05-0.45,0.14
			c-0.11,0.09-0.2,0.21-0.26,0.35c-0.07,0.14-0.11,0.29-0.13,0.46c-0.02,0.17-0.03,0.32-0.03,0.47c0,0.11,0,0.22,0.01,0.34
			c0.01,0.12,0.02,0.24,0.04,0.36c0.02,0.12,0.05,0.23,0.09,0.34c0.04,0.11,0.09,0.2,0.16,0.28c0.07,0.08,0.15,0.15,0.25,0.19
			c0.1,0.05,0.22,0.07,0.36,0.07C66.93,6.23,67.04,6.21,67.13,6.16"/>
		<path class="st0" d="M69.65,3.41c-0.16,0.01-0.32,0.02-0.49,0.04c0.02-0.09,0.03-0.19,0.03-0.3c0-0.04,0-0.09-0.01-0.14
			c0-0.05-0.01-0.1-0.02-0.16c0.27,0.03,0.53,0.04,0.79,0.05c0.26,0,0.52,0,0.79,0c0.25,0,0.51,0,0.77,0c0.26,0,0.53-0.02,0.81-0.05
			c-0.01,0.04-0.02,0.09-0.02,0.14C72.3,3.04,72.3,3.1,72.3,3.17c0,0.05,0,0.1,0.01,0.15c0.01,0.05,0.01,0.09,0.02,0.12
			c-0.16-0.02-0.32-0.03-0.49-0.04c-0.16-0.01-0.32-0.01-0.5-0.01c0,0.11-0.01,0.25-0.01,0.39c0,0.15,0,0.3,0,0.45v0.28
			c0,0.2,0,0.39,0,0.57c0,0.18,0.01,0.35,0.01,0.52c0,0.17,0,0.33,0.01,0.49c0,0.16,0.01,0.33,0.03,0.5
			c-0.18-0.02-0.33-0.03-0.43-0.04c-0.1-0.01-0.18-0.01-0.23-0.01c-0.15,0-0.27,0.01-0.37,0.02c-0.1,0.01-0.18,0.02-0.24,0.03
			c0.01-0.1,0.02-0.21,0.03-0.33c0.01-0.12,0.01-0.25,0.02-0.39c0.01-0.14,0.01-0.27,0.01-0.41c0-0.14,0-0.28,0-0.41V4.61V4.38
			c0-0.13,0-0.29,0-0.46c0-0.17-0.01-0.35-0.02-0.52C69.98,3.4,69.82,3.4,69.65,3.41"/>
		<path class="st0" d="M74.61,6.09c0.05,0,0.12,0,0.2,0c0.09,0,0.18-0.01,0.27-0.01c0.1,0,0.19-0.01,0.28-0.01
			c0.09-0.01,0.16-0.01,0.22-0.01c-0.01,0.05-0.01,0.1-0.02,0.15c0,0.05-0.01,0.1-0.01,0.15c0,0.04,0,0.09,0.01,0.14
			c0.01,0.04,0.01,0.09,0.02,0.13c-0.22-0.02-0.43-0.03-0.64-0.04c-0.21-0.01-0.43-0.01-0.64-0.01c-0.21,0-0.43,0-0.64,0.01
			c-0.21,0.01-0.43,0.02-0.64,0.04c0.01-0.07,0.02-0.15,0.02-0.21c0.01-0.07,0.01-0.14,0.01-0.24c0-0.09,0-0.2,0.01-0.32
			c0-0.13,0-0.29,0-0.49V4.78c0-0.28,0-0.51,0-0.69c0-0.18-0.01-0.34-0.01-0.47c-0.01-0.14-0.01-0.26-0.01-0.38
			c-0.01-0.12-0.02-0.25-0.03-0.39c0.19,0.02,0.37,0.02,0.55,0.03c0.18,0,0.37,0.01,0.55,0.01c0.1,0,0.21,0,0.35,0
			c0.13,0,0.27,0,0.4,0c0.14,0,0.26,0,0.39-0.01c0.13-0.01,0.24-0.01,0.33-0.02c-0.01,0.05-0.01,0.1-0.02,0.14
			c0,0.04-0.01,0.09-0.01,0.14c0,0.05,0,0.1,0.01,0.15c0.01,0.05,0.01,0.1,0.02,0.14c-0.13,0-0.26-0.01-0.4-0.02
			c-0.13-0.01-0.26-0.01-0.39-0.01h-0.55v1.03c0.04,0,0.1,0,0.19,0c0.08,0,0.18,0,0.3-0.01c0.11,0,0.24-0.01,0.37-0.02
			c0.14-0.01,0.28-0.02,0.43-0.03c-0.01,0.05-0.01,0.1-0.02,0.14c-0.01,0.04-0.01,0.09-0.01,0.14c0,0.09,0.01,0.19,0.03,0.29
			c-0.11-0.01-0.21-0.01-0.3-0.02c-0.1,0-0.19-0.01-0.29-0.02c-0.1,0-0.21-0.01-0.32-0.01c-0.12,0-0.24,0-0.37,0v1.21H74.61z"/>
		<path class="st0" d="M77.94,6.08c0.1,0,0.22-0.01,0.35-0.01c0.13-0.01,0.26-0.01,0.39-0.02c0.13-0.01,0.24-0.01,0.32-0.03
			c-0.01,0.04-0.01,0.08-0.02,0.14c0,0.05-0.01,0.11-0.01,0.17c0,0.05,0.01,0.09,0.01,0.14c0,0.05,0.01,0.1,0.02,0.15
			c-0.22-0.02-0.42-0.03-0.59-0.04c-0.17-0.01-0.35-0.01-0.52-0.01c-0.19,0-0.41,0-0.65,0.01c-0.25,0.01-0.5,0.02-0.76,0.04
			c0.03-0.15,0.05-0.32,0.06-0.49c0.01-0.17,0.02-0.33,0.02-0.48V5.37c0-0.17,0-0.33,0-0.46c0-0.14,0-0.27,0-0.39
			c0-0.12,0-0.25-0.01-0.36c0-0.12,0-0.23-0.01-0.36c0-0.16-0.01-0.33-0.01-0.5c0-0.17-0.01-0.33-0.03-0.46
			c0.22,0.03,0.45,0.05,0.67,0.05c0.11,0,0.22,0,0.31-0.01c0.1,0,0.2-0.02,0.31-0.04c-0.01,0.09-0.02,0.21-0.03,0.37
			c0,0.15-0.01,0.32-0.01,0.48c0,0.18-0.01,0.34-0.01,0.51c0,0.17,0,0.32,0,0.44v0.24c0,0.05,0,0.13,0,0.25c0,0.11,0,0.23,0,0.36
			c0,0.13,0,0.25,0,0.36c0,0.11,0,0.19,0,0.23C77.77,6.09,77.84,6.09,77.94,6.08"/>
		<path class="st0" d="M81.38,6.09c0.05,0,0.12,0,0.2,0c0.09,0,0.17-0.01,0.27-0.01c0.09,0,0.19-0.01,0.27-0.01
			c0.09-0.01,0.16-0.01,0.22-0.01c-0.01,0.05-0.01,0.1-0.02,0.15c0,0.05-0.01,0.1-0.01,0.15c0,0.04,0.01,0.09,0.01,0.14
			c0,0.04,0.01,0.09,0.02,0.13c-0.21-0.02-0.43-0.03-0.64-0.04c-0.21-0.01-0.42-0.01-0.63-0.01c-0.22,0-0.43,0-0.64,0.01
			c-0.21,0.01-0.43,0.02-0.64,0.04c0.01-0.07,0.02-0.15,0.02-0.21c0.01-0.07,0.01-0.14,0.01-0.24c0-0.09,0-0.2,0-0.32
			c0-0.13,0-0.29,0-0.49V4.78c0-0.28,0-0.51,0-0.69c0-0.18,0-0.34-0.01-0.47c0-0.14-0.01-0.26-0.01-0.38
			c-0.01-0.12-0.02-0.25-0.03-0.39c0.19,0.02,0.36,0.02,0.55,0.03c0.18,0,0.37,0.01,0.55,0.01c0.1,0,0.22,0,0.35,0
			c0.13,0,0.27,0,0.4,0c0.13,0,0.27,0,0.39-0.01c0.13-0.01,0.24-0.01,0.33-0.02c-0.01,0.05-0.01,0.1-0.02,0.14
			c0,0.04-0.01,0.09-0.01,0.14c0,0.05,0.01,0.1,0.01,0.15c0,0.05,0.01,0.1,0.02,0.14c-0.13,0-0.26-0.01-0.4-0.02
			c-0.13-0.01-0.26-0.01-0.39-0.01h-0.55v1.03c0.04,0,0.1,0,0.19,0c0.09,0,0.19,0,0.3-0.01c0.11,0,0.24-0.01,0.38-0.02
			c0.14-0.01,0.28-0.02,0.43-0.03c-0.01,0.05-0.01,0.1-0.02,0.14c-0.01,0.04-0.01,0.09-0.01,0.14c0,0.09,0.01,0.19,0.03,0.29
			C82.2,4.92,82.1,4.91,82,4.91c-0.1,0-0.2-0.01-0.3-0.02c-0.1,0-0.2-0.01-0.32-0.01c-0.11,0-0.24,0-0.37,0v1.21H81.38z"/>
		<path class="st0" d="M83.6,5.83c0.05,0.08,0.12,0.14,0.19,0.19c0.08,0.05,0.16,0.09,0.25,0.12c0.09,0.03,0.19,0.05,0.29,0.05
			c0.06,0,0.13-0.01,0.19-0.02c0.06-0.01,0.12-0.04,0.17-0.07c0.05-0.03,0.09-0.07,0.12-0.12c0.03-0.05,0.04-0.11,0.04-0.17
			c0-0.06-0.01-0.12-0.04-0.17c-0.03-0.05-0.08-0.1-0.15-0.15c-0.07-0.05-0.16-0.1-0.28-0.15c-0.11-0.06-0.26-0.12-0.44-0.19
			c-0.24-0.1-0.43-0.24-0.57-0.42c-0.15-0.18-0.22-0.41-0.22-0.68c0-0.21,0.04-0.39,0.11-0.54c0.08-0.16,0.18-0.29,0.3-0.39
			c0.13-0.1,0.27-0.18,0.45-0.23c0.17-0.05,0.35-0.07,0.54-0.07c0.19,0,0.38,0.02,0.57,0.06c0.18,0.04,0.37,0.1,0.55,0.16
			c-0.05,0.12-0.1,0.25-0.14,0.39c-0.04,0.14-0.06,0.27-0.07,0.39h-0.21c-0.03-0.16-0.1-0.29-0.22-0.4
			c-0.12-0.11-0.27-0.16-0.46-0.16c-0.06,0-0.12,0.01-0.19,0.02c-0.06,0.02-0.12,0.04-0.18,0.07c-0.05,0.03-0.1,0.07-0.13,0.12
			c-0.03,0.05-0.05,0.11-0.05,0.18c0,0.07,0.02,0.12,0.05,0.17c0.04,0.05,0.08,0.09,0.14,0.13c0.06,0.04,0.13,0.07,0.21,0.11
			c0.09,0.04,0.18,0.07,0.27,0.12l0.4,0.18c0.24,0.1,0.41,0.24,0.51,0.41c0.1,0.17,0.15,0.38,0.15,0.64c0,0.22-0.04,0.41-0.11,0.58
			c-0.07,0.16-0.18,0.29-0.3,0.4c-0.13,0.1-0.29,0.18-0.47,0.23c-0.18,0.05-0.37,0.07-0.58,0.07c-0.11,0-0.22,0-0.32-0.01
			c-0.09-0.01-0.19-0.02-0.28-0.03c-0.09-0.01-0.18-0.04-0.27-0.06c-0.09-0.03-0.19-0.06-0.29-0.1c0.01-0.07,0.03-0.14,0.04-0.2
			c0.01-0.06,0.02-0.13,0.03-0.19c0.01-0.07,0.02-0.13,0.03-0.21c0.01-0.07,0.02-0.16,0.02-0.26h0.22
			C83.52,5.67,83.55,5.76,83.6,5.83"/>
		<path class="st0" d="M85.71,9.37H26.59l-0.08-0.19c-2.2-5.21-7.28-8.58-12.94-8.58C7.88,0.61,2.79,3.99,0.6,9.24L0.04,9
			c2.29-5.47,7.6-9,13.52-9c5.83,0,11.08,3.43,13.42,8.76h58.72V9.37z"/>
		<path class="st85" d="M16.13,25.24h-2.56h-0.02H11c0,1.01,1.4,1.98,2.55,1.99v0c0.01,0,0.01,0,0.02,0c0.01,0,0.01,0,0.02,0v0
			C14.74,27.22,16.13,26.25,16.13,25.24"/>
		<path class="st0" d="M22.33,19.38c-1.56-4.28-0.91-8.52-3.07-11.28c-0.78-1-1.86-2.05-3.69-2.36c-0.54-0.78-0.98-1.24-2-1.25v0
			c0,0-0.01,0-0.01,0c0,0-0.01,0-0.01,0v0c-1.02,0.01-1.46,0.47-1.99,1.25C9.73,6.05,8.64,7.1,7.87,8.1c-2.15,2.76-1.5,7-3.06,11.28
			c-0.79,2.19-1.12,2.22-1.98,3.57l0.34,1.5h10.39h0.02h10.39l0.34-1.5C23.45,21.6,23.12,21.57,22.33,19.38 M13.58,22.68h-0.02H5.29
			c0.69-1.26,1.12-1.95,1.58-3.33c1.24-3.71,0.68-7.6,2.42-10.11c0.88-1.27,2.53-1.79,4.27-1.84v0c0.01,0,0.01,0,0.01,0
			c0,0,0.01,0,0.01,0v0c1.73,0.05,3.39,0.57,4.27,1.84c1.74,2.51,1.18,6.4,2.42,10.11c0.46,1.38,0.89,2.07,1.58,3.33H13.58z"/>
		<rect y="30.51" class="st0" width="85.71" height="0.7"/>
		<path class="st0" d="M91.27,23.76c-0.41,0.41-0.9,0.61-1.48,0.61c-0.58,0-1.07-0.21-1.48-0.61c-0.4-0.41-0.61-0.9-0.61-1.48
			c0-0.57,0.2-1.07,0.61-1.47c0.41-0.41,0.9-0.61,1.47-0.61c0.58,0,1.07,0.2,1.48,0.61c0.41,0.4,0.61,0.89,0.61,1.47
			C91.88,22.86,91.67,23.35,91.27,23.76 M88.52,21.01C88.17,21.37,88,21.79,88,22.28c0,0.5,0.17,0.93,0.52,1.28
			c0.35,0.35,0.77,0.53,1.27,0.53c0.49,0,0.92-0.18,1.27-0.53c0.35-0.35,0.52-0.78,0.52-1.28c0-0.5-0.17-0.92-0.52-1.27
			c-0.35-0.35-0.78-0.53-1.27-0.53C89.3,20.49,88.87,20.66,88.52,21.01 M89.75,21.13c0.29,0,0.49,0.03,0.63,0.08
			c0.24,0.1,0.35,0.29,0.35,0.58c0,0.21-0.07,0.36-0.22,0.45c-0.08,0.05-0.19,0.09-0.33,0.11c0.18,0.03,0.31,0.1,0.39,0.23
			c0.08,0.12,0.12,0.24,0.12,0.36v0.17c0,0.05,0,0.11,0,0.17c0,0.06,0.01,0.1,0.02,0.12l0.02,0.03h-0.38c0-0.01-0.01-0.01-0.01-0.02
			c0-0.01-0.01-0.02-0.01-0.03l-0.01-0.08v-0.18c0-0.26-0.07-0.44-0.21-0.52c-0.09-0.05-0.24-0.08-0.45-0.08h-0.32v0.9h-0.4v-2.29
			H89.75z M90.19,21.49c-0.1-0.06-0.27-0.08-0.49-0.08h-0.34v0.83h0.37c0.17,0,0.3-0.02,0.39-0.05c0.16-0.06,0.24-0.18,0.24-0.36
			C90.34,21.66,90.28,21.55,90.19,21.49"/>
	</g>
</g>
<g id="Capa_6">
</g>
<g id="Capa_5">
</g>
</svg>
