<?xml version="1.0" encoding="utf-8"?>
<!-- Generator: Adobe Illustrator 24.0.3, SVG Export Plug-In . SVG Version: 6.00 Build 0)  -->
<svg version="1.1" xmlns="http://www.w3.org/2000/svg" xmlns:xlink="http://www.w3.org/1999/xlink" x="0px" y="0px"
	 viewBox="0 0 99.84 26.42" style="enable-background:new 0 0 99.84 26.42;" xml:space="preserve">
<style type="text/css">
	.st0{fill:#FFFFFF;}
	.st1{fill:url(#SVGID_1_);}
	.st2{fill:#E7004C;}
	.st3{fill:none;stroke:#00B2E3;stroke-miterlimit:10;}
	.st4{fill:url(#SVGID_2_);}
	.st5{fill:#FCFCFC;}
	.st6{fill:url(#SVGID_3_);}
	.st7{fill:url(#SVGID_4_);}
	.st8{opacity:0.8;fill:#E7004C;}
	.st9{opacity:0.7;fill:#E7004C;}
	.st10{opacity:0.7;}
	.st11{fill:#00B2E3;}
	.st12{opacity:0.8;fill:#00B2E3;}
	.st13{opacity:0.7;fill:#00B2E3;}
	.st14{fill:#BBBBBB;}
	.st15{opacity:0.8;fill:#BBBBBB;}
	.st16{opacity:0.7;fill:#BBBBBB;}
	.st17{fill:url(#SVGID_5_);}
	.st18{fill:url(#SVGID_6_);}
	.st19{fill:none;stroke:#E7004C;stroke-width:2;stroke-miterlimit:10;}
	.st20{fill:url(#SVGID_7_);}
	.st21{fill:url(#SVGID_8_);}
	.st22{fill:url(#SVGID_9_);}
	.st23{fill:none;stroke:#FFFFFF;stroke-miterlimit:10;}
	.st24{fill:none;stroke:#E7004C;stroke-miterlimit:10;}
	.st25{fill-rule:evenodd;clip-rule:evenodd;fill:#E7004C;}
	.st26{fill:none;stroke:#000000;stroke-miterlimit:10;}
	.st27{fill:#38A8E0;}
	.st28{clip-path:url(#SVGID_11_);fill:#00B2E3;}
	.st29{fill:none;stroke:#E7004C;stroke-width:3;stroke-miterlimit:10;}
	.st30{clip-path:url(#SVGID_13_);}
	.st31{fill:none;stroke:#FFFFFF;stroke-width:2;stroke-miterlimit:10;}
	.st32{fill:none;stroke:#FFFFFF;stroke-width:3;stroke-miterlimit:10;}
	.st33{clip-path:url(#SVGID_15_);}
	.st34{fill:url(#SVGID_16_);}
	.st35{fill:none;stroke:#FFFFFF;stroke-width:0.5;stroke-miterlimit:10;}
	.st36{clip-path:url(#SVGID_18_);fill:#00B2E3;}
	.st37{clip-path:url(#SVGID_20_);}
	.st38{clip-path:url(#SVGID_22_);}
	.st39{fill:url(#SVGID_23_);}
	.st40{clip-path:url(#SVGID_25_);}
	.st41{fill:url(#SVGID_26_);}
	.st42{fill:url(#SVGID_27_);}
	.st43{fill:url(#SVGID_28_);}
	.st44{fill:url(#SVGID_29_);}
	.st45{clip-path:url(#SVGID_31_);fill:#00B2E3;}
	.st46{clip-path:url(#SVGID_33_);}
	.st47{clip-path:url(#SVGID_35_);}
	.st48{fill:url(#SVGID_36_);}
	.st49{clip-path:url(#SVGID_38_);}
	.st50{clip-path:url(#SVGID_40_);}
	.st51{fill:#280210;}
	.st52{opacity:0.5;}
	.st53{opacity:0.6;}
	.st54{fill:url(#SVGID_41_);}
	.st55{fill:url(#SVGID_42_);}
	.st56{fill:url(#SVGID_43_);}
	.st57{fill:url(#SVGID_44_);}
	.st58{opacity:0.8;}
	.st59{opacity:0.9;}
	.st60{fill:url(#SVGID_45_);}
	.st61{clip-path:url(#SVGID_47_);}
	.st62{clip-path:url(#SVGID_49_);}
	.st63{fill:url(#SVGID_50_);}
	.st64{clip-path:url(#SVGID_52_);}
	.st65{fill:url(#SVGID_53_);}
	.st66{clip-path:url(#SVGID_55_);}
	.st67{fill:url(#SVGID_56_);}
	.st68{clip-path:url(#SVGID_58_);}
	.st69{clip-path:url(#SVGID_60_);fill:#00B2E3;}
	.st70{clip-path:url(#SVGID_62_);}
	.st71{clip-path:url(#SVGID_64_);}
	.st72{fill:none;stroke:#FFFFFF;stroke-width:5;stroke-miterlimit:10;}
	.st73{clip-path:url(#SVGID_66_);fill:#00B2E3;}
	.st74{clip-path:url(#SVGID_68_);}
	.st75{clip-path:url(#SVGID_70_);}
	.st76{clip-path:url(#SVGID_72_);fill:#00B2E3;}
	.st77{clip-path:url(#SVGID_74_);}
	.st78{fill:#5B0323;}
	.st79{fill:url(#SVGID_75_);}
	.st80{fill:url(#SVGID_76_);}
	.st81{fill:url(#SVGID_77_);}
	.st82{clip-path:url(#SVGID_80_);fill:#00B2E3;}
	.st83{clip-path:url(#SVGID_84_);}
	.st84{clip-path:url(#SVGID_86_);}
	.st85{fill-rule:evenodd;clip-rule:evenodd;fill:#FFFFFF;}
	.st86{fill:#E5E5E5;}
	.st87{clip-path:url(#SVGID_88_);}
	.st88{fill-rule:evenodd;clip-rule:evenodd;fill:none;stroke:#E7004C;stroke-width:3;stroke-miterlimit:10;}
	.st89{fill:#070101;}
	.st90{fill:none;stroke:#068FFF;stroke-width:5;stroke-miterlimit:10;}
</style>
<g id="Capa_2">
</g>
<g id="Capa_1">
</g>
<g id="Capa_3">
</g>
<g id="Capa_4">
	<g id="FsmFH7.tif_1_">
		<g>
			<path class="st0" d="M13.06,0.05c0.08,0.01,0.15,0.04,0.23,0.04c2.21,0.12,4.24,0.79,6.08,2.02c2.8,1.86,4.58,4.45,5.34,7.73
				c0.29,1.27,0.36,2.56,0.24,3.86c-0.27,2.86-1.4,5.35-3.38,7.43c-1.87,1.98-4.17,3.21-6.85,3.69c-0.2,0.04-0.4,0.09-0.61,0.07
				c0-0.57,0-1.13,0-1.72c0.15-0.03,0.3-0.06,0.45-0.08c1.1-0.2,2.16-0.52,3.13-1.1c0.67-0.4,1.24-0.9,1.73-1.5
				c0.05-0.06,0.09-0.12,0.14-0.19c-0.17-0.05-13.74-0.07-14.03-0.02c0,0.09,0.06,0.14,0.11,0.19c0.66,0.84,1.5,1.46,2.47,1.9
				c0.84,0.38,1.72,0.6,2.63,0.76c0.04,0.01,0.08,0.01,0.12,0.02c0.03,0.01,0.05,0.02,0.09,0.03c0,0.56,0,1.13,0,1.73
				c-0.27-0.04-0.52-0.07-0.76-0.12c-2.46-0.48-4.59-1.59-6.38-3.34c-1.81-1.77-2.98-3.91-3.49-6.39c-0.1-0.51-0.15-1.03-0.22-1.54
				c-0.02-0.15-0.06-0.3-0.08-0.45c0-0.35,0-0.7,0-1.06c0.03-0.15,0.06-0.3,0.08-0.45c0.08-0.54,0.11-1.1,0.24-1.63
				c0.93-4.03,3.27-6.95,7-8.73c1.4-0.67,2.88-1.03,4.43-1.11c0.08,0,0.17-0.03,0.25-0.04C12.36,0.05,12.71,0.05,13.06,0.05z
				 M15.93,1.44c-0.02,0.11-0.04,0.17-0.05,0.23c-0.05,0.34-0.13,0.67-0.3,0.96c-0.19,0.33-0.39,0.65-0.61,0.96
				c-0.39,0.54-0.85,1.01-1.33,1.47c-0.76,0.74-1.52,1.49-2.28,2.23c-1,0.98-2.01,1.95-3,2.94c-0.33,0.33-0.65,0.68-0.95,1.05
				c-0.38,0.47-0.68,0.98-0.88,1.55c-0.39,1.11-0.26,2.16,0.4,3.14C6.97,16.03,7,16.11,7.1,16.13c0.01-0.04,0.01-0.07,0.01-0.09
				c-0.01-0.5,0.12-0.96,0.31-1.41c0.25-0.6,0.61-1.14,1.01-1.65c0.5-0.64,1.09-1.18,1.66-1.74c1.9-1.86,3.79-3.74,5.68-5.61
				c0.33-0.32,0.59-0.7,0.78-1.12c0.21-0.46,0.32-0.95,0.24-1.46C16.7,2.42,16.4,1.92,15.93,1.44z M17.56,4.52
				c-0.13,0.26-0.22,0.49-0.36,0.7c-0.26,0.38-0.53,0.75-0.83,1.09c-0.43,0.48-0.89,0.95-1.35,1.4c-1.56,1.54-3.12,3.07-4.69,4.6
				c-0.51,0.49-0.99,1-1.36,1.61c-0.62,1.02-0.98,2.1-0.87,3.31c0.09,0.92,0.47,1.7,1.18,2.31c0.05,0.04,0.1,0.07,0.15,0.11
				c0.01-0.03,0.02-0.04,0.02-0.05c-0.01-0.04-0.02-0.08-0.03-0.12c-0.16-0.57-0.17-1.14-0.09-1.72c0.12-0.81,0.42-1.56,0.84-2.26
				c0.45-0.75,1.02-1.39,1.65-2c1.57-1.54,3.15-3.09,4.71-4.64c0.26-0.26,0.51-0.55,0.73-0.85c0.49-0.67,0.7-1.42,0.62-2.25
				C17.85,5.34,17.74,4.94,17.56,4.52z M12.47,0.64c0.01,0.44-0.06,0.85-0.2,1.25c-0.23,0.63-0.6,1.18-1.06,1.66
				c-0.39,0.41-0.8,0.8-1.2,1.19C8.59,6.14,7.18,7.53,5.76,8.92c-0.52,0.52-0.98,1.09-1.3,1.76c-0.39,0.81-0.52,1.65-0.33,2.53
				c0.21,0.95,0.72,1.73,1.38,2.43c0.01,0.01,0.03,0.01,0.07,0.02c-0.01-0.07-0.03-0.12-0.04-0.17c-0.07-0.41-0.17-0.81-0.21-1.23
				c-0.09-1,0.18-1.91,0.72-2.75c0.33-0.51,0.73-0.95,1.16-1.37c1.84-1.81,3.67-3.62,5.5-5.44c0.3-0.3,0.55-0.64,0.74-1.02
				c0.14-0.3,0.24-0.6,0.24-0.93C13.72,1.8,13.18,1.17,12.47,0.64z M12.24,19.65c-0.01-0.07-0.01-0.1-0.01-0.14
				c-0.03-0.38-0.02-0.76,0.07-1.13c0.15-0.68,0.46-1.28,0.83-1.86c0.5-0.76,1.1-1.43,1.74-2.06c1.51-1.48,3.02-2.95,4.53-4.43
				c0.23-0.23,0.44-0.47,0.65-0.72c0.26-0.32,0.46-0.69,0.58-1.09c0.25-0.83,0.11-1.63-0.22-2.41c0-0.01-0.02-0.01-0.05-0.01
				c-0.26,0.65-0.7,1.18-1.16,1.7c-0.43,0.48-0.87,0.94-1.33,1.39c-1.72,1.7-3.46,3.39-5.18,5.09c-0.46,0.46-0.87,0.96-1.17,1.54
				c-0.29,0.56-0.45,1.15-0.4,1.79c0.08,0.88,0.48,1.62,1.03,2.29C12.17,19.61,12.19,19.62,12.24,19.65z M15,19.66
				c0.02-0.01,0.03-0.01,0.05-0.02c0.01-0.04,0.03-0.08,0.03-0.12c0.05-0.31,0.16-0.6,0.29-0.88c0.28-0.6,0.64-1.15,1.08-1.63
				c0.49-0.54,1-1.05,1.51-1.56c0.49-0.5,0.99-0.98,1.48-1.48c0.32-0.33,0.58-0.71,0.77-1.13c0.32-0.74,0.34-1.51,0.19-2.3
				c-0.01-0.06-0.03-0.13-0.05-0.19c-0.2,0.26-0.38,0.51-0.58,0.74c-0.21,0.24-0.44,0.45-0.67,0.67c-1.05,1-2.1,2-3.15,3.01
				c-0.78,0.75-1.3,1.64-1.48,2.71c-0.1,0.61-0.05,1.21,0.25,1.76C14.81,19.39,14.91,19.52,15,19.66z"/>
			<path class="st0" d="M47.59,22.75c0,0.14,0,0.26,0,0.39c-1.02,0-2.03,0-3.06,0c0-0.12,0-0.25,0-0.39
				c0.06-0.01,0.12-0.03,0.18-0.04c0.1-0.02,0.21-0.04,0.31-0.06c0.3-0.09,0.51-0.28,0.56-0.6c0.06-0.36,0.13-0.72,0.16-1.08
				c0.1-1.14,0.18-2.27,0.27-3.41c0.03-0.45,0.07-0.9,0.08-1.35c0.01-0.18-0.01-0.37-0.04-0.54c-0.04-0.24-0.19-0.39-0.42-0.45
				c-0.12-0.03-0.25-0.06-0.37-0.08c-0.1-0.02-0.19-0.03-0.3-0.05c0-0.13,0-0.25,0-0.38c0.08,0,0.15-0.01,0.21-0.01
				c0.68,0,1.37,0,2.05,0c0.15,0,0.22,0.05,0.28,0.18c0.8,1.81,1.61,3.61,2.41,5.42c0.05,0.12,0.11,0.24,0.18,0.4
				c0.06-0.12,0.09-0.19,0.13-0.26c0.83-1.83,1.66-3.67,2.5-5.5c0.13-0.29,0.07-0.24,0.39-0.25c0.64,0,1.28,0,1.92,0
				c0.08,0,0.15,0,0.24,0c0,0.14,0,0.25,0,0.39c-0.09,0.02-0.19,0.03-0.28,0.05c-0.13,0.02-0.26,0.04-0.39,0.08
				c-0.22,0.06-0.35,0.2-0.38,0.43c-0.02,0.12-0.04,0.25-0.04,0.38c0.01,0.68,0.02,1.37,0.04,2.05c0.03,1.18,0.06,2.35,0.09,3.53
				c0.01,0.2,0.04,0.39,0.07,0.59c0.04,0.28,0.22,0.43,0.49,0.49c0.18,0.04,0.37,0.07,0.57,0.1c0,0.12,0,0.24,0,0.36
				c-0.15,0.04-3.21,0.06-3.63,0.02c-0.06-0.12-0.03-0.24-0.02-0.38c0.1-0.02,0.19-0.03,0.29-0.05c0.07-0.01,0.14-0.02,0.21-0.04
				c0.34-0.08,0.48-0.23,0.52-0.58c0.02-0.21,0.03-0.42,0.03-0.63c-0.01-1.15-0.02-2.3-0.02-3.44c0-0.54,0-1.08,0-1.63
				c0-0.07-0.01-0.15-0.01-0.24c-0.12,0.04-0.13,0.13-0.16,0.2c-0.34,0.79-0.68,1.58-1.02,2.36c-0.6,1.38-1.19,2.76-1.79,4.15
				c-0.08,0.19-0.1,0.19-0.27,0.2c-0.16,0-0.17-0.12-0.21-0.22c-0.86-2.1-1.71-4.21-2.57-6.32c-0.03-0.08-0.07-0.15-0.1-0.22
				c-0.02,0-0.03,0.01-0.05,0.01c-0.01,0.09-0.03,0.19-0.03,0.28c-0.04,0.77-0.07,1.53-0.1,2.3c-0.03,0.83-0.06,1.66-0.08,2.49
				c-0.01,0.24,0.02,0.48,0.04,0.72c0.03,0.29,0.2,0.46,0.47,0.53c0.14,0.04,0.29,0.06,0.43,0.08
				C47.42,22.72,47.49,22.73,47.59,22.75z"/>
			<path class="st0" d="M71.54,9.44c-0.07-0.04-0.12-0.06-0.17-0.09C70.65,9,70.31,8.41,70.33,7.62c0.02-0.75,0.38-1.32,1.03-1.68
				c0.81-0.45,1.66-0.51,2.52-0.14c0.18,0.08,0.36,0.11,0.55,0.09c0.47-0.05,0.94-0.09,1.41-0.14c0.05,0,0.12,0,0.13,0.02
				c0.02,0.04,0.01,0.11-0.01,0.15C75.92,6,75.87,6.08,75.82,6.16c-0.27,0.4-0.3,0.42-0.77,0.37c-0.1-0.01-0.2-0.01-0.32-0.02
				c0.03,0.06,0.04,0.11,0.07,0.14c0.44,0.64,0.35,1.76-0.39,2.38c-0.39,0.33-0.85,0.5-1.34,0.56c-0.31,0.04-0.62,0.03-0.93-0.02
				c-0.11-0.02-0.19,0.02-0.26,0.1c-0.24,0.27-0.18,0.58,0.15,0.72c0.16,0.07,0.35,0.1,0.53,0.1c0.49,0.01,0.99,0,1.48,0
				c0.27,0,0.53,0.05,0.79,0.14c0.6,0.21,0.93,0.66,0.95,1.31c0.02,0.61-0.2,1.12-0.6,1.56c-0.57,0.64-1.3,0.99-2.14,1.14
				c-0.56,0.1-1.12,0.08-1.67-0.09c-0.31-0.09-0.59-0.23-0.83-0.45c-0.23-0.2-0.39-0.44-0.47-0.74c-0.08-0.32-0.02-0.61,0.21-0.84
				c0.16-0.16,0.34-0.3,0.51-0.44c0.19-0.15,0.39-0.28,0.61-0.44c-0.09-0.04-0.16-0.07-0.23-0.1c-0.41-0.19-0.73-0.48-0.86-0.93
				c-0.03-0.1-0.03-0.2-0.05-0.32C70.75,10.08,71.18,9.84,71.54,9.44z M72.92,11.63c0,0.01,0,0.02,0,0.04c-0.16,0-0.32,0-0.49,0
				c-0.41,0.01-0.73,0.19-0.96,0.53c-0.2,0.31-0.23,0.63-0.07,0.96c0.16,0.33,0.42,0.54,0.75,0.67c0.54,0.22,1.1,0.22,1.65,0.03
				c0.29-0.1,0.53-0.27,0.69-0.53c0.32-0.5,0.32-1.36-0.62-1.58C73.57,11.68,73.24,11.67,72.92,11.63z M73.72,7.68
				c-0.02-0.32-0.06-0.64-0.17-0.94c-0.08-0.22-0.19-0.42-0.38-0.57c-0.35-0.28-0.8-0.23-1.06,0.13c-0.11,0.16-0.2,0.34-0.25,0.53
				c-0.14,0.51-0.11,1.03,0.04,1.54c0.06,0.21,0.16,0.4,0.32,0.56c0.37,0.38,0.92,0.33,1.21-0.12c0.07-0.11,0.13-0.24,0.16-0.36
				C73.65,8.2,73.68,7.94,73.72,7.68z"/>
			<path class="st0" d="M33.22,17.34c0-0.07,0.01-0.13,0.01-0.19c0-0.54,0-1.07,0-1.61c0-0.53-0.1-0.65-0.63-0.73
				c-0.09-0.01-0.18-0.02-0.27-0.04c-0.01-0.04-0.02-0.06-0.02-0.09c0-0.08,0-0.15,0-0.24c0.78-0.15,1.55-0.3,2.34-0.45
				c0,0.08,0,0.16,0,0.24c0,2.45,0,4.9,0,7.35c0,0.13,0,0.27,0.02,0.4c0.02,0.21,0.14,0.34,0.36,0.38c0.17,0.02,0.35,0.05,0.53,0.08
				c0,0.11,0,0.22,0,0.33c-0.77,0.16-1.53,0.32-2.32,0.48c-0.05-0.22,0-0.46-0.03-0.71c-0.05,0.02-0.1,0.03-0.14,0.05
				c-0.22,0.13-0.44,0.26-0.64,0.4c-0.48,0.33-0.99,0.35-1.53,0.16c-1.04-0.36-1.74-1.3-1.82-2.4c-0.14-1.75,1.11-3.04,2.57-3.4
				c0.46-0.11,0.92-0.15,1.38-0.06C33.09,17.34,33.15,17.34,33.22,17.34z M33.23,20.27c0-0.54,0-1.08,0-1.63c0-0.01,0-0.01,0-0.02
				c0.02-0.13-0.03-0.23-0.11-0.33c-0.42-0.57-1.16-0.67-1.71-0.22c-0.28,0.22-0.45,0.52-0.56,0.85c-0.18,0.54-0.21,1.09-0.16,1.65
				c0.05,0.5,0.22,0.96,0.57,1.33c0.49,0.52,1.13,0.66,1.8,0.29c0.12-0.06,0.17-0.14,0.17-0.28C33.23,21.37,33.23,20.82,33.23,20.27
				z"/>
			<path class="st0" d="M34.5,11.04c0,0.14,0,0.25,0,0.36c-0.17,0.05-3.75,0.06-3.99,0.01c0-0.11,0-0.23,0-0.36
				c0.07-0.01,0.13-0.03,0.2-0.03c0.13-0.02,0.27-0.03,0.4-0.05c0.4-0.08,0.57-0.26,0.6-0.67c0.02-0.19,0.03-0.38,0.03-0.57
				c0-2.01,0-4.03,0-6.04c0-0.09,0-0.18,0-0.25c-0.03-0.03-0.04-0.03-0.05-0.03c-0.52-0.02-1.04-0.04-1.56,0.06
				c-0.29,0.05-0.49,0.23-0.6,0.48c-0.12,0.25-0.2,0.52-0.29,0.79c-0.03,0.1-0.06,0.2-0.09,0.3c-0.14,0-0.26,0-0.41,0
				c0.05-0.74,0.1-1.46,0.14-2.2c2.4,0,4.78,0,7.18,0c0.04,0.72,0.08,1.43,0.12,2.16c-0.1,0.01-0.18,0.02-0.26,0.02
				c-0.04,0-0.08-0.01-0.13-0.01c-0.05-0.18-0.09-0.36-0.15-0.53c-0.07-0.19-0.14-0.38-0.23-0.56c-0.12-0.25-0.33-0.4-0.6-0.46
				c-0.52-0.1-1.04-0.05-1.57-0.07c-0.01,0.08-0.02,0.14-0.02,0.2c0,2.13,0,4.25,0,6.38c0,0.15,0.02,0.3,0.04,0.44
				c0.04,0.27,0.2,0.45,0.46,0.52c0.17,0.04,0.35,0.06,0.52,0.09C34.32,11.02,34.41,11.02,34.5,11.04z"/>
			<path class="st0" d="M65.25,22.78c0,0.13,0,0.24,0,0.36c-0.99,0-1.97,0-2.97,0c0-0.12,0-0.23,0-0.36
				c0.13-0.02,0.25-0.05,0.38-0.07c0.35-0.07,0.45-0.18,0.49-0.54c0.01-0.11,0.01-0.23,0.01-0.34c0-0.95,0-1.9,0-2.85
				c0-0.15-0.02-0.29-0.03-0.44c-0.02-0.2-0.14-0.32-0.32-0.37c-0.11-0.03-0.23-0.06-0.35-0.1c0-0.1,0-0.19,0-0.29
				c0.7-0.16,1.39-0.33,2.12-0.49c0.03,0.29,0,0.6,0.02,0.94c0.09-0.06,0.15-0.09,0.21-0.14c0.3-0.2,0.59-0.41,0.89-0.6
				c0.36-0.22,0.76-0.26,1.16-0.18c0.5,0.1,0.86,0.4,1.08,0.87c0.14,0.3,0.21,0.63,0.21,0.96c0,0.91,0,1.82,0.01,2.73
				c0,0.15,0.01,0.3,0.03,0.44c0.02,0.21,0.14,0.35,0.35,0.4c0.13,0.03,0.26,0.05,0.4,0.08c0,0.12,0,0.23,0,0.35
				c-0.96,0-1.91,0-2.87,0c0-0.11,0-0.23,0-0.36c0.08-0.01,0.16-0.03,0.24-0.04c0.27-0.06,0.38-0.18,0.42-0.46
				c0.02-0.16,0.03-0.32,0.03-0.48c0-0.75,0-1.49,0-2.24c0-0.18-0.02-0.37-0.05-0.54c-0.14-0.73-0.73-0.94-1.31-0.77
				c-0.26,0.08-0.49,0.22-0.7,0.38c-0.07,0.05-0.09,0.12-0.09,0.2c0,0.2,0,0.39,0,0.59c0,0.87,0,1.75,0,2.62
				c0,0.1,0.01,0.2,0.02,0.29c0.03,0.24,0.17,0.38,0.41,0.42C65.08,22.75,65.17,22.77,65.25,22.78z"/>
			<path class="st0" d="M46.43,6.35c0-0.1,0-0.2,0-0.29c0.71-0.17,1.4-0.33,2.12-0.49c0.04,0.29-0.01,0.59,0.03,0.93
				c0.07-0.04,0.12-0.07,0.17-0.1c0.27-0.18,0.53-0.37,0.8-0.55c0.19-0.13,0.4-0.22,0.64-0.27c0.68-0.12,1.45,0.17,1.76,0.95
				c0.15,0.36,0.19,0.73,0.19,1.12c0,0.84,0,1.68,0,2.51c0,0.14,0,0.28,0.02,0.42c0.02,0.22,0.15,0.36,0.37,0.41
				c0.12,0.03,0.23,0.04,0.37,0.07c0,0.11,0,0.21,0,0.35c-0.31,0.03-0.62,0.01-0.93,0.01c-0.32,0-0.65,0-0.97,0
				c-0.32,0-0.63,0-0.96,0c0-0.13,0-0.24,0-0.36c0.09-0.02,0.19-0.04,0.28-0.06c0.23-0.05,0.35-0.19,0.38-0.42
				c0.02-0.15,0.03-0.29,0.03-0.44c0-0.79,0.01-1.58,0-2.37c0-0.2-0.03-0.39-0.07-0.58c-0.16-0.65-0.68-0.8-1.16-0.71
				c-0.32,0.06-0.59,0.23-0.84,0.42c-0.08,0.06-0.08,0.14-0.08,0.23c0,0.63,0,1.25,0,1.88c0,0.41,0,0.82,0,1.23
				c0,0.14,0.02,0.28,0.04,0.42c0.03,0.19,0.14,0.3,0.33,0.34c0.1,0.02,0.19,0.04,0.3,0.06c0,0.11,0,0.22,0,0.33
				c-0.15,0.05-2.64,0.07-2.96,0.02c-0.01-0.05-0.01-0.1-0.02-0.16c0-0.06,0-0.11,0-0.18c0.13-0.02,0.25-0.04,0.37-0.07
				c0.37-0.07,0.5-0.2,0.51-0.58c0.01-0.46,0.01-0.93,0.01-1.39c0-0.6,0-1.2,0-1.8c0-0.15-0.01-0.29-0.04-0.44
				c-0.02-0.17-0.13-0.28-0.29-0.33C46.7,6.43,46.57,6.39,46.43,6.35z"/>
			<path class="st0" d="M88.27,11.6c-0.83-0.02-1.57-0.26-2.15-0.87c-0.61-0.64-0.86-1.42-0.78-2.3c0.02-0.26,0.06-0.52,0.14-0.76
				c0.4-1.2,1.26-1.9,2.5-2.07c1.13-0.15,2.07,0.24,2.74,1.18c0.44,0.61,0.58,1.3,0.51,2.04C91.2,9.15,91.13,9.48,91,9.79
				c-0.41,0.98-1.15,1.55-2.19,1.75C88.63,11.57,88.45,11.58,88.27,11.6z M89.63,8.89c0-0.81-0.08-1.35-0.26-1.83
				c-0.1-0.27-0.24-0.52-0.45-0.73c-0.38-0.36-1.08-0.51-1.55,0.15C87.19,6.73,87.09,7,87.03,7.29C86.89,7.93,86.9,8.56,87,9.2
				c0.06,0.4,0.17,0.78,0.36,1.14c0.12,0.23,0.27,0.43,0.48,0.58c0.51,0.37,1.16,0.23,1.46-0.32c0.08-0.14,0.14-0.29,0.18-0.45
				C89.61,9.72,89.63,9.27,89.63,8.89z"/>
			<path class="st0" d="M66.5,11.59c-1.02-0.02-1.83-0.32-2.42-1.07c-0.49-0.63-0.68-1.35-0.6-2.14c0.03-0.27,0.07-0.55,0.17-0.8
				c0.42-1.16,1.27-1.83,2.48-1.99c1.18-0.15,2.13,0.26,2.8,1.26c0.39,0.59,0.52,1.25,0.45,1.96c-0.03,0.37-0.11,0.74-0.27,1.08
				c-0.42,0.93-1.15,1.47-2.15,1.65C66.78,11.57,66.6,11.58,66.5,11.59z M67.77,8.83c0.01-0.57-0.04-1.13-0.22-1.67
				c-0.1-0.29-0.23-0.56-0.44-0.78c-0.38-0.41-1.14-0.59-1.62,0.13c-0.16,0.24-0.26,0.5-0.32,0.78c-0.14,0.65-0.12,1.3-0.02,1.95
				c0.06,0.38,0.17,0.75,0.35,1.1c0.12,0.23,0.27,0.43,0.48,0.58c0.5,0.37,1.16,0.24,1.47-0.31c0.08-0.15,0.14-0.31,0.19-0.47
				C67.76,9.71,67.78,9.27,67.77,8.83z"/>
			<path class="st0" d="M59.12,23.3c-1,0-1.67-0.19-2.23-0.68c-0.75-0.65-1.05-1.49-0.99-2.47c0.02-0.34,0.09-0.67,0.22-0.99
				c0.48-1.21,1.71-1.96,3.01-1.89c1.27,0.07,2.38,0.96,2.63,2.33c0.14,0.79,0.05,1.55-0.35,2.25
				C60.85,22.85,59.96,23.28,59.12,23.3z M60.21,20.53c0.01-0.44-0.03-0.91-0.14-1.37c-0.09-0.39-0.23-0.75-0.51-1.05
				c-0.39-0.43-1.17-0.61-1.65,0.13c-0.15,0.23-0.25,0.49-0.31,0.76c-0.14,0.63-0.12,1.27-0.03,1.91c0.06,0.4,0.17,0.78,0.36,1.14
				c0.12,0.23,0.28,0.44,0.49,0.6c0.5,0.35,1.13,0.22,1.44-0.3c0.09-0.15,0.15-0.32,0.2-0.49C60.19,21.44,60.21,21.01,60.21,20.53z"
				/>
			<path class="st0" d="M59.38,8.5c0,0.41-0.06,0.8-0.2,1.18c-0.39,1.05-1.15,1.66-2.24,1.86c-0.62,0.11-1.24,0.05-1.82-0.21
				c-1.01-0.46-1.55-1.27-1.65-2.37c-0.06-0.62,0.04-1.22,0.33-1.78c0.49-0.92,1.27-1.45,2.3-1.59c0.96-0.13,1.8,0.14,2.48,0.84
				C59.14,7.01,59.39,7.71,59.38,8.5z M57.78,9.2c0-0.78-0.03-1.38-0.2-1.96c-0.09-0.31-0.23-0.6-0.45-0.85
				c-0.39-0.43-1.16-0.6-1.64,0.12c-0.17,0.26-0.27,0.54-0.33,0.84c-0.12,0.59-0.11,1.19-0.02,1.78c0.06,0.41,0.17,0.81,0.36,1.19
				c0.13,0.25,0.29,0.47,0.52,0.63c0.49,0.34,1.12,0.2,1.42-0.31c0.08-0.14,0.15-0.29,0.18-0.45C57.7,9.8,57.75,9.41,57.78,9.2z"/>
			<path class="st0" d="M93.57,17.78c0-0.12,0-0.22,0-0.34c0.99,0,1.97,0,2.96,0c0.01,0.04,0.02,0.07,0.02,0.11
				c0,0.07,0,0.14,0,0.22c-0.09,0.03-0.18,0.06-0.26,0.08c-0.3,0.1-0.36,0.21-0.27,0.5c0.18,0.55,0.37,1.09,0.56,1.64
				c0.15,0.44,0.3,0.88,0.46,1.32c0.02,0.05,0.04,0.09,0.07,0.16c0.04-0.09,0.07-0.15,0.1-0.21c0.32-0.9,0.64-1.8,0.95-2.71
				c0.15-0.45,0.05-0.61-0.41-0.72c-0.06-0.02-0.12-0.03-0.19-0.05c0-0.11,0-0.22,0-0.34c0.76,0,1.5,0,2.26,0
				c0.01,0.05,0.01,0.11,0.02,0.16c0,0.06,0,0.11,0,0.18c-0.06,0.02-0.11,0.04-0.16,0.05c-0.34,0.06-0.58,0.25-0.73,0.55
				c-0.21,0.45-0.42,0.89-0.61,1.34c-0.67,1.61-1.33,3.23-1.98,4.84c-0.19,0.47-0.35,0.95-0.49,1.44c-0.11,0.37-0.37,0.47-0.7,0.36
				c-0.23-0.08-0.42-0.22-0.54-0.44c-0.13-0.24-0.09-0.47,0.12-0.64c0.07-0.06,0.15-0.11,0.23-0.16c0.67-0.37,1.01-0.98,1.27-1.66
				c0.07-0.2,0.03-0.4-0.04-0.6c-0.29-0.78-0.57-1.56-0.86-2.34c-0.24-0.63-0.49-1.26-0.74-1.89c-0.04-0.1-0.09-0.19-0.13-0.29
				c-0.13-0.28-0.35-0.45-0.65-0.52C93.74,17.82,93.66,17.8,93.57,17.78z"/>
			<path class="st0" d="M36.71,8.27c0.02,0.16,0.01,0.33,0.05,0.48c0.06,0.25,0.11,0.5,0.22,0.72c0.41,0.9,1.3,1.26,2.23,0.94
				c0.29-0.1,0.54-0.27,0.8-0.48c0.07,0.09,0.13,0.18,0.19,0.26c0,0.03,0,0.05-0.01,0.06c-0.46,0.65-1.05,1.14-1.84,1.28
				c-1.02,0.18-1.87-0.14-2.5-0.99c-0.29-0.39-0.44-0.85-0.49-1.33c-0.17-1.64,0.7-2.85,1.87-3.41c0.72-0.35,1.45-0.34,2.13,0.12
				c0.54,0.36,0.84,0.88,0.92,1.52c0.01,0.04,0.01,0.08,0.01,0.13c0,0.33-0.09,0.45-0.42,0.48c-0.46,0.05-0.93,0.08-1.39,0.11
				c-0.54,0.03-1.08,0.06-1.62,0.09C36.8,8.25,36.77,8.26,36.71,8.27z M36.78,7.66c0.07,0.01,0.12,0.02,0.17,0.02
				c0.53-0.01,1.07-0.02,1.6-0.03c0.06,0,0.11-0.01,0.17-0.02c0.09-0.02,0.14-0.08,0.14-0.16c0.03-0.48-0.08-0.91-0.45-1.24
				c-0.24-0.21-0.56-0.23-0.85-0.08c-0.18,0.1-0.31,0.24-0.42,0.41C36.93,6.88,36.82,7.25,36.78,7.66z"/>
			<path class="st0" d="M37.52,19.99c0.03,0.74,0.19,1.42,0.79,1.9c0.55,0.44,1.18,0.47,1.81,0.2c0.24-0.1,0.46-0.26,0.71-0.4
				c0.05,0.07,0.12,0.16,0.18,0.26c-0.04,0.05-0.06,0.1-0.1,0.15c-0.43,0.55-0.96,0.97-1.65,1.15c-0.86,0.22-2.04-0.04-2.68-1.07
				c-1-1.62-0.33-4.1,1.81-4.78c1.34-0.43,2.49,0.53,2.66,1.69c0.02,0.12,0.02,0.24,0.01,0.36c-0.01,0.18-0.1,0.29-0.28,0.32
				c-0.24,0.04-0.49,0.06-0.73,0.08c-0.79,0.05-1.57,0.09-2.36,0.14C37.65,19.96,37.6,19.97,37.52,19.99z M37.59,19.38
				c0.06,0.01,0.09,0.02,0.12,0.02c0.57-0.01,1.14-0.03,1.71-0.04c0.01,0,0.03,0,0.04,0c0.14-0.03,0.2-0.08,0.21-0.22
				c0.01-0.41-0.07-0.8-0.36-1.11c-0.21-0.23-0.48-0.32-0.78-0.23c-0.21,0.06-0.37,0.2-0.5,0.37c-0.19,0.25-0.31,0.54-0.37,0.84
				C37.63,19.13,37.61,19.25,37.59,19.38z"/>
			<path class="st0" d="M89.85,19.99c0.04,0.74,0.2,1.42,0.8,1.9c0.55,0.44,1.18,0.47,1.81,0.2c0.24-0.1,0.46-0.26,0.71-0.4
				c0.05,0.07,0.12,0.17,0.2,0.28c-0.13,0.15-0.25,0.31-0.39,0.45c-0.39,0.4-0.84,0.71-1.39,0.84c-0.88,0.21-2.03-0.07-2.66-1.08
				c-1-1.61-0.33-4.08,1.79-4.78c1.34-0.44,2.49,0.51,2.68,1.64c0.02,0.13,0.02,0.27,0.01,0.4c-0.01,0.18-0.1,0.29-0.28,0.32
				c-0.24,0.04-0.49,0.06-0.73,0.08c-0.79,0.05-1.57,0.09-2.36,0.14C89.98,19.96,89.93,19.97,89.85,19.99z M89.93,19.37
				c0.05,0.02,0.06,0.03,0.07,0.03c0.6-0.01,1.19-0.02,1.79-0.04c0.16-0.01,0.22-0.08,0.22-0.25c0-0.36-0.07-0.7-0.29-0.99
				c-0.3-0.41-0.8-0.47-1.18-0.14C90.13,18.34,89.99,18.84,89.93,19.37z"/>
			<path class="st0" d="M74.53,19.98c0.03,0.76,0.2,1.45,0.82,1.93c0.54,0.41,1.14,0.43,1.76,0.19c0.19-0.08,0.37-0.21,0.55-0.31
				c0.05-0.03,0.1-0.07,0.17-0.12c0.07,0.1,0.13,0.19,0.21,0.3c-0.13,0.15-0.24,0.3-0.37,0.43c-0.39,0.41-0.85,0.72-1.41,0.85
				c-0.86,0.21-2.02-0.06-2.66-1.07c-0.33-0.52-0.46-1.1-0.44-1.71c0.05-1.38,0.7-2.39,1.95-2.97c1.34-0.62,2.55,0.18,2.88,1.25
				c0.06,0.19,0.08,0.4,0.09,0.6c0.01,0.28-0.1,0.39-0.38,0.43c-0.17,0.02-0.34,0.04-0.5,0.05c-0.78,0.05-1.56,0.09-2.34,0.14
				C74.75,19.96,74.65,19.97,74.53,19.98z M74.6,19.37c0.04,0.02,0.06,0.03,0.08,0.03c0.6-0.01,1.19-0.02,1.79-0.04
				c0.15-0.01,0.21-0.08,0.22-0.23c0.01-0.38-0.07-0.73-0.3-1.03c-0.29-0.38-0.76-0.44-1.13-0.14C74.8,18.32,74.67,18.83,74.6,19.37
				z"/>
			<path class="st0" d="M59.84,2.73c0.75-0.15,1.48-0.3,2.23-0.45c0,0.07,0.01,0.15,0.01,0.24c0,2.52,0,5.04,0,7.56
				c0,0.13,0,0.27,0.01,0.4c0.03,0.33,0.15,0.46,0.48,0.52c0.12,0.02,0.25,0.04,0.39,0.06c0,0.11,0,0.22,0,0.32
				c-0.15,0.05-2.89,0.07-3.17,0.02c-0.01-0.05-0.01-0.1-0.02-0.16c0-0.06,0-0.11,0.01-0.18c0.13-0.02,0.25-0.04,0.37-0.07
				c0.33-0.07,0.44-0.19,0.49-0.52c0.02-0.12,0.02-0.24,0.02-0.36c0-2.08,0-4.15,0-6.23c0-0.14-0.02-0.28-0.03-0.42
				c-0.02-0.19-0.13-0.31-0.32-0.35c-0.15-0.03-0.3-0.06-0.47-0.09C59.84,2.93,59.84,2.83,59.84,2.73z"/>
			<path class="st0" d="M69.87,18c-0.26,0-0.49,0-0.71,0c-0.07,0-0.16,0.02-0.17-0.08c-0.01-0.05,0.02-0.12,0.05-0.16
				c0.15-0.25,0.34-0.4,0.65-0.33c0.05,0.01,0.1-0.01,0.17-0.01c0-0.16,0-0.32,0-0.48c0-0.15-0.03-0.33,0.03-0.46
				c0.06-0.12,0.22-0.19,0.33-0.28c0.26-0.2,0.51-0.39,0.77-0.6c0.09-0.07,0.17-0.09,0.28,0.02c0,0.58,0,1.19,0,1.81
				c0.09,0,0.16,0.01,0.23,0.01c0.33,0,0.66,0,0.99,0c0.15,0,0.19,0.04,0.2,0.18c0.01,0.07,0,0.14-0.01,0.21
				C72.65,17.95,72.58,18,72.44,18c-0.31,0-0.62,0-0.93,0c-0.07,0-0.14,0-0.23,0c-0.01,0.09-0.01,0.16-0.01,0.22
				c0,0.99,0,1.99,0,2.98c0,0.22,0.02,0.44,0.07,0.65c0.12,0.48,0.44,0.67,0.92,0.58c0.15-0.03,0.3-0.08,0.47-0.12
				c0.03,0.11,0.07,0.23,0.11,0.35c-0.04,0.03-0.06,0.05-0.09,0.07c-0.3,0.15-0.61,0.29-0.91,0.44c-0.35,0.17-0.71,0.17-1.07,0.07
				c-0.37-0.11-0.64-0.34-0.76-0.7c-0.07-0.19-0.11-0.39-0.13-0.59c-0.02-0.34-0.01-0.68-0.01-1.01c0-0.88,0-1.76,0-2.64
				C69.87,18.2,69.87,18.12,69.87,18z"/>
			<path class="st0" d="M80.77,17.3c0,0.43,0,0.87,0,1.32c0.1,0.01,0.11-0.07,0.14-0.12c0.19-0.3,0.38-0.59,0.65-0.83
				c0.12-0.11,0.26-0.21,0.41-0.3c0.21-0.12,0.43-0.12,0.65-0.04c0.3,0.1,0.49,0.31,0.52,0.63c0.03,0.36-0.15,0.69-0.46,0.86
				c-0.18,0.09-0.35,0.12-0.5-0.04c-0.03-0.03-0.08-0.06-0.12-0.09c-0.33-0.21-0.65-0.18-0.91,0.11c-0.23,0.25-0.39,0.54-0.38,0.91
				c0.02,0.75,0.01,1.51,0.01,2.26c0,0.09,0.01,0.18,0.02,0.27c0.04,0.3,0.16,0.41,0.45,0.47c0.12,0.02,0.24,0.03,0.36,0.05
				c0.07,0.01,0.14,0.02,0.22,0.03c0,0.12,0,0.23,0,0.34c-0.16,0.04-2.89,0.06-3.31,0.02c0-0.11,0-0.23,0-0.35
				c0.13-0.02,0.26-0.04,0.39-0.07c0.28-0.07,0.39-0.19,0.43-0.47c0.02-0.13,0.02-0.25,0.02-0.38c0-0.97,0-1.94,0-2.92
				c0-0.1,0-0.2-0.01-0.3c-0.02-0.28-0.12-0.4-0.39-0.49c-0.1-0.03-0.2-0.06-0.32-0.09c0-0.09,0-0.18,0-0.28
				C79.34,17.63,80.05,17.47,80.77,17.3z"/>
			<path class="st0" d="M85.95,18.62c0.04-0.05,0.07-0.11,0.11-0.16c0.2-0.26,0.38-0.52,0.59-0.76c0.11-0.13,0.27-0.23,0.42-0.32
				c0.21-0.12,0.44-0.13,0.67-0.05c0.3,0.1,0.49,0.31,0.52,0.63c0.03,0.36-0.12,0.65-0.43,0.83c-0.23,0.14-0.36,0.15-0.55-0.03
				c-0.06-0.06-0.14-0.1-0.21-0.14c-0.24-0.12-0.49-0.11-0.69,0.07c-0.29,0.25-0.49,0.55-0.48,0.96c0.01,0.74,0,1.48,0,2.22
				c0,0.13,0.01,0.27,0.03,0.4c0.02,0.21,0.14,0.35,0.35,0.4c0.14,0.03,0.29,0.05,0.44,0.08c0.08,0.01,0.16,0.02,0.25,0.04
				c0,0.13,0,0.24,0,0.36c-1.11,0-2.21,0-3.32,0c0-0.11,0-0.22,0-0.35c0.04-0.01,0.09-0.03,0.14-0.04c0.05-0.01,0.1-0.01,0.15-0.02
				c0.39-0.07,0.51-0.2,0.54-0.61c0.01-0.21,0.02-0.42,0.02-0.63c0-0.82,0-1.63,0-2.45c0-0.14-0.01-0.28-0.02-0.42
				c-0.01-0.25-0.14-0.41-0.38-0.47c-0.11-0.03-0.22-0.06-0.33-0.09c0-0.1,0-0.19,0-0.28c0.71-0.16,1.41-0.33,2.14-0.5
				c0.01,0.43,0,0.87,0.01,1.31C85.91,18.61,85.93,18.62,85.95,18.62z"/>
			<path class="st0" d="M45.69,9.94c0.07,0.09,0.14,0.18,0.21,0.27c-0.14,0.23-0.31,0.41-0.5,0.58c-0.37,0.35-0.79,0.65-1.3,0.74
				c-0.95,0.17-1.78-0.09-2.43-0.8c-0.84-0.9-0.96-2.3-0.3-3.4c0.55-0.91,1.38-1.44,2.4-1.7c0.45-0.11,0.91-0.11,1.35,0.05
				c0.14,0.05,0.27,0.12,0.39,0.2c0.23,0.16,0.29,0.41,0.18,0.67c-0.03,0.08-0.08,0.15-0.13,0.22c-0.21,0.25-0.36,0.26-0.6,0.05
				c-0.29-0.25-0.6-0.47-0.97-0.57c-0.5-0.13-0.94,0.03-1.24,0.45c-0.17,0.25-0.27,0.52-0.32,0.82c-0.1,0.56-0.09,1.13,0.11,1.67
				c0.27,0.72,0.77,1.19,1.54,1.32c0.46,0.08,0.89-0.05,1.28-0.31C45.46,10.12,45.57,10.03,45.69,9.94z"/>
			<path class="st0" d="M84.7,9.94c0.07,0.1,0.14,0.18,0.21,0.27c-0.03,0.05-0.06,0.1-0.09,0.14c-0.22,0.28-0.48,0.52-0.76,0.73
				c-1.1,0.86-2.47,0.51-3.2-0.17c-0.65-0.59-0.93-1.35-0.89-2.22c0.05-1.08,0.6-1.88,1.47-2.48c0.53-0.36,1.12-0.59,1.76-0.65
				c0.42-0.04,0.82,0.03,1.18,0.23c0.47,0.25,0.48,0.82,0.03,1.11c-0.12,0.08-0.24,0.09-0.35,0C84,6.85,83.93,6.8,83.87,6.74
				c-0.23-0.19-0.48-0.36-0.78-0.46c-0.58-0.19-1.1-0.01-1.42,0.52c-0.18,0.3-0.26,0.62-0.29,0.96c-0.05,0.49-0.03,0.97,0.15,1.44
				c0.28,0.72,0.78,1.18,1.55,1.31c0.42,0.07,0.83-0.04,1.19-0.27C84.41,10.16,84.54,10.05,84.7,9.94z"/>
			<path class="st0" d="M78.58,5.59c0,0.09,0,0.17,0,0.26c0,1.39,0,2.78,0,4.16c0,0.18,0.02,0.35,0.03,0.53
				c0.02,0.25,0.16,0.4,0.4,0.45c0.14,0.03,0.28,0.05,0.43,0.08c0,0.11,0,0.22,0,0.32c-0.17,0.06-2.91,0.06-3.12,0
				c0-0.1,0-0.2,0-0.32c0.12-0.02,0.24-0.04,0.37-0.07c0.31-0.06,0.43-0.19,0.46-0.51c0.02-0.2,0.02-0.39,0.02-0.59
				c0-0.81,0-1.62,0-2.43c0-0.18-0.01-0.37-0.02-0.55c-0.02-0.3-0.14-0.43-0.43-0.49c-0.09-0.02-0.18-0.04-0.28-0.06
				c0-0.11,0-0.22,0-0.31C77.14,5.9,77.85,5.75,78.58,5.59z"/>
			<path class="st0" d="M77.8,2.97c0.46,0,0.81,0.36,0.81,0.82c0,0.45-0.37,0.81-0.82,0.81c-0.45,0-0.81-0.37-0.81-0.82
				C76.98,3.32,77.34,2.97,77.8,2.97z"/>
			<path class="st0" d="M66.35,5.02c-0.13-0.05-0.24-0.1-0.37-0.16c0.12-0.34,0.23-0.67,0.34-0.99c0.11-0.33,0.23-0.65,0.33-0.98
				c0.03-0.11,0.1-0.17,0.21-0.18c0.32-0.03,0.64-0.07,0.96-0.1c0.03,0,0.07,0,0.1,0.01c0.08,0.02,0.11,0.08,0.08,0.16
				c-0.02,0.03-0.04,0.06-0.06,0.09c-0.51,0.68-1.01,1.37-1.52,2.05C66.41,4.95,66.39,4.98,66.35,5.02z"/>
		</g>
	</g>
</g>
<g id="Capa_6">
</g>
<g id="Capa_5">
</g>
</svg>
