<?xml version="1.0" encoding="utf-8"?>
<!-- Generator: Adobe Illustrator 24.0.3, SVG Export Plug-In . SVG Version: 6.00 Build 0)  -->
<svg version="1.1" xmlns="http://www.w3.org/2000/svg" xmlns:xlink="http://www.w3.org/1999/xlink" x="0px" y="0px"
	 viewBox="0 0 100.8 19.18" style="enable-background:new 0 0 100.8 19.18;" xml:space="preserve">
<style type="text/css">
	.st0{fill:#FFFFFF;}
	.st1{fill:url(#SVGID_1_);}
	.st2{fill:#E7004C;}
	.st3{fill:none;stroke:#00B2E3;stroke-miterlimit:10;}
	.st4{fill:url(#SVGID_2_);}
	.st5{fill:#FCFCFC;}
	.st6{fill:url(#SVGID_3_);}
	.st7{fill:url(#SVGID_4_);}
	.st8{opacity:0.8;fill:#E7004C;}
	.st9{opacity:0.7;fill:#E7004C;}
	.st10{opacity:0.7;}
	.st11{fill:#00B2E3;}
	.st12{opacity:0.8;fill:#00B2E3;}
	.st13{opacity:0.7;fill:#00B2E3;}
	.st14{fill:#BBBBBB;}
	.st15{opacity:0.8;fill:#BBBBBB;}
	.st16{opacity:0.7;fill:#BBBBBB;}
	.st17{fill:url(#SVGID_5_);}
	.st18{fill:url(#SVGID_6_);}
	.st19{fill:none;stroke:#E7004C;stroke-width:2;stroke-miterlimit:10;}
	.st20{fill:url(#SVGID_7_);}
	.st21{fill:url(#SVGID_8_);}
	.st22{fill:url(#SVGID_9_);}
	.st23{fill:none;stroke:#FFFFFF;stroke-miterlimit:10;}
	.st24{fill:none;stroke:#E7004C;stroke-miterlimit:10;}
	.st25{fill-rule:evenodd;clip-rule:evenodd;fill:#E7004C;}
	.st26{fill:none;stroke:#000000;stroke-miterlimit:10;}
	.st27{fill:#38A8E0;}
	.st28{clip-path:url(#SVGID_11_);fill:#00B2E3;}
	.st29{fill:none;stroke:#E7004C;stroke-width:3;stroke-miterlimit:10;}
	.st30{clip-path:url(#SVGID_13_);}
	.st31{fill:none;stroke:#FFFFFF;stroke-width:2;stroke-miterlimit:10;}
	.st32{fill:none;stroke:#FFFFFF;stroke-width:3;stroke-miterlimit:10;}
	.st33{clip-path:url(#SVGID_15_);}
	.st34{fill:url(#SVGID_16_);}
	.st35{fill:none;stroke:#FFFFFF;stroke-width:0.5;stroke-miterlimit:10;}
	.st36{clip-path:url(#SVGID_18_);fill:#00B2E3;}
	.st37{clip-path:url(#SVGID_20_);}
	.st38{clip-path:url(#SVGID_22_);}
	.st39{fill:url(#SVGID_23_);}
	.st40{clip-path:url(#SVGID_25_);}
	.st41{fill:url(#SVGID_26_);}
	.st42{fill:url(#SVGID_27_);}
	.st43{fill:url(#SVGID_28_);}
	.st44{fill:url(#SVGID_29_);}
	.st45{clip-path:url(#SVGID_31_);fill:#00B2E3;}
	.st46{clip-path:url(#SVGID_33_);}
	.st47{clip-path:url(#SVGID_35_);}
	.st48{fill:url(#SVGID_36_);}
	.st49{clip-path:url(#SVGID_38_);}
	.st50{clip-path:url(#SVGID_40_);}
	.st51{fill:#280210;}
	.st52{opacity:0.5;}
	.st53{opacity:0.6;}
	.st54{fill:url(#SVGID_41_);}
	.st55{fill:url(#SVGID_42_);}
	.st56{fill:url(#SVGID_43_);}
	.st57{fill:url(#SVGID_44_);}
	.st58{opacity:0.8;}
	.st59{opacity:0.9;}
	.st60{fill:url(#SVGID_45_);}
	.st61{clip-path:url(#SVGID_47_);}
	.st62{clip-path:url(#SVGID_49_);}
	.st63{fill:url(#SVGID_50_);}
	.st64{clip-path:url(#SVGID_52_);}
	.st65{fill:url(#SVGID_53_);}
	.st66{clip-path:url(#SVGID_55_);}
	.st67{fill:url(#SVGID_56_);}
	.st68{clip-path:url(#SVGID_58_);}
	.st69{clip-path:url(#SVGID_60_);fill:#00B2E3;}
	.st70{clip-path:url(#SVGID_62_);}
	.st71{clip-path:url(#SVGID_64_);}
	.st72{fill:none;stroke:#FFFFFF;stroke-width:5;stroke-miterlimit:10;}
	.st73{clip-path:url(#SVGID_66_);fill:#00B2E3;}
	.st74{clip-path:url(#SVGID_68_);}
	.st75{clip-path:url(#SVGID_70_);}
	.st76{clip-path:url(#SVGID_72_);fill:#00B2E3;}
	.st77{clip-path:url(#SVGID_74_);}
	.st78{fill:#5B0323;}
	.st79{fill:url(#SVGID_75_);}
	.st80{fill:url(#SVGID_76_);}
	.st81{fill:url(#SVGID_77_);}
	.st82{clip-path:url(#SVGID_80_);fill:#00B2E3;}
	.st83{clip-path:url(#SVGID_84_);}
	.st84{clip-path:url(#SVGID_86_);}
	.st85{fill-rule:evenodd;clip-rule:evenodd;fill:#FFFFFF;}
	.st86{fill:#E5E5E5;}
	.st87{clip-path:url(#SVGID_88_);}
	.st88{fill-rule:evenodd;clip-rule:evenodd;fill:none;stroke:#E7004C;stroke-width:3;stroke-miterlimit:10;}
	.st89{fill:#070101;}
	.st90{fill:none;stroke:#068FFF;stroke-width:5;stroke-miterlimit:10;}
</style>
<g id="Capa_2">
</g>
<g id="Capa_1">
</g>
<g id="Capa_3">
</g>
<g id="Capa_4">
	<g>
		<path class="st0" d="M68.89,7.38c-0.97-0.91-2.04-1.37-3.5-1.35h-5.17v13.15h3.43v-3.82h1.67c1.48,0,2.58-0.46,3.57-1.36
			c0.94-0.89,1.43-2,1.43-3.3C70.31,9.41,69.83,8.29,68.89,7.38z M65.11,12.07h-1.47V9.3h1.47c0.84,0,1.66,0.58,1.66,1.39
			C66.77,11.49,65.95,12.07,65.11,12.07z"/>
		<path class="st0" d="M34.47,17.37L34.47,17.37l-2.29-2.27c-0.64,0.55-1.51,0.89-2.49,0.89c-1.9,0-3.62-1.5-3.62-3.37
			c0-1.87,1.71-3.4,3.62-3.4c0,0,0,0,0,0c0.88-0.96,1.82-1.84,2.84-2.62c-0.85-0.36-1.8-0.57-2.79-0.57c-3.79,0-6.87,2.94-6.87,6.57
			c0,3.63,3.08,6.57,6.87,6.57C31.58,19.18,33.24,18.49,34.47,17.37C34.47,17.37,34.47,17.37,34.47,17.37z"/>
		<path class="st0" d="M7.79,19.15c1.11-0.08,2.07-0.39,2.95-0.91c0.04-0.02,0.08-0.05,0.12-0.07c0.02-0.01,0.04-0.03,0.06-0.04
			c0.1-0.06,0.2-0.12,0.3-0.19c0,0,0,0,0,0c0,0,0,0-0.01,0c0.24-0.17,0.48-0.36,0.72-0.56c-0.77-0.78-1.55-1.55-2.33-2.32
			c-0.75,0.62-1.4,0.93-2.42,0.93c-1.08,0-1.73-0.32-2.5-0.98C4.2,14.57,3.88,14.11,3.7,13.6c-0.02-0.05-0.03-0.11-0.05-0.16
			c-0.01-0.05-0.03-0.1-0.04-0.15c-0.01-0.06-0.02-0.12-0.03-0.19c-0.01-0.05-0.02-0.1-0.02-0.15c-0.01-0.06-0.01-0.13-0.01-0.2
			c0-0.05-0.01-0.09-0.01-0.14c0-1.86,1.72-3.39,3.62-3.39c0,0,0,0,0,0c0,0,0.01-0.01,0.01-0.01c0,0,0,0,0,0
			c0.98,0,1.61,0.28,2.32,0.84l2.31-2.31c-1.11-0.94-2.28-1.5-3.7-1.67c0,0,0,0.01-0.01,0.01C7.8,6.06,7.51,6.04,7.21,6.04
			c-1.78,0-3.41,0.65-4.63,1.72L2.57,7.73c-0.1,0.09-0.19,0.17-0.27,0.25c-1.34,1.29-2.01,2.85-2.01,4.64c0,1.8,0.68,3.36,2.01,4.64
			c1.41,1.28,2.89,1.92,4.88,1.92c0,0,0.01,0,0.01,0c0.01,0,0.02,0,0.03,0c0.02,0,0.04,0,0.06,0c0.15,0,0.3-0.01,0.45-0.02
			C7.75,19.16,7.77,19.16,7.79,19.15z"/>
		<path class="st0" d="M94.59,6.03h-0.37h0h-0.37l-6.21,13.15h3.43l0.97-2.4h4.37l0.97,2.4h3.43L94.59,6.03z M94.22,14.54
			L94.22,14.54h-0.78l0.78-1.82L95,14.54H94.22z"/>
		<g>
			<g>
				<polygon class="st0" points="20.51,6.03 18.04,10.3 15.57,6.03 11.99,6.03 16.38,13.56 16.38,19.18 19.82,19.18 19.82,13.56 
					24.1,6.03 				"/>
				<path class="st0" d="M39.98,7.8c-1.37,0.45-2.43,0.96-3.43,1.62v9.75h8.02v-3.43h-4.6V7.8z"/>
				<path class="st0" d="M75.3,6.03h-0.37h0h-0.37l-6.21,13.15h3.43l0.89-2.06h2.26h0h2.27l0.89,2.06h3.43L75.3,6.03z M74.93,14.54
					L74.93,14.54h-0.78l0.78-1.82l0.78,1.82H74.93z"/>
			</g>
			<g>
				<g>
					<path class="st0" d="M52.04,6.03c-0.56,0-1.08,0.05-1.58,0.16l-1.29-3.01h-3.02c-6.88,0-13.34,3.37-17.26,9.03l1.82,1.27
						c3.51-5.05,9.28-8.07,15.44-8.07h1.56l3.32,7.72l2.04-0.88l-1.3-3.02c0.09-0.01,0.18-0.01,0.27-0.01c1.06,0,1.71,0.32,2.5,0.99
						c0.76,0.68,1.14,1.46,1.14,2.39c0,0.94-0.37,1.72-1.13,2.39c-0.78,0.66-1.44,0.99-2.5,0.99c-1.08,0-1.73-0.32-2.5-0.98
						c-0.76-0.67-1.14-1.46-1.14-2.39c0-0.57,0.14-1.09,0.44-1.57l-1.42-3.3c-0.1,0.09-0.19,0.17-0.27,0.25
						c-1.34,1.29-2.01,2.85-2.01,4.64c0,1.8,0.68,3.36,2.01,4.64c1.41,1.28,2.89,1.92,4.88,1.92c1.99,0,3.47-0.64,4.89-1.92
						c1.34-1.28,2.02-2.84,2.02-4.64c0-1.8-0.68-3.36-2.02-4.64C55.51,6.68,54.02,6.03,52.04,6.03z"/>
				</g>
				<polygon class="st0" points="51.18,4.88 54.94,1.58 52.82,0 50.45,3.19 				"/>
			</g>
		</g>
		<polygon class="st0" points="89.86,6.03 83.27,6.03 79.22,6.03 79.22,9.46 82.86,9.46 82.86,19.18 86.29,19.18 86.29,9.46 
			89.86,9.46 		"/>
	</g>
</g>
<g id="Capa_6">
</g>
<g id="Capa_5">
</g>
</svg>
