<?xml version="1.0" encoding="utf-8"?>
<!-- Generator: Adobe Illustrator 24.0.3, SVG Export Plug-In . SVG Version: 6.00 Build 0)  -->
<svg version="1.1" xmlns="http://www.w3.org/2000/svg" xmlns:xlink="http://www.w3.org/1999/xlink" x="0px" y="0px"
	 viewBox="0 0 118.71 22.75" style="enable-background:new 0 0 118.71 22.75;" xml:space="preserve">
<style type="text/css">
	.st0{fill:#FFFFFF;}
	.st1{fill:url(#SVGID_1_);}
	.st2{fill:#E7004C;}
	.st3{fill:none;stroke:#00B2E3;stroke-miterlimit:10;}
	.st4{fill:url(#SVGID_2_);}
	.st5{fill:#FCFCFC;}
	.st6{fill:url(#SVGID_3_);}
	.st7{fill:url(#SVGID_4_);}
	.st8{opacity:0.8;fill:#E7004C;}
	.st9{opacity:0.7;fill:#E7004C;}
	.st10{opacity:0.7;}
	.st11{fill:#00B2E3;}
	.st12{opacity:0.8;fill:#00B2E3;}
	.st13{opacity:0.7;fill:#00B2E3;}
	.st14{fill:#BBBBBB;}
	.st15{opacity:0.8;fill:#BBBBBB;}
	.st16{opacity:0.7;fill:#BBBBBB;}
	.st17{fill:url(#SVGID_5_);}
	.st18{fill:url(#SVGID_6_);}
	.st19{fill:none;stroke:#E7004C;stroke-width:2;stroke-miterlimit:10;}
	.st20{fill:url(#SVGID_7_);}
	.st21{fill:url(#SVGID_8_);}
	.st22{fill:url(#SVGID_9_);}
	.st23{fill:none;stroke:#FFFFFF;stroke-miterlimit:10;}
	.st24{fill:none;stroke:#E7004C;stroke-miterlimit:10;}
	.st25{fill-rule:evenodd;clip-rule:evenodd;fill:#E7004C;}
	.st26{fill:none;stroke:#000000;stroke-miterlimit:10;}
	.st27{fill:#38A8E0;}
	.st28{clip-path:url(#SVGID_11_);fill:#00B2E3;}
	.st29{fill:none;stroke:#E7004C;stroke-width:3;stroke-miterlimit:10;}
	.st30{clip-path:url(#SVGID_13_);}
	.st31{fill:none;stroke:#FFFFFF;stroke-width:2;stroke-miterlimit:10;}
	.st32{fill:none;stroke:#FFFFFF;stroke-width:3;stroke-miterlimit:10;}
	.st33{clip-path:url(#SVGID_15_);}
	.st34{fill:url(#SVGID_16_);}
	.st35{fill:none;stroke:#FFFFFF;stroke-width:0.5;stroke-miterlimit:10;}
	.st36{clip-path:url(#SVGID_18_);fill:#00B2E3;}
	.st37{clip-path:url(#SVGID_20_);}
	.st38{clip-path:url(#SVGID_22_);}
	.st39{fill:url(#SVGID_23_);}
	.st40{clip-path:url(#SVGID_25_);}
	.st41{fill:url(#SVGID_26_);}
	.st42{fill:url(#SVGID_27_);}
	.st43{fill:url(#SVGID_28_);}
	.st44{fill:url(#SVGID_29_);}
	.st45{clip-path:url(#SVGID_31_);fill:#00B2E3;}
	.st46{clip-path:url(#SVGID_33_);}
	.st47{clip-path:url(#SVGID_35_);}
	.st48{fill:url(#SVGID_36_);}
	.st49{clip-path:url(#SVGID_38_);}
	.st50{clip-path:url(#SVGID_40_);}
	.st51{fill:#280210;}
	.st52{opacity:0.5;}
	.st53{opacity:0.6;}
	.st54{fill:url(#SVGID_41_);}
	.st55{fill:url(#SVGID_42_);}
	.st56{fill:url(#SVGID_43_);}
	.st57{fill:url(#SVGID_44_);}
	.st58{opacity:0.8;}
	.st59{opacity:0.9;}
	.st60{fill:url(#SVGID_45_);}
	.st61{clip-path:url(#SVGID_47_);}
	.st62{clip-path:url(#SVGID_49_);}
	.st63{fill:url(#SVGID_50_);}
	.st64{clip-path:url(#SVGID_52_);}
	.st65{fill:url(#SVGID_53_);}
	.st66{clip-path:url(#SVGID_55_);}
	.st67{fill:url(#SVGID_56_);}
	.st68{clip-path:url(#SVGID_58_);}
	.st69{clip-path:url(#SVGID_60_);fill:#00B2E3;}
	.st70{clip-path:url(#SVGID_62_);}
	.st71{clip-path:url(#SVGID_64_);}
	.st72{fill:none;stroke:#FFFFFF;stroke-width:5;stroke-miterlimit:10;}
	.st73{clip-path:url(#SVGID_66_);fill:#00B2E3;}
	.st74{clip-path:url(#SVGID_68_);}
	.st75{clip-path:url(#SVGID_70_);}
	.st76{clip-path:url(#SVGID_72_);fill:#00B2E3;}
	.st77{clip-path:url(#SVGID_74_);}
	.st78{fill:#5B0323;}
	.st79{fill:url(#SVGID_75_);}
	.st80{fill:url(#SVGID_76_);}
	.st81{fill:url(#SVGID_77_);}
	.st82{clip-path:url(#SVGID_80_);fill:#00B2E3;}
	.st83{clip-path:url(#SVGID_84_);}
	.st84{clip-path:url(#SVGID_86_);}
	.st85{fill-rule:evenodd;clip-rule:evenodd;fill:#FFFFFF;}
	.st86{fill:#E5E5E5;}
	.st87{clip-path:url(#SVGID_88_);}
	.st88{fill-rule:evenodd;clip-rule:evenodd;fill:none;stroke:#E7004C;stroke-width:3;stroke-miterlimit:10;}
	.st89{fill:#070101;}
	.st90{fill:none;stroke:#068FFF;stroke-width:5;stroke-miterlimit:10;}
</style>
<g id="Capa_2">
</g>
<g id="Capa_1">
</g>
<g id="Capa_3">
</g>
<g id="Capa_4">
	<g>
		<path class="st0" d="M1.21,11.36c0-0.36,0-0.69,0-1.09c0.17,0,0.34,0,0.5,0c3.22,0,6.45,0,9.67,0c0.12,0,0.26,0.04,0.35-0.01
			c0.15-0.09,0.37-0.23,0.37-0.35c0.01-0.14-0.17-0.32-0.31-0.43c-0.09-0.06-0.25-0.03-0.38-0.03c-3.25,0-6.5,0-9.75,0
			c-0.11,0-0.23,0-0.46,0c0.44-0.39,0.79-0.72,1.17-1.02c0.1-0.08,0.27-0.06,0.41-0.06c1.81,0,3.62,0,5.43,0c0.07,0,0.13,0,0.2,0
			C8.69,8.38,8.9,8.26,8.9,7.95c0-0.28-0.2-0.41-0.48-0.4c-0.12,0-0.24,0-0.35,0c-1.42,0-2.83,0-4.25,0c-0.13,0-0.25,0-0.5,0
			c0.44-0.4,0.79-0.73,1.16-1.03c0.09-0.07,0.25-0.07,0.37-0.07c1.07,0,2.15,0,3.22,0c0.1,0,0.21,0,0.31,0
			c0.29,0.01,0.51-0.09,0.52-0.4c0.01-0.32-0.22-0.41-0.51-0.4c-0.81,0.01-1.63,0-2.44,0c-0.13,0-0.26,0-0.5,0
			C5.6,5.5,5.69,5.4,5.78,5.32c1.3-1.16,2.59-2.33,3.89-3.49c0.28-0.25,0.45-0.45,0.08-0.79C9.5,0.8,9.79,0.7,9.98,0.67
			c0.67-0.13,1.34-0.26,2.01-0.37c3.21-0.5,6.4-0.36,9.57,0.36c0.77,0.18,1.38,0.54,1.64,1.46c-1.48-0.12-2.92-0.34-4.35-0.07
			c-0.01,0.03-0.02,0.07-0.03,0.1c0.09,0.05,0.18,0.1,0.27,0.15c0.53,0.3,1.08,0.58,1.59,0.91c0.21,0.14,0.33,0.15,0.55,0.04
			c1.41-0.69,2.88-0.98,4.41-0.41c1.32,0.49,2.26,1.88,2.26,3.26c0,0.45-0.11,0.52-0.51,0.36c-2.55-1.01-5.19-1.33-7.91-0.94
			c-0.36,0.05-0.72,0.13-1.08,0.22c-0.94,0.22-1.44,0.86-1.45,1.84c-0.01,2.49,0.01,4.98-0.02,7.47c-0.01,0.59-0.18,1.19-0.31,1.77
			c-0.03,0.11-0.22,0.27-0.34,0.27c-3.74,0.01-7.47,0.01-11.21,0.01c-0.04,0-0.07-0.02-0.14-0.04c0-0.33,0-0.66,0-1.06
			c0.16,0,0.31,0,0.46,0c3.03,0,6.06,0,9.08,0c0.14,0,0.29,0,0.43,0c0.27,0,0.44-0.13,0.44-0.39c0-0.28-0.18-0.42-0.46-0.41
			c-0.09,0-0.18,0-0.28,0c-3.07,0-6.14,0-9.2,0c-0.15,0-0.31,0-0.49,0c0-0.38,0-0.71,0-1.1c0.16,0,0.32,0,0.47,0
			c3.08,0,6.16,0,9.24,0c0.12,0,0.27,0.04,0.35-0.02c0.14-0.1,0.31-0.26,0.32-0.41c0.01-0.12-0.17-0.28-0.31-0.37
			c-0.08-0.06-0.23-0.02-0.35-0.02c-4.33,0-8.65-0.01-12.98,0.01c-0.37,0-0.53-0.08-0.49-0.47c0.02-0.19,0-0.39,0-0.64
			c0.2,0,0.35,0,0.51,0c3.22,0,6.45,0,9.67,0c0.05,0,0.1,0,0.16,0c0.3,0.01,0.59-0.04,0.59-0.41c0-0.38-0.3-0.4-0.59-0.4
			c-3.33,0-6.66,0-9.99,0C1.43,11.38,1.33,11.37,1.21,11.36z"/>
		<path class="st0" d="M69.88,9.16c-0.1,1.21-0.2,2.43-0.3,3.64c-0.08,0.95-0.16,1.91-0.23,2.86C69.34,15.9,69.27,16,69.01,16
			c-0.55-0.02-1.1,0-1.71,0c0.35-3.45,0.69-6.86,1.04-10.33c0.53,0,1.04,0,1.54,0c0.37,0,0.82-0.11,1.07,0.07
			c0.25,0.17,0.31,0.63,0.44,0.97c0.55,1.5,1.1,3,1.65,4.5c0.04,0.12,0.09,0.24,0.18,0.45c0.09-0.21,0.16-0.34,0.21-0.48
			c0.63-1.72,1.27-3.44,1.89-5.17c0.09-0.26,0.2-0.38,0.5-0.36c0.64,0.03,1.28,0.02,1.93,0c0.25-0.01,0.34,0.08,0.36,0.33
			c0.22,2.35,0.46,4.69,0.69,7.04c0.09,0.89,0.17,1.77,0.25,2.66c0.01,0.09,0,0.18,0,0.29c-0.89,0-1.76,0-2.67,0
			c-0.17-2.27-0.33-4.53-0.5-6.78c-0.03-0.01-0.05-0.02-0.08-0.03c-0.05,0.14-0.11,0.27-0.15,0.41c-0.65,2-1.32,4.01-1.95,6.02
			C73.58,15.91,73.43,16,73.1,16c-1.01-0.02-1-0.01-1.3-0.96c-0.57-1.86-1.15-3.73-1.73-5.59c-0.03-0.1-0.07-0.19-0.1-0.29
			C69.94,9.16,69.91,9.16,69.88,9.16z"/>
		<path class="st0" d="M21.46,15.99c-0.5,0-1,0.01-1.49,0c-1.19-0.02-2.09-0.86-2.1-2.04c-0.03-1.95-0.03-3.91,0-5.86
			C17.88,6.79,19.09,6,20.3,6.46c0.6,0.23,1.17,0.52,1.75,0.8c0.2,0.1,0.35,0.1,0.53-0.05c0.28-0.23,0.59-0.44,0.9-0.64
			c0.42-0.28,0.81-0.2,1,0.26C25,8.07,25.5,9.3,25.99,10.55c0.18,0.47,0.03,0.7-0.47,0.76c-0.94,0.12-0.94,0.17-0.93,1.12
			c0.01,0.68,0,1.36,0,2.04c-0.01,0.86-0.58,1.47-1.44,1.51C22.58,16,22.02,15.99,21.46,15.99C21.46,15.99,21.46,15.99,21.46,15.99z
			"/>
		<path class="st0" d="M117.2,11.26c0.01,3.06-1.75,4.86-4.59,4.93c-1.61,0.04-3.07-0.37-4.12-1.7c-0.83-1.05-1-2.29-0.86-3.57
			c0.24-2.37,1.95-3.95,4.33-4.07c1.15-0.06,2.26,0.07,3.24,0.72C116.62,8.5,117.21,9.88,117.2,11.26z M114.75,11.59
			c-0.12-0.62-0.18-1.24-0.36-1.84c-0.28-0.96-1.04-1.54-1.94-1.57c-0.91-0.02-1.67,0.48-2.01,1.41c-0.47,1.27-0.49,2.57-0.01,3.84
			c0.36,0.95,1.09,1.44,2.01,1.41c0.91-0.03,1.65-0.57,1.94-1.51C114.57,12.78,114.63,12.19,114.75,11.59z"/>
		<path class="st0" d="M66.22,11.39c0.03,3.08-2.02,4.97-5.05,4.79c-1.47-0.09-2.81-0.52-3.68-1.79c-1.09-1.6-1.12-3.35-0.35-5.05
			c0.78-1.72,2.27-2.42,4.11-2.47c1.16-0.03,2.25,0.17,3.2,0.88C65.7,8.68,66.24,9.98,66.22,11.39z M59.06,11.53
			c0.04,0.01,0.07,0.02,0.11,0.03c0,0.91,0.17,1.7,0.51,2.27c0.41,0.69,1.02,1.03,1.83,1c0.79-0.02,1.4-0.39,1.73-1.09
			c0.68-1.44,0.65-2.92,0.02-4.37c-0.34-0.78-1-1.17-1.85-1.16c-0.87,0.01-1.53,0.44-1.82,1.25C59.34,10.13,59.23,10.84,59.06,11.53
			z"/>
		<path class="st0" d="M40.95,15.99c-0.9,0-1.75,0.01-2.6-0.01c-0.1,0-0.25-0.17-0.29-0.28c-0.27-0.77-0.52-1.54-0.75-2.31
			c-0.07-0.24-0.19-0.33-0.44-0.33c-0.9,0.02-1.81,0.01-2.71,0c-0.24,0-0.35,0.08-0.42,0.31c-0.23,0.75-0.5,1.49-0.72,2.24
			c-0.09,0.31-0.23,0.41-0.55,0.39c-0.48-0.03-0.96-0.01-1.51-0.01c0.25-0.67,0.49-1.29,0.71-1.92c0.94-2.67,1.89-5.33,2.82-8
			c0.11-0.3,0.24-0.44,0.58-0.42c0.52,0.03,1.05,0.02,1.57,0c0.28-0.01,0.41,0.09,0.51,0.36c1.03,2.76,2.07,5.52,3.11,8.27
			C40.47,14.84,40.71,15.39,40.95,15.99z M35.57,8.19c-0.03,0-0.06,0-0.1,0c-0.37,1.12-0.75,2.23-1.13,3.37c0.82,0,1.55,0,2.35,0
			C36.31,10.41,35.94,9.3,35.57,8.19z"/>
		<path class="st0" d="M51.15,15.97c-0.77,0-1.51,0-2.28,0c0-2.97,0-5.94,0-8.9c0.03-0.02,0.05-0.05,0.07-0.04
			c1.52,0.01,3.04,0,4.55,0.05c2.11,0.07,2.57,2.27,1.67,3.65c-0.27,0.42-0.72,0.74-1.13,1.15c0.87,1.31,1.78,2.68,2.72,4.11
			c-0.92,0-1.78,0.01-2.64-0.01c-0.09,0-0.21-0.15-0.27-0.25c-0.56-0.98-1.11-1.96-1.65-2.94c-0.19-0.35-0.59-0.51-0.94-0.36
			c-0.08,0.04-0.13,0.21-0.13,0.31c0,0.89,0.02,1.78,0.03,2.67C51.15,15.58,51.15,15.75,51.15,15.97z M51.14,8.45
			c0,0.72-0.01,1.33,0,1.94c0.01,0.75-0.14,0.71,0.72,0.71c1.14,0,1.73-0.76,1.46-1.87c-0.09-0.35-0.29-0.6-0.65-0.66
			C52.19,8.51,51.71,8.5,51.14,8.45z"/>
		<path class="st0" d="M116.26,18.09c-0.92,0.39-1.83,0.83-2.78,1.17c-4.14,1.47-8.43,1.83-12.79,1.62
			c-3.14-0.15-6.22-0.69-9.29-1.33c-4.49-0.94-9.04-1.41-13.63-1.12c-3.2,0.2-6.35,0.71-9.35,1.93c-0.02,0.01-0.05,0-0.18,0
			c0.26-0.14,0.43-0.25,0.62-0.35c0.18-0.1,0.37-0.2,0.56-0.28c2.71-1.2,5.57-1.82,8.51-2.08c4.88-0.44,9.68,0.11,14.45,1.14
			c3.82,0.82,7.68,1.3,11.58,1.27c3.81-0.02,7.55-0.49,11.18-1.71c0.36-0.12,0.71-0.26,1.06-0.39
			C116.22,18,116.24,18.04,116.26,18.09z"/>
		<path class="st0" d="M94.87,15.99c-0.87,0-1.66,0.01-2.46-0.01c-0.12,0-0.26-0.15-0.33-0.26c-0.43-0.75-0.85-1.51-1.27-2.26
			c-0.05-0.09-0.11-0.17-0.2-0.32c-0.29,0.47-0.56,0.9-0.82,1.33c-0.25,0.41-0.51,0.83-0.74,1.25c-0.11,0.2-0.23,0.29-0.46,0.28
			c-0.46-0.01-0.92,0-1.45,0c0.09-0.17,0.15-0.29,0.22-0.41c0.75-1.2,1.49-2.41,2.25-3.6c0.15-0.24,0.16-0.42,0.01-0.68
			c-0.75-1.31-1.48-2.63-2.21-3.94c-0.05-0.1-0.1-0.21-0.17-0.35c0.86,0,1.67-0.01,2.48,0.01c0.11,0,0.26,0.15,0.33,0.27
			c0.41,0.7,0.8,1.42,1.19,2.12c0.04,0.06,0.08,0.13,0.16,0.25c0.35-0.57,0.74-1.06,0.97-1.62c0.36-0.87,0.92-1.22,1.84-1.04
			c0.15,0.03,0.31,0,0.54,0c-0.1,0.18-0.17,0.31-0.25,0.44c-0.7,1.12-1.39,2.25-2.1,3.37c-0.17,0.26-0.15,0.45-0.01,0.71
			c0.78,1.37,1.54,2.74,2.3,4.12C94.75,15.73,94.79,15.82,94.87,15.99z"/>
		<path class="st0" d="M47.23,7.04c0,0.44,0,0.85,0,1.31c-1.11,0-2.19,0-3.36,0c0,0.73-0.01,1.42,0.01,2.11
			c0,0.06,0.18,0.16,0.28,0.16c0.65,0.01,1.31,0.01,1.97,0.01c0.13,0,0.26,0,0.42,0c0,0.43,0,0.82,0,1.26c-0.88,0-1.76,0-2.63,0
			c0,0.92,0,1.8,0,2.7c1.2,0,2.35,0,3.53,0c0,0.45,0,0.9,0,1.37c-1.95,0-3.89,0-5.87,0c0-2.96,0-5.93,0-8.92
			C43.44,7.04,45.31,7.04,47.23,7.04z"/>
		<path class="st0" d="M80.57,7.03c1.9,0,3.77,0,5.66,0c0,0.43,0,0.84,0,1.32c-0.34,0-0.67,0-1.01,0c-0.66,0-1.31,0.01-1.96-0.01
			c-0.28-0.01-0.37,0.1-0.37,0.36c0,0.54,0,1.07-0.02,1.61c-0.01,0.24,0.08,0.32,0.32,0.32c0.77-0.01,1.54,0,2.35,0
			c0,0.42,0,0.82,0,1.25c-0.87,0-1.73,0-2.64,0c-0.01,0.17-0.03,0.31-0.03,0.44c0,0.62,0.02,1.23,0.01,1.85
			c0,0.32,0.08,0.46,0.44,0.45c1.03-0.03,2.07-0.01,3.13-0.01c0,0.44,0,0.89,0,1.36c-1.96,0-3.91,0-5.89,0
			C80.57,12.99,80.57,10.03,80.57,7.03z"/>
		<path class="st0" d="M107.3,14.56c0.04,0.37,0.1,0.72,0.1,1.07c0,0.1-0.14,0.28-0.24,0.3c-1.41,0.33-2.83,0.39-4.23-0.02
			c-2.11-0.62-3.48-2.69-3.25-4.85c0.24-2.28,1.94-4.02,4.2-4.18c0.94-0.07,1.9,0.09,2.85,0.16c0.25,0.02,0.36,0.15,0.36,0.41
			c0,0.34,0.03,0.67,0.05,1.04c-0.45-0.09-0.85-0.19-1.26-0.25c-1.96-0.3-3.24,0.65-3.48,2.62c-0.05,0.42-0.05,0.87,0.02,1.29
			c0.28,1.7,1.57,2.71,3.32,2.6C106.25,14.74,106.75,14.64,107.3,14.56z"/>
		<path class="st0" d="M95.98,15.96c0-2.98,0-5.93,0-8.91c0.74,0,1.49,0,2.26,0c0,2.96,0,5.92,0,8.91
			C97.49,15.96,96.74,15.96,95.98,15.96z"/>
		<path class="st0" d="M8.62,17.94c2.5,0,4.96,0,7.53,0c-0.29,0.38-0.53,0.7-0.78,1c-0.05,0.06-0.17,0.07-0.25,0.07
			c-2.11,0-4.22,0-6.33,0c-0.05,0-0.1-0.02-0.17-0.04C8.62,18.64,8.62,18.3,8.62,17.94z"/>
		<path class="st0" d="M14.31,19.85c-1.77,1.3-3.73,1.09-5.69,1.07c0-0.37,0-0.7,0-1.07C10.5,19.85,12.36,19.85,14.31,19.85z"/>
		<path class="st0" d="M117.83,15.99c-0.49,0-0.88-0.37-0.88-0.86c-0.01-0.51,0.38-0.89,0.89-0.88c0.49,0,0.86,0.38,0.87,0.87
			C118.71,15.6,118.32,15.99,117.83,15.99z M118.5,15.11c0-0.4-0.3-0.71-0.68-0.71c-0.38,0.01-0.66,0.32-0.65,0.73
			c0.01,0.39,0.29,0.68,0.65,0.69C118.19,15.83,118.5,15.51,118.5,15.11z"/>
		<path class="st0" d="M117.72,15.14c-0.05,0.19-0.08,0.31-0.11,0.43c-0.02,0-0.05,0-0.07,0c0-0.3,0-0.59,0-0.93
			c0.14,0,0.32-0.05,0.46,0.02c0.1,0.05,0.19,0.23,0.19,0.35c0,0.18-0.07,0.36-0.12,0.58C117.98,15.47,117.87,15.33,117.72,15.14z"
			/>
	</g>
</g>
<g id="Capa_6">
</g>
<g id="Capa_5">
</g>
</svg>
