<?xml version="1.0" encoding="utf-8"?>
<!-- Generator: Adobe Illustrator 24.0.3, SVG Export Plug-In . SVG Version: 6.00 Build 0)  -->
<svg version="1.1" xmlns="http://www.w3.org/2000/svg" xmlns:xlink="http://www.w3.org/1999/xlink" x="0px" y="0px"
	 viewBox="0 0 98.74 59.84" style="enable-background:new 0 0 98.74 59.84;" xml:space="preserve">
<style type="text/css">
	.st0{fill:#FFFFFF;}
	.st1{fill:url(#SVGID_1_);}
	.st2{fill:#E7004C;}
	.st3{fill:none;stroke:#00B2E3;stroke-miterlimit:10;}
	.st4{fill:url(#SVGID_2_);}
	.st5{fill:#FCFCFC;}
	.st6{fill:url(#SVGID_3_);}
	.st7{fill:url(#SVGID_4_);}
	.st8{opacity:0.8;fill:#E7004C;}
	.st9{opacity:0.7;fill:#E7004C;}
	.st10{opacity:0.7;}
	.st11{fill:#00B2E3;}
	.st12{opacity:0.8;fill:#00B2E3;}
	.st13{opacity:0.7;fill:#00B2E3;}
	.st14{fill:#BBBBBB;}
	.st15{opacity:0.8;fill:#BBBBBB;}
	.st16{opacity:0.7;fill:#BBBBBB;}
	.st17{fill:url(#SVGID_5_);}
	.st18{fill:url(#SVGID_6_);}
	.st19{fill:none;stroke:#E7004C;stroke-width:2;stroke-miterlimit:10;}
	.st20{fill:url(#SVGID_7_);}
	.st21{fill:url(#SVGID_8_);}
	.st22{fill:url(#SVGID_9_);}
	.st23{fill:none;stroke:#FFFFFF;stroke-miterlimit:10;}
	.st24{fill:none;stroke:#E7004C;stroke-miterlimit:10;}
	.st25{fill-rule:evenodd;clip-rule:evenodd;fill:#E7004C;}
	.st26{fill:none;stroke:#000000;stroke-miterlimit:10;}
	.st27{fill:#38A8E0;}
	.st28{clip-path:url(#SVGID_11_);fill:#00B2E3;}
	.st29{fill:none;stroke:#E7004C;stroke-width:3;stroke-miterlimit:10;}
	.st30{clip-path:url(#SVGID_13_);}
	.st31{fill:none;stroke:#FFFFFF;stroke-width:2;stroke-miterlimit:10;}
	.st32{fill:none;stroke:#FFFFFF;stroke-width:3;stroke-miterlimit:10;}
	.st33{clip-path:url(#SVGID_15_);}
	.st34{fill:url(#SVGID_16_);}
	.st35{fill:none;stroke:#FFFFFF;stroke-width:0.5;stroke-miterlimit:10;}
	.st36{clip-path:url(#SVGID_18_);fill:#00B2E3;}
	.st37{clip-path:url(#SVGID_20_);}
	.st38{clip-path:url(#SVGID_22_);}
	.st39{fill:url(#SVGID_23_);}
	.st40{clip-path:url(#SVGID_25_);}
	.st41{fill:url(#SVGID_26_);}
	.st42{fill:url(#SVGID_27_);}
	.st43{fill:url(#SVGID_28_);}
	.st44{fill:url(#SVGID_29_);}
	.st45{clip-path:url(#SVGID_31_);fill:#00B2E3;}
	.st46{clip-path:url(#SVGID_33_);}
	.st47{clip-path:url(#SVGID_35_);}
	.st48{fill:url(#SVGID_36_);}
	.st49{clip-path:url(#SVGID_38_);}
	.st50{clip-path:url(#SVGID_40_);}
	.st51{fill:#280210;}
	.st52{opacity:0.5;}
	.st53{opacity:0.6;}
	.st54{fill:url(#SVGID_41_);}
	.st55{fill:url(#SVGID_42_);}
	.st56{fill:url(#SVGID_43_);}
	.st57{fill:url(#SVGID_44_);}
	.st58{opacity:0.8;}
	.st59{opacity:0.9;}
	.st60{fill:url(#SVGID_45_);}
	.st61{clip-path:url(#SVGID_47_);}
	.st62{clip-path:url(#SVGID_49_);}
	.st63{fill:url(#SVGID_50_);}
	.st64{clip-path:url(#SVGID_52_);}
	.st65{fill:url(#SVGID_53_);}
	.st66{clip-path:url(#SVGID_55_);}
	.st67{fill:url(#SVGID_56_);}
	.st68{clip-path:url(#SVGID_58_);}
	.st69{clip-path:url(#SVGID_60_);fill:#00B2E3;}
	.st70{clip-path:url(#SVGID_62_);}
	.st71{clip-path:url(#SVGID_64_);}
	.st72{fill:none;stroke:#FFFFFF;stroke-width:5;stroke-miterlimit:10;}
	.st73{clip-path:url(#SVGID_66_);fill:#00B2E3;}
	.st74{clip-path:url(#SVGID_68_);}
	.st75{clip-path:url(#SVGID_70_);}
	.st76{clip-path:url(#SVGID_72_);fill:#00B2E3;}
	.st77{clip-path:url(#SVGID_74_);}
	.st78{fill:#5B0323;}
	.st79{fill:url(#SVGID_75_);}
	.st80{fill:url(#SVGID_76_);}
	.st81{fill:url(#SVGID_77_);}
	.st82{clip-path:url(#SVGID_80_);fill:#00B2E3;}
	.st83{clip-path:url(#SVGID_84_);}
	.st84{clip-path:url(#SVGID_86_);}
	.st85{fill-rule:evenodd;clip-rule:evenodd;fill:#FFFFFF;}
	.st86{fill:#E5E5E5;}
	.st87{clip-path:url(#SVGID_88_);}
	.st88{fill-rule:evenodd;clip-rule:evenodd;fill:none;stroke:#E7004C;stroke-width:3;stroke-miterlimit:10;}
	.st89{fill:#070101;}
	.st90{fill:none;stroke:#068FFF;stroke-width:5;stroke-miterlimit:10;}
</style>
<g id="Capa_2">
</g>
<g id="Capa_1">
</g>
<g id="Capa_3">
</g>
<g id="Capa_4">
	<g>
		<g>
			<g>
				<g>
					<g>
						<g>
							<path class="st0" d="M36.81,34.05l-3.02,12.77c-0.58,2.45,0.93,4.43,3.38,4.43h7.87l0.86-3.62h-7.53
								c-0.62-0.01-1.01-0.52-0.87-1.14l0.2-0.84l1.09-4.63l1.65-6.97H36.81z"/>
							<path class="st0" d="M52.34,51.25H47l4.08-17.2h3.62l-3.22,13.58h1.72c2.75,0,5.51-2.23,6.16-4.98l2.04-8.6h3.62l-2.04,8.6
								C61.85,47.4,57.08,51.25,52.34,51.25z"/>
							<path class="st0" d="M26.16,51.25h-5.87c-2.8,0-4.7-2.15-4.18-4.94c0.56-2.99,3.54-5.47,6.49-5.47h5.82
								c0.67,0,1.33-0.54,1.49-1.21l0.2-0.84c0.15-0.62-0.24-1.13-0.86-1.13H18.15l0.86-3.62h11.44c2.44,0,3.94,1.98,3.37,4.41
								l-1.93,8.16C31.28,49.18,28.72,51.25,26.16,51.25z M21.75,44.46c-0.87,0-1.75,0.71-1.96,1.58c-0.21,0.87,0.34,1.58,1.21,1.58
								h6.02c0.56,0,1.11-0.45,1.25-1.01l0.55-2.31c-0.41,0.1-0.83,0.15-1.24,0.15H21.75z"/>
							<path class="st0" d="M98.29,35.95l0.45-1.9H95.1l-0.45,1.9c-0.65,2.75-3.41,4.98-6.16,4.98h-1.72l1.63-6.88h-3.62l-4.08,17.2
								h3.62l1.6-6.77h2.11c0.88,0,1.75,0.3,2.4,0.9c0.98,0.91,1.42,2.35,1.03,3.97l-0.45,1.9l3.62,0l0.45-1.9
								c0.64-2.71-0.05-5.12-1.63-6.7C95.8,41.08,97.63,38.66,98.29,35.95z"/>
							<path class="st0" d="M71.58,34.05l5.87,0c2.8,0,4.7,2.15,4.18,4.94c-0.56,2.99-3.54,5.47-6.49,5.47h-5.82
								c-0.67,0-1.33,0.54-1.49,1.21l-0.2,0.84c-0.15,0.62,0.24,1.13,0.86,1.13h11.11l-0.86,3.62H67.29c-2.44,0-3.94-1.98-3.37-4.41
								l1.93-8.16C66.46,36.13,69.03,34.05,71.58,34.05z M76,40.84c0.87,0,1.75-0.71,1.96-1.58c0.21-0.87-0.34-1.58-1.21-1.58h-6.02
								c-0.56,0-1.11,0.45-1.25,1.01L68.94,41c0.41-0.1,0.82-0.15,1.24-0.15H76z"/>
							<path class="st0" d="M16.19,37.67l0.86-3.62l-8.44,0c-3.63,0-6.87,2.28-8.09,5.69l0,0c-2.01,5.6,2.14,11.51,8.09,11.51
								l3.48,0l0.86-3.62H8.61c-3.45,0-5.85-3.42-4.69-6.66l0,0c0.71-1.98,2.58-3.3,4.69-3.3H16.19z"/>
						</g>
					</g>
				</g>
				<g>
					<path class="st0" d="M49.51,28.01l-0.05-0.02h0C49.48,28,49.49,28,49.51,28.01z"/>
					<path class="st0" d="M62.99,11.51c-0.12,0.41-2.76,8.65-12.33,4.14c-1.03-0.49-1.76-0.92-2.25-1.29
						c-0.69-0.46-4.55-3.17-4.06-6.31l0,0l0,0c0-0.02,0.01-0.03,0.01-0.05c0.03-0.17,0.19-0.78,0.71-1.5c0,0.01,0,0.01-0.01,0.02
						l2.47,6.03c0.07,0.06,0.14,0.11,0.21,0.17l-2.6-6.34c0.07-0.09,0.14-0.18,0.22-0.27l2.74,6.7c0.04-0.02,0.08-0.03,0.12-0.05
						l-2.77-6.76c0.07-0.08,0.15-0.16,0.23-0.24l2.83,6.91c0.04-0.01,0.09-0.02,0.13-0.03L45.8,5.68c0.08-0.07,0.16-0.14,0.24-0.21
						l2.93,7.14c0.04-0.01,0.09-0.01,0.14-0.01l-2.96-7.21c0.08-0.06,0.17-0.13,0.25-0.19l3.03,7.38c0.05,0,0.09,0,0.14,0
						l-3.06-7.46c0.08-0.06,0.17-0.11,0.26-0.17l3.12,7.63c0.05,0,0.09,0,0.14,0l-3.15-7.7c0.09-0.05,0.18-0.1,0.27-0.15l3.22,7.86
						c0.05,0,0.1,0.01,0.15,0.01l-3.25-7.94c0.09-0.05,0.18-0.09,0.28-0.14l3.32,8.1c0.05,0,0.1,0.01,0.15,0.01l-3.35-8.17
						c0.09-0.04,0.18-0.08,0.28-0.12l3.41,8.33c0.05,0.01,0.1,0.01,0.15,0.02l-3.44-8.4c0.09-0.04,0.19-0.07,0.29-0.11l3.51,8.56
						c0.05,0.01,0.1,0.02,0.15,0.02l-3.54-8.63c0.09-0.03,0.19-0.07,0.29-0.1l3.6,8.79c0.05,0.01,0.1,0.02,0.15,0.03L48.9,4
						c0.1-0.03,0.2-0.06,0.3-0.09l3.7,9.02c0.05,0.01,0.1,0.02,0.16,0.03l-3.72-9.09c0.1-0.03,0.2-0.05,0.3-0.08l3.79,9.24
						c0.05,0.01,0.1,0.03,0.16,0.04l-3.82-9.31c0.1-0.02,0.2-0.04,0.3-0.06l3.88,9.47c0.05,0.01,0.11,0.03,0.16,0.04l-3.91-9.54
						c0.1-0.02,0.2-0.04,0.31-0.06l3.98,9.7c0.05,0.02,0.11,0.03,0.16,0.05l-4-9.77c0.1-0.02,0.21-0.03,0.31-0.05l4.07,9.94
						c0.05,0.02,0.11,0.03,0.16,0.05l-4.1-10.01c0.1-0.01,0.21-0.03,0.32-0.04l4.17,10.17c0.06,0.02,0.11,0.04,0.17,0.06l-4.2-10.25
						c0.1-0.01,0.21-0.02,0.32-0.03l4.27,10.42c0.06,0.02,0.11,0.04,0.17,0.06l-4.3-10.49c0.11-0.01,0.21-0.02,0.32-0.02l4.35,10.62
						c0.05,0.01,0.1,0.02,0.16,0.03L52.45,3.42c0.11-0.01,0.22-0.01,0.33-0.01l4.4,10.74c0.05,0.01,0.1,0.01,0.15,0.01L52.91,3.4
						l0,0c0.11,0,0.22,0,0.33,0l4.41,10.77c0.05,0,0.09,0,0.14-0.01L53.38,3.39c0.11,0,0.22,0,0.33,0.01l4.4,10.73
						c0.04-0.01,0.09-0.01,0.13-0.02L53.86,3.4c0.11,0,0.23,0.01,0.34,0.02l4.35,10.62c0.04-0.01,0.08-0.02,0.13-0.04L54.35,3.43
						c0.12,0.01,0.23,0.02,0.34,0.03l4.28,10.44c0.04-0.02,0.08-0.03,0.12-0.05L54.84,3.48c0.12,0.01,0.23,0.03,0.35,0.04
						l4.18,10.19c0.04-0.02,0.08-0.04,0.12-0.06l-4.14-10.1c0.12,0.02,0.24,0.04,0.36,0.06l4.05,9.88c0.04-0.03,0.07-0.05,0.11-0.08
						l-4-9.77c0.12,0.02,0.24,0.05,0.36,0.08l3.89,9.5c0.04-0.03,0.07-0.06,0.1-0.09l-3.84-9.37c0.13,0.03,0.25,0.06,0.37,0.1
						l3.71,9.05c0.03-0.03,0.07-0.07,0.1-0.1L56.9,3.9c0.13,0.04,0.26,0.08,0.38,0.12l3.49,8.51c-0.03,0.04-0.06,0.08-0.09,0.11
						c0.06-0.07,0.11-0.14,0.17-0.21c0-0.01,0.01-0.01,0.01-0.02l0,0c0.07-0.1,0.14-0.2,0.21-0.3l0,0c0-0.01,0.01-0.01,0.01-0.02
						c1.36-2.08,1.48-5.25-0.62-7.22c-0.05-0.05-0.11-0.1-0.16-0.15C57.86,2.53,53.32,0.58,48.55,0c-0.01,0-0.05,0-0.11,0
						l-0.01-0.02c-0.05-0.01-0.1-0.01-0.15-0.02l0.02,0.04c-0.09,0-0.2,0.01-0.32,0.02l-0.04-0.09c-0.05,0-0.1-0.01-0.15-0.01
						l0.05,0.11c-0.1,0.01-0.2,0.01-0.32,0.02l-0.07-0.16c-0.05,0-0.1-0.01-0.15-0.01l0.08,0.19c-0.1,0.01-0.2,0.02-0.31,0.03
						l-0.1-0.24c-0.05,0-0.1,0-0.14-0.01l0.11,0.26c-0.1,0.01-0.2,0.03-0.31,0.04l-0.13-0.32c-0.05,0-0.1,0-0.14,0l0.14,0.34
						c-0.1,0.01-0.21,0.03-0.31,0.05l-0.16-0.39c-0.05,0-0.1,0-0.14,0l0.17,0.42c-0.1,0.02-0.2,0.04-0.31,0.05l-0.19-0.47
						c-0.05,0-0.09,0-0.14,0l0.2,0.49c-0.1,0.02-0.2,0.04-0.31,0.06l-0.22-0.55c-0.05,0-0.09,0-0.14,0.01l0.23,0.57
						c-0.1,0.02-0.2,0.05-0.3,0.07l-0.25-0.62c-0.05,0-0.09,0-0.14,0.01l0.26,0.65c-0.1,0.02-0.2,0.05-0.3,0.08l-0.29-0.7
						c-0.05,0-0.09,0.01-0.14,0.01l0.3,0.72c-0.1,0.03-0.2,0.06-0.3,0.08l-0.32-0.78l0,0c-0.01,0-0.02,0-0.04,0c0,0,0,0,0,0
						c-0.03,0-0.06,0.01-0.1,0.01l0.33,0.8c-0.1,0.03-0.2,0.06-0.29,0.09l-0.35-0.86C43.2,0,43.15,0,43.11,0.01l0.36,0.88
						c-0.1,0.03-0.19,0.07-0.29,0.1L42.8,0.05c-0.04,0.01-0.09,0.01-0.13,0.02l0.39,0.96c-0.1,0.04-0.19,0.07-0.29,0.11l-0.41-1.02
						l0,0c-0.04,0.01-0.09,0.02-0.13,0.03l0.42,1.04c-0.09,0.04-0.19,0.08-0.28,0.12l-0.45-1.1c-0.03,0.01-0.05,0.01-0.08,0.02
						c-0.01,0-0.02,0-0.03,0.01c-0.01,0-0.02,0-0.03,0.01l0.46,1.12c-0.09,0.04-0.19,0.08-0.28,0.13l-0.48-1.18
						c-0.04,0.01-0.09,0.02-0.13,0.03l0.49,1.21c-0.09,0.04-0.18,0.09-0.28,0.14l-0.52-1.26c-0.04,0.01-0.09,0.02-0.13,0.04
						l0.53,1.29c-0.09,0.05-0.18,0.1-0.27,0.15l-0.55-1.35c-0.04,0.01-0.08,0.03-0.13,0.04l0.56,1.38c-0.09,0.05-0.18,0.1-0.27,0.16
						l-0.59-1.44c-0.04,0.01-0.08,0.03-0.12,0.04l0.6,1.47c-0.09,0.06-0.18,0.11-0.26,0.17L39.8,0.82
						c-0.04,0.02-0.08,0.03-0.12,0.05l0.64,1.57c-0.09,0.06-0.17,0.12-0.26,0.18l-0.67-1.64C39.35,1,39.31,1.02,39.27,1.03
						l0.68,1.67c-0.08,0.06-0.17,0.13-0.25,0.2l-0.71-1.74c-0.04,0.02-0.08,0.04-0.12,0.05l0.72,1.77
						c-0.08,0.07-0.16,0.14-0.25,0.21l-0.76-1.85c-0.04,0.02-0.08,0.04-0.12,0.06l0.77,1.89C39.16,3.36,39.08,3.44,39,3.52
						l-0.8-1.97c-0.01,0.01-0.03,0.01-0.04,0.02c-0.03,0.01-0.05,0.03-0.08,0.04l0.82,2.01c-0.08,0.08-0.16,0.16-0.23,0.24
						l-0.86-2.1c-0.04,0.02-0.08,0.04-0.11,0.07l0.87,2.14c-0.08,0.09-0.15,0.17-0.22,0.26l-0.91-2.24C37.42,2,37.4,2.01,37.39,2.02
						c-0.02,0.01-0.04,0.03-0.07,0.04l0.93,2.29c-0.07,0.09-0.15,0.19-0.22,0.28l-0.98-2.4c-0.04,0.03-0.07,0.05-0.11,0.08l1,2.45
						c-0.07,0.1-0.14,0.2-0.21,0.31L36.7,2.5c-0.04,0.03-0.07,0.05-0.11,0.08l1.07,2.62c-0.07,0.11-0.13,0.22-0.19,0.33l-1.13-2.76
						c-0.04,0.03-0.07,0.06-0.11,0.09l1.15,2.82c-0.06,0.12-0.12,0.24-0.18,0.36l-1.21-2.98c-0.02,0.02-0.04,0.03-0.06,0.05
						c-0.02,0.01-0.03,0.03-0.05,0.04l1.24,3.05c-0.06,0.13-0.11,0.26-0.17,0.4l-1.32-3.23c-0.01,0.01-0.02,0.02-0.03,0.03
						c-0.02,0.02-0.05,0.05-0.07,0.07l1.35,3.31c-0.05,0.14-0.1,0.29-0.15,0.44L35.3,3.73c-0.02,0.02-0.05,0.05-0.07,0.07
						c-0.01,0.01-0.02,0.02-0.03,0.03l1.47,3.6c-0.05,0.16-0.09,0.33-0.13,0.49l-1.57-3.84c-0.03,0.04-0.07,0.07-0.1,0.11l1.61,3.96
						c-0.03,0.14-0.06,0.29-0.09,0.44c-0.01,0.04-0.01,0.08-0.02,0.11l-1.73-4.24c-0.03,0.04-0.06,0.08-0.09,0.12l1.79,4.39
						c-0.02,0.23-0.04,0.46-0.04,0.71l-1.96-4.82c-0.03,0.04-0.06,0.08-0.09,0.13l2.06,5.05c0.01,0.33,0.04,0.67,0.09,1.03
						l-2.36-5.78c-0.03,0.04-0.06,0.09-0.09,0.13l2.54,6.22c0.31,1.66,1.04,3.58,2.29,5.62l2.6,6.37c0.06,0.07,0.15,0.18,0.21,0.26
						l0.06,0.04l-2.47-6.05c0.25,0.37,0.51,0.75,0.79,1.12l2.14,5.24c0.06,0.04,0.13,0.09,0.19,0.13l-2.03-4.97
						c0.21,0.27,0.43,0.55,0.67,0.82l1.81,4.44c0.06,0.04,0.13,0.08,0.19,0.12l-1.73-4.25c0.2,0.22,0.4,0.45,0.61,0.67l1.57,3.85
						c0.06,0.04,0.13,0.08,0.19,0.12l-1.51-3.7c0.18,0.19,0.37,0.39,0.57,0.58l1.38,3.38c0.06,0.04,0.12,0.07,0.19,0.11l-1.33-3.25
						c0.18,0.17,0.36,0.34,0.54,0.51l1.22,2.98c0.06,0.03,0.12,0.07,0.18,0.1l-1.17-2.87c0.17,0.15,0.34,0.31,0.52,0.46l1.08,2.64
						l0.18,0.09l-1.04-2.54c0.17,0.14,0.33,0.28,0.5,0.42l0.95,2.33l0.18,0.09l-0.92-2.25c0.16,0.13,0.32,0.26,0.49,0.39l0.84,2.06
						c0.02,0.01,0.05,0.02,0.07,0.03c-0.02-0.01-0.04-0.02-0.06-0.03c0.03,0.01,0.06,0.03,0.09,0.04l0.07,0.03l-0.81-1.98
						c0.16,0.12,0.32,0.24,0.48,0.36l0.74,1.8c-0.01,0-0.02-0.01-0.03-0.02c0,0,0,0,0,0c0.01,0,0.02,0.01,0.03,0.01l0,0
						c0.02,0.01,0.04,0.02,0.06,0.02c0,0,0,0,0,0l0,0c0.04,0.02,0.08,0.03,0.12,0.05l-0.71-1.73c0.15,0.11,0.31,0.23,0.47,0.34
						l0.64,1.57c-0.01-0.01-0.03-0.01-0.04-0.02c0,0,0,0,0,0c0.01,0.01,0.02,0.01,0.04,0.02l0,0c0.01,0,0.01,0.01,0.02,0.01
						c0.04,0.02,0.08,0.03,0.11,0.05c0,0-0.01,0-0.01-0.01c0.02,0.01,0.03,0.01,0.05,0.02l0,0l0,0l-0.61-1.5
						c0.15,0.11,0.31,0.21,0.46,0.32l0.55,1.35c0.06,0.02,0.11,0.05,0.17,0.07l-0.52-1.28c0.15,0.1,0.3,0.2,0.45,0.3l0.46,1.14
						c-0.01,0-0.02-0.01-0.03-0.01c0,0,0,0,0,0c0.11,0.04,0.19,0.07,0.19,0.07l-0.44-1.08c0.15,0.1,0.3,0.19,0.45,0.29l0.38,0.94
						l0.17,0.06l-0.36-0.88c0.15,0.09,0.29,0.18,0.44,0.27l0.3,0.74c0.03,0.01,0.05,0.02,0.05,0.02l0.11,0.04l-0.28-0.68
						c0.14,0.09,0.29,0.17,0.44,0.26l0.22,0.55l0.06,0.02c0.03,0.01,0.07,0.02,0.1,0.03l-0.2-0.49c0.01,0,0.01,0.01,0.02,0.01
						c1.17,0.68,2.46,1.13,3.8,1.33c2.75,0.42,5.34,0.26,7.48-0.67C72.56,23.8,60.98,17.95,62.99,11.51z M60.86,12.4l-3.41-8.33
						c0.13,0.04,0.26,0.09,0.39,0.14l3.23,7.88C61,12.19,60.93,12.29,60.86,12.4z M61.15,11.94l-3.14-7.67
						c0.14,0.05,0.27,0.11,0.4,0.16l2.93,7.14C61.27,11.7,61.21,11.82,61.15,11.94z M61.41,11.42l-2.83-6.9
						c0.14,0.06,0.28,0.13,0.41,0.2l2.58,6.3C61.52,11.14,61.47,11.28,61.41,11.42z M61.63,10.81L59.17,4.8
						c0.15,0.08,0.29,0.16,0.43,0.23l2.17,5.3C61.73,10.5,61.68,10.66,61.63,10.81z M61.82,10.11l-2.03-4.97
						c0.16,0.1,0.31,0.19,0.45,0.28l1.68,4.09C61.89,9.71,61.86,9.91,61.82,10.11z M61.93,9.22l-1.5-3.66
						c0.19,0.13,0.35,0.26,0.48,0.35l1.01,2.46C61.94,8.65,61.94,8.94,61.93,9.22z M61.84,7.84l-0.72-1.75
						c0.07,0.06,0.1,0.09,0.1,0.09C61.53,6.7,61.73,7.27,61.84,7.84z"/>
					<path class="st0" d="M45.24,26.12L45.24,26.12c0.06,0.03,0.12,0.06,0.18,0.1l0,0L45.24,26.12z"/>
					<path class="st0" d="M32.52,8.76c0,0.02-0.01,0.05-0.01,0.07l4.58,11.24c0.01,0.01,0.01,0.01,0.02,0.02l0,0
						c0.07,0.08,0.15,0.15,0.23,0.23L32.56,8.6C32.55,8.65,32.53,8.7,32.52,8.76z"/>
					<path class="st0" d="M62.99,11.51c0-0.01,0-0.02,0-0.02C62.99,11.5,62.99,11.5,62.99,11.51z"/>
					<path class="st0" d="M45.78,10.56c0.11,0.18,0.23,0.37,0.37,0.55l-1.16-2.84c0.02,0.2,0.06,0.4,0.11,0.62L45.78,10.56z"/>
					<path class="st0" d="M47.02,12.1l-2.05-5.01c-0.01,0.09-0.02,0.19-0.02,0.29l1.83,4.47C46.86,11.94,46.94,12.02,47.02,12.1z"/>
					<path class="st0" d="M32.52,12.1c0.01,0.03,0.01,0.06,0.02,0.09c0.02,0.12,0.05,0.23,0.07,0.35l1.46,3.57
						c0.04,0.06,0.07,0.13,0.11,0.19c0.01,0.02,0.02,0.04,0.03,0.06c0.08,0.13,0.15,0.25,0.24,0.38c0.01,0.01,0.01,0.02,0.02,0.03
						c0.01,0.02,0.02,0.03,0.03,0.05l-2.02-4.94C32.49,11.94,32.51,12.02,32.52,12.1z"/>
					<path class="st0" d="M32.36,10.51c0,0.09,0,0.19,0.01,0.28l2.92,7.16c0.01,0.01,0.01,0.01,0.02,0.02
						c0.09,0.12,0.19,0.25,0.29,0.37l-3.23-7.93C32.36,10.45,32.36,10.48,32.36,10.51z"/>
					<path class="st0" d="M32.4,9.58c0,0.03-0.01,0.06-0.01,0.09c0,0,0,0.01,0,0.01l3.85,9.44c0.09,0.1,0.18,0.2,0.26,0.3
						L32.42,9.41C32.41,9.47,32.4,9.53,32.4,9.58z"/>
					<path class="st0" d="M32.73,7.94C32.72,7.97,32.71,8,32.7,8.03c-0.01,0.02-0.01,0.04-0.02,0.07l5.21,12.77
						c0.08,0.07,0.15,0.14,0.23,0.22L32.75,7.9C32.74,7.91,32.74,7.93,32.73,7.94z"/>
					<path class="st0" d="M32.9,7.46l5.75,14.11c0.07,0.07,0.15,0.13,0.22,0.2L32.97,7.29C32.94,7.35,32.92,7.4,32.9,7.46z"/>
					<path class="st0" d="M33.2,6.77c0,0,0,0.01-0.01,0.01c0,0,0,0,0,0c-0.02,0.04-0.03,0.07-0.05,0.11l6.24,15.31
						c0.07,0.06,0.14,0.12,0.21,0.18L33.22,6.73C33.21,6.75,33.2,6.76,33.2,6.77z"/>
					<path class="st0" d="M33.46,6.26c-0.02,0.04-0.04,0.08-0.06,0.12l6.69,16.4c0.07,0.05,0.14,0.11,0.21,0.16L33.48,6.22
						C33.48,6.24,33.47,6.25,33.46,6.26z"/>
					<path class="st0" d="M33.75,5.75c-0.03,0.04-0.05,0.09-0.08,0.13l7.1,17.42c0.07,0.05,0.14,0.1,0.2,0.15L33.75,5.75
						C33.76,5.75,33.76,5.75,33.75,5.75z"/>
				</g>
			</g>
			<g>
				<g>
					<path class="st0" d="M4.57,58.82c-0.15,0-0.28-0.03-0.4-0.09c-0.12-0.06-0.22-0.14-0.3-0.23c-0.08-0.1-0.14-0.21-0.19-0.35
						c-0.04-0.13-0.06-0.28-0.06-0.43c0-0.22,0.04-0.43,0.12-0.63c0.08-0.2,0.19-0.38,0.32-0.53c0.14-0.15,0.29-0.27,0.47-0.37
						c0.18-0.09,0.36-0.14,0.55-0.14c0.19,0,0.36,0.05,0.49,0.16c0.13,0.1,0.22,0.23,0.28,0.39l0.11-0.5h0.56L6.1,58.1
						c0,0.02-0.01,0.03-0.01,0.04c0,0.01,0,0.02,0,0.03c0,0.07,0.04,0.1,0.12,0.11l-0.1,0.48c-0.05,0.01-0.09,0.01-0.13,0.02
						c-0.04,0.01-0.07,0.01-0.1,0.01c-0.22,0-0.33-0.09-0.33-0.26c0-0.05,0.01-0.14,0.04-0.24c-0.13,0.17-0.28,0.31-0.47,0.4
						C4.93,58.77,4.75,58.82,4.57,58.82z M4.82,58.34c0.07,0,0.14-0.01,0.22-0.04c0.08-0.03,0.15-0.06,0.22-0.11
						c0.07-0.05,0.14-0.1,0.2-0.17c0.06-0.06,0.11-0.13,0.15-0.21l0.14-0.7c-0.01-0.08-0.03-0.16-0.07-0.23
						c-0.04-0.07-0.08-0.13-0.13-0.18c-0.05-0.05-0.11-0.09-0.18-0.12c-0.06-0.03-0.13-0.04-0.2-0.04c-0.13,0-0.25,0.03-0.36,0.1
						c-0.11,0.06-0.21,0.15-0.3,0.25c-0.09,0.1-0.16,0.22-0.21,0.35c-0.05,0.13-0.08,0.26-0.08,0.39c0,0.1,0.01,0.2,0.04,0.28
						c0.03,0.09,0.07,0.16,0.12,0.22c0.05,0.06,0.12,0.11,0.19,0.15C4.64,58.32,4.73,58.34,4.82,58.34z"/>
					<path class="st0" d="M9.99,55.05h0.56l-0.34,1.59c0.14-0.18,0.3-0.33,0.48-0.43c0.19-0.1,0.38-0.15,0.57-0.15
						c0.23,0,0.39,0.06,0.48,0.18c0.09,0.12,0.13,0.28,0.13,0.46c0,0.07,0,0.14-0.01,0.21c-0.01,0.07-0.02,0.15-0.04,0.23
						l-0.34,1.62h-0.56l0.32-1.49c0.02-0.11,0.04-0.21,0.04-0.3c0-0.14-0.03-0.25-0.09-0.32c-0.06-0.07-0.15-0.1-0.26-0.1
						c-0.07,0-0.14,0.02-0.22,0.05s-0.16,0.07-0.23,0.13c-0.08,0.06-0.15,0.12-0.21,0.2c-0.07,0.08-0.12,0.16-0.17,0.25l-0.34,1.58
						H9.2L9.99,55.05z"/>
					<path class="st0" d="M15.83,58.82c-0.17,0-0.32-0.03-0.45-0.09c-0.13-0.06-0.24-0.14-0.33-0.24c-0.09-0.1-0.16-0.22-0.21-0.36
						c-0.05-0.14-0.07-0.29-0.07-0.45c0-0.22,0.04-0.42,0.12-0.62c0.08-0.2,0.2-0.37,0.35-0.52c0.15-0.15,0.32-0.27,0.52-0.36
						c0.2-0.09,0.42-0.13,0.65-0.13c0.27,0,0.49,0.06,0.66,0.19c0.16,0.12,0.25,0.31,0.25,0.55c0,0.56-0.5,0.83-1.49,0.83
						c-0.15,0-0.31,0-0.49-0.02v0.09c0,0.1,0.01,0.19,0.04,0.27c0.02,0.08,0.06,0.16,0.11,0.22c0.05,0.06,0.11,0.11,0.18,0.15
						c0.07,0.04,0.16,0.05,0.26,0.05c0.15,0,0.29-0.04,0.42-0.11c0.14-0.07,0.24-0.17,0.32-0.3l0.44,0.14
						c-0.06,0.1-0.14,0.19-0.24,0.28c-0.09,0.08-0.2,0.15-0.31,0.21c-0.11,0.06-0.23,0.11-0.36,0.14
						C16.09,58.8,15.96,58.82,15.83,58.82z M16.34,56.47c-0.12,0-0.23,0.02-0.34,0.06c-0.1,0.04-0.19,0.1-0.27,0.17
						s-0.14,0.15-0.2,0.25c-0.05,0.09-0.1,0.19-0.13,0.29c0.16,0.01,0.3,0.02,0.43,0.02c0.18,0,0.33-0.01,0.45-0.03
						c0.12-0.02,0.22-0.05,0.3-0.09c0.08-0.04,0.13-0.09,0.16-0.14c0.03-0.06,0.05-0.12,0.05-0.19c0-0.12-0.04-0.2-0.12-0.25
						C16.6,56.5,16.49,56.47,16.34,56.47z"/>
					<path class="st0" d="M21.02,58.82c-0.15,0-0.28-0.03-0.4-0.09c-0.12-0.06-0.22-0.14-0.3-0.23c-0.08-0.1-0.14-0.21-0.19-0.35
						c-0.04-0.13-0.06-0.28-0.06-0.43c0-0.22,0.04-0.43,0.12-0.63c0.08-0.2,0.19-0.38,0.32-0.53c0.14-0.15,0.29-0.27,0.47-0.37
						c0.18-0.09,0.36-0.14,0.55-0.14c0.19,0,0.36,0.05,0.49,0.16c0.13,0.1,0.22,0.23,0.28,0.39l0.11-0.5h0.56l-0.43,1.99
						c0,0.02-0.01,0.03-0.01,0.04c0,0.01,0,0.02,0,0.03c0,0.07,0.04,0.1,0.12,0.11l-0.1,0.48c-0.05,0.01-0.09,0.01-0.13,0.02
						c-0.04,0.01-0.07,0.01-0.1,0.01c-0.22,0-0.33-0.09-0.33-0.26c0-0.05,0.01-0.14,0.04-0.24c-0.13,0.17-0.28,0.31-0.47,0.4
						C21.38,58.77,21.2,58.82,21.02,58.82z M21.27,58.34c0.07,0,0.14-0.01,0.22-0.04c0.08-0.03,0.15-0.06,0.22-0.11
						c0.07-0.05,0.14-0.1,0.2-0.17c0.06-0.06,0.11-0.13,0.15-0.21l0.14-0.7c-0.01-0.08-0.03-0.16-0.07-0.23
						c-0.04-0.07-0.08-0.13-0.13-0.18c-0.05-0.05-0.11-0.09-0.18-0.12c-0.06-0.03-0.13-0.04-0.2-0.04c-0.13,0-0.25,0.03-0.36,0.1
						c-0.11,0.06-0.21,0.15-0.3,0.25c-0.09,0.1-0.16,0.22-0.21,0.35s-0.08,0.26-0.08,0.39c0,0.1,0.01,0.2,0.04,0.28
						c0.03,0.09,0.07,0.16,0.12,0.22c0.05,0.06,0.12,0.11,0.19,0.15C21.09,58.32,21.18,58.34,21.27,58.34z"/>
					<path class="st0" d="M26.69,58.82c-0.15,0-0.28-0.03-0.4-0.09c-0.12-0.06-0.22-0.14-0.3-0.23c-0.08-0.1-0.14-0.21-0.19-0.35
						c-0.04-0.13-0.06-0.28-0.06-0.43c0-0.22,0.04-0.43,0.12-0.63c0.08-0.2,0.19-0.38,0.32-0.53c0.14-0.15,0.29-0.27,0.47-0.37
						s0.36-0.14,0.55-0.14c0.19,0,0.36,0.05,0.49,0.16c0.13,0.1,0.22,0.23,0.28,0.39l0.33-1.56h0.56l-0.65,3.05
						c0,0.02-0.01,0.03-0.01,0.04c0,0.01,0,0.02,0,0.03c0,0.07,0.04,0.1,0.12,0.11l-0.1,0.48c-0.05,0.01-0.09,0.01-0.13,0.02
						c-0.04,0.01-0.07,0.01-0.1,0.01c-0.11,0-0.19-0.02-0.25-0.07c-0.06-0.05-0.09-0.11-0.09-0.19c0-0.03,0-0.06,0.01-0.1
						c0.01-0.04,0.02-0.09,0.03-0.15c-0.13,0.17-0.28,0.31-0.47,0.4C27.05,58.77,26.87,58.82,26.69,58.82z M26.94,58.34
						c0.07,0,0.14-0.01,0.22-0.04c0.08-0.03,0.15-0.06,0.22-0.11s0.14-0.1,0.2-0.17c0.06-0.06,0.11-0.13,0.15-0.21l0.14-0.7
						c-0.01-0.08-0.03-0.16-0.07-0.23c-0.04-0.07-0.08-0.13-0.13-0.18c-0.05-0.05-0.11-0.09-0.18-0.12
						c-0.06-0.03-0.13-0.04-0.2-0.04c-0.13,0-0.25,0.03-0.36,0.1c-0.11,0.06-0.21,0.15-0.3,0.25c-0.09,0.1-0.16,0.22-0.21,0.35
						s-0.08,0.26-0.08,0.39c0,0.1,0.01,0.2,0.04,0.28c0.03,0.09,0.07,0.16,0.12,0.22c0.05,0.06,0.12,0.11,0.19,0.15
						C26.76,58.32,26.85,58.34,26.94,58.34z"/>
				</g>
				<path class="st0" d="M36.23,58.82c-0.17,0-0.32-0.03-0.45-0.09c-0.13-0.06-0.24-0.14-0.33-0.24c-0.09-0.1-0.16-0.22-0.2-0.35
					c-0.05-0.13-0.07-0.28-0.07-0.43c0-0.21,0.04-0.42,0.13-0.62s0.2-0.37,0.35-0.53c0.15-0.15,0.32-0.27,0.52-0.37
					c0.2-0.09,0.41-0.14,0.64-0.14c0.17,0,0.32,0.03,0.45,0.09s0.24,0.14,0.33,0.24c0.09,0.1,0.16,0.22,0.2,0.35
					c0.05,0.14,0.07,0.28,0.07,0.43c0,0.21-0.04,0.41-0.13,0.61c-0.08,0.2-0.2,0.37-0.35,0.52s-0.32,0.28-0.52,0.37
					S36.46,58.82,36.23,58.82z M36.34,58.34c0.12,0,0.23-0.03,0.35-0.09c0.11-0.06,0.21-0.14,0.3-0.24c0.09-0.1,0.16-0.22,0.21-0.35
					c0.05-0.13,0.08-0.27,0.08-0.42c0-0.2-0.05-0.37-0.16-0.51c-0.1-0.13-0.24-0.2-0.41-0.2c-0.12,0-0.23,0.03-0.35,0.09
					c-0.11,0.06-0.21,0.14-0.3,0.24c-0.09,0.1-0.16,0.22-0.22,0.35c-0.05,0.13-0.08,0.27-0.08,0.42c0,0.2,0.05,0.37,0.16,0.5
					C36.03,58.27,36.17,58.34,36.34,58.34z"/>
				<path class="st0" d="M41.15,56.6h-0.33l0.09-0.43h0.34l0.02-0.11c0.03-0.16,0.08-0.31,0.15-0.44c0.07-0.13,0.14-0.24,0.24-0.34
					c0.09-0.09,0.19-0.16,0.31-0.21c0.11-0.05,0.23-0.07,0.36-0.07c0.1,0,0.2,0.01,0.29,0.04c0.1,0.03,0.19,0.07,0.27,0.12
					l-0.21,0.42c-0.04-0.03-0.09-0.06-0.16-0.08c-0.06-0.02-0.12-0.03-0.18-0.03c-0.12,0-0.23,0.05-0.31,0.15
					c-0.08,0.1-0.15,0.24-0.19,0.43l-0.03,0.12h0.64l-0.1,0.43h-0.64l-0.69,3.24h-0.56L41.15,56.6z"/>
				<path class="st0" d="M49.31,58.81c-0.15,0-0.27-0.03-0.37-0.1c-0.1-0.07-0.15-0.18-0.15-0.33c0-0.06,0.01-0.11,0.02-0.17
					l0.36-1.66h-0.34l0.1-0.43h0.33l0.19-0.87h0.56l-0.19,0.87h0.55l-0.09,0.43h-0.54l-0.32,1.49c-0.01,0.03-0.01,0.06-0.01,0.08
					c0,0.07,0.02,0.12,0.06,0.15c0.04,0.03,0.09,0.05,0.15,0.05c0.08,0,0.15-0.01,0.22-0.04c0.07-0.03,0.13-0.05,0.16-0.07
					l0.02,0.44c-0.08,0.05-0.18,0.09-0.31,0.12C49.58,58.79,49.45,58.81,49.31,58.81z"/>
				<path class="st0" d="M53.69,55.05h0.56l-0.34,1.59c0.14-0.18,0.3-0.33,0.48-0.43c0.19-0.1,0.38-0.15,0.57-0.15
					c0.23,0,0.39,0.06,0.48,0.18c0.09,0.12,0.13,0.28,0.13,0.46c0,0.07,0,0.14-0.01,0.21c-0.01,0.07-0.02,0.15-0.04,0.23l-0.34,1.62
					h-0.56l0.32-1.49c0.02-0.11,0.04-0.21,0.04-0.3c0-0.14-0.03-0.25-0.09-0.32c-0.06-0.07-0.15-0.1-0.26-0.1
					c-0.07,0-0.14,0.02-0.22,0.05c-0.08,0.03-0.16,0.07-0.23,0.13c-0.08,0.06-0.15,0.12-0.21,0.2c-0.07,0.08-0.12,0.16-0.17,0.25
					l-0.34,1.58h-0.56L53.69,55.05z"/>
				<path class="st0" d="M59.53,58.82c-0.17,0-0.32-0.03-0.45-0.09c-0.13-0.06-0.24-0.14-0.33-0.24c-0.09-0.1-0.16-0.22-0.21-0.36
					c-0.05-0.14-0.07-0.29-0.07-0.45c0-0.22,0.04-0.42,0.12-0.62c0.08-0.2,0.2-0.37,0.35-0.52c0.15-0.15,0.32-0.27,0.52-0.36
					c0.2-0.09,0.42-0.13,0.65-0.13c0.27,0,0.49,0.06,0.66,0.19c0.16,0.12,0.25,0.31,0.25,0.55c0,0.56-0.5,0.83-1.49,0.83
					c-0.15,0-0.31,0-0.49-0.02v0.09c0,0.1,0.01,0.19,0.04,0.27c0.02,0.08,0.06,0.16,0.11,0.22c0.05,0.06,0.11,0.11,0.18,0.15
					c0.07,0.04,0.16,0.05,0.26,0.05c0.15,0,0.29-0.04,0.42-0.11c0.14-0.07,0.24-0.17,0.32-0.3l0.44,0.14
					c-0.06,0.1-0.14,0.19-0.24,0.28c-0.09,0.08-0.2,0.15-0.31,0.21c-0.11,0.06-0.23,0.11-0.36,0.14
					C59.79,58.8,59.66,58.82,59.53,58.82z M60.05,56.47c-0.12,0-0.23,0.02-0.34,0.06c-0.1,0.04-0.19,0.1-0.27,0.17
					s-0.14,0.15-0.2,0.25c-0.05,0.09-0.1,0.19-0.13,0.29c0.16,0.01,0.3,0.02,0.43,0.02c0.18,0,0.33-0.01,0.45-0.03
					c0.12-0.02,0.22-0.05,0.3-0.09c0.08-0.04,0.13-0.09,0.16-0.14c0.03-0.06,0.05-0.12,0.05-0.19c0-0.12-0.04-0.2-0.12-0.25
					C60.3,56.5,60.19,56.47,60.05,56.47z"/>
				<path class="st0" d="M68.05,56.6h-0.33l0.09-0.43h0.34l0.02-0.11c0.03-0.16,0.08-0.31,0.15-0.44c0.07-0.13,0.14-0.24,0.24-0.34
					c0.09-0.09,0.19-0.16,0.31-0.21c0.11-0.05,0.23-0.07,0.36-0.07c0.1,0,0.2,0.01,0.29,0.04c0.1,0.03,0.19,0.07,0.27,0.12
					l-0.21,0.42c-0.04-0.03-0.09-0.06-0.16-0.08c-0.06-0.02-0.12-0.03-0.18-0.03c-0.12,0-0.23,0.05-0.31,0.15
					c-0.08,0.1-0.15,0.24-0.19,0.43l-0.03,0.12h0.64l-0.1,0.43h-0.64l-0.69,3.24h-0.56L68.05,56.6z"/>
				<path class="st0" d="M72.53,58.82c-0.41,0-0.62-0.22-0.62-0.66c0-0.13,0.02-0.27,0.05-0.42l0.35-1.63h0.55l-0.33,1.52
					c-0.02,0.11-0.04,0.21-0.04,0.31c0,0.27,0.12,0.41,0.35,0.41c0.15,0,0.3-0.05,0.45-0.15c0.15-0.1,0.28-0.24,0.4-0.43l0.35-1.66
					h0.56l-0.42,2c-0.01,0.03-0.02,0.06-0.02,0.08c0,0.06,0.04,0.1,0.12,0.11l-0.1,0.48c-0.05,0.01-0.1,0.01-0.13,0.02
					c-0.04,0.01-0.07,0.01-0.1,0.01c-0.1,0-0.18-0.02-0.24-0.06c-0.06-0.04-0.09-0.11-0.09-0.19c0-0.03,0-0.06,0.01-0.11
					c0.01-0.04,0.02-0.11,0.04-0.2c-0.15,0.19-0.33,0.34-0.53,0.44C72.96,58.77,72.75,58.82,72.53,58.82z"/>
				<path class="st0" d="M78.04,58.81c-0.15,0-0.27-0.03-0.37-0.1c-0.1-0.07-0.15-0.18-0.15-0.33c0-0.06,0.01-0.11,0.02-0.17
					l0.36-1.66h-0.34l0.1-0.43h0.33l0.19-0.87h0.56l-0.19,0.87h0.55l-0.09,0.43h-0.54l-0.32,1.49c-0.01,0.03-0.01,0.06-0.01,0.08
					c0,0.07,0.02,0.12,0.06,0.15c0.04,0.03,0.09,0.05,0.15,0.05c0.08,0,0.15-0.01,0.22-0.04c0.07-0.03,0.13-0.05,0.16-0.07
					l0.02,0.44c-0.08,0.05-0.18,0.09-0.31,0.12C78.32,58.79,78.18,58.81,78.04,58.81z"/>
				<path class="st0" d="M82.4,58.82c-0.41,0-0.62-0.22-0.62-0.66c0-0.13,0.02-0.27,0.05-0.42l0.35-1.63h0.55l-0.33,1.52
					c-0.02,0.11-0.04,0.21-0.04,0.31c0,0.27,0.12,0.41,0.35,0.41c0.15,0,0.3-0.05,0.45-0.15c0.15-0.1,0.28-0.24,0.4-0.43l0.35-1.66
					h0.56l-0.42,2c-0.01,0.03-0.02,0.06-0.02,0.08c0,0.06,0.04,0.1,0.12,0.11l-0.1,0.48c-0.05,0.01-0.1,0.01-0.13,0.02
					c-0.04,0.01-0.07,0.01-0.1,0.01c-0.1,0-0.18-0.02-0.24-0.06c-0.06-0.04-0.09-0.11-0.09-0.19c0-0.03,0-0.06,0.01-0.11
					c0.01-0.04,0.02-0.11,0.04-0.2c-0.15,0.19-0.33,0.34-0.53,0.44C82.83,58.77,82.62,58.82,82.4,58.82z"/>
				<path class="st0" d="M87.73,56.11h0.52l-0.13,0.6c0.13-0.18,0.27-0.33,0.44-0.44c0.16-0.11,0.32-0.17,0.48-0.17
					c0.03,0,0.06,0,0.08,0c0.02,0,0.04,0,0.05,0.01l-0.11,0.49c-0.2,0.01-0.39,0.06-0.57,0.15c-0.18,0.09-0.32,0.23-0.43,0.4
					l-0.35,1.63h-0.56L87.73,56.11z"/>
				<path class="st0" d="M92.6,58.82c-0.17,0-0.32-0.03-0.45-0.09c-0.13-0.06-0.24-0.14-0.33-0.24c-0.09-0.1-0.16-0.22-0.21-0.36
					c-0.05-0.14-0.07-0.29-0.07-0.45c0-0.22,0.04-0.42,0.12-0.62c0.08-0.2,0.2-0.37,0.35-0.52c0.15-0.15,0.32-0.27,0.52-0.36
					c0.2-0.09,0.42-0.13,0.65-0.13c0.27,0,0.49,0.06,0.66,0.19c0.16,0.12,0.25,0.31,0.25,0.55c0,0.56-0.5,0.83-1.49,0.83
					c-0.15,0-0.31,0-0.49-0.02v0.09c0,0.1,0.01,0.19,0.04,0.27c0.02,0.08,0.06,0.16,0.11,0.22c0.05,0.06,0.11,0.11,0.18,0.15
					c0.07,0.04,0.16,0.05,0.26,0.05c0.15,0,0.29-0.04,0.42-0.11c0.14-0.07,0.24-0.17,0.32-0.3l0.44,0.14
					c-0.06,0.1-0.14,0.19-0.24,0.28c-0.09,0.08-0.2,0.15-0.31,0.21c-0.11,0.06-0.23,0.11-0.36,0.14
					C92.86,58.8,92.73,58.82,92.6,58.82z M93.12,56.47c-0.12,0-0.23,0.02-0.34,0.06c-0.1,0.04-0.19,0.1-0.27,0.17
					c-0.08,0.07-0.14,0.15-0.2,0.25c-0.05,0.09-0.1,0.19-0.13,0.29c0.16,0.01,0.3,0.02,0.43,0.02c0.18,0,0.33-0.01,0.45-0.03
					c0.12-0.02,0.22-0.05,0.3-0.09c0.08-0.04,0.13-0.09,0.16-0.14c0.03-0.06,0.05-0.12,0.05-0.19c0-0.12-0.04-0.2-0.12-0.25
					C93.37,56.5,93.26,56.47,93.12,56.47z"/>
			</g>
		</g>
	</g>
</g>
<g id="Capa_6">
</g>
<g id="Capa_5">
</g>
</svg>
