<?xml version="1.0" encoding="utf-8"?>
<!-- Generator: Adobe Illustrator 24.0.3, SVG Export Plug-In . SVG Version: 6.00 Build 0)  -->
<svg version="1.1" xmlns="http://www.w3.org/2000/svg" xmlns:xlink="http://www.w3.org/1999/xlink" x="0px" y="0px"
	 viewBox="0 0 104.56 23.8" style="enable-background:new 0 0 104.56 23.8;" xml:space="preserve">
<style type="text/css">
	.st0{fill:#FFFFFF;}
	.st1{fill:url(#SVGID_1_);}
	.st2{fill:#E7004C;}
	.st3{fill:none;stroke:#00B2E3;stroke-miterlimit:10;}
	.st4{fill:url(#SVGID_2_);}
	.st5{fill:#FCFCFC;}
	.st6{fill:url(#SVGID_3_);}
	.st7{fill:url(#SVGID_4_);}
	.st8{opacity:0.8;fill:#E7004C;}
	.st9{opacity:0.7;fill:#E7004C;}
	.st10{opacity:0.7;}
	.st11{fill:#00B2E3;}
	.st12{opacity:0.8;fill:#00B2E3;}
	.st13{opacity:0.7;fill:#00B2E3;}
	.st14{fill:#BBBBBB;}
	.st15{opacity:0.8;fill:#BBBBBB;}
	.st16{opacity:0.7;fill:#BBBBBB;}
	.st17{fill:url(#SVGID_5_);}
	.st18{fill:url(#SVGID_6_);}
	.st19{fill:none;stroke:#E7004C;stroke-width:2;stroke-miterlimit:10;}
	.st20{fill:url(#SVGID_7_);}
	.st21{fill:url(#SVGID_8_);}
	.st22{fill:url(#SVGID_9_);}
	.st23{fill:none;stroke:#FFFFFF;stroke-miterlimit:10;}
	.st24{fill:none;stroke:#E7004C;stroke-miterlimit:10;}
	.st25{fill-rule:evenodd;clip-rule:evenodd;fill:#E7004C;}
	.st26{fill:none;stroke:#000000;stroke-miterlimit:10;}
	.st27{fill:#38A8E0;}
	.st28{clip-path:url(#SVGID_11_);fill:#00B2E3;}
	.st29{fill:none;stroke:#E7004C;stroke-width:3;stroke-miterlimit:10;}
	.st30{clip-path:url(#SVGID_13_);}
	.st31{fill:none;stroke:#FFFFFF;stroke-width:2;stroke-miterlimit:10;}
	.st32{fill:none;stroke:#FFFFFF;stroke-width:3;stroke-miterlimit:10;}
	.st33{clip-path:url(#SVGID_15_);}
	.st34{fill:url(#SVGID_16_);}
	.st35{fill:none;stroke:#FFFFFF;stroke-width:0.5;stroke-miterlimit:10;}
	.st36{clip-path:url(#SVGID_18_);fill:#00B2E3;}
	.st37{clip-path:url(#SVGID_20_);}
	.st38{clip-path:url(#SVGID_22_);}
	.st39{fill:url(#SVGID_23_);}
	.st40{clip-path:url(#SVGID_25_);}
	.st41{fill:url(#SVGID_26_);}
	.st42{fill:url(#SVGID_27_);}
	.st43{fill:url(#SVGID_28_);}
	.st44{fill:url(#SVGID_29_);}
	.st45{clip-path:url(#SVGID_31_);fill:#00B2E3;}
	.st46{clip-path:url(#SVGID_33_);}
	.st47{clip-path:url(#SVGID_35_);}
	.st48{fill:url(#SVGID_36_);}
	.st49{clip-path:url(#SVGID_38_);}
	.st50{clip-path:url(#SVGID_40_);}
	.st51{fill:#280210;}
	.st52{opacity:0.5;}
	.st53{opacity:0.6;}
	.st54{fill:url(#SVGID_41_);}
	.st55{fill:url(#SVGID_42_);}
	.st56{fill:url(#SVGID_43_);}
	.st57{fill:url(#SVGID_44_);}
	.st58{opacity:0.8;}
	.st59{opacity:0.9;}
	.st60{fill:url(#SVGID_45_);}
	.st61{clip-path:url(#SVGID_47_);}
	.st62{clip-path:url(#SVGID_49_);}
	.st63{fill:url(#SVGID_50_);}
	.st64{clip-path:url(#SVGID_52_);}
	.st65{fill:url(#SVGID_53_);}
	.st66{clip-path:url(#SVGID_55_);}
	.st67{fill:url(#SVGID_56_);}
	.st68{clip-path:url(#SVGID_58_);}
	.st69{clip-path:url(#SVGID_60_);fill:#00B2E3;}
	.st70{clip-path:url(#SVGID_62_);}
	.st71{clip-path:url(#SVGID_64_);}
	.st72{fill:none;stroke:#FFFFFF;stroke-width:5;stroke-miterlimit:10;}
	.st73{clip-path:url(#SVGID_66_);fill:#00B2E3;}
	.st74{clip-path:url(#SVGID_68_);}
	.st75{clip-path:url(#SVGID_70_);}
	.st76{clip-path:url(#SVGID_72_);fill:#00B2E3;}
	.st77{clip-path:url(#SVGID_74_);}
	.st78{fill:#5B0323;}
	.st79{fill:url(#SVGID_75_);}
	.st80{fill:url(#SVGID_76_);}
	.st81{fill:url(#SVGID_77_);}
	.st82{clip-path:url(#SVGID_80_);fill:#00B2E3;}
	.st83{clip-path:url(#SVGID_84_);}
	.st84{clip-path:url(#SVGID_86_);}
	.st85{fill-rule:evenodd;clip-rule:evenodd;fill:#FFFFFF;}
	.st86{fill:#E5E5E5;}
	.st87{clip-path:url(#SVGID_88_);}
	.st88{fill-rule:evenodd;clip-rule:evenodd;fill:none;stroke:#E7004C;stroke-width:3;stroke-miterlimit:10;}
	.st89{fill:#070101;}
	.st90{fill:none;stroke:#068FFF;stroke-width:5;stroke-miterlimit:10;}
</style>
<g id="Capa_2">
</g>
<g id="Capa_1">
</g>
<g id="Capa_3">
</g>
<g id="Capa_4">
	<g>
		<path class="st0" d="M8.31,2.63C3.72,2.63,0,6.35,0,10.94s3.72,8.31,8.31,8.31s8.31-3.72,8.31-8.31S12.9,2.63,8.31,2.63z
			 M8.31,18.17c-4.04,0-7.32-3.24-7.32-7.23S4.27,3.7,8.31,3.7c4.04,0,7.32,3.24,7.32,7.23S12.35,18.17,8.31,18.17z"/>
		<path class="st0" d="M40.46,5.04h-9.47l-6.52,8.6h9.85c1.24,0,2.42-0.58,3.17-1.57l0.91-1.19c0.29-0.38,0.25-0.92-0.1-1.26
			l-0.07-0.07c0.89-0.2,1.68-0.71,2.22-1.43l0.94-1.2C41.97,6.14,41.42,5.04,40.46,5.04z M33.84,10.63l-0.66,0.87
			c-0.16,0.21-0.42,0.34-0.68,0.34h-2l1.26-1.66h1.85C33.85,10.17,33.99,10.44,33.84,10.63z M36.36,7.31l-0.53,0.7
			c-0.18,0.23-0.45,0.37-0.74,0.37h-1.96l1.17-1.54h1.83C36.37,6.83,36.51,7.11,36.36,7.31z"/>
		<path class="st0" d="M54.8,5.04h-7.53c-1.26,0-2.45,0.59-3.22,1.6l-3.89,5.13c-0.58,0.77-0.03,1.87,0.93,1.87h7.49
			c1.28,0,2.49-0.6,3.27-1.62l3.87-5.1C56.31,6.14,55.76,5.04,54.8,5.04z M50.7,7.37l-3.05,4.03c-0.21,0.28-0.54,0.44-0.88,0.44
			h-1.31c-0.23,0-0.36-0.27-0.22-0.45l3.14-4.13c0.2-0.26,0.5-0.41,0.83-0.41h1.24C50.71,6.83,50.86,7.15,50.7,7.37z"/>
		<path class="st0" d="M69.24,5.04h-9.42l-6.52,8.6l9.42,0c0,0,1.42-1.8,1.37-1.8c-0.06,0-4.73,0-4.73,0l1.26-1.66l4.73,0l1.35-1.79
			l-4.72,0l1.17-1.54h4.67L69.24,5.04z"/>
		<polygon class="st0" points="71.86,5.04 76.6,5.04 70.08,13.63 65.34,13.63 		"/>
		<polygon class="st0" points="84.15,13.63 80.41,13.63 79.44,9.34 76.18,13.63 73.04,13.63 79.56,5.04 83.22,5.04 84.19,9.37 
			87.48,5.04 90.67,5.04 		"/>
		<path class="st0" d="M98.2,8h4.75l0.78-1.03c0.6-0.79,0.04-1.93-0.96-1.93h-7.43c-1.28,0-2.49,0.6-3.26,1.62l-3.83,5.06
			c-0.6,0.79-0.04,1.92,0.95,1.92h7.36c1.33,0,2.59-0.62,3.39-1.69l0.87-1.14h1.05L103.26,9c-0.54,0-5.24,0-5.81,0l-1.84,2.43
			c-0.19,0.26-0.5,0.41-0.82,0.41h-1.3c-0.25,0-0.39-0.29-0.24-0.49l3.1-4.08c0.2-0.27,0.52-0.42,0.86-0.42h1.28
			c0.25,0,0.39,0.28,0.24,0.48L98.2,8z"/>
		<path class="st0" d="M28.85,16.82c-6.06,0.16-11.59,0.39-14.43,0.59l-3.02-5.69C16.95,17.1,29.05,16.16,28.85,16.82z"/>
		<path class="st0" d="M3.23,21.6c-1.03-0.91-0.32-3.9,2.09-7.87C10.33,5.45,17.2,0,17.2,0C11.94,3.16,8.94,6.31,6.38,9.45
			C1.12,15.92-0.6,22.02,1.62,23.58c0.94,0.66,4.14-0.06,6.69-3.92C6.87,20.95,4.36,22.6,3.23,21.6z"/>
	</g>
</g>
<g id="Capa_6">
</g>
<g id="Capa_5">
</g>
</svg>
