<?xml version="1.0" encoding="utf-8"?>
<!-- Generator: Adobe Illustrator 24.0.3, SVG Export Plug-In . SVG Version: 6.00 Build 0)  -->
<svg version="1.1" xmlns="http://www.w3.org/2000/svg" xmlns:xlink="http://www.w3.org/1999/xlink" x="0px" y="0px"
	 viewBox="0 0 91.73 30.29" style="enable-background:new 0 0 91.73 30.29;" xml:space="preserve">
<style type="text/css">
	.st0{fill:#FFFFFF;}
	.st1{fill:url(#SVGID_1_);}
	.st2{fill:#E7004C;}
	.st3{fill:none;stroke:#00B2E3;stroke-miterlimit:10;}
	.st4{fill:url(#SVGID_2_);}
	.st5{fill:#FCFCFC;}
	.st6{fill:url(#SVGID_3_);}
	.st7{fill:url(#SVGID_4_);}
	.st8{opacity:0.8;fill:#E7004C;}
	.st9{opacity:0.7;fill:#E7004C;}
	.st10{opacity:0.7;}
	.st11{fill:#00B2E3;}
	.st12{opacity:0.8;fill:#00B2E3;}
	.st13{opacity:0.7;fill:#00B2E3;}
	.st14{fill:#BBBBBB;}
	.st15{opacity:0.8;fill:#BBBBBB;}
	.st16{opacity:0.7;fill:#BBBBBB;}
	.st17{fill:url(#SVGID_5_);}
	.st18{fill:url(#SVGID_6_);}
	.st19{fill:none;stroke:#E7004C;stroke-width:2;stroke-miterlimit:10;}
	.st20{fill:url(#SVGID_7_);}
	.st21{fill:url(#SVGID_8_);}
	.st22{fill:url(#SVGID_9_);}
	.st23{fill:none;stroke:#FFFFFF;stroke-miterlimit:10;}
	.st24{fill:none;stroke:#E7004C;stroke-miterlimit:10;}
	.st25{fill-rule:evenodd;clip-rule:evenodd;fill:#E7004C;}
	.st26{fill:none;stroke:#000000;stroke-miterlimit:10;}
	.st27{fill:#38A8E0;}
	.st28{clip-path:url(#SVGID_11_);fill:#00B2E3;}
	.st29{fill:none;stroke:#E7004C;stroke-width:3;stroke-miterlimit:10;}
	.st30{clip-path:url(#SVGID_13_);}
	.st31{fill:none;stroke:#FFFFFF;stroke-width:2;stroke-miterlimit:10;}
	.st32{fill:none;stroke:#FFFFFF;stroke-width:3;stroke-miterlimit:10;}
	.st33{clip-path:url(#SVGID_15_);}
	.st34{fill:url(#SVGID_16_);}
	.st35{fill:none;stroke:#FFFFFF;stroke-width:0.5;stroke-miterlimit:10;}
	.st36{clip-path:url(#SVGID_18_);fill:#00B2E3;}
	.st37{clip-path:url(#SVGID_20_);}
	.st38{clip-path:url(#SVGID_22_);}
	.st39{fill:url(#SVGID_23_);}
	.st40{clip-path:url(#SVGID_25_);}
	.st41{fill:url(#SVGID_26_);}
	.st42{fill:url(#SVGID_27_);}
	.st43{fill:url(#SVGID_28_);}
	.st44{fill:url(#SVGID_29_);}
	.st45{clip-path:url(#SVGID_31_);fill:#00B2E3;}
	.st46{clip-path:url(#SVGID_33_);}
	.st47{clip-path:url(#SVGID_35_);}
	.st48{fill:url(#SVGID_36_);}
	.st49{clip-path:url(#SVGID_38_);}
	.st50{clip-path:url(#SVGID_40_);}
	.st51{fill:#280210;}
	.st52{opacity:0.5;}
	.st53{opacity:0.6;}
	.st54{fill:url(#SVGID_41_);}
	.st55{fill:url(#SVGID_42_);}
	.st56{fill:url(#SVGID_43_);}
	.st57{fill:url(#SVGID_44_);}
	.st58{opacity:0.8;}
	.st59{opacity:0.9;}
	.st60{fill:url(#SVGID_45_);}
	.st61{clip-path:url(#SVGID_47_);}
	.st62{clip-path:url(#SVGID_49_);}
	.st63{fill:url(#SVGID_50_);}
	.st64{clip-path:url(#SVGID_52_);}
	.st65{fill:url(#SVGID_53_);}
	.st66{clip-path:url(#SVGID_55_);}
	.st67{fill:url(#SVGID_56_);}
	.st68{clip-path:url(#SVGID_58_);}
	.st69{clip-path:url(#SVGID_60_);fill:#00B2E3;}
	.st70{clip-path:url(#SVGID_62_);}
	.st71{clip-path:url(#SVGID_64_);}
	.st72{fill:none;stroke:#FFFFFF;stroke-width:5;stroke-miterlimit:10;}
	.st73{clip-path:url(#SVGID_66_);fill:#00B2E3;}
	.st74{clip-path:url(#SVGID_68_);}
	.st75{clip-path:url(#SVGID_70_);}
	.st76{clip-path:url(#SVGID_72_);fill:#00B2E3;}
	.st77{clip-path:url(#SVGID_74_);}
	.st78{fill:#5B0323;}
	.st79{fill:url(#SVGID_75_);}
	.st80{fill:url(#SVGID_76_);}
	.st81{fill:url(#SVGID_77_);}
	.st82{clip-path:url(#SVGID_80_);fill:#00B2E3;}
	.st83{clip-path:url(#SVGID_84_);}
	.st84{clip-path:url(#SVGID_86_);}
	.st85{fill-rule:evenodd;clip-rule:evenodd;fill:#FFFFFF;}
	.st86{fill:#E5E5E5;}
	.st87{clip-path:url(#SVGID_88_);}
	.st88{fill-rule:evenodd;clip-rule:evenodd;fill:none;stroke:#E7004C;stroke-width:3;stroke-miterlimit:10;}
	.st89{fill:#070101;}
	.st90{fill:none;stroke:#068FFF;stroke-width:5;stroke-miterlimit:10;}
</style>
<g id="Capa_2">
</g>
<g id="Capa_1">
</g>
<g id="Capa_3">
</g>
<g id="Capa_4">
	<g>
		<g>
			<g>
				<g>
					<path class="st0" d="M42.97,29.46l0.02-0.12c-0.17,0.1-0.4,0.17-0.67,0.17c-0.44,0-0.68-0.29-0.68-0.77
						c0-0.1,0.01-0.2,0.03-0.31l0.06-0.32c0.14-0.8,0.57-0.98,1.15-0.98c0.17,0,0.32,0.02,0.46,0.04l0.08-0.46L43.2,26.7l0.07-0.37
						h0.76l-0.48,2.69l0.2,0.02l-0.07,0.42H42.97z M43.27,27.62c-0.15-0.02-0.31-0.04-0.41-0.04c-0.32,0-0.52,0.09-0.61,0.6
						l-0.06,0.32c-0.01,0.08-0.02,0.15-0.02,0.21c0,0.25,0.12,0.35,0.38,0.35c0.17,0,0.33-0.04,0.48-0.1L43.27,27.62z"/>
					<path class="st0" d="M44.03,29.46l0.07-0.42l0.2-0.02l0.24-1.38l-0.19-0.02l0.08-0.42h0.73l-0.32,1.82l0.19,0.02l-0.07,0.42
						H44.03z M44.68,26.84l0.09-0.51h0.55l-0.09,0.51H44.68z"/>
					<path class="st0" d="M47.84,27.62l-0.25,1.4l0.2,0.02l-0.07,0.42h-0.93l0.07-0.42l0.21-0.02l0.25-1.4h-0.89l-0.25,1.4l0.2,0.02
						l-0.07,0.42h-0.93l0.07-0.42l0.21-0.02l0.25-1.4l-0.39-0.04l0.07-0.38h0.4l0.04-0.22c0.07-0.41,0.24-0.7,0.76-0.7
						c0.19,0,0.39,0.04,0.48,0.06l-0.06,0.34c-0.11-0.01-0.24-0.01-0.36-0.01c-0.21,0-0.25,0.1-0.29,0.32l-0.04,0.21h0.89l0.04-0.22
						c0.07-0.41,0.24-0.7,0.76-0.7c0.19,0,0.39,0.04,0.48,0.06l-0.06,0.34c-0.08,0-0.24-0.01-0.36-0.01c-0.22,0-0.25,0.09-0.29,0.32
						l-0.04,0.21h0.58l-0.08,0.42H47.84z"/>
					<path class="st0" d="M49.06,28.49c-0.02,0.12-0.03,0.2-0.03,0.27c0,0.21,0.1,0.32,0.53,0.32c0.24,0,0.6-0.02,0.83-0.05
						l-0.07,0.39c-0.17,0.04-0.48,0.1-0.86,0.1c-0.66,0-0.94-0.29-0.94-0.8c0-0.11,0.02-0.24,0.04-0.37l0.04-0.19
						c0.14-0.74,0.56-1.02,1.18-1.02c0.64,0,0.87,0.36,0.87,0.83c0,0.1-0.01,0.21-0.04,0.37l-0.03,0.16H49.06z M50.11,28.11
						c0.01-0.06,0.02-0.12,0.02-0.19c0-0.2-0.08-0.36-0.42-0.36c-0.43,0-0.54,0.29-0.58,0.55l-0.01,0.03h0.98L50.11,28.11z"/>
					<path class="st0" d="M51.79,27.76l-0.22,1.26l0.2,0.02l-0.07,0.42h-0.93l0.07-0.42l0.2-0.02l0.24-1.38l-0.19-0.02l0.08-0.42
						h0.7l-0.03,0.19c0.25-0.19,0.54-0.24,0.82-0.24l-0.08,0.49C52.29,27.62,51.98,27.68,51.79,27.76z"/>
					<path class="st0" d="M53.15,28.49c-0.02,0.12-0.03,0.2-0.03,0.27c0,0.21,0.1,0.32,0.53,0.32c0.24,0,0.6-0.02,0.83-0.05
						l-0.07,0.39c-0.17,0.04-0.48,0.1-0.86,0.1c-0.66,0-0.94-0.29-0.94-0.8c0-0.11,0.02-0.24,0.04-0.37l0.04-0.19
						c0.14-0.74,0.56-1.02,1.18-1.02c0.64,0,0.87,0.36,0.87,0.83c0,0.1-0.01,0.21-0.04,0.37l-0.03,0.16H53.15z M54.2,28.11
						c0.01-0.06,0.02-0.12,0.02-0.19c0-0.2-0.08-0.36-0.42-0.36c-0.43,0-0.54,0.29-0.58,0.55l-0.01,0.03h0.98L54.2,28.11z"/>
					<path class="st0" d="M56.5,29.46l0.25-1.44c0.02-0.08,0.02-0.16,0.02-0.21c0-0.16-0.07-0.23-0.26-0.23
						c-0.15,0-0.37,0.06-0.62,0.15l-0.22,1.28l0.2,0.02l-0.07,0.42h-0.93l0.07-0.42l0.2-0.02l0.24-1.38l-0.19-0.02l0.08-0.42h0.71
						l-0.03,0.18c0.27-0.14,0.53-0.24,0.79-0.24c0.46,0,0.6,0.24,0.6,0.58c0,0.11-0.02,0.24-0.04,0.37l-0.17,0.94l0.2,0.02
						l-0.07,0.42H56.5z"/>
					<path class="st0" d="M58.35,29.52c-0.37,0-0.52-0.2-0.52-0.51c0-0.07,0.01-0.14,0.02-0.22l0.21-1.17l-0.41-0.03l0.07-0.39h0.42
						l0.1-0.56h0.53l-0.1,0.56h0.55l-0.08,0.42h-0.55l-0.21,1.2c-0.02,0.1-0.02,0.14-0.02,0.18c0,0.09,0.04,0.11,0.18,0.11
						c0.12,0,0.28-0.01,0.35-0.02l-0.06,0.36C58.76,29.47,58.55,29.52,58.35,29.52z"/>
					<path class="st0" d="M61.18,29.52c-0.17,0-0.36-0.02-0.47-0.05l-0.06,0.37l0.19,0.02l-0.08,0.42h-0.93l0.08-0.42l0.2-0.02
						l0.39-2.21l-0.19-0.02l0.08-0.42h0.7l-0.03,0.15c0.23-0.15,0.48-0.21,0.7-0.21c0.42,0,0.66,0.25,0.66,0.74
						c0,0.1-0.01,0.22-0.03,0.34l-0.06,0.32C62.19,29.32,61.74,29.52,61.18,29.52z M61.86,28.15c0.02-0.08,0.02-0.16,0.02-0.22
						c0-0.25-0.12-0.34-0.36-0.34c-0.15,0-0.28,0.03-0.51,0.12l-0.23,1.31c0.14,0.03,0.28,0.05,0.41,0.05c0.32,0,0.52-0.11,0.61-0.6
						L61.86,28.15z"/>
					<path class="st0" d="M63.29,28.49c-0.02,0.12-0.03,0.2-0.03,0.27c0,0.21,0.1,0.32,0.53,0.32c0.24,0,0.6-0.02,0.83-0.05
						l-0.07,0.39c-0.17,0.04-0.48,0.1-0.86,0.1c-0.66,0-0.94-0.29-0.94-0.8c0-0.11,0.02-0.24,0.04-0.37l0.04-0.19
						c0.14-0.74,0.56-1.02,1.18-1.02c0.64,0,0.87,0.36,0.87,0.83c0,0.1-0.01,0.21-0.04,0.37l-0.03,0.16H63.29z M64.34,28.11
						c0.01-0.06,0.02-0.12,0.02-0.19c0-0.2-0.08-0.36-0.42-0.36c-0.43,0-0.54,0.29-0.58,0.55l-0.01,0.03h0.98L64.34,28.11z"/>
					<path class="st0" d="M66.02,27.76l-0.22,1.26l0.2,0.02l-0.07,0.42h-0.93l0.07-0.42l0.2-0.02l0.24-1.38l-0.19-0.02l0.08-0.42
						h0.7l-0.03,0.19c0.25-0.19,0.54-0.24,0.82-0.24l-0.08,0.49C66.52,27.62,66.21,27.68,66.02,27.76z"/>
					<path class="st0" d="M67.64,29.11c0.24,0,0.44-0.04,0.44-0.3c0-0.11-0.08-0.16-0.35-0.28l-0.15-0.07
						c-0.34-0.15-0.52-0.35-0.52-0.66c0-0.56,0.51-0.66,1.03-0.66c0.28,0,0.62,0.05,0.72,0.09l-0.09,0.52h-0.37l-0.01-0.19
						c-0.1-0.01-0.25-0.01-0.33-0.01c-0.17,0-0.43,0-0.43,0.23c0,0.12,0.07,0.17,0.29,0.27l0.17,0.08c0.4,0.18,0.56,0.36,0.56,0.63
						c0,0.58-0.46,0.76-1.03,0.76c-0.34,0-0.68-0.06-0.78-0.09l0.1-0.56h0.37v0.23C67.39,29.1,67.5,29.11,67.64,29.11z"/>
					<path class="st0" d="M70.02,29.52c-0.17,0-0.36-0.02-0.47-0.05l-0.06,0.37l0.19,0.02l-0.08,0.42h-0.93l0.08-0.42l0.2-0.02
						l0.39-2.21l-0.19-0.02l0.08-0.42h0.7l-0.03,0.15c0.23-0.15,0.48-0.21,0.7-0.21c0.42,0,0.66,0.25,0.66,0.74
						c0,0.1-0.01,0.22-0.03,0.34l-0.06,0.32C71.03,29.32,70.58,29.52,70.02,29.52z M70.7,28.15c0.02-0.08,0.02-0.16,0.02-0.22
						c0-0.25-0.12-0.34-0.36-0.34c-0.15,0-0.28,0.03-0.51,0.12l-0.23,1.31c0.14,0.03,0.28,0.05,0.41,0.05c0.32,0,0.52-0.11,0.61-0.6
						L70.7,28.15z"/>
					<path class="st0" d="M72.13,28.49c-0.02,0.12-0.03,0.2-0.03,0.27c0,0.21,0.1,0.32,0.53,0.32c0.24,0,0.6-0.02,0.83-0.05
						l-0.07,0.39c-0.17,0.04-0.48,0.1-0.86,0.1c-0.66,0-0.94-0.29-0.94-0.8c0-0.11,0.02-0.24,0.04-0.37l0.04-0.19
						c0.14-0.74,0.56-1.02,1.18-1.02c0.64,0,0.87,0.36,0.87,0.83c0,0.1-0.01,0.21-0.04,0.37l-0.03,0.16H72.13z M73.18,28.11
						c0.01-0.06,0.02-0.12,0.02-0.19c0-0.2-0.08-0.36-0.42-0.36c-0.43,0-0.54,0.29-0.58,0.55l-0.01,0.03h0.98L73.18,28.11z"/>
					<path class="st0" d="M74.82,29.52c-0.54,0-0.79-0.31-0.79-0.8c0-0.1,0.01-0.21,0.03-0.33l0.05-0.29
						c0.12-0.69,0.47-0.97,1.12-0.97c0.33,0,0.6,0.05,0.69,0.08l-0.1,0.57h-0.36v-0.2c-0.07-0.01-0.17-0.01-0.22-0.01
						c-0.34,0-0.52,0.1-0.61,0.59l-0.05,0.29c-0.02,0.08-0.02,0.16-0.02,0.22c0,0.3,0.16,0.37,0.43,0.37c0.13,0,0.33-0.01,0.62-0.03
						l-0.07,0.4C75.42,29.47,75.16,29.52,74.82,29.52z"/>
					<path class="st0" d="M76.88,29.52c-0.37,0-0.52-0.2-0.52-0.51c0-0.07,0.01-0.14,0.02-0.22l0.21-1.17l-0.41-0.03l0.07-0.39h0.42
						l0.1-0.56h0.53l-0.1,0.56h0.55l-0.08,0.42h-0.55l-0.21,1.2c-0.02,0.1-0.02,0.14-0.02,0.18c0,0.09,0.04,0.11,0.18,0.11
						c0.12,0,0.28-0.01,0.35-0.02l-0.06,0.36C77.29,29.47,77.08,29.52,76.88,29.52z"/>
					<path class="st0" d="M77.73,29.46l0.07-0.42l0.2-0.02l0.24-1.38l-0.19-0.02l0.08-0.42h0.73l-0.32,1.82l0.19,0.02l-0.07,0.42
						H77.73z M78.37,26.84l0.09-0.51h0.55l-0.09,0.51H78.37z"/>
					<path class="st0" d="M81.25,27.64l-0.9,1.82h-0.74l-0.27-1.82l-0.19-0.03l0.08-0.42h0.61l0.14,1.29
						c0.02,0.21,0.04,0.42,0.05,0.62h0.01c0.08-0.19,0.17-0.4,0.27-0.62l0.6-1.29h0.63l-0.08,0.42L81.25,27.64z"/>
					<path class="st0" d="M82.07,28.49c-0.02,0.12-0.03,0.2-0.03,0.27c0,0.21,0.1,0.32,0.53,0.32c0.24,0,0.6-0.02,0.83-0.05
						l-0.07,0.39c-0.17,0.04-0.48,0.1-0.86,0.1c-0.66,0-0.94-0.29-0.94-0.8c0-0.11,0.02-0.24,0.04-0.37l0.04-0.19
						c0.14-0.74,0.56-1.02,1.18-1.02c0.64,0,0.87,0.36,0.87,0.83c0,0.1-0.01,0.21-0.04,0.37l-0.03,0.16H82.07z M83.12,28.11
						c0.01-0.06,0.02-0.12,0.02-0.19c0-0.2-0.08-0.36-0.42-0.36c-0.43,0-0.54,0.29-0.58,0.55l-0.01,0.03h0.98L83.12,28.11z"/>
				</g>
			</g>
			<g>
				<rect x="0.3" y="19.19" class="st0" width="5.16" height="5.16"/>
				<path class="st0" d="M86.27,0.01l-0.22,0.68c-0.86,2.64-1.83,5.51-2.76,8.28l-0.02,0.07c-0.51,1.51-1.07,3.18-1.63,4.86
					l-2.89-8.25h-3.98l-2.91,8.28L67.26,0.01h-5.42l1.47,4.44c-0.23-0.28-0.47-0.55-0.73-0.82c-2.34-2.31-5.41-3.59-8.66-3.59
					c-3.21,0-6.35,1.31-8.63,3.6c-1.19,1.21-2.1,2.62-2.7,4.13V0h-9.08c-2.52,0-4.65,0.89-6.16,2.56c-1.17,1.3-1.69,3.01-1.69,5.56
					c0,3.08,2.41,6.16,5.7,7.38l-6.51,7.84l-9.34-11.27L25.69,0.01h-6.57l-6.85,8.02V0.01H7.12v24.34h5.16v-8.14l6.65,8.14h5.09
					h1.66h5.1l6.65-8.13v8.13h5.16v-7.69c0.6,1.51,1.51,2.91,2.7,4.12c2.24,2.29,5.38,3.6,8.63,3.6c3.29,0,6.37-1.28,8.67-3.6
					c2.12-2.16,3.35-4.91,3.53-7.83l3.77,11.4h3.81l0.23-0.67c0.81-2.39,1.75-5.03,2.66-7.59l0.18-0.51l3.13,8.78h3.8l8.05-24.34
					H86.27z M37.43,10.41h-3.51c-1.96,0-2.37-1.41-2.37-2.59c0-1.61,0.89-2.57,2.37-2.57h3.51V10.41z M58.92,17.12
					c-1.34,1.33-3.16,2.09-5,2.09c-1.83,0-3.62-0.76-4.93-2.09c-1.33-1.31-2.07-3.07-2.07-4.94c0-1.87,0.74-3.62,2.08-4.95
					c1.29-1.32,3.09-2.07,4.92-2.07c1.84,0,3.66,0.76,4.99,2.07c1.32,1.34,2.05,3.1,2.05,4.95C60.96,14.04,60.24,15.79,58.92,17.12z
					"/>
			</g>
		</g>
	</g>
</g>
<g id="Capa_6">
</g>
<g id="Capa_5">
</g>
</svg>
