<?xml version="1.0" encoding="utf-8"?>
<!-- Generator: Adobe Illustrator 24.0.3, SVG Export Plug-In . SVG Version: 6.00 Build 0)  -->
<svg version="1.1" xmlns="http://www.w3.org/2000/svg" xmlns:xlink="http://www.w3.org/1999/xlink" x="0px" y="0px"
	 viewBox="0 0 104.98 55.67" style="enable-background:new 0 0 104.98 55.67;" xml:space="preserve">
<style type="text/css">
	.st0{fill:#FFFFFF;}
	.st1{fill:url(#SVGID_1_);}
	.st2{fill:#E7004C;}
	.st3{fill:none;stroke:#00B2E3;stroke-miterlimit:10;}
	.st4{fill:url(#SVGID_2_);}
	.st5{fill:#FCFCFC;}
	.st6{fill:url(#SVGID_3_);}
	.st7{fill:url(#SVGID_4_);}
	.st8{opacity:0.8;fill:#E7004C;}
	.st9{opacity:0.7;fill:#E7004C;}
	.st10{opacity:0.7;}
	.st11{fill:#00B2E3;}
	.st12{opacity:0.8;fill:#00B2E3;}
	.st13{opacity:0.7;fill:#00B2E3;}
	.st14{fill:#BBBBBB;}
	.st15{opacity:0.8;fill:#BBBBBB;}
	.st16{opacity:0.7;fill:#BBBBBB;}
	.st17{fill:url(#SVGID_5_);}
	.st18{fill:url(#SVGID_6_);}
	.st19{fill:none;stroke:#E7004C;stroke-width:2;stroke-miterlimit:10;}
	.st20{fill:url(#SVGID_7_);}
	.st21{fill:url(#SVGID_8_);}
	.st22{fill:url(#SVGID_9_);}
	.st23{fill:none;stroke:#FFFFFF;stroke-miterlimit:10;}
	.st24{fill:none;stroke:#E7004C;stroke-miterlimit:10;}
	.st25{fill-rule:evenodd;clip-rule:evenodd;fill:#E7004C;}
	.st26{fill:none;stroke:#000000;stroke-miterlimit:10;}
	.st27{fill:#38A8E0;}
	.st28{clip-path:url(#SVGID_11_);fill:#00B2E3;}
	.st29{fill:none;stroke:#E7004C;stroke-width:3;stroke-miterlimit:10;}
	.st30{clip-path:url(#SVGID_13_);}
	.st31{fill:none;stroke:#FFFFFF;stroke-width:2;stroke-miterlimit:10;}
	.st32{fill:none;stroke:#FFFFFF;stroke-width:3;stroke-miterlimit:10;}
	.st33{clip-path:url(#SVGID_15_);}
	.st34{fill:url(#SVGID_16_);}
	.st35{fill:none;stroke:#FFFFFF;stroke-width:0.5;stroke-miterlimit:10;}
	.st36{clip-path:url(#SVGID_18_);fill:#00B2E3;}
	.st37{clip-path:url(#SVGID_20_);}
	.st38{clip-path:url(#SVGID_22_);}
	.st39{fill:url(#SVGID_23_);}
	.st40{clip-path:url(#SVGID_25_);}
	.st41{fill:url(#SVGID_26_);}
	.st42{fill:url(#SVGID_27_);}
	.st43{fill:url(#SVGID_28_);}
	.st44{fill:url(#SVGID_29_);}
	.st45{clip-path:url(#SVGID_31_);fill:#00B2E3;}
	.st46{clip-path:url(#SVGID_33_);}
	.st47{clip-path:url(#SVGID_35_);}
	.st48{fill:url(#SVGID_36_);}
	.st49{clip-path:url(#SVGID_38_);}
	.st50{clip-path:url(#SVGID_40_);}
	.st51{fill:#280210;}
	.st52{opacity:0.5;}
	.st53{opacity:0.6;}
	.st54{fill:url(#SVGID_41_);}
	.st55{fill:url(#SVGID_42_);}
	.st56{fill:url(#SVGID_43_);}
	.st57{fill:url(#SVGID_44_);}
	.st58{opacity:0.8;}
	.st59{opacity:0.9;}
	.st60{fill:url(#SVGID_45_);}
	.st61{clip-path:url(#SVGID_47_);}
	.st62{clip-path:url(#SVGID_49_);}
	.st63{fill:url(#SVGID_50_);}
	.st64{clip-path:url(#SVGID_52_);}
	.st65{fill:url(#SVGID_53_);}
	.st66{clip-path:url(#SVGID_55_);}
	.st67{fill:url(#SVGID_56_);}
	.st68{clip-path:url(#SVGID_58_);}
	.st69{clip-path:url(#SVGID_60_);fill:#00B2E3;}
	.st70{clip-path:url(#SVGID_62_);}
	.st71{clip-path:url(#SVGID_64_);}
	.st72{fill:none;stroke:#FFFFFF;stroke-width:5;stroke-miterlimit:10;}
	.st73{clip-path:url(#SVGID_66_);fill:#00B2E3;}
	.st74{clip-path:url(#SVGID_68_);}
	.st75{clip-path:url(#SVGID_70_);}
	.st76{clip-path:url(#SVGID_72_);fill:#00B2E3;}
	.st77{clip-path:url(#SVGID_74_);}
	.st78{fill:#5B0323;}
	.st79{fill:url(#SVGID_75_);}
	.st80{fill:url(#SVGID_76_);}
	.st81{fill:url(#SVGID_77_);}
	.st82{clip-path:url(#SVGID_80_);fill:#00B2E3;}
	.st83{clip-path:url(#SVGID_84_);}
	.st84{clip-path:url(#SVGID_86_);}
	.st85{fill-rule:evenodd;clip-rule:evenodd;fill:#FFFFFF;}
	.st86{fill:#E5E5E5;}
	.st87{clip-path:url(#SVGID_88_);}
	.st88{fill-rule:evenodd;clip-rule:evenodd;fill:none;stroke:#E7004C;stroke-width:3;stroke-miterlimit:10;}
	.st89{fill:#070101;}
	.st90{fill:none;stroke:#068FFF;stroke-width:5;stroke-miterlimit:10;}
</style>
<g id="Capa_2">
</g>
<g id="Capa_1">
</g>
<g id="Capa_3">
</g>
<g id="Capa_4">
	<g>
		<g>
			<g>
				<path class="st0" d="M58.59,0.19L58.59,0.19c-3.1,0.58-6.06,1.71-8.22,3.02c1.04,1.9-1.3,2.23-1.03,3.54
					c0.2,0.95,1.37,1.05,1.99,1.13c2.03,0.25,4.36,0.03,5.92,1.34c1.64,1.38,0.65,3.26-1.72,4.95c-0.29,0.2-0.6,0.41-0.92,0.6
					c0.04,0.07,0.08,0.15,0.14,0.23c3.41,5.27,16.37,3.66,16.23-6.14C70.91,3.94,67.65-1.04,58.59,0.19z"/>
				<path class="st86" d="M55.64,11.24c-0.2-0.95-1.37-1.05-1.99-1.13c-2.03-0.25-4.36-0.03-5.92-1.34
					c-1.64-1.38-0.65-3.26,1.72-4.95c0.29-0.2,0.6-0.41,0.92-0.6c-0.04-0.07-0.08-0.15-0.14-0.23C46.82-2.28,33.86-0.68,34,9.12
					c0.07,4.93,3.34,9.91,12.39,8.68l0,0.01c3.1-0.59,6.06-1.72,8.22-3.03C53.57,12.88,55.91,12.55,55.64,11.24z"/>
			</g>
		</g>
		<g>
			<g>
				<path class="st0" d="M19.6,38.46c0.48,0.47,1.22,0.71,2.21,0.71c0.5,0,0.98-0.08,1.44-0.25c0.46-0.17,0.97-0.44,1.52-0.82
					l1.74,2.34c-0.6,0.5-1.31,0.92-2.15,1.25c-0.84,0.34-1.83,0.51-2.97,0.51c-0.96,0-1.82-0.14-2.58-0.41
					c-0.76-0.27-1.41-0.66-1.94-1.17c-0.53-0.51-0.94-1.12-1.22-1.85c-0.28-0.73-0.42-1.56-0.42-2.48c0-0.96,0.19-1.92,0.56-2.87
					c0.37-0.95,0.91-1.81,1.6-2.56c0.7-0.75,1.53-1.36,2.5-1.83c0.97-0.46,2.05-0.7,3.24-0.7c0.86,0,1.63,0.13,2.31,0.4
					c0.68,0.27,1.25,0.63,1.71,1.09c0.46,0.46,0.82,1.01,1.06,1.64c0.24,0.63,0.36,1.32,0.36,2.06c0,0.48-0.06,0.98-0.17,1.49
					c-0.12,0.51-0.28,1.03-0.5,1.54h-9.12C18.85,37.35,19.12,37.99,19.6,38.46z M24.9,34.2c0.08-0.28,0.12-0.57,0.12-0.87
					c0-0.55-0.17-1.01-0.51-1.39c-0.34-0.38-0.9-0.57-1.68-0.57c-0.86,0-1.62,0.26-2.27,0.78c-0.65,0.52-1.14,1.2-1.45,2.05H24.9z"
					/>
				<path class="st0" d="M32.4,28.33h3.78l-0.47,1.69c0.58-0.53,1.16-0.94,1.75-1.24c0.59-0.3,1.25-0.45,2-0.45
					c0.73,0,1.4,0.13,2.02,0.39c0.62,0.26,1.16,0.63,1.63,1.12c0.46,0.49,0.82,1.09,1.08,1.8c0.26,0.71,0.39,1.52,0.39,2.41
					c0,1.18-0.21,2.26-0.62,3.25c-0.41,0.99-0.96,1.85-1.65,2.57c-0.69,0.72-1.47,1.28-2.35,1.68c-0.88,0.4-1.79,0.6-2.73,0.6
					c-1.04,0-1.89-0.2-2.55-0.6c-0.65-0.4-1.2-0.93-1.63-1.6l-1.68,6.33H27.6L32.4,28.33z M38.21,38.6
					c0.47-0.23,0.89-0.56,1.25-0.98c0.36-0.42,0.66-0.91,0.88-1.47c0.22-0.56,0.34-1.18,0.34-1.86c0-0.87-0.25-1.56-0.76-2.04
					c-0.51-0.49-1.18-0.73-2.02-0.73c-0.53,0-1.04,0.12-1.52,0.36c-0.48,0.24-0.91,0.57-1.28,0.99c-0.37,0.42-0.67,0.91-0.89,1.47
					c-0.22,0.56-0.34,1.16-0.34,1.78c0,0.84,0.26,1.52,0.79,2.04c0.53,0.52,1.22,0.78,2.06,0.78C37.25,38.94,37.74,38.83,38.21,38.6
					z"/>
				<path class="st0" d="M50.22,24.26H54l-1.52,5.7c0.48-0.43,1.02-0.81,1.61-1.13c0.6-0.33,1.27-0.49,2.01-0.49
					c1.19,0,2.14,0.34,2.86,1.03c0.71,0.69,1.07,1.64,1.07,2.84c0,0.38-0.05,0.79-0.14,1.23c-0.09,0.44-0.19,0.87-0.31,1.3
					l-1.99,7.45h-3.78l1.96-7.32c0.05-0.18,0.09-0.39,0.12-0.61c0.03-0.22,0.05-0.42,0.05-0.59c0-0.53-0.16-0.94-0.48-1.22
					c-0.32-0.28-0.77-0.42-1.35-0.42c-0.75,0-1.36,0.24-1.84,0.73c-0.48,0.49-0.83,1.13-1.04,1.93l-2.01,7.5h-3.78L50.22,24.26z"/>
				<path class="st0" d="M64.59,28.33h3.78l-0.44,1.63c0.48-0.43,1.02-0.81,1.61-1.13c0.6-0.33,1.27-0.49,2.01-0.49
					c1.19,0,2.14,0.34,2.86,1.03c0.71,0.69,1.07,1.64,1.07,2.84c0,0.38-0.05,0.79-0.14,1.23c-0.09,0.44-0.19,0.87-0.31,1.3
					l-1.99,7.45h-3.78l1.96-7.32c0.05-0.18,0.09-0.39,0.12-0.61c0.03-0.22,0.05-0.42,0.05-0.59c0-0.53-0.16-0.94-0.48-1.22
					c-0.32-0.28-0.77-0.42-1.35-0.42c-0.75,0-1.36,0.24-1.84,0.73c-0.48,0.49-0.83,1.13-1.04,1.93l-2.01,7.5h-3.78L64.59,28.33z"/>
				<path class="st0" d="M81.27,41.74c-0.79-0.31-1.46-0.73-2.01-1.28c-0.56-0.55-0.98-1.2-1.28-1.95c-0.3-0.75-0.45-1.58-0.45-2.47
					c0-0.99,0.2-1.95,0.6-2.88c0.4-0.93,0.94-1.75,1.64-2.46c0.7-0.71,1.51-1.28,2.45-1.71c0.94-0.43,1.94-0.65,3.02-0.65
					c0.99,0,1.88,0.15,2.67,0.46c0.79,0.31,1.46,0.73,2.01,1.28c0.55,0.55,0.98,1.2,1.28,1.95c0.3,0.75,0.45,1.58,0.45,2.47
					c0,0.99-0.2,1.95-0.61,2.88c-0.41,0.93-0.96,1.75-1.65,2.46c-0.7,0.71-1.51,1.28-2.45,1.71C86,41.98,85,42.2,83.94,42.2
					C82.95,42.2,82.06,42.04,81.27,41.74z M85.69,38.57c0.47-0.28,0.87-0.64,1.2-1.06c0.33-0.43,0.59-0.9,0.77-1.41
					c0.18-0.52,0.27-1.02,0.27-1.5c0-0.98-0.27-1.74-0.79-2.26c-0.53-0.53-1.23-0.79-2.09-0.79c-0.58,0-1.11,0.14-1.58,0.43
					c-0.47,0.28-0.87,0.64-1.2,1.06c-0.33,0.43-0.59,0.9-0.77,1.43c-0.18,0.53-0.27,1.02-0.27,1.49c0,0.98,0.26,1.74,0.79,2.26
					c0.53,0.53,1.23,0.79,2.09,0.79C84.69,38.99,85.22,38.85,85.69,38.57z"/>
			</g>
			<path class="st0" d="M11.91,33.43c-0.37-0.36-0.81-0.69-1.32-0.97c-0.51-0.28-1.06-0.55-1.65-0.79c-0.6-0.25-1.09-0.46-1.48-0.65
				c-0.39-0.18-0.7-0.36-0.93-0.52c-0.23-0.17-0.4-0.34-0.5-0.51c-0.1-0.17-0.15-0.38-0.15-0.61c0-0.43,0.22-0.83,0.66-1.2
				c0.44-0.37,1.06-0.56,1.88-0.56c0.84,0,1.59,0.16,2.22,0.47c0.64,0.31,1.29,0.78,1.95,1.39l2.63-2.63
				c-0.75-0.8-1.64-1.42-2.68-1.89c-1.04-0.46-2.32-0.7-3.83-0.7c-0.93,0-1.81,0.13-2.65,0.4c-0.84,0.27-1.57,0.65-2.2,1.14
				c-0.63,0.5-1.13,1.1-1.5,1.8C2,28.31,1.82,29.1,1.82,30c0,0.65,0.12,1.21,0.35,1.69c0.23,0.48,0.55,0.91,0.94,1.28
				c0.4,0.37,0.85,0.7,1.37,0.97c0.51,0.27,1.05,0.53,1.61,0.76c0.58,0.23,1.06,0.44,1.44,0.63c0.38,0.19,0.68,0.37,0.91,0.55
				c0.22,0.17,0.38,0.35,0.47,0.52c0.09,0.17,0.14,0.37,0.14,0.58c0,0.55-0.25,0.99-0.75,1.32c-0.5,0.33-1.13,0.5-1.91,0.5
				c-0.99,0-1.88-0.19-2.66-0.58C3.31,38,2.9,37.73,2.5,37.42c-0.61,1.19-1.48,2.15-2.5,2.9c1.57,1.22,3.64,1.84,6.21,1.84
				c0.91,0,1.78-0.13,2.62-0.39c0.84-0.26,1.57-0.63,2.2-1.13c0.63-0.5,1.13-1.11,1.52-1.83c0.38-0.72,0.57-1.54,0.57-2.45
				c0-0.63-0.11-1.18-0.32-1.66C12.58,34.21,12.29,33.79,11.91,33.43z"/>
			<path class="st0" d="M102.25,35.12c-0.35-0.3-0.74-0.55-1.18-0.77c-0.44-0.22-0.87-0.42-1.3-0.62c-0.56-0.25-1-0.48-1.3-0.68
				C98.15,32.83,98,32.6,98,32.33c0-0.35,0.13-0.62,0.39-0.82c0.26-0.2,0.62-0.3,1.08-0.3c0.55,0,1.1,0.11,1.66,0.32
				c0.56,0.22,1.17,0.58,1.81,1.09l2.04-2.39c-0.28-0.25-0.61-0.48-0.98-0.71c-0.37-0.22-0.79-0.43-1.24-0.61
				c-0.46-0.18-0.94-0.33-1.44-0.43c-0.51-0.11-1.03-0.16-1.58-0.16c-0.83,0-1.57,0.12-2.24,0.36c-0.66,0.24-1.22,0.57-1.68,0.98
				c-0.46,0.41-0.81,0.91-1.06,1.48c-0.25,0.57-0.37,1.19-0.37,1.85c0,0.53,0.1,0.99,0.31,1.38c0.21,0.39,0.49,0.73,0.84,1.03
				c0.36,0.3,0.77,0.57,1.23,0.81c0.46,0.24,0.96,0.47,1.49,0.68c0.46,0.2,0.84,0.39,1.12,0.58c0.28,0.19,0.42,0.41,0.42,0.66
				c0,0.38-0.14,0.67-0.42,0.87c-0.28,0.2-0.67,0.3-1.17,0.3c-0.6,0-1.25-0.12-1.96-0.37c-0.67-0.23-1.34-0.67-1.99-1.3
				c-0.39,0.82-0.9,1.55-1.53,2.2c-0.12,0.12-0.24,0.23-0.36,0.34c0.28,0.25,0.58,0.48,0.9,0.68c0.48,0.3,0.98,0.55,1.5,0.75
				c0.52,0.2,1.06,0.35,1.6,0.45c0.55,0.1,1.07,0.15,1.57,0.15c0.8,0,1.53-0.11,2.2-0.32c0.67-0.22,1.25-0.53,1.73-0.93
				c0.48-0.41,0.86-0.9,1.13-1.48c0.27-0.58,0.41-1.23,0.41-1.96c0-0.51-0.11-0.96-0.32-1.35
				C102.88,35.76,102.59,35.41,102.25,35.12z"/>
		</g>
		<g>
			<path class="st0" d="M13.86,49.21c0-0.13,0.1-0.24,0.24-0.24c0.13,0,0.24,0.1,0.24,0.23c0,0.13-0.1,0.24-0.24,0.24
				C13.96,49.44,13.86,49.33,13.86,49.21z M13.95,50.17h0.29v3.01h-0.29V50.17z"/>
			<path class="st0" d="M19.31,51.42v1.76h-0.29v-1.74c0-0.68-0.36-1.04-0.98-1.04c-0.71,0-1.14,0.46-1.14,1.17v1.6h-0.29v-3.01
				h0.28v0.65c0.2-0.42,0.62-0.68,1.19-0.68C18.82,50.15,19.31,50.58,19.31,51.42z"/>
			<path class="st0" d="M24.01,50.17l-1.36,3.01h-0.29L21,50.17h0.31l1.2,2.7l1.21-2.7H24.01z"/>
			<path class="st0" d="M28.25,51.75h-2.59c0.03,0.72,0.55,1.2,1.28,1.2c0.38,0,0.73-0.14,0.96-0.42l0.17,0.19
				c-0.27,0.32-0.68,0.49-1.14,0.49c-0.91,0-1.55-0.64-1.55-1.53c0-0.89,0.62-1.53,1.44-1.53s1.44,0.62,1.44,1.52
				C28.26,51.69,28.25,51.72,28.25,51.75z M25.67,51.52h2.31c-0.04-0.65-0.51-1.12-1.15-1.12S25.71,50.86,25.67,51.52z"/>
			<path class="st0" d="M33.01,51.42v1.76h-0.29v-1.74c0-0.68-0.36-1.04-0.98-1.04c-0.71,0-1.14,0.46-1.14,1.17v1.6h-0.29v-3.01
				h0.28v0.65c0.2-0.42,0.62-0.68,1.19-0.68C32.51,50.15,33.01,50.58,33.01,51.42z"/>
			<path class="st0" d="M36.84,52.99c-0.15,0.14-0.39,0.21-0.62,0.21c-0.53,0-0.82-0.31-0.82-0.82v-1.97h-0.55v-0.25h0.55v-0.66
				h0.29v0.66h0.96v0.25h-0.96v1.94c0,0.39,0.19,0.6,0.56,0.6c0.18,0,0.35-0.06,0.47-0.17L36.84,52.99z"/>
			<path class="st0" d="M40.98,51.27v1.91H40.7v-0.54c-0.19,0.35-0.56,0.56-1.09,0.56c-0.68,0-1.09-0.35-1.09-0.86
				c0-0.46,0.29-0.84,1.13-0.84h1.03v-0.24c0-0.56-0.31-0.86-0.89-0.86c-0.42,0-0.79,0.16-1.04,0.38l-0.14-0.21
				c0.3-0.27,0.74-0.43,1.21-0.43C40.56,50.15,40.98,50.53,40.98,51.27z M40.69,52.29v-0.57h-1.03c-0.62,0-0.84,0.26-0.84,0.61
				c0,0.39,0.31,0.64,0.84,0.64C40.16,52.97,40.52,52.73,40.69,52.29z"/>
			<path class="st0" d="M44.75,50.15v0.28c-0.02,0-0.05-0.01-0.07-0.01c-0.67,0-1.07,0.44-1.07,1.19v1.57h-0.29v-3.01h0.28v0.66
				C43.78,50.39,44.18,50.15,44.75,50.15z"/>
			<path class="st0" d="M52.39,51.68c0,0.91-0.64,1.53-1.49,1.53c-0.53,0-0.98-0.26-1.22-0.71v1.81h-0.29v-4.13h0.28v0.71
				c0.24-0.46,0.69-0.73,1.24-0.73C51.75,50.15,52.39,50.78,52.39,51.68z M52.1,51.68c0-0.76-0.53-1.27-1.22-1.27
				c-0.69,0-1.21,0.51-1.21,1.27s0.52,1.27,1.21,1.27C51.58,52.95,52.1,52.43,52.1,51.68z"/>
			<path class="st0" d="M56.6,51.27v1.91h-0.28v-0.54c-0.19,0.35-0.56,0.56-1.09,0.56c-0.68,0-1.09-0.35-1.09-0.86
				c0-0.46,0.29-0.84,1.13-0.84h1.03v-0.24c0-0.56-0.31-0.86-0.89-0.86c-0.42,0-0.79,0.16-1.04,0.38l-0.14-0.21
				c0.3-0.27,0.74-0.43,1.21-0.43C56.19,50.15,56.6,50.53,56.6,51.27z M56.31,52.29v-0.57h-1.03c-0.62,0-0.84,0.26-0.84,0.61
				c0,0.39,0.31,0.64,0.84,0.64C55.79,52.97,56.14,52.73,56.31,52.29z"/>
			<path class="st0" d="M60.37,50.15v0.28c-0.02,0-0.05-0.01-0.07-0.01c-0.67,0-1.07,0.44-1.07,1.19v1.57h-0.29v-3.01h0.28v0.66
				C59.41,50.39,59.81,50.15,60.37,50.15z"/>
			<path class="st0" d="M64.5,51.27v1.91h-0.28v-0.54c-0.19,0.35-0.56,0.56-1.09,0.56c-0.68,0-1.09-0.35-1.09-0.86
				c0-0.46,0.29-0.84,1.13-0.84h1.03v-0.24c0-0.56-0.31-0.86-0.89-0.86c-0.42,0-0.79,0.16-1.04,0.38l-0.14-0.21
				c0.3-0.27,0.74-0.43,1.21-0.43C64.08,50.15,64.5,50.53,64.5,51.27z M64.21,52.29v-0.57h-1.03c-0.62,0-0.84,0.26-0.84,0.61
				c0,0.39,0.31,0.64,0.84,0.64C63.69,52.97,64.04,52.73,64.21,52.29z"/>
			<path class="st0" d="M69.15,51.68c0-0.9,0.64-1.53,1.52-1.53c0.48,0,0.89,0.18,1.14,0.55l-0.21,0.16
				c-0.22-0.31-0.55-0.45-0.93-0.45c-0.71,0-1.23,0.51-1.23,1.27c0,0.76,0.52,1.27,1.23,1.27c0.38,0,0.71-0.14,0.93-0.45l0.21,0.16
				c-0.25,0.36-0.66,0.55-1.14,0.55C69.79,53.21,69.15,52.57,69.15,51.68z"/>
			<path class="st0" d="M75.27,50.15v0.28c-0.02,0-0.05-0.01-0.07-0.01c-0.67,0-1.07,0.44-1.07,1.19v1.57h-0.29v-3.01h0.28v0.66
				C74.3,50.39,74.7,50.15,75.27,50.15z"/>
			<path class="st0" d="M79.73,51.75h-2.59c0.03,0.72,0.55,1.2,1.28,1.2c0.38,0,0.73-0.14,0.96-0.42l0.17,0.19
				c-0.27,0.32-0.68,0.49-1.14,0.49c-0.91,0-1.55-0.64-1.55-1.53c0-0.89,0.62-1.53,1.44-1.53s1.44,0.62,1.44,1.52
				C79.74,51.69,79.73,51.72,79.73,51.75z M77.15,51.52h2.31c-0.04-0.65-0.51-1.12-1.15-1.12C77.66,50.4,77.19,50.86,77.15,51.52z"
				/>
			<path class="st0" d="M81.46,51.68c0-0.9,0.64-1.53,1.52-1.53c0.48,0,0.89,0.18,1.14,0.55l-0.21,0.16
				c-0.22-0.31-0.55-0.45-0.93-0.45c-0.71,0-1.23,0.51-1.23,1.27c0,0.76,0.52,1.27,1.23,1.27c0.38,0,0.71-0.14,0.93-0.45l0.21,0.16
				c-0.25,0.36-0.66,0.55-1.14,0.55C82.1,53.21,81.46,52.57,81.46,51.68z"/>
			<path class="st0" d="M88.64,51.75h-2.59c0.03,0.72,0.55,1.2,1.28,1.2c0.38,0,0.73-0.14,0.96-0.42l0.17,0.19
				c-0.27,0.32-0.68,0.49-1.14,0.49c-0.91,0-1.55-0.64-1.55-1.53c0-0.89,0.62-1.53,1.44-1.53s1.44,0.62,1.44,1.52
				C88.65,51.69,88.64,51.72,88.64,51.75z M86.05,51.52h2.31c-0.04-0.65-0.51-1.12-1.15-1.12C86.57,50.4,86.1,50.86,86.05,51.52z"/>
			<path class="st0" d="M92.12,50.15v0.28c-0.02,0-0.05-0.01-0.07-0.01c-0.67,0-1.07,0.44-1.07,1.19v1.57H90.7v-3.01h0.28v0.66
				C91.16,50.39,91.56,50.15,92.12,50.15z"/>
		</g>
	</g>
</g>
<g id="Capa_6">
</g>
<g id="Capa_5">
</g>
</svg>
