<?xml version="1.0" encoding="utf-8"?>
<!-- Generator: Adobe Illustrator 24.0.3, SVG Export Plug-In . SVG Version: 6.00 Build 0)  -->
<svg version="1.1" xmlns="http://www.w3.org/2000/svg" xmlns:xlink="http://www.w3.org/1999/xlink" x="0px" y="0px"
	 viewBox="0 0 97.45 17.01" style="enable-background:new 0 0 97.45 17.01;" xml:space="preserve">
<style type="text/css">
	.st0{fill:#FFFFFF;}
	.st1{fill:url(#SVGID_1_);}
	.st2{fill:#E7004C;}
	.st3{fill:none;stroke:#00B2E3;stroke-miterlimit:10;}
	.st4{fill:url(#SVGID_2_);}
	.st5{fill:#FCFCFC;}
	.st6{fill:url(#SVGID_3_);}
	.st7{fill:url(#SVGID_4_);}
	.st8{opacity:0.8;fill:#E7004C;}
	.st9{opacity:0.7;fill:#E7004C;}
	.st10{opacity:0.7;}
	.st11{fill:#00B2E3;}
	.st12{opacity:0.8;fill:#00B2E3;}
	.st13{opacity:0.7;fill:#00B2E3;}
	.st14{fill:#BBBBBB;}
	.st15{opacity:0.8;fill:#BBBBBB;}
	.st16{opacity:0.7;fill:#BBBBBB;}
	.st17{fill:url(#SVGID_5_);}
	.st18{fill:url(#SVGID_6_);}
	.st19{fill:none;stroke:#E7004C;stroke-width:2;stroke-miterlimit:10;}
	.st20{fill:url(#SVGID_7_);}
	.st21{fill:url(#SVGID_8_);}
	.st22{fill:url(#SVGID_9_);}
	.st23{fill:none;stroke:#FFFFFF;stroke-miterlimit:10;}
	.st24{fill:none;stroke:#E7004C;stroke-miterlimit:10;}
	.st25{fill-rule:evenodd;clip-rule:evenodd;fill:#E7004C;}
	.st26{fill:none;stroke:#000000;stroke-miterlimit:10;}
	.st27{fill:#38A8E0;}
	.st28{clip-path:url(#SVGID_11_);fill:#00B2E3;}
	.st29{fill:none;stroke:#E7004C;stroke-width:3;stroke-miterlimit:10;}
	.st30{clip-path:url(#SVGID_13_);}
	.st31{fill:none;stroke:#FFFFFF;stroke-width:2;stroke-miterlimit:10;}
	.st32{fill:none;stroke:#FFFFFF;stroke-width:3;stroke-miterlimit:10;}
	.st33{clip-path:url(#SVGID_15_);}
	.st34{fill:url(#SVGID_16_);}
	.st35{fill:none;stroke:#FFFFFF;stroke-width:0.5;stroke-miterlimit:10;}
	.st36{clip-path:url(#SVGID_18_);fill:#00B2E3;}
	.st37{clip-path:url(#SVGID_20_);}
	.st38{clip-path:url(#SVGID_22_);}
	.st39{fill:url(#SVGID_23_);}
	.st40{clip-path:url(#SVGID_25_);}
	.st41{fill:url(#SVGID_26_);}
	.st42{fill:url(#SVGID_27_);}
	.st43{fill:url(#SVGID_28_);}
	.st44{fill:url(#SVGID_29_);}
	.st45{clip-path:url(#SVGID_31_);fill:#00B2E3;}
	.st46{clip-path:url(#SVGID_33_);}
	.st47{clip-path:url(#SVGID_35_);}
	.st48{fill:url(#SVGID_36_);}
	.st49{clip-path:url(#SVGID_38_);}
	.st50{clip-path:url(#SVGID_40_);}
	.st51{fill:#280210;}
	.st52{opacity:0.5;}
	.st53{opacity:0.6;}
	.st54{fill:url(#SVGID_41_);}
	.st55{fill:url(#SVGID_42_);}
	.st56{fill:url(#SVGID_43_);}
	.st57{fill:url(#SVGID_44_);}
	.st58{opacity:0.8;}
	.st59{opacity:0.9;}
	.st60{fill:url(#SVGID_45_);}
	.st61{clip-path:url(#SVGID_47_);}
	.st62{clip-path:url(#SVGID_49_);}
	.st63{fill:url(#SVGID_50_);}
	.st64{clip-path:url(#SVGID_52_);}
	.st65{fill:url(#SVGID_53_);}
	.st66{clip-path:url(#SVGID_55_);}
	.st67{fill:url(#SVGID_56_);}
	.st68{clip-path:url(#SVGID_58_);}
	.st69{clip-path:url(#SVGID_60_);fill:#00B2E3;}
	.st70{clip-path:url(#SVGID_62_);}
	.st71{clip-path:url(#SVGID_64_);}
	.st72{fill:none;stroke:#FFFFFF;stroke-width:5;stroke-miterlimit:10;}
	.st73{clip-path:url(#SVGID_66_);fill:#00B2E3;}
	.st74{clip-path:url(#SVGID_68_);}
	.st75{clip-path:url(#SVGID_70_);}
	.st76{clip-path:url(#SVGID_72_);fill:#00B2E3;}
	.st77{clip-path:url(#SVGID_74_);}
	.st78{fill:#5B0323;}
	.st79{fill:url(#SVGID_75_);}
	.st80{fill:url(#SVGID_76_);}
	.st81{fill:url(#SVGID_77_);}
	.st82{clip-path:url(#SVGID_80_);fill:#00B2E3;}
	.st83{clip-path:url(#SVGID_84_);}
	.st84{clip-path:url(#SVGID_86_);}
	.st85{fill-rule:evenodd;clip-rule:evenodd;fill:#FFFFFF;}
	.st86{fill:#E5E5E5;}
	.st87{clip-path:url(#SVGID_88_);}
	.st88{fill-rule:evenodd;clip-rule:evenodd;fill:none;stroke:#E7004C;stroke-width:3;stroke-miterlimit:10;}
	.st89{fill:#070101;}
	.st90{fill:none;stroke:#068FFF;stroke-width:5;stroke-miterlimit:10;}
</style>
<g id="Capa_2">
</g>
<g id="Capa_1">
</g>
<g id="Capa_3">
</g>
<g id="Capa_4">
	<g>
		<path class="st0" d="M12.36,5.25c0.33-0.64,0.58-1.2,0.88-1.72c1.98-3.39,6.9-3.1,8.83-0.9c1.55,1.77,2.01,6.45-1.03,8.21
			c-1,0.58-2.06,1.07-3.09,1.59c-0.57,0.29-1.16,0.52-1.72,0.83c-1.54,0.83-2.96,1.8-3.84,3.47C11,14.34,8.7,13.28,6.37,12.24
			c-0.98-0.44-1.93-0.94-2.84-1.51C1.32,9.35,1.11,6.5,1.74,4.36c0.61-2.07,2.52-3.33,4.82-3.39C9.17,0.91,10.93,2.11,12,4.44
			C12.11,4.68,12.21,4.92,12.36,5.25z"/>
		<path class="st0" d="M40.21,3.92c-1.43-0.48-2.78-0.72-4.18-0.46c-1.73,0.32-2.97,1.25-3.61,2.91c-0.92,2.36-0.31,5.25,1.42,6.58
			c1.41,1.09,3.04,1.14,4.71,0.91c0.52-0.07,1.03-0.22,1.65-0.35c0.17,0.85,0.35,1.72,0.49,2.59c0.02,0.09-0.19,0.29-0.32,0.33
			c-3.23,0.83-6.4,0.94-9.27-1.1c-1.73-1.23-2.58-3.03-2.8-5.1c-0.35-3.19,0.36-6.05,3.04-8.11c1.94-1.49,4.21-1.91,6.6-1.71
			c0.87,0.07,1.72,0.3,2.58,0.49c0.15,0.03,0.37,0.3,0.34,0.42C40.68,2.18,40.44,3.02,40.21,3.92z"/>
		<path class="st0" d="M48.17,4.8c-3.8,0.01-6.21,2.43-6.2,6.24c0.01,3.55,2.5,6.01,6.04,5.98c3.72-0.04,6.13-2.51,6.13-6.28
			C54.13,7.18,51.73,4.79,48.17,4.8z M49.85,13.28c-0.8,1.52-2.72,1.55-3.55,0.05c-0.89-1.63-0.88-3.35,0.03-4.97
			c0.79-1.39,2.69-1.39,3.44,0.01c0.42,0.76,0.54,1.68,0.8,2.52C50.32,11.75,50.21,12.58,49.85,13.28z"/>
		<path class="st0" d="M91.47,4.8c-3.76,0-6.19,2.39-6.19,6.09c-0.01,3.69,2.42,6.15,6.02,6.12c3.69-0.03,6.11-2.49,6.12-6.2
			C97.41,7.16,95.06,4.79,91.47,4.8z M93.08,13.35c-0.75,1.39-2.51,1.42-3.42,0.13c-0.91-1.28-0.91-3.91-0.01-5.2
			c0.91-1.29,2.7-1.27,3.42,0.12c0.4,0.75,0.54,1.64,0.81,2.51C93.61,11.76,93.47,12.62,93.08,13.35z"/>
		<path class="st0" d="M67.23,7.72c-0.56,0-1.03,0-1.53,0c0-0.9,0-1.73,0-2.62c0.49,0,0.96,0,1.53,0c0-0.72,0.02-1.37-0.01-2.02
			c-0.01-0.38,0.07-0.59,0.5-0.67c0.98-0.19,1.96-0.44,3.03-0.68c0,1.16,0,2.22,0,3.35c0.88,0,1.68,0,2.58,0
			c0,0.82,0.02,1.58-0.02,2.34c-0.01,0.11-0.29,0.29-0.45,0.3c-0.67,0.03-1.35,0.01-2.02,0.01c0,1.8-0.05,3.52,0.02,5.24
			c0.03,0.73,0.52,1.04,1.27,1.07c0.34,0.01,0.69-0.03,1.13-0.05c0,0.82,0.02,1.6-0.02,2.38c-0.01,0.15-0.24,0.4-0.38,0.4
			c-0.98,0.06-1.98,0.22-2.94,0.07c-1.75-0.27-2.63-1.52-2.69-3.6c-0.04-1.56-0.01-3.11-0.01-4.67C67.23,8.32,67.23,8.08,67.23,7.72
			z"/>
		<path class="st0" d="M56.29,13.75c1.06,0.25,2.02,0.55,3.01,0.68c0.97,0.13,1.56-0.21,1.7-0.77c0.14-0.59-0.19-0.94-1.23-1.37
			c-0.71-0.29-1.44-0.55-2.1-0.93c-2.51-1.45-1.99-4.59-0.02-5.75c1.95-1.15,3.99-0.99,6.03-0.27c0.12,0.04,0.25,0.3,0.23,0.43
			c-0.15,0.7-0.34,1.4-0.52,2.11c-0.58-0.17-1.09-0.37-1.62-0.47c-0.45-0.09-0.94-0.17-1.36-0.05c-0.36,0.1-0.77,0.44-0.92,0.77
			c-0.2,0.45,0.21,0.76,0.61,0.95c0.37,0.18,0.77,0.32,1.15,0.49c0.48,0.21,0.98,0.39,1.44,0.64c1.29,0.69,1.88,1.78,1.8,3.24
			c-0.07,1.4-0.79,2.34-2.01,2.93c-1.42,0.69-2.94,0.66-4.45,0.48c-0.65-0.08-1.28-0.29-1.9-0.5c-0.16-0.05-0.36-0.35-0.33-0.5
			C55.92,15.12,56.13,14.4,56.29,13.75z"/>
		<path class="st0" d="M83.66,13.83c0.13,0.79,0.27,1.5,0.35,2.22c0.02,0.16-0.15,0.48-0.29,0.51c-1.93,0.5-3.86,0.64-5.74-0.16
			c-2.32-0.98-3.47-3.13-3.27-5.97c0.2-2.77,1.98-4.86,4.72-5.45c1.54-0.33,3.09-0.29,4.68,0.25c-0.19,0.87-0.36,1.72-0.55,2.61
			c-1.82-0.42-3.62-0.67-4.72,1.22c-0.72,1.24-0.7,2.63,0.15,3.8C80.18,14.53,81.89,14.27,83.66,13.83z"/>
	</g>
</g>
<g id="Capa_6">
</g>
<g id="Capa_5">
</g>
</svg>
