<?xml version="1.0" encoding="utf-8"?>
<!-- Generator: Adobe Illustrator 24.0.3, SVG Export Plug-In . SVG Version: 6.00 Build 0)  -->
<svg version="1.1" xmlns="http://www.w3.org/2000/svg" xmlns:xlink="http://www.w3.org/1999/xlink" x="0px" y="0px"
	 viewBox="0 0 110.72 14.5" style="enable-background:new 0 0 110.72 14.5;" xml:space="preserve">
<style type="text/css">
	.st0{fill:#FFFFFF;}
	.st1{fill:url(#SVGID_1_);}
	.st2{fill:#E7004C;}
	.st3{fill:none;stroke:#00B2E3;stroke-miterlimit:10;}
	.st4{fill:url(#SVGID_2_);}
	.st5{fill:#FCFCFC;}
	.st6{fill:url(#SVGID_3_);}
	.st7{fill:url(#SVGID_4_);}
	.st8{opacity:0.8;fill:#E7004C;}
	.st9{opacity:0.7;fill:#E7004C;}
	.st10{opacity:0.7;}
	.st11{fill:#00B2E3;}
	.st12{opacity:0.8;fill:#00B2E3;}
	.st13{opacity:0.7;fill:#00B2E3;}
	.st14{fill:#BBBBBB;}
	.st15{opacity:0.8;fill:#BBBBBB;}
	.st16{opacity:0.7;fill:#BBBBBB;}
	.st17{fill:url(#SVGID_5_);}
	.st18{fill:url(#SVGID_6_);}
	.st19{fill:none;stroke:#E7004C;stroke-width:2;stroke-miterlimit:10;}
	.st20{fill:url(#SVGID_7_);}
	.st21{fill:url(#SVGID_8_);}
	.st22{fill:url(#SVGID_9_);}
	.st23{fill:none;stroke:#FFFFFF;stroke-miterlimit:10;}
	.st24{fill:none;stroke:#E7004C;stroke-miterlimit:10;}
	.st25{fill-rule:evenodd;clip-rule:evenodd;fill:#E7004C;}
	.st26{fill:none;stroke:#000000;stroke-miterlimit:10;}
	.st27{fill:#38A8E0;}
	.st28{clip-path:url(#SVGID_11_);fill:#00B2E3;}
	.st29{fill:none;stroke:#E7004C;stroke-width:3;stroke-miterlimit:10;}
	.st30{clip-path:url(#SVGID_13_);}
	.st31{fill:none;stroke:#FFFFFF;stroke-width:2;stroke-miterlimit:10;}
	.st32{fill:none;stroke:#FFFFFF;stroke-width:3;stroke-miterlimit:10;}
	.st33{clip-path:url(#SVGID_15_);}
	.st34{fill:url(#SVGID_16_);}
	.st35{fill:none;stroke:#FFFFFF;stroke-width:0.5;stroke-miterlimit:10;}
	.st36{clip-path:url(#SVGID_18_);fill:#00B2E3;}
	.st37{clip-path:url(#SVGID_20_);}
	.st38{clip-path:url(#SVGID_22_);}
	.st39{fill:url(#SVGID_23_);}
	.st40{clip-path:url(#SVGID_25_);}
	.st41{fill:url(#SVGID_26_);}
	.st42{fill:url(#SVGID_27_);}
	.st43{fill:url(#SVGID_28_);}
	.st44{fill:url(#SVGID_29_);}
	.st45{clip-path:url(#SVGID_31_);fill:#00B2E3;}
	.st46{clip-path:url(#SVGID_33_);}
	.st47{clip-path:url(#SVGID_35_);}
	.st48{fill:url(#SVGID_36_);}
	.st49{clip-path:url(#SVGID_38_);}
	.st50{clip-path:url(#SVGID_40_);}
	.st51{fill:#280210;}
	.st52{opacity:0.5;}
	.st53{opacity:0.6;}
	.st54{fill:url(#SVGID_41_);}
	.st55{fill:url(#SVGID_42_);}
	.st56{fill:url(#SVGID_43_);}
	.st57{fill:url(#SVGID_44_);}
	.st58{opacity:0.8;}
	.st59{opacity:0.9;}
	.st60{fill:url(#SVGID_45_);}
	.st61{clip-path:url(#SVGID_47_);}
	.st62{clip-path:url(#SVGID_49_);}
	.st63{fill:url(#SVGID_50_);}
	.st64{clip-path:url(#SVGID_52_);}
	.st65{fill:url(#SVGID_53_);}
	.st66{clip-path:url(#SVGID_55_);}
	.st67{fill:url(#SVGID_56_);}
	.st68{clip-path:url(#SVGID_58_);}
	.st69{clip-path:url(#SVGID_60_);fill:#00B2E3;}
	.st70{clip-path:url(#SVGID_62_);}
	.st71{clip-path:url(#SVGID_64_);}
	.st72{fill:none;stroke:#FFFFFF;stroke-width:5;stroke-miterlimit:10;}
	.st73{clip-path:url(#SVGID_66_);fill:#00B2E3;}
	.st74{clip-path:url(#SVGID_68_);}
	.st75{clip-path:url(#SVGID_70_);}
	.st76{clip-path:url(#SVGID_72_);fill:#00B2E3;}
	.st77{clip-path:url(#SVGID_74_);}
	.st78{fill:#5B0323;}
	.st79{fill:url(#SVGID_75_);}
	.st80{fill:url(#SVGID_76_);}
	.st81{fill:url(#SVGID_77_);}
	.st82{clip-path:url(#SVGID_80_);fill:#00B2E3;}
	.st83{clip-path:url(#SVGID_84_);}
	.st84{clip-path:url(#SVGID_86_);}
	.st85{fill-rule:evenodd;clip-rule:evenodd;fill:#FFFFFF;}
	.st86{fill:#E5E5E5;}
	.st87{clip-path:url(#SVGID_88_);}
	.st88{fill-rule:evenodd;clip-rule:evenodd;fill:none;stroke:#E7004C;stroke-width:3;stroke-miterlimit:10;}
	.st89{fill:#070101;}
	.st90{fill:none;stroke:#068FFF;stroke-width:5;stroke-miterlimit:10;}
</style>
<g id="Capa_2">
</g>
<g id="Capa_1">
</g>
<g id="Capa_3">
</g>
<g id="Capa_4">
	<g>
		<path class="st0" d="M0,0h5.7c2.71,0,3.96,1.45,3.96,3.62c0,1.54-0.67,2.92-2.28,3.25v0.04c1.91,0.18,2.68,1.81,2.68,3.31
			c0,2.52-1.22,4.28-4.37,4.28H0V0z M3.78,5.69h0.92c0.77,0,1.19-0.69,1.19-1.46c0-0.81-0.42-1.5-1.19-1.5H3.78V5.69z M3.78,11.78
			h1.06c0.69,0,1.34-0.61,1.34-1.79c0-1.12-0.65-1.75-1.34-1.75H3.78V11.78z"/>
		<path class="st0" d="M16.33-0.28c3.86,0,5.18,2.11,5.18,7.53c0,5.43-1.32,7.54-5.18,7.54c-3.86,0-5.18-2.11-5.18-7.54
			C11.15,1.83,12.47-0.28,16.33-0.28z M16.33,12.23c1.16,0,1.28-1.06,1.28-4.98c0-3.91-0.13-4.97-1.28-4.97
			c-1.16,0-1.28,1.06-1.28,4.97C15.05,11.17,15.17,12.23,16.33,12.23z"/>
		<path class="st0" d="M22.93,0h5.4l1.52,8.59h0.04L31.42,0h5.4v14.5h-3.53V3.7h-0.05l-2,10.8h-2.72L26.5,3.7h-0.04v10.8h-3.53V0z"
			/>
		<path class="st0" d="M38.47,0h5.71c2.7,0,3.96,1.45,3.96,3.62c0,1.54-0.67,2.92-2.28,3.25v0.04c1.91,0.18,2.68,1.81,2.68,3.31
			c0,2.52-1.22,4.28-4.37,4.28h-5.71V0z M42.25,5.69h0.91c0.77,0,1.2-0.69,1.2-1.46c0-0.81-0.43-1.5-1.2-1.5h-0.91V5.69z
			 M42.25,11.78h1.05c0.69,0,1.34-0.61,1.34-1.79c0-1.12-0.65-1.75-1.34-1.75h-1.05V11.78z"/>
		<path class="st0" d="M52.28,0h4.75l3.53,14.5h-4.02l-0.39-2.54h-3l-0.38,2.54h-4.02L52.28,0z M54.68,2.97h-0.04L53.6,9.11h2.12
			L54.68,2.97z"/>
		<path class="st0" d="M61.6,0h5.91c2.88,0,3.98,1.62,3.98,3.86c0,1.93-0.76,3.18-2.48,3.45v0.04c1.83,0.16,2.37,1.31,2.37,3.25
			v1.23c0,0.75,0,1.72,0.19,2.02c0.11,0.15,0.18,0.32,0.43,0.44v0.21h-4.02c-0.36-0.77-0.36-2.15-0.36-2.76v-0.98
			c0-1.64-0.33-2.07-1.24-2.07h-1v5.81H61.6V0z M65.37,6.13h0.76c1.07,0,1.58-0.69,1.58-1.73c0-1.18-0.46-1.69-1.6-1.69h-0.73V6.13z
			"/>
		<path class="st0" d="M73.12,0h5.48c4.37,0,4.59,3.45,4.59,7.25c0,3.8-0.23,7.25-4.59,7.25h-5.48V0z M76.9,11.78h0.75
			c1.46,0,1.64-0.61,1.64-4.53c0-3.91-0.18-4.53-1.64-4.53H76.9V11.78z"/>
		<path class="st0" d="M84.71,0h3.77v14.5h-3.77V0z"/>
		<path class="st0" d="M90.18,0h8.58v3.08h-4.82v2.48h4.51v2.96h-4.51v2.88h5v3.08h-8.77V0z"/>
		<path class="st0" d="M100.33,0h5.91c2.89,0,3.98,1.62,3.98,3.86c0,1.93-0.75,3.18-2.47,3.45v0.04c1.83,0.16,2.37,1.31,2.37,3.25
			v1.23c0,0.75,0,1.72,0.18,2.02c0.1,0.15,0.19,0.32,0.42,0.44v0.21h-4.02c-0.37-0.77-0.37-2.15-0.37-2.76v-0.98
			c0-1.64-0.33-2.07-1.24-2.07h-0.99v5.81h-3.77V0z M104.1,6.13h0.75c1.08,0,1.59-0.69,1.59-1.73c0-1.18-0.47-1.69-1.6-1.69h-0.73
			V6.13z"/>
	</g>
</g>
<g id="Capa_6">
</g>
<g id="Capa_5">
</g>
</svg>
