<?xml version="1.0" encoding="utf-8"?>
<!-- Generator: Adobe Illustrator 24.0.3, SVG Export Plug-In . SVG Version: 6.00 Build 0)  -->
<svg version="1.1" xmlns="http://www.w3.org/2000/svg" xmlns:xlink="http://www.w3.org/1999/xlink" x="0px" y="0px"
	 viewBox="0 0 61.03 58.27" style="enable-background:new 0 0 61.03 58.27;" xml:space="preserve">
<style type="text/css">
	.st0{fill:#FFFFFF;}
	.st1{fill:url(#SVGID_1_);}
	.st2{fill:#E7004C;}
	.st3{fill:none;stroke:#00B2E3;stroke-miterlimit:10;}
	.st4{fill:url(#SVGID_2_);}
	.st5{fill:#FCFCFC;}
	.st6{fill:url(#SVGID_3_);}
	.st7{fill:url(#SVGID_4_);}
	.st8{opacity:0.8;fill:#E7004C;}
	.st9{opacity:0.7;fill:#E7004C;}
	.st10{opacity:0.7;}
	.st11{fill:#00B2E3;}
	.st12{opacity:0.8;fill:#00B2E3;}
	.st13{opacity:0.7;fill:#00B2E3;}
	.st14{fill:#BBBBBB;}
	.st15{opacity:0.8;fill:#BBBBBB;}
	.st16{opacity:0.7;fill:#BBBBBB;}
	.st17{fill:url(#SVGID_5_);}
	.st18{fill:url(#SVGID_6_);}
	.st19{fill:none;stroke:#E7004C;stroke-width:2;stroke-miterlimit:10;}
	.st20{fill:url(#SVGID_7_);}
	.st21{fill:url(#SVGID_8_);}
	.st22{fill:url(#SVGID_9_);}
	.st23{fill:none;stroke:#FFFFFF;stroke-miterlimit:10;}
	.st24{fill:none;stroke:#E7004C;stroke-miterlimit:10;}
	.st25{fill-rule:evenodd;clip-rule:evenodd;fill:#E7004C;}
	.st26{fill:none;stroke:#000000;stroke-miterlimit:10;}
	.st27{fill:#38A8E0;}
	.st28{clip-path:url(#SVGID_11_);fill:#00B2E3;}
	.st29{fill:none;stroke:#E7004C;stroke-width:3;stroke-miterlimit:10;}
	.st30{clip-path:url(#SVGID_13_);}
	.st31{fill:none;stroke:#FFFFFF;stroke-width:2;stroke-miterlimit:10;}
	.st32{fill:none;stroke:#FFFFFF;stroke-width:3;stroke-miterlimit:10;}
	.st33{clip-path:url(#SVGID_15_);}
	.st34{fill:url(#SVGID_16_);}
	.st35{fill:none;stroke:#FFFFFF;stroke-width:0.5;stroke-miterlimit:10;}
	.st36{clip-path:url(#SVGID_18_);fill:#00B2E3;}
	.st37{clip-path:url(#SVGID_20_);}
	.st38{clip-path:url(#SVGID_22_);}
	.st39{fill:url(#SVGID_23_);}
	.st40{clip-path:url(#SVGID_25_);}
	.st41{fill:url(#SVGID_26_);}
	.st42{fill:url(#SVGID_27_);}
	.st43{fill:url(#SVGID_28_);}
	.st44{fill:url(#SVGID_29_);}
	.st45{clip-path:url(#SVGID_31_);fill:#00B2E3;}
	.st46{clip-path:url(#SVGID_33_);}
	.st47{clip-path:url(#SVGID_35_);}
	.st48{fill:url(#SVGID_36_);}
	.st49{clip-path:url(#SVGID_38_);}
	.st50{clip-path:url(#SVGID_40_);}
	.st51{fill:#280210;}
	.st52{opacity:0.5;}
	.st53{opacity:0.6;}
	.st54{fill:url(#SVGID_41_);}
	.st55{fill:url(#SVGID_42_);}
	.st56{fill:url(#SVGID_43_);}
	.st57{fill:url(#SVGID_44_);}
	.st58{opacity:0.8;}
	.st59{opacity:0.9;}
	.st60{fill:url(#SVGID_45_);}
	.st61{clip-path:url(#SVGID_47_);}
	.st62{clip-path:url(#SVGID_49_);}
	.st63{fill:url(#SVGID_50_);}
	.st64{clip-path:url(#SVGID_52_);}
	.st65{fill:url(#SVGID_53_);}
	.st66{clip-path:url(#SVGID_55_);}
	.st67{fill:url(#SVGID_56_);}
	.st68{clip-path:url(#SVGID_58_);}
	.st69{clip-path:url(#SVGID_60_);fill:#00B2E3;}
	.st70{clip-path:url(#SVGID_62_);}
	.st71{clip-path:url(#SVGID_64_);}
	.st72{fill:none;stroke:#FFFFFF;stroke-width:5;stroke-miterlimit:10;}
	.st73{clip-path:url(#SVGID_66_);fill:#00B2E3;}
	.st74{clip-path:url(#SVGID_68_);}
	.st75{clip-path:url(#SVGID_70_);}
	.st76{clip-path:url(#SVGID_72_);fill:#00B2E3;}
	.st77{clip-path:url(#SVGID_74_);}
	.st78{fill:#5B0323;}
	.st79{fill:url(#SVGID_75_);}
	.st80{fill:url(#SVGID_76_);}
	.st81{fill:url(#SVGID_77_);}
	.st82{clip-path:url(#SVGID_80_);fill:#00B2E3;}
	.st83{clip-path:url(#SVGID_84_);}
	.st84{clip-path:url(#SVGID_86_);}
	.st85{fill-rule:evenodd;clip-rule:evenodd;fill:#FFFFFF;}
	.st86{fill:#E5E5E5;}
	.st87{clip-path:url(#SVGID_88_);}
	.st88{fill-rule:evenodd;clip-rule:evenodd;fill:none;stroke:#E7004C;stroke-width:3;stroke-miterlimit:10;}
	.st89{fill:#070101;}
	.st90{fill:none;stroke:#068FFF;stroke-width:5;stroke-miterlimit:10;}
</style>
<g id="Capa_2">
</g>
<g id="Capa_1">
</g>
<g id="Capa_3">
</g>
<g id="Capa_4">
	<g>
		<path class="st85" d="M2.8,32.72c0.6,0,1.09,0.49,1.09,1.08c0,0.6-0.49,1.09-1.09,1.09c-0.6,0-1.08-0.49-1.08-1.09
			C1.72,33.21,2.2,32.72,2.8,32.72z"/>
		<g>
			<polygon class="st85" points="21.57,16.55 23.46,14.85 32.63,25.03 30.75,26.74 21.57,16.55 			"/>
			<polygon class="st85" points="24.41,14 26.3,12.3 35.46,22.49 33.58,24.19 24.41,14 			"/>
			<polygon class="st85" points="27.24,11.45 29.13,9.75 38.29,19.94 36.41,21.63 27.24,11.45 			"/>
			<polygon class="st85" points="19.63,35 21.51,33.31 30.69,43.5 28.8,45.19 19.63,35 			"/>
			<polygon class="st85" points="22.46,32.45 24.34,30.76 33.52,40.95 31.63,42.65 22.46,32.45 			"/>
			<polygon class="st85" points="25.29,29.91 27.17,28.21 36.35,38.39 34.46,40.1 25.29,29.91 			"/>
			<polygon class="st85" points="18.04,34.87 16.34,32.97 26.53,23.8 28.23,25.69 18.04,34.87 			"/>
			<polygon class="st85" points="15.49,32.03 13.79,30.14 23.97,20.96 25.68,22.86 15.49,32.03 			"/>
			<polygon class="st85" points="12.94,29.2 11.25,27.31 21.42,18.13 23.13,20.02 12.94,29.2 			"/>
			<polygon class="st85" points="36.5,36.81 34.79,34.91 44.98,25.75 46.68,27.63 36.5,36.81 			"/>
			<polygon class="st85" points="33.95,33.98 32.25,32.08 42.44,22.92 44.13,24.8 33.95,33.98 			"/>
			<polygon class="st85" points="31.39,31.14 29.7,29.25 39.89,20.09 41.58,21.97 31.39,31.14 			"/>
		</g>
		<g>
			<path class="st0" d="M51.56,16.81v-1.17c0.09-0.03,0.19-0.06,0.27-0.1l1.28-0.49c-0.08-0.16-0.14-0.32-0.21-0.48
				c-0.08-0.16-0.14-0.31-0.22-0.47c-0.08-0.16-0.16-0.32-0.22-0.46c-0.08-0.16-0.16-0.32-0.24-0.47l-0.66,0.25v-1.09
				c0.09-0.05,0.19-0.08,0.28-0.11c0.49-0.19,0.93-0.36,1.31-0.52c0.38-0.16,0.73-0.32,1.04-0.46c0.03,0.08,0.06,0.17,0.09,0.27
				c0.03,0.09,0.06,0.17,0.11,0.27c0.05,0.08,0.08,0.17,0.14,0.25c0.05,0.1,0.09,0.17,0.14,0.25c-0.2,0.06-0.41,0.13-0.6,0.19
				c-0.19,0.06-0.36,0.13-0.54,0.19l-0.82,0.32c0.11,0.27,0.19,0.46,0.25,0.59c0.06,0.14,0.11,0.25,0.16,0.36
				c0.06,0.11,0.11,0.24,0.17,0.36c0.06,0.13,0.18,0.32,0.3,0.57l0.82-0.32c0.17-0.06,0.35-0.14,0.54-0.22
				c0.17-0.06,0.37-0.16,0.57-0.25c0.02,0.09,0.05,0.19,0.08,0.27c0.05,0.09,0.08,0.19,0.13,0.27c0.03,0.09,0.08,0.17,0.13,0.27
				c0.05,0.08,0.11,0.16,0.16,0.25c-0.33,0.1-0.69,0.21-1.09,0.35c-0.39,0.14-0.84,0.3-1.32,0.49c-0.54,0.19-0.98,0.38-1.34,0.52
				C52.01,16.61,51.78,16.72,51.56,16.81L51.56,16.81z M51.56,8.29V7.77h0.01c0.03,0.03,0.06,0.06,0.09,0.09
				c0.03,0.03,0.06,0.05,0.1,0.08C51.7,8.06,51.64,8.17,51.56,8.29L51.56,8.29z M51.56,7.19V6.98l1.36,0.05
				c0.17,0,0.3,0.02,0.39,0.05c0.08,0.03,0.16,0.06,0.21,0.11c0.08,0.08,0.11,0.16,0.1,0.24c0,0.1-0.05,0.17-0.11,0.24
				c-0.06,0.05-0.14,0.08-0.22,0.08c-0.08,0-0.19-0.03-0.33-0.06l-1.36-0.46L51.56,7.19L51.56,7.19z M56.52,17.05
				c0,0.08,0.02,0.17,0.03,0.27c0.02,0.1,0.03,0.21,0.06,0.3c0.02,0.11,0.05,0.21,0.06,0.3c0.03,0.08,0.05,0.17,0.08,0.25
				c-0.39,0.03-0.82,0.08-1.26,0.14c-0.44,0.06-0.93,0.13-1.45,0.22c-0.43,0.08-0.74,0.14-0.92,0.19c-0.17,0.06-0.31,0.13-0.44,0.19
				c-0.19,0.11-0.33,0.25-0.4,0.46c-0.08,0.19-0.1,0.41-0.03,0.66c0.05,0.24,0.14,0.44,0.27,0.6c0.14,0.17,0.32,0.28,0.52,0.36
				c0.16,0.06,0.38,0.1,0.61,0.08c0.25,0,0.65-0.05,1.2-0.14c0.46-0.09,0.89-0.17,1.28-0.25c0.39-0.08,0.76-0.17,1.11-0.25
				c0,0.05,0,0.11,0.01,0.16c0,0.06,0.02,0.13,0.03,0.17c0.02,0.08,0.03,0.13,0.05,0.19c0.02,0.05,0.03,0.1,0.05,0.14
				c-0.35,0.05-0.65,0.08-0.92,0.11c-0.28,0.05-0.5,0.08-0.71,0.11c-0.11,0.03-0.3,0.06-0.54,0.11c-0.25,0.05-0.43,0.08-0.55,0.09
				c-0.49,0.09-0.89,0.13-1.15,0.11c-0.29-0.02-0.54-0.08-0.76-0.19c-0.25-0.14-0.46-0.33-0.63-0.57c-0.16-0.25-0.28-0.55-0.35-0.9
				c-0.09-0.39-0.11-0.74-0.05-1.04c0.07-0.32,0.19-0.55,0.38-0.74c0.14-0.14,0.35-0.25,0.6-0.33c0.25-0.1,0.66-0.19,1.23-0.3
				l0.66-0.11c0.46-0.08,0.84-0.16,1.12-0.21C56.01,17.18,56.28,17.11,56.52,17.05z M51.56,6.98v0.21l-0.21-0.21H51.56L51.56,6.98z
				 M51.56,7.77v0.52c-0.35,0.6-0.7,1.22-1.05,1.85c-0.38,0.69-0.76,1.41-1.12,2.13V9.94l0.02,0.02c0.16-0.24,0.32-0.49,0.46-0.74
				c0.14-0.24,0.27-0.49,0.39-0.74c-0.28,0.08-0.57,0.17-0.85,0.27h-0.02V8.26c0.65-0.22,1.31-0.46,1.99-0.71
				c0.03,0.05,0.06,0.08,0.1,0.13C51.51,7.71,51.53,7.74,51.56,7.77L51.56,7.77z M51.56,12.34v1.09l-0.62,0.24
				c-0.16,0.06-0.33,0.13-0.51,0.2c-0.16,0.08-0.33,0.16-0.5,0.24c-0.03-0.1-0.08-0.19-0.11-0.28c-0.03-0.08-0.06-0.17-0.11-0.25
				c-0.03-0.08-0.08-0.16-0.13-0.24c-0.05-0.09-0.09-0.17-0.16-0.27c0.33-0.1,0.68-0.21,1.06-0.35
				C50.8,12.62,51.15,12.48,51.56,12.34L51.56,12.34z M51.56,15.64v1.17c-0.1,0.05-0.19,0.1-0.29,0.14
				c-0.05-0.11-0.08-0.21-0.11-0.28c-0.03-0.1-0.08-0.17-0.11-0.25c-0.03-0.08-0.08-0.17-0.13-0.25c-0.05-0.08-0.09-0.17-0.16-0.27
				c0.19-0.05,0.38-0.11,0.55-0.16C51.4,15.71,51.48,15.67,51.56,15.64z M49.39,8.26v0.47c-0.28,0.09-0.58,0.2-0.89,0.32l0.02,0.02
				c0.19,0.2,0.33,0.35,0.43,0.46c0.06,0.05,0.11,0.09,0.17,0.16c0.06,0.06,0.14,0.14,0.27,0.25v2.34l-0.13,0.25
				c-0.06-0.08-0.13-0.14-0.19-0.22c-0.08-0.08-0.14-0.16-0.24-0.24c-0.08-0.08-0.16-0.16-0.24-0.22c-0.06-0.06-0.14-0.13-0.22-0.19
				c0.11-0.16,0.21-0.33,0.33-0.51c0.11-0.17,0.27-0.43,0.47-0.76c-0.06-0.06-0.14-0.14-0.22-0.22c-0.08-0.09-0.2-0.21-0.36-0.38
				c-0.16-0.16-0.28-0.28-0.36-0.36C48.14,9.35,48.06,9.29,48,9.21c-0.4,0.16-0.7,0.27-0.9,0.35V9.01c0.51-0.16,1.03-0.32,1.55-0.49
				C48.89,8.44,49.14,8.36,49.39,8.26L49.39,8.26z M47.1,6.67V5.62c0.14-0.25,0.32-0.52,0.49-0.82c0.03,0.03,0.08,0.05,0.11,0.08
				c0.05,0.03,0.09,0.05,0.14,0.08c0.06,0.03,0.11,0.05,0.16,0.06c0.05,0.03,0.09,0.05,0.14,0.06c-0.13,0.16-0.3,0.41-0.52,0.76
				C47.48,6.05,47.31,6.32,47.1,6.67z M47.1,5.62v1.04c-0.16,0.25-0.35,0.54-0.54,0.87l-0.21,0.33c-0.21,0.32-0.35,0.57-0.46,0.76
				c-0.11,0.19-0.19,0.36-0.27,0.52c-0.05-0.03-0.09-0.06-0.13-0.09c-0.05-0.03-0.09-0.05-0.14-0.08c-0.05-0.02-0.08-0.03-0.14-0.06
				c-0.05-0.02-0.11-0.03-0.16-0.05c-0.16-0.63-0.33-1.3-0.5-1.99c-0.19-0.69-0.4-1.47-0.63-2.31L42.85,6.3
				c-0.05,0.08-0.13,0.22-0.24,0.43c-0.13,0.21-0.27,0.44-0.43,0.71c-0.05-0.05-0.1-0.08-0.13-0.11c-0.05-0.02-0.09-0.05-0.13-0.06
				c-0.05-0.03-0.09-0.05-0.14-0.06c-0.05-0.02-0.11-0.03-0.16-0.05c0.19-0.29,0.4-0.58,0.62-0.9c0.22-0.33,0.44-0.68,0.68-1.06
				c0.22-0.38,0.44-0.73,0.63-1.09c0.21-0.35,0.4-0.69,0.57-1.03c0.05,0.03,0.11,0.06,0.16,0.09c0.06,0.03,0.13,0.06,0.19,0.11
				c0.06,0.03,0.13,0.06,0.19,0.08c0.06,0.03,0.13,0.05,0.17,0.08c0.17,0.68,0.35,1.36,0.54,2.04c0.17,0.68,0.36,1.37,0.55,2.07
				l0.43-0.71c0.08-0.13,0.24-0.38,0.46-0.76L47.1,5.62L47.1,5.62z M47.1,9.01c-0.36,0.11-0.71,0.22-1.06,0.32
				c0.02,0,0.02,0.02,0.03,0.02c0.11,0.09,0.19,0.16,0.24,0.2c0.03,0.03,0.06,0.06,0.09,0.09c0.03,0.05,0.06,0.08,0.09,0.14
				c0.17-0.06,0.36-0.13,0.57-0.2l0.03-0.02V9.01L47.1,9.01z M39.39,4.8V4.36c0.08,0.02,0.14,0.05,0.24,0.06
				c0.08,0.03,0.21,0.08,0.4,0.13c0.02-0.28,0.02-0.57,0.02-0.85c-0.02-0.27-0.02-0.55-0.05-0.82c-0.2,0.19-0.39,0.38-0.6,0.58V2.78
				c0.36-0.38,0.74-0.77,1.12-1.19c0.05,0.03,0.09,0.05,0.14,0.06c0.03,0.02,0.08,0.03,0.13,0.05c0.05,0.02,0.09,0.03,0.14,0.05
				c0.03,0,0.08,0.02,0.13,0.02c0,0.81,0.02,1.63,0.05,2.48c0.02,0.85,0.06,1.72,0.13,2.62c-0.08-0.03-0.17-0.06-0.28-0.11
				c-0.09-0.03-0.21-0.06-0.32-0.11c-0.11-0.03-0.22-0.06-0.33-0.1c-0.09-0.03-0.19-0.06-0.3-0.08c0.02-0.17,0.02-0.36,0.03-0.57
				c0-0.21,0.02-0.49,0.03-0.87c-0.09-0.05-0.2-0.08-0.32-0.11C39.64,4.9,39.53,4.85,39.39,4.8z M39.39,2.78v0.68l-0.02,0.02
				c-0.21,0.21-0.41,0.43-0.62,0.66c0,0,0,0,0.02,0c0.27,0.09,0.47,0.17,0.62,0.22l0,0V4.8l-0.18-0.05
				C39,4.68,38.82,4.61,38.71,4.58c-0.12-0.03-0.22-0.06-0.33-0.09C38.1,4.8,37.89,5.04,37.75,5.2c-0.14,0.16-0.27,0.3-0.4,0.41
				c-0.06-0.03-0.11-0.05-0.16-0.06c-0.05-0.03-0.09-0.05-0.13-0.06C37,5.47,36.89,5.45,36.75,5.42C36.74,5.4,36.72,5.4,36.72,5.4
				c0.62-0.57,1.25-1.17,1.88-1.8C38.86,3.33,39.12,3.06,39.39,2.78L39.39,2.78z M32.12,4.77V4.33c0.28-0.06,0.52-0.17,0.71-0.35
				c0.35-0.32,0.55-0.81,0.62-1.47c0.05-0.66-0.08-1.15-0.36-1.47c-0.21-0.22-0.52-0.38-0.96-0.47V0.14
				c0.46,0.03,0.82,0.1,1.11,0.17c0.28,0.08,0.52,0.21,0.73,0.38c0.25,0.2,0.44,0.47,0.57,0.79c0.13,0.32,0.17,0.66,0.14,1.06
				c-0.06,0.81-0.36,1.39-0.92,1.77C33.34,4.58,32.8,4.74,32.12,4.77z M32.12,0.14v0.43c-0.16-0.02-0.33-0.05-0.51-0.06
				c-0.05,0-0.16,0-0.32,0c-0.08-0.02-0.16-0.02-0.2-0.02c-0.03,0.3-0.06,0.63-0.09,0.98c-0.03,0.35-0.06,0.73-0.09,1.15
				c-0.03,0.46-0.06,0.8-0.08,1.03c-0.02,0.24-0.03,0.46-0.03,0.66c0.08,0.01,0.17,0.03,0.27,0.05c0.08,0.02,0.16,0.02,0.24,0.03
				c0.3,0.02,0.59,0,0.82-0.06v0.44c-0.24,0.02-0.49,0.02-0.76,0c-0.17-0.02-0.41-0.03-0.69-0.06c-0.29-0.02-0.48-0.03-0.59-0.05
				c-0.09,0-0.24,0-0.41,0c-0.06,0-0.1,0-0.13,0c0.03-0.21,0.08-0.43,0.11-0.68c0.03-0.24,0.06-0.58,0.09-1.04l0.05-0.6l0.03-0.36
				c0.03-0.51,0.06-0.9,0.08-1.18c0-0.28,0-0.55,0-0.77c0.1,0,0.19,0.01,0.28,0.03c0.1,0.02,0.19,0.02,0.3,0.02
				c0.16,0.02,0.41,0.03,0.74,0.05c0.35,0,0.62,0.02,0.79,0.03H32.12L32.12,0.14z M26.23,3.38V2.97V2.95c0.08,0,0.16,0,0.25-0.02
				c0.1,0,0.24-0.02,0.43-0.03c-0.13-0.27-0.25-0.52-0.38-0.77c-0.09-0.19-0.2-0.38-0.3-0.55V0.03c0.03,0,0.06,0,0.08,0
				c0.05,0,0.09,0,0.14-0.01C26.5,0.02,26.55,0,26.58,0c0.36,0.73,0.76,1.48,1.17,2.24c0.41,0.77,0.85,1.55,1.31,2.35
				c-0.09,0-0.2,0-0.32,0c-0.09,0-0.22,0-0.33,0.01c-0.13,0-0.24,0.02-0.35,0.03c-0.11,0-0.21,0.01-0.32,0.03
				c-0.06-0.16-0.14-0.35-0.24-0.52c-0.08-0.19-0.21-0.46-0.36-0.81c-0.1,0-0.22,0-0.33,0c-0.13,0.02-0.32,0.02-0.55,0.03H26.23z
				 M26.23,0.03v1.55c-0.03-0.06-0.06-0.13-0.11-0.19c-0.1,0.25-0.21,0.51-0.3,0.77c-0.09,0.27-0.17,0.54-0.27,0.82
				c0.02,0,0.02,0,0.03,0c0.28,0,0.51-0.02,0.65-0.02v0.41c-0.22,0.02-0.4,0.03-0.51,0.05c-0.13,0-0.24,0.02-0.35,0.03
				c-0.11,0.4-0.21,0.68-0.24,0.87c-0.06,0.21-0.12,0.36-0.17,0.52c-0.06,0-0.13,0-0.19,0c-0.05,0-0.09,0-0.14,0
				c-0.06,0-0.17,0.02-0.31,0.05c-0.02,0-0.02,0-0.03,0c0.3-0.76,0.62-1.53,0.88-2.34c0.28-0.81,0.57-1.64,0.84-2.53
				c0.06,0,0.11,0,0.16,0C26.18,0.03,26.21,0.03,26.23,0.03L26.23,0.03z M20.9,5.88V5.48c0.03,0,0.06-0.02,0.11-0.02
				c0.63-0.17,1.06-0.46,1.28-0.85c0.21-0.41,0.22-0.93,0.02-1.56c-0.2-0.65-0.5-1.07-0.89-1.28c-0.16-0.08-0.33-0.13-0.52-0.16
				V1.07c0.13-0.02,0.25-0.03,0.36-0.03c0.3-0.02,0.59,0.03,0.84,0.13c0.32,0.13,0.6,0.32,0.84,0.57c0.24,0.27,0.41,0.59,0.52,0.95
				c0.25,0.77,0.19,1.42-0.19,1.94c-0.38,0.52-1.06,0.92-2.05,1.17C21.13,5.82,21.02,5.85,20.9,5.88z M20.9,1.07v0.54
				c-0.32-0.03-0.66,0-1.08,0.11c-0.05,0.02-0.14,0.05-0.3,0.08c-0.08,0.03-0.14,0.05-0.19,0.06c0.08,0.28,0.17,0.6,0.28,0.95
				c0.1,0.33,0.21,0.71,0.35,1.12c0.13,0.43,0.24,0.76,0.32,0.98c0.08,0.24,0.14,0.44,0.21,0.63c0.09,0,0.19-0.02,0.28-0.03
				c0.03-0.01,0.08-0.01,0.13-0.03v0.39c-0.11,0.03-0.24,0.05-0.36,0.08c-0.28,0.06-0.47,0.11-0.57,0.14
				c-0.09,0.02-0.22,0.06-0.4,0.11c-0.05,0.02-0.09,0.03-0.13,0.05c-0.03-0.21-0.08-0.43-0.14-0.66c-0.06-0.25-0.16-0.58-0.3-1.01
				L18.82,4l-0.11-0.35c-0.16-0.49-0.28-0.87-0.38-1.14c-0.03-0.11-0.08-0.19-0.11-0.28V1.74c0.03,0,0.06-0.02,0.1-0.02
				c0.09-0.02,0.19-0.05,0.28-0.06c0.16-0.05,0.4-0.11,0.73-0.21c0.33-0.09,0.59-0.16,0.76-0.21C20.4,1.17,20.67,1.11,20.9,1.07
				L20.9,1.07z M18.22,6.65V6.27c0.06,0.11,0.13,0.22,0.19,0.32C18.35,6.6,18.28,6.64,18.22,6.65z M18.22,1.74v0.49
				c-0.06-0.16-0.13-0.32-0.19-0.46C18.09,1.77,18.16,1.75,18.22,1.74L18.22,1.74z M18.22,6.27v0.38c-0.05,0.02-0.09,0.03-0.14,0.05
				c-0.1,0.03-0.19,0.06-0.27,0.1c-0.1,0.05-0.19,0.08-0.28,0.13c-0.09,0.05-0.21,0.09-0.3,0.14c-0.11-0.28-0.25-0.58-0.4-0.9
				c-0.14-0.32-0.33-0.74-0.58-1.25c-0.25-0.49-0.46-0.9-0.63-1.23c-0.05-0.08-0.08-0.14-0.13-0.22V2.7
				c0.08-0.03,0.16-0.06,0.25-0.09c0.1-0.03,0.19-0.08,0.28-0.13c0.1-0.05,0.19-0.1,0.28-0.14c0.11,0.27,0.24,0.58,0.38,0.92
				c0.16,0.35,0.36,0.76,0.6,1.25c0.25,0.52,0.47,0.95,0.65,1.25C18.03,5.94,18.12,6.12,18.22,6.27L18.22,6.27z M15.48,7.85
				c0.16-0.17,0.27-0.36,0.32-0.55c0.13-0.41,0.05-0.81-0.24-1.2C15.55,6.07,15.52,6.04,15.48,6V7.85z M15.48,2.7v0.76
				C15.36,3.22,15.23,3,15.11,2.81c0.11-0.03,0.22-0.06,0.32-0.09C15.44,2.72,15.47,2.72,15.48,2.7L15.48,2.7z M15.48,6v1.85
				c-0.14,0.17-0.35,0.33-0.58,0.47c-0.25,0.14-0.49,0.25-0.71,0.32c-0.22,0.06-0.43,0.09-0.62,0.08c-0.05-0.14-0.11-0.28-0.16-0.44
				c-0.06-0.14-0.13-0.3-0.21-0.47l0.08-0.05c0.22,0.19,0.46,0.3,0.71,0.33c0.24,0.02,0.49-0.03,0.73-0.17
				c0.22-0.13,0.35-0.28,0.4-0.46c0.06-0.19,0.01-0.36-0.1-0.54c-0.09-0.13-0.22-0.21-0.36-0.25c-0.16-0.05-0.44-0.05-0.88-0.02
				c-0.62,0.05-1.06,0.03-1.34-0.03V5.51c0.05,0.03,0.1,0.05,0.16,0.06c0.14,0.05,0.41,0.05,0.81,0.02c0.09-0.02,0.2-0.02,0.36-0.05
				c0.46-0.05,0.76-0.05,0.92-0.02c0.19,0.03,0.35,0.11,0.51,0.2C15.3,5.8,15.39,5.89,15.48,6L15.48,6z M12.44,9.83V8.82l0.99,0.24
				c-0.11,0.06-0.19,0.13-0.28,0.19c-0.09,0.06-0.17,0.13-0.25,0.19c-0.08,0.05-0.16,0.11-0.24,0.19
				C12.59,9.69,12.51,9.75,12.44,9.83L12.44,9.83z M12.44,4.5V4c0.17-0.08,0.33-0.16,0.5-0.21c0.21-0.05,0.41-0.08,0.62-0.06
				c0.05,0.13,0.08,0.27,0.13,0.4c0.03,0.13,0.08,0.24,0.13,0.35l-0.08,0.05c-0.17-0.14-0.38-0.2-0.6-0.22
				c-0.24,0-0.44,0.05-0.65,0.17C12.47,4.47,12.45,4.49,12.44,4.5z M12.44,4V4.5c-0.16,0.1-0.25,0.22-0.3,0.36
				c-0.05,0.16-0.02,0.32,0.09,0.46c0.06,0.08,0.13,0.14,0.21,0.19v1.11C12.42,6.6,12.4,6.6,12.39,6.6
				c-0.28-0.09-0.51-0.27-0.7-0.52c-0.24-0.35-0.32-0.69-0.19-1.07c0.11-0.38,0.4-0.69,0.85-0.96C12.37,4.03,12.4,4.01,12.44,4
				L12.44,4z M12.44,8.82l-1.98-0.49c0.25-0.3,0.38-0.6,0.38-0.87c0.02-0.27-0.09-0.52-0.32-0.76c-0.28-0.3-0.62-0.43-0.98-0.4
				C9.2,6.34,8.82,6.49,8.41,6.81v0.52C8.63,7.17,8.83,7.1,9.02,7.11c0.22,0,0.44,0.11,0.65,0.33c0.25,0.27,0.38,0.51,0.35,0.74
				C9.99,8.42,9.83,8.66,9.51,8.9L9.48,8.93L8.74,8.15C8.64,8.06,8.55,7.95,8.45,7.84L8.41,7.79v1.5C8.52,9.4,8.63,9.51,8.74,9.64
				c0.38,0.38,0.7,0.73,0.93,0.99c0.25,0.29,0.49,0.55,0.69,0.82c0.08-0.09,0.16-0.16,0.24-0.22c0.08-0.06,0.14-0.13,0.22-0.19
				c0.06-0.05,0.14-0.11,0.22-0.16c0.08-0.06,0.17-0.11,0.25-0.17c-0.19-0.17-0.36-0.33-0.52-0.49c-0.16-0.16-0.32-0.3-0.46-0.46
				L9.64,9.07c0.51,0.13,0.98,0.25,1.45,0.38c0.46,0.13,0.9,0.27,1.31,0.39l0.03-0.02V8.82L12.44,8.82z M8.41,14.3v-1.22
				c0.05,0.03,0.08,0.05,0.11,0.06c0.11-0.19,0.24-0.4,0.36-0.63c0.13-0.22,0.25-0.47,0.4-0.74c0.05,0.02,0.08,0.05,0.13,0.08
				c0.03,0.02,0.08,0.05,0.13,0.06c0.03,0.03,0.09,0.05,0.17,0.08c0.08,0.03,0.13,0.06,0.14,0.06c-0.27,0.4-0.47,0.7-0.6,0.9
				c-0.14,0.2-0.25,0.38-0.35,0.5c-0.11,0.17-0.21,0.33-0.29,0.47C8.53,14.06,8.47,14.19,8.41,14.3z M8.41,6.81v0.52
				C8.36,7.35,8.33,7.38,8.28,7.41C8.26,7.43,8.25,7.44,8.22,7.46C8.2,7.49,8.17,7.5,8.17,7.52c0.08,0.09,0.16,0.17,0.24,0.27v1.5
				C8.18,9.07,7.98,8.86,7.79,8.67c-0.3-0.27-0.57-0.52-0.82-0.74C7.02,7.9,7.08,7.85,7.14,7.82c0.05-0.05,0.09-0.08,0.14-0.11
				c0.03-0.02,0.14-0.11,0.36-0.3C7.87,7.22,8.09,7.05,8.3,6.89C8.33,6.86,8.36,6.83,8.41,6.81L8.41,6.81z M8.41,13.08v1.22
				l-0.02,0.03c-0.22-0.14-0.47-0.3-0.76-0.46c-0.3-0.16-0.77-0.43-1.44-0.76l-0.33-0.17l-0.13-0.06v-1.15l0.22,0.11l0.44,0.22
				c0.08-0.13,0.21-0.33,0.38-0.65c0.19-0.3,0.32-0.54,0.41-0.69c0.06,0.05,0.11,0.08,0.16,0.09c0.03,0.03,0.06,0.05,0.11,0.08
				C7.52,10.9,7.6,10.95,7.73,11c0.01,0,0.01,0,0.03,0c-0.27,0.35-0.46,0.62-0.59,0.81c-0.12,0.19-0.24,0.35-0.33,0.49l0.79,0.41
				c0.28,0.14,0.47,0.25,0.6,0.3C8.3,13.04,8.34,13.07,8.41,13.08L8.41,13.08z M5.74,24.81v-0.08h0.02
				C5.75,24.76,5.74,24.78,5.74,24.81L5.74,24.81z M5.74,21.99v-0.79c0.13,0,0.25,0,0.36,0c-0.02,0.05-0.03,0.09-0.05,0.14
				c0,0.05-0.02,0.1-0.02,0.14c0,0.05,0,0.1,0,0.14c0,0.05,0,0.11,0,0.16C5.94,21.87,5.85,21.93,5.74,21.99L5.74,21.99z M5.74,20.02
				V18.9c0.28,0.03,0.54,0.06,0.77,0.08c-0.03,0.11-0.06,0.21-0.08,0.3c-0.03,0.09-0.05,0.19-0.06,0.27
				c-0.01,0.1-0.03,0.19-0.05,0.29c-0.02,0.09-0.02,0.19-0.03,0.3C6.11,20.1,5.93,20.05,5.74,20.02L5.74,20.02z M5.74,17.21v-0.96
				l0.46-0.02c-0.14-0.13-0.3-0.24-0.46-0.36V15.3c0.6,0.44,1.22,0.87,1.83,1.28c-0.01,0.05-0.05,0.1-0.06,0.14
				c-0.03,0.03-0.05,0.08-0.06,0.13c-0.02,0.03-0.02,0.08-0.03,0.13c0,0.05-0.02,0.09-0.03,0.16C6.94,17.14,6.38,17.18,5.74,17.21
				L5.74,17.21z M5.74,10.27V9.95l0,0c0.05,0.02,0.11,0.03,0.19,0.06C5.86,10.11,5.8,10.19,5.74,10.27z M0.33,30.18
				c0-0.08,0.02-0.17,0.03-0.27c0-0.1,0.02-0.21,0.02-0.32c0-0.1,0-0.21,0-0.3c0-0.08,0-0.17-0.02-0.25
				c0.4,0.05,0.82,0.08,1.26,0.11c0.46,0.03,0.95,0.06,1.48,0.08c0.44,0.02,0.74,0.02,0.93,0c0.19-0.02,0.35-0.05,0.49-0.09
				c0.2-0.06,0.38-0.19,0.49-0.36c0.13-0.17,0.19-0.38,0.21-0.63c0.02-0.25-0.03-0.47-0.13-0.65c-0.08-0.19-0.22-0.35-0.4-0.46
				c-0.16-0.09-0.35-0.16-0.6-0.2c-0.24-0.05-0.65-0.08-1.2-0.1c-0.46-0.02-0.9-0.02-1.31-0.03c-0.4,0.02-0.77,0.02-1.14,0.03
				c0.02-0.05,0.02-0.11,0.03-0.16c0-0.06,0.02-0.11,0.02-0.17c0-0.08,0-0.13,0-0.17c-0.02-0.06-0.02-0.11-0.02-0.16
				c0.33,0.03,0.65,0.06,0.92,0.08c0.29,0.02,0.52,0.03,0.73,0.03c0.11,0,0.3,0.02,0.55,0.02c0.24,0,0.43,0,0.57,0.02
				c0.49,0.02,0.87,0.05,1.14,0.11c0.28,0.08,0.51,0.19,0.68,0.35c0.22,0.17,0.38,0.4,0.47,0.66c0.11,0.27,0.14,0.6,0.13,0.96
				c-0.02,0.4-0.08,0.74-0.22,1.03c-0.13,0.28-0.32,0.49-0.55,0.63c-0.18,0.11-0.4,0.17-0.66,0.2c-0.27,0.05-0.7,0.05-1.28,0.03
				l-0.66-0.02c-0.47-0.01-0.85-0.01-1.15-0.01C0.85,30.16,0.57,30.16,0.33,30.18L0.33,30.18z M5.74,9.95v0.32
				c-0.13,0.17-0.25,0.35-0.36,0.49c-0.14,0.21-0.27,0.4-0.38,0.55c0.08,0.05,0.16,0.1,0.25,0.14c0.08,0.05,0.22,0.13,0.4,0.22
				l0.1,0.05v1.15c-0.44-0.24-0.79-0.41-1.04-0.54c-0.28-0.13-0.55-0.24-0.79-0.33c0.13-0.17,0.25-0.36,0.38-0.55
				c0.13-0.2,0.27-0.41,0.41-0.62c0.13-0.22,0.25-0.41,0.36-0.6c0.11-0.17,0.22-0.35,0.3-0.51c0.08,0.05,0.13,0.08,0.16,0.11
				c0.05,0.02,0.08,0.05,0.11,0.06C5.66,9.92,5.71,9.94,5.74,9.95L5.74,9.95z M5.74,15.3v0.57c-0.33-0.24-0.66-0.47-1.03-0.73
				c-0.52-0.36-1.09-0.74-1.67-1.12c0.03-0.03,0.05-0.08,0.06-0.13c0.03-0.05,0.05-0.11,0.06-0.16c0.02-0.06,0.03-0.13,0.05-0.17
				c0.02-0.05,0.03-0.11,0.03-0.16c0.7,0.55,1.41,1.11,2.13,1.63C5.5,15.12,5.61,15.2,5.74,15.3L5.74,15.3z M5.74,16.24v0.96
				c-0.22,0.01-0.46,0.03-0.71,0.05c-0.98,0.06-2.04,0.16-3.17,0.25c0.03-0.09,0.08-0.17,0.11-0.27c0.03-0.08,0.06-0.17,0.11-0.28
				c0.03-0.09,0.06-0.19,0.08-0.28c0.03-0.1,0.06-0.19,0.08-0.27c0.49-0.02,1.04-0.05,1.69-0.06C4.46,16.31,5.06,16.28,5.74,16.24
				L5.74,16.24z M5.74,18.9v1.12c-0.16-0.05-0.33-0.08-0.49-0.11c-0.38-0.06-0.87-0.16-1.48-0.25c-0.58-0.1-1.09-0.16-1.48-0.22
				c-0.41-0.05-0.76-0.08-1.09-0.11c0.05-0.09,0.06-0.19,0.09-0.28c0.03-0.09,0.05-0.19,0.08-0.28c0.02-0.11,0.03-0.21,0.03-0.3
				c0.02-0.1,0.03-0.19,0.03-0.28c0.32,0.08,0.66,0.14,1.06,0.22c0.41,0.08,0.9,0.16,1.49,0.25c0.63,0.09,1.14,0.17,1.52,0.22
				C5.56,18.88,5.66,18.9,5.74,18.9L5.74,18.9z M5.74,21.21v0.79c-0.49,0.32-0.98,0.66-1.52,1.03c-0.63,0.43-1.33,0.92-2.09,1.45
				l2.21,0.17c0.09,0,0.27,0.02,0.52,0.03c0.25,0.02,0.54,0.03,0.87,0.05v0.08c0,0.02-0.02,0.05-0.02,0.08
				c-0.02,0.05-0.02,0.08-0.03,0.13c0,0.05,0,0.09,0,0.14c0,0.05,0,0.09,0.02,0.16c-0.36-0.05-0.74-0.11-1.17-0.14
				c-0.41-0.05-0.87-0.09-1.36-0.13C2.72,25,2.26,24.97,1.83,24.95c-0.44-0.02-0.87-0.03-1.28-0.05c0.02-0.05,0.02-0.11,0.03-0.17
				c0.02-0.05,0.02-0.11,0.03-0.19c0-0.06,0-0.13,0-0.19c0-0.06,0-0.12,0-0.17c0.62-0.41,1.25-0.84,1.86-1.26
				c0.63-0.43,1.25-0.85,1.88-1.3l-0.9-0.06c-0.16-0.02-0.47-0.05-0.95-0.08c-0.47-0.03-1.01-0.06-1.63-0.11
				c0.02-0.03,0.03-0.08,0.03-0.13c0.01-0.05,0.03-0.09,0.03-0.14c0-0.06,0-0.11,0-0.16c0-0.05,0-0.09,0-0.14
				c0.21,0.05,0.54,0.08,0.98,0.13c0.46,0.05,1.17,0.09,2.17,0.17l0.41,0.03c0.41,0.03,0.72,0.06,0.96,0.06
				C5.56,21.21,5.66,21.21,5.74,21.21z"/>
			<path class="st0" d="M55.43,23.1c0.77,0.22,1.58,0.44,2.4,0.65c0,0.05,0,0.1,0,0.14c0,0.05,0,0.1,0,0.13
				c0,0.05,0.02,0.09,0.02,0.12c0.02,0.05,0.02,0.08,0.03,0.13c-0.81,0.32-1.61,0.65-2.45,1.01v-1.04l0.08-0.02
				c0.27-0.13,0.55-0.25,0.82-0.38c-0.28-0.1-0.57-0.17-0.87-0.27h-0.03V23.1L55.43,23.1z M55.43,27.81v-1.07
				c0.73,0.03,1.31,0.27,1.77,0.71c0.49,0.47,0.73,1.12,0.73,1.91c0,0.25-0.03,0.5-0.09,0.76c-0.06,0.25-0.16,0.5-0.29,0.76
				c-0.14-0.03-0.28-0.08-0.43-0.09c-0.16-0.03-0.32-0.06-0.49-0.08l-0.02-0.09c0.27-0.08,0.47-0.22,0.63-0.44
				c0.14-0.2,0.22-0.49,0.22-0.81c0-0.49-0.19-0.87-0.57-1.15C56.53,27.95,56.06,27.82,55.43,27.81z M52.43,22.18
				c0.84,0.27,1.71,0.54,2.59,0.81c0.14,0.03,0.29,0.08,0.41,0.11v0.47c-0.28-0.08-0.57-0.16-0.89-0.24v0.02
				c0.02,0.27,0.03,0.46,0.03,0.6c0.02,0.06,0.02,0.14,0.02,0.22c0.01,0.08,0.03,0.21,0.05,0.38c0.27-0.11,0.54-0.21,0.79-0.32v1.04
				l-0.05,0.03c-0.85,0.36-1.72,0.76-2.62,1.15c0-0.08,0-0.17,0-0.25c0-0.09,0-0.21-0.02-0.32c0-0.11-0.01-0.2-0.03-0.3
				c-0.02-0.09-0.03-0.19-0.05-0.28c0.19-0.06,0.39-0.13,0.6-0.21c0.21-0.08,0.51-0.19,0.89-0.33c0-0.09,0-0.2,0-0.32
				c-0.02-0.11-0.02-0.27-0.03-0.49c-0.03-0.21-0.03-0.38-0.05-0.49c-0.02-0.11-0.03-0.21-0.03-0.3c-0.44-0.1-0.78-0.19-0.98-0.24
				c-0.22-0.05-0.41-0.11-0.58-0.14c0-0.08,0-0.13,0.02-0.17c0-0.05,0-0.08-0.02-0.13c0-0.06-0.02-0.16-0.05-0.28
				C52.43,22.2,52.43,22.18,52.43,22.18L52.43,22.18z M55.43,26.73v1.07c-0.05,0-0.09,0-0.14,0c-0.74,0-1.31,0.13-1.71,0.41
				c-0.39,0.29-0.59,0.68-0.59,1.22c0,0.22,0.05,0.46,0.14,0.7c0.09,0.22,0.24,0.44,0.41,0.62l-0.02,0.09l-0.63-0.16
				c-0.13-0.22-0.21-0.44-0.27-0.68c-0.06-0.24-0.08-0.49-0.08-0.76c0-0.79,0.24-1.41,0.71-1.85c0.47-0.44,1.14-0.66,1.99-0.66
				C55.32,26.73,55.38,26.73,55.43,26.73z"/>
		</g>
		<path class="st0" d="M50.51,49.38v-0.1l0.09,0.05C50.58,49.35,50.55,49.36,50.51,49.38L50.51,49.38z M50.51,48.49v-0.68
			c0.19,0.14,0.36,0.25,0.55,0.38c0.03-0.03,0.06-0.06,0.11-0.11c0.03-0.05,0.09-0.11,0.19-0.21c0.18-0.2,0.35-0.39,0.47-0.57
			c0.13-0.17,0.24-0.33,0.31-0.47c0.02,0.02,0.03,0.03,0.08,0.06c0.03,0.03,0.05,0.05,0.08,0.06c0.02,0.02,0.03,0.03,0.08,0.06
			c0.03,0.02,0.06,0.05,0.08,0.06c-0.25,0.27-0.47,0.51-0.63,0.68c-0.17,0.17-0.3,0.32-0.38,0.41c-0.09,0.11-0.19,0.22-0.28,0.32
			c-0.1,0.11-0.17,0.21-0.25,0.32C50.78,48.7,50.66,48.59,50.51,48.49L50.51,48.49z M50.51,45.63v-0.58
			c0.24,0.11,0.41,0.19,0.52,0.24c0.36,0.17,0.66,0.28,0.89,0.32c0.21,0.05,0.41,0.06,0.6,0.02c0.19-0.03,0.36-0.11,0.52-0.24
			c0.16-0.13,0.28-0.28,0.39-0.47c0.11-0.19,0.18-0.38,0.19-0.57c0.02-0.19-0.01-0.36-0.11-0.52c-0.08-0.16-0.21-0.32-0.4-0.44
			c-0.19-0.14-0.55-0.33-1.07-0.57c-0.35-0.16-0.68-0.32-1-0.44c-0.17-0.1-0.36-0.17-0.54-0.25V41.7c0.18,0.08,0.33,0.16,0.47,0.24
			c0.21,0.1,0.35,0.16,0.44,0.21l0.16,0.06c0.77,0.36,1.28,0.62,1.55,0.77c0.25,0.17,0.44,0.33,0.57,0.49
			c0.16,0.24,0.24,0.49,0.24,0.77c0,0.27-0.09,0.57-0.27,0.88c-0.32,0.54-0.68,0.87-1.12,0.98c-0.43,0.13-0.96,0.03-1.6-0.25
			C50.93,45.84,50.78,45.76,50.51,45.63L50.51,45.63z M50.51,41.21c1.23,0.43,2.18,0.78,2.84,1.01c0.67,0.25,1.17,0.46,1.52,0.6
			c0-0.05,0-0.1,0-0.13c0.02-0.05,0.02-0.08,0.03-0.11c0-0.03,0.02-0.08,0.03-0.11c0.02-0.03,0.03-0.06,0.06-0.09
			c-0.35-0.09-0.8-0.22-1.36-0.4c-0.55-0.17-1.17-0.39-1.86-0.65l2.16-0.49c0.38-0.09,0.68-0.16,0.92-0.19
			c0.24-0.05,0.44-0.06,0.63-0.08l0.02-0.08c-0.32-0.19-0.73-0.47-1.23-0.88c-0.51-0.4-1.06-0.85-1.64-1.37
			c0.27,0,0.71,0.05,1.31,0.13c0.6,0.08,1.3,0.17,2.09,0.3c0-0.05,0-0.1,0-0.14c0.02-0.05,0.02-0.1,0.03-0.13
			c0.02-0.05,0.03-0.09,0.05-0.13c0.02-0.05,0.03-0.1,0.06-0.14c-1.09-0.13-2-0.22-2.73-0.32c-0.74-0.08-1.41-0.17-2.01-0.24
			l-0.02,0.08c0.62,0.49,1.19,0.95,1.69,1.37c0.51,0.41,0.98,0.81,1.4,1.18c-0.54,0.13-1.12,0.27-1.77,0.4
			c-0.63,0.14-1.37,0.28-2.23,0.46V41.21z M50.51,41.07v0.14l-0.08-0.03l0.03-0.09L50.51,41.07L50.51,41.07z M50.51,41.7v0.41
			c-0.13-0.05-0.25-0.11-0.38-0.16c0.03-0.02,0.05-0.05,0.06-0.08c0.01-0.02,0.05-0.05,0.06-0.08c0.02-0.03,0.03-0.06,0.05-0.09
			c0-0.03,0.02-0.06,0.03-0.1L50.51,41.7L50.51,41.7z M50.51,45.05v0.58l0,0c-0.28-0.14-0.55-0.27-0.8-0.38
			c-0.19-0.09-0.52-0.24-0.98-0.44c-0.08-0.03-0.14-0.05-0.17-0.06c0.03-0.03,0.05-0.06,0.08-0.11c0.03-0.03,0.05-0.08,0.08-0.13
			c0.03-0.05,0.05-0.1,0.08-0.14c0.02-0.03,0.03-0.08,0.05-0.13c0.51,0.25,0.96,0.47,1.37,0.66L50.51,45.05L50.51,45.05z
			 M50.51,47.81v0.68c-0.16-0.13-0.31-0.25-0.49-0.38c-0.28-0.22-0.59-0.44-0.89-0.65c-0.33-0.25-0.63-0.47-0.93-0.68
			c-0.17-0.13-0.35-0.24-0.51-0.35v-0.71l0,0c0.33,0.25,0.66,0.51,0.96,0.74c0.32,0.24,0.62,0.46,0.89,0.66
			c0.28,0.2,0.55,0.39,0.79,0.57C50.4,47.73,50.45,47.78,50.51,47.81L50.51,47.81z M50.51,49.28c-0.73-0.33-1.45-0.66-2.18-1.01
			c-0.22-0.1-0.43-0.19-0.63-0.28v0.55c0.05,0.03,0.08,0.05,0.11,0.06l0.28,0.14c-0.11,0.08-0.24,0.17-0.39,0.28v0.02v0.33
			l0.03-0.03c0.19-0.14,0.32-0.24,0.41-0.3c0.08-0.06,0.17-0.13,0.25-0.17l0.25,0.11c0.25,0.13,0.51,0.25,0.74,0.36
			c0.25,0.13,0.47,0.25,0.69,0.38c0.05-0.05,0.1-0.09,0.13-0.13c0.05-0.03,0.08-0.06,0.13-0.1c0.03-0.03,0.08-0.06,0.13-0.09
			c0.02-0.02,0.03-0.02,0.05-0.03V49.28L50.51,49.28z M47.7,51.51v-0.1l0.03,0.1C47.72,51.51,47.7,51.51,47.7,51.51z M47.7,45.73
			v0.71c-0.14-0.1-0.27-0.19-0.39-0.27c0.03-0.03,0.08-0.06,0.11-0.1c0.03-0.03,0.08-0.08,0.11-0.13c0.03-0.03,0.06-0.08,0.09-0.11
			C47.65,45.8,47.67,45.76,47.7,45.73L47.7,45.73z M47.7,47.99v0.55c-0.06-0.02-0.13-0.05-0.22-0.1c-0.14-0.06-0.38-0.17-0.7-0.32
			v-0.58C47.09,47.7,47.39,47.84,47.7,47.99L47.7,47.99z M47.7,49.04v0.33c-0.16,0.11-0.28,0.2-0.36,0.27
			c-0.09,0.08-0.17,0.14-0.24,0.19c0.08,0.24,0.16,0.49,0.27,0.76c0.09,0.24,0.2,0.52,0.33,0.82v0.1c-0.03,0.02-0.05,0.03-0.08,0.05
			c-0.03,0.02-0.06,0.03-0.08,0.05c-0.03,0.03-0.06,0.05-0.08,0.08c-0.03,0.02-0.05,0.05-0.08,0.08c-0.22-0.69-0.41-1.36-0.6-1.96
			v-0.89l0.21,0.65c0.02-0.01,0.08-0.05,0.17-0.11c0.08-0.08,0.16-0.13,0.24-0.19C47.45,49.23,47.54,49.15,47.7,49.04L47.7,49.04z
			 M46.79,52.06c0-0.02,0.02-0.02,0.02-0.02c0.05-0.03,0.09-0.05,0.14-0.06c0.05-0.02,0.1-0.03,0.14-0.05l-0.3-0.4V52.06z
			 M46.79,47.54v0.58l-0.32-0.14l0.32,0.93v0.89c-0.06-0.16-0.11-0.32-0.16-0.47c-0.24-0.73-0.46-1.41-0.68-2.05l0.11-0.08
			C46.29,47.32,46.53,47.43,46.79,47.54L46.79,47.54z M46.79,51.54c-0.52-0.63-0.95-1.17-1.31-1.63c-0.43-0.54-0.81-1.03-1.15-1.49
			l-0.08,0.05c0.02,0.74,0.03,1.44,0.03,2.05c0,0.62,0,1.2,0,1.74c-0.47-0.27-1-0.57-1.53-0.9c-0.55-0.32-1.2-0.71-1.94-1.17
			l-0.1,0.05c0.51,1.14,0.88,2.02,1.14,2.62c0.25,0.62,0.44,1.07,0.55,1.41c0.03-0.03,0.08-0.05,0.11-0.08
			c0.03-0.02,0.06-0.05,0.11-0.06c0.03-0.02,0.06-0.03,0.11-0.05c0.03-0.02,0.08-0.02,0.13-0.03c-0.17-0.28-0.38-0.66-0.62-1.15
			c-0.24-0.49-0.47-1.04-0.74-1.66l1.88,1.07c0.33,0.19,0.58,0.35,0.77,0.47c0.19,0.13,0.35,0.25,0.49,0.36l0.08-0.03
			c-0.06-0.33-0.11-0.8-0.12-1.42c-0.02-0.6-0.02-1.28,0-2.02c0.17,0.19,0.44,0.5,0.79,0.95c0.35,0.44,0.74,0.98,1.17,1.58
			c0.05-0.03,0.1-0.06,0.14-0.1c0.02-0.02,0.05-0.03,0.09-0.05V51.54L46.79,51.54z M37.1,55.92v-0.25c0.19-0.02,0.4-0.03,0.6-0.1
			c0.57-0.14,0.95-0.41,1.15-0.82c0.19-0.4,0.2-0.9,0.02-1.5c-0.21-0.6-0.51-1.03-0.9-1.26c-0.25-0.16-0.54-0.24-0.87-0.22v-0.25
			c0.47-0.03,0.9,0.03,1.28,0.22c0.55,0.27,0.93,0.71,1.14,1.36c0.21,0.63,0.14,1.19-0.17,1.69c-0.33,0.49-0.85,0.84-1.56,1.03
			C37.54,55.85,37.32,55.9,37.1,55.92z M37.1,51.51v0.25c-0.17,0-0.38,0.03-0.59,0.08c-0.57,0.14-0.95,0.43-1.15,0.82
			c-0.21,0.41-0.21,0.92-0.02,1.52c0.19,0.6,0.49,1.01,0.9,1.25c0.25,0.16,0.54,0.24,0.85,0.24v0.25c-0.47,0.03-0.9-0.05-1.28-0.22
			c-0.55-0.27-0.93-0.71-1.14-1.36c-0.19-0.63-0.14-1.2,0.17-1.69c0.33-0.51,0.85-0.84,1.58-1.03
			C36.67,51.56,36.89,51.53,37.1,51.51L37.1,51.51z M27.26,56.9v-0.24c0.55,0,0.98-0.16,1.29-0.46c0.33-0.33,0.51-0.81,0.54-1.42
			c0.02-0.65-0.13-1.14-0.41-1.47c-0.3-0.33-0.76-0.52-1.34-0.54c-0.03,0-0.06,0-0.08,0v-0.24c0.03,0,0.05,0,0.08,0.02
			c0.78,0.02,1.38,0.24,1.82,0.63c0.43,0.41,0.63,0.95,0.62,1.61c-0.03,0.65-0.28,1.17-0.76,1.55C28.55,56.72,27.97,56.9,27.26,56.9
			L27.26,56.9z M30.53,56.79c-0.03-0.55-0.08-1.12-0.14-1.72c-0.05-0.6-0.11-1.23-0.19-1.88l-0.08-0.65l0.13-0.02
			c0.55,0.46,1.12,0.92,1.71,1.37c0.59,0.47,1.25,0.98,2.01,1.52c0-0.02-0.01-0.05-0.01-0.1c-0.02-0.2-0.03-0.35-0.03-0.44
			c-0.06-0.49-0.13-0.95-0.19-1.39c-0.06-0.44-0.11-0.84-0.17-1.2c0.06,0.02,0.11,0.02,0.14,0.02c0.03,0,0.05,0,0.08-0.02
			c0.03,0,0.05,0,0.08,0c0.03-0.02,0.08-0.02,0.13-0.03c0.05,0.46,0.08,0.93,0.13,1.41c0.05,0.47,0.09,0.96,0.16,1.45
			c0.02,0.17,0.05,0.38,0.06,0.58c0.03,0.2,0.06,0.47,0.11,0.81h-0.09c-0.22-0.21-0.5-0.44-0.82-0.7c-0.32-0.27-0.69-0.55-1.11-0.88
			l-1.83-1.39c0,0.05,0.02,0.16,0.03,0.35c0.02,0.19,0.03,0.33,0.05,0.44c0.03,0.25,0.06,0.57,0.13,0.95
			c0.05,0.4,0.13,0.88,0.21,1.47c-0.03,0-0.08,0-0.11-0.02c-0.05,0-0.08,0.02-0.11,0.02c-0.05,0-0.08,0-0.11,0.02
			C30.61,56.76,30.58,56.77,30.53,56.79z M27.26,52.54v0.24c-0.55,0-1,0.16-1.3,0.47c-0.33,0.33-0.52,0.81-0.54,1.44
			c-0.03,0.62,0.11,1.09,0.41,1.44c0.32,0.33,0.76,0.52,1.34,0.54c0.03,0,0.05,0,0.08,0v0.24c-0.03,0-0.07,0-0.08,0
			c-0.79-0.03-1.39-0.24-1.83-0.65c-0.41-0.4-0.62-0.93-0.58-1.61c0.02-0.66,0.27-1.18,0.73-1.56
			C25.95,52.71,26.53,52.54,27.26,52.54L27.26,52.54z M23.05,56.33v-0.35c0.02-0.02,0.03-0.02,0.05-0.02
			c0.25-0.13,0.43-0.35,0.49-0.63c0.08-0.31,0.03-0.57-0.14-0.76c-0.1-0.11-0.24-0.19-0.4-0.27v-0.32c0.16-0.02,0.3-0.05,0.43-0.09
			c0.24-0.11,0.4-0.3,0.46-0.58c0.06-0.25,0.01-0.46-0.14-0.62c-0.16-0.17-0.41-0.28-0.74-0.35v-0.22l0.06,0.02
			c0.57,0.11,0.98,0.27,1.2,0.46c0.24,0.2,0.31,0.46,0.24,0.79c-0.06,0.25-0.21,0.46-0.43,0.58c-0.22,0.13-0.54,0.19-0.93,0.17
			c0.43,0.13,0.71,0.28,0.88,0.49c0.16,0.21,0.21,0.44,0.14,0.74c-0.1,0.39-0.33,0.68-0.68,0.82C23.4,56.27,23.23,56.31,23.05,56.33
			z M23.05,52.13v0.22l-0.03-0.02c-0.08,0-0.14-0.02-0.22-0.03c-0.08,0-0.16-0.02-0.27-0.02c-0.03,0.09-0.06,0.22-0.09,0.35
			c-0.05,0.13-0.08,0.25-0.11,0.41l-0.19,0.81c0.06,0.02,0.13,0.03,0.19,0.05c0.07,0.02,0.11,0.03,0.18,0.05
			c0.2,0.03,0.38,0.05,0.55,0.05v0.32c-0.16-0.06-0.33-0.11-0.52-0.14c-0.08-0.02-0.22-0.03-0.41-0.06c-0.03,0-0.05,0-0.08,0
			l-0.13,0.58c-0.08,0.3-0.13,0.54-0.16,0.73c-0.05,0.17-0.06,0.35-0.09,0.47c0.08,0.05,0.16,0.06,0.24,0.09
			c0.07,0.02,0.14,0.03,0.21,0.05c0.38,0.08,0.68,0.06,0.95-0.05v0.35c-0.27,0.02-0.58,0-0.93-0.06c-0.11-0.02-0.24-0.05-0.41-0.1
			c-0.17-0.05-0.3-0.06-0.36-0.08c-0.03-0.02-0.08-0.02-0.13-0.02c-0.05-0.02-0.13-0.02-0.22-0.03c0.06-0.19,0.13-0.41,0.21-0.66
			c0.06-0.24,0.14-0.57,0.24-0.98c0.14-0.57,0.25-1.06,0.33-1.45c0.09-0.41,0.16-0.76,0.2-1.01c0.03,0.02,0.08,0.02,0.13,0.03
			c0.09,0.02,0.16,0.03,0.19,0.05c0.05,0,0.16,0.02,0.35,0.05C22.78,52.08,22.93,52.11,23.05,52.13L23.05,52.13z M15.09,53.5v-0.9
			c0.05-0.11,0.11-0.22,0.16-0.33c0.27-0.54,0.55-1.12,0.84-1.72l0.28-0.6l0.11,0.05c0.24,0.63,0.49,1.29,0.74,1.94
			c0.27,0.66,0.58,1.41,0.95,2.21c0-0.03,0.02-0.05,0.05-0.1c0.1-0.19,0.16-0.33,0.19-0.41c0.22-0.44,0.43-0.88,0.6-1.3
			c0.19-0.41,0.35-0.79,0.49-1.12c0.05,0.03,0.1,0.05,0.11,0.06c0.03,0.02,0.05,0.03,0.08,0.03c0.03,0.02,0.05,0.03,0.08,0.03
			c0.03,0.02,0.08,0.02,0.13,0.03c-0.22,0.43-0.44,0.85-0.65,1.28c-0.22,0.44-0.44,0.88-0.65,1.34c-0.08,0.17-0.17,0.35-0.25,0.54
			c-0.1,0.19-0.21,0.44-0.35,0.76l-0.08-0.03c-0.1-0.3-0.21-0.62-0.35-0.98c-0.13-0.36-0.3-0.79-0.49-1.25l-0.84-2.02
			c-0.03,0.03-0.08,0.14-0.17,0.32c-0.08,0.17-0.16,0.3-0.21,0.41c-0.11,0.24-0.24,0.52-0.39,0.89
			C15.36,52.88,15.23,53.17,15.09,53.5L15.09,53.5z M15.09,50.61c0.14-0.22,0.25-0.4,0.35-0.54c0.11-0.16,0.21-0.3,0.3-0.41
			c-0.05-0.02-0.09-0.03-0.14-0.05c-0.04-0.02-0.09-0.05-0.16-0.08c-0.05-0.02-0.09-0.05-0.13-0.08c-0.05-0.01-0.09-0.05-0.13-0.08
			c-0.03,0.06-0.06,0.13-0.1,0.19V50.61z M15.09,49.57v1.04l-0.06,0.08l-0.49,0.77l-0.57,0.89c-0.17,0.28-0.3,0.47-0.38,0.6
			c-0.08,0.13-0.13,0.25-0.17,0.35c-0.05-0.03-0.08-0.05-0.13-0.08c-0.05-0.03-0.08-0.05-0.14-0.08l0,0v-0.52
			c0.03-0.06,0.08-0.11,0.11-0.17c0.14-0.21,0.32-0.46,0.52-0.77l0.28-0.44c0.36-0.57,0.62-0.98,0.76-1.22
			C14.92,49.85,15.01,49.69,15.09,49.57L15.09,49.57z M15.09,52.6c-0.22,0.43-0.44,0.84-0.66,1.25c0.05,0,0.1,0.02,0.13,0.02
			c0.05,0.02,0.08,0.03,0.11,0.03c0.03,0.02,0.06,0.03,0.1,0.05c0.05,0.02,0.08,0.05,0.11,0.06c0.08-0.17,0.14-0.35,0.22-0.51V52.6
			L15.09,52.6z M13.15,48.54V48.1c0.09,0.06,0.19,0.13,0.28,0.19c-0.01,0.02-0.03,0.05-0.06,0.08c-0.03,0.02-0.05,0.05-0.06,0.06
			c-0.02,0.02-0.03,0.03-0.06,0.06c-0.02,0.03-0.05,0.06-0.06,0.08L13.15,48.54z M13.15,48.1v0.44c-0.17-0.16-0.36-0.3-0.55-0.46
			c-0.21-0.16-0.41-0.32-0.63-0.47l-0.13-0.1c-0.16,0.19-0.32,0.36-0.47,0.52c-0.16,0.17-0.3,0.33-0.43,0.49l-0.17,0.19l0.1,0.06
			c0.16,0.11,0.33,0.24,0.54,0.38c0.21,0.13,0.41,0.27,0.65,0.43c-0.03,0.03-0.06,0.05-0.08,0.08c-0.03,0.02-0.05,0.03-0.06,0.06
			c-0.02,0.02-0.03,0.03-0.05,0.05c-0.02,0.03-0.03,0.05-0.06,0.08c-0.08-0.06-0.17-0.16-0.28-0.25c-0.13-0.1-0.35-0.27-0.68-0.51
			l-0.25-0.17l-0.21,0.22l-0.35,0.4v-0.79l0.16-0.19c0.32-0.35,0.58-0.65,0.8-0.92c0.22-0.25,0.41-0.49,0.58-0.71
			c0.06,0.06,0.14,0.13,0.24,0.19c0.08,0.06,0.22,0.16,0.41,0.3c0.24,0.17,0.46,0.33,0.65,0.46C12.96,47.95,13.05,48.02,13.15,48.1
			L13.15,48.1z M13.15,52.62v0.52c-0.05-0.03-0.09-0.05-0.14-0.08c-0.05-0.02-0.09-0.03-0.14-0.05
			C12.96,52.88,13.05,52.76,13.15,52.62L13.15,52.62z M10.02,51.18v-0.39l0.02,0.02c0.22,0.14,0.47,0.32,0.74,0.47
			c-0.02,0.02-0.03,0.05-0.06,0.08c-0.03,0.03-0.05,0.05-0.06,0.06c-0.01,0.02-0.05,0.05-0.06,0.08c-0.03,0.03-0.05,0.06-0.06,0.08
			c-0.1-0.08-0.21-0.17-0.33-0.25C10.14,51.27,10.08,51.22,10.02,51.18L10.02,51.18z M10.02,45.71c0.16,0.09,0.33,0.22,0.48,0.4
			c0.21,0.21,0.33,0.43,0.38,0.65c0.05,0.22,0.03,0.46-0.05,0.73c0.08-0.06,0.16-0.13,0.25-0.17c0.09-0.05,0.21-0.1,0.32-0.14
			c-0.06-0.21-0.14-0.41-0.25-0.62c-0.13-0.21-0.27-0.39-0.44-0.58c-0.22-0.22-0.44-0.41-0.68-0.55V45.71z M10.02,45.41v0.3
			C9.77,45.58,9.5,45.5,9.2,45.5c-0.49,0.02-0.99,0.21-1.52,0.6v-0.77c0.43-0.21,0.87-0.3,1.33-0.25
			C9.37,45.11,9.7,45.22,10.02,45.41L10.02,45.41z M10.02,48.74v0.79L9.78,49.8c-0.16,0.17-0.32,0.33-0.46,0.51l0.14,0.09
			c0.14,0.11,0.33,0.24,0.55,0.38v0.39C9.91,51.1,9.78,51,9.62,50.89c-0.27-0.19-0.46-0.33-0.6-0.43c-0.14-0.11-0.27-0.19-0.39-0.29
			c0.21-0.19,0.43-0.41,0.66-0.66C9.51,49.3,9.75,49.03,10.02,48.74L10.02,48.74z M7.68,49.3v-0.32c0.03,0,0.05,0.02,0.08,0.03
			c0.24,0.11,0.49,0.21,0.79,0.25l-0.38,0.22C8.01,49.46,7.85,49.39,7.68,49.3L7.68,49.3z M7.68,45.21
			c0.49-0.18,0.96-0.35,1.45-0.52c-0.03-0.05-0.06-0.08-0.08-0.11c-0.01-0.02-0.03-0.05-0.03-0.06c-0.01-0.02-0.03-0.05-0.03-0.08
			c-0.02-0.02-0.03-0.06-0.05-0.11c-0.35,0.16-0.74,0.33-1.2,0.52l-0.06,0.03V45.21z M5.31,37.05c0.3-0.19,0.62-0.38,0.9-0.55
			c0,0.05,0,0.1,0.02,0.14c0,0.05,0.02,0.1,0.03,0.16c0.02,0.05,0.02,0.1,0.03,0.14c0.02,0.05,0.03,0.09,0.06,0.14
			c-0.35,0.19-0.7,0.38-1.04,0.58V37.05L5.31,37.05z M5.31,39.56c0.57,0.08,1.12,0.14,1.68,0.2c0,0.03,0,0.06,0,0.1
			C6.98,39.9,7,39.93,7,39.97c0.02,0.03,0.02,0.08,0.03,0.11c0.02,0.03,0.03,0.06,0.04,0.08c-0.58-0.09-1.18-0.19-1.77-0.28V39.56
			L5.31,39.56z M7.68,44.87v0.33l-0.02,0.02c-0.49,0.17-0.98,0.38-1.48,0.58C6,45.87,5.8,45.95,5.59,46.04l-0.29,0.11v-0.93
			c0.14-0.32,0.32-0.66,0.51-1.06l0.92-1.99c-0.05,0.02-0.17,0.05-0.36,0.13c-0.19,0.06-0.35,0.13-0.47,0.17
			c-0.16,0.06-0.36,0.14-0.58,0.25v-0.35c0.54-0.21,1.09-0.43,1.66-0.65l0.66-0.27l0.05,0.11c-0.32,0.6-0.62,1.23-0.93,1.88
			c-0.3,0.65-0.63,1.37-0.98,2.18c0.02,0,0.05-0.02,0.1-0.03c0.22-0.08,0.38-0.14,0.46-0.17C6.79,45.24,7.25,45.05,7.68,44.87
			L7.68,44.87z M7.68,45.33c-0.16,0.08-0.3,0.17-0.46,0.3c-0.58,0.44-0.92,0.92-0.96,1.45c-0.07,0.54,0.16,1.06,0.65,1.58
			c0.21,0.22,0.43,0.41,0.63,0.55c0.05,0.03,0.09,0.06,0.14,0.08v-0.32c-0.21-0.13-0.38-0.25-0.54-0.41
			c-0.35-0.38-0.48-0.79-0.38-1.22c0.09-0.44,0.4-0.85,0.9-1.23l0.02-0.02V45.33L7.68,45.33z M5.31,41.35v-0.52
			c0.49-0.14,0.87-0.25,1.09-0.33c0.3-0.1,0.54-0.17,0.74-0.25c0.02,0.05,0.02,0.1,0.03,0.14c0.02,0.03,0.03,0.08,0.05,0.14
			c0.02,0.05,0.03,0.1,0.06,0.14c0.02,0.03,0.03,0.08,0.06,0.13c-0.16,0.03-0.33,0.06-0.52,0.13c-0.19,0.05-0.46,0.11-0.77,0.21
			L5.31,41.35z M2.04,39c0.82-0.47,1.58-0.92,2.26-1.33c0.35-0.21,0.68-0.41,1.01-0.62v0.62c-0.24,0.14-0.47,0.28-0.71,0.41
			c-0.6,0.36-1.2,0.73-1.83,1.11c0.73,0.11,1.44,0.22,2.15,0.33c0.13,0.02,0.25,0.03,0.4,0.05v0.32c-0.22-0.05-0.44-0.08-0.66-0.11
			c-0.82-0.13-1.66-0.25-2.51-0.38c0-0.03,0-0.08,0-0.11c0-0.03-0.02-0.06-0.02-0.09c-0.01-0.03-0.01-0.06-0.03-0.1
			C2.07,39.06,2.05,39.03,2.04,39L2.04,39z M5.31,40.83v0.52L5.1,41.41l-1.06,0.32C3.7,41.82,3.46,41.9,3.3,41.95
			c-0.14,0.05-0.28,0.09-0.4,0.14c0-0.05-0.02-0.09-0.02-0.14c-0.02-0.03-0.03-0.08-0.05-0.14c-0.02-0.05-0.05-0.09-0.06-0.14
			c-0.02-0.03-0.05-0.08-0.06-0.13c0.22-0.05,0.46-0.1,0.71-0.18c0.27-0.06,0.58-0.16,0.98-0.27l0.54-0.16L5.31,40.83L5.31,40.83z
			 M5.31,42.38v0.35c-0.12,0.05-0.24,0.1-0.38,0.14c-0.38,0.17-0.88,0.38-1.47,0.65c-0.01-0.05-0.01-0.08-0.03-0.11
			c-0.02-0.03-0.03-0.06-0.05-0.1c-0.02-0.03-0.03-0.06-0.05-0.09c-0.02-0.02-0.05-0.05-0.06-0.1c0.57-0.19,1.15-0.41,1.78-0.65
			C5.14,42.44,5.22,42.41,5.31,42.38L5.31,42.38z M5.31,45.22v0.93c-0.16,0.06-0.33,0.14-0.54,0.22l-0.03-0.06
			c0.14-0.27,0.32-0.59,0.49-0.93L5.31,45.22z"/>
		<path class="st85" d="M55.34,32.72c0.6,0,1.09,0.49,1.09,1.08c0,0.6-0.49,1.09-1.09,1.09c-0.59,0-1.08-0.49-1.08-1.09
			C54.26,33.21,54.75,32.72,55.34,32.72z"/>
		<g>
			<path class="st0" d="M58.22,33.22h0.23l0.34,1.01l0.34-1.01h0.23v1.19h-0.15v-0.7c0-0.02,0-0.07,0-0.12c0-0.06,0-0.12,0-0.18
				l-0.34,1.01h-0.16l-0.34-1.01v0.04c0,0.03,0,0.07,0,0.13c0,0.06,0,0.1,0,0.13v0.7h-0.15V33.22z"/>
			<path class="st0" d="M59.62,33.22h0.54c0.09,0,0.16,0.01,0.22,0.04c0.11,0.05,0.17,0.14,0.17,0.28c0,0.07-0.01,0.13-0.04,0.18
				c-0.03,0.05-0.07,0.08-0.12,0.11c0.05,0.02,0.08,0.04,0.11,0.08c0.02,0.03,0.04,0.08,0.04,0.15l0.01,0.16
				c0,0.04,0.01,0.08,0.01,0.1c0.01,0.04,0.03,0.06,0.05,0.07v0.03h-0.2c-0.01-0.01-0.01-0.02-0.01-0.04c0-0.02-0.01-0.05-0.01-0.09
				l-0.01-0.2c0-0.08-0.03-0.13-0.08-0.16c-0.03-0.01-0.08-0.02-0.14-0.02h-0.36v0.51h-0.16V33.22z M60.15,33.76
				c0.07,0,0.13-0.02,0.18-0.05c0.04-0.03,0.06-0.08,0.06-0.16c0-0.09-0.03-0.14-0.09-0.17c-0.03-0.02-0.07-0.02-0.13-0.02h-0.38
				v0.41H60.15z"/>
		</g>
	</g>
</g>
<g id="Capa_6">
</g>
<g id="Capa_5">
</g>
</svg>
