<?xml version="1.0" encoding="utf-8"?>
<!-- Generator: Adobe Illustrator 24.0.3, SVG Export Plug-In . SVG Version: 6.00 Build 0)  -->
<svg version="1.1" xmlns="http://www.w3.org/2000/svg" xmlns:xlink="http://www.w3.org/1999/xlink" x="0px" y="0px"
	 viewBox="0 0 88.01 30.85" style="enable-background:new 0 0 88.01 30.85;" xml:space="preserve">
<style type="text/css">
	.st0{fill:#FFFFFF;}
	.st1{fill:url(#SVGID_1_);}
	.st2{fill:#E7004C;}
	.st3{fill:none;stroke:#00B2E3;stroke-miterlimit:10;}
	.st4{fill:url(#SVGID_2_);}
	.st5{fill:#FCFCFC;}
	.st6{fill:url(#SVGID_3_);}
	.st7{fill:url(#SVGID_4_);}
	.st8{opacity:0.8;fill:#E7004C;}
	.st9{opacity:0.7;fill:#E7004C;}
	.st10{opacity:0.7;}
	.st11{fill:#00B2E3;}
	.st12{opacity:0.8;fill:#00B2E3;}
	.st13{opacity:0.7;fill:#00B2E3;}
	.st14{fill:#BBBBBB;}
	.st15{opacity:0.8;fill:#BBBBBB;}
	.st16{opacity:0.7;fill:#BBBBBB;}
	.st17{fill:url(#SVGID_5_);}
	.st18{fill:url(#SVGID_6_);}
	.st19{fill:none;stroke:#E7004C;stroke-width:2;stroke-miterlimit:10;}
	.st20{fill:url(#SVGID_7_);}
	.st21{fill:url(#SVGID_8_);}
	.st22{fill:url(#SVGID_9_);}
	.st23{fill:none;stroke:#FFFFFF;stroke-miterlimit:10;}
	.st24{fill:none;stroke:#E7004C;stroke-miterlimit:10;}
	.st25{fill-rule:evenodd;clip-rule:evenodd;fill:#E7004C;}
	.st26{fill:none;stroke:#000000;stroke-miterlimit:10;}
	.st27{fill:#38A8E0;}
	.st28{clip-path:url(#SVGID_11_);fill:#00B2E3;}
	.st29{fill:none;stroke:#E7004C;stroke-width:3;stroke-miterlimit:10;}
	.st30{clip-path:url(#SVGID_13_);}
	.st31{fill:none;stroke:#FFFFFF;stroke-width:2;stroke-miterlimit:10;}
	.st32{fill:none;stroke:#FFFFFF;stroke-width:3;stroke-miterlimit:10;}
	.st33{clip-path:url(#SVGID_15_);}
	.st34{fill:url(#SVGID_16_);}
	.st35{fill:none;stroke:#FFFFFF;stroke-width:0.5;stroke-miterlimit:10;}
	.st36{clip-path:url(#SVGID_18_);fill:#00B2E3;}
	.st37{clip-path:url(#SVGID_20_);}
	.st38{clip-path:url(#SVGID_22_);}
	.st39{fill:url(#SVGID_23_);}
	.st40{clip-path:url(#SVGID_25_);}
	.st41{fill:url(#SVGID_26_);}
	.st42{fill:url(#SVGID_27_);}
	.st43{fill:url(#SVGID_28_);}
	.st44{fill:url(#SVGID_29_);}
	.st45{clip-path:url(#SVGID_31_);fill:#00B2E3;}
	.st46{clip-path:url(#SVGID_33_);}
	.st47{clip-path:url(#SVGID_35_);}
	.st48{fill:url(#SVGID_36_);}
	.st49{clip-path:url(#SVGID_38_);}
	.st50{clip-path:url(#SVGID_40_);}
	.st51{fill:#280210;}
	.st52{opacity:0.5;}
	.st53{opacity:0.6;}
	.st54{fill:url(#SVGID_41_);}
	.st55{fill:url(#SVGID_42_);}
	.st56{fill:url(#SVGID_43_);}
	.st57{fill:url(#SVGID_44_);}
	.st58{opacity:0.8;}
	.st59{opacity:0.9;}
	.st60{fill:url(#SVGID_45_);}
	.st61{clip-path:url(#SVGID_47_);}
	.st62{clip-path:url(#SVGID_49_);}
	.st63{fill:url(#SVGID_50_);}
	.st64{clip-path:url(#SVGID_52_);}
	.st65{fill:url(#SVGID_53_);}
	.st66{clip-path:url(#SVGID_55_);}
	.st67{fill:url(#SVGID_56_);}
	.st68{clip-path:url(#SVGID_58_);}
	.st69{clip-path:url(#SVGID_60_);fill:#00B2E3;}
	.st70{clip-path:url(#SVGID_62_);}
	.st71{clip-path:url(#SVGID_64_);}
	.st72{fill:none;stroke:#FFFFFF;stroke-width:5;stroke-miterlimit:10;}
	.st73{clip-path:url(#SVGID_66_);fill:#00B2E3;}
	.st74{clip-path:url(#SVGID_68_);}
	.st75{clip-path:url(#SVGID_70_);}
	.st76{clip-path:url(#SVGID_72_);fill:#00B2E3;}
	.st77{clip-path:url(#SVGID_74_);}
	.st78{fill:#5B0323;}
	.st79{fill:url(#SVGID_75_);}
	.st80{fill:url(#SVGID_76_);}
	.st81{fill:url(#SVGID_77_);}
	.st82{clip-path:url(#SVGID_80_);fill:#00B2E3;}
	.st83{clip-path:url(#SVGID_84_);}
	.st84{clip-path:url(#SVGID_86_);}
	.st85{fill-rule:evenodd;clip-rule:evenodd;fill:#FFFFFF;}
	.st86{fill:#E5E5E5;}
	.st87{clip-path:url(#SVGID_88_);}
	.st88{fill-rule:evenodd;clip-rule:evenodd;fill:none;stroke:#E7004C;stroke-width:3;stroke-miterlimit:10;}
	.st89{fill:#070101;}
	.st90{fill:none;stroke:#068FFF;stroke-width:5;stroke-miterlimit:10;}
</style>
<g id="Capa_2">
</g>
<g id="Capa_1">
</g>
<g id="Capa_3">
</g>
<g id="Capa_4">
	<g>
		<g>
			<g>
				<g>
					<g>
						<g>
							<g>
								<g>
									<g>
										<path class="st0" d="M9.71,27.69c0.05,0.07,0.11,0.12,0.17,0.17c0.06,0.04,0.14,0.06,0.24,0.06c0.04,0,0.08,0,0.12-0.01
											c0.04-0.01,0.08-0.03,0.11-0.05c0.03-0.02,0.06-0.05,0.08-0.08c0.02-0.03,0.03-0.07,0.03-0.12c0-0.05-0.01-0.08-0.03-0.11
											c-0.02-0.03-0.05-0.05-0.08-0.07c-0.03-0.02-0.07-0.04-0.11-0.05c-0.04-0.01-0.08-0.02-0.13-0.03
											c-0.08-0.02-0.15-0.04-0.22-0.06c-0.07-0.02-0.13-0.05-0.18-0.08c-0.05-0.03-0.09-0.08-0.12-0.13
											c-0.03-0.06-0.05-0.13-0.05-0.21c0-0.08,0.02-0.15,0.05-0.22c0.03-0.06,0.08-0.11,0.14-0.15
											c0.06-0.04,0.12-0.07,0.19-0.09c0.07-0.02,0.14-0.03,0.22-0.03c0.11,0,0.22,0.02,0.32,0.07c0.1,0.05,0.17,0.13,0.23,0.23
											l-0.22,0.15c-0.03-0.06-0.08-0.11-0.14-0.15s-0.12-0.06-0.2-0.06c-0.04,0-0.07,0-0.11,0.01c-0.04,0.01-0.07,0.02-0.1,0.04
											c-0.03,0.02-0.05,0.04-0.07,0.07c-0.02,0.03-0.03,0.06-0.03,0.1c0,0.04,0.01,0.07,0.03,0.09
											c0.02,0.03,0.05,0.05,0.09,0.07c0.04,0.02,0.08,0.04,0.13,0.05c0.05,0.01,0.1,0.03,0.15,0.04
											c0.07,0.01,0.14,0.03,0.2,0.06c0.06,0.02,0.12,0.05,0.17,0.09c0.05,0.04,0.09,0.09,0.11,0.14
											c0.03,0.06,0.04,0.13,0.04,0.21c0,0.1-0.02,0.18-0.05,0.24c-0.04,0.07-0.09,0.12-0.15,0.16
											c-0.06,0.04-0.13,0.07-0.21,0.09c-0.08,0.02-0.15,0.03-0.23,0.03c-0.14,0-0.26-0.02-0.35-0.07s-0.19-0.13-0.27-0.25
											L9.71,27.69z"/>
										<path class="st0" d="M12.94,27.29c0-0.13,0.02-0.25,0.06-0.36c0.04-0.11,0.1-0.2,0.18-0.28c0.08-0.08,0.17-0.14,0.27-0.18
											c0.1-0.04,0.22-0.06,0.34-0.06c0.12,0,0.24,0.02,0.34,0.06c0.11,0.04,0.2,0.1,0.27,0.18c0.08,0.08,0.13,0.17,0.18,0.28
											c0.04,0.11,0.07,0.23,0.07,0.36s-0.02,0.25-0.07,0.36c-0.04,0.11-0.1,0.2-0.18,0.28c-0.08,0.08-0.17,0.14-0.27,0.18
											c-0.11,0.04-0.22,0.06-0.34,0.06c-0.12,0-0.24-0.02-0.34-0.06c-0.11-0.04-0.2-0.1-0.27-0.18
											c-0.08-0.08-0.13-0.17-0.18-0.28C12.96,27.54,12.94,27.42,12.94,27.29z M13.23,27.29c0,0.09,0.01,0.17,0.04,0.25
											s0.06,0.14,0.11,0.2c0.05,0.06,0.11,0.1,0.18,0.13s0.15,0.05,0.23,0.05c0.09,0,0.16-0.02,0.23-0.05s0.13-0.08,0.18-0.13
											c0.05-0.06,0.09-0.12,0.11-0.2s0.04-0.16,0.04-0.25s-0.01-0.17-0.04-0.25s-0.06-0.14-0.11-0.2
											c-0.05-0.06-0.11-0.1-0.18-0.13c-0.07-0.03-0.15-0.05-0.23-0.05c-0.09,0-0.17,0.02-0.23,0.05
											c-0.07,0.03-0.13,0.08-0.18,0.13c-0.05,0.06-0.09,0.12-0.11,0.2S13.23,27.2,13.23,27.29z"/>
										<path class="st0" d="M17,25.41h0.27v2.72H17V25.41z"/>
										<path class="st0" d="M21.1,27.73c0,0.08,0,0.15,0.01,0.22c0,0.07,0.01,0.13,0.01,0.18h-0.25c0-0.05,0-0.09,0-0.14
											c0-0.05,0-0.09,0-0.14h-0.01c-0.02,0.04-0.04,0.08-0.08,0.12c-0.03,0.04-0.07,0.07-0.12,0.1
											c-0.05,0.03-0.1,0.05-0.15,0.07c-0.06,0.02-0.12,0.03-0.18,0.03c-0.11,0-0.2-0.02-0.27-0.05
											c-0.08-0.03-0.14-0.08-0.19-0.14c-0.05-0.06-0.09-0.13-0.11-0.22c-0.02-0.09-0.04-0.18-0.04-0.28v-1.04h0.27v1.01
											c0,0.14,0.03,0.25,0.09,0.33c0.06,0.08,0.15,0.12,0.28,0.12c0.09,0,0.16-0.02,0.22-0.05c0.06-0.03,0.11-0.08,0.15-0.13
											c0.04-0.06,0.07-0.13,0.09-0.21c0.02-0.08,0.03-0.17,0.03-0.26v-0.82h0.27V27.73z"/>
										<path class="st0" d="M24.65,26.87c-0.06-0.07-0.12-0.12-0.18-0.16c-0.07-0.03-0.14-0.05-0.22-0.05
											c-0.09,0-0.17,0.02-0.24,0.05c-0.07,0.03-0.12,0.08-0.17,0.13c-0.04,0.06-0.08,0.12-0.1,0.2
											c-0.02,0.08-0.03,0.16-0.03,0.24c0,0.09,0.01,0.17,0.04,0.24c0.03,0.08,0.06,0.14,0.11,0.2c0.05,0.06,0.1,0.1,0.17,0.13
											c0.07,0.03,0.14,0.05,0.22,0.05c0.18,0,0.31-0.07,0.41-0.21l0.2,0.2c-0.08,0.09-0.17,0.16-0.27,0.21
											c-0.11,0.04-0.22,0.06-0.33,0.06c-0.12,0-0.24-0.02-0.34-0.06c-0.1-0.04-0.19-0.1-0.26-0.18
											c-0.07-0.08-0.13-0.17-0.17-0.28c-0.04-0.11-0.06-0.23-0.06-0.36c0-0.13,0.02-0.24,0.06-0.35c0.04-0.11,0.1-0.2,0.17-0.28
											c0.07-0.08,0.16-0.14,0.26-0.19c0.1-0.04,0.21-0.07,0.34-0.07c0.12,0,0.23,0.02,0.34,0.06s0.2,0.11,0.28,0.2L24.65,26.87z
											"/>
										<path class="st0" d="M27.03,25.79c0-0.06,0.02-0.1,0.06-0.14c0.04-0.04,0.08-0.06,0.14-0.06c0.05,0,0.1,0.02,0.14,0.06
											c0.04,0.04,0.06,0.09,0.06,0.14c0,0.06-0.02,0.11-0.05,0.15c-0.04,0.04-0.08,0.06-0.14,0.06c-0.06,0-0.1-0.02-0.14-0.06
											C27.05,25.9,27.03,25.85,27.03,25.79z M27.09,26.44h0.27v1.68h-0.27V26.44z"/>
										<path class="st0" d="M29.7,27.29c0-0.13,0.02-0.25,0.06-0.36c0.04-0.11,0.1-0.2,0.18-0.28c0.08-0.08,0.17-0.14,0.27-0.18
											c0.1-0.04,0.22-0.06,0.34-0.06c0.12,0,0.24,0.02,0.34,0.06c0.11,0.04,0.2,0.1,0.27,0.18c0.08,0.08,0.13,0.17,0.18,0.28
											c0.04,0.11,0.07,0.23,0.07,0.36s-0.02,0.25-0.07,0.36c-0.04,0.11-0.1,0.2-0.18,0.28C31.09,28,31,28.06,30.9,28.11
											c-0.11,0.04-0.22,0.06-0.34,0.06c-0.12,0-0.24-0.02-0.34-0.06c-0.11-0.04-0.2-0.1-0.27-0.18
											c-0.08-0.08-0.13-0.17-0.18-0.28C29.72,27.54,29.7,27.42,29.7,27.29z M29.99,27.29c0,0.09,0.01,0.17,0.04,0.25
											c0.03,0.08,0.06,0.14,0.11,0.2c0.05,0.06,0.11,0.1,0.18,0.13s0.15,0.05,0.23,0.05c0.09,0,0.16-0.02,0.23-0.05
											s0.13-0.08,0.18-0.13c0.05-0.06,0.09-0.12,0.11-0.2c0.03-0.08,0.04-0.16,0.04-0.25s-0.01-0.17-0.04-0.25
											c-0.03-0.08-0.06-0.14-0.11-0.2c-0.05-0.06-0.11-0.1-0.18-0.13c-0.07-0.03-0.15-0.05-0.23-0.05
											c-0.09,0-0.17,0.02-0.23,0.05c-0.07,0.03-0.13,0.08-0.18,0.13c-0.05,0.06-0.09,0.12-0.11,0.2
											C30,27.12,29.99,27.2,29.99,27.29z"/>
										<path class="st0" d="M33.73,26.84c0-0.08,0-0.15-0.01-0.22c0-0.07-0.01-0.13-0.01-0.18h0.25c0,0.05,0,0.09,0,0.14
											c0,0.05,0,0.09,0,0.14h0.01c0.02-0.04,0.04-0.08,0.08-0.12c0.03-0.04,0.07-0.07,0.12-0.1c0.05-0.03,0.1-0.05,0.15-0.07
											c0.06-0.02,0.12-0.03,0.19-0.03c0.1,0,0.2,0.02,0.27,0.05c0.08,0.03,0.14,0.08,0.19,0.14c0.05,0.06,0.09,0.13,0.11,0.22
											c0.02,0.09,0.04,0.18,0.04,0.28v1.04h-0.27v-1.01c0-0.14-0.03-0.25-0.09-0.33c-0.06-0.08-0.15-0.12-0.28-0.12
											c-0.09,0-0.16,0.02-0.22,0.05c-0.06,0.03-0.11,0.08-0.15,0.13c-0.04,0.06-0.07,0.13-0.09,0.2
											C34.01,27.12,34,27.21,34,27.31v0.82h-0.27V26.84z"/>
										<path class="st0" d="M38.97,27.82c-0.1,0.13-0.2,0.22-0.32,0.27c-0.11,0.05-0.25,0.08-0.4,0.08
											c-0.13,0-0.24-0.02-0.34-0.07c-0.1-0.05-0.19-0.11-0.26-0.19s-0.12-0.17-0.16-0.28c-0.04-0.11-0.06-0.22-0.06-0.35
											c0-0.13,0.02-0.25,0.06-0.36c0.04-0.11,0.1-0.2,0.17-0.28c0.07-0.08,0.16-0.14,0.26-0.18c0.1-0.04,0.21-0.06,0.33-0.06
											c0.11,0,0.21,0.02,0.31,0.06c0.09,0.04,0.17,0.1,0.24,0.17c0.07,0.08,0.12,0.17,0.16,0.28c0.04,0.11,0.05,0.23,0.05,0.37
											v0.09h-1.29c0,0.07,0.02,0.14,0.05,0.21c0.03,0.07,0.07,0.12,0.11,0.17c0.05,0.05,0.1,0.09,0.16,0.12s0.13,0.04,0.2,0.04
											c0.12,0,0.21-0.02,0.29-0.06c0.08-0.04,0.15-0.11,0.22-0.19L38.97,27.82z M38.74,27.13c0-0.14-0.05-0.26-0.13-0.35
											c-0.08-0.09-0.2-0.13-0.35-0.13c-0.15,0-0.27,0.04-0.36,0.13c-0.09,0.09-0.15,0.2-0.16,0.35H38.74z"/>
										<path class="st0" d="M41.38,27.69c0.05,0.07,0.11,0.12,0.17,0.17c0.06,0.04,0.14,0.06,0.24,0.06c0.04,0,0.08,0,0.12-0.01
											c0.04-0.01,0.08-0.03,0.11-0.05c0.03-0.02,0.06-0.05,0.08-0.08c0.02-0.03,0.03-0.07,0.03-0.12c0-0.05-0.01-0.08-0.03-0.11
											c-0.02-0.03-0.05-0.05-0.08-0.07c-0.03-0.02-0.07-0.04-0.11-0.05c-0.04-0.01-0.08-0.02-0.13-0.03
											c-0.08-0.02-0.15-0.04-0.22-0.06c-0.07-0.02-0.13-0.05-0.18-0.08c-0.05-0.03-0.09-0.08-0.12-0.13
											c-0.03-0.06-0.05-0.13-0.05-0.21c0-0.08,0.02-0.15,0.05-0.22c0.03-0.06,0.08-0.11,0.14-0.15
											c0.06-0.04,0.12-0.07,0.19-0.09c0.07-0.02,0.14-0.03,0.22-0.03c0.11,0,0.22,0.02,0.32,0.07s0.17,0.13,0.23,0.23
											l-0.22,0.15c-0.03-0.06-0.08-0.11-0.14-0.15c-0.06-0.04-0.12-0.06-0.2-0.06c-0.04,0-0.07,0-0.11,0.01
											c-0.04,0.01-0.07,0.02-0.1,0.04c-0.03,0.02-0.05,0.04-0.07,0.07c-0.02,0.03-0.03,0.06-0.03,0.1
											c0,0.04,0.01,0.07,0.03,0.09c0.02,0.03,0.05,0.05,0.09,0.07c0.04,0.02,0.08,0.04,0.13,0.05c0.05,0.01,0.1,0.03,0.15,0.04
											c0.07,0.01,0.14,0.03,0.2,0.06c0.06,0.02,0.12,0.05,0.17,0.09c0.05,0.04,0.09,0.09,0.11,0.14
											c0.03,0.06,0.04,0.13,0.04,0.21c0,0.1-0.02,0.18-0.05,0.24c-0.04,0.07-0.09,0.12-0.15,0.16
											c-0.06,0.04-0.13,0.07-0.21,0.09c-0.08,0.02-0.15,0.03-0.23,0.03c-0.14,0-0.26-0.02-0.35-0.07
											c-0.1-0.04-0.19-0.13-0.27-0.25L41.38,27.69z"/>
										<path class="st0" d="M47.21,28.51c-0.03,0.07-0.06,0.14-0.08,0.2c-0.03,0.06-0.06,0.11-0.1,0.15
											c-0.04,0.04-0.09,0.07-0.14,0.1s-0.12,0.03-0.2,0.03c-0.04,0-0.08,0-0.12-0.01c-0.04-0.01-0.08-0.02-0.12-0.04l0.03-0.24
											c0.03,0.01,0.06,0.02,0.09,0.02c0.03,0,0.06,0.01,0.1,0.01c0.09,0,0.15-0.03,0.19-0.08c0.04-0.05,0.08-0.12,0.11-0.2
											l0.11-0.32l-0.66-1.69h0.31l0.5,1.32h0.01l0.48-1.32h0.29L47.21,28.51z"/>
										<path class="st0" d="M52.11,27.69c0.05,0.07,0.11,0.12,0.17,0.17c0.06,0.04,0.14,0.06,0.24,0.06c0.04,0,0.08,0,0.12-0.01
											c0.04-0.01,0.08-0.03,0.11-0.05c0.03-0.02,0.06-0.05,0.08-0.08c0.02-0.03,0.03-0.07,0.03-0.12c0-0.05-0.01-0.08-0.03-0.11
											c-0.02-0.03-0.05-0.05-0.08-0.07c-0.03-0.02-0.07-0.04-0.11-0.05c-0.04-0.01-0.08-0.02-0.13-0.03
											c-0.08-0.02-0.15-0.04-0.22-0.06c-0.07-0.02-0.13-0.05-0.18-0.08c-0.05-0.03-0.09-0.08-0.12-0.13
											c-0.03-0.06-0.05-0.13-0.05-0.21c0-0.08,0.02-0.15,0.05-0.22c0.03-0.06,0.08-0.11,0.14-0.15
											c0.06-0.04,0.12-0.07,0.19-0.09c0.07-0.02,0.14-0.03,0.22-0.03c0.11,0,0.22,0.02,0.32,0.07s0.17,0.13,0.23,0.23
											l-0.22,0.15c-0.03-0.06-0.08-0.11-0.14-0.15c-0.06-0.04-0.12-0.06-0.2-0.06c-0.04,0-0.07,0-0.11,0.01
											c-0.04,0.01-0.07,0.02-0.1,0.04c-0.03,0.02-0.05,0.04-0.07,0.07c-0.02,0.03-0.03,0.06-0.03,0.1
											c0,0.04,0.01,0.07,0.03,0.09c0.02,0.03,0.05,0.05,0.09,0.07c0.04,0.02,0.08,0.04,0.13,0.05c0.05,0.01,0.1,0.03,0.15,0.04
											c0.07,0.01,0.14,0.03,0.2,0.06c0.06,0.02,0.12,0.05,0.17,0.09s0.09,0.09,0.11,0.14c0.03,0.06,0.04,0.13,0.04,0.21
											c0,0.1-0.02,0.18-0.05,0.24c-0.04,0.07-0.09,0.12-0.15,0.16c-0.06,0.04-0.13,0.07-0.21,0.09
											c-0.08,0.02-0.15,0.03-0.23,0.03c-0.14,0-0.26-0.02-0.35-0.07s-0.19-0.13-0.27-0.25L52.11,27.69z"/>
										<path class="st0" d="M56.84,27.73c0,0.08,0,0.15,0.01,0.22c0,0.07,0.01,0.13,0.01,0.18H56.6c0-0.05,0-0.09,0-0.14
											c0-0.05,0-0.09,0-0.14h-0.01c-0.02,0.04-0.04,0.08-0.08,0.12c-0.03,0.04-0.07,0.07-0.12,0.1
											c-0.05,0.03-0.1,0.05-0.15,0.07c-0.06,0.02-0.12,0.03-0.18,0.03c-0.11,0-0.2-0.02-0.27-0.05
											c-0.08-0.03-0.14-0.08-0.19-0.14c-0.05-0.06-0.09-0.13-0.11-0.22c-0.02-0.09-0.04-0.18-0.04-0.28v-1.04h0.27v1.01
											c0,0.14,0.03,0.25,0.09,0.33c0.06,0.08,0.15,0.12,0.28,0.12c0.09,0,0.16-0.02,0.22-0.05c0.06-0.03,0.11-0.08,0.15-0.13
											c0.04-0.06,0.07-0.13,0.09-0.21c0.02-0.08,0.03-0.17,0.03-0.26v-0.82h0.27V27.73z"/>
										<path class="st0" d="M59.25,26.84c0-0.08,0-0.15-0.01-0.22c0-0.07-0.01-0.13-0.01-0.18h0.25c0,0.05,0,0.09,0,0.14
											c0,0.05,0,0.09,0,0.14h0.01c0.02-0.04,0.04-0.08,0.08-0.12c0.03-0.04,0.07-0.07,0.12-0.1c0.05-0.03,0.1-0.05,0.15-0.07
											c0.06-0.02,0.12-0.03,0.19-0.03c0.09,0,0.16,0.01,0.22,0.03c0.06,0.02,0.11,0.05,0.15,0.08s0.07,0.07,0.09,0.1
											c0.02,0.04,0.04,0.07,0.05,0.1c0.06-0.1,0.13-0.18,0.21-0.24c0.08-0.06,0.18-0.08,0.3-0.08c0.11,0,0.21,0.02,0.29,0.05
											c0.08,0.03,0.14,0.08,0.19,0.14c0.05,0.06,0.08,0.14,0.1,0.22c0.02,0.09,0.03,0.19,0.03,0.29v1.02h-0.27v-1.01
											c0-0.06-0.01-0.11-0.02-0.17c-0.01-0.06-0.03-0.1-0.06-0.15c-0.03-0.04-0.07-0.08-0.12-0.1
											c-0.05-0.03-0.11-0.04-0.19-0.04c-0.06,0-0.11,0.01-0.16,0.04s-0.09,0.06-0.13,0.1c-0.04,0.04-0.07,0.1-0.09,0.16
											c-0.02,0.06-0.03,0.13-0.03,0.2v0.97h-0.27v-0.95c0-0.19-0.02-0.32-0.07-0.4c-0.05-0.08-0.13-0.12-0.24-0.12
											c-0.09,0-0.16,0.02-0.22,0.05c-0.06,0.03-0.11,0.08-0.15,0.13c-0.04,0.06-0.07,0.13-0.09,0.2
											c-0.02,0.08-0.03,0.17-0.03,0.26v0.82h-0.27V26.84z"/>
										<path class="st0" d="M64.03,25.79c0-0.06,0.02-0.1,0.06-0.14c0.04-0.04,0.08-0.06,0.14-0.06c0.05,0,0.1,0.02,0.14,0.06
											c0.04,0.04,0.06,0.09,0.06,0.14c0,0.06-0.02,0.11-0.05,0.15c-0.04,0.04-0.08,0.06-0.14,0.06c-0.06,0-0.1-0.02-0.14-0.06
											C64.05,25.9,64.03,25.85,64.03,25.79z M64.09,26.44h0.27v1.68h-0.27V26.44z"/>
										<path class="st0" d="M66.8,26.84c0-0.08,0-0.15-0.01-0.22c0-0.07-0.01-0.13-0.01-0.18h0.25c0,0.05,0,0.09,0,0.14
											c0,0.05,0,0.09,0,0.14h0.01c0.02-0.04,0.04-0.08,0.08-0.12c0.03-0.04,0.07-0.07,0.12-0.1c0.05-0.03,0.1-0.05,0.15-0.07
											c0.06-0.02,0.12-0.03,0.19-0.03c0.1,0,0.2,0.02,0.27,0.05c0.08,0.03,0.14,0.08,0.19,0.14c0.05,0.06,0.09,0.13,0.11,0.22
											c0.02,0.09,0.04,0.18,0.04,0.28v1.04h-0.27v-1.01c0-0.14-0.03-0.25-0.09-0.33c-0.06-0.08-0.15-0.12-0.28-0.12
											c-0.09,0-0.16,0.02-0.22,0.05c-0.06,0.03-0.11,0.08-0.15,0.13c-0.04,0.06-0.07,0.13-0.09,0.2
											c-0.02,0.08-0.03,0.17-0.03,0.26v0.82H66.8V26.84z"/>
										<path class="st0" d="M70.57,25.79c0-0.06,0.02-0.1,0.06-0.14c0.04-0.04,0.08-0.06,0.14-0.06c0.05,0,0.1,0.02,0.14,0.06
											c0.04,0.04,0.06,0.09,0.06,0.14c0,0.06-0.02,0.11-0.05,0.15c-0.04,0.04-0.08,0.06-0.14,0.06c-0.06,0-0.1-0.02-0.14-0.06
											C70.59,25.9,70.57,25.85,70.57,25.79z M70.63,26.44h0.27v1.68h-0.27V26.44z"/>
										<path class="st0" d="M73.37,27.69c0.05,0.07,0.11,0.12,0.17,0.17c0.06,0.04,0.14,0.06,0.24,0.06c0.04,0,0.08,0,0.12-0.01
											c0.04-0.01,0.08-0.03,0.11-0.05c0.03-0.02,0.06-0.05,0.08-0.08c0.02-0.03,0.03-0.07,0.03-0.12c0-0.05-0.01-0.08-0.03-0.11
											c-0.02-0.03-0.05-0.05-0.08-0.07c-0.03-0.02-0.07-0.04-0.11-0.05c-0.04-0.01-0.08-0.02-0.13-0.03
											c-0.08-0.02-0.15-0.04-0.22-0.06c-0.07-0.02-0.13-0.05-0.18-0.08c-0.05-0.03-0.09-0.08-0.12-0.13
											c-0.03-0.06-0.05-0.13-0.05-0.21c0-0.08,0.02-0.15,0.05-0.22c0.03-0.06,0.08-0.11,0.14-0.15
											c0.06-0.04,0.12-0.07,0.19-0.09c0.07-0.02,0.14-0.03,0.22-0.03c0.11,0,0.22,0.02,0.32,0.07c0.1,0.05,0.17,0.13,0.23,0.23
											l-0.22,0.15c-0.03-0.06-0.08-0.11-0.14-0.15c-0.06-0.04-0.12-0.06-0.2-0.06c-0.04,0-0.07,0-0.11,0.01
											c-0.04,0.01-0.07,0.02-0.1,0.04c-0.03,0.02-0.05,0.04-0.07,0.07c-0.02,0.03-0.03,0.06-0.03,0.1
											c0,0.04,0.01,0.07,0.03,0.09c0.02,0.03,0.05,0.05,0.09,0.07c0.04,0.02,0.08,0.04,0.13,0.05c0.05,0.01,0.1,0.03,0.15,0.04
											c0.07,0.01,0.14,0.03,0.2,0.06c0.06,0.02,0.12,0.05,0.17,0.09c0.05,0.04,0.09,0.09,0.11,0.14
											c0.03,0.06,0.04,0.13,0.04,0.21c0,0.1-0.02,0.18-0.05,0.24c-0.04,0.07-0.09,0.12-0.15,0.16
											c-0.06,0.04-0.13,0.07-0.21,0.09c-0.08,0.02-0.15,0.03-0.23,0.03c-0.14,0-0.26-0.02-0.35-0.07
											c-0.1-0.04-0.19-0.13-0.27-0.25L73.37,27.69z"/>
										<path class="st0" d="M77.57,26.68H77.1v0.84c0,0.06,0,0.11,0,0.15c0,0.05,0.01,0.09,0.03,0.12
											c0.02,0.03,0.04,0.06,0.07,0.08c0.03,0.02,0.08,0.03,0.14,0.03c0.04,0,0.08,0,0.12-0.01c0.04-0.01,0.08-0.02,0.12-0.04
											l0.01,0.26c-0.05,0.02-0.1,0.04-0.15,0.05c-0.06,0.01-0.11,0.01-0.16,0.01c-0.1,0-0.17-0.01-0.23-0.04
											c-0.06-0.03-0.1-0.06-0.13-0.11c-0.03-0.05-0.05-0.11-0.06-0.18c-0.01-0.07-0.02-0.15-0.02-0.24v-0.92h-0.35v-0.24h0.35
											v-0.48h0.27v0.48h0.47V26.68z"/>
										<path class="st0" d="M79.81,26.84c0-0.08,0-0.15-0.01-0.22c0-0.07-0.01-0.13-0.01-0.18h0.25c0,0.05,0,0.09,0,0.14
											c0,0.05,0,0.09,0,0.14h0.01c0.02-0.04,0.04-0.08,0.08-0.12c0.03-0.04,0.07-0.07,0.12-0.1c0.05-0.03,0.1-0.05,0.15-0.07
											c0.06-0.02,0.12-0.03,0.19-0.03c0.02,0,0.04,0,0.05,0c0.02,0,0.04,0.01,0.05,0.01l-0.02,0.28
											c-0.05-0.01-0.09-0.02-0.14-0.02c-0.16,0-0.28,0.06-0.36,0.17c-0.07,0.11-0.11,0.26-0.11,0.46v0.82h-0.27V26.84z"/>
										<path class="st0" d="M82.82,27.29c0-0.13,0.02-0.25,0.06-0.36c0.04-0.11,0.1-0.2,0.18-0.28c0.08-0.08,0.17-0.14,0.27-0.18
											c0.1-0.04,0.22-0.06,0.34-0.06c0.12,0,0.24,0.02,0.34,0.06s0.2,0.1,0.27,0.18c0.08,0.08,0.13,0.17,0.18,0.28
											c0.04,0.11,0.07,0.23,0.07,0.36s-0.02,0.25-0.07,0.36c-0.04,0.11-0.1,0.2-0.18,0.28c-0.08,0.08-0.17,0.14-0.27,0.18
											c-0.11,0.04-0.22,0.06-0.34,0.06c-0.12,0-0.24-0.02-0.34-0.06c-0.11-0.04-0.2-0.1-0.27-0.18
											c-0.08-0.08-0.13-0.17-0.18-0.28C82.85,27.54,82.82,27.42,82.82,27.29z M83.11,27.29c0,0.09,0.01,0.17,0.04,0.25
											c0.03,0.08,0.06,0.14,0.11,0.2c0.05,0.06,0.11,0.1,0.18,0.13s0.15,0.05,0.23,0.05c0.09,0,0.16-0.02,0.23-0.05
											s0.13-0.08,0.18-0.13c0.05-0.06,0.09-0.12,0.11-0.2c0.03-0.08,0.04-0.16,0.04-0.25s-0.01-0.17-0.04-0.25
											c-0.03-0.08-0.06-0.14-0.11-0.2c-0.05-0.06-0.11-0.1-0.18-0.13c-0.07-0.03-0.15-0.05-0.23-0.05
											c-0.09,0-0.17,0.02-0.23,0.05c-0.07,0.03-0.13,0.08-0.18,0.13c-0.05,0.06-0.09,0.12-0.11,0.2
											C83.12,27.12,83.11,27.2,83.11,27.29z"/>
										<path class="st0" d="M86.89,27.69c0.05,0.07,0.11,0.12,0.17,0.17c0.06,0.04,0.14,0.06,0.24,0.06c0.04,0,0.08,0,0.12-0.01
											c0.04-0.01,0.08-0.03,0.11-0.05c0.03-0.02,0.06-0.05,0.08-0.08c0.02-0.03,0.03-0.07,0.03-0.12c0-0.05-0.01-0.08-0.03-0.11
											c-0.02-0.03-0.05-0.05-0.08-0.07c-0.03-0.02-0.07-0.04-0.11-0.05c-0.04-0.01-0.08-0.02-0.13-0.03
											c-0.08-0.02-0.15-0.04-0.22-0.06c-0.07-0.02-0.13-0.05-0.18-0.08c-0.05-0.03-0.09-0.08-0.12-0.13
											c-0.03-0.06-0.05-0.13-0.05-0.21c0-0.08,0.02-0.15,0.05-0.22c0.03-0.06,0.08-0.11,0.14-0.15
											c0.06-0.04,0.12-0.07,0.19-0.09c0.07-0.02,0.14-0.03,0.22-0.03c0.11,0,0.22,0.02,0.32,0.07c0.1,0.05,0.17,0.13,0.23,0.23
											l-0.22,0.15c-0.03-0.06-0.08-0.11-0.14-0.15c-0.06-0.04-0.12-0.06-0.2-0.06c-0.04,0-0.07,0-0.11,0.01
											c-0.04,0.01-0.07,0.02-0.1,0.04c-0.03,0.02-0.05,0.04-0.07,0.07c-0.02,0.03-0.03,0.06-0.03,0.1
											c0,0.04,0.01,0.07,0.03,0.09c0.02,0.03,0.05,0.05,0.09,0.07c0.04,0.02,0.08,0.04,0.13,0.05c0.05,0.01,0.1,0.03,0.15,0.04
											c0.07,0.01,0.14,0.03,0.2,0.06c0.06,0.02,0.12,0.05,0.17,0.09c0.05,0.04,0.09,0.09,0.11,0.14
											c0.03,0.06,0.04,0.13,0.04,0.21c0,0.1-0.02,0.18-0.05,0.24c-0.04,0.07-0.09,0.12-0.15,0.16
											c-0.06,0.04-0.13,0.07-0.21,0.09c-0.08,0.02-0.15,0.03-0.23,0.03c-0.14,0-0.26-0.02-0.35-0.07
											c-0.1-0.04-0.19-0.13-0.27-0.25L86.89,27.69z"/>
									</g>
								</g>
							</g>
						</g>
					</g>
				</g>
			</g>
			<g>
				<g>
					<g>
						<path class="st0" d="M18.41,10.91l-5.35-2.66V3.1h1.78v3.27l3.57,1.77V1.91c0.04-0.55-0.18-0.99-0.53-1.36
							C17.53,0.19,17.11,0,16.62,0h-5.35c-0.5,0-0.93,0.19-1.28,0.56c-0.33,0.37-0.5,0.81-0.5,1.32v8.4l5.35,2.66v6.43h-1.78V14.8
							l-3.57-1.77l0,7.56c0,0.53,0.17,0.98,0.5,1.35c0.35,0.35,0.78,0.53,1.28,0.53h5.35c0.48,0,0.9-0.18,1.25-0.53
							c0.35-0.37,0.53-0.82,0.53-1.35C18.41,20.59,18.41,11.54,18.41,10.91z"/>
						<g>
							<g>
								<g>
									<g>
										<g>
											<path class="st0" d="M21.98,22.46c-0.5,0-0.93-0.18-1.28-0.53c-0.33-0.37-0.5-0.82-0.5-1.35V1.87
												c0-0.51,0.17-0.95,0.5-1.32C21.05,0.19,21.47,0,21.98,0h5.35c0.48,0,0.9,0.19,1.25,0.56c0.35,0.37,0.53,0.81,0.53,1.32
												v18.72c0,0.53-0.18,0.98-0.53,1.35c-0.35,0.35-0.77,0.53-1.25,0.53H21.98z M25.54,19.36V3.1h-1.78v16.26H25.54z"/>
											<path class="st0" d="M43.37,22.46c-0.5,0-0.93-0.18-1.28-0.53c-0.33-0.37-0.5-0.82-0.5-1.35V0h3.55v19.36h1.81V0h3.55
												v20.59c0,0.53-0.18,0.98-0.53,1.35c-0.35,0.35-0.77,0.53-1.25,0.53H43.37z"/>
										</g>
									</g>
								</g>
							</g>
							<polygon class="st0" points="77.24,9.14 77.24,0 68.33,0 68.33,22.46 77.24,22.46 77.24,13.26 73.68,15.04 73.68,19.35 
								71.88,19.35 71.88,11.97 73.67,11.97 73.67,10.42 71.88,10.42 71.88,3.1 73.68,3.1 73.68,7.36 							"/>
						</g>
						<path class="st0" d="M39.8,10.91l-5.35-2.66V3.1h1.78v3.27l3.57,1.77V1.91c0.04-0.55-0.18-0.99-0.53-1.36
							C38.92,0.19,38.5,0,38.02,0h-5.35c-0.5,0-0.93,0.19-1.28,0.56c-0.33,0.37-0.5,0.81-0.5,1.32v8.4l5.35,2.66v6.43h-1.78V14.8
							l-3.57-1.77l0,7.56c0,0.53,0.17,0.98,0.5,1.35c0.35,0.35,0.78,0.53,1.28,0.53h5.35c0.48,0,0.9-0.18,1.25-0.53
							c0.35-0.37,0.53-0.82,0.53-1.35C39.8,20.59,39.8,11.54,39.8,10.91z"/>
						<g>
							<polygon class="st0" points="66.38,22.45 66.38,2.95 59.66,4.13 59.66,22.45 61.15,22.45 61.15,10.99 62.9,10.67 62.9,22.45 
															"/>
							<polygon class="st0" points="60.76,3.59 66.02,2.67 60.76,0.1 							"/>
							<polygon class="st0" points="60.43,3.64 60.43,0.01 53.04,0.6 59.52,3.8 							"/>
							<polygon class="st0" points="59.32,22.45 59.32,4.08 52.43,0.66 52.43,22.45 55.92,22.45 55.92,10.67 57.67,10.99 
								57.67,22.45 							"/>
						</g>
					</g>
					<polygon class="st0" points="87.94,0 84.38,0 84.38,9.36 82.59,9.36 82.59,0 79.03,0 79.03,10.03 81.37,11.2 79.03,12.37 
						79.03,22.46 82.59,22.46 82.59,13.1 84.38,13.1 84.38,22.46 87.94,22.46 87.94,12.37 85.59,11.2 87.94,10.03 					"/>
				</g>
				<polygon class="st0" points="0,15.93 9.49,11.19 0,6.47 0,10.41 1.79,10.41 1.79,11.96 0,11.96 				"/>
			</g>
		</g>
	</g>
</g>
<g id="Capa_6">
</g>
<g id="Capa_5">
</g>
</svg>
