<?xml version="1.0" encoding="utf-8"?>
<!-- Generator: Adobe Illustrator 24.0.3, SVG Export Plug-In . SVG Version: 6.00 Build 0)  -->
<svg version="1.1" xmlns="http://www.w3.org/2000/svg" xmlns:xlink="http://www.w3.org/1999/xlink" x="0px" y="0px"
	 viewBox="0 0 100.68 24.35" style="enable-background:new 0 0 100.68 24.35;" xml:space="preserve">
<style type="text/css">
	.st0{fill:#FFFFFF;}
	.st1{fill:url(#SVGID_1_);}
	.st2{fill:#E7004C;}
	.st3{fill:none;stroke:#00B2E3;stroke-miterlimit:10;}
	.st4{fill:url(#SVGID_2_);}
	.st5{fill:#FCFCFC;}
	.st6{fill:url(#SVGID_3_);}
	.st7{fill:url(#SVGID_4_);}
	.st8{opacity:0.8;fill:#E7004C;}
	.st9{opacity:0.7;fill:#E7004C;}
	.st10{opacity:0.7;}
	.st11{fill:#00B2E3;}
	.st12{opacity:0.8;fill:#00B2E3;}
	.st13{opacity:0.7;fill:#00B2E3;}
	.st14{fill:#BBBBBB;}
	.st15{opacity:0.8;fill:#BBBBBB;}
	.st16{opacity:0.7;fill:#BBBBBB;}
	.st17{fill:url(#SVGID_5_);}
	.st18{fill:url(#SVGID_6_);}
	.st19{fill:none;stroke:#E7004C;stroke-width:2;stroke-miterlimit:10;}
	.st20{fill:url(#SVGID_7_);}
	.st21{fill:url(#SVGID_8_);}
	.st22{fill:url(#SVGID_9_);}
	.st23{fill:none;stroke:#FFFFFF;stroke-miterlimit:10;}
	.st24{fill:none;stroke:#E7004C;stroke-miterlimit:10;}
	.st25{fill-rule:evenodd;clip-rule:evenodd;fill:#E7004C;}
	.st26{fill:none;stroke:#000000;stroke-miterlimit:10;}
	.st27{fill:#38A8E0;}
	.st28{clip-path:url(#SVGID_11_);fill:#00B2E3;}
	.st29{fill:none;stroke:#E7004C;stroke-width:3;stroke-miterlimit:10;}
	.st30{clip-path:url(#SVGID_13_);}
	.st31{fill:none;stroke:#FFFFFF;stroke-width:2;stroke-miterlimit:10;}
	.st32{fill:none;stroke:#FFFFFF;stroke-width:3;stroke-miterlimit:10;}
	.st33{clip-path:url(#SVGID_15_);}
	.st34{fill:url(#SVGID_16_);}
	.st35{fill:none;stroke:#FFFFFF;stroke-width:0.5;stroke-miterlimit:10;}
	.st36{clip-path:url(#SVGID_18_);fill:#00B2E3;}
	.st37{clip-path:url(#SVGID_20_);}
	.st38{clip-path:url(#SVGID_22_);}
	.st39{fill:url(#SVGID_23_);}
	.st40{clip-path:url(#SVGID_25_);}
	.st41{fill:url(#SVGID_26_);}
	.st42{fill:url(#SVGID_27_);}
	.st43{fill:url(#SVGID_28_);}
	.st44{fill:url(#SVGID_29_);}
	.st45{clip-path:url(#SVGID_31_);fill:#00B2E3;}
	.st46{clip-path:url(#SVGID_33_);}
	.st47{clip-path:url(#SVGID_35_);}
	.st48{fill:url(#SVGID_36_);}
	.st49{clip-path:url(#SVGID_38_);}
	.st50{clip-path:url(#SVGID_40_);}
	.st51{fill:#280210;}
	.st52{opacity:0.5;}
	.st53{opacity:0.6;}
	.st54{fill:url(#SVGID_41_);}
	.st55{fill:url(#SVGID_42_);}
	.st56{fill:url(#SVGID_43_);}
	.st57{fill:url(#SVGID_44_);}
	.st58{opacity:0.8;}
	.st59{opacity:0.9;}
	.st60{fill:url(#SVGID_45_);}
	.st61{clip-path:url(#SVGID_47_);}
	.st62{clip-path:url(#SVGID_49_);}
	.st63{fill:url(#SVGID_50_);}
	.st64{clip-path:url(#SVGID_52_);}
	.st65{fill:url(#SVGID_53_);}
	.st66{clip-path:url(#SVGID_55_);}
	.st67{fill:url(#SVGID_56_);}
	.st68{clip-path:url(#SVGID_58_);}
	.st69{clip-path:url(#SVGID_60_);fill:#00B2E3;}
	.st70{clip-path:url(#SVGID_62_);}
	.st71{clip-path:url(#SVGID_64_);}
	.st72{fill:none;stroke:#FFFFFF;stroke-width:5;stroke-miterlimit:10;}
	.st73{clip-path:url(#SVGID_66_);fill:#00B2E3;}
	.st74{clip-path:url(#SVGID_68_);}
	.st75{clip-path:url(#SVGID_70_);}
	.st76{clip-path:url(#SVGID_72_);fill:#00B2E3;}
	.st77{clip-path:url(#SVGID_74_);}
	.st78{fill:#5B0323;}
	.st79{fill:url(#SVGID_75_);}
	.st80{fill:url(#SVGID_76_);}
	.st81{fill:url(#SVGID_77_);}
	.st82{clip-path:url(#SVGID_80_);fill:#00B2E3;}
	.st83{clip-path:url(#SVGID_84_);}
	.st84{clip-path:url(#SVGID_86_);}
	.st85{fill-rule:evenodd;clip-rule:evenodd;fill:#FFFFFF;}
	.st86{fill:#E5E5E5;}
	.st87{clip-path:url(#SVGID_88_);}
	.st88{fill-rule:evenodd;clip-rule:evenodd;fill:none;stroke:#E7004C;stroke-width:3;stroke-miterlimit:10;}
	.st89{fill:#070101;}
	.st90{fill:none;stroke:#068FFF;stroke-width:5;stroke-miterlimit:10;}
</style>
<g id="Capa_2">
</g>
<g id="Capa_1">
</g>
<g id="Capa_3">
</g>
<g id="Capa_4">
	<g id="uMuZ50.tif_1_">
		<g>
			<path class="st0" d="M10.34,4.76C9.88,6.69,9.43,8.59,8.97,10.5c-0.2,0.83-0.47,1.66-0.57,2.5c-0.26,2.02-1.56,3.09-3.28,3.79
				c-1.27,0.52-2.62,0.73-4,0.64c0-0.05-0.01-0.12,0-0.12c2.31-0.95,2.91-3.04,3.47-5.17c0.86-3.26,1.79-6.51,2.64-9.78
				C7.38,1.81,7.62,1.69,8.12,1.7c1.31,0.03,2.63,0.05,3.94-0.01c0.68-0.03,0.95,0.21,1.14,0.86c0.9,3.1,1.86,6.17,2.8,9.26
				c0.04,0.13,0.03,0.3,0.28,0.41c0.25-1.13,0.49-2.25,0.73-3.37c0.46-2.17,0.92-4.34,1.37-6.5c0.09-0.43,0.28-0.67,0.76-0.64
				c0.58,0.03,1.16,0.03,1.74,0c0.56-0.03,0.7,0.14,0.57,0.7c-0.83,3.61-1.64,7.22-2.45,10.83c-0.27,1.2-0.56,2.4-0.79,3.62
				c-0.09,0.45-0.29,0.58-0.72,0.56c-0.78-0.02-1.57-0.03-2.35,0c-0.46,0.02-0.67-0.15-0.81-0.59c-1.23-3.87-2.48-7.73-3.71-11.59
				C10.58,5.08,10.56,4.9,10.34,4.76z"/>
			<path class="st0" d="M30.58,17.7c2.1-1.73,2.25-4.13,2.78-6.36c0.7-2.97,1.35-5.95,2.01-8.93c0.1-0.47,0.3-0.66,0.81-0.66
				c3,0.02,6.01-0.02,9.01,0c3.02,0.01,4.59,2.02,3.91,4.97c-0.37,1.6-1.05,3.05-2.3,4.17c-0.92,0.82-2.01,1.24-3.25,1.24
				c-1.97,0-3.94,0.05-5.9-0.02c-0.81-0.03-1.12,0.24-1.24,0.99c-0.19,1.21-0.74,2.24-1.64,3.08C33.63,17.23,32.3,17.67,30.58,17.7z
				 M40.18,9.38c0,0.01,0,0.02,0,0.02c0.66,0,1.31,0,1.97,0c1.85,0,2.94-0.89,3.35-2.72c0.29-1.29-0.29-2.09-1.6-2.12
				c-1.76-0.04-3.53-0.01-5.29-0.04c-0.47-0.01-0.61,0.2-0.69,0.6c-0.25,1.21-0.5,2.42-0.8,3.61c-0.13,0.5-0.06,0.68,0.49,0.65
				C38.47,9.35,39.33,9.38,40.18,9.38z"/>
			<path class="st0" d="M56.27,11.03c-1.11,0-2.22,0.02-3.33-0.01c-0.49-0.01-0.66,0.16-0.69,0.64c-0.13,1.81,0.99,2.95,2.92,2.94
				c1.51-0.01,3.03,0.01,4.54-0.03c0.59-0.02,0.67,0.17,0.54,0.7c-0.53,2.16-0.52,2.17-2.73,2.17c-1.19,0-2.37,0.03-3.56-0.01
				c-1.6-0.04-3.11-0.39-4.27-1.61c-1.12-1.18-1.34-2.65-1.16-4.17c0.31-2.57,1.12-4.98,2.78-7.01c1.55-1.89,3.52-2.97,6.04-2.92
				c1.74,0.04,3.48,0.03,5.22,0c0.58-0.01,0.66,0.19,0.56,0.71c-0.43,2.19-0.41,2.19-2.66,2.2c-1.19,0-2.38-0.07-3.56,0.04
				c-1.74,0.16-3.03,0.99-3.65,2.72c-0.2,0.56-0.09,0.7,0.49,0.7c2.15-0.02,4.29,0.01,6.44-0.02c0.62-0.01,0.82,0.13,0.6,0.77
				c-0.24,0.68-0.14,1.62-0.65,2.05c-0.52,0.44-1.4,0.11-2.13,0.14C57.43,11.05,56.85,11.03,56.27,11.03z"/>
			<path class="st0" d="M25.97,17.73c-2.2-0.06-3.98-0.58-5.02-2.44c-0.75-1.34-0.91-2.83-0.6-4.33c0.62-2.93,1.3-5.85,1.94-8.77
				c0.08-0.36,0.22-0.53,0.6-0.52c0.63,0.02,1.26,0.03,1.89,0c0.53-0.02,0.58,0.23,0.48,0.66c-0.67,2.76-1.34,5.53-1.99,8.29
				c-0.18,0.78-0.39,1.58-0.1,2.38c0.45,1.25,1.38,1.84,2.89,1.86c1.33,0.02,2.47-0.68,2.85-1.94c0.4-1.32,0.66-2.69,0.96-4.04
				c0.5-2.21,1.01-4.42,1.48-6.63c0.09-0.44,0.28-0.59,0.71-0.57c0.65,0.03,1.31,0.02,1.97,0c0.42-0.01,0.5,0.12,0.41,0.54
				c-0.91,3.87-1.76,7.76-2.69,11.62c-0.45,1.89-2.3,3.46-4.26,3.71C26.92,17.63,26.35,17.8,25.97,17.73z"/>
			<path class="st0" d="M68.8,17.44c-0.91,0-1.82,0.02-2.73,0c-3.25-0.1-4.94-1.79-4.78-5.02c0.14-2.72,0.8-5.34,2.58-7.53
				c1.6-1.96,3.71-2.92,6.2-3.01c1.84-0.07,3.68,0,5.53-0.03c0.58-0.01,0.71,0.17,0.55,0.71c-0.2,0.67-0.07,1.58-0.56,1.99
				c-0.52,0.44-1.4,0.12-2.13,0.14c-0.96,0.03-1.92,0.03-2.88,0c-1.94-0.05-3.37,0.77-4.24,2.5c-0.83,1.65-1.31,3.4-1.12,5.25
				c0.15,1.48,1.11,2.2,2.59,2.18c1.64-0.03,3.28-0.01,4.92-0.03c0.43-0.01,0.6,0.07,0.45,0.55c-0.19,0.6-0.31,1.22-0.43,1.84
				c-0.07,0.36-0.26,0.49-0.63,0.48C71.02,17.43,69.91,17.44,68.8,17.44C68.8,17.44,68.8,17.44,68.8,17.44z"/>
			<path class="st0" d="M1.36,23.56c-0.28,0-0.56,0.04-0.83-0.01c-0.39-0.07-0.65-0.54-0.48-0.7c0.43-0.39,0.14-0.68,0.07-1.04
				c-0.14-0.72,0.09-0.99,0.81-1c0.43-0.01,0.86,0,1.29,0.01c0.25,0.01,0.43,0.13,0.48,0.39c0.03,0.13,0.02,0.26-0.1,0.34
				c-0.24,0.17-0.33-0.09-0.5-0.17c-0.4-0.19-0.84-0.08-1.26-0.07c-0.15,0-0.22,0.11-0.22,0.25c-0.01,0.19,0.11,0.27,0.28,0.27
				c0.35,0.01,0.71,0.03,1.06,0.01c0.59-0.04,0.83,0.23,0.81,0.8c-0.01,0.56-0.17,0.94-0.82,0.92c-0.2-0.01-0.4,0-0.61,0
				C1.36,23.57,1.36,23.57,1.36,23.56z M1.39,22.36c-0.1,0-0.2-0.01-0.3,0C0.9,22.4,0.6,22.27,0.58,22.6
				c-0.02,0.37,0.3,0.32,0.54,0.33c0.22,0.01,0.45,0.01,0.67,0c0.2-0.01,0.42-0.01,0.41-0.3c-0.01-0.23-0.19-0.26-0.37-0.27
				C1.69,22.36,1.54,22.36,1.39,22.36z"/>
			<path class="st0" d="M74.29,22.01c-0.26,0.01-0.3,0.14-0.37,0.23c-0.57,0.77-0.57,0.77-1.28,0.11c-0.09-0.08-0.17-0.2-0.31-0.14
				c-0.14,0.06-0.13,0.2-0.15,0.32c-0.01,0.05,0.01,0.1-0.01,0.15c-0.09,0.29,0.23,0.86-0.29,0.83c-0.45-0.03-0.19-0.58-0.22-0.89
				c-0.04-0.45-0.02-0.9-0.01-1.36c0-0.17-0.03-0.37,0.2-0.43c0.17-0.05,0.28,0.06,0.39,0.18c0.37,0.4,0.58,1.15,1.05,1.16
				c0.3,0.01,0.62-0.76,0.94-1.18c0.1-0.13,0.23-0.2,0.39-0.16c0.23,0.05,0.21,0.25,0.21,0.42c0,0.63,0,1.26,0,1.89
				c0,0.21,0,0.43-0.3,0.41c-0.3-0.02-0.24-0.27-0.24-0.46C74.28,22.74,74.29,22.39,74.29,22.01z"/>
			<path class="st0" d="M54.46,21.93c0,0.48,0,0.85,0,1.23c0,0.17,0.05,0.38-0.22,0.4c-0.24,0.01-0.28-0.16-0.27-0.36
				c0-0.66,0-1.31,0-1.97c0-0.15-0.02-0.32,0.16-0.38c0.17-0.06,0.29,0.03,0.4,0.15c0.11,0.13,0.22,0.28,0.33,0.42
				c0.72,0.96,0.72,0.96,1.43-0.06c0.09-0.12,0.17-0.25,0.26-0.37c0.1-0.13,0.23-0.19,0.4-0.16c0.19,0.04,0.23,0.18,0.23,0.34
				c0,0.68,0,1.36,0,2.04c0,0.2-0.05,0.36-0.29,0.35c-0.25-0.01-0.25-0.21-0.25-0.39c0-0.39,0-0.78,0-1.2c-0.6,0.21-0.59,1-1.07,1
				C55.1,22.96,55.03,22.23,54.46,21.93z"/>
			<path class="st0" d="M28.07,23.46c-0.5,0.16-0.8,0.18-1.07-0.17c-0.18-0.24-0.43-0.43-0.65-0.64c-0.16-0.15-0.35-0.21-0.56-0.16
				c-0.27,0.07-0.2,0.31-0.22,0.5c-0.03,0.22,0.11,0.59-0.29,0.57c-0.39-0.02-0.22-0.38-0.25-0.6c-0.02-0.12,0-0.25,0-0.38
				c0-1.78,0-1.78,1.77-1.76c0.8,0.01,1.25,0.53,0.82,1.21C27.15,22.76,27.54,23.02,28.07,23.46z M26.33,21.28
				c-0.27,0.09-0.77-0.23-0.73,0.35c0.05,0.68,0.62,0.29,0.95,0.36c0.24,0.06,0.61,0.1,0.58-0.35
				C27.09,21.04,26.62,21.35,26.33,21.28z"/>
			<path class="st0" d="M47.97,22.14c0-1.33,0-1.35,1.36-1.31c0.39,0.01,1.12-0.25,1.1,0.2c-0.01,0.56-0.73,0.16-1.12,0.27
				c-0.14,0.04-0.3,0.01-0.45,0.02c-0.18,0.01-0.27,0.11-0.26,0.29c0.01,0.14,0.1,0.22,0.24,0.23c0.15,0.01,0.3,0,0.45,0.02
				c0.18,0.02,0.46-0.08,0.45,0.23c-0.01,0.3-0.28,0.22-0.46,0.23c-0.1,0.01-0.2,0-0.3,0c-0.23,0-0.4,0.07-0.39,0.34
				c0.01,0.25,0.2,0.25,0.38,0.25c0.38,0.01,0.75,0.01,1.13,0c0.23,0,0.4,0.03,0.41,0.31c0.01,0.27-0.15,0.34-0.39,0.34
				c-0.25,0-0.5,0-0.75,0C47.97,23.57,47.97,23.57,47.97,22.14z"/>
			<path class="st0" d="M19.05,22.14c0-1.32,0-1.35,1.32-1.3c0.4,0.01,1.12-0.29,1.14,0.25c0.01,0.46-0.72,0.12-1.1,0.22
				c-0.14,0.04-0.3,0.01-0.45,0.02c-0.17,0.01-0.29,0.09-0.29,0.28c0,0.19,0.14,0.22,0.3,0.27c0.29,0.08,0.81-0.22,0.82,0.22
				c0.01,0.48-0.52,0.17-0.79,0.25c-0.2,0.05-0.33,0.11-0.33,0.33c0,0.25,0.19,0.27,0.37,0.27c0.4,0.01,0.81,0.01,1.21,0.01
				c0.2,0,0.35,0.04,0.36,0.28c0.01,0.26-0.12,0.36-0.37,0.36c-0.25,0-0.5,0-0.76,0C19.05,23.57,19.05,23.57,19.05,22.14z"/>
			<path class="st0" d="M44.67,23.49c-0.37,0.13-0.67,0.17-0.93-0.2c-0.14-0.2-0.35-0.36-0.53-0.54c-0.19-0.17-0.38-0.35-0.67-0.25
				c-0.29,0.1-0.2,0.37-0.22,0.58c-0.02,0.22,0.03,0.5-0.32,0.47c-0.36-0.03-0.22-0.33-0.25-0.53c-0.02-0.12,0-0.25,0-0.38
				c0.01-1.89,0.01-1.89,1.84-1.84c0.3,0.01,0.67-0.05,0.75,0.33c0.09,0.38,0.24,0.93-0.1,1.14c-0.58,0.36-0.21,0.49,0.03,0.72
				C44.42,23.14,44.63,23.22,44.67,23.49z M43.08,21.25c-0.27,0.11-0.78-0.23-0.78,0.39c0,0.56,0.46,0.35,0.73,0.34
				c0.3-0.01,0.8,0.24,0.83-0.33C43.9,21.07,43.38,21.34,43.08,21.25z"/>
			<path class="st0" d="M65.11,21.96c0-0.28,0-0.55,0-0.83c0-0.17,0.07-0.29,0.26-0.3c0.21-0.01,0.33,0.09,0.33,0.31
				c0,0.43,0.02,0.86,0,1.28c-0.03,0.77,0.55,0.47,0.91,0.51c0.38,0.04,0.79,0.08,0.74-0.53c-0.03-0.32-0.02-0.65,0-0.98
				c0.01-0.23-0.11-0.56,0.28-0.58c0.41-0.02,0.3,0.31,0.32,0.54c0.01,0.15,0,0.3,0,0.45c0,1.75,0,1.75-1.71,1.75
				c-0.92,0-1.1-0.17-1.12-1.09C65.11,22.31,65.11,22.13,65.11,21.96z"/>
			<path class="st0" d="M9.23,22.03c0,0.23,0,0.45,0,0.68c0,0.57-0.24,0.86-0.86,0.87c-1.93,0.04-1.94,0.05-1.92-1.86
				c0-0.3-0.24-0.85,0.26-0.87c0.61-0.02,0.22,0.58,0.33,0.89c0.03,0.09,0,0.2,0.01,0.3c0,0.79,0.71,1.2,1.45,0.86
				c0.22-0.1,0.18-0.28,0.18-0.44c0.01-0.43,0-0.86,0-1.28c0-0.2,0.05-0.36,0.29-0.35c0.25,0,0.26,0.19,0.26,0.37
				C9.22,21.48,9.22,21.76,9.23,22.03C9.22,22.03,9.23,22.03,9.23,22.03z"/>
			<path class="st0" d="M12.94,22.23c0-1.43,0-1.43,1.65-1.42c0.94,0,1.06,0.15,1.01,1.03c-0.03,0.45-0.23,0.64-0.66,0.62
				c-0.25-0.01-0.51,0.02-0.75-0.01c-0.5-0.06-0.77,0.1-0.7,0.66c0.02,0.19,0.03,0.44-0.27,0.44c-0.36,0-0.28-0.28-0.29-0.49
				C12.94,22.79,12.94,22.51,12.94,22.23z M14.21,21.28c-0.18,0.18-0.77-0.23-0.69,0.41c0.07,0.59,0.59,0.25,0.9,0.3
				c0.26,0.04,0.66,0.11,0.61-0.38C14.97,21.07,14.54,21.36,14.21,21.28z"/>
			<path class="st0" d="M35.63,22.19c0-1.37,0-1.4,1.39-1.36c0.47,0.01,1.19-0.35,1.26,0.59c0.07,0.9-0.06,1.04-0.98,1.04
				c-0.58,0-1.29-0.18-1.13,0.84c0.03,0.17-0.11,0.27-0.29,0.26c-0.19-0.01-0.25-0.14-0.25-0.31C35.63,22.9,35.63,22.54,35.63,22.19
				z M36.94,22.02c0.29-0.11,0.82,0.2,0.8-0.4c-0.02-0.56-0.52-0.34-0.83-0.35c-0.28-0.01-0.74-0.2-0.75,0.34
				C36.14,22.24,36.67,21.9,36.94,22.02z"/>
			<path class="st0" d="M78.95,3.95c-0.36-0.19-0.15-0.49-0.33-0.67c-0.3,0.11-0.15,0.64-0.51,0.62c-0.32-0.02-0.23-0.47-0.46-0.63
				c-0.14,0.08-0.1,0.21-0.12,0.33c-0.02,0.12,0,0.28-0.17,0.29c-0.22,0-0.22-0.19-0.2-0.33c0.07-0.5-0.28-1.29,0.19-1.45
				c0.58-0.2,0.37,0.78,0.81,1.04c0.26-0.2,0.25-0.53,0.36-0.79c0.07-0.17,0.15-0.35,0.37-0.3c0.19,0.04,0.17,0.23,0.16,0.38
				C79.02,2.92,79.15,3.42,78.95,3.95z"/>
			<path class="st0" d="M79.41,4.15c0-0.71-0.05-1.23,0.01-1.74c0.1-0.75,0.71-0.34,1.08-0.36c0.36-0.02,0.62,0.29,0.43,0.68
				c-0.17,0.35-0.25,0.64,0.08,0.93c0.1,0.08,0.21,0.18,0.1,0.3C80.98,4.1,80.84,4,80.73,3.89c-0.05-0.05-0.08-0.12-0.13-0.18
				c-0.17-0.21-0.29-0.54-0.6-0.5c-0.35,0.05-0.12,0.43-0.25,0.62C79.71,3.9,79.64,3.94,79.41,4.15z M80.17,2.87
				c0.21-0.02,0.43-0.05,0.42-0.32c-0.02-0.26-0.25-0.28-0.45-0.28c-0.2,0-0.43-0.01-0.41,0.3C79.75,2.84,79.95,2.87,80.17,2.87z"/>
			<path class="st0" d="M60.9,22.16c0-0.35,0-0.7,0-1.06c0-0.17,0.08-0.29,0.28-0.27c0.15,0.02,0.22,0.12,0.22,0.26
				c0.01,0.73,0.01,1.46,0,2.19c0,0.18-0.1,0.28-0.29,0.26c-0.2-0.02-0.22-0.17-0.22-0.33C60.89,22.87,60.9,22.52,60.9,22.16
				C60.9,22.16,60.9,22.16,60.9,22.16z"/>
		</g>
		<g>
			<path class="st0" d="M92.41,0.87c-0.64-0.22-0.96-0.08-1.21,0.53c-0.22,0.54-0.47,1.06-0.63,1.62c-0.93,3.38,0.5,6.99,3.71,7.99
				c-0.05-0.35-0.17-0.66-0.33-0.95c-0.05-0.1-0.11-0.19-0.17-0.29c-0.12-0.19-0.24-0.37-0.37-0.55c-0.13-0.18-0.25-0.37-0.36-0.56
				c-0.49-0.81-1.09-1.56-1.68-2.3c-0.19-0.24-0.4-0.45-0.14-0.71c0.17-0.17,0.45-0.34,0.67-0.33c0.33,0.01,0.25,0.37,0.29,0.6
				c0.01,0.09,0.07,0.18,0.1,0.26c0.29-0.02,0.07-0.52,0.42-0.4c0.23,0.08,0.21,0.31,0.23,0.52c0.02,0.21-0.08,0.44,0.07,0.63
				c0.32-0.05,0.1-0.43,0.34-0.53c0.58,0.34,0.22,0.92,0.36,1.38c0.15,0.06,0.11-0.09,0.15-0.15c0.11-0.16,0.05-0.46,0.27-0.5
				c0.27-0.05,0.36,0.22,0.48,0.41c0.31,0.49,1.13,0.79,0.5,1.73c0.75-0.85,0.8,0.03,1.11,0.32c0.15-0.71-0.2-1.26-0.42-1.77
				c-0.64-1.51-1.17-3.08-2.19-4.4c-0.32-0.42-0.04-0.82,0.23-0.76c0.4,0.08,0.43-0.65,0.83-0.26c0.25,0.25,0.25,0.53,0.16,0.84
				c-0.04,0.12-0.08,0.24,0.03,0.37c0.31,0.09,0.06-0.64,0.49-0.37c0.2,0.13,0.32,0.33,0.28,0.58c-0.04,0.27-0.21,0.52-0.11,0.82
				c0.2-0.03,0.13-0.22,0.21-0.33c0.07-0.1,0.1-0.23,0.15-0.35c0.99,0.47,0.1,1.19,0.25,1.78c0.06-0.03,0.11-0.05,0.14-0.08
				c0.22-0.23,0.2-0.79,0.53-0.73c0.13,0.03,0.22,0.11,0.29,0.23c0.02,0.03,0.04,0.07,0.05,0.11c0.03,0.08,0.06,0.17,0.09,0.26
				c0.03,0.12,0.06,0.23,0.09,0.34c0.53,0.29,0.56,0.71,0.32,1.21c-0.14,0.3-0.43,0.57-0.22,1.02c0.28-0.31,0.41-0.66,0.54-1
				c0.5,0.49,0.5,0.49,0.16,1.98c0.31,0.05,0.49-0.61,0.8-0.2c0.26,0.35,0.36,0.79-0.13,1.11c-0.02,0.01-0.03,0.03-0.04,0.05
				c-0.03,0.06-0.04,0.16-0.07,0.23l0,0l0.01,0.01c0.24,0.07,0.51-0.38,0.72,0.01c0.18,0.32,0.21,0.65-0.02,0.99
				c-0.41,0.6-1.08,1.08-0.87,1.96c0.56,0.75,1.13,1.51,1.73,2.31c0.06-0.15,0.09-0.21,0.11-0.28C101.91,8.83,97.68,2.73,92.41,0.87
				z M98.74,8.48c0-0.04,0.01-0.07,0.01-0.11c0.01,0.02,0.02,0.04,0.03,0.06C98.77,8.44,98.75,8.46,98.74,8.48z"/>
			<path class="st0" d="M88.03,10.73c-0.07,0.84-0.77,1.44-1.27,2.11c-0.1,0.14-0.23,0.26-0.34,0.4c-0.42,0.54-0.92,0.97-1.64,0.86
				c-0.56-0.08-1.19-1.05-1.27-1.72c-0.09-0.8-0.25-1.58-0.48-2.36c-0.41-1.34,0.14-2.33,1.48-2.68c0.68-0.18,1.02-0.79,1.58-1.13
				c0.58-0.36,1.14-0.71,1.87-0.7c0.4,0,0.72,0.09,0.96,0.34c0.06,0.07,0.12,0.15,0.17,0.24c0.01,0.02,0.03,0.04,0.04,0.06
				c0.27,0.1,0.31,0.51,0.67,0.49c0.14-1.24-0.13-2.53,0.35-3.74c0.27-0.69,0.52-1.38,0.79-2.1c-0.32-0.06-0.54,0.08-0.77,0.15
				C88,1.68,86.22,2.96,84.85,4.78c-2.26,3.02-3.3,6.36-2.57,10.15c0.1,0.54,0.38,0.74,0.88,0.7c2.12-0.17,4.05-0.8,5.51-2.46
				c1.63-1.86,1.91-3.96,1.17-6.26C89.04,8.1,88.16,9.21,88.03,10.73z"/>
			<path class="st0" d="M97.31,12.33c0.06-0.35,0.26-0.27,0.49-0.18c0.4,0.16,0.46,0.46,0.4,0.84
				C97.87,12.82,97.53,12.65,97.31,12.33z"/>
			<path class="st0" d="M99.01,14.54c-2.29-2.86-6.53-3.97-9.68-1.12c-0.97,0.88-2.02,1.68-3.3,2.09c-1.03,0.33-2.08,0.5-3.29,0.54
				c1.74,1.78,3.72,2.8,6,3.24c1.12,0.21,2.26,0.51,3.42,0.16c0-0.53-0.05-1.07,0.39-1.61c0.07,0.59,0.13,1.09,0.19,1.58
				c0.22,0.02,0.44,0.07,0.63-0.1c-0.36-0.45-0.57-0.94-0.41-1.63c0.35,0.58,0.99,0.83,1.17,1.48c0.45-0.03,0.88-0.1,1.26-0.37
				c-1.05-0.37-1.92-0.95-2.33-2.04c-0.02-0.03-0.04-0.05-0.06-0.08c0.03,0.02,0.05,0.04,0.08,0.06l0,0
				c0.73,0.33,1.49,0.57,2.28,0.68c0.26,0.04,0.53,0.06,0.8,0.07c0.38,0.01,0.45,0.16,0.2,0.44c-0.15,0.17-0.27,0.35-0.27,0.59
				c0.98-0.16,1.77-0.72,2.53-1.28C100.18,16.08,100.35,16.22,99.01,14.54z M89.34,17.99c-0.51-0.41-1.21-0.49-1.84-0.6
				c-0.78-0.14-1.47-0.47-2.2-0.86c0.48-0.11,0.98-0.18,1.45-0.34c1-0.35,1.94-0.83,2.68-1.62c0.12-0.13,0.25-0.25,0.45-0.24
				c0.02-0.02,0.05-0.04,0.07-0.06c-0.02,0.02-0.04,0.05-0.06,0.07l0,0c-0.04,0.5-0.13,1-0.13,1.51c0,0.07,0,0.14,0,0.21
				c0.02,0.75,0.25,1.43,1.06,1.83C90.28,18.2,89.89,18.44,89.34,17.99z M90.68,18.86c-0.14-0.01-0.27-0.09-0.27-0.22
				c-0.02-0.27,0.23-0.29,0.41-0.35c0.13-0.04,0.24,0.01,0.25,0.18C90.97,18.64,90.94,18.87,90.68,18.86z M91.59,19.3
				c-0.11,0.05-0.27,0-0.31-0.14c-0.13-0.48,0.27-0.62,0.59-0.83C91.77,18.66,92.03,19.11,91.59,19.3z M95.06,16.75
				c-0.6-0.12-1.35-0.17-2-0.59c-0.34-0.22-0.47-0.53-0.41-0.9c0.05-0.37,0.14-0.74,0.25-1.09c0.21-0.63,0.3-1.43,1.04-1.61
				c0.72-0.18,2.13,0.77,2.45,1.49c0.13,0.3,0.25,0.61,0.31,0.92C97.01,16.51,96.8,16.75,95.06,16.75z"/>
			<path class="st0" d="M89.88,14.32c0.02-0.02,0.05-0.04,0.07-0.06c-0.02,0.02-0.04,0.05-0.06,0.07L89.88,14.32z"/>
			<path class="st0" d="M98.78,8.43c-0.01,0.02-0.03,0.03-0.04,0.05c0-0.04,0.01-0.07,0.01-0.11C98.76,8.39,98.77,8.41,98.78,8.43z"
				/>
			<path class="st0" d="M96.98,10.47c0.42,0.03,0.79,0.15,1.13,0.64C97.58,10.98,97.28,10.73,96.98,10.47z"/>
			<path class="st0" d="M97.31,5.84c-0.07,0.37-0.25,0.68-0.5,0.95C96.79,6.38,96.83,6,97.31,5.84L97.31,5.84z"/>
			<path class="st0" d="M89.13,6.15c0.24,0.62,0.07,1.15-0.3,1.67c-0.61,0.87-0.93,1.87-1.25,2.88c-0.38,1.21-1.28,2.09-2.22,2.89
				c-0.31,0.27-0.71,0.21-0.99-0.21c1.69-0.78,2.29-2.35,2.83-3.94C87.6,8.2,88.34,7.17,89.13,6.15L89.13,6.15z"/>
			<path class="st0" d="M87.83,6.49c-1.55,1.28-2.31,2.93-2.52,5.02c-0.4-0.62-0.24-1.14-0.26-1.62c-0.03-1.12-0.07-1.19-1.16-1.19
				C85.53,8.54,86.47,7.2,87.83,6.49z"/>
			<path class="st0" d="M94.82,13.44c0.33,0.06,0.6,0.23,0.6,0.57c0,0.31-0.15,0.59-0.53,0.59c-0.34,0-0.56-0.21-0.58-0.55
				C94.28,13.71,94.5,13.52,94.82,13.44z"/>
		</g>
	</g>
</g>
<g id="Capa_6">
</g>
<g id="Capa_5">
</g>
</svg>
