<?xml version="1.0" encoding="utf-8"?>
<!-- Generator: Adobe Illustrator 24.0.3, SVG Export Plug-In . SVG Version: 6.00 Build 0)  -->
<svg version="1.1" xmlns="http://www.w3.org/2000/svg" xmlns:xlink="http://www.w3.org/1999/xlink" x="0px" y="0px"
	 viewBox="0 0 62.52 65.84" style="enable-background:new 0 0 62.52 65.84;" xml:space="preserve">
<style type="text/css">
	.st0{fill:#FFFFFF;}
	.st1{fill:url(#SVGID_1_);}
	.st2{fill:#E7004C;}
	.st3{fill:none;stroke:#00B2E3;stroke-miterlimit:10;}
	.st4{fill:url(#SVGID_2_);}
	.st5{fill:#FCFCFC;}
	.st6{fill:url(#SVGID_3_);}
	.st7{fill:url(#SVGID_4_);}
	.st8{opacity:0.8;fill:#E7004C;}
	.st9{opacity:0.7;fill:#E7004C;}
	.st10{opacity:0.7;}
	.st11{fill:#00B2E3;}
	.st12{opacity:0.8;fill:#00B2E3;}
	.st13{opacity:0.7;fill:#00B2E3;}
	.st14{fill:#BBBBBB;}
	.st15{opacity:0.8;fill:#BBBBBB;}
	.st16{opacity:0.7;fill:#BBBBBB;}
	.st17{fill:url(#SVGID_5_);}
	.st18{fill:url(#SVGID_6_);}
	.st19{fill:none;stroke:#E7004C;stroke-width:2;stroke-miterlimit:10;}
	.st20{fill:url(#SVGID_7_);}
	.st21{fill:url(#SVGID_8_);}
	.st22{fill:url(#SVGID_9_);}
	.st23{fill:none;stroke:#FFFFFF;stroke-miterlimit:10;}
	.st24{fill:none;stroke:#E7004C;stroke-miterlimit:10;}
	.st25{fill-rule:evenodd;clip-rule:evenodd;fill:#E7004C;}
	.st26{fill:none;stroke:#000000;stroke-miterlimit:10;}
	.st27{fill:#38A8E0;}
	.st28{clip-path:url(#SVGID_11_);fill:#00B2E3;}
	.st29{fill:none;stroke:#E7004C;stroke-width:3;stroke-miterlimit:10;}
	.st30{clip-path:url(#SVGID_13_);}
	.st31{fill:none;stroke:#FFFFFF;stroke-width:2;stroke-miterlimit:10;}
	.st32{fill:none;stroke:#FFFFFF;stroke-width:3;stroke-miterlimit:10;}
	.st33{clip-path:url(#SVGID_15_);}
	.st34{fill:url(#SVGID_16_);}
	.st35{fill:none;stroke:#FFFFFF;stroke-width:0.5;stroke-miterlimit:10;}
	.st36{clip-path:url(#SVGID_18_);fill:#00B2E3;}
	.st37{clip-path:url(#SVGID_20_);}
	.st38{clip-path:url(#SVGID_22_);}
	.st39{fill:url(#SVGID_23_);}
	.st40{clip-path:url(#SVGID_25_);}
	.st41{fill:url(#SVGID_26_);}
	.st42{fill:url(#SVGID_27_);}
	.st43{fill:url(#SVGID_28_);}
	.st44{fill:url(#SVGID_29_);}
	.st45{clip-path:url(#SVGID_31_);fill:#00B2E3;}
	.st46{clip-path:url(#SVGID_33_);}
	.st47{clip-path:url(#SVGID_35_);}
	.st48{fill:url(#SVGID_36_);}
	.st49{clip-path:url(#SVGID_38_);}
	.st50{clip-path:url(#SVGID_40_);}
	.st51{fill:#280210;}
	.st52{opacity:0.5;}
	.st53{opacity:0.6;}
	.st54{fill:url(#SVGID_41_);}
	.st55{fill:url(#SVGID_42_);}
	.st56{fill:url(#SVGID_43_);}
	.st57{fill:url(#SVGID_44_);}
	.st58{opacity:0.8;}
	.st59{opacity:0.9;}
	.st60{fill:url(#SVGID_45_);}
	.st61{clip-path:url(#SVGID_47_);}
	.st62{clip-path:url(#SVGID_49_);}
	.st63{fill:url(#SVGID_50_);}
	.st64{clip-path:url(#SVGID_52_);}
	.st65{fill:url(#SVGID_53_);}
	.st66{clip-path:url(#SVGID_55_);}
	.st67{fill:url(#SVGID_56_);}
	.st68{clip-path:url(#SVGID_58_);}
	.st69{clip-path:url(#SVGID_60_);fill:#00B2E3;}
	.st70{clip-path:url(#SVGID_62_);}
	.st71{clip-path:url(#SVGID_64_);}
	.st72{fill:none;stroke:#FFFFFF;stroke-width:5;stroke-miterlimit:10;}
	.st73{clip-path:url(#SVGID_66_);fill:#00B2E3;}
	.st74{clip-path:url(#SVGID_68_);}
	.st75{clip-path:url(#SVGID_70_);}
	.st76{clip-path:url(#SVGID_72_);fill:#00B2E3;}
	.st77{clip-path:url(#SVGID_74_);}
	.st78{fill:#5B0323;}
	.st79{fill:url(#SVGID_75_);}
	.st80{fill:url(#SVGID_76_);}
	.st81{fill:url(#SVGID_77_);}
	.st82{clip-path:url(#SVGID_80_);fill:#00B2E3;}
	.st83{clip-path:url(#SVGID_84_);}
	.st84{clip-path:url(#SVGID_86_);}
	.st85{fill-rule:evenodd;clip-rule:evenodd;fill:#FFFFFF;}
	.st86{fill:#E5E5E5;}
	.st87{clip-path:url(#SVGID_88_);}
	.st88{fill-rule:evenodd;clip-rule:evenodd;fill:none;stroke:#E7004C;stroke-width:3;stroke-miterlimit:10;}
	.st89{fill:#070101;}
	.st90{fill:none;stroke:#068FFF;stroke-width:5;stroke-miterlimit:10;}
</style>
<g id="Capa_2">
</g>
<g id="Capa_1">
</g>
<g id="Capa_3">
</g>
<g id="Capa_4">
	<g>
		<path class="st85" d="M52.23,40.35c-11.43,2.86-21.85,6.39-31.67,10.32c-0.88,0.33-1.16,1.01-0.22,1.77
			c3.47,2.41,7.58,3.8,12.01,3.8c9.23,0,17.44-6.01,21.61-14.73C54.55,40.23,53.54,40.01,52.23,40.35z M50.75,44.25
			c-2.04,5.23-6.14,7.44-9.36,8.74c4.34-3.14,6.84-6.03,7.7-8.72C49.61,42.45,51.15,42.88,50.75,44.25z"/>
		<path class="st85" d="M47.75,8.17c-3.78-3.16-8.48-5.03-13.62-5.03c-8.5,0-16.15,5.1-20.56,12.72c-0.5,0.8-1.07,3.25,0.16,2.91
			c11.29-3.72,22.59-6.91,33.88-9.21C48.41,9.47,48.55,8.91,47.75,8.17z M17.38,15.93c-0.26,0.98-1.53,0.65-1.24-0.47
			c2.13-5.55,4.55-6.76,6.84-8.21C20.12,9.84,18.06,12.65,17.38,15.93z M40.8,9.86c1.88-2.9-0.84-4.58-6.71-5.43
			C44.29,5.04,45.95,8.34,40.8,9.86z"/>
		<polygon class="st0" points="60.29,43.9 60.29,42.99 59.87,42.99 59.87,42.81 60.99,42.81 60.99,42.99 60.57,42.99 60.57,43.9 
			60.29,43.9 		"/>
		<polygon class="st0" points="61.17,43.9 61.17,42.81 61.59,42.81 61.84,43.55 62.09,42.81 62.52,42.81 62.52,43.9 62.26,43.9 
			62.26,43.04 61.98,43.9 61.7,43.9 61.43,43.04 61.43,43.9 61.17,43.9 		"/>
		<path class="st85" d="M10.02,36.77v15.99c1.22-0.51,2.45-1.02,3.67-1.53c0.87-0.3,1.16-0.99,1.07-2.07l0.08-5.2
			c1.43,1.45,2.86,2.91,4.28,4.36c1.94,2.03,5.12-1.7,3.67-3.29l-3.37-3.82c1.12-2.04,2.24-4.08,3.37-6.12
			c1.22-2.04-2.14-4.18-3.67-2.07l-4.45,7.19l0.02-5.58L10.02,36.77L10.02,36.77z"/>
		<path class="st85" d="M23.98,33.02c0,0.3-0.06,14.5-0.06,14.5c1.04-0.44,2.08-0.88,3.12-1.32c1.29-0.59,1.77-1.47,1.8-2.64
			l0.12-14.38c-1.12,0.46-2.24,0.92-3.36,1.38C24.5,31.17,23.99,31.93,23.98,33.02L23.98,33.02z"/>
		<path class="st85" d="M30.45,44.88L30.33,29c0.88-0.32,1.76-0.64,2.64-0.96c1-0.42,1.8,0.12,2.16,0.72l4.5,4.91
			c-0.02-1.84-0.04-3.68-0.06-5.51c-0.06-1.12,1.04-1.92,2.4-2.4l1.92-0.6l0.06,14.74c0.01,1.67-3,2.56-3.9,1.44
			c-0.62-0.84-5.09-5.69-5.09-5.69l-0.18,6.17C34.67,43.58,33.36,44.15,30.45,44.88L30.45,44.88z"/>
		<path class="st85" d="M51.73,29.9l6.59-1.62v6.53c-0.66,2.52-2.7,3.88-6.29,4.44c-4.6,0.44-7.39-2.16-7.31-7.07
			c0.9-6.99,4.83-10.07,11.81-9.23c3.48,0.52,2.22,4.44-0.72,3.84c-3.85-0.74-6.42,1.18-6.59,4.68c0.16,3.54,2.56,4.99,5.03,2.94
			l0.06-1.56c-1.55,0.36-2.69,0.28-2.64-1.02C51.67,31.82,51.85,29.96,51.73,29.9L51.73,29.9z"/>
		<path class="st85" d="M36.6,19.24l4.28-1.08v4.37c-0.43,1.68-1.75,2.59-4.08,2.96c-2.98,0.29-4.8-1.44-4.75-4.73
			c0.58-4.67,3.14-6.73,7.66-6.17c2.26,0.35,1.44,2.96-0.47,2.56c-2.5-0.5-4.17,0.79-4.28,3.12c0.1,2.36,1.66,3.34,3.27,1.96
			l0.04-1.04c-1,0.24-1.74,0.19-1.71-0.68C36.56,20.53,36.68,19.28,36.6,19.24L36.6,19.24z"/>
		<path class="st85" d="M10.26,29.54l-0.15,3.1c1.14-0.43,2.34-1.05,2.33-2.64C12.46,29.19,11.48,28.91,10.26,29.54L10.26,29.54z
			 M10.25,25.15l-0.14,2.89c1.06-0.4,2.17-0.98,2.16-2.46C12.28,24.83,11.38,24.57,10.25,25.15L10.25,25.15z M7.54,24.2
			c0.04,0.26,0.04,11.92,0.04,11.92l5.72-2.71c2.67-1.43,2.67-5.74,0.43-5.51c2.15-2.23,0.77-6.11-1.33-5.42L7.54,24.2L7.54,24.2z"
			/>
		<path class="st85" d="M15.67,21.88c0,0.26-0.04,7.36-0.04,7.36c-0.01,1.88,2.04,2.64,3.83,2.28c2.39-0.49,3.71-1.96,3.83-4.17
			c0.01-2.67,0.03-4.95,0.04-7.62c-0.04-1.45-2.75-0.93-2.84,0.47c0.03,2.47,0.06,4.72,0.09,7.19c-0.19,1.79-2.14,1.86-2.11,0.34
			c0-2.09,0-4.19,0-6.28C18.49,19.99,15.65,20.21,15.67,21.88L15.67,21.88z"/>
		<path class="st85" d="M24.27,29.24l-0.13-10.89l4.26-1.33c2.65-0.82,4.55,2.81,1.59,5.77c0.67,0.76,1.35,1.52,2.02,2.28
			c0.99,1.26-1.08,3-2.19,1.98l-2.71-2.54c-0.04,0.85-0.09,1.69-0.13,2.54C26.9,28.31,25.99,28.9,24.27,29.24L24.27,29.24z
			 M27.03,19.39c2.31-1.12,2.64,1.94-0.04,3.23C27,21.58,27.01,20.42,27.03,19.39L27.03,19.39z"/>
		<path class="st85" d="M48.44,22.61l-0.07-10.53l4.4-0.73c2.74-0.44,4.67,3.31,1.61,5.78c0.69,0.82,1.38,1.65,2.07,2.47
			c1.01,1.35-1.12,2.75-2.27,1.62l-2.78-2.81c-0.05,0.81-0.1,1.62-0.15,2.43C51.15,22.07,50.21,22.51,48.44,22.61L48.44,22.61z
			 M51.33,13.46c2.39-0.78,2.71,2.22-0.06,3.11C51.29,15.58,51.31,14.46,51.33,13.46L51.33,13.46z"/>
		<path class="st85" d="M41.6,13.52l0.09,10.65c1.66-0.33,2.78-0.57,4.44-0.91c1.72-0.42,1.8-1.57,1.72-2.86l-3.4,0.82v-2.27
			c2.95-0.49,3.21-0.88,3.08-2.58l-3.22,0.59c0-0.56,0-1.21,0-1.77c2.98-0.57,3.5-0.91,3.49-2.95L41.6,13.52L41.6,13.52z"/>
		<path class="st85" d="M32.57,0c2.88,0,5.68,0.38,8.35,1.1l-0.19,0.32c-6.41-1.37-15.6,0.68-19.66,2.6
			C10.98,8.34,3.82,18.81,3.82,30.99c0,6.57,2.08,12.65,5.59,17.53v5.29l3.37-1.38c4.9,4.74,11.43,7.64,18.57,7.64
			c11.3,0,21.04-7.25,25.28-17.57c1.71,0.96,4.01,2.28,5.88,3.35c-4.99,11.73-16.54,19.98-29.94,19.98C14.63,65.84,0,51.05,0,32.92
			C0,14.79,14.63,0,32.57,0L32.57,0z"/>
	</g>
</g>
<g id="Capa_6">
</g>
<g id="Capa_5">
</g>
</svg>
