<?xml version="1.0" encoding="utf-8"?>
<!-- Generator: Adobe Illustrator 24.0.3, SVG Export Plug-In . SVG Version: 6.00 Build 0)  -->
<svg version="1.1" xmlns="http://www.w3.org/2000/svg" xmlns:xlink="http://www.w3.org/1999/xlink" x="0px" y="0px"
	 viewBox="0 0 106.45 51.02" style="enable-background:new 0 0 106.45 51.02;" xml:space="preserve">
<style type="text/css">
	.st0{fill:#FFFFFF;}
	.st1{fill:url(#SVGID_1_);}
	.st2{fill:#E7004C;}
	.st3{fill:none;stroke:#00B2E3;stroke-miterlimit:10;}
	.st4{fill:url(#SVGID_2_);}
	.st5{fill:#FCFCFC;}
	.st6{fill:url(#SVGID_3_);}
	.st7{fill:url(#SVGID_4_);}
	.st8{opacity:0.8;fill:#E7004C;}
	.st9{opacity:0.7;fill:#E7004C;}
	.st10{opacity:0.7;}
	.st11{fill:#00B2E3;}
	.st12{opacity:0.8;fill:#00B2E3;}
	.st13{opacity:0.7;fill:#00B2E3;}
	.st14{fill:#BBBBBB;}
	.st15{opacity:0.8;fill:#BBBBBB;}
	.st16{opacity:0.7;fill:#BBBBBB;}
	.st17{fill:url(#SVGID_5_);}
	.st18{fill:url(#SVGID_6_);}
	.st19{fill:none;stroke:#E7004C;stroke-width:2;stroke-miterlimit:10;}
	.st20{fill:url(#SVGID_7_);}
	.st21{fill:url(#SVGID_8_);}
	.st22{fill:url(#SVGID_9_);}
	.st23{fill:none;stroke:#FFFFFF;stroke-miterlimit:10;}
	.st24{fill:none;stroke:#E7004C;stroke-miterlimit:10;}
	.st25{fill-rule:evenodd;clip-rule:evenodd;fill:#E7004C;}
	.st26{fill:none;stroke:#000000;stroke-miterlimit:10;}
	.st27{fill:#38A8E0;}
	.st28{clip-path:url(#SVGID_11_);fill:#00B2E3;}
	.st29{fill:none;stroke:#E7004C;stroke-width:3;stroke-miterlimit:10;}
	.st30{clip-path:url(#SVGID_13_);}
	.st31{fill:none;stroke:#FFFFFF;stroke-width:2;stroke-miterlimit:10;}
	.st32{fill:none;stroke:#FFFFFF;stroke-width:3;stroke-miterlimit:10;}
	.st33{clip-path:url(#SVGID_15_);}
	.st34{fill:url(#SVGID_16_);}
	.st35{fill:none;stroke:#FFFFFF;stroke-width:0.5;stroke-miterlimit:10;}
	.st36{clip-path:url(#SVGID_18_);fill:#00B2E3;}
	.st37{clip-path:url(#SVGID_20_);}
	.st38{clip-path:url(#SVGID_22_);}
	.st39{fill:url(#SVGID_23_);}
	.st40{clip-path:url(#SVGID_25_);}
	.st41{fill:url(#SVGID_26_);}
	.st42{fill:url(#SVGID_27_);}
	.st43{fill:url(#SVGID_28_);}
	.st44{fill:url(#SVGID_29_);}
	.st45{clip-path:url(#SVGID_31_);fill:#00B2E3;}
	.st46{clip-path:url(#SVGID_33_);}
	.st47{clip-path:url(#SVGID_35_);}
	.st48{fill:url(#SVGID_36_);}
	.st49{clip-path:url(#SVGID_38_);}
	.st50{clip-path:url(#SVGID_40_);}
	.st51{fill:#280210;}
	.st52{opacity:0.5;}
	.st53{opacity:0.6;}
	.st54{fill:url(#SVGID_41_);}
	.st55{fill:url(#SVGID_42_);}
	.st56{fill:url(#SVGID_43_);}
	.st57{fill:url(#SVGID_44_);}
	.st58{opacity:0.8;}
	.st59{opacity:0.9;}
	.st60{fill:url(#SVGID_45_);}
	.st61{clip-path:url(#SVGID_47_);}
	.st62{clip-path:url(#SVGID_49_);}
	.st63{fill:url(#SVGID_50_);}
	.st64{clip-path:url(#SVGID_52_);}
	.st65{fill:url(#SVGID_53_);}
	.st66{clip-path:url(#SVGID_55_);}
	.st67{fill:url(#SVGID_56_);}
	.st68{clip-path:url(#SVGID_58_);}
	.st69{clip-path:url(#SVGID_60_);fill:#00B2E3;}
	.st70{clip-path:url(#SVGID_62_);}
	.st71{clip-path:url(#SVGID_64_);}
	.st72{fill:none;stroke:#FFFFFF;stroke-width:5;stroke-miterlimit:10;}
	.st73{clip-path:url(#SVGID_66_);fill:#00B2E3;}
	.st74{clip-path:url(#SVGID_68_);}
	.st75{clip-path:url(#SVGID_70_);}
	.st76{clip-path:url(#SVGID_72_);fill:#00B2E3;}
	.st77{clip-path:url(#SVGID_74_);}
	.st78{fill:#5B0323;}
	.st79{fill:url(#SVGID_75_);}
	.st80{fill:url(#SVGID_76_);}
	.st81{fill:url(#SVGID_77_);}
	.st82{clip-path:url(#SVGID_80_);fill:#00B2E3;}
	.st83{clip-path:url(#SVGID_84_);}
	.st84{clip-path:url(#SVGID_86_);}
	.st85{fill-rule:evenodd;clip-rule:evenodd;fill:#FFFFFF;}
	.st86{fill:#E5E5E5;}
	.st87{clip-path:url(#SVGID_88_);}
	.st88{fill-rule:evenodd;clip-rule:evenodd;fill:none;stroke:#E7004C;stroke-width:3;stroke-miterlimit:10;}
	.st89{fill:#070101;}
	.st90{fill:none;stroke:#068FFF;stroke-width:5;stroke-miterlimit:10;}
</style>
<g id="Capa_2">
</g>
<g id="Capa_1">
</g>
<g id="Capa_3">
</g>
<g id="Capa_4">
	<g>
		<g>
			<path class="st0" d="M105.32,49.95H2.37V1.08h102.95V49.95z M3.37,48.95h100.95V2.08H3.37V48.95z"/>
		</g>
		<g>
			<g>
				<g>
					<rect x="7.41" y="12.17" class="st0" width="4.05" height="17.42"/>
					<path class="st0" d="M22.47,22.32h-3.7v4.25h3.7c0.88,0,1.53-0.15,1.95-0.46c0.42-0.31,0.63-0.87,0.63-1.69
						C25.06,23.02,24.19,22.32,22.47,22.32 M22.35,15.2h-3.58v4.15h3.61c1.53,0,2.29-0.69,2.29-2.07
						C24.67,15.89,23.9,15.2,22.35,15.2 M14.72,12.17h7.84c2.07,0,3.63,0.36,4.67,1.09c1.04,0.73,1.56,1.9,1.56,3.52
						c0,0.97-0.17,1.75-0.5,2.32c-0.33,0.57-0.9,1.08-1.7,1.52c0.88,0.32,1.53,0.79,1.95,1.41c0.42,0.62,0.63,1.47,0.63,2.56
						c0,1.69-0.57,2.95-1.7,3.77c-1.14,0.82-2.73,1.23-4.79,1.23h-7.96V12.17z"/>
					<polygon class="st0" points="31.28,29.59 31.28,12.17 44.2,12.17 44.2,15.25 35.33,15.25 35.33,19.32 42.44,19.32 42.44,22.34 
						35.33,22.34 35.33,26.52 44.2,26.52 44.2,29.59 					"/>
					<polygon class="st0" points="33.05,6.83 39.33,5.02 39.27,8.89 33.03,9.83 					"/>
					<path class="st0" d="M56.6,19.96c0.47-0.51,0.71-1.19,0.71-2.02c0-0.84-0.25-1.5-0.75-2c-0.5-0.49-1.22-0.74-2.16-0.74h-3.7
						v5.53h3.76C55.41,20.73,56.13,20.48,56.6,19.96 M50.7,23.75v5.84h-4.05V12.17h7.75c4.7,0,7.05,1.91,7.05,5.74
						c0,2.27-0.98,3.95-2.94,5.02l2.85,6.66h-4.43l-2.32-5.84H50.7z"/>
					<rect x="63.94" y="12.17" class="st0" width="4.05" height="17.42"/>
					<path class="st0" d="M83.26,29c-2.08,0.39-3.95,0.59-5.61,0.59c-1.67,0-3-0.18-4-0.54c-1-0.36-1.78-0.93-2.35-1.72
						c-0.57-0.79-0.96-1.71-1.18-2.77c-0.22-1.06-0.32-2.39-0.32-4c0-3.36,0.54-5.71,1.63-7.03c1.09-1.32,3.09-1.98,6.01-1.98
						c1.68,0,3.63,0.23,5.84,0.69l-0.12,2.82c-1.94-0.26-3.55-0.38-4.83-0.38c-1.28,0-2.2,0.15-2.75,0.45
						c-0.55,0.3-0.95,0.87-1.22,1.7c-0.26,0.84-0.4,2.26-0.4,4.28c0,2.01,0.27,3.41,0.81,4.19c0.54,0.78,1.62,1.17,3.23,1.17
						c1.62,0,3.33-0.12,5.15-0.36L83.26,29z"/>
					<path class="st0" d="M92.02,15.09L90,23.37h5.46l-2.03-8.27H92.02z M84.39,29.59l4.49-17.42h7.7l4.49,17.42h-4.05l-0.79-3.15
						h-6.99l-0.79,3.15H84.39z"/>
					<path class="st0" d="M8.43,9.92L7.41,6.79h0.44l0.49,1.54c0.13,0.42,0.25,0.8,0.33,1.17h0.01C8.77,9.14,8.9,8.75,9.03,8.34
						l0.53-1.55H10L8.88,9.92H8.43z"/>
					<polygon class="st0" points="13.46,6.79 15.14,6.79 15.14,7.13 13.86,7.13 13.86,8.17 15.04,8.17 15.04,8.51 13.86,8.51 
						13.86,9.92 13.46,9.92 					"/>
					<polygon class="st0" points="17.27,8.46 16.05,8.46 16.05,9.58 17.41,9.58 17.41,9.92 15.64,9.92 15.64,6.79 17.34,6.79 
						17.34,7.13 16.05,7.13 16.05,8.12 17.27,8.12 					"/>
					<path class="st0" d="M17.99,9.43c0.18,0.11,0.45,0.2,0.72,0.2c0.41,0,0.65-0.22,0.65-0.53c0-0.29-0.17-0.46-0.59-0.62
						c-0.51-0.18-0.83-0.45-0.83-0.89c0-0.49,0.4-0.85,1.01-0.85c0.32,0,0.55,0.07,0.69,0.15l-0.11,0.33
						c-0.1-0.06-0.31-0.15-0.59-0.15c-0.43,0-0.59,0.26-0.59,0.47c0,0.29,0.19,0.44,0.62,0.6c0.53,0.21,0.8,0.46,0.8,0.92
						c0,0.48-0.36,0.91-1.1,0.91c-0.3,0-0.63-0.09-0.8-0.2L17.99,9.43z"/>
					<polygon class="st0" points="21.05,7.14 20.09,7.14 20.09,6.79 22.41,6.79 22.41,7.14 21.46,7.14 21.46,9.92 21.05,9.92 					
						"/>
					<rect x="22.99" y="6.79" class="st0" width="0.4" height="3.13"/>
					<rect x="10.23" y="6.79" class="st0" width="0.4" height="3.13"/>
					<rect x="11.04" y="6.79" class="st0" width="0.4" height="3.13"/>
					<path class="st0" d="M24.99,9.92l-1.02-3.13h0.44l0.49,1.54c0.13,0.42,0.25,0.8,0.33,1.17h0.01c0.09-0.36,0.22-0.76,0.36-1.17
						l0.53-1.55h0.43l-1.12,3.13H24.99z"/>
					<path class="st0" d="M28.08,8.62l-0.31-0.9c-0.07-0.2-0.12-0.39-0.16-0.57H27.6c-0.05,0.19-0.1,0.38-0.16,0.57l-0.31,0.9H28.08
						z M27.05,8.94l-0.33,0.98h-0.42l1.06-3.13h0.49l1.07,3.13H28.5l-0.33-0.98H27.05z"/>
					<polygon class="st0" points="29.31,6.79 29.71,6.79 29.71,9.58 31.05,9.58 31.05,9.92 29.31,9.92 					"/>
					<rect x="41.43" y="6.78" class="st0" width="0.56" height="3.08"/>
					<path class="st0" d="M42.68,9.85V6.78h0.64l0.79,1.32c0.2,0.34,0.38,0.7,0.53,1.03h0.01c-0.04-0.41-0.05-0.81-0.05-1.28V6.78
						h0.52v3.08h-0.58l-0.8-1.36c-0.2-0.33-0.4-0.71-0.55-1.06l-0.02,0c0.02,0.4,0.03,0.8,0.03,1.31v1.1H42.68z"/>
					<polygon class="st0" points="46.4,7.25 45.52,7.25 45.52,6.78 47.85,6.78 47.85,7.25 46.96,7.25 46.96,9.85 46.4,9.85 					"/>
					<polygon class="st0" points="49.98,8.49 48.82,8.49 48.82,9.39 50.11,9.39 50.11,9.85 48.25,9.85 48.25,6.78 50.04,6.78 
						50.04,7.24 48.82,7.24 48.82,8.03 49.98,8.03 					"/>
					<path class="st0" d="M51.21,8.18h0.33c0.38,0,0.62-0.2,0.62-0.51c0-0.34-0.24-0.49-0.6-0.49c-0.18,0-0.29,0.01-0.35,0.03V8.18z
						 M50.65,6.82c0.21-0.04,0.52-0.06,0.85-0.06c0.44,0,0.74,0.07,0.95,0.25c0.17,0.14,0.26,0.36,0.26,0.62
						c0,0.4-0.27,0.67-0.56,0.77V8.4c0.22,0.08,0.35,0.3,0.43,0.59c0.1,0.38,0.18,0.74,0.24,0.86h-0.58
						c-0.05-0.09-0.12-0.34-0.21-0.73c-0.09-0.4-0.23-0.53-0.55-0.54h-0.28v1.26h-0.56V6.82z"/>
					<path class="st0" d="M53.3,9.85V6.78h0.64l0.79,1.32c0.21,0.34,0.38,0.7,0.53,1.03h0.01c-0.04-0.41-0.05-0.81-0.05-1.28V6.78
						h0.52v3.08h-0.58l-0.8-1.36c-0.2-0.33-0.4-0.71-0.55-1.06l-0.01,0c0.02,0.4,0.03,0.8,0.03,1.31v1.1H53.3z"/>
					<path class="st0" d="M57.93,8.56L57.68,7.8c-0.06-0.19-0.11-0.4-0.16-0.57h-0.01c-0.05,0.18-0.09,0.39-0.15,0.57l-0.24,0.76
						H57.93z M57.04,8.98l-0.26,0.87H56.2l0.99-3.08h0.72l1,3.08h-0.6l-0.28-0.87H57.04z"/>
					<path class="st0" d="M61.49,9.76c-0.13,0.07-0.42,0.14-0.79,0.14c-0.98,0-1.57-0.62-1.57-1.55c0-1.01,0.7-1.62,1.64-1.62
						c0.37,0,0.63,0.08,0.75,0.14l-0.12,0.45c-0.15-0.06-0.35-0.12-0.6-0.12c-0.63,0-1.08,0.39-1.08,1.13c0,0.68,0.4,1.11,1.07,1.11
						c0.23,0,0.47-0.04,0.61-0.11L61.49,9.76z"/>
					<rect x="62.01" y="6.78" class="st0" width="0.56" height="3.08"/>
					<path class="st0" d="M63.7,8.33c0,0.63,0.32,1.13,0.85,1.13c0.54,0,0.85-0.51,0.85-1.15c0-0.58-0.29-1.13-0.85-1.13
						C63.99,7.17,63.7,7.69,63.7,8.33 M65.99,8.28c0,1.03-0.63,1.62-1.48,1.62c-0.87,0-1.42-0.66-1.42-1.57
						c0-0.94,0.59-1.61,1.46-1.61C65.46,6.73,65.99,7.41,65.99,8.28"/>
					<path class="st0" d="M66.52,9.85V6.78h0.64l0.79,1.32c0.21,0.34,0.38,0.7,0.53,1.03h0.01c-0.04-0.41-0.05-0.81-0.05-1.28V6.78
						h0.52v3.08h-0.58l-0.8-1.36c-0.2-0.33-0.4-0.71-0.55-1.06l-0.01,0c0.02,0.4,0.03,0.8,0.03,1.31v1.1H66.52z"/>
					<path class="st0" d="M71.15,8.56L70.91,7.8c-0.06-0.19-0.11-0.4-0.15-0.57h-0.01C70.7,7.4,70.66,7.62,70.6,7.8l-0.24,0.76
						H71.15z M70.27,8.98l-0.27,0.87h-0.58l0.99-3.08h0.72l1,3.08h-0.6l-0.28-0.87H70.27z"/>
					<polygon class="st0" points="72.61,6.78 73.17,6.78 73.17,9.38 74.43,9.38 74.43,9.85 72.61,9.85 					"/>
					<path class="st0" d="M76.46,9.42c0.08,0.01,0.2,0.01,0.31,0.01c0.73,0.01,1.16-0.4,1.16-1.18c0-0.68-0.39-1.07-1.09-1.07
						c-0.18,0-0.31,0.01-0.38,0.03V9.42z M75.89,6.82c0.25-0.04,0.56-0.06,0.89-0.06c0.58,0,0.97,0.12,1.26,0.35
						c0.3,0.24,0.48,0.61,0.48,1.13c0,0.55-0.19,0.96-0.48,1.22c-0.31,0.28-0.79,0.42-1.39,0.42c-0.33,0-0.58-0.02-0.76-0.04V6.82z"
						/>
					<polygon class="st0" points="80.78,8.49 79.62,8.49 79.62,9.39 80.92,9.39 80.92,9.85 79.06,9.85 79.06,6.78 80.85,6.78 
						80.85,7.24 79.62,7.24 79.62,8.03 80.78,8.03 					"/>
					<path class="st0" d="M83.01,9.42c0.08,0.01,0.2,0.01,0.31,0.01c0.73,0.01,1.16-0.4,1.16-1.18c0-0.68-0.39-1.07-1.09-1.07
						c-0.18,0-0.31,0.01-0.38,0.03V9.42z M82.44,6.82c0.25-0.04,0.56-0.06,0.89-0.06c0.58,0,0.97,0.12,1.26,0.35
						c0.3,0.24,0.48,0.61,0.48,1.13c0,0.55-0.19,0.96-0.48,1.22c-0.31,0.28-0.79,0.42-1.39,0.42c-0.33,0-0.57-0.02-0.76-0.04V6.82z"
						/>
					<path class="st0" d="M87.04,8.56L86.8,7.8c-0.06-0.19-0.11-0.4-0.16-0.57h-0.01c-0.05,0.18-0.09,0.39-0.15,0.57l-0.24,0.76
						H87.04z M86.16,8.98l-0.26,0.87h-0.58l0.98-3.08h0.72l1,3.08h-0.6l-0.28-0.87H86.16z"/>
					<path class="st0" d="M88.49,9.85V6.78h0.64l0.79,1.32c0.21,0.34,0.38,0.7,0.53,1.03h0.01c-0.04-0.41-0.05-0.81-0.05-1.28V6.78
						h0.52v3.08h-0.58l-0.8-1.36c-0.2-0.33-0.4-0.71-0.55-1.06l-0.01,0c0.02,0.4,0.03,0.8,0.03,1.31v1.1H88.49z"/>
					<polygon class="st0" points="91.42,9.54 92.99,7.25 92.99,7.24 91.56,7.24 91.56,6.78 93.72,6.78 93.72,7.1 92.17,9.37 
						92.17,9.39 93.75,9.39 93.75,9.85 91.42,9.85 					"/>
					<path class="st0" d="M95.77,8.56L95.53,7.8c-0.06-0.19-0.11-0.4-0.15-0.57h-0.01c-0.04,0.18-0.09,0.39-0.15,0.57l-0.24,0.76
						H95.77z M94.89,8.98l-0.26,0.87h-0.58l0.99-3.08h0.72l1,3.08h-0.6l-0.28-0.87H94.89z"/>
					<polygon class="st0" points="9.2,41.39 7.9,41.39 7.9,42.6 9.35,42.6 9.35,42.97 7.46,42.97 7.46,39.61 9.28,39.61 9.28,39.97 
						7.9,39.97 7.9,41.03 9.2,41.03 					"/>
					<path class="st0" d="M11.91,42.97v-3.36h0.47l1.07,1.7c0.25,0.39,0.44,0.75,0.6,1.09l0.01,0c-0.04-0.45-0.05-0.86-0.05-1.38
						v-1.4h0.41v3.36h-0.44l-1.07-1.7c-0.23-0.37-0.46-0.76-0.63-1.12l-0.02,0c0.03,0.42,0.03,0.83,0.03,1.39v1.43H11.91z"/>
					<path class="st0" d="M23.06,41.49c-0.03-0.47-0.06-1.03-0.05-1.45h-0.01c-0.12,0.39-0.26,0.82-0.42,1.27l-0.59,1.63h-0.33
						l-0.54-1.6c-0.16-0.47-0.29-0.91-0.39-1.31h-0.01c-0.01,0.42-0.03,0.98-0.06,1.48l-0.09,1.44h-0.41l0.23-3.36h0.55l0.57,1.62
						c0.14,0.41,0.25,0.78,0.34,1.13h0.01c0.09-0.34,0.2-0.71,0.35-1.13l0.6-1.62h0.55l0.21,3.36h-0.42L23.06,41.49z"/>
					<path class="st0" d="M27.88,38.85l-0.63,0.58h-0.36l0.46-0.58H27.88z M27.96,41.39h-1.31v1.21h1.45v0.36h-1.89v-3.36h1.81v0.36
						h-1.38v1.06h1.31V41.39z"/>
					<path class="st0" d="M32.51,42.97l-0.43-0.74c-0.18-0.28-0.29-0.47-0.39-0.66h-0.01c-0.09,0.19-0.19,0.37-0.36,0.67l-0.4,0.74
						h-0.5l1.03-1.7l-0.99-1.66h0.5l0.44,0.79c0.12,0.22,0.22,0.39,0.31,0.57h0.01c0.1-0.2,0.18-0.35,0.3-0.57l0.46-0.79h0.5
						l-1.02,1.63l1.04,1.72H32.51z"/>
					<rect x="35.51" y="39.61" class="st0" width="0.43" height="3.36"/>
					<path class="st0" d="M41.04,42.86c-0.16,0.08-0.48,0.17-0.89,0.17c-0.95,0-1.66-0.6-1.66-1.7c0-1.05,0.71-1.76,1.75-1.76
						c0.42,0,0.68,0.09,0.8,0.15l-0.11,0.35c-0.16-0.08-0.4-0.14-0.68-0.14c-0.79,0-1.31,0.5-1.31,1.38c0,0.82,0.47,1.35,1.29,1.35
						c0.26,0,0.53-0.06,0.71-0.14L41.04,42.86z"/>
					<path class="st0" d="M43.73,41.31c0,0.72,0.39,1.36,1.07,1.36c0.69,0,1.08-0.63,1.08-1.4c0-0.67-0.35-1.37-1.07-1.37
						C44.09,39.91,43.73,40.57,43.73,41.31 M46.34,41.25c0,1.16-0.7,1.77-1.56,1.77c-0.89,0-1.51-0.69-1.51-1.7
						c0-1.07,0.66-1.76,1.56-1.76C45.74,39.55,46.34,40.26,46.34,41.25"/>
					<path class="st0" d="M61.43,42.67c0.69,0,1.08-0.63,1.08-1.4c0-0.67-0.35-1.37-1.06-1.37c-0.73,0-1.09,0.68-1.09,1.41
						C60.35,42.02,60.75,42.67,61.43,42.67L61.43,42.67z M62.86,43.46c-0.45-0.12-0.9-0.25-1.29-0.39c-0.07-0.03-0.14-0.05-0.2-0.05
						c-0.8-0.03-1.48-0.62-1.48-1.7c0-1.08,0.66-1.77,1.56-1.77c0.91,0,1.5,0.71,1.5,1.7c0,0.86-0.4,1.42-0.96,1.61v0.02
						c0.34,0.08,0.7,0.16,0.98,0.21L62.86,43.46z"/>
					<path class="st0" d="M65.95,39.61v1.99c0,0.75,0.34,1.07,0.78,1.07c0.5,0,0.82-0.33,0.82-1.07v-1.99h0.44v1.96
						c0,1.03-0.54,1.45-1.27,1.45c-0.69,0-1.21-0.39-1.21-1.43v-1.98H65.95z"/>
					<polygon class="st0" points="72.47,41.39 71.17,41.39 71.17,42.6 72.62,42.6 72.62,42.97 70.74,42.97 70.74,39.61 72.55,39.61 
						72.55,39.97 71.17,39.97 71.17,41.03 72.47,41.03 					"/>
					<path class="st0" d="M75.61,41.18h0.44c0.46,0,0.76-0.25,0.76-0.64c0-0.43-0.31-0.62-0.77-0.63c-0.21,0-0.36,0.02-0.43,0.04
						V41.18z M75.18,39.65c0.22-0.05,0.53-0.07,0.83-0.07c0.46,0,0.76,0.08,0.97,0.27c0.17,0.15,0.26,0.38,0.26,0.64
						c0,0.44-0.28,0.74-0.63,0.86v0.01c0.26,0.09,0.41,0.33,0.49,0.68c0.11,0.47,0.19,0.79,0.26,0.92h-0.45
						c-0.05-0.1-0.13-0.38-0.22-0.8c-0.1-0.46-0.28-0.64-0.67-0.65h-0.41v1.45h-0.43V39.65z"/>
					<path class="st0" d="M81.51,38.85l-0.63,0.58h-0.36l0.46-0.58H81.51z M81.59,41.39h-1.3v1.21h1.45v0.36h-1.89v-3.36h1.81v0.36
						h-1.38v1.06h1.3V41.39z"/>
					<polygon class="st0" points="85.01,39.98 83.99,39.98 83.99,39.61 86.48,39.61 86.48,39.98 85.45,39.98 85.45,42.97 
						85.01,42.97 					"/>
					<path class="st0" d="M90.11,41.57l-0.33-0.97c-0.07-0.22-0.12-0.42-0.17-0.61H89.6c-0.05,0.2-0.1,0.4-0.17,0.61l-0.33,0.97
						H90.11z M89.01,41.91l-0.35,1.06h-0.45l1.14-3.36h0.52l1.14,3.36h-0.46l-0.36-1.06H89.01z"/>
					<path class="st0" d="M93.95,41.18h0.44c0.46,0,0.76-0.25,0.76-0.64c0-0.43-0.31-0.62-0.77-0.63c-0.21,0-0.36,0.02-0.43,0.04
						V41.18z M93.51,39.65c0.22-0.05,0.53-0.07,0.83-0.07c0.46,0,0.76,0.08,0.97,0.27c0.17,0.15,0.26,0.38,0.26,0.64
						c0,0.44-0.28,0.74-0.63,0.86v0.01c0.26,0.09,0.41,0.33,0.49,0.68c0.11,0.47,0.19,0.79,0.26,0.92h-0.45
						c-0.06-0.1-0.13-0.38-0.23-0.8c-0.1-0.46-0.28-0.64-0.67-0.65h-0.41v1.45h-0.43V39.65z"/>
					<path class="st0" d="M98.46,41.31c0,0.72,0.39,1.36,1.07,1.36c0.69,0,1.08-0.63,1.08-1.4c0-0.67-0.35-1.37-1.07-1.37
						C98.82,39.91,98.46,40.57,98.46,41.31 M101.07,41.25c0,1.16-0.7,1.77-1.56,1.77c-0.89,0-1.51-0.69-1.51-1.7
						c0-1.07,0.66-1.76,1.56-1.76C100.48,39.55,101.07,40.26,101.07,41.25"/>
					<rect x="7.45" y="31.09" class="st0" width="93.56" height="1.79"/>
					<rect x="7.36" y="44.71" class="st0" width="93.54" height="0.76"/>
					<path class="st0" d="M55.32,41.38c0,0.85-0.73,1.55-1.64,1.55c-0.91,0-1.64-0.69-1.64-1.55c0-0.86,0.73-1.55,1.64-1.55
						C54.59,39.83,55.32,40.53,55.32,41.38"/>
					<path class="st0" d="M9.97,37.62c-0.14,0.07-0.45,0.14-0.86,0.14c-1.16,0-1.75-0.72-1.75-1.67c0-1.14,0.81-1.78,1.83-1.78
						c0.39,0,0.69,0.08,0.82,0.15l-0.15,0.6C9.71,35,9.49,34.94,9.22,34.94c-0.6,0-1.07,0.36-1.07,1.11c0,0.67,0.4,1.09,1.07,1.09
						c0.23,0,0.48-0.05,0.63-0.11L9.97,37.62z"/>
					<path class="st0" d="M15.35,36.05c0,0.65,0.31,1.12,0.82,1.12c0.51,0,0.8-0.49,0.8-1.14c0-0.6-0.29-1.12-0.81-1.12
						C15.65,34.92,15.35,35.4,15.35,36.05 M17.77,36.01c0,1.1-0.67,1.76-1.64,1.76c-0.99,0-1.57-0.75-1.57-1.7
						c0-1,0.64-1.75,1.63-1.75C17.21,34.32,17.77,35.09,17.77,36.01"/>
					<path class="st0" d="M22.65,37.72v-3.35h0.88l0.69,1.23c0.2,0.35,0.4,0.77,0.55,1.15h0.01c-0.05-0.44-0.06-0.89-0.06-1.39
						v-0.98h0.69v3.35h-0.79l-0.72-1.29c-0.2-0.36-0.42-0.79-0.58-1.18l-0.01,0.01c0.02,0.44,0.03,0.91,0.03,1.46v1.01H22.65z"/>
					<polygon class="st0" points="31.1,35.01 30.21,35.01 30.21,34.37 32.78,34.37 32.78,35.01 31.86,35.01 31.86,37.72 31.1,37.72 
											"/>
					<polygon class="st0" points="39.56,36.3 38.33,36.3 38.33,37.1 39.7,37.1 39.7,37.72 37.56,37.72 37.56,34.37 39.63,34.37 
						39.63,34.99 38.33,34.99 38.33,35.69 39.56,35.69 					"/>
					<path class="st0" d="M47.43,36.44c-0.01-0.4-0.03-0.89-0.03-1.38h-0.01c-0.1,0.43-0.24,0.9-0.37,1.3l-0.41,1.31h-0.59
						l-0.36-1.3c-0.11-0.39-0.22-0.87-0.3-1.31h-0.01c-0.02,0.45-0.03,0.97-0.06,1.39l-0.06,1.27h-0.7l0.21-3.35h1.01l0.33,1.12
						c0.11,0.39,0.21,0.8,0.28,1.2h0.01c0.09-0.39,0.21-0.83,0.32-1.2l0.36-1.11h0.99l0.18,3.35h-0.74L47.43,36.44z"/>
					<path class="st0" d="M53.94,35.94c0.06,0.01,0.14,0.02,0.25,0.02c0.4,0,0.65-0.2,0.65-0.55c0-0.31-0.21-0.49-0.59-0.49
						c-0.15,0-0.26,0.01-0.31,0.03V35.94z M53.19,34.42c0.23-0.04,0.56-0.07,1.02-0.07c0.47,0,0.8,0.09,1.02,0.27
						c0.21,0.17,0.36,0.45,0.36,0.77c0,0.33-0.11,0.61-0.31,0.79c-0.26,0.24-0.64,0.35-1.09,0.35c-0.1,0-0.19-0.01-0.26-0.02v1.2
						h-0.75V34.42z"/>
					<path class="st0" d="M61.1,36.05c0,0.65,0.31,1.12,0.81,1.12c0.51,0,0.8-0.49,0.8-1.14c0-0.6-0.29-1.12-0.81-1.12
						C61.4,34.92,61.1,35.4,61.1,36.05 M63.52,36.01c0,1.1-0.67,1.76-1.64,1.76c-0.99,0-1.57-0.75-1.57-1.7c0-1,0.64-1.75,1.63-1.75
						C62.96,34.32,63.52,35.09,63.52,36.01"/>
					<path class="st0" d="M69.15,35.86h0.3c0.38,0,0.6-0.19,0.6-0.48c0-0.31-0.21-0.46-0.56-0.47c-0.18,0-0.29,0.01-0.34,0.02V35.86
						z M68.4,34.42c0.24-0.04,0.61-0.07,1.01-0.07c0.5,0,0.84,0.07,1.08,0.26c0.2,0.16,0.31,0.39,0.31,0.7
						c0,0.43-0.3,0.72-0.59,0.82v0.02c0.23,0.09,0.36,0.32,0.45,0.62c0.1,0.38,0.21,0.81,0.27,0.94h-0.77
						c-0.05-0.1-0.13-0.37-0.23-0.78c-0.09-0.42-0.23-0.53-0.54-0.54h-0.23v1.32H68.4V34.42z"/>
					<path class="st0" d="M77.91,33.58l-0.61,0.61H76.7l0.42-0.61H77.91z M77.4,36.29l-0.21-0.71c-0.06-0.2-0.12-0.45-0.17-0.65
						h-0.01c-0.05,0.2-0.1,0.45-0.16,0.65l-0.2,0.71H77.4z M76.55,36.86l-0.24,0.86h-0.79l1.02-3.35h0.99l1.04,3.35h-0.81
						l-0.26-0.86H76.55z"/>
					<path class="st0" d="M83.41,37.72v-3.35h0.88l0.69,1.23c0.2,0.35,0.4,0.77,0.55,1.15h0.01c-0.05-0.44-0.06-0.89-0.06-1.39
						v-0.98h0.69v3.35h-0.79l-0.71-1.29c-0.2-0.36-0.42-0.79-0.58-1.18l-0.01,0.01c0.02,0.44,0.03,0.91,0.03,1.46v1.01H83.41z"/>
					<polygon class="st0" points="93.21,36.3 91.98,36.3 91.98,37.1 93.36,37.1 93.36,37.72 91.22,37.72 91.22,34.37 93.29,34.37 
						93.29,34.99 91.98,34.99 91.98,35.69 93.21,35.69 					"/>
					<path class="st0" d="M99.89,36.29l-0.21-0.71c-0.06-0.2-0.12-0.45-0.17-0.65H99.5c-0.05,0.2-0.1,0.45-0.15,0.65l-0.2,0.71
						H99.89z M99.04,36.86l-0.24,0.86h-0.78l1.02-3.35h0.99l1.04,3.35h-0.81L100,36.86H99.04z"/>
				</g>
			</g>
		</g>
	</g>
</g>
<g id="Capa_6">
</g>
<g id="Capa_5">
</g>
</svg>
