<?xml version="1.0" encoding="utf-8"?>
<!-- Generator: Adobe Illustrator 24.0.3, SVG Export Plug-In . SVG Version: 6.00 Build 0)  -->
<svg version="1.1" xmlns="http://www.w3.org/2000/svg" xmlns:xlink="http://www.w3.org/1999/xlink" x="0px" y="0px"
	 viewBox="0 0 92.9 64.04" style="enable-background:new 0 0 92.9 64.04;" xml:space="preserve">
<style type="text/css">
	.st0{fill:#FFFFFF;}
	.st1{fill:url(#SVGID_1_);}
	.st2{fill:#E7004C;}
	.st3{fill:none;stroke:#00B2E3;stroke-miterlimit:10;}
	.st4{fill:url(#SVGID_2_);}
	.st5{fill:#FCFCFC;}
	.st6{fill:url(#SVGID_3_);}
	.st7{fill:url(#SVGID_4_);}
	.st8{opacity:0.8;fill:#E7004C;}
	.st9{opacity:0.7;fill:#E7004C;}
	.st10{opacity:0.7;}
	.st11{fill:#00B2E3;}
	.st12{opacity:0.8;fill:#00B2E3;}
	.st13{opacity:0.7;fill:#00B2E3;}
	.st14{fill:#BBBBBB;}
	.st15{opacity:0.8;fill:#BBBBBB;}
	.st16{opacity:0.7;fill:#BBBBBB;}
	.st17{fill:url(#SVGID_5_);}
	.st18{fill:url(#SVGID_6_);}
	.st19{fill:none;stroke:#E7004C;stroke-width:2;stroke-miterlimit:10;}
	.st20{fill:url(#SVGID_7_);}
	.st21{fill:url(#SVGID_8_);}
	.st22{fill:url(#SVGID_9_);}
	.st23{fill:none;stroke:#FFFFFF;stroke-miterlimit:10;}
	.st24{fill:none;stroke:#E7004C;stroke-miterlimit:10;}
	.st25{fill-rule:evenodd;clip-rule:evenodd;fill:#E7004C;}
	.st26{fill:none;stroke:#000000;stroke-miterlimit:10;}
	.st27{fill:#38A8E0;}
	.st28{clip-path:url(#SVGID_11_);fill:#00B2E3;}
	.st29{fill:none;stroke:#E7004C;stroke-width:3;stroke-miterlimit:10;}
	.st30{clip-path:url(#SVGID_13_);}
	.st31{fill:none;stroke:#FFFFFF;stroke-width:2;stroke-miterlimit:10;}
	.st32{fill:none;stroke:#FFFFFF;stroke-width:3;stroke-miterlimit:10;}
	.st33{clip-path:url(#SVGID_15_);}
	.st34{fill:url(#SVGID_16_);}
	.st35{fill:none;stroke:#FFFFFF;stroke-width:0.5;stroke-miterlimit:10;}
	.st36{clip-path:url(#SVGID_18_);fill:#00B2E3;}
	.st37{clip-path:url(#SVGID_20_);}
	.st38{clip-path:url(#SVGID_22_);}
	.st39{fill:url(#SVGID_23_);}
	.st40{clip-path:url(#SVGID_25_);}
	.st41{fill:url(#SVGID_26_);}
	.st42{fill:url(#SVGID_27_);}
	.st43{fill:url(#SVGID_28_);}
	.st44{fill:url(#SVGID_29_);}
	.st45{clip-path:url(#SVGID_31_);fill:#00B2E3;}
	.st46{clip-path:url(#SVGID_33_);}
	.st47{clip-path:url(#SVGID_35_);}
	.st48{fill:url(#SVGID_36_);}
	.st49{clip-path:url(#SVGID_38_);}
	.st50{clip-path:url(#SVGID_40_);}
	.st51{fill:#280210;}
	.st52{opacity:0.5;}
	.st53{opacity:0.6;}
	.st54{fill:url(#SVGID_41_);}
	.st55{fill:url(#SVGID_42_);}
	.st56{fill:url(#SVGID_43_);}
	.st57{fill:url(#SVGID_44_);}
	.st58{opacity:0.8;}
	.st59{opacity:0.9;}
	.st60{fill:url(#SVGID_45_);}
	.st61{clip-path:url(#SVGID_47_);}
	.st62{clip-path:url(#SVGID_49_);}
	.st63{fill:url(#SVGID_50_);}
	.st64{clip-path:url(#SVGID_52_);}
	.st65{fill:url(#SVGID_53_);}
	.st66{clip-path:url(#SVGID_55_);}
	.st67{fill:url(#SVGID_56_);}
	.st68{clip-path:url(#SVGID_58_);}
	.st69{clip-path:url(#SVGID_60_);fill:#00B2E3;}
	.st70{clip-path:url(#SVGID_62_);}
	.st71{clip-path:url(#SVGID_64_);}
	.st72{fill:none;stroke:#FFFFFF;stroke-width:5;stroke-miterlimit:10;}
	.st73{clip-path:url(#SVGID_66_);fill:#00B2E3;}
	.st74{clip-path:url(#SVGID_68_);}
	.st75{clip-path:url(#SVGID_70_);}
	.st76{clip-path:url(#SVGID_72_);fill:#00B2E3;}
	.st77{clip-path:url(#SVGID_74_);}
	.st78{fill:#5B0323;}
	.st79{fill:url(#SVGID_75_);}
	.st80{fill:url(#SVGID_76_);}
	.st81{fill:url(#SVGID_77_);}
	.st82{clip-path:url(#SVGID_80_);fill:#00B2E3;}
	.st83{clip-path:url(#SVGID_84_);}
	.st84{clip-path:url(#SVGID_86_);}
	.st85{fill-rule:evenodd;clip-rule:evenodd;fill:#FFFFFF;}
	.st86{fill:#E5E5E5;}
	.st87{clip-path:url(#SVGID_88_);}
	.st88{fill-rule:evenodd;clip-rule:evenodd;fill:none;stroke:#E7004C;stroke-width:3;stroke-miterlimit:10;}
	.st89{fill:#070101;}
	.st90{fill:none;stroke:#068FFF;stroke-width:5;stroke-miterlimit:10;}
</style>
<g id="Capa_2">
</g>
<g id="Capa_1">
</g>
<g id="Capa_3">
</g>
<g id="Capa_4">
	<g>
		<g>
			<path class="st85" d="M42.8,31.22c0.52-2.99-2.47-4.3-5.65-4.3h-7.66l-0.21,1.19l1.19,0.43l-2.37,13.41h4.03l1.1-6.26
				c0.35,0,1.25,0.43,1.71,1.46L35.86,40c0.84,1.92,1.82,2.12,3.86,2.12c0.91,0,2.35-0.13,2.82-0.19l0.23-1.28
				c-0.51,0.04-0.9,0.02-1.04-0.02c-0.14-0.04-2.02-0.76-3.31-5.3C39.71,34.94,42.33,33.87,42.8,31.22z M38.94,31.09
				c-0.2,1.14-1,3.04-4.08,3.04H33.5l0.97-5.52h1.42C38.12,28.6,39.22,29.51,38.94,31.09z"/>
			<path class="st85" d="M51.65,40.21c2.08,0,3.47-0.48,4.32-0.77l-0.35,1.96c-0.87,0.27-2.77,0.78-4.97,0.72
				c-7.27-0.21-8.14-4.83-7.63-7.72c0.65-3.71,4.3-7.65,9.76-7.65c1.68,0,3.44,0.46,4.99,1.59l-0.32,1.8
				c-1.27-0.97-2.76-1.7-4.41-1.7c-4.08,0-5.33,3.65-5.71,5.82C46.7,37.89,48.7,40.21,51.65,40.21z"/>
			<path class="st85" d="M65.64,26.82c-4.56,0-8.36,3.28-9.14,7.74c-0.79,4.46,1.58,7.79,6.86,7.79c6.9,0,9.02-5.85,9.35-7.72
				C73.38,30.85,71.84,26.82,65.64,26.82z M68.98,34.64c-0.3,1.55-1.72,5.84-5.56,5.77c-3.07-0.05-3.76-3.06-3.21-5.86
				c0.43-2.25,2.19-5.84,5.43-5.78C69.05,28.83,69.49,32.01,68.98,34.64z"/>
			<path class="st85" d="M86.98,31.22c0.53-2.99-2.47-4.3-5.65-4.3h-7.67l-0.21,1.19l1.19,0.43l-2.37,13.41h4.03l1.1-6.26
				c0.35,0,1.25,0.43,1.71,1.46L80.05,40c0.83,1.92,1.82,2.12,3.86,2.12c0.91,0,2.35-0.13,2.82-0.19l0.23-1.28
				c-0.51,0.04-0.9,0.02-1.04-0.02c-0.14-0.04-2.02-0.76-3.31-5.3C83.9,34.94,86.52,33.87,86.98,31.22z M83.12,31.09
				c-0.2,1.14-1,3.04-4.08,3.04h-1.35l0.98-5.52h1.42C82.31,28.6,83.4,29.51,83.12,31.09z"/>
			<path class="st85" d="M84.72,13.82C76.07,5.17,61.76,0,46.45,0C31.14,0,16.83,5.17,8.17,13.82C2.82,19.17,0,25.46,0,32.02
				c0,6.56,2.82,12.85,8.17,18.2c8.65,8.65,22.96,13.82,38.27,13.82c25.61,0,46.45-14.36,46.45-32.02
				C92.9,25.46,90.07,19.17,84.72,13.82z M46.45,61.95c-24.5,0-44.36-13.4-44.36-29.93c0-16.53,19.86-29.93,44.36-29.93
				c13.1,0,24.88,3.83,33,9.93c-3.91-1.01-8.89-1.74-12.75-1.74c-14.86,0-32.32,5.89-45.7,16.15c-0.87-2.85-1.54-5.05-1.54-5.05
				h-2.18L5.21,41.69h2.17c2.51-3.15,6.25-6.41,10.9-9.46l2.02,6.78c0.95,3.12,2.8,2.93,4.42,2.93c0.44,0,1.66-0.02,2.19-0.08
				l0.21-1.19c-1.48,0.02-2.22-1.53-2.33-1.77c0,0,0,0,0,0v0l0,0c0,0,0-0.01,0-0.01c0,0,0,0,0-0.01c-0.14-0.46-1.44-4.73-2.73-8.93
				c11.15-6.36,26.28-11.28,42.07-11.28c8.06,0,26.66,3.36,26.66,13.37c0,0.27,0,0.71-0.03,1.26v0.02
				C89.77,49.24,70.31,61.95,46.45,61.95z M17.43,29.36c-2.54,2.23-4.89,4.64-7,7.2l6.09-10.24L17.43,29.36z"/>
			<path class="st85" d="M42.8,31.22c0.52-2.99-2.47-4.3-5.65-4.3h-7.66l-0.21,1.19l1.19,0.43l-2.37,13.41h4.03l1.1-6.26
				c0.35,0,1.25,0.43,1.71,1.46L35.86,40c0.84,1.92,1.82,2.12,3.86,2.12c0.91,0,2.35-0.13,2.82-0.19l0.23-1.28
				c-0.51,0.04-0.9,0.02-1.04-0.02c-0.14-0.04-2.02-0.76-3.31-5.3C39.71,34.94,42.33,33.87,42.8,31.22z M38.94,31.09
				c-0.2,1.14-1,3.04-4.08,3.04H33.5l0.97-5.52h1.42C38.12,28.6,39.22,29.51,38.94,31.09z"/>
			<path class="st85" d="M51.65,40.21c2.08,0,3.47-0.48,4.32-0.77l-0.35,1.96c-0.87,0.27-2.77,0.78-4.97,0.72
				c-7.27-0.21-8.14-4.83-7.63-7.72c0.65-3.71,4.3-7.65,9.76-7.65c1.68,0,3.44,0.46,4.99,1.59l-0.32,1.8
				c-1.27-0.97-2.76-1.7-4.41-1.7c-4.08,0-5.33,3.65-5.71,5.82C46.7,37.89,48.7,40.21,51.65,40.21z"/>
			<path class="st85" d="M65.64,26.82c-4.56,0-8.36,3.28-9.14,7.74c-0.79,4.46,1.58,7.79,6.86,7.79c6.9,0,9.02-5.85,9.35-7.72
				C73.38,30.85,71.84,26.82,65.64,26.82z M68.98,34.64c-0.3,1.55-1.72,5.84-5.56,5.77c-3.07-0.05-3.76-3.06-3.21-5.86
				c0.43-2.25,2.19-5.84,5.43-5.78C69.05,28.83,69.49,32.01,68.98,34.64z"/>
			<path class="st85" d="M86.98,31.22c0.53-2.99-2.47-4.3-5.65-4.3h-7.67l-0.21,1.19l1.19,0.43l-2.37,13.41h4.03l1.1-6.26
				c0.35,0,1.25,0.43,1.71,1.46L80.05,40c0.83,1.92,1.82,2.12,3.86,2.12c0.91,0,2.35-0.13,2.82-0.19l0.23-1.28
				c-0.51,0.04-0.9,0.02-1.04-0.02c-0.14-0.04-2.02-0.76-3.31-5.3C83.9,34.94,86.52,33.87,86.98,31.22z M83.12,31.09
				c-0.2,1.14-1,3.04-4.08,3.04h-1.35l0.98-5.52h1.42C82.31,28.6,83.4,29.51,83.12,31.09z"/>
			<path class="st85" d="M90.81,32.02c0-7.69-4.3-14.7-11.36-20c-3.91-1.01-8.89-1.74-12.75-1.74c-14.86,0-32.32,5.89-45.7,16.15
				c-0.87-2.85-1.54-5.05-1.54-5.05h-2.18L5.21,41.69h2.17c2.51-3.15,6.25-6.41,10.9-9.46l2.02,6.78c0.95,3.12,2.8,2.93,4.42,2.93
				c0.44,0,1.66-0.02,2.19-0.08l0.21-1.19c-1.48,0.02-2.22-1.53-2.33-1.77c0,0,0,0,0,0v0l0,0c0,0,0-0.01,0-0.01c0,0,0,0,0-0.01
				c-0.14-0.46-1.44-4.73-2.73-8.93c11.15-6.36,26.28-11.28,42.07-11.28c8.06,0,26.66,3.36,26.66,13.37c0,0.27,0,0.71-0.03,1.26
				C90.79,32.86,90.81,32.44,90.81,32.02z M10.44,36.56l6.09-10.24l0.91,3.04C14.89,31.59,12.54,34,10.44,36.56z"/>
			<path class="st85" d="M90.77,33.28c0.02-0.55,0.03-0.99,0.03-1.26c0-10.01-18.6-13.37-26.66-13.37
				c-15.79,0-30.92,4.91-42.07,11.28c-1.32,0.75-2.58,1.52-3.78,2.31c-4.65,3.05-8.4,6.31-10.9,9.46H6.71
				c1.13-1.77,2.38-3.48,3.73-5.13c2.1-2.57,4.45-4.97,7-7.2c1.15-1.01,2.34-1.99,3.57-2.93c13.38-10.26,30.83-16.15,45.7-16.15
				c3.86,0,8.84,0.73,12.75,1.74c1.29,0.33,2.47,0.7,3.44,1.07c7.32,5.74,11.7,14.04,7.11,25.24c0.53-1.55,0.71-3.62,0.77-5.02
				V33.28z"/>
			<g>
				<path class="st0" d="M42.8,31.22c0.52-2.99-2.47-4.3-5.65-4.3h-7.66l-0.21,1.19l1.19,0.43l-2.37,13.41h4.03l1.1-6.26
					c0.35,0,1.25,0.43,1.71,1.46L35.86,40c0.84,1.92,1.82,2.12,3.86,2.12c0.91,0,2.35-0.13,2.82-0.19l0.23-1.28
					c-0.51,0.04-0.9,0.02-1.04-0.02c-0.14-0.04-2.02-0.76-3.31-5.3C39.71,34.94,42.33,33.87,42.8,31.22z M38.94,31.09
					c-0.2,1.14-1,3.04-4.08,3.04H33.5l0.97-5.52h1.42C38.12,28.6,39.22,29.51,38.94,31.09z"/>
				<path class="st0" d="M86.98,31.22c0.53-2.99-2.47-4.3-5.65-4.3h-7.67l-0.21,1.19l1.19,0.43l-2.37,13.41h4.03l1.1-6.26
					c0.35,0,1.25,0.43,1.71,1.46L80.05,40c0.83,1.92,1.82,2.12,3.86,2.12c0.91,0,2.35-0.13,2.82-0.19l0.23-1.28
					c-0.51,0.04-0.9,0.02-1.04-0.02c-0.14-0.04-2.02-0.76-3.31-5.3C83.9,34.94,86.52,33.87,86.98,31.22z M83.12,31.09
					c-0.2,1.14-1,3.04-4.08,3.04h-1.35l0.98-5.52h1.42C82.31,28.6,83.4,29.51,83.12,31.09z"/>
				<path class="st0" d="M47.34,34.25c-0.64,3.64,1.36,5.96,4.31,5.96c2.08,0,3.47-0.48,4.32-0.77l-0.35,1.96
					c-0.87,0.27-2.77,0.78-4.97,0.72c-7.27-0.21-8.14-4.83-7.63-7.72c0.65-3.71,4.3-7.65,9.76-7.65c1.68,0,3.44,0.46,4.99,1.59
					l-0.32,1.8c-1.27-0.97-2.76-1.7-4.41-1.7C48.97,28.43,47.72,32.08,47.34,34.25z"/>
				<path class="st0" d="M65.64,26.82c-4.56,0-8.36,3.28-9.14,7.74c-0.79,4.46,1.58,7.79,6.86,7.79c6.9,0,9.02-5.85,9.35-7.72
					C73.38,30.85,71.84,26.82,65.64,26.82z M68.98,34.64c-0.3,1.55-1.72,5.84-5.56,5.77c-3.07-0.05-3.76-3.06-3.21-5.86
					c0.43-2.25,2.19-5.84,5.43-5.78C69.05,28.83,69.49,32.01,68.98,34.64z"/>
				<path class="st85" d="M27.13,40.65l-0.21,1.19c-0.54,0.06-1.75,0.08-2.19,0.08c-1.61,0-3.46,0.19-4.42-2.93l-2.02-6.78
					l-0.86-2.87l-0.91-3.04l-6.09,10.24l-3.05,5.13H5.21l12.07-20.31h2.18c0,0,0.67,2.21,1.54,5.05c0.34,1.1,0.7,2.29,1.06,3.49
					c1.28,4.2,2.59,8.47,2.73,8.93c0,0,0,0.01,0,0.01c0,0,0,0.01,0,0.01l0,0v0c0,0,0,0,0,0C24.91,39.13,25.65,40.67,27.13,40.65z"/>
			</g>
		</g>
	</g>
</g>
<g id="Capa_6">
</g>
<g id="Capa_5">
</g>
</svg>
