<?xml version="1.0" encoding="utf-8"?>
<!-- Generator: Adobe Illustrator 24.0.3, SVG Export Plug-In . SVG Version: 6.00 Build 0)  -->
<svg version="1.1" xmlns="http://www.w3.org/2000/svg" xmlns:xlink="http://www.w3.org/1999/xlink" x="0px" y="0px"
	 viewBox="0 0 101.47 47.14" style="enable-background:new 0 0 101.47 47.14;" xml:space="preserve">
<style type="text/css">
	.st0{fill:#FFFFFF;}
	.st1{fill:url(#SVGID_1_);}
	.st2{fill:#E7004C;}
	.st3{fill:none;stroke:#00B2E3;stroke-miterlimit:10;}
	.st4{fill:url(#SVGID_2_);}
	.st5{fill:#FCFCFC;}
	.st6{fill:url(#SVGID_3_);}
	.st7{fill:url(#SVGID_4_);}
	.st8{opacity:0.8;fill:#E7004C;}
	.st9{opacity:0.7;fill:#E7004C;}
	.st10{opacity:0.7;}
	.st11{fill:#00B2E3;}
	.st12{opacity:0.8;fill:#00B2E3;}
	.st13{opacity:0.7;fill:#00B2E3;}
	.st14{fill:#BBBBBB;}
	.st15{opacity:0.8;fill:#BBBBBB;}
	.st16{opacity:0.7;fill:#BBBBBB;}
	.st17{fill:url(#SVGID_5_);}
	.st18{fill:url(#SVGID_6_);}
	.st19{fill:none;stroke:#E7004C;stroke-width:2;stroke-miterlimit:10;}
	.st20{fill:url(#SVGID_7_);}
	.st21{fill:url(#SVGID_8_);}
	.st22{fill:url(#SVGID_9_);}
	.st23{fill:none;stroke:#FFFFFF;stroke-miterlimit:10;}
	.st24{fill:none;stroke:#E7004C;stroke-miterlimit:10;}
	.st25{fill-rule:evenodd;clip-rule:evenodd;fill:#E7004C;}
	.st26{fill:none;stroke:#000000;stroke-miterlimit:10;}
	.st27{fill:#38A8E0;}
	.st28{clip-path:url(#SVGID_11_);fill:#00B2E3;}
	.st29{fill:none;stroke:#E7004C;stroke-width:3;stroke-miterlimit:10;}
	.st30{clip-path:url(#SVGID_13_);}
	.st31{fill:none;stroke:#FFFFFF;stroke-width:2;stroke-miterlimit:10;}
	.st32{fill:none;stroke:#FFFFFF;stroke-width:3;stroke-miterlimit:10;}
	.st33{clip-path:url(#SVGID_15_);}
	.st34{fill:url(#SVGID_16_);}
	.st35{fill:none;stroke:#FFFFFF;stroke-width:0.5;stroke-miterlimit:10;}
	.st36{clip-path:url(#SVGID_18_);fill:#00B2E3;}
	.st37{clip-path:url(#SVGID_20_);}
	.st38{clip-path:url(#SVGID_22_);}
	.st39{fill:url(#SVGID_23_);}
	.st40{clip-path:url(#SVGID_25_);}
	.st41{fill:url(#SVGID_26_);}
	.st42{fill:url(#SVGID_27_);}
	.st43{fill:url(#SVGID_28_);}
	.st44{fill:url(#SVGID_29_);}
	.st45{clip-path:url(#SVGID_31_);fill:#00B2E3;}
	.st46{clip-path:url(#SVGID_33_);}
	.st47{clip-path:url(#SVGID_35_);}
	.st48{fill:url(#SVGID_36_);}
	.st49{clip-path:url(#SVGID_38_);}
	.st50{clip-path:url(#SVGID_40_);}
	.st51{fill:#280210;}
	.st52{opacity:0.5;}
	.st53{opacity:0.6;}
	.st54{fill:url(#SVGID_41_);}
	.st55{fill:url(#SVGID_42_);}
	.st56{fill:url(#SVGID_43_);}
	.st57{fill:url(#SVGID_44_);}
	.st58{opacity:0.8;}
	.st59{opacity:0.9;}
	.st60{fill:url(#SVGID_45_);}
	.st61{clip-path:url(#SVGID_47_);}
	.st62{clip-path:url(#SVGID_49_);}
	.st63{fill:url(#SVGID_50_);}
	.st64{clip-path:url(#SVGID_52_);}
	.st65{fill:url(#SVGID_53_);}
	.st66{clip-path:url(#SVGID_55_);}
	.st67{fill:url(#SVGID_56_);}
	.st68{clip-path:url(#SVGID_58_);}
	.st69{clip-path:url(#SVGID_60_);fill:#00B2E3;}
	.st70{clip-path:url(#SVGID_62_);}
	.st71{clip-path:url(#SVGID_64_);}
	.st72{fill:none;stroke:#FFFFFF;stroke-width:5;stroke-miterlimit:10;}
	.st73{clip-path:url(#SVGID_66_);fill:#00B2E3;}
	.st74{clip-path:url(#SVGID_68_);}
	.st75{clip-path:url(#SVGID_70_);}
	.st76{clip-path:url(#SVGID_72_);fill:#00B2E3;}
	.st77{clip-path:url(#SVGID_74_);}
	.st78{fill:#5B0323;}
	.st79{fill:url(#SVGID_75_);}
	.st80{fill:url(#SVGID_76_);}
	.st81{fill:url(#SVGID_77_);}
	.st82{clip-path:url(#SVGID_80_);fill:#00B2E3;}
	.st83{clip-path:url(#SVGID_84_);}
	.st84{clip-path:url(#SVGID_86_);}
	.st85{fill-rule:evenodd;clip-rule:evenodd;fill:#FFFFFF;}
	.st86{fill:#E5E5E5;}
	.st87{clip-path:url(#SVGID_88_);}
	.st88{fill-rule:evenodd;clip-rule:evenodd;fill:none;stroke:#E7004C;stroke-width:3;stroke-miterlimit:10;}
	.st89{fill:#070101;}
	.st90{fill:none;stroke:#068FFF;stroke-width:5;stroke-miterlimit:10;}
</style>
<g id="Capa_2">
</g>
<g id="Capa_1">
</g>
<g id="Capa_3">
</g>
<g id="Capa_4">
	<g>
		<g>
			<path class="st0" d="M12.96,46.25c1.02-0.86-3.22-5.19-2.26-13.88c0.99-8.95,4.64-11.37,2.19-14.08c-0.84-0.92-1.76-1-2.17-0.98
				c-0.07-0.54-0.3-1.05-0.72-1.46c-0.34-0.33-0.64-0.5-1.07-0.6c0.8-1.74,2.21-4.13,4.02-5.49C12.38,9.44,11.84,9.17,11.38,9
				c-0.55,0.65-1.01,1.36-1.42,2.06c-0.86,1.46-1.24,2.88-1.62,4.08c-0.67-0.02-1.35,0.22-1.85,0.73c-0.24,0.24-0.4,0.51-0.52,0.8
				c-0.46-0.25-1.49-0.63-2.63,0.31c-2.49,2.06-2.93,8.28-0.37,15.94C5.59,40.77,11.73,47.3,12.96,46.25z"/>
			<path class="st0" d="M88.05,22.41c5.28,0.06,10.38-2.55,13.35-7.12c-4.87,1.79-11.28,2.39-18.19,1.48
				c-0.17-1.79-1-4.31-2.89-5.18c-0.78-0.36-1.63-0.37-2.39-0.13c-1.77-4-4.2-7.64-7.2-10.74c2.67,3.34,4.76,7.16,6.16,11.29
				c-0.36,0.28-0.49,0.48-0.71,0.78c-0.1,0.14-0.18,0.28-0.25,0.43c-0.45,0.99-0.27,2.02,0.12,2.97c0.83,2.73-0.34,4.94,0.05,8.14
				c0.42,3.55,2.62,5.38,3.57,8.36c0.43,1.34,0.82,2.07,0.52,3.84c-0.01,0.05-0.02,0.09-0.04,0.14l-0.01,0
				c-0.32,0.75-0.71,1.47-1.2,2.17c-0.83,1.2-1.84,2.2-2.96,2.99c1.22-0.74,2.35-1.66,3.35-2.75c-0.14,0.34-0.27,0.67-0.42,1
				c-1.15,2.51-2.7,4.71-4.52,6.57c2.99-2.64,5.48-5.93,7.25-9.78c1.76-3.85,2.61-7.88,2.66-11.85c0.49,0.28,0.98,0.54,1.5,0.78
				c4.56,2.09,9.53,2.17,13.91,0.61c-3.45-0.74-7.34-2.03-11.33-3.86C88.25,22.51,88.15,22.46,88.05,22.41z"/>
			<g>
				<path class="st0" d="M69.44,6.68c1-0.71,1.58-1.8,1.69-2.94C70.01,3.49,68.8,3.68,67.8,4.4c-1,0.72-1.58,1.8-1.69,2.94
					C67.23,7.59,68.44,7.4,69.44,6.68z"/>
				<path class="st0" d="M55.49,7.85c0.4-1.07,1.28-1.87,2.39-2.3c-0.56-1.06-0.7-2.23-0.29-3.3c0.39-1.04,1.22-1.81,2.27-2.25l0,0
					c-0.73,1.93,0.64,4.23,3.04,5.16c0.02,0.01,0.04,0.01,0.06,0.02c1.34,0.5,2.11,1.75,1.79,2.83c3.64,3.64,9.24-1.73,9.73,1.81
					c0.22,1.54-3.79,2.31-6.65,0.68c-0.44-0.25-0.84-0.49-1.21-0.71c3.57,3.7,1.47,8.22-0.51,7.48c-2.36-0.87,2.05-4.68-0.93-8.41
					c-0.08-0.06-0.17-0.12-0.25-0.18c2.32,3.82-0.57,7.71-2.01,6.57c-0.93-0.74,0.57-1.79,1.43-3.41c-0.46,0.56-1.18,0.85-1.85,0.83
					c-1.15,0.04-2.14-0.99-2.02-1.94c0.17-1.42,2.1-1.37,2.36-0.47c0.26,0.9-0.73,1.19-0.73,1.19c0.67,0.84,1.85,0.29,2.12-0.22
					c0.43-0.85,0.51-1.78,0.25-2.71c-0.58,0.81-1.84,1.11-3.05,0.65c-0.01-0.01-0.03-0.02-0.05-0.02c-2.43-0.88-4.96-0.05-5.69,1.88
					l0,0C55.22,10.01,55.1,8.88,55.49,7.85z"/>
				<path class="st0" d="M69.65,12.56c3.63-0.35,4.38,2.81,4.38,2.81C70.51,15.75,69.65,12.56,69.65,12.56z"/>
			</g>
			<g>
				<path class="st0" d="M16.41,21.73c0,0.1-0.03,0.24-0.06,0.39h0.08c0.29-0.52,0.96-1.1,2-1.1c1.49,0,2.35,0.87,2.35,2.27
					c0,2.36-1.83,4.06-3.72,4.06c-0.61,0-1-0.15-1.09-0.34l-0.19,0.78c-0.02,0.07-0.02,0.16-0.02,0.23c0,0.35,0.2,0.56,0.62,0.56
					l-0.3,1.43c-1.83,0-2.58-0.66-2.58-1.68c0-0.2,0.02-0.4,0.08-0.63l1.12-5.29c0.02-0.09,0.02-0.15,0.02-0.23
					c0-0.2-0.11-0.34-0.26-0.44l1.41-0.72C16.2,21.07,16.41,21.34,16.41,21.73z M16.72,23.43L16.39,25
					c-0.02,0.14-0.05,0.26-0.05,0.38c0,0.31,0.18,0.52,0.67,0.52c1.07,0,1.45-1.8,1.45-2.52c0-0.54-0.2-0.87-0.73-0.87
					C17.07,22.5,16.84,22.9,16.72,23.43z"/>
				<path class="st0" d="M26.56,26.04c-0.08,0.34-0.03,0.56,0.21,0.72l-1.34,0.71c-0.44-0.06-0.64-0.52-0.49-1.1h-0.05
					c-0.47,0.67-1.05,1.1-2.17,1.1c-1.36,0-2.32-0.78-2.02-2.22l0.85-3.97h2.26l-0.77,3.66c-0.13,0.61,0.02,0.88,0.53,0.88
					c0.57,0,0.84-0.34,0.97-0.93l0.76-3.61h2.27L26.56,26.04z"/>
				<path class="st0" d="M30.24,25.85c0.64,0,1.16-0.32,1.28-0.9l1.02,0.99c-0.46,1.08-1.21,1.43-2.65,1.43
					c-1.74,0-2.69-0.88-2.69-2.31c0-1.93,1.37-4.04,3.9-4.04c1.92,0,2.28,0.95,2.28,1.64c0,2.4-3.9,1.08-3.9,2.51
					C29.5,25.68,29.87,25.85,30.24,25.85z M31.75,22.71c0-0.24-0.15-0.39-0.61-0.39c-0.73,0-1.16,0.57-1.42,1.3
					C30.52,22.99,31.75,23.34,31.75,22.71z"/>
				<path class="st0" d="M34.07,20.48c0.39-1.86,1.59-2.68,2.91-2.68l0.38,1.69c-0.56,0-0.98,0.51-1.11,1.26l-0.13,0.67
					c0.16-0.19,0.63-0.4,1.21-0.4c1.51,0,2.41,0.87,2.41,2.28c0,1.92-1.38,4.05-4.04,4.05c-1.68,0-2.56-0.88-2.56-2.17
					c0-0.23,0.03-0.47,0.07-0.72L34.07,20.48z M37.42,23.38c0-0.53-0.2-0.85-0.73-0.85c-0.66,0-0.88,0.35-0.99,0.88l-0.33,1.56
					c-0.02,0.14-0.06,0.28-0.06,0.38c0,0.32,0.18,0.52,0.67,0.52C36.69,25.88,37.42,24.81,37.42,23.38z"/>
				<path class="st0" d="M40.83,20.48c0.39-1.84,1.59-2.68,2.9-2.68l0.38,1.69c-0.54,0-0.93,0.51-1.1,1.26l-1.38,6.46h-2.25
					L40.83,20.48z"/>
				<path class="st0" d="M45.55,25.85c0.64,0,1.16-0.32,1.29-0.9l1.02,0.99c-0.45,1.08-1.21,1.43-2.65,1.43
					c-1.74,0-2.69-0.88-2.69-2.31c0-1.93,1.37-4.04,3.9-4.04c1.92,0,2.29,0.95,2.29,1.64c0,2.4-3.9,1.08-3.9,2.51
					C44.8,25.68,45.18,25.85,45.55,25.85z M47.06,22.71c0-0.24-0.15-0.39-0.61-0.39c-0.73,0-1.16,0.57-1.41,1.3
					C45.83,22.99,47.06,23.34,47.06,22.71z"/>
				<path class="st0" d="M53.25,27.43c-0.34-0.05-0.53-0.33-0.53-0.72c0-0.11,0.01-0.24,0.07-0.38h-0.07c-0.21,0.45-1.01,1-2.02,1
					c-1.48,0-2.39-0.81-2.39-2.21c0-2.35,1.83-4.07,3.56-4.07c0.93,0,1.35,0.35,1.54,0.87l0.15-0.64h1.84l-1.01,4.76
					c-0.02,0.09-0.02,0.15-0.02,0.23c0,0.2,0.07,0.35,0.27,0.45L53.25,27.43z M52.34,25.01l0.33-1.56c0.04-0.15,0.06-0.28,0.06-0.38
					c0-0.33-0.18-0.52-0.67-0.52c-0.9,0-1.45,1.4-1.45,2.5c0,0.54,0.2,0.86,0.74,0.86C52,25.9,52.23,25.54,52.34,25.01z"/>
				<path class="st0" d="M55.87,22.45c0.08-0.34,0.01-0.55-0.23-0.72l1.34-0.7c0.45,0.06,0.65,0.52,0.5,1.1h0.05
					c0.47-0.67,1.05-1.1,2.17-1.1c1.36,0,2.33,0.78,2.03,2.22l-0.85,3.97h-2.27l0.77-3.66c0.13-0.6-0.03-0.88-0.53-0.88
					c-0.56,0-0.85,0.34-0.98,0.93l-0.76,3.61h-2.27L55.87,22.45z"/>
				<path class="st0" d="M66.61,27.43c-0.34-0.05-0.53-0.33-0.53-0.72c0-0.11,0.01-0.24,0.06-0.38h-0.06c-0.2,0.45-1.02,1-2.02,1
					c-1.49,0-2.4-0.81-2.4-2.21c0-2.37,1.85-4.07,3.74-4.07c0.59,0,1,0.19,1.07,0.38l0.3-1.41c0.01-0.08,0.03-0.16,0.03-0.23
					c0-0.35-0.22-0.56-0.62-0.56l0.3-1.43c1.83,0,2.58,0.66,2.58,1.68c0,0.2-0.01,0.4-0.06,0.63l-1.26,5.92
					c-0.03,0.09-0.03,0.15-0.03,0.23c0,0.2,0.08,0.35,0.26,0.45L66.61,27.43z M65.7,25.01l0.33-1.56c0.04-0.15,0.06-0.28,0.06-0.38
					c0-0.33-0.17-0.52-0.67-0.52c-0.9,0-1.45,1.4-1.45,2.5c0,0.54,0.2,0.86,0.74,0.86C65.36,25.9,65.59,25.54,65.7,25.01z"/>
				<path class="st0" d="M68.4,25.06c0-2.37,1.74-4.04,3.96-4.04c1.68,0,2.64,0.82,2.64,2.25c0,1.99-1.43,4.1-3.99,4.1
					C69.34,27.37,68.4,26.48,68.4,25.06z M72.7,23.24c0-0.47-0.18-0.76-0.64-0.76c-1.1,0-1.36,1.94-1.36,2.56
					c0,0.5,0.19,0.8,0.64,0.8C72.27,25.84,72.7,24.14,72.7,23.24z"/>
			</g>
			<g>
				<path class="st0" d="M12.14,34.85c0-1.45,1.03-3.03,2.93-3.03c1.44,0,1.67,0.74,1.67,1.18c0,0.44-0.17,0.72-0.45,0.72h-0.97
					c0.03-0.06,0.05-0.16,0.05-0.29c0-0.32-0.16-0.48-0.42-0.48c-0.76,0-1.04,1.26-1.04,1.85c0,0.5,0.24,0.66,0.52,0.66
					c0.48,0,0.87-0.24,0.97-0.67l0.77,0.74c-0.34,0.81-0.91,1.07-1.99,1.07C12.85,36.59,12.14,35.92,12.14,34.85z"/>
				<path class="st0" d="M16.18,34.85c0-1.78,1.31-3.03,2.98-3.03c1.26,0,1.98,0.61,1.98,1.69c0,1.5-1.07,3.08-3,3.08
					C16.89,36.59,16.18,35.92,16.18,34.85z M19.41,33.48c0-0.35-0.13-0.57-0.48-0.57c-0.83,0-1.02,1.46-1.02,1.92
					c0,0.38,0.14,0.6,0.48,0.6C19.09,35.44,19.41,34.16,19.41,33.48z"/>
				<path class="st0" d="M21.59,32.89c0.06-0.26,0.01-0.42-0.17-0.54l1.01-0.53c0.34,0.05,0.48,0.39,0.37,0.82h0.04
					c0.35-0.5,0.79-0.82,1.63-0.82c1.02,0,1.75,0.59,1.53,1.67l-0.64,2.99h-1.71l0.58-2.75c0.09-0.46-0.02-0.67-0.4-0.67
					c-0.42,0-0.64,0.26-0.73,0.7l-0.57,2.71h-1.7L21.59,32.89z"/>
			</g>
			<g>
				<path class="st0" d="M27.87,33.99c0.11-0.5,0.02-0.81-0.34-1.05l1.96-1.03c0.67,0.09,0.94,0.76,0.72,1.61h0.08
					c0.7-0.98,1.47-1.61,2.93-1.61c1.18,0,2.07,0.51,2.36,1.33c0.63-0.76,1.48-1.33,2.95-1.33c1.84,0,2.99,1.24,2.56,3.25
					l-1.23,5.81h-3.3l1.14-5.39c0.18-0.83,0.06-1.26-0.59-1.26c-0.64,0-1.02,0.43-1.2,1.26l-1.14,5.39h-3.28l1.14-5.39
					c0.19-0.83,0.06-1.26-0.61-1.26c-0.65,0-1,0.43-1.18,1.26l-1.16,5.39h-3.3L27.87,33.99z"/>
				<path class="st0" d="M42.59,32.27h3.29l-1.84,8.69h-3.29L42.59,32.27z M43.37,29.48c0.17-0.76,0.96-1.35,1.75-1.35
					c0.81,0,1.37,0.57,1.22,1.35c-0.15,0.7-0.98,1.31-1.77,1.31C43.75,30.79,43.22,30.19,43.37,29.48z"/>
				<path class="st0" d="M53.48,34.04c0,0.74-0.3,1.02-0.72,1.02H51.1c0.04-0.11,0.06-0.26,0.06-0.41c0-0.44-0.3-0.81-1.2-0.81
					c-0.83,0-1.29,0.3-1.29,0.7c0,0.39,0.3,0.46,1.46,0.7c2.03,0.44,2.86,0.94,2.86,2.51c0,2.18-2.45,3.43-4.87,3.43
					c-2.86,0-3.27-1.27-3.27-2.16l2.36-0.96c-0.02,0.11-0.04,0.24-0.04,0.35c0,0.5,0.3,0.87,1.25,0.87c0.98,0,1.41-0.37,1.41-0.68
					c0-0.35-0.26-0.44-1.5-0.7c-1.92-0.43-2.64-1.03-2.64-2.55c0-1.36,1.51-3.45,4.52-3.45C53.07,31.9,53.48,33.25,53.48,34.04z"/>
				<path class="st0" d="M54.45,32.27h3.29l-1.85,8.69h-3.29L54.45,32.27z M55.23,29.48c0.17-0.76,0.96-1.35,1.75-1.35
					c0.81,0,1.37,0.57,1.22,1.35c-0.15,0.7-0.98,1.31-1.77,1.31C55.62,30.79,55.08,30.19,55.23,29.48z"/>
				<path class="st0" d="M57.17,37.81c0-3.47,2.55-5.9,5.8-5.9c2.45,0,3.85,1.2,3.85,3.28c0,2.92-2.08,6-5.83,6
					C58.55,41.18,57.17,39.89,57.17,37.81z M63.46,35.15c0-0.68-0.26-1.11-0.94-1.11c-1.6,0-1.99,2.84-1.99,3.75
					c0,0.74,0.27,1.16,0.94,1.16C62.83,38.95,63.46,36.46,63.46,35.15z M64.71,27.79h2.99l-4.1,3.28h-2.14L64.71,27.79z"/>
				<path class="st0" d="M67.7,33.99c0.11-0.5,0.02-0.81-0.33-1.05l1.96-1.03c0.66,0.09,0.94,0.76,0.72,1.61h0.08
					c0.68-0.98,1.53-1.61,3.17-1.61c1.99,0,3.41,1.14,2.97,3.25l-1.24,5.81H71.7l1.13-5.35c0.18-0.88-0.04-1.29-0.78-1.29
					c-0.82,0-1.24,0.5-1.42,1.36l-1.11,5.28H66.2L67.7,33.99z"/>
			</g>
		</g>
	</g>
</g>
<g id="Capa_6">
</g>
<g id="Capa_5">
</g>
</svg>
