<?xml version="1.0" encoding="utf-8"?>
<!-- Generator: Adobe Illustrator 24.0.3, SVG Export Plug-In . SVG Version: 6.00 Build 0)  -->
<svg version="1.1" xmlns="http://www.w3.org/2000/svg" xmlns:xlink="http://www.w3.org/1999/xlink" x="0px" y="0px"
	 viewBox="0 0 76.91 33.84" style="enable-background:new 0 0 76.91 33.84;" xml:space="preserve">
<style type="text/css">
	.st0{fill:#FFFFFF;}
	.st1{fill:url(#SVGID_1_);}
	.st2{fill:#E7004C;}
	.st3{fill:none;stroke:#00B2E3;stroke-miterlimit:10;}
	.st4{fill:url(#SVGID_2_);}
	.st5{fill:#FCFCFC;}
	.st6{fill:url(#SVGID_3_);}
	.st7{fill:url(#SVGID_4_);}
	.st8{opacity:0.8;fill:#E7004C;}
	.st9{opacity:0.7;fill:#E7004C;}
	.st10{opacity:0.7;}
	.st11{fill:#00B2E3;}
	.st12{opacity:0.8;fill:#00B2E3;}
	.st13{opacity:0.7;fill:#00B2E3;}
	.st14{fill:#BBBBBB;}
	.st15{opacity:0.8;fill:#BBBBBB;}
	.st16{opacity:0.7;fill:#BBBBBB;}
	.st17{fill:url(#SVGID_5_);}
	.st18{fill:url(#SVGID_6_);}
	.st19{fill:none;stroke:#E7004C;stroke-width:2;stroke-miterlimit:10;}
	.st20{fill:url(#SVGID_7_);}
	.st21{fill:url(#SVGID_8_);}
	.st22{fill:url(#SVGID_9_);}
	.st23{fill:none;stroke:#FFFFFF;stroke-miterlimit:10;}
	.st24{fill:none;stroke:#E7004C;stroke-miterlimit:10;}
	.st25{fill-rule:evenodd;clip-rule:evenodd;fill:#E7004C;}
	.st26{fill:none;stroke:#000000;stroke-miterlimit:10;}
	.st27{fill:#38A8E0;}
	.st28{clip-path:url(#SVGID_11_);fill:#00B2E3;}
	.st29{fill:none;stroke:#E7004C;stroke-width:3;stroke-miterlimit:10;}
	.st30{clip-path:url(#SVGID_13_);}
	.st31{fill:none;stroke:#FFFFFF;stroke-width:2;stroke-miterlimit:10;}
	.st32{fill:none;stroke:#FFFFFF;stroke-width:3;stroke-miterlimit:10;}
	.st33{clip-path:url(#SVGID_15_);}
	.st34{fill:url(#SVGID_16_);}
	.st35{fill:none;stroke:#FFFFFF;stroke-width:0.5;stroke-miterlimit:10;}
	.st36{clip-path:url(#SVGID_18_);fill:#00B2E3;}
	.st37{clip-path:url(#SVGID_20_);}
	.st38{clip-path:url(#SVGID_22_);}
	.st39{fill:url(#SVGID_23_);}
	.st40{clip-path:url(#SVGID_25_);}
	.st41{fill:url(#SVGID_26_);}
	.st42{fill:url(#SVGID_27_);}
	.st43{fill:url(#SVGID_28_);}
	.st44{fill:url(#SVGID_29_);}
	.st45{clip-path:url(#SVGID_31_);fill:#00B2E3;}
	.st46{clip-path:url(#SVGID_33_);}
	.st47{clip-path:url(#SVGID_35_);}
	.st48{fill:url(#SVGID_36_);}
	.st49{clip-path:url(#SVGID_38_);}
	.st50{clip-path:url(#SVGID_40_);}
	.st51{fill:#280210;}
	.st52{opacity:0.5;}
	.st53{opacity:0.6;}
	.st54{fill:url(#SVGID_41_);}
	.st55{fill:url(#SVGID_42_);}
	.st56{fill:url(#SVGID_43_);}
	.st57{fill:url(#SVGID_44_);}
	.st58{opacity:0.8;}
	.st59{opacity:0.9;}
	.st60{fill:url(#SVGID_45_);}
	.st61{clip-path:url(#SVGID_47_);}
	.st62{clip-path:url(#SVGID_49_);}
	.st63{fill:url(#SVGID_50_);}
	.st64{clip-path:url(#SVGID_52_);}
	.st65{fill:url(#SVGID_53_);}
	.st66{clip-path:url(#SVGID_55_);}
	.st67{fill:url(#SVGID_56_);}
	.st68{clip-path:url(#SVGID_58_);}
	.st69{clip-path:url(#SVGID_60_);fill:#00B2E3;}
	.st70{clip-path:url(#SVGID_62_);}
	.st71{clip-path:url(#SVGID_64_);}
	.st72{fill:none;stroke:#FFFFFF;stroke-width:5;stroke-miterlimit:10;}
	.st73{clip-path:url(#SVGID_66_);fill:#00B2E3;}
	.st74{clip-path:url(#SVGID_68_);}
	.st75{clip-path:url(#SVGID_70_);}
	.st76{clip-path:url(#SVGID_72_);fill:#00B2E3;}
	.st77{clip-path:url(#SVGID_74_);}
	.st78{fill:#5B0323;}
	.st79{fill:url(#SVGID_75_);}
	.st80{fill:url(#SVGID_76_);}
	.st81{fill:url(#SVGID_77_);}
	.st82{clip-path:url(#SVGID_80_);fill:#00B2E3;}
	.st83{clip-path:url(#SVGID_84_);}
	.st84{clip-path:url(#SVGID_86_);}
	.st85{fill-rule:evenodd;clip-rule:evenodd;fill:#FFFFFF;}
	.st86{fill:#E5E5E5;}
	.st87{clip-path:url(#SVGID_88_);}
	.st88{fill-rule:evenodd;clip-rule:evenodd;fill:none;stroke:#E7004C;stroke-width:3;stroke-miterlimit:10;}
	.st89{fill:#070101;}
	.st90{fill:none;stroke:#068FFF;stroke-width:5;stroke-miterlimit:10;}
</style>
<g id="Capa_2">
</g>
<g id="Capa_1">
</g>
<g id="Capa_3">
</g>
<g id="Capa_4">
	<g>
		<g>
			<g>
				<path class="st0" d="M37.24,10.15c-2.73,0-4.95-2.22-4.95-4.95c0-2.73,2.22-4.95,4.95-4.95v0.92c-2.22,0-4.03,1.81-4.03,4.03
					c0,2.22,1.81,4.03,4.03,4.03V10.15z"/>
			</g>
			<g>
				<path class="st0" d="M59.42,10.13c-2.73,0-4.95-2.22-4.95-4.95c0-2.73,2.22-4.95,4.95-4.95c2.73,0,4.95,2.22,4.95,4.95
					C64.37,7.91,62.15,10.13,59.42,10.13z M59.42,1.17c-2.21,0-4.01,1.8-4.01,4.01c0,2.21,1.8,4.01,4.01,4.01
					c2.21,0,4.01-1.8,4.01-4.01C63.43,2.97,61.63,1.17,59.42,1.17z"/>
			</g>
			<g>
				<polygon class="st0" points="22.57,10.1 21.63,10.1 21.63,2.29 17.62,6.29 13.62,2.29 13.62,10.1 12.67,10.1 12.67,0 
					17.62,4.95 22.57,0 				"/>
			</g>
			<path class="st0" d="M46.52,10.12h1.06l-4.94-9.89l-4.89,9.89h1.06l1.56-3.14h4.58L46.52,10.12z M40.85,6.03l1.8-3.67l1.84,3.67
				H40.85z"/>
			<polygon class="st0" points="27.04,1.18 27.04,0.24 23.57,0.24 23.57,10.14 27.04,10.14 27.04,9.19 24.51,9.19 24.51,4.9 
				26.08,4.9 26.08,3.95 24.51,3.95 24.51,1.18 			"/>
			<g>
				<path class="st0" d="M48.7,10.17h-0.47V0.11h0.47c2.77,0,5.03,2.26,5.03,5.03C53.73,7.91,51.48,10.17,48.7,10.17z M49.18,1.08
					V9.2c2.03-0.24,3.61-1.96,3.61-4.06C52.79,3.05,51.21,1.32,49.18,1.08z"/>
			</g>
			<g>
				<path class="st0" d="M30.3,6.52c1-0.61,1.67-1.7,1.67-2.96c0-1.91-1.55-3.46-3.46-3.46h-0.47v10.01h0.95V6.99
					c0.15-0.02,0.3-0.05,0.45-0.09l1.6,3.23h1.06L30.3,6.52z M28.98,6.03V1.1c1.16,0.22,2.04,1.24,2.04,2.46
					C31.02,4.79,30.14,5.81,28.98,6.03z"/>
			</g>
		</g>
		<g>
			<rect x="46.25" y="15.28" class="st0" width="1.71" height="15.07"/>
			<g>
				<g>
					<path class="st0" d="M72.35,17.04c1.57,0,2.85,1.28,2.85,2.85c0,1.57-1.28,2.85-2.85,2.85c-1.57,0-2.85-1.28-2.85-2.85
						C69.49,18.32,70.77,17.04,72.35,17.04 M72.35,15.33c-2.52,0-4.56,2.05-4.56,4.56c0,2.52,2.05,4.56,4.56,4.56
						c2.52,0,4.56-2.05,4.56-4.56C76.91,17.38,74.86,15.33,72.35,15.33L72.35,15.33z"/>
				</g>
			</g>
			<g>
				<path class="st0" d="M4.18,21.67c-3.82-4.92-2.27-7.71-0.23-9.79h-2.3c-1.76,2.2-2.94,5.54,0.98,10.59
					c1.86,2.4,2.4,4.86,1.6,7.31c-0.45,1.38-1.31,2.72-2.56,3.99h2.31c0.94-1.14,1.62-2.33,2.02-3.56
					C6.94,27.32,6.33,24.44,4.18,21.67z"/>
			</g>
			<g>
				<polygon class="st0" points="47.96,13.6 47.96,11.88 39.39,11.88 39.39,13.6 42.81,13.6 42.81,30.35 44.53,30.35 44.53,13.6 
									"/>
			</g>
			<g>
				<polygon class="st0" points="41.08,33.84 24.58,17.89 24.58,30.38 22.87,30.38 22.87,13.51 39.38,29.46 39.38,15.3 41.08,15.3 
									"/>
			</g>
			<path class="st0" d="M14.14,13.55l-7.72,16.8h1.84l2.8-5.88h6.2l2.83,5.88h1.85L14.14,13.55z M11.85,22.75l2.29-5.22l2.32,5.22
				L11.85,22.75z"/>
			<path class="st0" d="M56.33,13.55l-7.72,16.8h1.84l2.8-5.88h6.2l2.83,5.88h1.85L56.33,13.55z M54.03,22.75l2.29-5.22l2.32,5.22
				L54.03,22.75z"/>
			<g>
				<path class="st0" d="M63.1,22.83c0,5.77,4.45,10.5,10.11,10.95v-7.6h-3.31v1.71h1.6v3.84c-3.86-1.13-6.69-4.69-6.69-8.91
					c0-4.22,2.83-7.79,6.69-8.91v-1.76C66.67,13.32,63.1,17.66,63.1,22.83z"/>
			</g>
		</g>
	</g>
</g>
<g id="Capa_6">
</g>
<g id="Capa_5">
</g>
</svg>
