<?xml version="1.0" encoding="utf-8"?>
<!-- Generator: Adobe Illustrator 24.0.3, SVG Export Plug-In . SVG Version: 6.00 Build 0)  -->
<svg version="1.1" xmlns="http://www.w3.org/2000/svg" xmlns:xlink="http://www.w3.org/1999/xlink" x="0px" y="0px"
	 viewBox="0 0 110.05 22.77" style="enable-background:new 0 0 110.05 22.77;" xml:space="preserve">
<style type="text/css">
	.st0{fill:#FFFFFF;}
	.st1{fill:url(#SVGID_1_);}
	.st2{fill:#E7004C;}
	.st3{fill:none;stroke:#00B2E3;stroke-miterlimit:10;}
	.st4{fill:url(#SVGID_2_);}
	.st5{fill:#FCFCFC;}
	.st6{fill:url(#SVGID_3_);}
	.st7{fill:url(#SVGID_4_);}
	.st8{opacity:0.8;fill:#E7004C;}
	.st9{opacity:0.7;fill:#E7004C;}
	.st10{opacity:0.7;}
	.st11{fill:#00B2E3;}
	.st12{opacity:0.8;fill:#00B2E3;}
	.st13{opacity:0.7;fill:#00B2E3;}
	.st14{fill:#BBBBBB;}
	.st15{opacity:0.8;fill:#BBBBBB;}
	.st16{opacity:0.7;fill:#BBBBBB;}
	.st17{fill:url(#SVGID_5_);}
	.st18{fill:url(#SVGID_6_);}
	.st19{fill:none;stroke:#E7004C;stroke-width:2;stroke-miterlimit:10;}
	.st20{fill:url(#SVGID_7_);}
	.st21{fill:url(#SVGID_8_);}
	.st22{fill:url(#SVGID_9_);}
	.st23{fill:none;stroke:#FFFFFF;stroke-miterlimit:10;}
	.st24{fill:none;stroke:#E7004C;stroke-miterlimit:10;}
	.st25{fill-rule:evenodd;clip-rule:evenodd;fill:#E7004C;}
	.st26{fill:none;stroke:#000000;stroke-miterlimit:10;}
	.st27{fill:#38A8E0;}
	.st28{clip-path:url(#SVGID_11_);fill:#00B2E3;}
	.st29{fill:none;stroke:#E7004C;stroke-width:3;stroke-miterlimit:10;}
	.st30{clip-path:url(#SVGID_13_);}
	.st31{fill:none;stroke:#FFFFFF;stroke-width:2;stroke-miterlimit:10;}
	.st32{fill:none;stroke:#FFFFFF;stroke-width:3;stroke-miterlimit:10;}
	.st33{clip-path:url(#SVGID_15_);}
	.st34{fill:url(#SVGID_16_);}
	.st35{fill:none;stroke:#FFFFFF;stroke-width:0.5;stroke-miterlimit:10;}
	.st36{clip-path:url(#SVGID_18_);fill:#00B2E3;}
	.st37{clip-path:url(#SVGID_20_);}
	.st38{clip-path:url(#SVGID_22_);}
	.st39{fill:url(#SVGID_23_);}
	.st40{clip-path:url(#SVGID_25_);}
	.st41{fill:url(#SVGID_26_);}
	.st42{fill:url(#SVGID_27_);}
	.st43{fill:url(#SVGID_28_);}
	.st44{fill:url(#SVGID_29_);}
	.st45{clip-path:url(#SVGID_31_);fill:#00B2E3;}
	.st46{clip-path:url(#SVGID_33_);}
	.st47{clip-path:url(#SVGID_35_);}
	.st48{fill:url(#SVGID_36_);}
	.st49{clip-path:url(#SVGID_38_);}
	.st50{clip-path:url(#SVGID_40_);}
	.st51{fill:#280210;}
	.st52{opacity:0.5;}
	.st53{opacity:0.6;}
	.st54{fill:url(#SVGID_41_);}
	.st55{fill:url(#SVGID_42_);}
	.st56{fill:url(#SVGID_43_);}
	.st57{fill:url(#SVGID_44_);}
	.st58{opacity:0.8;}
	.st59{opacity:0.9;}
	.st60{fill:url(#SVGID_45_);}
	.st61{clip-path:url(#SVGID_47_);}
	.st62{clip-path:url(#SVGID_49_);}
	.st63{fill:url(#SVGID_50_);}
	.st64{clip-path:url(#SVGID_52_);}
	.st65{fill:url(#SVGID_53_);}
	.st66{clip-path:url(#SVGID_55_);}
	.st67{fill:url(#SVGID_56_);}
	.st68{clip-path:url(#SVGID_58_);}
	.st69{clip-path:url(#SVGID_60_);fill:#00B2E3;}
	.st70{clip-path:url(#SVGID_62_);}
	.st71{clip-path:url(#SVGID_64_);}
	.st72{fill:none;stroke:#FFFFFF;stroke-width:5;stroke-miterlimit:10;}
	.st73{clip-path:url(#SVGID_66_);fill:#00B2E3;}
	.st74{clip-path:url(#SVGID_68_);}
	.st75{clip-path:url(#SVGID_70_);}
	.st76{clip-path:url(#SVGID_72_);fill:#00B2E3;}
	.st77{clip-path:url(#SVGID_74_);}
	.st78{fill:#5B0323;}
	.st79{fill:url(#SVGID_75_);}
	.st80{fill:url(#SVGID_76_);}
	.st81{fill:url(#SVGID_77_);}
	.st82{clip-path:url(#SVGID_80_);fill:#00B2E3;}
	.st83{clip-path:url(#SVGID_84_);}
	.st84{clip-path:url(#SVGID_86_);}
	.st85{fill-rule:evenodd;clip-rule:evenodd;fill:#FFFFFF;}
	.st86{fill:#E5E5E5;}
	.st87{clip-path:url(#SVGID_88_);}
	.st88{fill-rule:evenodd;clip-rule:evenodd;fill:none;stroke:#E7004C;stroke-width:3;stroke-miterlimit:10;}
	.st89{fill:#070101;}
	.st90{fill:none;stroke:#068FFF;stroke-width:5;stroke-miterlimit:10;}
</style>
<g id="Capa_2">
</g>
<g id="Capa_1">
</g>
<g id="Capa_3">
</g>
<g id="Capa_4">
	<g>
		<polygon id="XMLID_20_" class="st0" points="78.47,6.77 84.15,6.77 83.77,9.47 81.19,9.47 81.06,10.44 83.32,10.44 82.97,12.88 
			80.7,12.88 80.23,16.17 77.13,16.17 		"/>
		<path id="XMLID_17_" class="st0" d="M88.24,12.77c0,0-0.15-2.47-0.15-2.87l-1.09,2.87H88.24z M85.72,16.17h-3.26l4.29-9.4h3.41
			l1.68,9.4h-3.26L88.47,15h-2.33L85.72,16.17z"/>
		<path id="XMLID_16_" class="st0" d="M98.8,10.59c-0.43-0.51-0.98-0.95-1.68-0.95c-0.92,0-1.79,0.81-1.93,1.83
			c-0.15,1.03,0.53,1.83,1.45,1.83c0.71,0,1.33-0.34,1.9-0.87l-0.6,3.51c-0.53,0.26-1.7,0.37-2.25,0.37c-2.42,0-4-2.08-3.62-4.76
			c0.38-2.74,2.65-4.94,5.13-4.94c0.7,0,1.41,0.14,2.01,0.39L98.8,10.59z"/>
		<polygon id="XMLID_15_" class="st0" points="100.45,6.77 103.53,6.77 102.2,16.17 99.12,16.17 		"/>
		<polygon id="XMLID_14_" class="st0" points="104.42,6.77 107.51,6.77 106.6,13.16 109.18,13.16 108.76,16.17 103.09,16.17 		"/>
		<polygon id="XMLID_13_" class="st0" points="88.22,5.74 90.54,3.52 92.09,4.23 89.43,6.3 		"/>
		<polygon id="XMLID_12_" class="st0" points="21.74,6.77 27.44,6.77 27.08,9.34 24.49,9.34 24.35,10.24 26.72,10.24 26.38,12.68 
			24,12.68 23.88,13.6 26.57,13.6 26.2,16.17 20.4,16.17 		"/>
		<path id="XMLID_11_" class="st0" d="M35.42,6.77h3.14l0.06,9.4h-2.98l0.26-5.15c-0.1,0.31-2.16,5.15-2.16,5.15h-1.8l-0.66-5.15
			l-1.17,5.15h-2.98l2.71-9.4H33l0.55,4.94"/>
		<path id="XMLID_8_" class="st0" d="M43.36,10.98h0.3c0.54,0,1.14-0.1,1.25-0.86c0.1-0.73-0.51-0.77-1.02-0.77H43.6L43.36,10.98z
			 M40.99,6.77h3.9c1.98,0,3.29,1.12,2.96,3.45c-0.28,1.92-1.53,3.12-3.25,3.12h-1.57l-0.41,2.83h-2.97L40.99,6.77z"/>
		<polygon id="XMLID_7_" class="st0" points="49.14,6.77 54.84,6.77 54.48,9.34 51.88,9.34 51.74,10.24 54.12,10.24 53.77,12.68 
			51.4,12.68 51.27,13.6 53.96,13.6 53.59,16.17 47.8,16.17 		"/>
		<path id="XMLID_4_" class="st0" d="M58.33,5.44c0.43-0.62,1.07-1.28,1.78-1.28c0.3,0,0.47,0.11,0.71,0.27
			c0.17,0.11,0.37,0.29,0.59,0.29c0.29,0,0.5-0.34,0.63-0.57l0.93,0.62c-0.38,0.64-0.99,1.38-1.71,1.38c-0.23,0-0.4-0.06-0.61-0.16
			l-0.46-0.25c-0.1-0.05-0.27-0.15-0.39-0.15c-0.28,0-0.49,0.34-0.62,0.57L58.33,5.44z M56.15,6.77h2.96l2.02,5.21l0.57-5.21h2.95
			l-1.34,9.4h-2.95l-2-4.93l-0.61,4.93h-2.95L56.15,6.77z"/>
		<path id="XMLID_1_" class="st0" d="M68.14,11.55c-0.16,1.07,0.39,1.81,1.33,1.81c0.93,0,1.69-0.74,1.85-1.81
			c0.13-1-0.35-1.83-1.33-1.83C69,9.72,68.27,10.55,68.14,11.55 M74.41,11.5c-0.43,3.02-2.79,4.82-5.38,4.82
			c-2.58,0-4.43-1.81-4-4.82c0.43-2.95,2.81-4.87,5.39-4.87C73,6.63,74.84,8.54,74.41,11.5"/>
		<g>
			<path class="st0" d="M9.38,6.6c-0.2,0.04-0.37,0.07-0.51,0.1l0,0L8.81,6.72c-0.23,0.05-0.47,0.1-0.73,0.17L7.94,6.92v0l-0.01,0
				L7.88,6.94c-1.17,0.32-3.1,1.08-2.84,2.57c0.1,0.61,1.27,0.95,2.32,0.94l0,0l0.1,0c0.13,0,0.36,0.01,0.67,0l0.13,0v0l0.51,0
				L9.38,6.6z"/>
			<path class="st0" d="M10.81,13.29l-0.33-0.01c-0.31,0-0.78-0.01-1.25-0.02l-0.71,4.56c0.8-0.16,1.35-0.35,1.51-0.4
				c2.15-0.65,3.31-1.68,3.12-2.77C13,13.76,12.29,13.35,10.81,13.29z"/>
			<path class="st0" d="M14.99,2.58L0,4.33l2.53,18.21l14.99-1.75L14.99,2.58z M9.91,18.18L9.87,18.2
				c-0.26,0.08-0.53,0.15-0.79,0.21l-0.14,0.03v-0.01c-0.17,0.04-0.35,0.07-0.55,0.11l-0.32,2.04l-0.94,0.16l0.33-2.06
				c-0.17,0.02-0.34,0.04-0.52,0.06c-0.33,0.02-0.59,0.02-0.79,0.02H6.03l-0.09,0.01c-0.1,0-0.2,0-0.3,0
				c-1.56,0-3.46-0.44-3.68-1.69c-0.14-0.78,0.39-1.72,1.64-1.94c1.13-0.2,1.89,0.18,2.03,0.98c0.09,0.49-0.29,0.83-0.66,1.1
				c-0.14,0.1-0.28,0.18-0.41,0.25c-0.12,0.07-0.28,0.16-0.3,0.2c0,0.01,0,0.03,0.03,0.07c0.19,0.2,0.95,0.29,1.57,0.29
				c0.05,0,0.09,0,0.14,0c0.09,0,0.17,0,0.25,0c0.43,0,0.88-0.03,1.34-0.08l0.75-4.72c-0.71-0.02-1.24-0.07-1.36-0.08l-0.03,0
				c-2.41-0.1-3.76-0.91-4.02-2.41C2.57,8.73,5.31,6.81,8.05,6.19l0.03-0.01C8.23,6.14,8.79,6.01,9.5,5.89L9.7,4.6l0.91-0.16
				L10.4,5.75c0.48-0.06,0.93-0.09,1.34-0.1l0.09,0c1.45-0.08,3.24,0.6,3.43,1.65c0.06,0.35-0.01,0.69-0.21,0.96
				c-0.22,0.31-0.6,0.51-1.1,0.6c-1,0.18-1.69-0.15-1.81-0.85c-0.06-0.34,0.23-0.67,0.48-0.91c0.07-0.06,0.13-0.12,0.2-0.18
				c0.09-0.09,0.21-0.19,0.24-0.24c-0.06-0.11-0.5-0.26-1.08-0.3l-0.16-0.01l0-0.01c-0.06,0-0.13,0-0.22,0
				c-0.19,0-0.41,0.01-0.64,0.03L10.82,6.4l0-0.01c-0.14,0.01-0.32,0.03-0.53,0.06l-0.62,3.97l0.55-0.01c0.14,0,0.6,0,0.77,0
				c2.12,0,3.88,1.05,4.12,2.44C15.52,15.19,13.58,17.18,9.91,18.18z"/>
		</g>
	</g>
</g>
<g id="Capa_6">
</g>
<g id="Capa_5">
</g>
</svg>
