<?xml version="1.0" encoding="utf-8"?>
<!-- Generator: Adobe Illustrator 24.0.3, SVG Export Plug-In . SVG Version: 6.00 Build 0)  -->
<svg version="1.1" xmlns="http://www.w3.org/2000/svg" xmlns:xlink="http://www.w3.org/1999/xlink" x="0px" y="0px"
	 viewBox="0 0 76.54 46.57" style="enable-background:new 0 0 76.54 46.57;" xml:space="preserve">
<style type="text/css">
	.st0{fill:#FFFFFF;}
	.st1{fill:url(#SVGID_1_);}
	.st2{fill:#E7004C;}
	.st3{fill:none;stroke:#00B2E3;stroke-miterlimit:10;}
	.st4{fill:url(#SVGID_2_);}
	.st5{fill:#FCFCFC;}
	.st6{fill:url(#SVGID_3_);}
	.st7{fill:url(#SVGID_4_);}
	.st8{opacity:0.8;fill:#E7004C;}
	.st9{opacity:0.7;fill:#E7004C;}
	.st10{opacity:0.7;}
	.st11{fill:#00B2E3;}
	.st12{opacity:0.8;fill:#00B2E3;}
	.st13{opacity:0.7;fill:#00B2E3;}
	.st14{fill:#BBBBBB;}
	.st15{opacity:0.8;fill:#BBBBBB;}
	.st16{opacity:0.7;fill:#BBBBBB;}
	.st17{fill:url(#SVGID_5_);}
	.st18{fill:url(#SVGID_6_);}
	.st19{fill:none;stroke:#E7004C;stroke-width:2;stroke-miterlimit:10;}
	.st20{fill:url(#SVGID_7_);}
	.st21{fill:url(#SVGID_8_);}
	.st22{fill:url(#SVGID_9_);}
	.st23{fill:none;stroke:#FFFFFF;stroke-miterlimit:10;}
	.st24{fill:none;stroke:#E7004C;stroke-miterlimit:10;}
	.st25{fill-rule:evenodd;clip-rule:evenodd;fill:#E7004C;}
	.st26{fill:none;stroke:#000000;stroke-miterlimit:10;}
	.st27{fill:#38A8E0;}
	.st28{clip-path:url(#SVGID_11_);fill:#00B2E3;}
	.st29{fill:none;stroke:#E7004C;stroke-width:3;stroke-miterlimit:10;}
	.st30{clip-path:url(#SVGID_13_);}
	.st31{fill:none;stroke:#FFFFFF;stroke-width:2;stroke-miterlimit:10;}
	.st32{fill:none;stroke:#FFFFFF;stroke-width:3;stroke-miterlimit:10;}
	.st33{clip-path:url(#SVGID_15_);}
	.st34{fill:url(#SVGID_16_);}
	.st35{fill:none;stroke:#FFFFFF;stroke-width:0.5;stroke-miterlimit:10;}
	.st36{clip-path:url(#SVGID_18_);fill:#00B2E3;}
	.st37{clip-path:url(#SVGID_20_);}
	.st38{clip-path:url(#SVGID_22_);}
	.st39{fill:url(#SVGID_23_);}
	.st40{clip-path:url(#SVGID_25_);}
	.st41{fill:url(#SVGID_26_);}
	.st42{fill:url(#SVGID_27_);}
	.st43{fill:url(#SVGID_28_);}
	.st44{fill:url(#SVGID_29_);}
	.st45{clip-path:url(#SVGID_31_);fill:#00B2E3;}
	.st46{clip-path:url(#SVGID_33_);}
	.st47{clip-path:url(#SVGID_35_);}
	.st48{fill:url(#SVGID_36_);}
	.st49{clip-path:url(#SVGID_38_);}
	.st50{clip-path:url(#SVGID_40_);}
	.st51{fill:#280210;}
	.st52{opacity:0.5;}
	.st53{opacity:0.6;}
	.st54{fill:url(#SVGID_41_);}
	.st55{fill:url(#SVGID_42_);}
	.st56{fill:url(#SVGID_43_);}
	.st57{fill:url(#SVGID_44_);}
	.st58{opacity:0.8;}
	.st59{opacity:0.9;}
	.st60{fill:url(#SVGID_45_);}
	.st61{clip-path:url(#SVGID_47_);}
	.st62{clip-path:url(#SVGID_49_);}
	.st63{fill:url(#SVGID_50_);}
	.st64{clip-path:url(#SVGID_52_);}
	.st65{fill:url(#SVGID_53_);}
	.st66{clip-path:url(#SVGID_55_);}
	.st67{fill:url(#SVGID_56_);}
	.st68{clip-path:url(#SVGID_58_);}
	.st69{clip-path:url(#SVGID_60_);fill:#00B2E3;}
	.st70{clip-path:url(#SVGID_62_);}
	.st71{clip-path:url(#SVGID_64_);}
	.st72{fill:none;stroke:#FFFFFF;stroke-width:5;stroke-miterlimit:10;}
	.st73{clip-path:url(#SVGID_66_);fill:#00B2E3;}
	.st74{clip-path:url(#SVGID_68_);}
	.st75{clip-path:url(#SVGID_70_);}
	.st76{clip-path:url(#SVGID_72_);fill:#00B2E3;}
	.st77{clip-path:url(#SVGID_74_);}
	.st78{fill:#5B0323;}
	.st79{fill:url(#SVGID_75_);}
	.st80{fill:url(#SVGID_76_);}
	.st81{fill:url(#SVGID_77_);}
	.st82{clip-path:url(#SVGID_80_);fill:#00B2E3;}
	.st83{clip-path:url(#SVGID_84_);}
	.st84{clip-path:url(#SVGID_86_);}
	.st85{fill-rule:evenodd;clip-rule:evenodd;fill:#FFFFFF;}
	.st86{fill:#E5E5E5;}
	.st87{clip-path:url(#SVGID_88_);}
	.st88{fill-rule:evenodd;clip-rule:evenodd;fill:none;stroke:#E7004C;stroke-width:3;stroke-miterlimit:10;}
	.st89{fill:#070101;}
	.st90{fill:none;stroke:#068FFF;stroke-width:5;stroke-miterlimit:10;}
</style>
<g id="Capa_2">
</g>
<g id="Capa_1">
</g>
<g id="Capa_3">
</g>
<g id="Capa_4">
	<g>
		<g>
			<path class="st0" d="M36.77,29.75c0-1.59,0-3.19,0-4.78c0-0.45-0.38-0.83-0.83-0.83c-9.7,0-19.4,0-29.1,0c-1.37,0-2.74,0-4.12,0
				C3,24.42,3.28,24.7,3.55,24.97c0-8.05,0-16.09,0-24.14C3.28,1.11,3,1.39,2.72,1.67c8.25,0.5,16.49,1,24.74,1.5
				c13.08,0.79,26.15,1.59,39.23,2.38c3.01,0.18,6.01,0.37,9.02,0.55c-0.28-0.28-0.56-0.56-0.83-0.83c0,6.26,0,12.53,0,18.79
				c0.28-0.28,0.56-0.56,0.83-0.83c-9.76,0-19.52,0-29.28,0c-1.4,0-2.81,0-4.21,0c-0.45,0-0.83,0.38-0.83,0.83c0,1.9,0,3.8,0,5.69
				c0,1.07,1.67,1.07,1.67,0c0-1.9,0-3.8,0-5.69c-0.28,0.28-0.56,0.56-0.83,0.83c9.76,0,19.52,0,29.28,0c1.4,0,2.81,0,4.21,0
				c0.45,0,0.83-0.38,0.83-0.83c0-6.26,0-12.53,0-18.79c0-0.47-0.38-0.81-0.83-0.83c-8.25-0.5-16.49-1-24.74-1.5
				C37.89,2.14,24.82,1.34,11.74,0.55C8.73,0.37,5.73,0.18,2.72,0c-0.45-0.03-0.83,0.4-0.83,0.83c0,8.05,0,16.09,0,24.14
				c0,0.45,0.38,0.83,0.83,0.83c9.7,0,19.4,0,29.1,0c1.37,0,2.74,0,4.12,0c-0.28-0.28-0.56-0.56-0.83-0.83c0,1.59,0,3.19,0,4.78
				C35.1,30.82,36.77,30.83,36.77,29.75L36.77,29.75z"/>
		</g>
		<g>
			<path class="st0" d="M6.34,21.57l-0.11-0.71l-0.33-6l0.07-3.19L5.36,5.29l0.07-0.07L5.4,4.67l0.07,0.05l0.04,0.16l0.04-0.11
				l0.11-0.05L5.8,4.76l0.09,0.11l0.48-0.21L6.91,4.6h1.32l1.3,0.27l0.99,0.34l0.2,0.11h0.18l0.86,0.68l0.22,0.11v0.11l0.13,0.07
				l0.48,0.71l0.53,1.8l0.22,1.5l-0.11,0.64l-0.29,0.75l-0.2,0.21l-0.46,0.62l-0.86,0.57l-0.86,0.46H10.4l-0.99,0.27L8.87,13.9
				v-0.14l0.33-0.09l0.44-0.23l0.11-0.11l0.81-0.39l-0.04-0.07l0.64-0.32l0.11-0.11v-0.09l-1.03,0.5l-0.09-0.09l0.02,0.09
				l-1.47,0.27l-0.13-0.07l0.22-0.11v-0.14l-0.4,0.02l0.18-0.07V12.6l0.86-0.34v-0.09l-0.44,0.16H8.45l0.04-0.07H8.12l0.33,7.27
				l-0.07,1.32L8.3,21l-0.07-0.14H8.12v-0.5l-0.04-0.11l-0.07,0.18l-0.15-2.76l-0.07,0.46l-0.07-0.3l-0.04,0.3v1.57l-0.07,0.89
				L7.49,21l-0.07-0.05H7.31L7.24,20.2L7.2,21.22l-0.09,0.09l-0.13-0.37l-0.11-0.71l-0.04,0.11l-0.11,0.59l-0.07-0.09l-0.11,0.75
				l-0.07-0.14L6.34,21.57z M7.62,15.8l0.09-0.52l-0.13,0.14v0.11L7.62,15.8z M7.73,16.48V15.8l-0.04,0.5l-0.07-0.39v0.57l0.07-0.07
				L7.73,16.48z M7.73,17.71v-0.32l-0.04-0.18v0.3L7.73,17.71z M8.12,11.92l0.18-0.23l0.04,0.11l0.22-0.16l1.23-0.41l0.77-0.39
				l0.35-0.25l0.72-0.84l0.22-0.82V8.61L11.3,8.04L10.1,7.41L8.5,7.02H8.01L7.84,7.11L7.97,9.5L8.12,11.92z M8.5,6.4h0.44L8.67,6.36
				H8.12L8.5,6.4z M10.23,12.95l-0.07-0.09l0.24,0.09H10.23z"/>
			<path class="st0" d="M12.29,20.87l-0.22-0.27l1.25-5.3v-0.2l0.96-4.98l0.5-3.57l0.07-0.25l0.04-0.59V5.34l0.15-0.3l0.31,0.09
				l0.11-0.09v0.14l0.11,0.11h0.11l0.11,0.14h0.57l0.35,0.11h0.11l0.13-0.09l0.15,0.09l0.11-0.2l0.35,0.09l0.15,0.34l0.07-0.18V5.43
				l0.39-0.16l0.83,1.68l2.78,13.37v0.57l-0.22-0.11l-0.18-0.45l-0.11-0.11l-0.72-3.41v-0.2l-0.13-0.25v0.3l0.46,2.43l-0.13,0.14
				l0.13,0.91v0.55l-0.11,0.23l-0.13-0.07l-0.09-0.09l-0.09,0.32l-0.18-0.39h-0.09l-0.11-0.41l-0.07-0.07v0.43h0.09l-0.09,0.16
				l-0.07,0.64h-0.33l-0.39-1.39l-0.07,0.09v-0.34l-0.04-0.07v-0.18l-0.07-0.05v-0.3l-0.44-2.09v-0.2l-3.29,0.93l-0.83,3.27
				l-0.13,0.07v-0.66l0.04-0.3L14.3,20.3l0.26-1.36l0.04-0.64l0.09-0.18l-0.09-0.07L14.5,18.3l-0.07-0.09l-0.04,0.3l-0.18,0.36v0.43
				l-0.09,0.09l-0.37,1.32l-0.15,0.27l-0.18-0.07l-0.11,0.14l-0.13-0.3l0.13-0.66l0.04-0.34v-0.18l0.09-0.09l0.15-1.43l-0.39,1.59
				l-0.13,0.23l-0.04,0.34v0.14l-0.11,0.23h-0.09l-0.26,0.89l-0.11-0.14l-0.11,0.14l-0.07-0.05V20.87z M15.18,14.98h0.11l0.22-1
				H15.4v0.2l-0.04,0.34l-0.07,0.07v0.16L15.18,14.98z M15.53,13.89l0.2-1.05l-0.09-0.07v0.2l-0.07,0.09v0.34l-0.13,0.27
				L15.53,13.89z M15.75,12.71v-0.18l-0.07-0.05v0.09L15.75,12.71z M15.97,14.96L18,14.5v-0.23l0.07-0.09l-0.11,0.05v-0.18L18,13.93
				l-0.11,0.05l-0.04-0.3l-0.07-0.2v-0.14l0.07-0.11l-0.13,0.05v-0.16l0.07-0.14l-0.11,0.09v-0.18l0.04-0.11l-0.15,0.07l0.11-0.32
				l-0.18,0.07l0.11-0.32l-0.11,0.09l-0.07-0.3v-0.3l-0.04-0.07l-0.18-0.64v-0.14l0.07-0.11l-0.11,0.05l0.04-0.34l-0.11,0.05v-0.09
				l-0.07-0.07l-0.11-0.45l-0.09,0.07l-0.88,4.5V14.96z M16.03,11.07l0.09-0.36l-0.09,0.16V11.07z M16.78,15.89l0.11-0.07H17
				l0.13-0.09l0.09,0.09l0.07-0.14h0.33l0.64-0.05v-0.43l-1.31,0.43l-0.31,0.16L16.78,15.89z M18.53,16.64v-0.45l-0.13,0.05v-0.3
				L18.09,16l-0.31,0.45h-0.22l-0.18,0.07l0.11,0.07h0.85L18.53,16.64z M20.3,15.73l-0.26-1.21v0.45l0.18,0.66L20.3,15.73z
				 M20.94,19.19l-0.04,0.14l-0.07-0.14H20.94z"/>
			<path class="st0" d="M22.58,20.98l-0.17-0.57v-1.63l0.1-0.54V7.07L22.46,6.4v-0.8l0.19,0.07h0.21l0.04,0.07l0.29,0.11l-0.06,0.11
				h0.1l-0.06,0.07l0.06,0.11l0.1-0.17h0.1l0.06,0.07l0.1-0.11l0.04,0.11h0.17l0.13-0.15l0.15,0.2h0.21l0.06-0.15l0.17,0.11
				l0.04-0.11l0.19,0.17l0.1-0.22l0.15-0.09l2.2,4.04l0.06,0.04l2.16,4.24L29.1,6.57l-0.06-0.41l0.08-0.26h0.42l0.04,0.11l0.08-0.09
				l0.15,0.13l0.21,0.11l0.44-0.2l0.25,0.26l0.1,1.06l0.06,0.07L30.8,6.22h0.08l0.04-0.11h0.44l0.15,1.24l0.31,5.85v4.93l-0.08,0.15
				l-0.04-0.26l-0.06,0.11l-0.04-0.07l-0.13-0.5l-0.27-2.39l-0.04,0.11v-0.17l0.13-0.33l-0.08-1.5v-0.24l-0.04-0.07v-0.89
				l-0.13-0.04v0.11l0.1,0.09l-0.15,0.07l0.13,3.98l-0.08,0.24l0.08,0.5l-0.08,1.22l0.44,1l-0.06,0.13h0.15l-0.08,0.43h-0.17
				l-0.19-0.33l-0.13-0.11l-0.31-0.46v-0.17l-0.15-0.2l-0.23-0.59v0.28l0.15,0.43v0.11h0.08l0.15,0.39l0.04,0.52l0.06,0.04
				l-0.06,0.07v0.22l-0.13,0.15l-0.08-0.09l-0.1,0.04l0.04-0.15l-0.08,0.15l0.13,0.24H30.4l-0.06-0.07l-0.27-0.11l-0.21,0.22h-0.23
				l-0.25-0.28l-3.84-8.65l-0.63-1.13l-0.1,0.39v6.82l-0.19,2.85l-0.19,0.11l-0.06-0.61h-0.13l-0.04-3.74v1.57l-0.13-0.22
				l-0.08,1.89l-0.04-0.11l-0.08,0.89l-0.15,0.39l-0.1-0.11l-0.06-0.17l-0.04,0.07l-0.06,0.48l-0.1-0.22h-0.1v-0.54h-0.1l-0.1,0.43
				l-0.13,0.2l-0.08,0.35l-0.06-0.15L22.58,20.98z M24.13,17.07l-0.04,0.07v0.11L24.13,17.07z M24.24,15.68v-0.89L24.2,14.9
				L24.24,15.68z M24.3,11.24V9.64l-0.06,0.35L24.3,11.24z M25.29,7.35l-0.44-0.85v0.15l0.1,0.35l0.25,0.35H25.29z M25.43,7.79
				l0.06-0.04l-0.06-0.13l-0.04,0.07L25.43,7.79z M25.6,8.07l0.04-0.07l-0.1-0.22L25.5,7.85L25.6,8.07z M27.15,10.92l-1.45-2.8
				h-0.08l1.07,2l-0.06,0.13l0.1-0.04l0.1,0.33l0.15,0.17L27.15,10.92z M29.44,15.83V15.4l-0.29-0.67l-0.1-0.11V14.5L29,14.44
				l-1.8-3.46l0.13,0.46l0.1,0.11l0.23,0.43l0.06,0.28h0.08v0.22l0.34,0.39v0.11l0.52,1.17l0.38,0.74l0.17,0.54l0.17,0.35
				L29.44,15.83z M30.99,10.24V9.35l-0.06-0.85v0.91L30.99,10.24z M31.03,11.44V10.7l-0.04-0.07L31.03,11.44z"/>
			<path class="st0" d="M35.98,20.94l-0.17-0.09l-1.02-0.21l-0.47-0.34l-0.55-0.62l-0.34-0.64l-0.47-1.33l-0.38-2.27v-2.23
				l0.23-1.82l-0.08-0.06v-0.13l0.08,0.06l0.04-0.45v-0.34l0.17-0.75l0.51-1.48l0.45-0.88l1.08-1.01l0.74-0.17h0.4l0.23-0.13
				l0.15,0.04h0.23l0.45,0.13h1.13l0.83,0.26l0.32,0.21l0.79,0.69L40.63,8l0.28,0.9v0.41l-0.04,0.06v0.28l-0.17,0.09l-0.13-0.13
				l-0.4-0.75v0.17l-0.28,0.62v0.13h-0.17V9.65l-0.06-0.19l-0.11,0.19v0.13h-0.13l-0.19-0.6L39.1,9.03l-0.08,0.62h-0.11l-0.28-0.13
				l-0.45-1.31l-0.81-0.77h-0.11l-0.68,0.43l-0.34,0.51l-0.51,1.16l-0.4,1.48L35,13.57v1.05l0.3,2.12l0.47,1.5l0.38,0.56l0.68,0.69
				h0.23l0.51-0.51l0.04-0.11l0.13-0.11l0.28-0.36l0.38-1.07l0.19-0.69V15.5l-0.09-0.79l0.15,0.3l0.15-0.09l0.08,0.13l0.19-0.09
				l0.13,0.47l0.11,0.86v0.75l-0.08,0.09l-0.42,1.56h0.11l0.3-0.75l0.3-1.07v-0.51l-0.08-0.73l0.13-0.26l0.47-0.39l0.11,0.15v0.24
				l0.17,0.24l0.06,0.24l0.04-0.34l0.13-0.51l0.11-0.06l0.04-0.11v0.17h0.17l0.19,0.96v1.11l-0.47,1.52l-0.4,0.79v0.11l-0.64,0.73
				l-0.66,0.36l-0.98,0.17l-0.98,0.24h-0.7l-0.13-0.04H35.98z M33.24,15.37l0.08-0.15V14.3l0.08-0.43l-0.17,0.09V15.37z
				 M33.36,13.72v-0.28l0.06-0.19v-0.21l-0.11,0.21L33.36,13.72z M33.36,12.97l0.06-0.04V12.8l0.04-0.34l-0.11,0.11V12.97z
				 M33.43,12.41l0.04-0.24l0.06-0.13v-0.62l-0.06,0.28v0.34l-0.04,0.06V12.41z M33.77,10.46l0.04-0.17l0.13-0.13l0.28-1.07V8.97
				l-0.34,0.92l-0.11,0.24V10.46z M40.29,17.38l0.06-0.24l-0.06,0.11V17.38z"/>
			<path class="st0" d="M41.16,20.93l-0.2-0.25l1.17-4.77v-0.18l0.9-4.48l0.47-3.21l0.06-0.23l0.04-0.53V6.95l0.14-0.27l0.29,0.08
				l0.1-0.08v0.12l0.1,0.1h0.1l0.1,0.12h0.53l0.33,0.1h0.1l0.12-0.08l0.14,0.08l0.1-0.18l0.33,0.08l0.14,0.31l0.06-0.16V7.03
				l0.37-0.14l0.78,1.51l2.6,12.04v0.51l-0.2-0.1l-0.16-0.41l-0.1-0.1l-0.68-3.07v-0.18l-0.12-0.23v0.27l0.43,2.19l-0.12,0.12
				l0.12,0.82v0.49l-0.1,0.2l-0.12-0.06l-0.08-0.08l-0.08,0.29l-0.16-0.35h-0.08l-0.1-0.37l-0.06-0.06v0.39h0.08l-0.08,0.14
				l-0.06,0.57h-0.31l-0.37-1.25l-0.06,0.08v-0.31l-0.04-0.06v-0.16l-0.06-0.04v-0.27l-0.41-1.88v-0.18l-3.07,0.84l-0.78,2.95
				l-0.12,0.06V20.6l0.04-0.27l-0.12,0.08l0.25-1.23l0.04-0.57l0.08-0.16l-0.08-0.06l-0.1,0.23l-0.06-0.08l-0.04,0.27l-0.16,0.33
				v0.39l-0.08,0.08l-0.35,1.19l-0.14,0.25l-0.16-0.06l-0.1,0.12L42,20.83l0.12-0.59l0.04-0.31v-0.16l0.08-0.08l0.14-1.29
				l-0.37,1.43l-0.12,0.2l-0.04,0.31v0.12l-0.1,0.2h-0.08l-0.25,0.8l-0.1-0.12l-0.1,0.12l-0.06-0.04V20.93z M43.86,15.63h0.1
				l0.2-0.9h-0.1v0.18l-0.04,0.31l-0.06,0.06v0.14L43.86,15.63z M44.19,14.65l0.18-0.94l-0.08-0.06v0.18l-0.06,0.08v0.31l-0.12,0.25
				L44.19,14.65z M44.39,13.58v-0.16l-0.06-0.04v0.08L44.39,13.58z M44.6,15.61l1.9-0.41v-0.2l0.06-0.08l-0.1,0.04v-0.16l0.04-0.1
				l-0.1,0.04l-0.04-0.27l-0.06-0.18v-0.12l0.06-0.1l-0.12,0.04v-0.14l0.06-0.12l-0.1,0.08v-0.16l0.04-0.1l-0.14,0.06l0.1-0.29
				l-0.16,0.06l0.1-0.29l-0.1,0.08l-0.06-0.27v-0.27l-0.04-0.06l-0.16-0.57v-0.12l0.06-0.1l-0.1,0.04l0.04-0.31l-0.1,0.04v-0.08
				l-0.06-0.06l-0.1-0.41l-0.08,0.06l-0.82,4.05V15.61z M44.66,12.11l0.08-0.33l-0.08,0.14V12.11z M45.35,16.45l0.1-0.06h0.1
				l0.12-0.08l0.08,0.08l0.06-0.12h0.31l0.59-0.04v-0.39l-1.23,0.39l-0.29,0.14L45.35,16.45z M46.99,17.12v-0.41l-0.12,0.04v-0.27
				l-0.29,0.06l-0.29,0.41h-0.2l-0.16,0.06l0.1,0.06h0.8L46.99,17.12z M48.65,16.3l-0.25-1.08v0.41l0.16,0.59L48.65,16.3z
				 M49.24,19.41l-0.04,0.12l-0.06-0.12H49.24z"/>
			<path class="st0" d="M50.04,8.44L50,8.25V8.03l-0.06-0.06V7.78l-0.31-0.04l-0.18-0.16l0.41-0.39h0.08l0.39-0.12L52,7l0.9,0.04
				l1.16,0.23l0.25,0.1h0.12l1.23,0.55L56,8.11l0.71,0.53l0.16,0.25l0.25,0.55l0.08,0.35l0.29,0.55l0.14,1.01l-0.2,0.55l-0.29,0.43
				L56.43,13l-1.67,0.86l-0.74,0.29l3.74,5.9v0.29l-0.14,0.16l-0.53-0.55l-0.16-0.02v0.08l0.12,0.14l0.08,0.23h-0.08L57,20.54v0.1
				l0.06,0.06l-0.08,0.02l-0.25-0.12v0.16l-0.18-0.06l-0.18,0.18v0.14l-0.08,0.04l-0.12-0.1L56,20.97l-2.9-4.4l-0.43-0.84
				l-0.14-0.21v4.87l-0.06,0.51l-0.04-0.14l-0.06,0.25l-0.1-0.14l-0.18-0.66v-0.47l-0.06-0.04l0.06-0.27L52.04,19l-0.08-3.33
				l-0.06-0.08l-0.04,0.27l0.1,0.19v4.09l-0.1,0.39l-0.1,0.1l-0.1,0.25l-0.04-0.14l-0.1-0.06l-0.06-0.39l-0.04,0.45h-0.1l-0.1-0.18
				H51.1L51,20.76l-0.04,0.14l-0.1,0.21l-0.06-0.06l-0.1,0.1l-0.1-0.19L50.04,8.44z M51.9,15.49l0.06-0.04l-0.06-0.49l-0.1,0.1
				L51.9,15.49z M52.63,12.42h0.14l0.04-0.06l0.2-0.04h0.14l0.25-0.1l1.57-0.7l0.78-0.49l0.43-0.62V10.1l-0.71-0.39l-1-0.43
				l-1.18-0.27L52.9,8.95h-0.72l0.1,3.62L52.63,12.42z M53.1,8.48l0.1-0.04L52.8,8.4L52.2,8.44h0.43L53.1,8.48z M53.76,13.57
				l0.14,0.16l0.55-0.23l-0.14,0.23l0.47-0.39l0.8-0.35l-0.06-0.06l0.06-0.1l-0.16,0.04l-0.29,0.21l0.29-0.1l-0.33,0.19l-0.06-0.16
				l-0.96,0.45l0.06,0.06H53.9L53.76,13.57z M54.47,13.43l0.29-0.14l0.1-0.02l-0.08,0.06l-0.33,0.16L54.47,13.43z M56.29,12.42
				l0.24-0.23l-0.57,0.39L56.29,12.42z"/>
			<path class="st0" d="M61.23,20.92l-0.04,0.13l-0.06-0.19l-0.04-0.32l0.17-1.93l-0.07-0.24l-0.06-0.04l0.21-0.21l-0.26-7.78
				l0.02-0.41l-3.04,0.13l-0.09-0.08V9.86l0.3-0.19l1.54-0.15h-1.35V9.43L57.8,9.3L57.76,9.2l0.21-0.06l-0.36-0.08l0.11-0.13h0.24
				l0.28-0.09h0.51l0.04-0.06l-0.17-0.04h-0.75L57.63,8.6L57.4,8.55l0.13-0.13l-0.06-0.09V8.23h0.32l-0.06-0.04h0.15L58.1,8.1
				l1.71-0.08l0.52-0.07l0.37,0.09l0.21-0.08l0.13-0.09L61,7.74l0.13,0.04l0.15-0.13l-0.02,0.19h0.15v0.09l0.26,0.04l0.21-0.09
				l0.13,0.08l0.13-0.08v0.09l0.13-0.06l0.15,0.06l-0.06,0.06h0.19l0.09-0.09l0.19,0.04h0.09l0.06,0.06h0.86l0.92,0.08l1.35,0.04
				L66.1,8.23l0.13,0.06l-0.28,0.04l0.06,0.06v0.09h0.23l0.06,0.06L66.01,8.6L65.93,8.7h-1.65L64,8.75h-0.69l0.47,0.04h0.77
				l0.71,0.09l0.09,0.06L66.03,9l-0.26,0.13L66.1,9.2v0.08l-0.37,0.06h-0.36l-0.28,0.15h-1.11l-0.04-0.06L63.87,9.5L63.8,9.43h-0.23
				l-0.15,0.06l0.15,0.04l1.27,0.09h0.37l0.3,0.11v0.11l0.62,0.15h-3l0.21,4.93l-0.15,4.2l-0.15,1.18l-0.06,0.19l-0.06,0.28
				l-0.06,0.15l-0.11-0.62l0.02-0.3l-0.08,0.04l0.04-1.14l-0.04-0.37l-0.09,0.13l0.04,0.09l-0.09,0.09l-0.02,0.45l-0.06,0.19
				l0.07,0.08l-0.11,0.11l-0.02,0.37l-0.07,0.13l-0.02-0.13l-0.07,0.45l-0.04,0.09l-0.07-0.23l-0.11,0.04l0.04-0.13l0.02-0.36
				l-0.04-0.06L62,19.91l-0.02,0.45h-0.09l-0.02-0.64l-0.06,0.19v0.13l-0.04,0.06L61.72,20l-0.3,0.77l-0.06,0.37l-0.04-0.13
				L61.23,20.92z M58.92,8.79h0.28l0.06-0.04h-0.28L58.92,8.79z M62,19.81l0.09-0.06l-0.02-0.13L62,19.81z M62.71,18.33l0.04-0.69
				l-0.04,0.09l-0.02,0.15l-0.06,0.04v0.17L62.71,18.33z M62.65,17.54l0.06-0.04l-0.06-0.06V17.54z"/>
			<path class="st0" d="M65.13,20.95l-0.19-0.22l1.07-4.37v-0.17l0.82-4.1l0.43-2.94l0.06-0.21l0.04-0.49v-0.3l0.13-0.24l0.26,0.08
				l0.09-0.08v0.11l0.09,0.09h0.09l0.09,0.11h0.49l0.3,0.09h0.09l0.11-0.07l0.13,0.07l0.09-0.17l0.3,0.07l0.13,0.28l0.06-0.15V8.23
				l0.34-0.13l0.71,1.39l2.38,11.02v0.47l-0.19-0.09l-0.15-0.37l-0.09-0.09l-0.62-2.81v-0.17l-0.11-0.21v0.24l0.39,2.01l-0.11,0.11
				l0.11,0.75v0.45l-0.09,0.19l-0.11-0.06l-0.08-0.08l-0.07,0.26l-0.15-0.32h-0.08l-0.09-0.34l-0.06-0.06v0.36h0.07l-0.07,0.13
				l-0.06,0.52h-0.28l-0.34-1.14l-0.06,0.07v-0.28L71,19.99v-0.15l-0.06-0.04v-0.24l-0.37-1.72v-0.17l-2.81,0.77l-0.71,2.7
				l-0.11,0.06v-0.54l0.04-0.24l-0.11,0.08l0.22-1.12l0.04-0.52l0.08-0.15l-0.08-0.06l-0.09,0.21l-0.06-0.07L66.93,19l-0.15,0.3
				v0.36l-0.08,0.08l-0.32,1.09l-0.13,0.22l-0.15-0.06l-0.09,0.11l-0.11-0.24l0.11-0.54l0.04-0.28v-0.15l0.07-0.07l0.13-1.18
				l-0.34,1.31l-0.11,0.19l-0.04,0.28v0.11l-0.09,0.19H65.6l-0.22,0.73l-0.09-0.11l-0.09,0.11l-0.06-0.04V20.95z M67.6,16.1h0.09
				l0.19-0.82h-0.09v0.17l-0.04,0.28l-0.06,0.06v0.13L67.6,16.1z M67.9,15.2l0.17-0.86L68,14.28v0.17l-0.06,0.07v0.28l-0.11,0.22
				L67.9,15.2z M68.09,14.22v-0.15l-0.06-0.04v0.08L68.09,14.22z M68.28,16.08l1.74-0.37v-0.19l0.06-0.07l-0.09,0.04v-0.15
				l0.04-0.09l-0.09,0.04l-0.04-0.24l-0.06-0.17v-0.11l0.06-0.09l-0.11,0.04v-0.13l0.06-0.11l-0.09,0.07v-0.15l0.04-0.09l-0.13,0.06
				l0.09-0.26l-0.15,0.06l0.09-0.26l-0.09,0.07l-0.06-0.24v-0.24L69.5,13.4l-0.15-0.52v-0.11l0.06-0.09l-0.09,0.04l0.04-0.28
				l-0.09,0.04v-0.07l-0.06-0.06l-0.09-0.37l-0.07,0.06l-0.75,3.71V16.08z M68.34,12.87l0.08-0.3l-0.08,0.13V12.87z M68.97,16.85
				l0.09-0.06h0.09l0.11-0.08l0.08,0.08l0.06-0.11h0.28l0.54-0.04v-0.36l-1.12,0.36l-0.26,0.13L68.97,16.85z M70.47,17.46v-0.37
				l-0.11,0.04v-0.24l-0.26,0.06l-0.26,0.37h-0.19l-0.15,0.06l0.09,0.06h0.73L70.47,17.46z M71.99,16.71l-0.22-0.99v0.37l0.15,0.54
				L71.99,16.71z M72.53,19.56l-0.04,0.11l-0.06-0.11H72.53z"/>
		</g>
		<g>
			<path class="st0" d="M49.01,28.92H38.69c-0.45,0-0.83,0.38-0.83,0.83v10.35c0,0.45,0.38,0.83,0.83,0.83h4.69
				c0.44,0,0.81-0.36,0.83-0.8c0.56,0.78,1.31,1.34,2.3,1.52c1.05,0.19,1.5-1.42,0.44-1.61c-2.42-0.44-2.7-4.74-2.74-6.7
				c-0.02-1.07-1.67-1.08-1.67,0v5.91h-3.03v-8.69h8.66v14.32H32.41v-8.94c-0.28,0.12-0.6,0.15-0.9,0.04
				c-0.27-0.09-0.53-0.21-0.76-0.34v10.07c0,0.45,0.38,0.83,0.83,0.83h17.44c0.45,0,0.83-0.38,0.83-0.83V29.75
				C49.85,29.3,49.47,28.92,49.01,28.92z"/>
		</g>
		<g>
			<path class="st0" d="M29.97,36.38c2.91,0,5.81,0,8.72,0c0.45,0,0.83-0.38,0.83-0.83c0-1.93,0-3.86,0-5.79
				c0-0.45-0.38-0.83-0.83-0.83c-2.91,0-5.81,0-8.72,0c-0.45,0-0.83,0.38-0.83,0.83c0,1.93,0,3.86,0,5.79c0,1.07,1.67,1.07,1.67,0
				c0-1.93,0-3.86,0-5.79c-0.28,0.28-0.56,0.56-0.83,0.83c2.91,0,5.81,0,8.72,0c-0.28-0.28-0.56-0.56-0.83-0.83
				c0,1.93,0,3.86,0,5.79c0.28-0.28,0.56-0.56,0.83-0.83c-2.91,0-5.81,0-8.72,0C28.9,34.71,28.89,36.38,29.97,36.38z"/>
		</g>
		<g>
			<path class="st0" d="M39.46,40.11c0,1.88,0,3.76,0,5.63c0,1.07,1.67,1.07,1.67,0c0-1.88,0-3.76,0-5.63
				C41.13,39.03,39.46,39.03,39.46,40.11L39.46,40.11z"/>
		</g>
		<g>
			<path class="st0" d="M40.3,40.03c-2.91,0-5.81,0-8.72,0c-1.07,0-1.07,1.67,0,1.67c2.91,0,5.81,0,8.72,0
				C41.37,41.7,41.37,40.03,40.3,40.03L40.3,40.03z"/>
		</g>
	</g>
</g>
<g id="Capa_6">
</g>
<g id="Capa_5">
</g>
</svg>
