<?xml version="1.0" encoding="utf-8"?>
<!-- Generator: Adobe Illustrator 24.0.3, SVG Export Plug-In . SVG Version: 6.00 Build 0)  -->
<svg version="1.1" xmlns="http://www.w3.org/2000/svg" xmlns:xlink="http://www.w3.org/1999/xlink" x="0px" y="0px"
	 viewBox="0 0 76.58 25.81" style="enable-background:new 0 0 76.58 25.81;" xml:space="preserve">
<style type="text/css">
	.st0{fill:#FFFFFF;}
	.st1{fill:url(#SVGID_1_);}
	.st2{fill:#E7004C;}
	.st3{fill:none;stroke:#00B2E3;stroke-miterlimit:10;}
	.st4{fill:url(#SVGID_2_);}
	.st5{fill:#FCFCFC;}
	.st6{fill:url(#SVGID_3_);}
	.st7{fill:url(#SVGID_4_);}
	.st8{opacity:0.8;fill:#E7004C;}
	.st9{opacity:0.7;fill:#E7004C;}
	.st10{opacity:0.7;}
	.st11{fill:#00B2E3;}
	.st12{opacity:0.8;fill:#00B2E3;}
	.st13{opacity:0.7;fill:#00B2E3;}
	.st14{fill:#BBBBBB;}
	.st15{opacity:0.8;fill:#BBBBBB;}
	.st16{opacity:0.7;fill:#BBBBBB;}
	.st17{fill:url(#SVGID_5_);}
	.st18{fill:url(#SVGID_6_);}
	.st19{fill:none;stroke:#E7004C;stroke-width:2;stroke-miterlimit:10;}
	.st20{fill:url(#SVGID_7_);}
	.st21{fill:url(#SVGID_8_);}
	.st22{fill:url(#SVGID_9_);}
	.st23{fill:none;stroke:#FFFFFF;stroke-miterlimit:10;}
	.st24{fill:none;stroke:#E7004C;stroke-miterlimit:10;}
	.st25{fill-rule:evenodd;clip-rule:evenodd;fill:#E7004C;}
	.st26{fill:none;stroke:#000000;stroke-miterlimit:10;}
	.st27{fill:#38A8E0;}
	.st28{clip-path:url(#SVGID_11_);fill:#00B2E3;}
	.st29{fill:none;stroke:#E7004C;stroke-width:3;stroke-miterlimit:10;}
	.st30{clip-path:url(#SVGID_13_);}
	.st31{fill:none;stroke:#FFFFFF;stroke-width:2;stroke-miterlimit:10;}
	.st32{fill:none;stroke:#FFFFFF;stroke-width:3;stroke-miterlimit:10;}
	.st33{clip-path:url(#SVGID_15_);}
	.st34{fill:url(#SVGID_16_);}
	.st35{fill:none;stroke:#FFFFFF;stroke-width:0.5;stroke-miterlimit:10;}
	.st36{clip-path:url(#SVGID_18_);fill:#00B2E3;}
	.st37{clip-path:url(#SVGID_20_);}
	.st38{clip-path:url(#SVGID_22_);}
	.st39{fill:url(#SVGID_23_);}
	.st40{clip-path:url(#SVGID_25_);}
	.st41{fill:url(#SVGID_26_);}
	.st42{fill:url(#SVGID_27_);}
	.st43{fill:url(#SVGID_28_);}
	.st44{fill:url(#SVGID_29_);}
	.st45{clip-path:url(#SVGID_31_);fill:#00B2E3;}
	.st46{clip-path:url(#SVGID_33_);}
	.st47{clip-path:url(#SVGID_35_);}
	.st48{fill:url(#SVGID_36_);}
	.st49{clip-path:url(#SVGID_38_);}
	.st50{clip-path:url(#SVGID_40_);}
	.st51{fill:#280210;}
	.st52{opacity:0.5;}
	.st53{opacity:0.6;}
	.st54{fill:url(#SVGID_41_);}
	.st55{fill:url(#SVGID_42_);}
	.st56{fill:url(#SVGID_43_);}
	.st57{fill:url(#SVGID_44_);}
	.st58{opacity:0.8;}
	.st59{opacity:0.9;}
	.st60{fill:url(#SVGID_45_);}
	.st61{clip-path:url(#SVGID_47_);}
	.st62{clip-path:url(#SVGID_49_);}
	.st63{fill:url(#SVGID_50_);}
	.st64{clip-path:url(#SVGID_52_);}
	.st65{fill:url(#SVGID_53_);}
	.st66{clip-path:url(#SVGID_55_);}
	.st67{fill:url(#SVGID_56_);}
	.st68{clip-path:url(#SVGID_58_);}
	.st69{clip-path:url(#SVGID_60_);fill:#00B2E3;}
	.st70{clip-path:url(#SVGID_62_);}
	.st71{clip-path:url(#SVGID_64_);}
	.st72{fill:none;stroke:#FFFFFF;stroke-width:5;stroke-miterlimit:10;}
	.st73{clip-path:url(#SVGID_66_);fill:#00B2E3;}
	.st74{clip-path:url(#SVGID_68_);}
	.st75{clip-path:url(#SVGID_70_);}
	.st76{clip-path:url(#SVGID_72_);fill:#00B2E3;}
	.st77{clip-path:url(#SVGID_74_);}
	.st78{fill:#5B0323;}
	.st79{fill:url(#SVGID_75_);}
	.st80{fill:url(#SVGID_76_);}
	.st81{fill:url(#SVGID_77_);}
	.st82{clip-path:url(#SVGID_80_);fill:#00B2E3;}
	.st83{clip-path:url(#SVGID_84_);}
	.st84{clip-path:url(#SVGID_86_);}
	.st85{fill-rule:evenodd;clip-rule:evenodd;fill:#FFFFFF;}
	.st86{fill:#E5E5E5;}
	.st87{clip-path:url(#SVGID_88_);}
	.st88{fill-rule:evenodd;clip-rule:evenodd;fill:none;stroke:#E7004C;stroke-width:3;stroke-miterlimit:10;}
	.st89{fill:#070101;}
	.st90{fill:none;stroke:#068FFF;stroke-width:5;stroke-miterlimit:10;}
</style>
<g id="Capa_2">
</g>
<g id="Capa_1">
</g>
<g id="Capa_3">
</g>
<g id="Capa_4">
	<g>
		<g>
			<path class="st0" d="M1.07,21.6H1.3l1.03,2.44H2.07L1.81,23.4H0.51l-0.28,0.65H0L1.07,21.6z M1.17,21.85L0.6,23.19h1.12
				L1.17,21.85z"/>
			<path class="st0" d="M4.47,21.6h0.64c0.19,0,0.87,0,0.87,0.64c0,0.47-0.36,0.59-0.62,0.63l0.71,1.17H5.81l-0.69-1.16H4.7v1.16
				H4.47V21.6z M4.7,22.68h0.48c0.48,0,0.57-0.27,0.57-0.43c0-0.17-0.09-0.43-0.57-0.43H4.7V22.68z"/>
			<path class="st0" d="M10.78,24.04H9.43c-0.68,0-1.28-0.5-1.28-1.25c0-0.71,0.48-1.25,1.24-1.25c0.76,0,1.24,0.54,1.24,1.25
				c0,0.43-0.23,0.89-0.61,1.04v0.01h0.76V24.04z M9.43,23.84c0.63,0,0.97-0.5,0.97-1.04c0-0.59-0.38-1.04-1.01-1.04
				c-0.63,0-1.01,0.45-1.01,1.04C8.38,23.36,8.81,23.84,9.43,23.84z"/>
			<path class="st0" d="M14.71,23.11c0,0.52-0.22,1-0.89,1c-0.67,0-0.89-0.48-0.89-1V21.6h0.23v1.45c0,0.35,0.09,0.85,0.66,0.85
				c0.57,0,0.66-0.5,0.66-0.85V21.6h0.23V23.11z"/>
			<path class="st0" d="M17.13,21.6h0.23v2.44h-0.23V21.6z"/>
			<path class="st0" d="M20.36,21.81h-0.83V21.6h1.9v0.21h-0.83v2.23h-0.23V21.81z"/>
			<path class="st0" d="M23.59,21.6h1.49v0.21h-1.27v0.87H25v0.21h-1.19v0.95h1.32v0.21h-1.55V21.6z"/>
			<path class="st0" d="M29.44,23.66c-0.23,0.32-0.55,0.44-0.91,0.44c-0.74,0-1.26-0.54-1.26-1.28s0.52-1.28,1.26-1.28
				c0.33,0,0.63,0.11,0.84,0.38l-0.19,0.16c-0.15-0.23-0.41-0.33-0.66-0.33c-0.64,0-1.03,0.47-1.03,1.08s0.4,1.08,1.03,1.08
				c0.24,0,0.55-0.12,0.72-0.38L29.44,23.66z"/>
			<path class="st0" d="M32.19,21.81h-0.83V21.6h1.9v0.21h-0.83v2.23h-0.23V21.81z"/>
			<path class="st0" d="M37.16,23.11c0,0.52-0.22,1-0.89,1c-0.67,0-0.89-0.48-0.89-1V21.6h0.23v1.45c0,0.35,0.09,0.85,0.66,0.85
				c0.57,0,0.66-0.5,0.66-0.85V21.6h0.23V23.11z"/>
			<path class="st0" d="M39.57,21.6h0.64c0.19,0,0.87,0,0.87,0.64c0,0.47-0.36,0.59-0.62,0.63l0.71,1.17h-0.26l-0.69-1.16H39.8v1.16
				h-0.23V21.6z M39.8,22.68h0.48c0.48,0,0.57-0.27,0.57-0.43c0-0.17-0.09-0.43-0.57-0.43H39.8V22.68z"/>
			<path class="st0" d="M44.16,21.6h0.23l1.03,2.44h-0.26L44.9,23.4h-1.29l-0.28,0.65h-0.24L44.16,21.6z M44.27,21.85l-0.57,1.34
				h1.12L44.27,21.85z"/>
			<path class="st0" d="M49.9,22.99L49,21.6h0.27l0.74,1.16l0.76-1.16h0.26l-0.9,1.39v1.05H49.9V22.99z"/>
			<path class="st0" d="M54.89,21.6h0.76c1.27,0,1.32,1.04,1.32,1.22s-0.05,1.22-1.32,1.22h-0.76V21.6z M55.12,23.84h0.47
				c0.65,0,1.15-0.31,1.15-1.01c0-0.7-0.5-1.01-1.15-1.01h-0.47V23.84z"/>
			<path class="st0" d="M59.27,21.6h0.23v2.44h-0.23V21.6z"/>
			<path class="st0" d="M62.03,23.59c0.12,0.2,0.32,0.31,0.56,0.31c0.31,0,0.55-0.19,0.55-0.48c0-0.68-1.26-0.28-1.26-1.21
				c0-0.43,0.37-0.67,0.78-0.67c0.27,0,0.5,0.09,0.67,0.31l-0.2,0.14c-0.11-0.16-0.27-0.24-0.48-0.24c-0.29,0-0.55,0.15-0.55,0.46
				c0,0.73,1.26,0.29,1.26,1.21c0,0.44-0.36,0.69-0.76,0.69c-0.32,0-0.6-0.1-0.79-0.37L62.03,23.59z"/>
			<path class="st0" d="M65.67,21.6h1.49v0.21H65.9v0.87h1.19v0.21H65.9v0.95h1.32v0.21h-1.55V21.6z"/>
			<path class="st0" d="M69.51,21.6h0.29l1.49,2.14h0.01V21.6h0.23v2.44h-0.29l-1.49-2.14h-0.01v2.14h-0.23V21.6z M69.98,21.39
				c0.01-0.08,0.04-0.17,0.09-0.23c0.05-0.07,0.12-0.12,0.22-0.12c0.09,0,0.18,0.04,0.26,0.09c0.08,0.04,0.15,0.08,0.22,0.08
				c0.1,0,0.15-0.08,0.17-0.17h0.12c-0.01,0.08-0.04,0.17-0.08,0.24c-0.05,0.07-0.11,0.11-0.21,0.11c-0.09,0-0.18-0.04-0.26-0.08
				c-0.08-0.04-0.16-0.08-0.23-0.08c-0.11,0-0.16,0.08-0.18,0.17H69.98z"/>
			<path class="st0" d="M75.09,21.54c0.74,0,1.26,0.54,1.26,1.28s-0.52,1.28-1.26,1.28s-1.26-0.54-1.26-1.28
				S74.34,21.54,75.09,21.54z M75.09,23.9c0.64,0,1.03-0.47,1.03-1.08s-0.4-1.08-1.03-1.08c-0.64,0-1.03,0.47-1.03,1.08
				S74.45,23.9,75.09,23.9z"/>
		</g>
		<polygon class="st0" points="8.78,9.81 0,0 0,17.71 4.6,17.68 4.6,12.09 8.78,16.74 12.97,12.09 12.97,17.68 17.56,17.71 17.56,0 
					"/>
		<polygon class="st0" points="34.16,3.62 34.16,0 19.04,0 19.04,17.71 34.16,17.71 34.16,14.09 23.63,14.09 23.63,10.66 
			29.37,10.66 29.37,6.77 23.63,6.77 23.63,3.62 		"/>
		<path class="st0" d="M38.75,17.71h-4.6V0h4.6v6.79L44.83,0l6.18,0l-7.39,8.3l8.45,9.41h-6.23l-5.33-5.94l-1.76,1.96v0.34V17.71z"
			/>
		<polygon class="st0" points="55,14.09 67.63,0 54.02,0 50.11,4.32 57.53,4.32 48.95,13.92 46.13,17.71 59.92,17.71 64,14.09 		"/>
		<polygon class="st0" points="57.18,17.71 63.41,17.71 71.85,8.29 71.85,17.71 76.44,17.71 76.44,0 73.06,0 		"/>
	</g>
</g>
<g id="Capa_6">
</g>
<g id="Capa_5">
</g>
</svg>
