<?xml version="1.0" encoding="utf-8"?>
<!-- Generator: Adobe Illustrator 24.0.3, SVG Export Plug-In . SVG Version: 6.00 Build 0)  -->
<svg version="1.1" xmlns="http://www.w3.org/2000/svg" xmlns:xlink="http://www.w3.org/1999/xlink" x="0px" y="0px"
	 viewBox="0 0 111.01 25.81" style="enable-background:new 0 0 111.01 25.81;" xml:space="preserve">
<style type="text/css">
	.st0{fill:#FFFFFF;}
	.st1{fill:url(#SVGID_1_);}
	.st2{fill:#E7004C;}
	.st3{fill:none;stroke:#00B2E3;stroke-miterlimit:10;}
	.st4{fill:url(#SVGID_2_);}
	.st5{fill:#FCFCFC;}
	.st6{fill:url(#SVGID_3_);}
	.st7{fill:url(#SVGID_4_);}
	.st8{opacity:0.8;fill:#E7004C;}
	.st9{opacity:0.7;fill:#E7004C;}
	.st10{opacity:0.7;}
	.st11{fill:#00B2E3;}
	.st12{opacity:0.8;fill:#00B2E3;}
	.st13{opacity:0.7;fill:#00B2E3;}
	.st14{fill:#BBBBBB;}
	.st15{opacity:0.8;fill:#BBBBBB;}
	.st16{opacity:0.7;fill:#BBBBBB;}
	.st17{fill:url(#SVGID_5_);}
	.st18{fill:url(#SVGID_6_);}
	.st19{fill:none;stroke:#E7004C;stroke-width:2;stroke-miterlimit:10;}
	.st20{fill:url(#SVGID_7_);}
	.st21{fill:url(#SVGID_8_);}
	.st22{fill:url(#SVGID_9_);}
	.st23{fill:none;stroke:#FFFFFF;stroke-miterlimit:10;}
	.st24{fill:none;stroke:#E7004C;stroke-miterlimit:10;}
	.st25{fill-rule:evenodd;clip-rule:evenodd;fill:#E7004C;}
	.st26{fill:none;stroke:#000000;stroke-miterlimit:10;}
	.st27{fill:#38A8E0;}
	.st28{clip-path:url(#SVGID_11_);fill:#00B2E3;}
	.st29{fill:none;stroke:#E7004C;stroke-width:3;stroke-miterlimit:10;}
	.st30{clip-path:url(#SVGID_13_);}
	.st31{fill:none;stroke:#FFFFFF;stroke-width:2;stroke-miterlimit:10;}
	.st32{fill:none;stroke:#FFFFFF;stroke-width:3;stroke-miterlimit:10;}
	.st33{clip-path:url(#SVGID_15_);}
	.st34{fill:url(#SVGID_16_);}
	.st35{fill:none;stroke:#FFFFFF;stroke-width:0.5;stroke-miterlimit:10;}
	.st36{clip-path:url(#SVGID_18_);fill:#00B2E3;}
	.st37{clip-path:url(#SVGID_20_);}
	.st38{clip-path:url(#SVGID_22_);}
	.st39{fill:url(#SVGID_23_);}
	.st40{clip-path:url(#SVGID_25_);}
	.st41{fill:url(#SVGID_26_);}
	.st42{fill:url(#SVGID_27_);}
	.st43{fill:url(#SVGID_28_);}
	.st44{fill:url(#SVGID_29_);}
	.st45{clip-path:url(#SVGID_31_);fill:#00B2E3;}
	.st46{clip-path:url(#SVGID_33_);}
	.st47{clip-path:url(#SVGID_35_);}
	.st48{fill:url(#SVGID_36_);}
	.st49{clip-path:url(#SVGID_38_);}
	.st50{clip-path:url(#SVGID_40_);}
	.st51{fill:#280210;}
	.st52{opacity:0.5;}
	.st53{opacity:0.6;}
	.st54{fill:url(#SVGID_41_);}
	.st55{fill:url(#SVGID_42_);}
	.st56{fill:url(#SVGID_43_);}
	.st57{fill:url(#SVGID_44_);}
	.st58{opacity:0.8;}
	.st59{opacity:0.9;}
	.st60{fill:url(#SVGID_45_);}
	.st61{clip-path:url(#SVGID_47_);}
	.st62{clip-path:url(#SVGID_49_);}
	.st63{fill:url(#SVGID_50_);}
	.st64{clip-path:url(#SVGID_52_);}
	.st65{fill:url(#SVGID_53_);}
	.st66{clip-path:url(#SVGID_55_);}
	.st67{fill:url(#SVGID_56_);}
	.st68{clip-path:url(#SVGID_58_);}
	.st69{clip-path:url(#SVGID_60_);fill:#00B2E3;}
	.st70{clip-path:url(#SVGID_62_);}
	.st71{clip-path:url(#SVGID_64_);}
	.st72{fill:none;stroke:#FFFFFF;stroke-width:5;stroke-miterlimit:10;}
	.st73{clip-path:url(#SVGID_66_);fill:#00B2E3;}
	.st74{clip-path:url(#SVGID_68_);}
	.st75{clip-path:url(#SVGID_70_);}
	.st76{clip-path:url(#SVGID_72_);fill:#00B2E3;}
	.st77{clip-path:url(#SVGID_74_);}
	.st78{fill:#5B0323;}
	.st79{fill:url(#SVGID_75_);}
	.st80{fill:url(#SVGID_76_);}
	.st81{fill:url(#SVGID_77_);}
	.st82{clip-path:url(#SVGID_80_);fill:#00B2E3;}
	.st83{clip-path:url(#SVGID_84_);}
	.st84{clip-path:url(#SVGID_86_);}
	.st85{fill-rule:evenodd;clip-rule:evenodd;fill:#FFFFFF;}
	.st86{fill:#E5E5E5;}
	.st87{clip-path:url(#SVGID_88_);}
	.st88{fill-rule:evenodd;clip-rule:evenodd;fill:none;stroke:#E7004C;stroke-width:3;stroke-miterlimit:10;}
	.st89{fill:#070101;}
	.st90{fill:none;stroke:#068FFF;stroke-width:5;stroke-miterlimit:10;}
</style>
<g id="Capa_2">
</g>
<g id="Capa_1">
</g>
<g id="Capa_3">
</g>
<g id="Capa_4">
	<g>
		<g>
			<g>
				<path class="st0" d="M0.31,15.34L3.1,1.35h3.76c1.19,0,2.09,0.32,2.7,0.96c0.62,0.64,0.81,1.58,0.56,2.81
					C9.98,5.83,9.7,6.44,9.29,6.93C8.87,7.43,8.36,7.79,7.74,8c0.69,0.17,1.16,0.56,1.42,1.18c0.26,0.62,0.31,1.35,0.14,2.2
					c-0.28,1.37-0.82,2.37-1.62,3.01c-0.81,0.63-1.84,0.95-3.09,0.95H0.31z M3.55,8.82l-1.01,5.04h2.33c0.6,0,1.13-0.22,1.58-0.65
					c0.45-0.43,0.76-1.04,0.92-1.82c0.17-0.84,0.15-1.48-0.05-1.92C7.12,9.04,6.7,8.82,6.08,8.82H3.55z M3.83,7.42h2.08
					C6.45,7.4,6.93,7.19,7.35,6.8c0.42-0.39,0.7-0.94,0.84-1.64c0.16-0.82,0.1-1.41-0.17-1.77C7.75,3.03,7.26,2.85,6.56,2.85H4.74
					L3.83,7.42z"/>
				<path class="st0" d="M4.58,15.53h-4.5L2.95,1.16h3.91c1.23,0,2.19,0.34,2.84,1.02c0.66,0.69,0.87,1.69,0.61,2.98
					c-0.15,0.74-0.45,1.38-0.88,1.9c-0.33,0.39-0.72,0.7-1.17,0.93c0.49,0.23,0.85,0.61,1.06,1.13c0.27,0.65,0.32,1.43,0.15,2.31
					c-0.28,1.41-0.85,2.46-1.69,3.12C6.95,15.2,5.87,15.53,4.58,15.53z M0.54,15.15h4.03c1.21,0,2.21-0.31,2.98-0.91
					c0.77-0.6,1.29-1.58,1.55-2.89c0.16-0.8,0.12-1.51-0.13-2.09C8.74,8.69,8.32,8.34,7.69,8.19L7.06,8.04l0.61-0.21
					c0.59-0.2,1.08-0.55,1.47-1.01c0.39-0.47,0.66-1.05,0.8-1.73C10.17,3.92,10,3.04,9.43,2.45c-0.58-0.6-1.44-0.9-2.57-0.9h-3.6
					L0.54,15.15z M4.87,14.05H2.31l1.09-5.43h2.69c0.7,0,1.17,0.26,1.41,0.77c0.22,0.48,0.24,1.15,0.07,2.03
					c-0.17,0.82-0.49,1.46-0.97,1.92C6.1,13.82,5.52,14.05,4.87,14.05z M2.77,13.67h2.1c0.56,0,1.03-0.19,1.45-0.6
					c0.42-0.4,0.71-0.98,0.86-1.72c0.16-0.79,0.14-1.4-0.04-1.8C6.98,9.19,6.63,9.01,6.08,9.01H3.7L2.77,13.67z M3.83,7.61H3.59
					l0.99-4.95h1.98c0.76,0,1.3,0.21,1.61,0.61c0.31,0.41,0.38,1.04,0.2,1.92c-0.15,0.74-0.45,1.32-0.9,1.74
					C7.03,7.36,6.5,7.59,5.92,7.61L3.83,7.61z M4.06,7.23h1.85c0.49-0.02,0.92-0.2,1.31-0.57C7.6,6.29,7.87,5.78,8,5.12
					c0.15-0.76,0.1-1.3-0.13-1.62C7.63,3.2,7.2,3.04,6.56,3.04H4.89L4.06,7.23z"/>
			</g>
			<g>
				<path class="st0" d="M15.5,15.34l0.14-1.28c-0.36,0.49-0.77,0.85-1.22,1.1c-0.45,0.25-0.94,0.37-1.47,0.37
					c-0.84,0-1.45-0.37-1.84-1.1c-0.38-0.74-0.43-1.85-0.12-3.35l1.22-6.14h1.92l-1.23,6.16c-0.23,1.14-0.27,1.91-0.12,2.32
					c0.15,0.41,0.46,0.61,0.94,0.61c0.42,0,0.81-0.12,1.16-0.35c0.35-0.23,0.67-0.57,0.94-0.99l1.55-7.74h1.93l-2.08,10.4H15.5z"/>
				<path class="st0" d="M12.94,15.74c-0.91,0-1.59-0.41-2-1.21c-0.4-0.77-0.45-1.94-0.14-3.48l1.25-6.29h2.31l-1.28,6.39
					c-0.28,1.37-0.23,1.96-0.13,2.22c0.12,0.33,0.36,0.48,0.76,0.48c0.38,0,0.74-0.11,1.06-0.32c0.32-0.21,0.61-0.52,0.87-0.91
					l1.57-7.86h2.32l-2.15,10.78h-2.09l0.1-0.87c-0.27,0.28-0.56,0.5-0.87,0.67C14.03,15.6,13.51,15.74,12.94,15.74z M12.36,5.14
					l-1.19,5.99c-0.29,1.45-0.25,2.53,0.11,3.23c0.35,0.67,0.9,1,1.67,1c0.5,0,0.96-0.12,1.38-0.35c0.43-0.24,0.82-0.59,1.16-1.05
					l0.42-0.56l-0.2,1.76h1.35l2-10.01h-1.54L16,12.76l-0.02,0.03c-0.29,0.45-0.62,0.8-1,1.05c-0.38,0.25-0.81,0.38-1.27,0.38
					c-0.56,0-0.95-0.25-1.12-0.74c-0.16-0.44-0.12-1.24,0.12-2.42l1.18-5.93H12.36z"/>
			</g>
			<g>
				<path class="st0" d="M24.23,12.74c0.06-0.42,0-0.76-0.2-1.03c-0.2-0.27-0.62-0.57-1.26-0.91c-0.95-0.41-1.64-0.85-2.07-1.33
					C20.28,9,20.13,8.39,20.25,7.64c0.13-0.83,0.55-1.51,1.23-2.06c0.69-0.55,1.53-0.82,2.52-0.82c0.98,0,1.74,0.31,2.27,0.92
					c0.53,0.61,0.71,1.37,0.55,2.26L26.8,7.98h-1.85c0.08-0.51,0.02-0.94-0.18-1.29c-0.2-0.35-0.53-0.52-0.98-0.52
					c-0.43,0-0.8,0.14-1.11,0.42c-0.31,0.28-0.49,0.6-0.54,0.96c-0.07,0.41-0.02,0.73,0.16,0.95c0.18,0.22,0.61,0.52,1.28,0.9
					c0.98,0.39,1.68,0.83,2.1,1.33c0.42,0.5,0.57,1.13,0.45,1.91c-0.15,0.89-0.57,1.6-1.27,2.12c-0.7,0.52-1.56,0.78-2.59,0.78
					c-1.06,0-1.86-0.33-2.41-0.99c-0.55-0.66-0.74-1.42-0.57-2.28l0.02-0.05h1.81c-0.09,0.67,0,1.16,0.27,1.46
					c0.27,0.3,0.65,0.45,1.13,0.45c0.45,0,0.83-0.13,1.14-0.39C23.96,13.48,24.16,13.14,24.23,12.74z"/>
				<path class="st0" d="M22.27,15.74c-1.11,0-1.97-0.36-2.56-1.06c-0.59-0.7-0.79-1.52-0.61-2.44l0.01-0.03l0.07-0.17h2.15
					l-0.03,0.22c-0.08,0.61-0.01,1.05,0.23,1.3c0.24,0.26,0.56,0.39,0.99,0.39c0.41,0,0.74-0.11,1.02-0.35
					c0.28-0.23,0.44-0.52,0.51-0.89c0.06-0.36,0-0.65-0.17-0.88c-0.18-0.24-0.58-0.53-1.19-0.85c-0.97-0.42-1.69-0.88-2.13-1.37
					c-0.46-0.52-0.63-1.19-0.5-1.99c0.14-0.87,0.58-1.6,1.3-2.18c0.72-0.57,1.61-0.86,2.64-0.86c1.03,0,1.84,0.33,2.41,0.98
					c0.57,0.66,0.77,1.47,0.59,2.42L27,8.01l-0.07,0.17h-2.21l0.03-0.22c0.07-0.47,0.02-0.86-0.16-1.16
					c-0.16-0.28-0.43-0.42-0.81-0.42c-0.38,0-0.7,0.12-0.98,0.37C22.52,7,22.37,7.27,22.32,7.59c-0.06,0.36-0.02,0.62,0.12,0.8
					c0.11,0.14,0.41,0.4,1.21,0.85c1,0.4,1.73,0.86,2.17,1.38c0.46,0.54,0.62,1.23,0.49,2.06c-0.16,0.94-0.61,1.69-1.34,2.24
					C24.25,15.46,23.34,15.74,22.27,15.74z M19.46,12.42c-0.13,0.76,0.05,1.42,0.55,2.01c0.52,0.62,1.26,0.92,2.27,0.92
					c0.98,0,1.82-0.25,2.48-0.74c0.65-0.49,1.06-1.16,1.19-2c0.11-0.72-0.02-1.3-0.41-1.75c-0.4-0.47-1.08-0.9-2.03-1.28l-0.02-0.01
					c-0.7-0.39-1.14-0.7-1.33-0.94c-0.21-0.26-0.28-0.63-0.2-1.1c0.06-0.4,0.26-0.76,0.6-1.07c0.35-0.31,0.76-0.47,1.24-0.47
					c0.53,0,0.91,0.21,1.15,0.61c0.19,0.33,0.27,0.73,0.23,1.19h1.49C26.77,7,26.6,6.34,26.13,5.8c-0.5-0.57-1.19-0.85-2.12-0.85
					c-0.94,0-1.75,0.26-2.4,0.78c-0.65,0.51-1.04,1.17-1.17,1.94c-0.11,0.7,0.02,1.24,0.41,1.68c0.4,0.45,1.07,0.88,2,1.28
					l0.01,0.01c0.67,0.36,1.1,0.67,1.32,0.97c0.23,0.31,0.31,0.7,0.24,1.17c-0.08,0.45-0.29,0.83-0.64,1.12
					c-0.34,0.29-0.77,0.44-1.26,0.44c-0.53,0-0.96-0.17-1.27-0.51c-0.28-0.3-0.4-0.77-0.35-1.39H19.46z"/>
			</g>
			<g>
				<path class="st0" d="M30.84,14.06c0.44,0,0.84-0.19,1.22-0.56c0.38-0.38,0.62-0.88,0.72-1.5h1.72l0.02,0.06
					c-0.15,1.02-0.6,1.85-1.35,2.51c-0.75,0.65-1.61,0.98-2.56,0.98c-1.19,0-2.06-0.44-2.6-1.33c-0.54-0.89-0.71-2-0.49-3.34
					l0.23-1.43c0.22-1.4,0.73-2.53,1.52-3.4c0.79-0.86,1.81-1.29,3.06-1.29c0.97,0,1.73,0.36,2.26,1.07
					c0.53,0.71,0.71,1.63,0.53,2.77h-1.8c0.12-0.72,0.06-1.29-0.16-1.71c-0.22-0.42-0.58-0.63-1.07-0.63c-0.67,0-1.2,0.3-1.6,0.91
					c-0.4,0.61-0.67,1.37-0.81,2.28l-0.23,1.43c-0.15,0.97-0.14,1.75,0.05,2.32C29.69,13.78,30.13,14.06,30.84,14.06z"/>
				<path class="st0" d="M30.61,15.74c-1.26,0-2.19-0.48-2.76-1.42c-0.56-0.92-0.74-2.09-0.52-3.47l0.23-1.43
					c0.23-1.43,0.76-2.61,1.57-3.49c0.82-0.9,1.9-1.35,3.2-1.35c1.03,0,1.84,0.38,2.41,1.14c0.56,0.75,0.75,1.73,0.56,2.91
					l-0.03,0.16h-2.18l0.04-0.22c0.11-0.67,0.06-1.2-0.14-1.59c-0.19-0.36-0.48-0.53-0.9-0.53c-0.6,0-1.07,0.27-1.44,0.83
					C30.26,7.85,30,8.6,29.86,9.47l-0.23,1.43c-0.15,0.94-0.13,1.69,0.05,2.23c0.16,0.49,0.54,0.73,1.16,0.73
					c0.39,0,0.74-0.17,1.09-0.51c0.35-0.34,0.57-0.81,0.67-1.4l0.03-0.16h2.02l0.08,0.23l-0.01,0.05c-0.15,1.06-0.63,1.94-1.41,2.62
					C32.51,15.39,31.6,15.74,30.61,15.74z M32.33,4.95c-1.19,0-2.17,0.41-2.92,1.23c-0.76,0.83-1.26,1.94-1.47,3.3l-0.23,1.43
					c-0.2,1.29-0.05,2.37,0.47,3.21c0.51,0.83,1.31,1.24,2.44,1.24c0.9,0,1.72-0.31,2.44-0.93c0.67-0.58,1.1-1.33,1.26-2.23h-1.36
					c-0.12,0.59-0.37,1.08-0.74,1.45c-0.41,0.41-0.87,0.62-1.35,0.62c-0.99,0-1.37-0.54-1.52-1c-0.2-0.6-0.22-1.41-0.06-2.41
					l0.23-1.43c0.14-0.93,0.43-1.72,0.84-2.35c0.44-0.66,1.03-1,1.76-1c0.56,0,0.98,0.25,1.23,0.73c0.22,0.41,0.29,0.95,0.21,1.6
					h1.41c0.13-1-0.04-1.83-0.52-2.46C33.93,5.27,33.25,4.95,32.33,4.95z"/>
			</g>
			<g>
				<path class="st0" d="M35.98,9.49c0.22-1.43,0.75-2.58,1.57-3.44c0.82-0.86,1.84-1.29,3.06-1.29c1.15,0,2,0.45,2.57,1.35
					c0.57,0.9,0.75,2.03,0.53,3.39l-0.21,1.33c-0.23,1.44-0.75,2.59-1.57,3.44c-0.82,0.86-1.83,1.28-3.03,1.28
					c-1.16,0-2.03-0.44-2.6-1.33c-0.57-0.89-0.75-2.02-0.52-3.39L35.98,9.49z M37.69,10.82c-0.16,0.99-0.13,1.77,0.1,2.36
					c0.22,0.59,0.67,0.88,1.34,0.88c0.61,0,1.14-0.31,1.57-0.92c0.43-0.61,0.72-1.39,0.87-2.33l0.21-1.33
					c0.15-0.97,0.12-1.75-0.1-2.34c-0.22-0.6-0.66-0.89-1.31-0.89c-0.63,0-1.17,0.31-1.6,0.92c-0.43,0.61-0.72,1.39-0.86,2.32
					L37.69,10.82z"/>
				<path class="st0" d="M38.89,15.74c-1.22,0-2.15-0.48-2.76-1.42c-0.6-0.93-0.78-2.11-0.55-3.53l0.21-1.32
					C36.02,8,36.56,6.8,37.41,5.92c0.85-0.9,1.93-1.35,3.19-1.35c1.21,0,2.13,0.48,2.74,1.43c0.59,0.93,0.78,2.12,0.56,3.52
					l-0.21,1.33c-0.24,1.47-0.78,2.67-1.62,3.55C41.21,15.28,40.14,15.74,38.89,15.74z M40.6,4.95c-1.16,0-2.14,0.41-2.92,1.23
					c-0.79,0.83-1.3,1.95-1.52,3.34l-0.21,1.33c-0.22,1.32-0.05,2.41,0.5,3.26c0.54,0.84,1.34,1.25,2.44,1.25
					c1.14,0,2.12-0.41,2.89-1.22c0.79-0.82,1.3-1.95,1.52-3.34l0.21-1.33c0.21-1.31,0.04-2.41-0.5-3.26
					C42.48,5.36,41.69,4.95,40.6,4.95z M39.12,14.26c-0.75,0-1.26-0.34-1.51-1.01c-0.24-0.62-0.27-1.45-0.11-2.46l0.21-1.32
					c0.15-0.95,0.45-1.76,0.9-2.39c0.47-0.67,1.05-1,1.75-1c0.73,0,1.24,0.35,1.49,1.02c0.23,0.62,0.27,1.44,0.11,2.44l-0.21,1.33
					c-0.16,0.96-0.46,1.77-0.91,2.4C40.38,13.92,39.8,14.26,39.12,14.26z M40.36,6.44c-0.57,0-1.04,0.28-1.44,0.84
					c-0.41,0.59-0.69,1.34-0.83,2.24l-0.21,1.33c-0.15,0.95-0.12,1.71,0.09,2.27c0.19,0.51,0.57,0.76,1.16,0.76
					c0.55,0,1.01-0.28,1.41-0.84c0.41-0.59,0.69-1.34,0.84-2.25l0.21-1.32c0.15-0.93,0.12-1.69-0.09-2.25
					C41.3,6.7,40.93,6.44,40.36,6.44z"/>
			</g>
			<g>
				<path class="st0" d="M46.2,15.34h-1.92l3-14.99h1.92L46.2,15.34z"/>
				<path class="st0" d="M46.36,15.53h-2.31l3.07-15.37h2.31L46.36,15.53z M44.52,15.15h1.53l2.92-14.61h-1.53L44.52,15.15z"/>
			</g>
			<g>
				<path class="st0" d="M50.26,15.34h-1.92l3-14.99h1.92L50.26,15.34z"/>
				<path class="st0" d="M50.42,15.53h-2.31l3.07-15.37h2.31L50.42,15.53z M48.57,15.15h1.53l2.92-14.61h-1.53L48.57,15.15z"/>
			</g>
			<g>
				<path class="st0" d="M57.3,15.34c-0.01-0.26-0.02-0.49-0.02-0.71c0-0.22,0.01-0.43,0.04-0.64c-0.36,0.46-0.78,0.84-1.24,1.12
					c-0.46,0.29-0.94,0.43-1.44,0.43c-0.78,0-1.37-0.28-1.76-0.85c-0.39-0.56-0.5-1.3-0.31-2.21c0.21-1.06,0.69-1.85,1.43-2.39
					c0.74-0.54,1.71-0.8,2.9-0.8h1.35l0.21-1.07c0.13-0.67,0.1-1.18-0.08-1.51c-0.18-0.34-0.52-0.5-1.01-0.5
					c-0.4,0-0.77,0.16-1.11,0.48c-0.34,0.32-0.55,0.72-0.64,1.2l-1.84-0.01l-0.02-0.06c0.14-0.85,0.59-1.58,1.34-2.18
					c0.75-0.6,1.65-0.9,2.69-0.9c0.92,0,1.64,0.31,2.16,0.92c0.52,0.61,0.67,1.47,0.45,2.57l-0.97,4.82
					c-0.08,0.42-0.14,0.81-0.16,1.17c-0.03,0.36-0.02,0.72,0.01,1.1H57.3z M55.37,14.05c0.39,0,0.79-0.13,1.2-0.4
					c0.41-0.27,0.73-0.6,0.98-1l0.42-2.13h-1.36c-0.51,0-0.97,0.2-1.36,0.59c-0.4,0.39-0.65,0.85-0.75,1.38
					c-0.1,0.5-0.08,0.89,0.07,1.16C54.71,13.91,54.98,14.05,55.37,14.05z"/>
				<path class="st0" d="M54.63,15.74c-0.84,0-1.49-0.31-1.92-0.93c-0.42-0.61-0.54-1.4-0.34-2.36c0.22-1.1,0.73-1.94,1.5-2.5
					c0.77-0.56,1.78-0.84,3.01-0.84h1.19l0.18-0.91c0.12-0.62,0.1-1.09-0.06-1.38c-0.15-0.27-0.42-0.4-0.85-0.4
					c-0.36,0-0.68,0.14-0.98,0.43c-0.31,0.29-0.51,0.66-0.59,1.09l-0.03,0.16l-2.13-0.01l-0.08-0.23l0.01-0.05
					c0.15-0.9,0.62-1.67,1.41-2.29c0.78-0.62,1.73-0.94,2.8-0.94c0.98,0,1.75,0.33,2.31,0.99c0.55,0.66,0.72,1.58,0.49,2.73
					l-0.97,4.82c-0.08,0.41-0.14,0.8-0.16,1.15c-0.03,0.35-0.02,0.71,0.01,1.07l0.02,0.21h-2.34l-0.01-0.18
					c-0.01-0.26-0.02-0.5-0.02-0.72c0-0.03,0-0.06,0-0.1c-0.28,0.29-0.59,0.53-0.91,0.74C55.68,15.58,55.16,15.74,54.63,15.74z
					 M56.88,9.49c-1.14,0-2.08,0.26-2.78,0.77c-0.7,0.5-1.15,1.27-1.35,2.27c-0.17,0.85-0.08,1.55,0.28,2.06
					c0.36,0.51,0.88,0.76,1.61,0.76c0.45,0,0.9-0.14,1.34-0.4c0.44-0.28,0.85-0.64,1.2-1.08l0.42-0.53l-0.08,0.67
					c-0.02,0.2-0.04,0.41-0.04,0.62c0,0.16,0,0.34,0.01,0.52h1.56c-0.02-0.31-0.02-0.62,0.01-0.92c0.03-0.36,0.08-0.77,0.17-1.2
					l0.97-4.82c0.2-1.04,0.07-1.85-0.41-2.41c-0.49-0.58-1.14-0.85-2.02-0.85c-0.99,0-1.85,0.29-2.57,0.86
					c-0.66,0.53-1.08,1.16-1.24,1.89l1.48,0.01c0.11-0.45,0.34-0.83,0.67-1.14c0.37-0.36,0.79-0.54,1.25-0.54
					c0.57,0,0.96,0.2,1.18,0.6c0.21,0.38,0.24,0.92,0.1,1.64l-0.24,1.22H56.88z M55.37,14.24c-0.46,0-0.79-0.17-0.98-0.51
					c-0.17-0.32-0.2-0.74-0.09-1.29c0.11-0.57,0.38-1.06,0.8-1.48c0.43-0.43,0.94-0.64,1.5-0.64h1.6l-0.48,2.4l-0.02,0.03
					c-0.26,0.42-0.61,0.77-1.04,1.06C56.24,14.09,55.8,14.24,55.37,14.24z M56.61,10.7c-0.46,0-0.87,0.17-1.23,0.53
					c-0.37,0.36-0.6,0.79-0.7,1.28c-0.09,0.45-0.08,0.8,0.05,1.03c0.11,0.21,0.32,0.31,0.64,0.31c0.35,0,0.72-0.12,1.09-0.37
					c0.37-0.25,0.68-0.55,0.91-0.91l0.37-1.87H56.61z"/>
			</g>
			<g>
				<path class="st0" d="M64.45,6.38c0.38-0.53,0.8-0.93,1.27-1.21c0.47-0.28,0.97-0.42,1.5-0.42c0.81,0,1.41,0.34,1.78,1.03
					c0.37,0.69,0.42,1.72,0.14,3.11l-1.29,6.45h-1.93l1.29-6.43c0.2-1.03,0.21-1.73,0.04-2.09c-0.17-0.36-0.52-0.55-1.06-0.55
					c-0.35,0-0.69,0.13-1.02,0.38c-0.34,0.25-0.65,0.6-0.93,1.03l-1.53,7.66h-1.93l2.07-10.4h1.77L64.45,6.38z"/>
				<path class="st0" d="M68.02,15.53H65.7l1.33-6.66c0.24-1.23,0.16-1.75,0.06-1.98c-0.14-0.29-0.43-0.44-0.89-0.44
					c-0.3,0-0.61,0.11-0.91,0.34c-0.31,0.23-0.6,0.55-0.86,0.95l-1.55,7.77h-2.32l2.15-10.78h2.14l-0.13,0.99
					c0.28-0.3,0.58-0.55,0.9-0.74c0.5-0.29,1.04-0.44,1.6-0.44c0.89,0,1.54,0.38,1.94,1.13c0.4,0.73,0.45,1.79,0.16,3.24
					L68.02,15.53z M66.17,15.15h1.54l1.26-6.29c0.27-1.34,0.22-2.34-0.12-2.98c-0.34-0.62-0.86-0.93-1.61-0.93
					c-0.49,0-0.97,0.13-1.41,0.39c-0.45,0.26-0.85,0.65-1.22,1.15L64.17,7.1l0.25-1.96h-1.39l-2,10.01h1.54l1.5-7.54l0.02-0.03
					c0.29-0.45,0.62-0.82,0.97-1.08c0.37-0.28,0.75-0.42,1.14-0.42c0.62,0,1.03,0.22,1.23,0.66c0.19,0.41,0.18,1.13-0.03,2.21
					L66.17,15.15z"/>
			</g>
			<g>
				<path class="st0" d="M74.76,2.36l-0.52,2.58h1.53l-0.28,1.39h-1.53l-1.23,6.19c-0.12,0.58-0.12,0.97-0.02,1.18
					c0.1,0.21,0.28,0.31,0.53,0.31c0.13,0,0.27-0.01,0.4-0.03c0.13-0.02,0.29-0.05,0.46-0.09l-0.08,1.35
					c-0.23,0.09-0.48,0.16-0.75,0.22c-0.27,0.05-0.54,0.08-0.83,0.08c-0.67,0-1.17-0.24-1.48-0.73c-0.32-0.49-0.37-1.25-0.16-2.28
					l1.23-6.19h-1.28l0.28-1.39h1.28l0.52-2.58H74.76z"/>
				<path class="st0" d="M72.45,15.74c-0.74,0-1.29-0.28-1.65-0.82c-0.35-0.54-0.41-1.33-0.19-2.42l1.18-5.96h-1.28l0.36-1.77h1.28
					l0.52-2.58h2.31l-0.52,2.58H76l-0.35,1.77h-1.53l-1.2,6.03c-0.14,0.7-0.08,0.96-0.04,1.06c0.07,0.14,0.18,0.21,0.36,0.21
					c0.12,0,0.25-0.01,0.38-0.03c0.13-0.02,0.28-0.05,0.45-0.08l0.25-0.05l-0.1,1.72l-0.11,0.04c-0.24,0.09-0.5,0.17-0.78,0.23
					C73.03,15.71,72.74,15.74,72.45,15.74z M70.99,6.15h1.28l-1.28,6.41c-0.2,0.98-0.16,1.7,0.13,2.14
					c0.28,0.44,0.72,0.65,1.32,0.65c0.27,0,0.53-0.03,0.79-0.08c0.21-0.04,0.42-0.1,0.6-0.16l0.06-0.97
					c-0.08,0.02-0.16,0.03-0.23,0.04c-0.14,0.02-0.29,0.03-0.43,0.03c-0.32,0-0.56-0.14-0.7-0.42c-0.12-0.25-0.12-0.67,0-1.3
					l1.26-6.34h1.53l0.2-1.01H74l0.52-2.58h-1.53l-0.52,2.58h-1.28L70.99,6.15z"/>
			</g>
			<g>
				<path class="st0" d="M80.31,15.34c-0.01-0.26-0.02-0.49-0.02-0.71c0-0.22,0.01-0.43,0.04-0.64c-0.37,0.46-0.78,0.84-1.24,1.12
					c-0.46,0.29-0.94,0.43-1.44,0.43c-0.78,0-1.37-0.28-1.76-0.85c-0.39-0.56-0.5-1.3-0.31-2.21c0.21-1.06,0.69-1.85,1.43-2.39
					c0.74-0.54,1.7-0.8,2.9-0.8h1.35l0.21-1.07c0.13-0.67,0.1-1.18-0.08-1.51c-0.18-0.34-0.52-0.5-1.01-0.5
					c-0.4,0-0.78,0.16-1.11,0.48c-0.34,0.32-0.55,0.72-0.64,1.2l-1.84-0.01l-0.02-0.06c0.14-0.85,0.59-1.58,1.34-2.18
					c0.75-0.6,1.65-0.9,2.69-0.9c0.92,0,1.64,0.31,2.16,0.92c0.52,0.61,0.67,1.47,0.45,2.57l-0.97,4.82
					c-0.08,0.42-0.14,0.81-0.16,1.17c-0.03,0.36-0.02,0.72,0.01,1.1H80.31z M78.39,14.05c0.39,0,0.79-0.13,1.2-0.4
					c0.41-0.27,0.73-0.6,0.98-1l0.42-2.13h-1.36c-0.51,0-0.97,0.2-1.36,0.59c-0.4,0.39-0.65,0.85-0.75,1.38
					c-0.1,0.5-0.08,0.89,0.07,1.16C77.73,13.91,78,14.05,78.39,14.05z"/>
				<path class="st0" d="M77.65,15.74c-0.84,0-1.49-0.31-1.92-0.93c-0.42-0.61-0.54-1.4-0.34-2.36c0.22-1.1,0.73-1.94,1.5-2.5
					c0.77-0.56,1.78-0.84,3.01-0.84h1.19l0.18-0.91c0.12-0.62,0.1-1.09-0.06-1.38c-0.15-0.27-0.42-0.4-0.85-0.4
					c-0.36,0-0.68,0.14-0.98,0.43c-0.31,0.29-0.51,0.66-0.59,1.09l-0.03,0.16l-2.13-0.01l-0.08-0.23l0.01-0.05
					c0.15-0.9,0.62-1.67,1.41-2.29c0.78-0.62,1.73-0.94,2.8-0.94c0.98,0,1.75,0.33,2.31,0.99c0.56,0.66,0.72,1.58,0.49,2.73
					l-0.97,4.82c-0.08,0.41-0.14,0.8-0.16,1.15c-0.03,0.35-0.02,0.71,0.01,1.07l0.02,0.21h-2.34l-0.01-0.18
					c-0.01-0.26-0.02-0.5-0.02-0.72c0-0.03,0-0.06,0-0.1c-0.28,0.29-0.59,0.53-0.91,0.74C78.69,15.58,78.18,15.74,77.65,15.74z
					 M79.9,9.49c-1.15,0-2.08,0.26-2.79,0.77c-0.7,0.5-1.15,1.27-1.35,2.27c-0.17,0.85-0.08,1.55,0.28,2.06
					c0.36,0.51,0.88,0.76,1.61,0.76c0.46,0,0.9-0.14,1.34-0.4c0.44-0.28,0.85-0.64,1.19-1.08l0.42-0.53l-0.08,0.67
					c-0.02,0.2-0.04,0.41-0.04,0.62c0,0.16,0,0.34,0.01,0.52h1.56c-0.02-0.31-0.02-0.62,0.01-0.92c0.03-0.36,0.08-0.77,0.17-1.2
					l0.97-4.82c0.2-1.04,0.07-1.85-0.41-2.41c-0.49-0.58-1.15-0.85-2.02-0.85c-0.99,0-1.85,0.29-2.57,0.86
					c-0.66,0.53-1.08,1.16-1.24,1.89l1.48,0.01c0.11-0.45,0.34-0.83,0.67-1.14c0.37-0.36,0.79-0.54,1.25-0.54
					c0.57,0,0.96,0.2,1.18,0.6c0.21,0.38,0.24,0.92,0.1,1.64L81.4,9.49H79.9z M78.39,14.24c-0.46,0-0.79-0.17-0.98-0.51
					c-0.17-0.32-0.2-0.74-0.09-1.29c0.11-0.57,0.38-1.06,0.8-1.48c0.43-0.43,0.94-0.64,1.5-0.64h1.6l-0.48,2.4l-0.02,0.03
					c-0.26,0.42-0.61,0.77-1.04,1.06C79.25,14.09,78.82,14.24,78.39,14.24z M79.63,10.7c-0.46,0-0.87,0.17-1.23,0.53
					c-0.37,0.36-0.6,0.79-0.7,1.28c-0.09,0.45-0.08,0.8,0.05,1.03c0.11,0.21,0.32,0.31,0.64,0.31c0.35,0,0.72-0.12,1.09-0.37
					c0.37-0.25,0.68-0.55,0.91-0.91l0.37-1.87H79.63z"/>
			</g>
			<g>
				<path class="st0" d="M88.98,12.74c0.06-0.42,0-0.76-0.2-1.03c-0.2-0.27-0.62-0.57-1.26-0.91c-0.95-0.41-1.64-0.85-2.07-1.33
					C85.03,9,84.88,8.39,85,7.64c0.13-0.83,0.55-1.51,1.24-2.06c0.69-0.55,1.53-0.82,2.52-0.82c0.98,0,1.74,0.31,2.27,0.92
					c0.53,0.61,0.71,1.37,0.55,2.26l-0.02,0.05H89.7c0.08-0.51,0.02-0.94-0.18-1.29c-0.2-0.35-0.53-0.52-0.98-0.52
					c-0.43,0-0.8,0.14-1.11,0.42c-0.31,0.28-0.49,0.6-0.54,0.96c-0.07,0.41-0.02,0.73,0.16,0.95c0.18,0.22,0.61,0.52,1.28,0.9
					c0.98,0.39,1.68,0.83,2.1,1.33c0.42,0.5,0.57,1.13,0.45,1.91c-0.15,0.89-0.57,1.6-1.27,2.12c-0.7,0.52-1.56,0.78-2.59,0.78
					c-1.06,0-1.86-0.33-2.41-0.99c-0.55-0.66-0.74-1.42-0.57-2.28l0.02-0.05h1.81c-0.09,0.67,0,1.16,0.27,1.46
					c0.27,0.3,0.65,0.45,1.13,0.45c0.45,0,0.83-0.13,1.14-0.39C88.72,13.48,88.91,13.14,88.98,12.74z"/>
				<path class="st0" d="M87.02,15.74c-1.11,0-1.97-0.36-2.56-1.06c-0.59-0.7-0.79-1.52-0.61-2.44l0.01-0.03l0.07-0.17h2.15
					l-0.03,0.22c-0.08,0.61-0.01,1.05,0.22,1.3c0.24,0.26,0.56,0.39,0.99,0.39c0.41,0,0.74-0.11,1.02-0.35
					c0.28-0.23,0.44-0.52,0.51-0.89c0.05-0.36,0-0.65-0.17-0.88c-0.18-0.24-0.58-0.53-1.19-0.85c-0.97-0.42-1.69-0.88-2.13-1.37
					c-0.46-0.52-0.63-1.19-0.5-1.99c0.14-0.87,0.58-1.6,1.3-2.18c0.72-0.57,1.61-0.86,2.64-0.86c1.03,0,1.84,0.33,2.41,0.98
					c0.57,0.66,0.77,1.47,0.59,2.42l-0.01,0.04l-0.07,0.17h-2.21l0.03-0.22c0.07-0.47,0.02-0.86-0.16-1.16
					c-0.16-0.28-0.43-0.42-0.81-0.42c-0.38,0-0.7,0.12-0.98,0.37C87.28,7,87.12,7.27,87.07,7.59c-0.06,0.36-0.02,0.62,0.12,0.8
					c0.11,0.14,0.41,0.4,1.21,0.85c1,0.4,1.73,0.86,2.17,1.38c0.46,0.54,0.62,1.23,0.49,2.06c-0.16,0.94-0.61,1.69-1.34,2.24
					C89,15.46,88.09,15.74,87.02,15.74z M84.21,12.42c-0.13,0.76,0.05,1.42,0.55,2.01c0.52,0.62,1.26,0.92,2.27,0.92
					c0.98,0,1.82-0.25,2.48-0.74c0.65-0.49,1.06-1.16,1.19-2c0.11-0.72-0.02-1.3-0.41-1.75c-0.4-0.47-1.08-0.9-2.03-1.28l-0.02-0.01
					c-0.7-0.39-1.14-0.7-1.33-0.94c-0.21-0.26-0.28-0.63-0.2-1.1c0.06-0.4,0.26-0.76,0.6-1.07c0.35-0.31,0.76-0.47,1.24-0.47
					c0.53,0,0.91,0.21,1.15,0.61c0.19,0.33,0.27,0.73,0.23,1.19h1.49C91.53,7,91.36,6.34,90.88,5.8c-0.5-0.57-1.19-0.85-2.12-0.85
					c-0.94,0-1.75,0.26-2.4,0.78c-0.65,0.51-1.04,1.17-1.16,1.94c-0.11,0.7,0.02,1.24,0.41,1.68c0.4,0.45,1.07,0.88,2,1.28
					l0.01,0.01c0.67,0.36,1.1,0.67,1.32,0.97c0.23,0.31,0.31,0.7,0.24,1.17c-0.08,0.45-0.29,0.83-0.64,1.12
					c-0.34,0.29-0.77,0.44-1.26,0.44c-0.53,0-0.96-0.17-1.27-0.51c-0.28-0.3-0.4-0.77-0.35-1.39H84.21z"/>
			</g>
			<g>
				<path class="st0" d="M93.37,15.34h-1.93l0.39-1.95h1.93L93.37,15.34z"/>
				<path class="st0" d="M93.53,15.53h-2.32l0.47-2.33H94L93.53,15.53z M91.67,15.15h1.54l0.32-1.57h-1.54L91.67,15.15z"/>
			</g>
			<g>
				<path class="st0" d="M96.88,14.69c0.23,0,0.44-0.1,0.64-0.29c0.2-0.2,0.32-0.46,0.38-0.79h0.9l0.01,0.03
					c-0.08,0.53-0.31,0.97-0.71,1.31c-0.39,0.34-0.84,0.51-1.34,0.51c-0.62,0-1.08-0.23-1.36-0.7c-0.28-0.47-0.37-1.05-0.26-1.75
					l0.12-0.75c0.12-0.74,0.38-1.33,0.8-1.78c0.41-0.45,0.95-0.68,1.6-0.68c0.51,0,0.91,0.19,1.18,0.56
					c0.28,0.37,0.37,0.86,0.28,1.45h-0.94c0.06-0.38,0.03-0.67-0.09-0.89c-0.12-0.22-0.3-0.33-0.56-0.33
					c-0.35,0-0.63,0.16-0.84,0.48c-0.21,0.32-0.35,0.72-0.43,1.19l-0.12,0.75c-0.08,0.51-0.07,0.92,0.03,1.22
					C96.27,14.54,96.51,14.69,96.88,14.69z"/>
				<path class="st0" d="M96.76,15.66c-0.69,0-1.21-0.27-1.53-0.79c-0.31-0.5-0.4-1.14-0.29-1.88l0.12-0.75
					c0.12-0.77,0.41-1.4,0.85-1.88c0.45-0.49,1.04-0.74,1.75-0.74c0.57,0,1.02,0.21,1.34,0.64c0.31,0.41,0.41,0.95,0.31,1.6
					l-0.03,0.16h-1.33l0.04-0.22c0.05-0.33,0.03-0.59-0.07-0.77c-0.08-0.16-0.21-0.23-0.39-0.23c-0.28,0-0.51,0.13-0.68,0.39
					c-0.19,0.3-0.33,0.67-0.4,1.12l-0.12,0.75c-0.08,0.48-0.07,0.86,0.02,1.13c0.05,0.15,0.15,0.32,0.52,0.32
					c0.18,0,0.34-0.08,0.51-0.24c0.17-0.17,0.28-0.39,0.32-0.68l0.03-0.16h1.2l0.07,0.2L99,13.67c-0.08,0.58-0.34,1.06-0.77,1.43
					C97.8,15.47,97.3,15.66,96.76,15.66z M97.66,10c-0.6,0-1.08,0.2-1.46,0.62c-0.39,0.42-0.64,0.99-0.75,1.68l-0.12,0.75
					c-0.1,0.65-0.02,1.2,0.23,1.62c0.25,0.41,0.64,0.61,1.2,0.61c0.46,0,0.86-0.15,1.22-0.47c0.32-0.27,0.52-0.61,0.61-1.01h-0.53
					c-0.07,0.3-0.21,0.54-0.4,0.73c-0.24,0.23-0.5,0.35-0.77,0.35c-0.57,0-0.8-0.32-0.88-0.59c-0.11-0.33-0.12-0.76-0.04-1.31
					l0.12-0.75c0.08-0.5,0.23-0.93,0.45-1.27c0.25-0.37,0.58-0.56,1-0.56c0.33,0,0.58,0.15,0.73,0.43c0.11,0.21,0.16,0.48,0.13,0.79
					h0.56c0.05-0.47-0.04-0.85-0.26-1.15C98.45,10.16,98.11,10,97.66,10z"/>
			</g>
			<g>
				<path class="st0" d="M99.57,12.29c0.12-0.75,0.39-1.35,0.82-1.81c0.43-0.45,0.96-0.68,1.6-0.68c0.6,0,1.05,0.24,1.35,0.71
					s0.39,1.06,0.28,1.78l-0.11,0.7c-0.12,0.76-0.4,1.36-0.82,1.81c-0.43,0.45-0.96,0.67-1.59,0.67c-0.61,0-1.06-0.23-1.36-0.7
					c-0.3-0.47-0.39-1.06-0.27-1.78L99.57,12.29z M100.47,12.99c-0.08,0.52-0.07,0.93,0.05,1.24c0.12,0.31,0.35,0.46,0.7,0.46
					c0.32,0,0.6-0.16,0.82-0.48c0.22-0.32,0.38-0.73,0.46-1.22l0.11-0.7c0.08-0.51,0.06-0.92-0.05-1.23
					c-0.12-0.31-0.34-0.47-0.69-0.47c-0.33,0-0.61,0.16-0.84,0.48c-0.22,0.32-0.38,0.73-0.45,1.21L100.47,12.99z"/>
				<path class="st0" d="M101.1,15.66c-0.67,0-1.19-0.27-1.52-0.79c-0.33-0.51-0.43-1.15-0.3-1.91l0.11-0.69
					c0.12-0.79,0.42-1.43,0.87-1.91c0.47-0.49,1.05-0.74,1.74-0.74c0.67,0,1.18,0.27,1.51,0.79c0.32,0.51,0.43,1.15,0.3,1.91
					l-0.11,0.7c-0.13,0.79-0.42,1.43-0.87,1.91C102.36,15.41,101.78,15.66,101.1,15.66z M102,10c-0.59,0-1.07,0.2-1.46,0.62
					c-0.4,0.42-0.66,0.99-0.77,1.7l-0.11,0.7c-0.11,0.67-0.03,1.22,0.25,1.65c0.27,0.41,0.66,0.61,1.2,0.61
					c0.58,0,1.06-0.2,1.45-0.61c0.4-0.42,0.66-0.99,0.77-1.7l0.11-0.7c0.11-0.66,0.02-1.22-0.25-1.65C102.92,10.2,102.53,10,102,10z
					 M101.22,14.88c-0.43,0-0.73-0.2-0.88-0.59c-0.13-0.34-0.15-0.78-0.06-1.34l0.11-0.7c0.08-0.51,0.24-0.95,0.49-1.29
					c0.26-0.38,0.6-0.57,0.99-0.57c0.42,0,0.72,0.21,0.87,0.59c0.13,0.34,0.15,0.79,0.06,1.33l-0.11,0.7
					c-0.08,0.52-0.25,0.95-0.49,1.3C101.94,14.69,101.61,14.88,101.22,14.88z M101.87,10.79c-0.27,0-0.49,0.13-0.68,0.4
					c-0.21,0.3-0.35,0.68-0.42,1.13l-0.11,0.7c-0.08,0.48-0.07,0.87,0.04,1.14c0.09,0.24,0.25,0.34,0.52,0.34
					c0.26,0,0.48-0.13,0.66-0.4c0.21-0.3,0.35-0.68,0.43-1.14l0.11-0.69c0.08-0.47,0.06-0.85-0.04-1.13
					C102.29,10.89,102.13,10.79,101.87,10.79z"/>
			</g>
			<g>
				<path class="st0" d="M105.79,10.6c0.19-0.26,0.4-0.45,0.65-0.58c0.24-0.13,0.51-0.2,0.8-0.2c0.26,0,0.47,0.08,0.65,0.25
					c0.17,0.16,0.28,0.41,0.33,0.74c0.2-0.31,0.42-0.55,0.68-0.73c0.26-0.17,0.54-0.26,0.86-0.26c0.41,0,0.71,0.19,0.9,0.58
					c0.19,0.39,0.21,0.96,0.06,1.73l-0.65,3.24h-1.01l0.65-3.24c0.12-0.6,0.14-1,0.06-1.2c-0.08-0.2-0.25-0.31-0.51-0.31
					c-0.2,0-0.39,0.09-0.57,0.27c-0.18,0.18-0.34,0.42-0.47,0.71c-0.01,0.09-0.02,0.16-0.03,0.21c-0.01,0.05-0.01,0.09-0.03,0.14
					l-0.69,3.42h-1.01l0.65-3.24c0.11-0.58,0.13-0.97,0.05-1.19c-0.08-0.21-0.25-0.32-0.51-0.32c-0.19,0-0.36,0.06-0.53,0.19
					c-0.17,0.13-0.31,0.3-0.45,0.52l-0.81,4.04h-1l1.09-5.45h0.92L105.79,10.6z"/>
				<path class="st0" d="M110.22,15.55h-1.4l0.7-3.47c0.14-0.73,0.1-1,0.07-1.1c-0.04-0.09-0.1-0.19-0.33-0.19
					c-0.15,0-0.29,0.07-0.44,0.22c-0.16,0.16-0.3,0.37-0.42,0.63l-0.03,0.18c-0.01,0.05-0.02,0.1-0.03,0.15l-0.72,3.57h-1.4
					l0.7-3.47c0.13-0.67,0.1-0.96,0.06-1.08c-0.04-0.1-0.11-0.2-0.33-0.2c-0.15,0-0.28,0.05-0.41,0.15
					c-0.14,0.11-0.27,0.26-0.38,0.44l-0.83,4.16h-1.39l1.16-5.83h1.29l-0.04,0.32c0.09-0.08,0.19-0.14,0.29-0.2
					c0.27-0.15,0.57-0.23,0.9-0.23c0.31,0,0.57,0.1,0.78,0.3c0.12,0.11,0.21,0.26,0.28,0.43c0.15-0.18,0.31-0.33,0.49-0.44
					c0.29-0.19,0.61-0.29,0.96-0.29c0.48,0,0.86,0.24,1.08,0.69c0.21,0.43,0.24,1.04,0.07,1.85L110.22,15.55z M109.29,15.17h0.62
					l0.62-3.09c0.14-0.72,0.13-1.26-0.04-1.61c-0.16-0.32-0.39-0.48-0.73-0.48c-0.28,0-0.52,0.07-0.75,0.23
					c-0.24,0.16-0.44,0.38-0.62,0.67l-0.28,0.44l-0.07-0.52c-0.04-0.28-0.13-0.49-0.27-0.62c-0.14-0.13-0.31-0.19-0.52-0.19
					c-0.26,0-0.5,0.06-0.71,0.18c-0.21,0.11-0.4,0.28-0.56,0.5c0.01-0.01,0.02-0.02,0.04-0.03c0.2-0.15,0.42-0.23,0.65-0.23
					c0.42,0,0.61,0.24,0.68,0.44c0.1,0.25,0.08,0.68-0.04,1.29l-0.6,3.02h0.62l0.65-3.26c0.01-0.05,0.02-0.09,0.02-0.13l0.03-0.23
					l0.01-0.02c0.14-0.31,0.31-0.57,0.51-0.77c0.22-0.22,0.46-0.33,0.71-0.33c0.43,0,0.61,0.23,0.69,0.43
					c0.09,0.24,0.08,0.66-0.05,1.31L109.29,15.17z M104.1,15.17h0.61l0.78-3.92l0.02-0.03c0-0.01,0.01-0.01,0.01-0.02l0.14-1.1
					h-0.55L104.1,15.17z"/>
			</g>
		</g>
		<path class="st0" d="M3.19,18.34c-0.18-0.32-0.44-0.47-0.79-0.47c-0.27,0-0.51,0.1-0.72,0.29c-0.21,0.19-0.39,0.44-0.53,0.73
			c-0.15,0.3-0.26,0.62-0.33,0.97c-0.08,0.35-0.11,0.69-0.11,1.01c0,0.21,0.02,0.4,0.06,0.58c0.04,0.18,0.1,0.33,0.17,0.46
			c0.08,0.13,0.17,0.23,0.29,0.3c0.12,0.07,0.26,0.11,0.42,0.11c0.11,0,0.22-0.01,0.31-0.05c0.1-0.03,0.18-0.07,0.26-0.12
			c0.08-0.05,0.15-0.11,0.21-0.17c0.06-0.06,0.12-0.12,0.16-0.18l0.35,0.43c-0.18,0.21-0.39,0.38-0.62,0.5
			c-0.23,0.12-0.5,0.18-0.81,0.18c-0.24,0-0.46-0.05-0.65-0.15c-0.19-0.1-0.35-0.24-0.47-0.42c-0.13-0.18-0.22-0.39-0.29-0.64
			C0.03,21.46,0,21.19,0,20.9c0-0.45,0.06-0.89,0.18-1.32c0.12-0.43,0.29-0.82,0.51-1.17c0.22-0.34,0.48-0.62,0.78-0.83
			c0.3-0.21,0.63-0.32,1-0.32c0.27,0,0.52,0.05,0.72,0.16c0.21,0.1,0.37,0.26,0.49,0.48L3.19,18.34z"/>
		<path class="st0" d="M7.41,19.27c0,0.44-0.05,0.87-0.16,1.31c-0.11,0.43-0.27,0.82-0.47,1.17c-0.2,0.35-0.45,0.63-0.74,0.85
			c-0.29,0.22-0.61,0.32-0.96,0.32c-0.24,0-0.46-0.05-0.65-0.15c-0.19-0.1-0.34-0.23-0.47-0.4c-0.13-0.17-0.23-0.38-0.29-0.62
			c-0.07-0.24-0.1-0.51-0.1-0.81c0-0.43,0.05-0.87,0.16-1.31c0.11-0.44,0.26-0.83,0.46-1.18c0.2-0.35,0.44-0.64,0.73-0.86
			c0.29-0.22,0.62-0.33,0.98-0.33c0.25,0,0.47,0.05,0.66,0.15c0.19,0.1,0.35,0.24,0.47,0.41c0.13,0.18,0.22,0.39,0.29,0.63
			C7.38,18.7,7.41,18.97,7.41,19.27z M6.7,19.36c0-0.18-0.01-0.37-0.03-0.55c-0.02-0.18-0.06-0.35-0.12-0.49
			c-0.06-0.14-0.15-0.26-0.26-0.35c-0.11-0.09-0.25-0.13-0.43-0.13c-0.17,0-0.33,0.05-0.47,0.15c-0.15,0.1-0.28,0.23-0.4,0.39
			c-0.12,0.16-0.22,0.35-0.31,0.56c-0.09,0.21-0.17,0.44-0.23,0.67c-0.06,0.23-0.11,0.47-0.14,0.7c-0.03,0.24-0.05,0.46-0.05,0.67
			c0,0.18,0.02,0.36,0.05,0.52c0.03,0.16,0.08,0.31,0.15,0.42c0.07,0.12,0.16,0.22,0.27,0.29c0.11,0.07,0.24,0.11,0.4,0.11
			c0.24,0,0.46-0.09,0.66-0.28c0.19-0.19,0.36-0.42,0.49-0.71c0.14-0.29,0.24-0.61,0.31-0.96C6.66,20.02,6.7,19.68,6.7,19.36z"/>
		<path class="st0" d="M11.46,22.79l0.79-4.48h-0.02l-1.99,4.48H9.61l-0.41-4.48H9.18L8.4,22.79h-0.6l0.96-5.41h0.96l0.39,4.29h0.03
			l1.9-4.29h1.03l-0.96,5.41H11.46z"/>
		<path class="st0" d="M16.73,18.63c0,0.29-0.04,0.55-0.12,0.77c-0.08,0.22-0.19,0.41-0.33,0.57c-0.14,0.16-0.31,0.27-0.51,0.36
			c-0.2,0.08-0.42,0.12-0.66,0.12h-0.75l-0.41,2.34h-0.65l0.94-5.41h1.25c0.18,0,0.34,0.03,0.5,0.08c0.15,0.05,0.28,0.13,0.39,0.23
			c0.11,0.1,0.2,0.23,0.26,0.39C16.69,18.23,16.73,18.42,16.73,18.63z M16.08,18.72c0-0.23-0.06-0.42-0.17-0.56
			c-0.11-0.14-0.29-0.21-0.53-0.21h-0.59l-0.34,1.96h0.63c0.31,0,0.55-0.11,0.73-0.32C16,19.38,16.08,19.09,16.08,18.72z"/>
		<path class="st0" d="M18.91,22.79l-0.05-1.28h-1.6l-0.57,1.28h-0.67l2.43-5.41h0.86l0.27,5.41H18.91z M18.77,17.99h-0.03l-1.29,3
			h1.41L18.77,17.99z"/>
		<path class="st0" d="M23.76,18.61c0,0.22-0.03,0.42-0.09,0.61c-0.06,0.19-0.14,0.35-0.25,0.49c-0.11,0.14-0.23,0.26-0.38,0.36
			c-0.15,0.1-0.3,0.17-0.48,0.21l0.72,2.51h-0.69l-0.64-2.43h-0.64l-0.42,2.43h-0.64l0.94-5.41h1.25c0.42,0,0.75,0.1,0.98,0.31
			C23.65,17.89,23.76,18.2,23.76,18.61z M23.12,18.69c0-0.27-0.07-0.46-0.22-0.58c-0.15-0.12-0.33-0.18-0.55-0.18h-0.62l-0.33,1.91
			h0.65c0.15,0,0.29-0.03,0.42-0.08c0.13-0.05,0.24-0.13,0.34-0.23c0.1-0.1,0.17-0.22,0.23-0.36
			C23.09,19.03,23.12,18.87,23.12,18.69z"/>
		<path class="st0" d="M26.31,22.79l-0.05-1.28h-1.6l-0.57,1.28h-0.67l2.43-5.41h0.86l0.27,5.41H26.31z M26.17,17.99h-0.03l-1.29,3
			h1.41L26.17,17.99z"/>
		<path class="st0" d="M27.62,23.78h-0.5l0.79-1.95h0.61L27.62,23.78z"/>
		<path class="st0" d="M33.88,18.34c-0.18-0.32-0.44-0.47-0.79-0.47c-0.27,0-0.51,0.1-0.72,0.29c-0.21,0.19-0.39,0.44-0.53,0.73
			c-0.15,0.3-0.26,0.62-0.33,0.97c-0.08,0.35-0.11,0.69-0.11,1.01c0,0.21,0.02,0.4,0.06,0.58c0.04,0.18,0.1,0.33,0.17,0.46
			c0.08,0.13,0.17,0.23,0.29,0.3c0.12,0.07,0.26,0.11,0.42,0.11c0.11,0,0.22-0.01,0.31-0.05c0.1-0.03,0.18-0.07,0.26-0.12
			c0.08-0.05,0.15-0.11,0.21-0.17c0.06-0.06,0.12-0.12,0.16-0.18l0.35,0.43c-0.18,0.21-0.39,0.38-0.62,0.5
			c-0.23,0.12-0.5,0.18-0.81,0.18c-0.24,0-0.46-0.05-0.65-0.15c-0.19-0.1-0.35-0.24-0.47-0.42c-0.13-0.18-0.22-0.39-0.29-0.64
			c-0.07-0.25-0.1-0.52-0.1-0.81c0-0.45,0.06-0.89,0.18-1.32c0.12-0.43,0.29-0.82,0.51-1.17c0.22-0.34,0.48-0.62,0.78-0.83
			c0.3-0.21,0.63-0.32,1-0.32c0.27,0,0.52,0.05,0.72,0.16c0.21,0.1,0.37,0.26,0.48,0.48L33.88,18.34z"/>
		<path class="st0" d="M38.1,19.27c0,0.44-0.05,0.87-0.16,1.31c-0.11,0.43-0.27,0.82-0.47,1.17c-0.2,0.35-0.45,0.63-0.74,0.85
			c-0.29,0.22-0.61,0.32-0.96,0.32c-0.24,0-0.46-0.05-0.65-0.15c-0.19-0.1-0.34-0.23-0.47-0.4c-0.13-0.17-0.23-0.38-0.29-0.62
			c-0.07-0.24-0.1-0.51-0.1-0.81c0-0.43,0.05-0.87,0.16-1.31c0.11-0.44,0.26-0.83,0.46-1.18c0.2-0.35,0.44-0.64,0.73-0.86
			c0.29-0.22,0.62-0.33,0.98-0.33c0.25,0,0.47,0.05,0.66,0.15c0.19,0.1,0.35,0.24,0.47,0.41c0.13,0.18,0.22,0.39,0.29,0.63
			C38.07,18.7,38.1,18.97,38.1,19.27z M37.39,19.36c0-0.18-0.01-0.37-0.03-0.55c-0.02-0.18-0.06-0.35-0.12-0.49
			c-0.06-0.14-0.15-0.26-0.26-0.35c-0.11-0.09-0.25-0.13-0.43-0.13c-0.17,0-0.33,0.05-0.47,0.15c-0.15,0.1-0.28,0.23-0.4,0.39
			c-0.12,0.16-0.22,0.35-0.31,0.56s-0.17,0.44-0.23,0.67c-0.06,0.23-0.11,0.47-0.14,0.7c-0.03,0.24-0.05,0.46-0.05,0.67
			c0,0.18,0.02,0.36,0.05,0.52c0.03,0.16,0.08,0.31,0.15,0.42c0.07,0.12,0.16,0.22,0.27,0.29c0.11,0.07,0.24,0.11,0.4,0.11
			c0.24,0,0.46-0.09,0.66-0.28c0.19-0.19,0.36-0.42,0.49-0.71c0.13-0.29,0.24-0.61,0.31-0.96C37.36,20.02,37.39,19.68,37.39,19.36z"
			/>
		<path class="st0" d="M42.15,22.79l0.79-4.48h-0.02l-1.99,4.48H40.3l-0.4-4.48h-0.02l-0.79,4.48h-0.6l0.96-5.41h0.96l0.39,4.29
			h0.03l1.9-4.29h1.03l-0.96,5.41H42.15z"/>
		<path class="st0" d="M47.42,18.63c0,0.29-0.04,0.55-0.12,0.77c-0.08,0.22-0.19,0.41-0.33,0.57c-0.14,0.16-0.31,0.27-0.51,0.36
			c-0.2,0.08-0.42,0.12-0.67,0.12h-0.75l-0.41,2.34h-0.65l0.94-5.41h1.25c0.18,0,0.34,0.03,0.5,0.08c0.15,0.05,0.28,0.13,0.39,0.23
			c0.11,0.1,0.2,0.23,0.26,0.39C47.38,18.23,47.42,18.42,47.42,18.63z M46.77,18.72c0-0.23-0.06-0.42-0.17-0.56
			c-0.11-0.14-0.29-0.21-0.53-0.21h-0.59l-0.34,1.96h0.63c0.31,0,0.55-0.11,0.73-0.32C46.69,19.38,46.77,19.09,46.77,18.72z"/>
		<path class="st0" d="M51.1,18.61c0,0.22-0.03,0.42-0.09,0.61c-0.06,0.19-0.14,0.35-0.25,0.49c-0.11,0.14-0.23,0.26-0.38,0.36
			c-0.15,0.1-0.3,0.17-0.48,0.21l0.72,2.51h-0.69l-0.64-2.43h-0.64l-0.42,2.43h-0.64l0.94-5.41h1.25c0.42,0,0.75,0.1,0.98,0.31
			C50.98,17.89,51.1,18.2,51.1,18.61z M50.46,18.69c0-0.27-0.07-0.46-0.22-0.58c-0.15-0.12-0.33-0.18-0.55-0.18h-0.62l-0.33,1.91
			h0.65c0.15,0,0.29-0.03,0.42-0.08c0.13-0.05,0.24-0.13,0.34-0.23c0.1-0.1,0.17-0.22,0.23-0.36
			C50.43,19.03,50.46,18.87,50.46,18.69z"/>
		<path class="st0" d="M53.64,22.79l-0.05-1.28h-1.6l-0.57,1.28h-0.67l2.43-5.41h0.86l0.27,5.41H53.64z M53.51,17.99h-0.03l-1.29,3
			h1.41L53.51,17.99z"/>
		<g>
			<path class="st0" d="M59.31,17.96h-1.57l-0.31,1.75h1.5l-0.1,0.54h-1.49l-0.34,1.96h1.7l-0.1,0.58h-2.33l0.94-5.41h2.2
				L59.31,17.96z"/>
			<path class="st0" d="M61.54,22.79h-0.66l0.94-5.41h0.66L61.54,22.79z"/>
			<path class="st0" d="M65.87,22.79H65.1l-1.02-4.26h-0.02l-0.73,4.26h-0.6l0.94-5.41h0.79l0.99,4.26h0.02l0.75-4.26h0.6
				L65.87,22.79z"/>
			<path class="st0" d="M69.85,18.21c-0.19-0.24-0.44-0.36-0.76-0.36c-0.11,0-0.22,0.02-0.33,0.07c-0.11,0.04-0.21,0.11-0.3,0.19
				c-0.09,0.08-0.16,0.19-0.22,0.32c-0.06,0.13-0.09,0.29-0.09,0.46c0,0.22,0.06,0.4,0.17,0.53c0.11,0.14,0.26,0.26,0.45,0.38
				c0.12,0.08,0.24,0.16,0.35,0.24c0.11,0.09,0.21,0.19,0.3,0.3c0.09,0.11,0.16,0.24,0.21,0.38c0.05,0.14,0.08,0.3,0.08,0.48
				c0,0.28-0.04,0.52-0.13,0.73c-0.08,0.21-0.2,0.39-0.35,0.54c-0.15,0.15-0.32,0.26-0.52,0.34c-0.2,0.08-0.42,0.11-0.65,0.11
				c-0.28,0-0.53-0.06-0.77-0.17c-0.24-0.11-0.42-0.26-0.55-0.44l0.44-0.47c0.1,0.15,0.23,0.26,0.38,0.35
				c0.15,0.08,0.32,0.13,0.5,0.13c0.13,0,0.25-0.02,0.37-0.06c0.12-0.04,0.22-0.11,0.31-0.19c0.09-0.08,0.16-0.18,0.22-0.31
				c0.05-0.12,0.08-0.26,0.08-0.43c0-0.22-0.06-0.41-0.17-0.57c-0.11-0.16-0.29-0.3-0.52-0.45c-0.11-0.07-0.22-0.14-0.32-0.23
				c-0.1-0.08-0.2-0.18-0.28-0.29c-0.08-0.11-0.15-0.23-0.2-0.37c-0.05-0.14-0.07-0.3-0.07-0.48c0-0.26,0.04-0.49,0.13-0.7
				c0.09-0.21,0.2-0.39,0.35-0.53c0.15-0.15,0.32-0.26,0.52-0.34c0.2-0.08,0.41-0.12,0.63-0.12c0.26,0,0.48,0.04,0.68,0.13
				c0.2,0.08,0.36,0.2,0.49,0.36L69.85,18.21z"/>
			<path class="st0" d="M73.24,17.95h-1.03l-0.85,4.84h-0.65l0.85-4.84h-1.04l0.1-0.57h2.72L73.24,17.95z"/>
			<path class="st0" d="M75.18,22.79l-0.05-1.28h-1.6l-0.57,1.28h-0.67l2.43-5.41h0.86l0.27,5.41H75.18z M75.04,17.99h-0.03l-1.29,3
				h1.41L75.04,17.99z"/>
			<path class="st0" d="M78.7,22.79h-2.19l0.94-5.41h0.66l-0.83,4.8h1.53L78.7,22.79z"/>
			<path class="st0" d="M81.68,22.79l-0.05-1.28h-1.6l-0.57,1.28h-0.67l2.43-5.41h0.86l0.27,5.41H81.68z M81.55,17.99h-0.03l-1.29,3
				h1.41L81.55,17.99z"/>
		</g>
	</g>
</g>
<g id="Capa_6">
</g>
<g id="Capa_5">
</g>
</svg>
