<?xml version="1.0" encoding="utf-8"?>
<!-- Generator: Adobe Illustrator 24.0.3, SVG Export Plug-In . SVG Version: 6.00 Build 0)  -->
<svg version="1.1" xmlns="http://www.w3.org/2000/svg" xmlns:xlink="http://www.w3.org/1999/xlink" x="0px" y="0px"
	 viewBox="0 0 119.82 33.79" style="enable-background:new 0 0 119.82 33.79;" xml:space="preserve">
<style type="text/css">
	.st0{fill:#FFFFFF;}
	.st1{fill:url(#SVGID_1_);}
	.st2{fill:#E7004C;}
	.st3{fill:none;stroke:#00B2E3;stroke-miterlimit:10;}
	.st4{fill:url(#SVGID_2_);}
	.st5{fill:#FCFCFC;}
	.st6{fill:url(#SVGID_3_);}
	.st7{fill:url(#SVGID_4_);}
	.st8{opacity:0.8;fill:#E7004C;}
	.st9{opacity:0.7;fill:#E7004C;}
	.st10{opacity:0.7;}
	.st11{fill:#00B2E3;}
	.st12{opacity:0.8;fill:#00B2E3;}
	.st13{opacity:0.7;fill:#00B2E3;}
	.st14{fill:#BBBBBB;}
	.st15{opacity:0.8;fill:#BBBBBB;}
	.st16{opacity:0.7;fill:#BBBBBB;}
	.st17{fill:url(#SVGID_5_);}
	.st18{fill:url(#SVGID_6_);}
	.st19{fill:none;stroke:#E7004C;stroke-width:2;stroke-miterlimit:10;}
	.st20{fill:url(#SVGID_7_);}
	.st21{fill:url(#SVGID_8_);}
	.st22{fill:url(#SVGID_9_);}
	.st23{fill:none;stroke:#FFFFFF;stroke-miterlimit:10;}
	.st24{fill:none;stroke:#E7004C;stroke-miterlimit:10;}
	.st25{fill-rule:evenodd;clip-rule:evenodd;fill:#E7004C;}
	.st26{fill:none;stroke:#000000;stroke-miterlimit:10;}
	.st27{fill:#38A8E0;}
	.st28{clip-path:url(#SVGID_11_);fill:#00B2E3;}
	.st29{fill:none;stroke:#E7004C;stroke-width:3;stroke-miterlimit:10;}
	.st30{clip-path:url(#SVGID_13_);}
	.st31{fill:none;stroke:#FFFFFF;stroke-width:2;stroke-miterlimit:10;}
	.st32{fill:none;stroke:#FFFFFF;stroke-width:3;stroke-miterlimit:10;}
	.st33{clip-path:url(#SVGID_15_);}
	.st34{fill:url(#SVGID_16_);}
	.st35{fill:none;stroke:#FFFFFF;stroke-width:0.5;stroke-miterlimit:10;}
	.st36{clip-path:url(#SVGID_18_);fill:#00B2E3;}
	.st37{clip-path:url(#SVGID_20_);}
	.st38{clip-path:url(#SVGID_22_);}
	.st39{fill:url(#SVGID_23_);}
	.st40{clip-path:url(#SVGID_25_);}
	.st41{fill:url(#SVGID_26_);}
	.st42{fill:url(#SVGID_27_);}
	.st43{fill:url(#SVGID_28_);}
	.st44{fill:url(#SVGID_29_);}
	.st45{clip-path:url(#SVGID_31_);fill:#00B2E3;}
	.st46{clip-path:url(#SVGID_33_);}
	.st47{clip-path:url(#SVGID_35_);}
	.st48{fill:url(#SVGID_36_);}
	.st49{clip-path:url(#SVGID_38_);}
	.st50{clip-path:url(#SVGID_40_);}
	.st51{fill:#280210;}
	.st52{opacity:0.5;}
	.st53{opacity:0.6;}
	.st54{fill:url(#SVGID_41_);}
	.st55{fill:url(#SVGID_42_);}
	.st56{fill:url(#SVGID_43_);}
	.st57{fill:url(#SVGID_44_);}
	.st58{opacity:0.8;}
	.st59{opacity:0.9;}
	.st60{fill:url(#SVGID_45_);}
	.st61{clip-path:url(#SVGID_47_);}
	.st62{clip-path:url(#SVGID_49_);}
	.st63{fill:url(#SVGID_50_);}
	.st64{clip-path:url(#SVGID_52_);}
	.st65{fill:url(#SVGID_53_);}
	.st66{clip-path:url(#SVGID_55_);}
	.st67{fill:url(#SVGID_56_);}
	.st68{clip-path:url(#SVGID_58_);}
	.st69{clip-path:url(#SVGID_60_);fill:#00B2E3;}
	.st70{clip-path:url(#SVGID_62_);}
	.st71{clip-path:url(#SVGID_64_);}
	.st72{fill:none;stroke:#FFFFFF;stroke-width:5;stroke-miterlimit:10;}
	.st73{clip-path:url(#SVGID_66_);fill:#00B2E3;}
	.st74{clip-path:url(#SVGID_68_);}
	.st75{clip-path:url(#SVGID_70_);}
	.st76{clip-path:url(#SVGID_72_);fill:#00B2E3;}
	.st77{clip-path:url(#SVGID_74_);}
	.st78{fill:#5B0323;}
	.st79{fill:url(#SVGID_75_);}
	.st80{fill:url(#SVGID_76_);}
	.st81{fill:url(#SVGID_77_);}
	.st82{clip-path:url(#SVGID_80_);fill:#00B2E3;}
	.st83{clip-path:url(#SVGID_84_);}
	.st84{clip-path:url(#SVGID_86_);}
	.st85{fill-rule:evenodd;clip-rule:evenodd;fill:#FFFFFF;}
	.st86{fill:#E5E5E5;}
	.st87{clip-path:url(#SVGID_88_);}
	.st88{fill-rule:evenodd;clip-rule:evenodd;fill:none;stroke:#E7004C;stroke-width:3;stroke-miterlimit:10;}
	.st89{fill:#070101;}
	.st90{fill:none;stroke:#068FFF;stroke-width:5;stroke-miterlimit:10;}
</style>
<g id="Capa_2">
</g>
<g id="Capa_1">
</g>
<g id="Capa_3">
</g>
<g id="Capa_4">
	<g id="wdnBin.tif_1_">
		<g>
			<path class="st0" d="M16.36,24.03c-1.07,0.94-1.97,1.81-2.95,2.58c-3.37,2.63-7.7,2.77-10.72,0.54
				c-3.53-2.61-4.08-10.93,1.4-13.2c3.2-1.32,6.52-1.65,9.92-1.65c2.16-0.01,2.51-0.5,1.82-2.52c-0.68-2.02-2.19-3.21-4.48-3
				c-1.74,0.16-3.5,0.7-5.12,1.39C4.32,8.99,3.49,9.09,2.59,7.92C1.3,6.27,1.21,4.06,2.48,2.88c0.61-0.56,1.34-1.04,2.1-1.37
				c4.08-1.75,8.28-1.97,12.54-0.74c4.73,1.37,7.71,5.27,7.8,10.32c0.09,4.57,0,9.15,0.03,13.72c0.01,1.55-0.75,2.46-2.14,2.95
				C19.63,28.91,17.54,27.75,16.36,24.03z M13.84,16.15c-1.31,0.46-2.71,0.75-3.89,1.43c-1.18,0.68-1.38,1.96-0.74,3.18
				c0.62,1.2,1.86,1.65,2.93,1.06c1.27-0.69,2.56-1.67,3.35-2.85C16.74,17.12,16.19,16.41,13.84,16.15z"/>
			<path class="st0" d="M119.78,21.79c0.47,4.29-3.36,6.62-6.21,6.63c-3.57,0.02-6.19-2.84-6.19-6.72c0-4.01,2.43-6.59,6.2-6.59
				C117.51,15.11,119.79,17.57,119.78,21.79z M111.47,21.76C111.47,21.76,111.47,21.76,111.47,21.76c-0.01,0.31-0.02,0.63,0,0.94
				c0.07,1.27,0.7,2.09,2,2.2c1.26,0.11,2.04-0.66,2.27-1.75c0.2-0.95,0.32-2.1-0.05-2.92c-0.34-0.75-1.34-1.55-2.14-1.66
				c-1.09-0.14-1.93,0.71-2.07,1.93C111.43,20.91,111.47,21.34,111.47,21.76z"/>
			<path class="st0" d="M87.25,26.5c-1.2,0.65-2.19,1.38-3.31,1.75c-1.77,0.58-3.54-0.39-4.09-2.02c-0.68-2.02-0.03-3.97,1.8-4.63
				c1.31-0.47,2.77-0.52,4.16-0.79c0.43-0.08,1.17-0.26,1.18-0.44c0.04-0.52-0.06-1.2-0.39-1.57c-1.05-1.17-2.38-0.85-3.65-0.38
				c-0.85,0.31-1.72,1.14-2.36-0.26c-0.51-1.12-0.1-1.95,1.36-2.51c2.04-0.79,4.13-0.82,6.17-0.03c2.21,0.85,2.99,2.69,3.07,4.88
				c0.07,1.83-0.01,3.67,0.03,5.51c0.02,1-0.23,1.78-1.31,2.03c-1.02,0.23-1.88,0.02-2.37-1.03C87.46,26.82,87.34,26.65,87.25,26.5z
				 M87.16,23.19c-0.25-0.18-0.59-0.62-0.87-0.59c-1.05,0.1-2.38,0-2.55,1.45c-0.04,0.38,0.72,1.18,1.16,1.22
				C86.08,25.36,86.78,24.57,87.16,23.19z"/>
			<path class="st0" d="M97.52,16.63c3.9-2.84,7.57-1.29,8.09,3.41c0.24,2.13,0.1,4.3,0.08,6.46c-0.01,1.24-0.91,1.61-1.94,1.61
				c-1.08,0-2.02-0.35-2.04-1.68c-0.02-1.73,0.01-3.47-0.02-5.2c-0.03-1.62-0.98-2.77-2.21-2.75c-1.24,0.02-2.05,1-2.1,2.67
				c-0.05,1.68-0.06,3.37-0.01,5.05c0.04,1.4-0.76,1.91-1.96,1.91c-1.2,0.01-2-0.53-1.99-1.9c0.02-2.89,0.01-5.78,0-8.68
				c0-0.92-0.02-1.84,1.11-2.17c1.08-0.32,1.98-0.14,2.58,0.92C97.2,16.4,97.35,16.48,97.52,16.63z"/>
			<path class="st0" d="M48.98,19.98c0-1,0.03-2-0.01-2.99c-0.06-1.36,0.84-1.76,1.92-1.76c1.06,0,2,0.38,2.01,1.71
				c0.01,1.68,0,3.36,0.01,5.04c0.02,1.83,0.81,2.89,2.16,2.93c1.46,0.04,2.23-0.95,2.25-2.96c0.02-1.63,0.03-3.26,0.01-4.88
				c-0.02-1.41,0.89-1.84,2.04-1.85c1.18-0.01,2.03,0.46,2.01,1.87c-0.04,1.78,0.03,3.57-0.01,5.35c-0.08,3.38-2.86,6.01-6.28,5.98
				c-3.42-0.03-6.08-2.68-6.1-6.08C48.97,21.56,48.98,20.77,48.98,19.98z"/>
			<path class="st0" d="M39.3,17.54c0-1.94,0.02-3.88-0.01-5.82C39.27,10.3,40,9.74,41.34,9.75c1.35,0.02,2.09,0.59,1.97,2.02
				c-0.02,0.26,0,0.52,0,0.79c0.01,2.49,0.01,2.52,2.5,2.6c1.09,0.04,1.68,0.42,1.7,1.57c0.02,1.25-0.74,1.47-1.76,1.45
				c-2.49-0.05-2.44-0.18-2.44,2.54c0,0.47,0,0.94,0,1.42c0.01,2.29,0.01,2.3,2.27,2.52c1.15,0.11,1.94,0.63,1.89,1.86
				c-0.05,1.15-0.83,1.66-1.92,1.62c-1.05-0.04-2.11-0.08-3.13-0.3c-1.71-0.37-2.87-1.44-2.95-3.23c-0.11-2.35-0.03-4.71-0.03-7.07
				C39.39,17.54,39.34,17.54,39.3,17.54z"/>
			<path class="st0" d="M32.89,14.95c1.02,0.23,2.06,0.39,3.05,0.71c0.85,0.27,1.54,0.79,1.14,1.88c-0.38,1.04-1.06,1.3-2.13,0.97
				c-0.84-0.25-1.75-0.4-2.63-0.39c-0.41,0.01-0.82,0.5-1.23,0.78c0.32,0.35,0.58,0.87,0.98,1.03c0.92,0.38,1.92,0.57,2.87,0.87
				c1.57,0.49,2.48,1.55,2.62,3.21c0.13,1.66-0.73,3.13-2.28,3.8c-2.33,1.02-4.65,0.8-6.88-0.32c-0.94-0.47-1.48-1.22-0.92-2.33
				c0.53-1.06,1.26-0.67,2.13-0.42c1.13,0.33,2.35,0.41,3.53,0.47c0.29,0.02,0.86-0.47,0.85-0.71c-0.01-0.38-0.32-0.92-0.66-1.07
				c-0.81-0.37-1.69-0.56-2.55-0.81c-2.4-0.71-3.38-1.93-3.14-3.86c0.27-2.14,1.81-3.51,4.1-3.64c0.37-0.02,0.74,0,1.11,0
				C32.86,15.06,32.87,15,32.89,14.95z"/>
			<path class="st0" d="M67.32,16.65c1.46-0.55,2.73-1.18,4.08-1.45c0.38-0.08,1.24,0.83,1.41,1.42c0.26,0.88-0.21,1.59-1.28,1.78
				c-2.99,0.51-4,1.73-4.04,4.77c-0.01,1.05-0.02,2.1,0,3.15c0.03,1.44-0.95,1.79-2.08,1.78c-1.12-0.01-1.88-0.47-1.86-1.81
				c0.05-2.84,0.02-5.67,0.01-8.51c0-1.1-0.21-2.28,1.4-2.52C66.37,15.06,67.19,15.61,67.32,16.65z"/>
			<path class="st0" d="M77.97,21.51c0,1.58-0.05,3.15,0.02,4.73c0.06,1.32-0.67,1.84-1.81,1.86c-1.14,0.03-2.12-0.32-2.12-1.75
				c0-3.15,0-6.3,0-9.45c0-1.37,0.92-1.68,2-1.67c1.08,0.01,1.98,0.31,1.92,1.71C77.93,18.47,77.97,19.99,77.97,21.51z"/>
			<path class="st0" d="M76.45,12.54c-1.41-0.41-2.42-0.69-2.42-1.98c0-1.17,0.91-1.64,1.92-1.68c1.11-0.05,2.14,0.52,2.01,1.68
				C77.89,11.27,76.98,11.88,76.45,12.54z"/>
		</g>
	</g>
</g>
<g id="Capa_6">
</g>
<g id="Capa_5">
</g>
</svg>
