<?xml version="1.0" encoding="utf-8"?>
<!-- Generator: Adobe Illustrator 24.0.3, SVG Export Plug-In . SVG Version: 6.00 Build 0)  -->
<svg version="1.1" xmlns="http://www.w3.org/2000/svg" xmlns:xlink="http://www.w3.org/1999/xlink" x="0px" y="0px"
	 viewBox="0 0 74.95 43.13" style="enable-background:new 0 0 74.95 43.13;" xml:space="preserve">
<style type="text/css">
	.st0{fill:#FFFFFF;}
	.st1{fill:url(#SVGID_1_);}
	.st2{fill:#E7004C;}
	.st3{fill:none;stroke:#00B2E3;stroke-miterlimit:10;}
	.st4{fill:url(#SVGID_2_);}
	.st5{fill:#FCFCFC;}
	.st6{fill:url(#SVGID_3_);}
	.st7{fill:url(#SVGID_4_);}
	.st8{opacity:0.8;fill:#E7004C;}
	.st9{opacity:0.7;fill:#E7004C;}
	.st10{opacity:0.7;}
	.st11{fill:#00B2E3;}
	.st12{opacity:0.8;fill:#00B2E3;}
	.st13{opacity:0.7;fill:#00B2E3;}
	.st14{fill:#BBBBBB;}
	.st15{opacity:0.8;fill:#BBBBBB;}
	.st16{opacity:0.7;fill:#BBBBBB;}
	.st17{fill:url(#SVGID_5_);}
	.st18{fill:url(#SVGID_6_);}
	.st19{fill:none;stroke:#E7004C;stroke-width:2;stroke-miterlimit:10;}
	.st20{fill:url(#SVGID_7_);}
	.st21{fill:url(#SVGID_8_);}
	.st22{fill:url(#SVGID_9_);}
	.st23{fill:none;stroke:#FFFFFF;stroke-miterlimit:10;}
	.st24{fill:none;stroke:#E7004C;stroke-miterlimit:10;}
	.st25{fill-rule:evenodd;clip-rule:evenodd;fill:#E7004C;}
	.st26{fill:none;stroke:#000000;stroke-miterlimit:10;}
	.st27{fill:#38A8E0;}
	.st28{clip-path:url(#SVGID_11_);fill:#00B2E3;}
	.st29{fill:none;stroke:#E7004C;stroke-width:3;stroke-miterlimit:10;}
	.st30{clip-path:url(#SVGID_13_);}
	.st31{fill:none;stroke:#FFFFFF;stroke-width:2;stroke-miterlimit:10;}
	.st32{fill:none;stroke:#FFFFFF;stroke-width:3;stroke-miterlimit:10;}
	.st33{clip-path:url(#SVGID_15_);}
	.st34{fill:url(#SVGID_16_);}
	.st35{fill:none;stroke:#FFFFFF;stroke-width:0.5;stroke-miterlimit:10;}
	.st36{clip-path:url(#SVGID_18_);fill:#00B2E3;}
	.st37{clip-path:url(#SVGID_20_);}
	.st38{clip-path:url(#SVGID_22_);}
	.st39{fill:url(#SVGID_23_);}
	.st40{clip-path:url(#SVGID_25_);}
	.st41{fill:url(#SVGID_26_);}
	.st42{fill:url(#SVGID_27_);}
	.st43{fill:url(#SVGID_28_);}
	.st44{fill:url(#SVGID_29_);}
	.st45{clip-path:url(#SVGID_31_);fill:#00B2E3;}
	.st46{clip-path:url(#SVGID_33_);}
	.st47{clip-path:url(#SVGID_35_);}
	.st48{fill:url(#SVGID_36_);}
	.st49{clip-path:url(#SVGID_38_);}
	.st50{clip-path:url(#SVGID_40_);}
	.st51{fill:#280210;}
	.st52{opacity:0.5;}
	.st53{opacity:0.6;}
	.st54{fill:url(#SVGID_41_);}
	.st55{fill:url(#SVGID_42_);}
	.st56{fill:url(#SVGID_43_);}
	.st57{fill:url(#SVGID_44_);}
	.st58{opacity:0.8;}
	.st59{opacity:0.9;}
	.st60{fill:url(#SVGID_45_);}
	.st61{clip-path:url(#SVGID_47_);}
	.st62{clip-path:url(#SVGID_49_);}
	.st63{fill:url(#SVGID_50_);}
	.st64{clip-path:url(#SVGID_52_);}
	.st65{fill:url(#SVGID_53_);}
	.st66{clip-path:url(#SVGID_55_);}
	.st67{fill:url(#SVGID_56_);}
	.st68{clip-path:url(#SVGID_58_);}
	.st69{clip-path:url(#SVGID_60_);fill:#00B2E3;}
	.st70{clip-path:url(#SVGID_62_);}
	.st71{clip-path:url(#SVGID_64_);}
	.st72{fill:none;stroke:#FFFFFF;stroke-width:5;stroke-miterlimit:10;}
	.st73{clip-path:url(#SVGID_66_);fill:#00B2E3;}
	.st74{clip-path:url(#SVGID_68_);}
	.st75{clip-path:url(#SVGID_70_);}
	.st76{clip-path:url(#SVGID_72_);fill:#00B2E3;}
	.st77{clip-path:url(#SVGID_74_);}
	.st78{fill:#5B0323;}
	.st79{fill:url(#SVGID_75_);}
	.st80{fill:url(#SVGID_76_);}
	.st81{fill:url(#SVGID_77_);}
	.st82{clip-path:url(#SVGID_80_);fill:#00B2E3;}
	.st83{clip-path:url(#SVGID_84_);}
	.st84{clip-path:url(#SVGID_86_);}
	.st85{fill-rule:evenodd;clip-rule:evenodd;fill:#FFFFFF;}
	.st86{fill:#E5E5E5;}
	.st87{clip-path:url(#SVGID_88_);}
	.st88{fill-rule:evenodd;clip-rule:evenodd;fill:none;stroke:#E7004C;stroke-width:3;stroke-miterlimit:10;}
	.st89{fill:#070101;}
	.st90{fill:none;stroke:#068FFF;stroke-width:5;stroke-miterlimit:10;}
</style>
<g id="Capa_2">
</g>
<g id="Capa_1">
</g>
<g id="Capa_3">
</g>
<g id="Capa_4">
	<g id="lAOcfj.tif_1_">
		<g>
			<path class="st0" d="M37.77,26.96c-2.2-0.03-4.38-0.16-6.56-0.45c-3.29-0.44-6.51-1.19-9.6-2.43c-2.25-0.9-4.37-2.02-6.24-3.58
				c-1.35-1.12-2.48-2.41-3.21-4.02c-0.5-1.11-0.73-2.28-0.65-3.5c0.1-1.4,0.59-2.67,1.36-3.84c0.97-1.46,2.24-2.62,3.67-3.62
				c2.02-1.41,4.23-2.43,6.55-3.23c2.27-0.79,4.59-1.36,6.97-1.7c1.48-0.21,2.97-0.37,4.47-0.48c1.35-0.1,2.7-0.13,4.05-0.11
				c1.86,0.02,3.71,0.15,5.55,0.39c1.99,0.26,3.95,0.63,5.89,1.15c2.82,0.77,5.53,1.81,8.03,3.36c1.5,0.93,2.86,2.02,3.98,3.39
				c1.01,1.25,1.73,2.63,1.94,4.24c0.2,1.55-0.1,3.01-0.82,4.39c-0.7,1.35-1.69,2.47-2.84,3.45c-1.96,1.67-4.2,2.85-6.58,3.78
				c-2.72,1.07-5.53,1.76-8.41,2.21c-1.66,0.25-3.33,0.43-5.01,0.5C39.46,26.9,38.61,26.93,37.77,26.96z M61.9,13.43
				c0.01-1.23-0.41-2.34-1.1-3.37c-0.78-1.16-1.8-2.09-2.94-2.88c-0.35-0.24-0.71-0.48-1.08-0.68c-0.37-0.19-0.63-0.09-0.82,0.27
				c-0.1,0.18-0.19,0.38-0.27,0.57c-1.2,2.78-2.51,5.5-3.99,8.14c-1.39,2.48-2.91,4.88-4.71,7.1c-0.21,0.26-0.43,0.5-0.61,0.77
				c-0.07,0.11-0.11,0.3-0.06,0.4c0.05,0.1,0.23,0.15,0.37,0.17c0.14,0.02,0.3,0.01,0.44-0.02c1.29-0.31,2.59-0.59,3.86-0.96
				c2.37-0.7,4.62-1.66,6.67-3.06c1.36-0.93,2.57-2.01,3.41-3.46C61.61,15.5,61.92,14.52,61.9,13.43z M28.71,2.99
				C28.6,3,28.48,3,28.36,3.02c-1.42,0.26-2.81,0.63-4.18,1.06c-2,0.64-3.93,1.44-5.71,2.56c-1.49,0.93-2.84,2.01-3.8,3.5
				c-1.33,2.06-1.43,4.17-0.2,6.3c0.73,1.27,1.77,2.25,2.94,3.11c0.43,0.32,0.89,0.61,1.36,0.87c0.34,0.19,0.6,0.07,0.79-0.27
				c0.08-0.15,0.16-0.31,0.23-0.47c0.95-2.2,1.97-4.38,3.09-6.5c1.23-2.34,2.56-4.63,4.11-6.79c0.65-0.91,1.37-1.78,2.05-2.67
				c0.12-0.16,0.29-0.33,0.19-0.57C29.12,2.95,28.9,3,28.71,2.99z M37.15,24.8c0.27,0,0.53,0,0.8,0c0.57,0,1.13-0.1,1.66-0.32
				c0.97-0.41,1.61-1.17,2.13-2.05c0.6-1.04,1.05-2.15,1.43-3.29c0.21-0.63,0.33-1.27,0.3-1.94c-0.04-0.86-0.42-1.5-1.22-1.85
				c-0.62-0.27-1.27-0.3-1.94-0.26c-1.02,0.07-2,0.33-2.98,0.61c-1.75,0.49-3.44,1.13-5.12,1.81c-2.55,1.02-5.01,2.21-7.24,3.83
				c-0.28,0.21-0.56,0.43-0.81,0.66c-0.33,0.3-0.27,0.64,0.13,0.83c0.13,0.06,0.27,0.11,0.41,0.16c2.37,0.72,4.79,1.19,7.25,1.47
				C33.67,24.67,35.41,24.77,37.15,24.8z M34.88,11.86c0.57-0.08,1.1-0.12,1.62-0.22c1.48-0.3,2.91-0.75,4.32-1.26
				c2.6-0.94,5.17-1.97,7.57-3.36c1.03-0.6,2.04-1.23,2.94-2.01c0.51-0.44,0.45-0.81-0.2-1c-1.06-0.31-2.13-0.6-3.2-0.85
				c-1.63-0.38-3.28-0.62-4.95-0.79c-0.9-0.09-1.8-0.14-2.7-0.19C39.7,2.13,39.11,2.1,38.52,2.1c-0.49-0.01-0.98-0.01-1.47,0.05
				c-1.36,0.15-2.3,0.94-3.02,2.05c-0.66,1.04-1.1,2.18-1.52,3.33c-0.25,0.69-0.4,1.4-0.38,2.14c0.02,0.94,0.55,1.7,1.46,1.96
				C34.02,11.75,34.47,11.79,34.88,11.86z"/>
			<path class="st0" d="M62.68,39.83c0,1.1,0,2.19,0,3.3c-0.84,0-1.67,0-2.52,0c0-0.07,0-0.15,0-0.22c0-2.81,0-5.62,0-8.43
				c0-1.21,0.85-2.08,2.06-2.09c2.51-0.01,5.02,0,7.53,0c0.05,0,0.1,0.01,0.15,0.01c0,3.58,0,7.15,0,10.73c-0.84,0-1.67,0-2.54,0
				c0-0.09,0-0.17,0-0.25c0-0.95,0-1.91,0-2.86c0-0.12,0-0.21-0.17-0.21c-1.46,0.01-2.93,0-4.39,0
				C62.77,39.82,62.74,39.82,62.68,39.83z M67.35,34.71c-0.1,0-0.18,0-0.25,0c-1.26,0-2.52,0-3.78,0c-0.41,0-0.63,0.22-0.63,0.63
				c0,0.65,0,1.3,0,1.95c0,0.17,0.05,0.21,0.22,0.21c1.41-0.01,2.83,0,4.24,0c0.07,0,0.14-0.01,0.22-0.01
				C67.35,36.57,67.35,35.65,67.35,34.71z"/>
			<path class="st0" d="M48.1,43.14c0-0.14,0-0.25,0-0.37c0-3.36,0-6.73,0-10.09c0-0.28,0-0.28,0.29-0.28c2.43,0,4.86,0,7.3,0
				c0.82,0,1.53,0.28,1.91,1.06c0.15,0.29,0.24,0.64,0.24,0.96c0.02,2.24,0.02,4.47,0.01,6.71c-0.01,1.2-0.84,2.02-2.06,2.03
				c-2.51,0.01-5.02,0-7.53,0C48.22,43.15,48.17,43.14,48.1,43.14z M50.66,40.85c0.1,0,0.19,0,0.27,0c1.23,0,2.45,0,3.68,0
				c0.52,0,0.72-0.2,0.72-0.73c0-0.97,0-1.95,0-2.92c0-0.61,0-1.22,0-1.83c0-0.46-0.2-0.65-0.65-0.65c-1.25,0-2.51,0-3.76,0
				c-0.08,0-0.16,0-0.25,0C50.66,36.77,50.66,38.79,50.66,40.85z"/>
			<path class="st0" d="M7.78,32.4c0.85,0,1.68,0,2.52,0c0,3.58,0,7.15,0,10.73c-0.83,0-1.66,0-2.51,0c0-1.43,0-2.85,0-4.29
				c-1.57,0-3.11,0-4.69,0c0,1.42,0,2.85,0,4.3c-0.86,0-1.69,0-2.53,0c0-3.58,0-7.14,0-10.73c0.06,0,0.13-0.01,0.2-0.01
				c0.7,0,1.4,0,2.1,0c0.18,0,0.24,0.04,0.24,0.23c-0.01,1.24,0,2.48,0,3.72c0,0.04,0,0.08,0,0.15c0.08,0,0.16,0.01,0.23,0.01
				c1.4,0,2.8,0,4.21,0c0.19,0,0.25-0.05,0.25-0.25c-0.01-1.21-0.01-2.41-0.01-3.62C7.78,32.57,7.78,32.49,7.78,32.4z"/>
			<path class="st0" d="M38.49,43.14c-0.86,0-1.68,0-2.52,0c0-3.58,0-7.15,0-10.75c0.08,0,0.16,0,0.23,0c2.45,0,4.91,0,7.36,0
				c1.26,0,2.13,0.82,2.13,2.08c0.02,2.84,0.01,5.68,0.01,8.51c0,0.05-0.01,0.1-0.02,0.15c-0.84,0-1.67,0-2.52,0c0-0.11,0-0.2,0-0.3
				c0-2.52,0-5.03,0-7.55c0-0.35-0.2-0.57-0.53-0.57c-1.33,0-2.66,0-3.99,0c-0.04,0-0.08,0.01-0.15,0.01
				C38.49,37.53,38.49,40.32,38.49,43.14z"/>
			<path class="st0" d="M31.01,32.39c0.24,0,0.46,0,0.67,0c0.55,0,1.09,0,1.64,0c0.16,0,0.22,0.04,0.22,0.21
				c0,2.82,0.01,5.65-0.01,8.47c-0.01,1.28-0.86,2.08-2.16,2.08c-2.38,0-4.77,0-7.15,0c-0.13,0-0.26,0-0.41,0c0-3.59,0-7.16,0-10.74
				c0.84,0,1.66,0,2.52,0c0,0.09,0,0.17,0,0.24c0,2.65,0,5.3,0,7.95c0,0.2,0.05,0.26,0.25,0.26c1.26-0.01,2.52,0,3.78,0
				c0.44,0,0.64-0.21,0.64-0.65c0-2.51,0-5.02,0-7.53C31.01,32.59,31.01,32.51,31.01,32.39z"/>
			<path class="st0" d="M17.05,36.65c0.05-0.07,0.09-0.12,0.12-0.17c0.8-1.28,1.61-2.56,2.41-3.84c0.11-0.18,0.23-0.26,0.45-0.25
				c0.81,0.02,1.63,0.01,2.44,0.01c0.07,0,0.15,0,0.27,0c-0.28,0.45-0.54,0.86-0.8,1.27c-1.18,1.88-2.36,3.76-3.54,5.64
				c-0.06,0.09-0.08,0.22-0.09,0.34c-0.01,1.09-0.01,2.17,0,3.26c0,0.2-0.05,0.26-0.26,0.26c-0.67-0.01-1.35-0.01-2.02-0.01
				c-0.08,0-0.15,0-0.26,0c0-0.1,0-0.18,0-0.26c0-1.07,0-2.14-0.01-3.22c0-0.14-0.05-0.31-0.12-0.43c-1.36-2.19-2.73-4.37-4.1-6.55
				c-0.05-0.09-0.1-0.18-0.17-0.29c0.09-0.01,0.15-0.02,0.21-0.02c0.85,0,1.7,0,2.54,0c0.17,0,0.26,0.06,0.35,0.2
				c0.81,1.3,1.63,2.6,2.44,3.9C16.96,36.53,16.99,36.57,17.05,36.65z"/>
			<path class="st0" d="M74.95,43.13c-0.85,0-1.68,0-2.53,0c0-0.09,0-0.17,0-0.24c0-3.43,0-6.86,0-10.28c0-0.17,0.04-0.23,0.22-0.23
				c0.7,0.01,1.4,0,2.1,0c0.07,0,0.14,0.01,0.21,0.01C74.95,35.98,74.95,39.55,74.95,43.13z"/>
		</g>
	</g>
</g>
<g id="Capa_6">
</g>
<g id="Capa_5">
</g>
</svg>
