<?xml version="1.0" encoding="utf-8"?>
<!-- Generator: Adobe Illustrator 24.0.3, SVG Export Plug-In . SVG Version: 6.00 Build 0)  -->
<svg version="1.1" xmlns="http://www.w3.org/2000/svg" xmlns:xlink="http://www.w3.org/1999/xlink" x="0px" y="0px"
	 viewBox="0 0 72.52 44.6" style="enable-background:new 0 0 72.52 44.6;" xml:space="preserve">
<style type="text/css">
	.st0{fill:#FFFFFF;}
	.st1{fill:url(#SVGID_1_);}
	.st2{fill:#E7004C;}
	.st3{fill:none;stroke:#00B2E3;stroke-miterlimit:10;}
	.st4{fill:url(#SVGID_2_);}
	.st5{fill:#FCFCFC;}
	.st6{fill:url(#SVGID_3_);}
	.st7{fill:url(#SVGID_4_);}
	.st8{opacity:0.8;fill:#E7004C;}
	.st9{opacity:0.7;fill:#E7004C;}
	.st10{opacity:0.7;}
	.st11{fill:#00B2E3;}
	.st12{opacity:0.8;fill:#00B2E3;}
	.st13{opacity:0.7;fill:#00B2E3;}
	.st14{fill:#BBBBBB;}
	.st15{opacity:0.8;fill:#BBBBBB;}
	.st16{opacity:0.7;fill:#BBBBBB;}
	.st17{fill:url(#SVGID_5_);}
	.st18{fill:url(#SVGID_6_);}
	.st19{fill:none;stroke:#E7004C;stroke-width:2;stroke-miterlimit:10;}
	.st20{fill:url(#SVGID_7_);}
	.st21{fill:url(#SVGID_8_);}
	.st22{fill:url(#SVGID_9_);}
	.st23{fill:none;stroke:#FFFFFF;stroke-miterlimit:10;}
	.st24{fill:none;stroke:#E7004C;stroke-miterlimit:10;}
	.st25{fill-rule:evenodd;clip-rule:evenodd;fill:#E7004C;}
	.st26{fill:none;stroke:#000000;stroke-miterlimit:10;}
	.st27{fill:#38A8E0;}
	.st28{clip-path:url(#SVGID_11_);fill:#00B2E3;}
	.st29{fill:none;stroke:#E7004C;stroke-width:3;stroke-miterlimit:10;}
	.st30{clip-path:url(#SVGID_13_);}
	.st31{fill:none;stroke:#FFFFFF;stroke-width:2;stroke-miterlimit:10;}
	.st32{fill:none;stroke:#FFFFFF;stroke-width:3;stroke-miterlimit:10;}
	.st33{clip-path:url(#SVGID_15_);}
	.st34{fill:url(#SVGID_16_);}
	.st35{fill:none;stroke:#FFFFFF;stroke-width:0.5;stroke-miterlimit:10;}
	.st36{clip-path:url(#SVGID_18_);fill:#00B2E3;}
	.st37{clip-path:url(#SVGID_20_);}
	.st38{clip-path:url(#SVGID_22_);}
	.st39{fill:url(#SVGID_23_);}
	.st40{clip-path:url(#SVGID_25_);}
	.st41{fill:url(#SVGID_26_);}
	.st42{fill:url(#SVGID_27_);}
	.st43{fill:url(#SVGID_28_);}
	.st44{fill:url(#SVGID_29_);}
	.st45{clip-path:url(#SVGID_31_);fill:#00B2E3;}
	.st46{clip-path:url(#SVGID_33_);}
	.st47{clip-path:url(#SVGID_35_);}
	.st48{fill:url(#SVGID_36_);}
	.st49{clip-path:url(#SVGID_38_);}
	.st50{clip-path:url(#SVGID_40_);}
	.st51{fill:#280210;}
	.st52{opacity:0.5;}
	.st53{opacity:0.6;}
	.st54{fill:url(#SVGID_41_);}
	.st55{fill:url(#SVGID_42_);}
	.st56{fill:url(#SVGID_43_);}
	.st57{fill:url(#SVGID_44_);}
	.st58{opacity:0.8;}
	.st59{opacity:0.9;}
	.st60{fill:url(#SVGID_45_);}
	.st61{clip-path:url(#SVGID_47_);}
	.st62{clip-path:url(#SVGID_49_);}
	.st63{fill:url(#SVGID_50_);}
	.st64{clip-path:url(#SVGID_52_);}
	.st65{fill:url(#SVGID_53_);}
	.st66{clip-path:url(#SVGID_55_);}
	.st67{fill:url(#SVGID_56_);}
	.st68{clip-path:url(#SVGID_58_);}
	.st69{clip-path:url(#SVGID_60_);fill:#00B2E3;}
	.st70{clip-path:url(#SVGID_62_);}
	.st71{clip-path:url(#SVGID_64_);}
	.st72{fill:none;stroke:#FFFFFF;stroke-width:5;stroke-miterlimit:10;}
	.st73{clip-path:url(#SVGID_66_);fill:#00B2E3;}
	.st74{clip-path:url(#SVGID_68_);}
	.st75{clip-path:url(#SVGID_70_);}
	.st76{clip-path:url(#SVGID_72_);fill:#00B2E3;}
	.st77{clip-path:url(#SVGID_74_);}
	.st78{fill:#5B0323;}
	.st79{fill:url(#SVGID_75_);}
	.st80{fill:url(#SVGID_76_);}
	.st81{fill:url(#SVGID_77_);}
	.st82{clip-path:url(#SVGID_80_);fill:#00B2E3;}
	.st83{clip-path:url(#SVGID_84_);}
	.st84{clip-path:url(#SVGID_86_);}
	.st85{fill-rule:evenodd;clip-rule:evenodd;fill:#FFFFFF;}
	.st86{fill:#E5E5E5;}
	.st87{clip-path:url(#SVGID_88_);}
	.st88{fill-rule:evenodd;clip-rule:evenodd;fill:none;stroke:#E7004C;stroke-width:3;stroke-miterlimit:10;}
	.st89{fill:#070101;}
	.st90{fill:none;stroke:#068FFF;stroke-width:5;stroke-miterlimit:10;}
</style>
<g id="Capa_2">
</g>
<g id="Capa_1">
</g>
<g id="Capa_3">
</g>
<g id="Capa_4">
	<g>
		<g>
			<path class="st0" d="M68.41,21.01l-0.97-0.8c5.04-6.07,4.7-14.7-0.76-19.24L67.48,0C73.48,4.98,73.89,14.4,68.41,21.01z"/>
		</g>
		<g>
			<path class="st0" d="M65.45,18.64l-0.97-0.8c3.53-4.25,3.3-10.29-0.52-13.46l0.8-0.97C69.11,7.03,69.42,13.86,65.45,18.64z"/>
		</g>
		<path class="st0" d="M56.55,17.04c-0.26,0.53-0.67,1.33-1.22,2.41c-0.55,1-1.18,1.52-1.9,1.55c-0.17,0-0.27-0.09-0.3-0.29
			l0.63-2.26c-0.02-0.04-0.05-0.09-0.09-0.16c-0.04-0.07-0.07-0.12-0.09-0.16c0.23,0,0.36-0.12,0.37-0.36
			c-0.06-0.06-0.13-0.13-0.21-0.23c0.08-0.06,0.24-0.26,0.49-0.59c-0.06-0.06-0.16-0.11-0.29-0.17l0.34-0.36
			c0.11-0.12,0.18-0.26,0.2-0.41c0,0.1-0.09-0.03-0.27-0.38l0.09,0c0.29,0.01,0.44-0.2,0.46-0.65l-0.35-0.2
			c0.08-0.04,0.21-0.13,0.4-0.27c0.04-0.04,0.08-0.19,0.14-0.44c-0.04-0.04-0.14-0.1-0.29-0.2c0.1-0.1,0.26-0.35,0.48-0.77l0-0.23
			c-0.59-0.11-1.19-0.23-1.82-0.38l-2.28,0.04c-0.72-0.05-2.04-0.16-3.95-0.34c-0.16,0-0.48,0.43-0.97,1.27
			c-0.49,0.84-0.88,1.28-1.18,1.3c-0.16,0-0.27-0.07-0.35-0.23l0.6-2.61c-0.08-0.06-0.31-0.14-0.7-0.25c0-0.12,0.09-0.2,0.27-0.25
			c0.18-0.05,0.29-0.11,0.33-0.17l0.06-0.09c-0.34-1.65-0.51-2.57-0.51-2.77l0.5-0.01c0.19,0,0.76,0.82,1.7,2.48
			c1.12-0.29,3.38-0.48,6.76-0.58c0.27-0.1,0.77-0.18,1.49-0.23c0-0.02,0.02-0.07,0.06-0.15c0-0.23-0.06-0.44-0.16-0.61L54.58,9.1
			c0.23-0.12,0.35-0.21,0.35-0.27c-0.01-0.31-0.16-0.53-0.48-0.66c0-0.06,0.08-0.17,0.26-0.33l0-0.03c0-0.23-0.19-0.43-0.56-0.6
			c0-0.04,0.04-0.09,0.11-0.16c0.08-0.07,0.12-0.15,0.14-0.25c-0.01-0.33-0.16-0.48-0.47-0.46c0.11-0.39,0.18-0.54,0.2-0.44
			c0-0.14-0.16-0.27-0.47-0.4c0.06-0.06,0.14-0.18,0.26-0.35c0-0.25-0.16-0.41-0.47-0.46c0-0.1,0.08-0.2,0.26-0.3
			c-0.47-1.47-0.71-2.29-0.71-2.47c0.06-0.06,0.16-0.09,0.32-0.09c0.66-0.01,1.11,0.2,1.35,0.62c0.34,0.62,0.95,1.72,1.83,3.3
			l0.39,0.66c0.24,0.54,0.44,0.95,0.6,1.22c0.14,0,0.35-0.03,0.63-0.1c0.28-0.06,0.5-0.1,0.66-0.1c0.17,0,0.35,0.02,0.53,0.08
			l0.01,0.79c-0.13,0.12-0.34,0.18-0.61,0.18c-0.17,0-0.37-0.05-0.59-0.17l-0.2,0l0,0.09c0.24,0.54,0.6,1.2,1.08,1.97l4.9-0.08
			c0.23,0,0.57,0.11,1.01,0.35c0.44,0.24,0.66,0.47,0.67,0.7c0,0.25-0.25,0.5-0.75,0.74c-0.33,0.16-0.63,0.26-0.9,0.31l-5.05,0.08
			c-0.45,0.92-0.78,1.55-0.99,1.88c0.43-0.01,0.74-0.03,0.93-0.07c0.17,0,0.34,0.03,0.5,0.11l0.01,0.76
			c-0.12,0.04-0.27,0.08-0.46,0.12c-0.14,0-0.35-0.03-0.64-0.09c-0.29-0.06-0.52-0.09-0.67-0.09l-0.65,1.21L56.55,17.04z"/>
		<path class="st0" d="M32.37,23.12l3.15,21.16H29.9l-0.3-3.8h-1.97l-0.33,3.8h-5.69l2.81-21.16H32.37z M29.46,36.73
			c-0.28-2.4-0.56-5.36-0.84-8.89c-0.56,4.05-0.91,7.02-1.06,8.89H29.46z"/>
		<path class="st0" d="M41.63,23.37v2.76h-5.44v-2.76H41.63z M41.63,26.94v17.35H36.2V26.94H41.63z"/>
		<path class="st0" d="M47.9,26.94l-0.21,2.28c0.77-1.63,1.88-2.5,3.33-2.59v6.1c-0.97,0-1.68,0.13-2.13,0.39
			c-0.45,0.26-0.73,0.63-0.84,1.09c-0.1,0.47-0.16,1.54-0.16,3.22v6.85h-5.28V26.94H47.9z"/>
		<path class="st0" d="M63.56,35.92h-6.84v3.75c0,0.78,0.06,1.29,0.17,1.52c0.11,0.23,0.33,0.34,0.65,0.34c0.4,0,0.67-0.15,0.8-0.45
			c0.13-0.3,0.2-0.88,0.2-1.74v-2.29h5.01v1.28c0,1.07-0.07,1.9-0.2,2.47c-0.14,0.58-0.45,1.19-0.95,1.84
			c-0.5,0.65-1.13,1.14-1.89,1.47c-0.76,0.33-1.72,0.49-2.87,0.49c-1.12,0-2.1-0.16-2.95-0.48c-0.85-0.32-1.52-0.76-1.99-1.33
			c-0.48-0.56-0.8-1.18-0.99-1.86c-0.18-0.68-0.27-1.66-0.27-2.95v-5.06c0-1.52,0.2-2.71,0.61-3.59c0.41-0.88,1.08-1.55,2.01-2.01
			c0.93-0.47,2-0.7,3.22-0.7c1.48,0,2.7,0.28,3.67,0.84c0.96,0.56,1.64,1.31,2.03,2.24c0.39,0.93,0.58,2.23,0.58,3.91V35.92z
			 M58.26,33.09v-1.27c0-0.9-0.05-1.48-0.14-1.74c-0.1-0.26-0.29-0.39-0.59-0.39c-0.37,0-0.59,0.11-0.68,0.33
			c-0.09,0.22-0.13,0.82-0.13,1.8v1.27H58.26z"/>
		<path class="st0" d="M25.71,1.8h9.04v4.17h-3.62v3.95h3.39v3.97h-3.39v4.59h3.98v4.17h-9.4V1.8z"/>
		<path class="st0" d="M41.54,1.8v20.85h-5.36V1.8H41.54z"/>
		<path class="st0" d="M2.84,1.8h9.04v4.17H8.27v3.95h3.39v3.97H8.27v4.59h3.98v4.17h-9.4V1.8z"/>
		<path class="st0" d="M17.95,5.56l-0.09,1.57c0.38-0.63,0.84-1.1,1.38-1.41c0.55-0.31,1.17-0.47,1.89-0.47
			c0.89,0,1.62,0.21,2.19,0.63c0.57,0.42,0.93,0.95,1.09,1.59c0.16,0.64,0.24,1.71,0.24,3.2v11.98h-5.2V10.82
			c0-1.18-0.04-1.89-0.12-2.15c-0.08-0.26-0.29-0.39-0.64-0.39c-0.37,0-0.6,0.15-0.7,0.44c-0.09,0.3-0.14,1.09-0.14,2.38v11.55h-5.2
			V5.56H17.95z"/>
	</g>
</g>
<g id="Capa_6">
</g>
<g id="Capa_5">
</g>
</svg>
