<?xml version="1.0" encoding="utf-8"?>
<!-- Generator: Adobe Illustrator 24.0.3, SVG Export Plug-In . SVG Version: 6.00 Build 0)  -->
<svg version="1.1" xmlns="http://www.w3.org/2000/svg" xmlns:xlink="http://www.w3.org/1999/xlink" x="0px" y="0px"
	 viewBox="0 0 79 44.6" style="enable-background:new 0 0 79 44.6;" xml:space="preserve">
<style type="text/css">
	.st0{fill:#FFFFFF;}
	.st1{fill:url(#SVGID_1_);}
	.st2{fill:#E7004C;}
	.st3{fill:none;stroke:#00B2E3;stroke-miterlimit:10;}
	.st4{fill:url(#SVGID_2_);}
	.st5{fill:#FCFCFC;}
	.st6{fill:url(#SVGID_3_);}
	.st7{fill:url(#SVGID_4_);}
	.st8{opacity:0.8;fill:#E7004C;}
	.st9{opacity:0.7;fill:#E7004C;}
	.st10{opacity:0.7;}
	.st11{fill:#00B2E3;}
	.st12{opacity:0.8;fill:#00B2E3;}
	.st13{opacity:0.7;fill:#00B2E3;}
	.st14{fill:#BBBBBB;}
	.st15{opacity:0.8;fill:#BBBBBB;}
	.st16{opacity:0.7;fill:#BBBBBB;}
	.st17{fill:url(#SVGID_5_);}
	.st18{fill:url(#SVGID_6_);}
	.st19{fill:none;stroke:#E7004C;stroke-width:2;stroke-miterlimit:10;}
	.st20{fill:url(#SVGID_7_);}
	.st21{fill:url(#SVGID_8_);}
	.st22{fill:url(#SVGID_9_);}
	.st23{fill:none;stroke:#FFFFFF;stroke-miterlimit:10;}
	.st24{fill:none;stroke:#E7004C;stroke-miterlimit:10;}
	.st25{fill-rule:evenodd;clip-rule:evenodd;fill:#E7004C;}
	.st26{fill:none;stroke:#000000;stroke-miterlimit:10;}
	.st27{fill:#38A8E0;}
	.st28{clip-path:url(#SVGID_11_);fill:#00B2E3;}
	.st29{fill:none;stroke:#E7004C;stroke-width:3;stroke-miterlimit:10;}
	.st30{clip-path:url(#SVGID_13_);}
	.st31{fill:none;stroke:#FFFFFF;stroke-width:2;stroke-miterlimit:10;}
	.st32{fill:none;stroke:#FFFFFF;stroke-width:3;stroke-miterlimit:10;}
	.st33{clip-path:url(#SVGID_15_);}
	.st34{fill:url(#SVGID_16_);}
	.st35{fill:none;stroke:#FFFFFF;stroke-width:0.5;stroke-miterlimit:10;}
	.st36{clip-path:url(#SVGID_18_);fill:#00B2E3;}
	.st37{clip-path:url(#SVGID_20_);}
	.st38{clip-path:url(#SVGID_22_);}
	.st39{fill:url(#SVGID_23_);}
	.st40{clip-path:url(#SVGID_25_);}
	.st41{fill:url(#SVGID_26_);}
	.st42{fill:url(#SVGID_27_);}
	.st43{fill:url(#SVGID_28_);}
	.st44{fill:url(#SVGID_29_);}
	.st45{clip-path:url(#SVGID_31_);fill:#00B2E3;}
	.st46{clip-path:url(#SVGID_33_);}
	.st47{clip-path:url(#SVGID_35_);}
	.st48{fill:url(#SVGID_36_);}
	.st49{clip-path:url(#SVGID_38_);}
	.st50{clip-path:url(#SVGID_40_);}
	.st51{fill:#280210;}
	.st52{opacity:0.5;}
	.st53{opacity:0.6;}
	.st54{fill:url(#SVGID_41_);}
	.st55{fill:url(#SVGID_42_);}
	.st56{fill:url(#SVGID_43_);}
	.st57{fill:url(#SVGID_44_);}
	.st58{opacity:0.8;}
	.st59{opacity:0.9;}
	.st60{fill:url(#SVGID_45_);}
	.st61{clip-path:url(#SVGID_47_);}
	.st62{clip-path:url(#SVGID_49_);}
	.st63{fill:url(#SVGID_50_);}
	.st64{clip-path:url(#SVGID_52_);}
	.st65{fill:url(#SVGID_53_);}
	.st66{clip-path:url(#SVGID_55_);}
	.st67{fill:url(#SVGID_56_);}
	.st68{clip-path:url(#SVGID_58_);}
	.st69{clip-path:url(#SVGID_60_);fill:#00B2E3;}
	.st70{clip-path:url(#SVGID_62_);}
	.st71{clip-path:url(#SVGID_64_);}
	.st72{fill:none;stroke:#FFFFFF;stroke-width:5;stroke-miterlimit:10;}
	.st73{clip-path:url(#SVGID_66_);fill:#00B2E3;}
	.st74{clip-path:url(#SVGID_68_);}
	.st75{clip-path:url(#SVGID_70_);}
	.st76{clip-path:url(#SVGID_72_);fill:#00B2E3;}
	.st77{clip-path:url(#SVGID_74_);}
	.st78{fill:#5B0323;}
	.st79{fill:url(#SVGID_75_);}
	.st80{fill:url(#SVGID_76_);}
	.st81{fill:url(#SVGID_77_);}
	.st82{clip-path:url(#SVGID_80_);fill:#00B2E3;}
	.st83{clip-path:url(#SVGID_84_);}
	.st84{clip-path:url(#SVGID_86_);}
	.st85{fill-rule:evenodd;clip-rule:evenodd;fill:#FFFFFF;}
	.st86{fill:#E5E5E5;}
	.st87{clip-path:url(#SVGID_88_);}
	.st88{fill-rule:evenodd;clip-rule:evenodd;fill:none;stroke:#E7004C;stroke-width:3;stroke-miterlimit:10;}
	.st89{fill:#070101;}
	.st90{fill:none;stroke:#068FFF;stroke-width:5;stroke-miterlimit:10;}
</style>
<g id="Capa_2">
</g>
<g id="Capa_1">
</g>
<g id="Capa_3">
</g>
<g id="Capa_4">
	<g>
		<g>
			<path class="st0" d="M16.57,44.6c-0.87,0-1.75-0.06-2.63-0.18C4.66,43.18,2.69,31.68,1.25,23.28c-0.15-0.88-0.29-1.71-0.44-2.5
				c-1.24-6.18-1.76-12.99,3.72-16.5c6.43-3.91,16.57-4.96,23.3-4.68c6.22,0.26,18.14,3.57,23.62,5.73l0,0
				c2.1,0.83,4.27,1.59,6.37,2.33c3.27,1.15,6.66,2.35,9.88,3.82c3.19,1.33,6.17,3.35,8.17,5.54c2.68,2.94,3.67,6.22,2.85,9.48
				c-1.85,7.69-12.48,11.1-15.69,11.97c-5.24,1.54-11.23,1.4-16.51,1.27c-3.52-0.08-6.84-0.16-9.41,0.28
				c-2.85,0.41-5.72,1.29-8.5,2.14C24.71,43.37,20.69,44.6,16.57,44.6z M25.72,0.51c-6.47,0-15.06,1.17-20.68,4.58
				C0.06,8.28,0.52,14.43,1.75,20.6c0.15,0.8,0.29,1.64,0.44,2.52c1.39,8.11,3.29,19.21,11.87,20.35c4.84,0.67,9.63-0.8,14.27-2.22
				c2.81-0.86,5.72-1.75,8.63-2.17c2.65-0.45,6.01-0.37,9.58-0.29c5.21,0.12,11.12,0.26,16.23-1.24c1.96-0.53,5.74-1.74,9.11-3.94
				c3.26-2.13,5.25-4.6,5.91-7.33c0.75-2.98-0.14-5.88-2.63-8.61c-1.91-2.09-4.76-4.02-7.83-5.3l-0.02-0.01
				c-3.18-1.46-6.55-2.65-9.8-3.79c-2.11-0.74-4.28-1.51-6.4-2.35l0,0C43,3.02,31.89,0.73,27.8,0.56
				C27.14,0.53,26.44,0.51,25.72,0.51z"/>
		</g>
		<g>
			<path class="st0" d="M23.06,10.06c0.12-0.62,0.17-0.97,0.45-1.44c0.58-0.95,1.71-1.08,1.94-0.91c0.31,0.24,0.29,0.63-0.03,1.19
				c-0.3,0.52-0.73,1.13-1.5,1.45c-0.33,0.14-0.68,0.23-0.91,0.31C23.02,10.67,23.01,10.35,23.06,10.06 M14.16,6.64
				c0.23-0.02,0.4,0.16,0.43,1.17c0,0.99,0.12,2.07,0.28,3.25c0.17,1.28,0.65,2.37,0.86,2.76c0.73,1.33,1.61,1.47,2.28,1.42
				c0.41-0.03,1.27-0.51,1.83-1.52c0.24,0.48,0.63,0.91,1.18,1.31c0.65,0.48,1.89,1.16,3.45,1.17c0.53,0,1.17-0.23,1.68-0.48
				c0.69-0.35,1.14-0.72,1.74-1.32c0.55-0.52,1.04-1.08,1.48-1.68c0.15,0.71,0.46,1.35,0.81,1.94c0.28,0.46,0.63,0.85,1.07,1.17
				c0.41,0.3,1.11,0.52,1.66,0.52c0.96,0,1.88-0.67,2.28-2.11c0.12-0.51,0.21-0.89,0.28-1.14c0.13,0.35,0.32,1.04,0.62,1.59
				c0.3,0.58,0.96,0.87,1.97,0.9c1.34,0,2.07-0.51,2.21-1.52c0.14-1.01,0.21-2.38,0.21-4.11c0.72,0.75,2.01,0.84,2.36,0.83
				c0.01-0.01,0.14-0.11,0.17-0.31c0.03-0.22-0.3-0.39-0.35-0.39c-0.92-0.02-1.53-0.47-1.83-1.35c-0.14-0.42-0.37-0.56-0.69-0.45
				c-0.32,0.11-0.55,0.31-0.69,0.59c-0.12,0.23-0.16,0.7-0.14,1.42c0.02,0.71,0.01,3.26-0.03,3.7c-0.05,0.44-0.15,0.67-0.31,0.69
				c-0.21,0.02-0.49-0.3-0.68-0.92c-0.18-0.64-0.8-4.15-0.84-4.33c-0.21-0.28-0.61-0.3-1.21-0.07c-0.62,0.25-1.01,0.52-1.17,0.79
				c-0.02,0.16-0.38,2.04-0.79,3.35c-0.18,0.55-0.66,2.09-0.97,2.11c-0.32,0.02-0.52-0.33-0.59-1c-0.07-0.65,0.14-4.24,0.28-5.6
				c0.07-0.74,0.15-1.9,0.07-2.14c-0.09-0.27-0.31-0.41-0.73-0.41c-0.35,0-1.87,0.38-2.44,0.69c-0.11,0.06-0.22,0.2-0.26,0.24
				c-0.28,0.41-0.51,1.72-0.4,3.88c-0.48,0.76-1.03,1.48-1.64,2.15c-0.46,0.51-0.92,0.92-1.38,1.24c-0.48,0.32-0.92,0.47-1.31,0.45
				c-0.64-0.05-0.9-0.38-1.23-1c-0.26-0.49-0.48-1.47-0.4-2.16c0.02-0.13,0.26-0.18,0.46-0.26c0,0,1.19-0.61,1.48-0.83
				c0.85-0.63,1.18-1.46,1.26-1.77c0.14-0.58,0.12-1.02-0.04-1.62c-0.16-0.58-0.52-0.86-1.07-0.86c-0.56,0-1.21,0.18-1.76,0.42
				C23,7.28,22.47,7.59,21.98,7.99c-0.9,0.69-1.59,1.54-2.07,2.56c-0.3,0.6-0.45,1.18-0.45,1.73c0.01,0.12,0.02,0.25,0.04,0.37
				c-0.51,0.82-1.16,1.6-1.28,1.6c-0.21,0-0.36-0.23-0.38-1.25c-0.05-1.01-0.17-2.11-0.35-3.28c-0.28-1.87-0.96-3.16-1.83-3.73
				c-0.37-0.25-0.81-0.38-1.31-0.38h-0.03c-0.25,0.02-1.45-0.13-1.9,3.28c-0.09,0.69-0.25,1.39-0.3,1.76
				c-0.09-0.35-0.65-2.83-0.77-3.11c-0.29-0.65-0.83-1.22-3.14,0.31c-0.18,0.12,2.11,6.25,2.31,6.91c0.11,0.36,0.55,0.64,1.24,0.86
				c0.98,0.31,1.2,0.03,1.31-0.17c0.02-0.14,0.09-3.09,0.14-4.08c0.05-1.2,0.14-2.33,0.28-3.39C13.62,6.93,13.82,6.69,14.16,6.64"/>
			<path class="st0" d="M55.57,25.2c0.09-0.58,0.21-1.07,0.46-1.51c0.5-0.9,1.42-0.89,1.64-0.73c0.28,0.21,0.28,0.58,0,1.1
				c-0.26,0.49-0.63,1.06-1.31,1.38c-0.29,0.14-0.6,0.23-0.82,0.31C55.54,25.76,55.52,25.47,55.57,25.2 M45.46,27.68
				c-0.13,0.31-0.52,0.56-0.79,0.48c-0.26-0.07-0.58-0.21-0.85-0.84c-0.32-0.75-0.35-1.34-0.41-2.07c-0.02-0.48,0.08-1.85,0.59-2.42
				c0.18-0.21,0.47-0.29,0.79-0.31c0.28-0.02,0.62,0.06,1.04,0.24c0.05,0.67,0.06,1.27,0.07,1.71
				C45.92,25.34,45.77,26.97,45.46,27.68 M36.67,21.33c-0.05,0.17-0.08,0.4-0.44,1.18c-0.13,0.28-0.31,0.64-0.42,0.86
				c-0.06-0.04-0.29-0.4-0.33-0.55c-0.05-0.22-0.13-0.58,0.04-1.37c0.11-0.5,0.26-0.63,0.32-0.66c0.08-0.04,0.22-0.05,0.25-0.05
				C36.45,20.73,36.78,20.96,36.67,21.33 M28.46,23.07c-0.14,0.53-0.92,3.07-1.19,3.72c-0.28,0.67-0.5,0.77-0.76,0.78
				c-0.19,0.01-0.47-0.31-0.6-0.8c-0.18-0.67-0.3-1.38-0.31-2.14c-0.02-1.19,0.32-2.19,0.55-2.42c0.18-0.21,0.43-0.31,0.73-0.31
				c0.16,0.01,0.35,0.06,0.57,0.15c0.37,0.18,0.8,0.51,1.09,0.75C28.51,22.89,28.49,22.97,28.46,23.07 M18.24,34.2
				c-0.63,1.49-1.36,3.3-2.29,3.21c-0.44-0.04-0.7-0.68-0.49-1.27c0.56-1.6,2.21-3.52,2.66-4.08c0.56-0.69,1.03-1.09,1.03-1.09
				s-0.04,0.35-0.04,0.39C19.05,31.83,18.6,33.34,18.24,34.2 M19.22,23.39c-0.31,0.67-0.64,1.34-1,2c-0.32,0.57-0.62,1.06-0.9,1.45
				c-0.3,0.39-0.48,0.42-0.64,0.38c-0.18-0.04-0.34-0.25-0.38-0.89c-0.04-0.64-0.01-1.33,0.1-2.08c0.1-0.46,0.23-0.9,0.4-1.33
				c0.17-0.43,0.36-0.75,0.6-0.95c0.23-0.16,0.47-0.23,0.72-0.2c0.16,0.02,0.33,0.09,0.52,0.21c0.29,0.21,0.64,0.53,0.76,0.91
				c0.01,0.02,0.02,0.04,0.03,0.04L19.22,23.39z M70.95,28.43c-0.15,0.19-0.47,0.58-0.64,0.78c-0.46,0.55-0.64,0.53-0.83,0.5
				c-0.2-0.03-0.29-0.53-0.24-1.26c0.06-1.01,0.16-2.11,0.16-3.3c-0.01-0.52,0.06-1.74-0.47-2.84c-0.21-0.44-0.46-0.81-0.77-1.13
				c-0.53-0.55-1.27-0.58-1.27-0.58c-0.25-0.02-0.82,0.04-1.24,0.54c-0.5,0.58-0.89,1.38-1.14,2.41c-0.25,1.03-0.43,1.73-0.53,2.08
				c-0.04-0.36-0.2-3.31-0.32-3.58c-0.28-0.96-1.55-0.99-3.15-0.18c0.01,0.13,0.42,2.49,0.77,4.49c-0.28,0.57-0.6,1.12-0.95,1.65
				c-0.37,0.57-0.76,1.05-1.16,1.44c-0.42,0.39-0.83,0.61-1.22,0.65c-0.64,0.06-0.9-0.34-1.34-0.88c-0.36-0.46-0.82-1.26-0.87-1.87
				c-0.01-0.19-0.01-0.12,0.18-0.23c0,0,0.61-0.3,0.7-0.35c0.95-0.52,1.77-1.3,2.04-2.59c0.24-1.12,0.05-1.7-0.33-2.01
				c-0.45-0.36-0.78-0.49-1.32-0.4c-0.55,0.09-1.16,0.38-1.67,0.69c-0.53,0.32-1,0.71-1.42,1.17c-0.77,0.82-1.32,1.76-1.63,2.83
				c-0.2,0.63-0.25,1.22-0.16,1.75c0,0,0,0,0,0c-0.05,0.09-0.1,0.19-0.17,0.31c-0.39,0.69-0.75,1.06-1.05,1.08
				c-0.16,0-0.71-0.23-0.94-1.06c-0.27-0.98-0.93-4.3-1.01-5.72c-0.08-1.25-0.17-3.87-0.26-5.17c-0.04-0.53-0.35-4.01-1.05-4.44
				c-0.04-0.03-1.52-0.42-2.16-0.29c-0.41,0.08-0.6,0.3-0.6,0.58c-0.01,0.34,0.14,0.95,0.29,2.06c0.16,1.12,0.34,3.28,0.34,3.29
				c0.09,1.18,0.18,2.74,0.2,3.02c-0.25-0.21-1.06-0.58-1.83-0.35c-0.77,0.24-1.24,0.73-1.66,1.54c-0.39,0.83-0.59,1.83-0.59,2.92
				c0,0.37,0.05,0.74,0.14,1.11c0.04,0.17,0.08,0.34,0.12,0.49c-0.77,1.28-1.8,2.69-2.6,2.83c-0.38-0.04-0.45-0.28-0.38-0.93
				c0.07-0.62,0.5-3.69,0.43-4.36c-0.02-0.34-0.25-1.03-0.52-1.14c-0.48-0.12-2.02-0.26-2.09-0.27c0.13-0.22,0.26-0.49,0.38-0.82
				c0.29-0.77,0.75-1.85,0.37-2.41c-0.3-0.45-0.94-1.24-1.88-1.06c-0.34,0.07-0.97,0.37-1.26,0.88c-0.13,0.24-0.5,1.46-0.27,2.73
				c0.13,0.73,1.01,1.27,1.17,1.36c0.06,0.03,0.15,0.06,0.26,0.09c-0.04,0.13-0.09,0.27-0.15,0.43c-0.98,2.72-2.64,4.25-2.94,4.21
				c-0.96-0.13-0.97-5.01-0.93-6.49c0.03-1.08-0.08-1.63-0.14-1.93c-0.07-0.25-0.05-0.55-1.24-0.31c-0.74,0.18-1.21,0.67-1.42,1.73
				c0,0.02-0.01,0.05-0.02,0.09c0,0-0.69-0.66-0.79-0.74c-0.24-0.2-0.7-0.72-1.68-0.42c-0.6,0.18-1.13,0.66-1.59,1.42
				c-0.46,0.76-0.74,1.66-0.86,2.42c-0.07,0.4-0.08,0.76-0.06,1.09c-0.27,0.19-0.56,0.4-0.87,0.61l-0.64,0.45
				c0,0,0.43-3.81,0.49-5.78c-0.02-0.47-0.23-0.73-0.64-0.78c-0.16-0.02-0.35-0.01-0.56,0.04c-0.74,0.13-1.3,0.66-1.67,1.58
				c-0.17-0.18-0.99-0.94-1.31-1.12c-0.28-0.16-0.58-0.22-0.88-0.21c-0.59,0.07-1.16,0.4-1.71,1c-0.63,0.68-1.7,2.09-1.57,4.55
				c0.09,1.68,1.43,1.75,2.06,1.77c0.9,0.02,1.42-0.14,1.85-0.63c0.43-0.51,1.21-1.38,1.37-1.76c0.02,0.26-0.42,3.81-0.42,3.81
				c-0.54,0.52-3.42,4.32-4.37,5.86c-0.43,0.69-0.86,1.42-0.98,1.95c-0.27,1.19,0.23,2.28,1.01,2.74c1.27,0.58,2.44,0.87,3.69-0.85
				c1.3-1.95,1.69-3.83,2.62-7.35c0.26-0.98,0.53-2.62,0.8-3.56c0.53-0.38,1.05-0.77,1.56-1.16c0.11-0.09,0.23-0.17,0.34-0.26
				c0.06,0.19,0.14,0.36,0.23,0.5c0.25,0.41,0.94,1.05,1.97,1.07c0.85,0.01,1.23-0.12,1.69-0.66c0.32-0.38,0.67-1.07,0.79-1.55
				c0.05,0.16,0.51,1.48,0.66,1.78c0.7,1.39,2,2.36,3.08,2.36c0,0,1.68,0.39,3.62-4.42c0.21-0.51,0.34-0.95,0.43-1.32
				c0.41,0.05,0.77,0.07,0.82,0.08c-0.19,0.38-0.7,1.7-1.09,2.9c-0.39,1.22-0.42,2.19,0.04,2.97c0.21,0.35,0.52,0.61,0.93,0.79
				c0.39,0.21,0.97,0.28,1.39,0.28h0.03c0.43,0,1.03-0.14,1.49-0.42c0.46-0.25,0.89-0.59,1.28-1c0.43-0.46,0.83-0.98,1.19-1.55
				c0.21,0.25,0.47,0.45,0.72,0.56c0.34,0.16,0.78,0.22,1.31,0.17c0.55-0.05,1.01-0.21,1.35-0.52c0.32-0.3,0.51-0.96,0.55-1.42
				c0.09,0.28,0.29,0.69,0.59,1.24c0.3,0.6,0.76,1.26,1.31,1.73c0.71,0.6,1.52,0.83,2.09,0.71c1.19-0.24,1.86-1.22,2.22-1.82
				c0.3,0.53,0.81,0.97,1.53,1.32c0.71,0.36,2.05,0.82,3.6,0.57c0.53-0.08,1.12-0.41,1.58-0.74c0.63-0.45,1.01-0.89,1.51-1.56
				c0.27-0.35,0.51-0.71,0.74-1.08c0.11,0.61,0.18,1.07,0.21,1.23c0.06,0.37,0.45,0.71,1.1,1.04c0.64,0.39,1.18,0.22,1.32,0.03
				c0.04-0.13,0.56-3.04,0.76-4.01c0.23-1.18,0.49-2.28,0.79-3.3c0.3-1.03,0.62-1.54,0.97-1.53c0.53,0.09-0.06,3.59-0.08,4.78
				c-0.04,2.43,0.66,3.36,1.16,3.99c0.95,1.2,2,0.59,2.37,0.3c0.52-0.42,1.39-1.54,1.38-1.58C71.41,28.44,71.21,28.36,70.95,28.43"
				/>
		</g>
	</g>
</g>
<g id="Capa_6">
</g>
<g id="Capa_5">
</g>
</svg>
