<?xml version="1.0" encoding="utf-8"?>
<!-- Generator: Adobe Illustrator 24.0.3, SVG Export Plug-In . SVG Version: 6.00 Build 0)  -->
<svg version="1.1" xmlns="http://www.w3.org/2000/svg" xmlns:xlink="http://www.w3.org/1999/xlink" x="0px" y="0px"
	 viewBox="0 0 76.78 36.72" style="enable-background:new 0 0 76.78 36.72;" xml:space="preserve">
<style type="text/css">
	.st0{fill:#FFFFFF;}
	.st1{fill:url(#SVGID_1_);}
	.st2{fill:#E7004C;}
	.st3{fill:none;stroke:#00B2E3;stroke-miterlimit:10;}
	.st4{fill:url(#SVGID_2_);}
	.st5{fill:#FCFCFC;}
	.st6{fill:url(#SVGID_3_);}
	.st7{fill:url(#SVGID_4_);}
	.st8{opacity:0.8;fill:#E7004C;}
	.st9{opacity:0.7;fill:#E7004C;}
	.st10{opacity:0.7;}
	.st11{fill:#00B2E3;}
	.st12{opacity:0.8;fill:#00B2E3;}
	.st13{opacity:0.7;fill:#00B2E3;}
	.st14{fill:#BBBBBB;}
	.st15{opacity:0.8;fill:#BBBBBB;}
	.st16{opacity:0.7;fill:#BBBBBB;}
	.st17{fill:url(#SVGID_5_);}
	.st18{fill:url(#SVGID_6_);}
	.st19{fill:none;stroke:#E7004C;stroke-width:2;stroke-miterlimit:10;}
	.st20{fill:url(#SVGID_7_);}
	.st21{fill:url(#SVGID_8_);}
	.st22{fill:url(#SVGID_9_);}
	.st23{fill:none;stroke:#FFFFFF;stroke-miterlimit:10;}
	.st24{fill:none;stroke:#E7004C;stroke-miterlimit:10;}
	.st25{fill-rule:evenodd;clip-rule:evenodd;fill:#E7004C;}
	.st26{fill:none;stroke:#000000;stroke-miterlimit:10;}
	.st27{fill:#38A8E0;}
	.st28{clip-path:url(#SVGID_11_);fill:#00B2E3;}
	.st29{fill:none;stroke:#E7004C;stroke-width:3;stroke-miterlimit:10;}
	.st30{clip-path:url(#SVGID_13_);}
	.st31{fill:none;stroke:#FFFFFF;stroke-width:2;stroke-miterlimit:10;}
	.st32{fill:none;stroke:#FFFFFF;stroke-width:3;stroke-miterlimit:10;}
	.st33{clip-path:url(#SVGID_15_);}
	.st34{fill:url(#SVGID_16_);}
	.st35{fill:none;stroke:#FFFFFF;stroke-width:0.5;stroke-miterlimit:10;}
	.st36{clip-path:url(#SVGID_18_);fill:#00B2E3;}
	.st37{clip-path:url(#SVGID_20_);}
	.st38{clip-path:url(#SVGID_22_);}
	.st39{fill:url(#SVGID_23_);}
	.st40{clip-path:url(#SVGID_25_);}
	.st41{fill:url(#SVGID_26_);}
	.st42{fill:url(#SVGID_27_);}
	.st43{fill:url(#SVGID_28_);}
	.st44{fill:url(#SVGID_29_);}
	.st45{clip-path:url(#SVGID_31_);fill:#00B2E3;}
	.st46{clip-path:url(#SVGID_33_);}
	.st47{clip-path:url(#SVGID_35_);}
	.st48{fill:url(#SVGID_36_);}
	.st49{clip-path:url(#SVGID_38_);}
	.st50{clip-path:url(#SVGID_40_);}
	.st51{fill:#280210;}
	.st52{opacity:0.5;}
	.st53{opacity:0.6;}
	.st54{fill:url(#SVGID_41_);}
	.st55{fill:url(#SVGID_42_);}
	.st56{fill:url(#SVGID_43_);}
	.st57{fill:url(#SVGID_44_);}
	.st58{opacity:0.8;}
	.st59{opacity:0.9;}
	.st60{fill:url(#SVGID_45_);}
	.st61{clip-path:url(#SVGID_47_);}
	.st62{clip-path:url(#SVGID_49_);}
	.st63{fill:url(#SVGID_50_);}
	.st64{clip-path:url(#SVGID_52_);}
	.st65{fill:url(#SVGID_53_);}
	.st66{clip-path:url(#SVGID_55_);}
	.st67{fill:url(#SVGID_56_);}
	.st68{clip-path:url(#SVGID_58_);}
	.st69{clip-path:url(#SVGID_60_);fill:#00B2E3;}
	.st70{clip-path:url(#SVGID_62_);}
	.st71{clip-path:url(#SVGID_64_);}
	.st72{fill:none;stroke:#FFFFFF;stroke-width:5;stroke-miterlimit:10;}
	.st73{clip-path:url(#SVGID_66_);fill:#00B2E3;}
	.st74{clip-path:url(#SVGID_68_);}
	.st75{clip-path:url(#SVGID_70_);}
	.st76{clip-path:url(#SVGID_72_);fill:#00B2E3;}
	.st77{clip-path:url(#SVGID_74_);}
	.st78{fill:#5B0323;}
	.st79{fill:url(#SVGID_75_);}
	.st80{fill:url(#SVGID_76_);}
	.st81{fill:url(#SVGID_77_);}
	.st82{clip-path:url(#SVGID_80_);fill:#00B2E3;}
	.st83{clip-path:url(#SVGID_84_);}
	.st84{clip-path:url(#SVGID_86_);}
	.st85{fill-rule:evenodd;clip-rule:evenodd;fill:#FFFFFF;}
	.st86{fill:#E5E5E5;}
	.st87{clip-path:url(#SVGID_88_);}
	.st88{fill-rule:evenodd;clip-rule:evenodd;fill:none;stroke:#E7004C;stroke-width:3;stroke-miterlimit:10;}
	.st89{fill:#070101;}
	.st90{fill:none;stroke:#068FFF;stroke-width:5;stroke-miterlimit:10;}
</style>
<g id="Capa_2">
</g>
<g id="Capa_1">
</g>
<g id="Capa_3">
</g>
<g id="Capa_4">
	<g>
		<path class="st0" d="M72.34,13.37c-0.52-2.6-2.63-3.75-5.06-3.43c-1.28,0.17-2.34,0.8-3.25,1.69c-1.18,1.15-1.95,2.57-2.62,4.04
			c-0.15,0.33-0.31,0.65-0.53,0.93c-0.91,1.16-1.61,2.48-2.66,3.54c-0.46,0.47-0.96,0.88-1.56,1.16c-0.14,0.07-0.3,0.14-0.43,0.02
			c-0.13-0.12-0.11-0.28-0.06-0.44c0.05-0.18,0.09-0.36,0.15-0.54c0.22-0.62,0.56-1.18,0.9-1.74c0.55-0.88,1.14-1.74,1.68-2.63
			c0.48-0.8,0.94-1.61,1.16-2.53c0.4-1.65-0.46-2.98-1.79-3.47c-1.04-0.39-2.07-0.34-3.06,0.2c-0.53,0.29-1.04,0.63-1.49,1.03
			c-0.29,0.26-0.31,0.26-0.5-0.07c-0.4-0.68-1-1.09-1.77-1.25c-0.9-0.2-1.76-0.04-2.59,0.32c-0.5,0.22-0.96,0.52-1.38,0.87
			c-0.18,0.15-0.31,0.16-0.45-0.06c-0.16-0.25-0.42-0.41-0.67-0.57c-0.71-0.44-1.28-0.43-1.79,0.34c-0.99,1.49-1.88,3.04-2.61,4.68
			c-0.11,0.24-0.21,0.48-0.35,0.71c-0.53,0.83-1.16,1.58-1.68,2.41c-0.47,0.76-1.09,1.39-1.73,2c-0.34,0.32-0.73,0.58-1.17,0.76
			c-0.29,0.12-0.44,0-0.44-0.32c0-0.22,0.08-0.42,0.16-0.63c0.25-0.66,0.59-1.27,0.96-1.86c0.55-0.88,1.14-1.74,1.68-2.63
			c0.51-0.85,0.99-1.72,1.17-2.73c0.24-1.31-0.5-2.69-1.75-3.17c-1.18-0.45-2.31-0.35-3.4,0.31c-0.53,0.32-1.02,0.71-1.52,1.1
			c-0.14-0.08-0.18-0.19-0.23-0.28c-0.37-0.59-0.87-1-1.55-1.19c-0.84-0.23-1.66-0.16-2.47,0.13c-0.62,0.22-1.17,0.58-1.68,0.98
			c-0.21,0.17-0.33,0.15-0.49-0.05c-0.19-0.25-0.44-0.44-0.71-0.6c-0.54-0.33-1.23-0.42-1.72,0.35c-0.92,1.43-1.81,2.87-2.49,4.42
			c-0.32,0.75-0.76,1.42-1.22,2.09c-0.18,0.27-0.38,0.53-0.56,0.8c-0.53,0.75-1.04,1.51-1.63,2.21c-0.29,0.35-0.61,0.67-1.05,0.83
			c-0.36,0.13-0.55,0.03-0.67-0.34c-0.04-0.12-0.05-0.24-0.05-0.37c-0.02-0.47,0.08-0.93,0.23-1.37c0.43-1.29,1.02-2.51,1.72-3.66
			c0.56-0.92,1.13-1.82,1.7-2.73c0.2-0.31,0.28-0.66,0.13-0.98c-0.34-0.72-0.84-1.3-1.66-1.53c-0.4-0.11-0.74,0.01-0.99,0.34
			c-0.35,0.47-0.72,0.94-1.02,1.45c-0.66,1.11-1.26,2.25-1.84,3.4c-0.06,0.12-0.12,0.25-0.2,0.37c-0.55,0.81-1.12,1.61-1.64,2.43
			c-0.63,0.98-1.42,1.81-2.25,2.6c-0.23,0.21-0.49,0.39-0.77,0.53c-0.41,0.19-0.72-0.05-0.66-0.5c0.01-0.05,0.03-0.09,0.04-0.14
			c0.21-1.14,0.16-2.26-0.3-3.34c-0.09-0.21-0.02-0.32,0.17-0.39c0.37-0.16,0.73-0.35,1.06-0.58c1.49-1.01,2.46-2.44,3.31-3.97
			c0.11-0.21,0.11-0.43-0.01-0.62c-0.47-0.75-1.13-1.27-2-1.49c-0.31-0.08-0.55,0.06-0.71,0.32c-0.5,0.83-1.12,1.57-1.73,2.31
			c-0.75,0.91-1.64,1.66-2.73,2.13c-0.1,0.04-0.2,0.1-0.31,0.11c-0.43,0.04-0.53-0.12-0.34-0.5c0.42-0.83,0.84-1.67,1.25-2.5
			c1.01-2,2.09-3.96,3.29-5.85c0.85-1.32,1.76-2.6,2.75-3.82c0.25-0.31,0.28-0.6,0.1-0.94c-0.35-0.66-0.87-1.13-1.57-1.38
			c-0.54-0.19-0.8-0.12-1.14,0.33c-0.46,0.62-0.94,1.24-1.37,1.88c-1.85,2.7-3.51,5.51-5.03,8.4c-1.32,2.5-2.51,5.07-3.65,7.66
			c-0.41,0.94-0.79,1.89-1.12,2.86c-0.09,0.28-0.13,0.55,0,0.82c0.4,0.82,1.28,1.34,2.33,1.17c0.21-0.03,0.36-0.16,0.44-0.37
			c0.22-0.56,0.46-1.12,0.68-1.68c0.41-1.04,0.92-2.04,1.37-3.06c0.06-0.14,0.12-0.28,0.32-0.3c0.7-0.06,1.39-0.12,2.09-0.19
			c0.24-0.02,0.31,0.1,0.28,0.31c-0.04,0.29-0.11,0.58-0.16,0.87c-0.14,0.79-0.38,1.56-0.25,2.39c0.13,0.83,0.47,1.51,1.17,1.98
			c1.34,0.89,2.73,0.83,4.11,0.14c0.76-0.38,1.36-0.98,1.95-1.58c0.24-0.24,0.25-0.24,0.42,0.06c0.38,0.65,0.85,1.23,1.53,1.59
			c1.17,0.63,2.84,0.67,4.14-0.56c0.29-0.28,0.3-0.27,0.65-0.04c0.41,0.27,0.84,0.47,1.34,0.46c0.47-0.01,0.62-0.14,0.76-0.59
			c0.34-1.03,0.6-2.09,1.06-3.08c1.07-2.29,2.49-4.33,4.37-6.04c0.51-0.46,1.08-0.84,1.71-1.11c0.09-0.04,0.17-0.08,0.26-0.1
			c0.24-0.05,0.31,0.03,0.25,0.27c-0.11,0.38-0.29,0.72-0.5,1.05c-0.69,1.09-1.32,2.21-1.96,3.33c-0.68,1.18-1.2,2.42-1.52,3.75
			c-0.06,0.26-0.05,0.49,0.08,0.72c0.44,0.74,1.1,1.06,1.94,1.07c0.44,0.01,0.73-0.17,0.9-0.59c0.47-1.15,1.02-2.27,1.61-3.37
			c1.05-1.98,2.37-3.76,4.02-5.28c0.43-0.39,0.91-0.7,1.44-0.93c0.16-0.07,0.32-0.13,0.49-0.12c0.17,0.01,0.23,0.09,0.18,0.24
			c-0.08,0.24-0.21,0.45-0.35,0.66c-0.44,0.66-0.89,1.32-1.32,1.98c-0.58,0.88-1.19,1.75-1.61,2.72c-0.42,0.98-0.68,1.99-0.53,3.08
			c0.17,1.24,1.06,2.4,2.22,2.75c0.67,0.2,1.35,0.19,2.02-0.01c0.75-0.21,1.4-0.6,1.99-1.09c0.17-0.14,0.27-0.15,0.43,0.01
			c0.31,0.34,0.73,0.55,1.17,0.64c0.75,0.16,1.11-0.06,1.28-0.7c0.27-1.03,0.6-2.06,1.04-3.04c0.53-1.2,1.26-2.28,2.01-3.35
			c0.78-1.12,1.71-2.09,2.76-2.95c0.37-0.31,0.79-0.56,1.24-0.73c0.16-0.06,0.36-0.22,0.52-0.05c0.13,0.15-0.01,0.33-0.08,0.48
			c-0.14,0.3-0.27,0.6-0.45,0.87c-0.67,1.03-1.26,2.11-1.87,3.17c-0.67,1.15-1.18,2.36-1.52,3.65c-0.14,0.52-0.03,0.96,0.34,1.32
			c0.35,0.34,0.78,0.57,1.28,0.63c0.78,0.1,1.03-0.07,1.35-0.81c0.48-1.1,1-2.18,1.57-3.23c1.01-1.86,2.24-3.55,3.77-5.01
			c0.5-0.48,1.07-0.85,1.71-1.12c0.2-0.08,0.41-0.16,0.66-0.04c-0.05,0.28-0.19,0.52-0.35,0.75c-0.38,0.57-0.77,1.13-1.14,1.71
			c-0.63,0.98-1.32,1.92-1.8,2.99c-0.5,1.1-0.76,2.23-0.52,3.44c0.24,1.17,1.25,2.38,2.53,2.57c0.75,0.11,1.45,0.02,2.14-0.27
			c1.06-0.44,1.91-1.15,2.63-2.03c0.11-0.13,0.2-0.27,0.39-0.36c0.12,0.23,0.23,0.46,0.35,0.67c0.37,0.67,0.88,1.2,1.57,1.54
			c1.01,0.5,2.07,0.62,3.17,0.37c1.63-0.37,2.87-1.29,3.85-2.61c0.73-0.99,1.32-2.07,1.79-3.21C72.4,16.4,72.65,14.91,72.34,13.37z
			 M69.36,14.47c-0.37,1.58-0.89,3.11-1.83,4.45c-0.59,0.84-1.25,1.62-2.14,2.18c-0.23,0.14-0.46,0.26-0.72,0.33
			c-0.48,0.13-0.84-0.09-0.91-0.59c-0.03-0.24-0.01-0.5-0.01-0.74c0.01-1.16,0.27-2.27,0.75-3.33c0.6-1.33,1.35-2.55,2.43-3.55
			c0.4-0.37,0.82-0.71,1.31-0.95c0.52-0.26,0.91-0.09,1.09,0.46C69.53,13.3,69.5,13.89,69.36,14.47z"/>
		<path class="st0" d="M21.36,5.69c1.1,0.01,2.22,1.03,2.31,2.12c0.06,0.68-0.51,1.29-1.19,1.35c-0.95,0.09-2.31-0.81-2.47-2.11
			C19.93,6.4,20.4,5.63,21.36,5.69z"/>
		<path class="st0" d="M15.39,31.14c-0.04-0.22-0.27-0.35-0.4-0.2c-0.19,0.23-0.31,0.12-0.5,0.03c-0.67-0.32-1.33-0.17-1.81,0.38
			c-0.53,0.6-0.56,1.58-0.05,2.24c0.38,0.49,0.88,0.71,1.51,0.58c0.15-0.03,0.3-0.07,0.48-0.11c-0.03,0.8-0.52,1.12-1.18,0.82
			c-0.11-0.05-0.22-0.12-0.33-0.18c-0.05-0.03-0.11-0.05-0.17-0.01c-0.24,0.13-0.26,0.53-0.02,0.68c0.58,0.35,1.18,0.39,1.78,0.08
			c0.54-0.29,0.69-0.81,0.69-1.38c0-0.9,0-1.8,0-2.7C15.4,31.3,15.4,31.22,15.39,31.14z M14.54,33.34c-0.25,0.16-0.52,0.21-0.8,0.15
			c-0.45-0.09-0.8-0.64-0.73-1.1c0.08-0.57,0.44-0.89,0.97-0.86c0.44,0.02,0.69,0.27,0.7,0.7c0,0.12,0,0.25,0,0.37
			c0,0.06,0.01,0.13,0,0.19C14.64,32.98,14.76,33.2,14.54,33.34z"/>
		<path class="st0" d="M7.24,31.17C6.73,30.74,6.17,30.71,5.59,31c-0.15,0.08-0.25,0.1-0.41-0.03c-0.22-0.18-0.38-0.08-0.43,0.21
			c-0.02,0.12-0.04,0.25-0.04,0.37c0,1.26,0,2.52,0,3.77c0,0.2-0.01,0.41,0.26,0.47c0.32,0.07,0.51-0.07,0.51-0.41
			c0.01-0.43,0-0.86,0-1.3c0.37,0,0.65,0.18,0.97,0.12c0.69-0.14,1.14-0.54,1.32-1.23C7.96,32.28,7.8,31.66,7.24,31.17z M6.86,33.23
			c-0.31,0.32-0.68,0.34-1.07,0.22c-0.31-0.1-0.35-0.16-0.35-0.5c0-0.12,0-0.25,0-0.37v-0.19c0-0.5,0.17-0.76,0.53-0.85
			c0.48-0.11,0.88,0.09,1.07,0.52C7.2,32.44,7.12,32.95,6.86,33.23z"/>
		<path class="st0" d="M61.03,29.56c0-0.28-0.1-0.34-0.38-0.34c-0.27,0.01-0.34,0.05-0.35,0.32c-0.01,0.34,0,0.68-0.01,1.03
			c-0.01,0.34-0.04,0.38-0.34,0.3c-0.88-0.26-1.86,0.29-2.01,1.4c-0.09,0.66,0.1,1.24,0.63,1.65c0.52,0.41,1.09,0.39,1.65,0.04
			c0.16-0.1,0.24-0.09,0.33,0.07c0.07,0.12,0.21,0.13,0.33,0.08c0.11-0.04,0.15-0.15,0.15-0.27c0-0.09,0-0.19,0-0.28v-1.86h0
			C61.04,30.99,61.04,30.28,61.03,29.56z M59.92,33.42c-0.3,0.14-0.6,0.15-0.87-0.06c-0.4-0.31-0.52-0.95-0.25-1.38
			c0.26-0.41,0.85-0.59,1.31-0.38c0.12,0.06,0.2,0.13,0.2,0.28c0,0.19,0,0.37,0,0.56c0,0,0,0,0,0c0,0.11-0.01,0.22,0,0.32
			C60.35,33.08,60.19,33.29,59.92,33.42z"/>
		<path class="st0" d="M36.22,31.2c0-0.3-0.2-0.42-0.41-0.23c-0.18,0.16-0.29,0.1-0.45,0.02c-0.41-0.19-0.82-0.24-1.26-0.06
			c-0.82,0.33-1.09,1.29-0.91,2.07c0.16,0.7,0.95,1.44,1.93,1.15c0.1-0.03,0.2-0.1,0.32-0.05c0.09,0.14,0.05,0.3,0.05,0.45
			c0.01,0.31-0.01,0.62,0.01,0.93c0.01,0.27,0.08,0.32,0.34,0.33c0.29,0.01,0.38-0.06,0.38-0.33C36.23,34.05,36.23,32.63,36.22,31.2
			z M35.55,32.62v0.05c0,0.61-0.08,0.75-0.51,0.83c-0.49,0.1-0.94-0.12-1.1-0.56c-0.12-0.34-0.13-0.7,0.08-1.03
			c0.21-0.33,0.56-0.48,0.91-0.38c0.41,0.11,0.61,0.36,0.62,0.81C35.55,32.44,35.55,32.53,35.55,32.62z"/>
		<path class="st0" d="M55,32.67h0.93v0c0.3,0,0.59-0.01,0.89,0c0.21,0.01,0.3-0.08,0.31-0.3c0.06-1.22-1.03-1.7-1.8-1.53
			c-0.83,0.18-1.33,0.88-1.27,1.81c0.04,0.64,0.34,1.13,0.93,1.4c0.62,0.29,1.21,0.17,1.77-0.17c0.13-0.08,0.18-0.18,0.1-0.35
			c-0.16-0.31-0.2-0.33-0.53-0.17c-0.08,0.04-0.17,0.09-0.25,0.12c-0.52,0.16-1.09-0.08-1.25-0.53C54.77,32.78,54.8,32.67,55,32.67z
			 M54.84,31.93c0.12-0.28,0.32-0.45,0.63-0.48c0.32-0.04,0.62,0,0.83,0.28c0.08,0.11,0.12,0.22,0.07,0.35
			c-0.04,0.13-0.17,0.11-0.28,0.11c-0.17,0-0.34,0-0.51,0v0c-0.2,0-0.4,0-0.6,0C54.82,32.18,54.78,32.08,54.84,31.93z"/>
		<path class="st0" d="M42.23,32.68c0.31-0.01,0.62,0,0.93,0c0,0,0,0,0,0c0.28,0,0.56,0.01,0.84,0c0.31-0.01,0.33-0.03,0.34-0.36
			c0.03-0.96-0.87-1.68-1.82-1.46c-0.65,0.16-1.16,0.7-1.24,1.36c-0.09,0.71,0.09,1.33,0.72,1.75c0.65,0.43,1.4,0.28,1.94-0.04
			c0.17-0.1,0.23-0.23,0.11-0.42c-0.16-0.25-0.21-0.27-0.48-0.14c-0.08,0.04-0.16,0.09-0.25,0.12c-0.52,0.18-1.08-0.04-1.26-0.49
			C41.97,32.77,42.01,32.68,42.23,32.68z M42.13,31.79c0.28-0.44,1.06-0.49,1.37-0.09c0.09,0.11,0.15,0.24,0.08,0.38
			c-0.06,0.12-0.18,0.09-0.29,0.09c-0.17,0.01-0.34,0-0.51,0c-0.15,0-0.31,0.01-0.46,0c-0.1,0-0.23,0.04-0.28-0.09
			C42,31.98,42.07,31.88,42.13,31.79z"/>
		<path class="st0" d="M19.03,33.73c0-0.57,0-1.15,0-1.72c0-0.22-0.05-0.43-0.13-0.63c-0.08-0.21-0.22-0.38-0.44-0.46
			c-0.56-0.19-1.1-0.11-1.64,0.08c-0.19,0.07-0.17,0.22-0.12,0.39c0.05,0.18,0.13,0.27,0.33,0.21c0.21-0.06,0.42-0.11,0.64-0.13
			c0.23-0.03,0.44,0.02,0.56,0.25c0.06,0.11,0.12,0.23,0.04,0.35c-0.07,0.1-0.2,0.06-0.31,0.04c-0.32-0.08-0.62-0.02-0.91,0.09
			c-0.45,0.16-0.7,0.52-0.69,1c0.01,0.5,0.29,0.84,0.76,0.99c0.47,0.15,0.85-0.04,1.22-0.27c0.03,0.02,0.07,0.03,0.08,0.05
			c0.1,0.18,0.24,0.24,0.43,0.17C19.05,34.05,19.03,33.88,19.03,33.73z M17.96,33.5c-0.23,0.11-0.47,0.17-0.7,0.02
			c-0.26-0.18-0.25-0.61,0.02-0.8c0.28-0.2,0.58-0.17,0.88-0.06c0.18,0.06,0.13,0.22,0.15,0.43C18.35,33.29,18.16,33.41,17.96,33.5z
			"/>
		<path class="st0" d="M64.67,32.8c-0.03-0.37,0.05-0.82-0.07-1.27c-0.11-0.38-0.34-0.62-0.73-0.69c-0.47-0.08-0.93-0.02-1.37,0.13
			c-0.21,0.07-0.22,0.22-0.16,0.41c0.06,0.18,0.14,0.26,0.34,0.21c0.19-0.06,0.39-0.11,0.59-0.13c0.22-0.03,0.44,0,0.58,0.21
			c0.07,0.1,0.14,0.22,0.08,0.35c-0.07,0.16-0.22,0.1-0.33,0.08c-0.37-0.08-0.71-0.01-1.04,0.15c-0.41,0.2-0.58,0.55-0.55,0.99
			c0.02,0.46,0.29,0.78,0.72,0.93c0.37,0.12,0.71,0.05,1.03-0.13c0.16-0.08,0.24-0.17,0.42,0.02c0.2,0.22,0.48,0.07,0.49-0.25
			C64.68,33.5,64.67,33.19,64.67,32.8z M63.84,33.35c-0.01,0.02-0.03,0.03-0.04,0.04c-0.02,0.01-0.03,0.03-0.05,0.04
			c-0.02,0.02-0.04,0.03-0.06,0.04c-0.03,0.02-0.05,0.03-0.08,0.04c-0.01,0-0.01,0.01-0.02,0.01c-0.02,0.01-0.04,0.02-0.06,0.03
			c-0.03,0.01-0.05,0.02-0.07,0.02c-0.02,0.01-0.04,0.01-0.06,0.02c-0.03,0.01-0.06,0.01-0.08,0.01c-0.05,0.01-0.1,0.01-0.14,0
			c-0.05,0-0.09-0.01-0.13-0.02c-0.02-0.01-0.04-0.01-0.06-0.02c-0.02-0.01-0.04-0.02-0.05-0.03c-0.02-0.01-0.03-0.02-0.05-0.03
			c-0.01-0.01-0.02-0.02-0.03-0.03c-0.03-0.03-0.05-0.08-0.07-0.13c-0.07-0.19-0.07-0.39,0.09-0.56c0.21-0.22,0.75-0.28,1-0.1
			C63.99,32.78,63.99,33.2,63.84,33.35z"/>
		<path class="st0" d="M11.29,32.78c-0.03-0.38,0.05-0.83-0.08-1.28c-0.09-0.28-0.24-0.51-0.53-0.6c-0.54-0.18-1.07-0.09-1.59,0.09
			c-0.19,0.07-0.2,0.21-0.14,0.38c0.06,0.16,0.13,0.28,0.34,0.23c0.21-0.05,0.42-0.1,0.64-0.13c0.19-0.03,0.38-0.01,0.5,0.16
			c0.09,0.13,0.19,0.28,0.1,0.43c-0.07,0.12-0.23,0.07-0.35,0.04c-0.3-0.07-0.59-0.02-0.86,0.09c-0.58,0.22-0.81,0.72-0.63,1.31
			c0.17,0.53,0.68,0.83,1.24,0.7c0.16-0.04,0.32-0.1,0.48-0.18c0.14-0.07,0.23-0.07,0.37,0.03c0.29,0.21,0.5,0.08,0.51-0.27
			C11.3,33.47,11.29,33.16,11.29,32.78z M10.19,33.54c-0.24,0.1-0.48,0.13-0.7-0.04c-0.17-0.13-0.17-0.32-0.13-0.51
			c0.05-0.25,0.33-0.4,0.7-0.4c0.16,0.05,0.42-0.02,0.5,0.25C10.65,33.16,10.52,33.41,10.19,33.54z"/>
		<path class="st0" d="M28.69,30.81c-0.87,0-1.67,0.78-1.65,1.69c0.03,1.03,0.76,1.7,1.62,1.72c1.02,0.02,1.71-0.84,1.68-1.69
			C30.34,31.58,29.61,30.82,28.69,30.81z M28.7,33.51c-0.53,0-0.96-0.45-0.96-0.99c0-0.6,0.4-0.98,0.98-1
			c0.44-0.02,0.93,0.37,0.94,1C29.68,33.06,29.22,33.52,28.7,33.51z"/>
		<path class="st0" d="M53.02,32.51c0,0.43,0,0.87,0,1.3c0,0.13-0.02,0.25-0.16,0.3c-0.13,0.04-0.26,0.03-0.33-0.1
			c-0.09-0.15-0.19-0.12-0.3-0.05c-0.13,0.08-0.27,0.14-0.42,0.19c-0.75,0.21-1.53-0.16-1.57-1.08c-0.02-0.62-0.01-1.24-0.01-1.86
			c0-0.29,0.05-0.32,0.33-0.32c0.31-0.01,0.38,0.05,0.4,0.32c0.01,0.23,0,0.47,0,0.7c0,0.31-0.01,0.62,0,0.93
			c0.02,0.45,0.22,0.67,0.6,0.67c0.4,0,0.72-0.29,0.72-0.68c0.01-0.51,0-1.02,0-1.54c0-0.35,0.32-0.53,0.62-0.37
			c0.12,0.07,0.11,0.18,0.11,0.28C53.02,31.65,53.02,32.08,53.02,32.51z"/>
		<path class="st0" d="M40.23,32.5c0,0.42,0,0.84,0,1.26c0,0.14,0.01,0.29-0.15,0.36c-0.14,0.06-0.28,0.03-0.36-0.11
			c-0.1-0.17-0.19-0.1-0.3-0.02c-0.17,0.13-0.36,0.18-0.56,0.22c-0.71,0.14-1.34-0.28-1.4-1c-0.05-0.68-0.02-1.37-0.03-2.05
			c0-0.21,0.12-0.26,0.3-0.26c0.19,0,0.39-0.02,0.42,0.25c0.01,0.11,0.01,0.22,0.01,0.33c0,0.45-0.01,0.9,0,1.35
			c0.01,0.48,0.22,0.7,0.63,0.7c0.4-0.01,0.69-0.3,0.7-0.71c0.01-0.5,0-0.99,0-1.49c0-0.4,0.05-0.42,0.42-0.42
			c0.25,0,0.32,0.12,0.32,0.35C40.22,31.66,40.23,32.08,40.23,32.5z"/>
		<path class="st0" d="M73.81,20.07c-1.09,0-1.89,0.82-1.94,1.9c-0.05,0.95,0.8,1.99,1.92,1.99c1.01,0,1.91-0.78,1.96-1.92
			C75.8,20.97,74.89,20.08,73.81,20.07z M73.83,23.49c-0.83,0.05-1.5-0.66-1.49-1.5c0.01-0.83,0.65-1.45,1.48-1.47
			c0.66-0.01,1.51,0.59,1.44,1.49C75.3,22.7,74.76,23.44,73.83,23.49z"/>
		<path class="st0" d="M21.02,30.82c0.38-0.02,0.63,0.05,0.87,0.16c0.24,0.11,0.28,0.22,0.2,0.44c-0.08,0.21-0.22,0.22-0.41,0.14
			c-0.19-0.08-0.38-0.13-0.59-0.11c-0.15,0.01-0.28,0.07-0.33,0.22c-0.06,0.17,0.07,0.26,0.19,0.33c0.09,0.06,0.19,0.1,0.29,0.15
			c0.14,0.07,0.28,0.13,0.42,0.2c0.51,0.27,0.73,0.63,0.65,1.07c-0.07,0.41-0.46,0.73-0.98,0.79c-0.42,0.05-0.8-0.07-1.16-0.28
			c-0.18-0.1-0.16-0.24-0.07-0.4c0.08-0.15,0.17-0.27,0.36-0.16c0.17,0.09,0.35,0.14,0.53,0.18c0.14,0.04,0.28,0.03,0.41-0.03
			c0.23-0.11,0.26-0.31,0.08-0.48c-0.09-0.08-0.2-0.14-0.31-0.2c-0.19-0.1-0.39-0.19-0.58-0.3c-0.42-0.25-0.57-0.6-0.48-1.07
			c0.06-0.34,0.42-0.62,0.86-0.67C21,30.81,21.07,30.82,21.02,30.82z"/>
		<path class="st0" d="M66.77,30.82c0.3-0.01,0.58,0.06,0.85,0.2c0.17,0.09,0.18,0.23,0.11,0.4c-0.07,0.17-0.17,0.24-0.36,0.16
			c-0.18-0.08-0.38-0.14-0.59-0.13c-0.17,0.01-0.32,0.05-0.38,0.22c-0.07,0.19,0.09,0.28,0.22,0.36c0.19,0.11,0.39,0.19,0.58,0.29
			c0.15,0.07,0.3,0.16,0.43,0.27c0.52,0.48,0.38,1.24-0.27,1.52c-0.55,0.23-1.06,0.09-1.56-0.16c-0.2-0.1-0.14-0.24-0.06-0.39
			c0.08-0.15,0.15-0.28,0.35-0.17c0.16,0.09,0.34,0.14,0.53,0.18c0.11,0.03,0.21,0.04,0.32,0c0.12-0.04,0.24-0.09,0.27-0.23
			c0.03-0.14-0.04-0.24-0.15-0.32c-0.1-0.07-0.21-0.13-0.32-0.19c-0.18-0.09-0.36-0.17-0.54-0.28c-0.41-0.25-0.58-0.62-0.48-1.06
			c0.08-0.36,0.42-0.62,0.86-0.67C66.65,30.81,66.71,30.82,66.77,30.82z"/>
		<path class="st0" d="M25.3,31.64c0-0.68,0-1.37,0-2.05c0-0.31,0.09-0.38,0.39-0.37c0.19,0,0.29,0.08,0.31,0.27
			c0.01,0.11,0.01,0.22,0.01,0.32c0,1.24,0,2.48,0,3.73c0,0.09,0.01,0.19-0.01,0.28c-0.03,0.27-0.12,0.33-0.4,0.32
			c-0.25-0.01-0.32-0.13-0.32-0.36C25.3,33.07,25.3,32.36,25.3,31.64z"/>
		<path class="st0" d="M47.27,32.49c0-0.4,0-0.81,0-1.21c0-0.14-0.01-0.3,0.15-0.35c0.16-0.05,0.31-0.04,0.38,0.15
			c0.05,0.13,0.14,0.1,0.22,0.03c0.16-0.13,0.35-0.2,0.54-0.26c0.17-0.05,0.34-0.06,0.51-0.02c0.15,0.04,0.37,0.05,0.36,0.29
			c-0.01,0.26-0.24,0.45-0.47,0.43c-0.11-0.01-0.22-0.03-0.32-0.01c-0.37,0.04-0.58,0.26-0.59,0.64c-0.01,0.39,0,0.77,0,1.16
			c0,0.15-0.01,0.31-0.03,0.46c-0.05,0.32-0.08,0.35-0.37,0.34c-0.28,0-0.36-0.06-0.37-0.36C47.26,33.35,47.27,32.92,47.27,32.49
			C47.27,32.49,47.27,32.49,47.27,32.49z"/>
		<path class="st0" d="M74.48,21.91c0.23-0.3,0.03-0.71-0.35-0.8c-0.29-0.07-0.59-0.03-0.88-0.02c-0.09,0-0.15,0.06-0.15,0.15
			c-0.01,0.48-0.01,0.96,0,1.44c0,0.11,0.07,0.16,0.18,0.16c0.11,0,0.17-0.05,0.18-0.16c0-0.05,0-0.09,0.01-0.14
			c0.01-0.09,0-0.19,0.11-0.23c0.11-0.03,0.22,0,0.29,0.1c0.05,0.08,0.11,0.15,0.16,0.23c0.12,0.21,0.28,0.27,0.56,0.14
			C74.32,22.49,74.22,22.25,74.48,21.91z M73.73,21.93c-0.14,0.01-0.26-0.03-0.26-0.24c0-0.23,0.15-0.24,0.31-0.23
			c0.15,0.01,0.33-0.01,0.34,0.21C74.12,21.9,73.95,21.93,73.73,21.93z"/>
	</g>
</g>
<g id="Capa_6">
</g>
<g id="Capa_5">
</g>
</svg>
