<?xml version="1.0" encoding="utf-8"?>
<!-- Generator: Adobe Illustrator 24.0.3, SVG Export Plug-In . SVG Version: 6.00 Build 0)  -->
<svg version="1.1" xmlns="http://www.w3.org/2000/svg" xmlns:xlink="http://www.w3.org/1999/xlink" x="0px" y="0px"
	 viewBox="0 0 109.7 31.21" style="enable-background:new 0 0 109.7 31.21;" xml:space="preserve">
<style type="text/css">
	.st0{fill:#FFFFFF;}
	.st1{fill:url(#SVGID_1_);}
	.st2{fill:#E7004C;}
	.st3{fill:none;stroke:#00B2E3;stroke-miterlimit:10;}
	.st4{fill:url(#SVGID_2_);}
	.st5{fill:#FCFCFC;}
	.st6{fill:url(#SVGID_3_);}
	.st7{fill:url(#SVGID_4_);}
	.st8{opacity:0.8;fill:#E7004C;}
	.st9{opacity:0.7;fill:#E7004C;}
	.st10{opacity:0.7;}
	.st11{fill:#00B2E3;}
	.st12{opacity:0.8;fill:#00B2E3;}
	.st13{opacity:0.7;fill:#00B2E3;}
	.st14{fill:#BBBBBB;}
	.st15{opacity:0.8;fill:#BBBBBB;}
	.st16{opacity:0.7;fill:#BBBBBB;}
	.st17{fill:url(#SVGID_5_);}
	.st18{fill:url(#SVGID_6_);}
	.st19{fill:none;stroke:#E7004C;stroke-width:2;stroke-miterlimit:10;}
	.st20{fill:url(#SVGID_7_);}
	.st21{fill:url(#SVGID_8_);}
	.st22{fill:url(#SVGID_9_);}
	.st23{fill:none;stroke:#FFFFFF;stroke-miterlimit:10;}
	.st24{fill:none;stroke:#E7004C;stroke-miterlimit:10;}
	.st25{fill-rule:evenodd;clip-rule:evenodd;fill:#E7004C;}
	.st26{fill:none;stroke:#000000;stroke-miterlimit:10;}
	.st27{fill:#38A8E0;}
	.st28{clip-path:url(#SVGID_11_);fill:#00B2E3;}
	.st29{fill:none;stroke:#E7004C;stroke-width:3;stroke-miterlimit:10;}
	.st30{clip-path:url(#SVGID_13_);}
	.st31{fill:none;stroke:#FFFFFF;stroke-width:2;stroke-miterlimit:10;}
	.st32{fill:none;stroke:#FFFFFF;stroke-width:3;stroke-miterlimit:10;}
	.st33{clip-path:url(#SVGID_15_);}
	.st34{fill:url(#SVGID_16_);}
	.st35{fill:none;stroke:#FFFFFF;stroke-width:0.5;stroke-miterlimit:10;}
	.st36{clip-path:url(#SVGID_18_);fill:#00B2E3;}
	.st37{clip-path:url(#SVGID_20_);}
	.st38{clip-path:url(#SVGID_22_);}
	.st39{fill:url(#SVGID_23_);}
	.st40{clip-path:url(#SVGID_25_);}
	.st41{fill:url(#SVGID_26_);}
	.st42{fill:url(#SVGID_27_);}
	.st43{fill:url(#SVGID_28_);}
	.st44{fill:url(#SVGID_29_);}
	.st45{clip-path:url(#SVGID_31_);fill:#00B2E3;}
	.st46{clip-path:url(#SVGID_33_);}
	.st47{clip-path:url(#SVGID_35_);}
	.st48{fill:url(#SVGID_36_);}
	.st49{clip-path:url(#SVGID_38_);}
	.st50{clip-path:url(#SVGID_40_);}
	.st51{fill:#280210;}
	.st52{opacity:0.5;}
	.st53{opacity:0.6;}
	.st54{fill:url(#SVGID_41_);}
	.st55{fill:url(#SVGID_42_);}
	.st56{fill:url(#SVGID_43_);}
	.st57{fill:url(#SVGID_44_);}
	.st58{opacity:0.8;}
	.st59{opacity:0.9;}
	.st60{fill:url(#SVGID_45_);}
	.st61{clip-path:url(#SVGID_47_);}
	.st62{clip-path:url(#SVGID_49_);}
	.st63{fill:url(#SVGID_50_);}
	.st64{clip-path:url(#SVGID_52_);}
	.st65{fill:url(#SVGID_53_);}
	.st66{clip-path:url(#SVGID_55_);}
	.st67{fill:url(#SVGID_56_);}
	.st68{clip-path:url(#SVGID_58_);}
	.st69{clip-path:url(#SVGID_60_);fill:#00B2E3;}
	.st70{clip-path:url(#SVGID_62_);}
	.st71{clip-path:url(#SVGID_64_);}
	.st72{fill:none;stroke:#FFFFFF;stroke-width:5;stroke-miterlimit:10;}
	.st73{clip-path:url(#SVGID_66_);fill:#00B2E3;}
	.st74{clip-path:url(#SVGID_68_);}
	.st75{clip-path:url(#SVGID_70_);}
	.st76{clip-path:url(#SVGID_72_);fill:#00B2E3;}
	.st77{clip-path:url(#SVGID_74_);}
	.st78{fill:#5B0323;}
	.st79{fill:url(#SVGID_75_);}
	.st80{fill:url(#SVGID_76_);}
	.st81{fill:url(#SVGID_77_);}
	.st82{clip-path:url(#SVGID_80_);fill:#00B2E3;}
	.st83{clip-path:url(#SVGID_84_);}
	.st84{clip-path:url(#SVGID_86_);}
	.st85{fill-rule:evenodd;clip-rule:evenodd;fill:#FFFFFF;}
	.st86{fill:#E5E5E5;}
	.st87{clip-path:url(#SVGID_88_);}
	.st88{fill-rule:evenodd;clip-rule:evenodd;fill:none;stroke:#E7004C;stroke-width:3;stroke-miterlimit:10;}
	.st89{fill:#070101;}
	.st90{fill:none;stroke:#068FFF;stroke-width:5;stroke-miterlimit:10;}
</style>
<g id="Capa_2">
</g>
<g id="Capa_1">
</g>
<g id="Capa_3">
</g>
<g id="Capa_4">
	<g>
		<g>
			<g>
				<polygon class="st0" points="10.49,21.42 7.85,13.36 5.2,21.42 3.39,21.42 0,10.89 1.95,10.89 4.38,19.18 7.01,11 8.71,11 
					11.36,19.17 13.85,10.89 15.73,10.89 12.3,21.42 				"/>
			</g>
			<g>
				<path class="st0" d="M23.45,21.54c-3.07,0-5.48-2.34-5.48-5.33v-0.04c0-3.03,2.42-5.4,5.52-5.4c3.08,0,5.5,2.35,5.5,5.35v0.04
					C28.99,19.18,26.56,21.54,23.45,21.54z M23.45,12.43c-2.06,0-3.56,1.57-3.56,3.74v0.04c0,2.12,1.58,3.79,3.6,3.79
					c2.07,0,3.58-1.57,3.58-3.74v-0.04C27.07,14.06,25.52,12.43,23.45,12.43z"/>
			</g>
			<g>
				<path class="st0" d="M32.61,21.34V10.88h1.92v2.32c0,0,1.82-2.37,3.85-2.37v2.07c-2.41,0.06-3.85,1.77-3.85,4.59v3.85H32.61z"/>
			</g>
			<g>
				<path class="st0" d="M53.46,16.14V16.1c0-2.92,2.31-5.41,5.31-5.41c1.91,0,3.13,0.86,4.14,1.91l-0.47,0.47
					c-0.91-0.97-2.04-1.77-3.68-1.77c-2.61,0-4.59,2.16-4.59,4.78v0.04c0,2.61,2.04,4.82,4.63,4.82c1.65,0,2.82-0.84,3.73-1.85
					l0.47,0.41c-1.01,1.17-2.31,2.06-4.24,2.06C55.77,21.55,53.46,19.08,53.46,16.14z"/>
			</g>
			<g>
				<path class="st0" d="M66.45,1.46h0.68v19.85h-0.68V1.46z"/>
			</g>
			<g>
				<path class="st0" d="M70.85,16.16v-0.04c0-2.9,2.2-5.43,5.39-5.43c3.17,0,5.35,2.49,5.35,5.39v0.04c0,2.9-2.18,5.43-5.37,5.43
					C73.06,21.55,70.85,19.06,70.85,16.16z M80.9,16.14V16.1c0-2.61-2-4.8-4.69-4.8c-2.74,0-4.63,2.18-4.63,4.8v0.04
					c0,2.61,1.98,4.8,4.67,4.8C78.99,20.93,80.9,18.75,80.9,16.14z"/>
			</g>
			<g>
				<path class="st0" d="M84.99,17v-6.07h0.66v5.97c0,2.41,1.3,4.03,3.71,4.03c2.18,0,3.91-1.79,3.91-4.16v-5.85h0.66v10.37h-0.66
					v-2.47c-0.47,1.24-1.77,2.72-3.99,2.72C86.54,21.55,84.99,19.7,84.99,17z"/>
			</g>
			<g>
				<path class="st0" d="M97.59,16.14V16.1c0-3.15,2.33-5.41,5.13-5.41c2.28,0,3.89,1.36,4.59,3.07V1.41h0.66v19.9h-0.66v-2.86
					c-0.72,1.73-2.33,3.11-4.59,3.11C99.92,21.55,97.59,19.31,97.59,16.14z M107.35,16.14V16.1c0-2.68-2.04-4.78-4.57-4.78
					c-2.61,0-4.49,1.98-4.49,4.76v0.04c0,2.74,1.91,4.8,4.49,4.8C105.33,20.91,107.35,18.81,107.35,16.14z"/>
			</g>
			<g>
				<polygon class="st0" points="46.83,18.49 46.83,21.36 48.74,21.36 48.74,1.82 46.83,1.82 46.83,16.38 				"/>
			</g>
			<g>
				<polygon class="st0" points="46.17,15.95 42.35,10.88 40.12,10.88 44.05,15.89 40,21.36 42.18,21.36 				"/>
			</g>
		</g>
		<g>
			<g>
				<path class="st0" d="M54.82,26.21l0.64,1.74c0.07,0.19,0.14,0.42,0.19,0.6h0.01c0.05-0.18,0.12-0.4,0.19-0.61l0.58-1.72H57
					l-0.8,2.09c-0.38,1.01-0.64,1.52-1.01,1.84c-0.26,0.23-0.52,0.32-0.66,0.35l-0.13-0.45c0.13-0.04,0.31-0.13,0.47-0.26
					c0.15-0.12,0.33-0.32,0.45-0.59c0.02-0.05,0.04-0.1,0.04-0.13s-0.01-0.07-0.04-0.14l-1.09-2.71H54.82z"/>
			</g>
			<g>
				<path class="st0" d="M60.69,27.65c0,1.09-0.75,1.56-1.46,1.56c-0.8,0-1.41-0.58-1.41-1.51c0-0.98,0.64-1.56,1.46-1.56
					C60.12,26.14,60.69,26.75,60.69,27.65z M58.36,27.68c0,0.64,0.37,1.13,0.89,1.13c0.51,0,0.89-0.48,0.89-1.14
					c0-0.5-0.25-1.13-0.88-1.13C58.64,26.54,58.36,27.12,58.36,27.68z"/>
			</g>
			<g>
				<path class="st0" d="M64.43,28.34c0,0.3,0.01,0.57,0.02,0.8h-0.47l-0.03-0.48h-0.01c-0.14,0.24-0.45,0.55-0.97,0.55
					c-0.46,0-1.01-0.25-1.01-1.29v-1.72h0.53v1.63c0,0.56,0.17,0.93,0.66,0.93c0.36,0,0.61-0.25,0.7-0.49
					c0.03-0.08,0.05-0.18,0.05-0.27v-1.8h0.53V28.34z"/>
			</g>
			<g>
				<path class="st0" d="M65.93,27.12c0-0.35-0.01-0.64-0.02-0.92h0.47l0.02,0.58h0.02c0.13-0.39,0.46-0.64,0.81-0.64
					c0.06,0,0.1,0.01,0.15,0.02v0.5c-0.05-0.01-0.11-0.02-0.18-0.02c-0.38,0-0.64,0.29-0.72,0.69c-0.01,0.07-0.02,0.16-0.02,0.25
					v1.57h-0.53V27.12z"/>
			</g>
			<g>
				<path class="st0" d="M70.62,26.21l0.58,1.65c0.1,0.27,0.18,0.51,0.24,0.75h0.02c0.07-0.24,0.15-0.49,0.25-0.75l0.57-1.65h0.56
					l-1.15,2.94h-0.51l-1.12-2.94H70.62z"/>
			</g>
			<g>
				<path class="st0" d="M74.54,25.38c0.01,0.18-0.13,0.33-0.34,0.33c-0.19,0-0.32-0.15-0.32-0.33c0-0.19,0.14-0.33,0.33-0.33
					C74.41,25.05,74.54,25.19,74.54,25.38z M73.94,29.15v-2.94h0.53v2.94H73.94z"/>
			</g>
			<g>
				<path class="st0" d="M75.97,27.12c0-0.35-0.01-0.64-0.02-0.92h0.47l0.02,0.58h0.02c0.13-0.39,0.46-0.64,0.81-0.64
					c0.06,0,0.1,0.01,0.15,0.02v0.5c-0.05-0.01-0.11-0.02-0.18-0.02c-0.38,0-0.64,0.29-0.72,0.69c-0.01,0.07-0.02,0.16-0.02,0.25
					v1.57h-0.53V27.12z"/>
			</g>
			<g>
				<path class="st0" d="M79.35,25.36v0.84h0.76v0.41h-0.76v1.58c0,0.36,0.1,0.57,0.4,0.57c0.14,0,0.24-0.02,0.31-0.04l0.02,0.4
					c-0.1,0.04-0.27,0.07-0.47,0.07c-0.25,0-0.45-0.08-0.58-0.22c-0.15-0.16-0.21-0.42-0.21-0.76v-1.6h-0.46v-0.41h0.46v-0.7
					L79.35,25.36z"/>
			</g>
			<g>
				<path class="st0" d="M83.78,28.34c0,0.3,0.01,0.57,0.02,0.8h-0.47l-0.03-0.48h-0.01c-0.14,0.24-0.45,0.55-0.97,0.55
					c-0.46,0-1.01-0.25-1.01-1.29v-1.72h0.53v1.63c0,0.56,0.17,0.93,0.66,0.93c0.36,0,0.61-0.25,0.7-0.49
					c0.03-0.08,0.05-0.18,0.05-0.27v-1.8h0.53V28.34z"/>
			</g>
			<g>
				<path class="st0" d="M86.91,29.15l-0.04-0.37h-0.02c-0.16,0.23-0.48,0.44-0.9,0.44c-0.59,0-0.9-0.42-0.9-0.84
					c0-0.71,0.63-1.1,1.77-1.09v-0.06c0-0.24-0.07-0.68-0.67-0.68c-0.27,0-0.56,0.08-0.76,0.22l-0.12-0.35
					c0.24-0.16,0.59-0.26,0.96-0.26c0.9,0,1.12,0.61,1.12,1.2v1.1c0,0.25,0.01,0.5,0.05,0.7H86.91z M86.83,27.65
					c-0.58-0.01-1.24,0.09-1.24,0.66c0,0.35,0.23,0.51,0.5,0.51c0.38,0,0.63-0.24,0.71-0.49c0.02-0.05,0.03-0.12,0.03-0.17V27.65z"
					/>
			</g>
			<g>
				<path class="st0" d="M88.81,24.84h0.53v4.31h-0.53V24.84z"/>
			</g>
			<g>
				<path class="st0" d="M95.41,27.65c0,1.09-0.75,1.56-1.46,1.56c-0.8,0-1.41-0.58-1.41-1.51c0-0.98,0.64-1.56,1.46-1.56
					C94.84,26.14,95.41,26.75,95.41,27.65z M93.08,27.68c0,0.64,0.37,1.13,0.89,1.13c0.51,0,0.89-0.48,0.89-1.14
					c0-0.5-0.25-1.13-0.88-1.13C93.35,26.54,93.08,27.12,93.08,27.68z"/>
			</g>
			<g>
				<path class="st0" d="M100.37,25.36c-0.13-0.08-0.35-0.16-0.59-0.16c-0.56,0-0.73,0.39-0.73,0.86v0.15h1.71v2.94h-0.53v-2.53
					h-1.17v2.53h-0.53v-2.53h-1.24v2.53h-0.53v-2.53h-0.41v-0.41h0.41V26.1c0-0.37,0.1-0.73,0.35-0.98
					c0.17-0.18,0.42-0.29,0.75-0.29c0.2,0,0.41,0.07,0.52,0.13l-0.15,0.39c-0.09-0.05-0.23-0.1-0.37-0.1
					c-0.17,0-0.29,0.06-0.38,0.16c-0.15,0.16-0.19,0.42-0.19,0.68v0.12h1.24v-0.16c0-0.78,0.46-1.28,1.29-1.28
					c0.27,0,0.57,0.08,0.73,0.19L100.37,25.36z"/>
			</g>
			<g>
				<path class="st0" d="M104.34,29.04c-0.14,0.07-0.45,0.17-0.84,0.17c-0.89,0-1.46-0.6-1.46-1.5c0-0.9,0.62-1.56,1.58-1.56
					c0.32,0,0.59,0.08,0.74,0.15l-0.12,0.41c-0.13-0.07-0.33-0.14-0.62-0.14c-0.67,0-1.04,0.5-1.04,1.11c0,0.68,0.44,1.1,1.02,1.1
					c0.3,0,0.5-0.08,0.66-0.15L104.34,29.04z"/>
			</g>
			<g>
				<path class="st0" d="M105.83,27.77c0.01,0.72,0.47,1.02,1.01,1.02c0.38,0,0.61-0.07,0.81-0.15l0.09,0.38
					c-0.19,0.08-0.51,0.18-0.98,0.18c-0.9,0-1.44-0.59-1.44-1.48c0-0.89,0.52-1.58,1.38-1.58c0.96,0,1.21,0.84,1.21,1.38
					c0,0.11-0.01,0.19-0.02,0.25H105.83z M107.4,27.39c0.01-0.34-0.14-0.87-0.74-0.87c-0.54,0-0.78,0.5-0.82,0.87H107.4z"/>
			</g>
		</g>
	</g>
</g>
<g id="Capa_6">
</g>
<g id="Capa_5">
</g>
</svg>
