<?xml version="1.0" encoding="utf-8"?>
<!-- Generator: Adobe Illustrator 24.0.3, SVG Export Plug-In . SVG Version: 6.00 Build 0)  -->
<svg version="1.1" xmlns="http://www.w3.org/2000/svg" xmlns:xlink="http://www.w3.org/1999/xlink" x="0px" y="0px"
	 viewBox="0 0 89.54 18.77" style="enable-background:new 0 0 89.54 18.77;" xml:space="preserve">
<style type="text/css">
	.st0{fill:#FFFFFF;}
	.st1{fill:url(#SVGID_1_);}
	.st2{fill:#E7004C;}
	.st3{fill:none;stroke:#00B2E3;stroke-miterlimit:10;}
	.st4{fill:url(#SVGID_2_);}
	.st5{fill:#FCFCFC;}
	.st6{fill:url(#SVGID_3_);}
	.st7{fill:url(#SVGID_4_);}
	.st8{opacity:0.8;fill:#E7004C;}
	.st9{opacity:0.7;fill:#E7004C;}
	.st10{opacity:0.7;}
	.st11{fill:#00B2E3;}
	.st12{opacity:0.8;fill:#00B2E3;}
	.st13{opacity:0.7;fill:#00B2E3;}
	.st14{fill:#BBBBBB;}
	.st15{opacity:0.8;fill:#BBBBBB;}
	.st16{opacity:0.7;fill:#BBBBBB;}
	.st17{fill:url(#SVGID_5_);}
	.st18{fill:url(#SVGID_6_);}
	.st19{fill:none;stroke:#E7004C;stroke-width:2;stroke-miterlimit:10;}
	.st20{fill:url(#SVGID_7_);}
	.st21{fill:url(#SVGID_8_);}
	.st22{fill:url(#SVGID_9_);}
	.st23{fill:none;stroke:#FFFFFF;stroke-miterlimit:10;}
	.st24{fill:none;stroke:#E7004C;stroke-miterlimit:10;}
	.st25{fill-rule:evenodd;clip-rule:evenodd;fill:#E7004C;}
	.st26{fill:none;stroke:#000000;stroke-miterlimit:10;}
	.st27{fill:#38A8E0;}
	.st28{clip-path:url(#SVGID_11_);fill:#00B2E3;}
	.st29{fill:none;stroke:#E7004C;stroke-width:3;stroke-miterlimit:10;}
	.st30{clip-path:url(#SVGID_13_);}
	.st31{fill:none;stroke:#FFFFFF;stroke-width:2;stroke-miterlimit:10;}
	.st32{fill:none;stroke:#FFFFFF;stroke-width:3;stroke-miterlimit:10;}
	.st33{clip-path:url(#SVGID_15_);}
	.st34{fill:url(#SVGID_16_);}
	.st35{fill:none;stroke:#FFFFFF;stroke-width:0.5;stroke-miterlimit:10;}
	.st36{clip-path:url(#SVGID_18_);fill:#00B2E3;}
	.st37{clip-path:url(#SVGID_20_);}
	.st38{clip-path:url(#SVGID_22_);}
	.st39{fill:url(#SVGID_23_);}
	.st40{clip-path:url(#SVGID_25_);}
	.st41{fill:url(#SVGID_26_);}
	.st42{fill:url(#SVGID_27_);}
	.st43{fill:url(#SVGID_28_);}
	.st44{fill:url(#SVGID_29_);}
	.st45{clip-path:url(#SVGID_31_);fill:#00B2E3;}
	.st46{clip-path:url(#SVGID_33_);}
	.st47{clip-path:url(#SVGID_35_);}
	.st48{fill:url(#SVGID_36_);}
	.st49{clip-path:url(#SVGID_38_);}
	.st50{clip-path:url(#SVGID_40_);}
	.st51{fill:#280210;}
	.st52{opacity:0.5;}
	.st53{opacity:0.6;}
	.st54{fill:url(#SVGID_41_);}
	.st55{fill:url(#SVGID_42_);}
	.st56{fill:url(#SVGID_43_);}
	.st57{fill:url(#SVGID_44_);}
	.st58{opacity:0.8;}
	.st59{opacity:0.9;}
	.st60{fill:url(#SVGID_45_);}
	.st61{clip-path:url(#SVGID_47_);}
	.st62{clip-path:url(#SVGID_49_);}
	.st63{fill:url(#SVGID_50_);}
	.st64{clip-path:url(#SVGID_52_);}
	.st65{fill:url(#SVGID_53_);}
	.st66{clip-path:url(#SVGID_55_);}
	.st67{fill:url(#SVGID_56_);}
	.st68{clip-path:url(#SVGID_58_);}
	.st69{clip-path:url(#SVGID_60_);fill:#00B2E3;}
	.st70{clip-path:url(#SVGID_62_);}
	.st71{clip-path:url(#SVGID_64_);}
	.st72{fill:none;stroke:#FFFFFF;stroke-width:5;stroke-miterlimit:10;}
	.st73{clip-path:url(#SVGID_66_);fill:#00B2E3;}
	.st74{clip-path:url(#SVGID_68_);}
	.st75{clip-path:url(#SVGID_70_);}
	.st76{clip-path:url(#SVGID_72_);fill:#00B2E3;}
	.st77{clip-path:url(#SVGID_74_);}
	.st78{fill:#5B0323;}
	.st79{fill:url(#SVGID_75_);}
	.st80{fill:url(#SVGID_76_);}
	.st81{fill:url(#SVGID_77_);}
	.st82{clip-path:url(#SVGID_80_);fill:#00B2E3;}
	.st83{clip-path:url(#SVGID_84_);}
	.st84{clip-path:url(#SVGID_86_);}
	.st85{fill-rule:evenodd;clip-rule:evenodd;fill:#FFFFFF;}
	.st86{fill:#E5E5E5;}
	.st87{clip-path:url(#SVGID_88_);}
	.st88{fill-rule:evenodd;clip-rule:evenodd;fill:none;stroke:#E7004C;stroke-width:3;stroke-miterlimit:10;}
	.st89{fill:#070101;}
	.st90{fill:none;stroke:#068FFF;stroke-width:5;stroke-miterlimit:10;}
</style>
<g id="Capa_2">
</g>
<g id="Capa_1">
</g>
<g id="Capa_3">
</g>
<g id="Capa_4">
	<g id="gwu76Y.tif_1_">
		<g>
			<path class="st0" d="M40.12,17.11c0-0.27-0.02-0.52,0.01-0.77c0.01-0.06,0.17-0.13,0.27-0.15c0.48-0.06,0.97-0.1,1.45-0.17
				c0.75-0.11,0.9-0.33,0.63-1.03c-0.38-0.96-0.85-1.88-1.23-2.84c-0.18-0.45-0.41-0.59-0.9-0.58c-1.95,0.03-3.89,0.02-5.84,0.01
				c-0.21,0-0.32,0.06-0.42,0.25c-0.44,0.88-0.9,1.74-1.33,2.62c-0.12,0.24-0.17,0.52-0.19,0.79c-0.04,0.38,0.1,0.6,0.49,0.69
				c0.5,0.12,1.01,0.17,1.51,0.25c0.14,0.02,0.29,0.03,0.46,0.05c-0.02,0.3-0.04,0.59-0.05,0.89c-5.3,0-10.59,0-15.92,0
				c0-0.27-0.01-0.55,0.01-0.82c0-0.04,0.14-0.09,0.22-0.1c0.42-0.04,0.85-0.05,1.27-0.11c0.66-0.1,0.83-0.29,0.91-0.94
				c0.03-0.28,0.05-0.56,0.06-0.84c0-3.35,0-6.7,0-10.04c0-0.08,0-0.16,0-0.25C21.5,4,21.47,3.99,21.45,3.98
				c-2.64,4.52-5.27,9.05-7.93,13.62c-2.58-4.62-5.14-9.21-7.71-13.8c-0.02,0-0.04,0.01-0.06,0.01C5.74,3.88,5.73,3.95,5.73,4.02
				c0,3.24-0.01,6.47,0.01,9.71c0,0.53,0.1,1.07,0.19,1.59c0.06,0.41,0.34,0.65,0.75,0.7c0.56,0.07,1.13,0.12,1.7,0.18
				c0.1,0.01,0.2,0.02,0.31,0.03c0,0.3,0,0.58,0,0.88c-2.47,0-4.94,0-7.42,0c0-0.3,0-0.59,0-0.93c0.13,0,0.23,0.01,0.32,0
				c0.56-0.05,1.12-0.09,1.68-0.16c0.4-0.05,0.67-0.29,0.75-0.7c0.08-0.46,0.18-0.93,0.19-1.39c0.02-3.65,0.01-7.29,0-10.94
				c0-0.3-0.06-0.61-0.11-0.91C4.03,1.74,3.82,1.51,3.47,1.45C3.08,1.39,2.7,1.33,2.31,1.3C2.1,1.28,2.03,1.22,2.03,1.01
				c0-0.6-0.01-0.61,0.61-0.61c1.78,0,3.57,0,5.35-0.01c0.2,0,0.3,0.07,0.4,0.24c2.13,3.83,4.27,7.66,6.41,11.49
				c0.05,0.1,0.11,0.19,0.19,0.32c0.07-0.11,0.13-0.2,0.18-0.29c2.21-3.83,4.43-7.67,6.63-11.51c0.11-0.19,0.22-0.25,0.44-0.25
				c1.76,0.02,3.52,0.02,5.28,0.02c0.22,0,0.29,0.07,0.29,0.29c-0.01,0.56,0,0.56-0.57,0.59c-0.25,0.02-0.49,0.06-0.73,0.1
				c-0.56,0.11-0.76,0.31-0.84,0.87c-0.03,0.24-0.06,0.48-0.06,0.71c0,3.85-0.01,7.7,0,11.55c0,0.34,0.08,0.67,0.14,1.01
				c0.05,0.26,0.24,0.41,0.49,0.47c1.19,0.27,2.35,0.23,3.5-0.21c0.43-0.16,0.73-0.48,0.97-0.85c0.47-0.74,0.92-1.5,1.36-2.26
				c2.36-4.1,4.71-8.2,7.05-12.3c0.12-0.2,0.24-0.27,0.47-0.29c0.39-0.03,0.59,0.1,0.76,0.47c1.93,4.12,3.88,8.24,5.82,12.36
				c0.33,0.7,0.63,1.4,1.22,1.93c1.1,1.01,2.39,1.45,3.88,1.27c0.24-0.03,0.49-0.08,0.73-0.12c0.35-0.05,0.56-0.26,0.62-0.59
				c0.07-0.44,0.13-0.88,0.13-1.32c0.01-3.57,0.01-7.14,0-10.71c0-0.45-0.06-0.9-0.13-1.35c-0.05-0.33-0.27-0.55-0.6-0.61
				c-0.33-0.06-0.67-0.12-1.01-0.15c-0.43-0.03-0.43-0.02-0.43-0.46c0-0.15,0-0.3,0-0.47c0.08-0.01,0.13-0.03,0.19-0.03
				c3.5-0.02,7-0.06,10.5-0.03c1.52,0.01,3.02,0.28,4.4,1.01c0.83,0.44,1.51,1.03,1.85,1.94c0.52,1.39,0.1,2.8-1.08,3.7
				c-0.95,0.72-2.05,1.06-3.19,1.31c-0.32,0.07-0.64,0.11-0.96,0.16c-0.05,0.01-0.09,0.03-0.2,0.07c0.31,0.1,0.56,0.18,0.8,0.26
				c1.17,0.38,2.25,0.94,2.97,1.99c0.38,0.55,0.67,1.17,0.99,1.76c0.26,0.47,0.48,0.96,0.77,1.41c0.21,0.32,0.49,0.61,0.77,0.88
				c0.24,0.23,0.55,0.37,0.9,0.37c0.71,0.01,1.11-0.32,1.21-1.02c0.03-0.19,0.09-0.25,0.27-0.24c0.34,0.01,0.68,0,1.02,0
				c0.03,1.26-0.53,2.33-1.7,2.87c-0.91,0.42-1.87,0.5-2.85,0.43c-0.44-0.03-0.88-0.1-1.31-0.21c-1.45-0.36-2.4-1.31-2.93-2.66
				c-0.35-0.9-0.59-1.85-0.88-2.77c-0.1-0.32-0.2-0.65-0.32-0.97c-0.35-0.98-1.06-1.52-2.08-1.6c-0.8-0.07-1.6-0.07-2.4-0.1
				c-0.2-0.01-0.26,0.08-0.26,0.28c0.01,1.83,0,3.66,0.01,5.48c0,0.31,0.08,0.62,0.15,0.93c0.05,0.22,0.2,0.36,0.42,0.4
				c0.49,0.07,0.98,0.15,1.47,0.19c0.42,0.04,0.42,0.01,0.45,0.44c0.01,0.16,0,0.32,0,0.5C53.09,17.11,46.63,17.11,40.12,17.11z
				 M57.07,4.65c0,0.96,0,1.93,0,2.89c0,0.38,0,0.39,0.37,0.39c0.55-0.01,1.09-0.01,1.64-0.05c0.83-0.06,1.64-0.18,2.43-0.45
				c1.19-0.41,2.05-1.13,2.21-2.45c0.19-1.58-0.32-2.84-2.07-3.33c-1.4-0.39-2.83-0.37-4.27-0.26c-0.28,0.02-0.32,0.13-0.32,0.38
				C57.07,2.72,57.07,3.68,57.07,4.65z M37.95,4.79c-1.07,1.96-2.1,3.86-3.15,5.78c1.94,0,3.82,0,5.75,0
				C39.69,8.64,38.83,6.74,37.95,4.79z"/>
			<path class="st0" d="M87.94,0.22c-0.59,1.59-0.45,3.22-0.32,4.86c-0.47,0-0.9,0-1.35,0c-0.03-0.28-0.05-0.57-0.1-0.85
				c-0.27-1.52-1.2-2.49-2.63-2.96c-1.41-0.46-2.85-0.51-4.29-0.12c-0.8,0.22-1.51,0.62-1.91,1.39c-0.49,0.96-0.35,1.72,0.48,2.35
				c0.83,0.62,1.79,1,2.77,1.29c1.23,0.37,2.48,0.68,3.72,1.04c0.97,0.28,1.92,0.65,2.82,1.12c2.83,1.48,2.52,4.57,1.32,6.18
				c-0.99,1.33-2.34,2.1-3.91,2.51c-2.39,0.62-4.75,0.49-7.05-0.42c-0.39-0.15-0.78-0.31-1.18-0.43c-0.13-0.04-0.35-0.03-0.44,0.05
				c-0.25,0.2-0.46,0.45-0.66,0.7c-0.1,0.12-0.18,0.18-0.33,0.18c-0.34-0.01-0.68,0-1.06,0c0.44-1.95,0.28-3.88,0.06-5.84
				c0.45,0,0.87-0.01,1.28,0.01c0.05,0,0.13,0.16,0.14,0.25c0.12,0.85,0.37,1.65,0.84,2.37c0.89,1.36,2.18,2.13,3.76,2.44
				c1.21,0.24,2.43,0.26,3.62-0.1c1.01-0.3,1.82-0.86,2.17-1.92c0.32-0.97,0.15-1.83-0.62-2.54c-0.65-0.6-1.42-0.99-2.22-1.34
				c-1.36-0.59-2.8-0.95-4.24-1.34c-1.03-0.28-2.02-0.66-2.92-1.26c-2.34-1.57-2.13-4.33-0.34-5.92c1.11-0.99,2.43-1.53,3.88-1.77
				c1.86-0.31,3.67-0.08,5.45,0.49c0.29,0.09,0.59,0.16,0.89,0.24c0.43,0.11,0.6,0.05,0.77-0.36c0.12-0.29,0.29-0.37,0.58-0.34
				c0.3,0.03,0.6,0.01,0.9,0.01C87.84,0.18,87.87,0.19,87.94,0.22z"/>
		</g>
	</g>
</g>
<g id="Capa_6">
</g>
<g id="Capa_5">
</g>
</svg>
