<?xml version="1.0" encoding="utf-8"?>
<!-- Generator: Adobe Illustrator 24.0.3, SVG Export Plug-In . SVG Version: 6.00 Build 0)  -->
<svg version="1.1" xmlns="http://www.w3.org/2000/svg" xmlns:xlink="http://www.w3.org/1999/xlink" x="0px" y="0px"
	 viewBox="0 0 121.84 34.28" style="enable-background:new 0 0 121.84 34.28;" xml:space="preserve">
<style type="text/css">
	.st0{fill:#FFFFFF;}
	.st1{fill:url(#SVGID_1_);}
	.st2{fill:#E7004C;}
	.st3{fill:none;stroke:#00B2E3;stroke-miterlimit:10;}
	.st4{fill:url(#SVGID_2_);}
	.st5{fill:#FCFCFC;}
	.st6{fill:url(#SVGID_3_);}
	.st7{fill:url(#SVGID_4_);}
	.st8{opacity:0.8;fill:#E7004C;}
	.st9{opacity:0.7;fill:#E7004C;}
	.st10{opacity:0.7;}
	.st11{fill:#00B2E3;}
	.st12{opacity:0.8;fill:#00B2E3;}
	.st13{opacity:0.7;fill:#00B2E3;}
	.st14{fill:#BBBBBB;}
	.st15{opacity:0.8;fill:#BBBBBB;}
	.st16{opacity:0.7;fill:#BBBBBB;}
	.st17{fill:url(#SVGID_5_);}
	.st18{fill:url(#SVGID_6_);}
	.st19{fill:none;stroke:#E7004C;stroke-width:2;stroke-miterlimit:10;}
	.st20{fill:url(#SVGID_7_);}
	.st21{fill:url(#SVGID_8_);}
	.st22{fill:url(#SVGID_9_);}
	.st23{fill:none;stroke:#FFFFFF;stroke-miterlimit:10;}
	.st24{fill:none;stroke:#E7004C;stroke-miterlimit:10;}
	.st25{fill-rule:evenodd;clip-rule:evenodd;fill:#E7004C;}
	.st26{fill:none;stroke:#000000;stroke-miterlimit:10;}
	.st27{fill:#38A8E0;}
	.st28{clip-path:url(#SVGID_11_);fill:#00B2E3;}
	.st29{fill:none;stroke:#E7004C;stroke-width:3;stroke-miterlimit:10;}
	.st30{clip-path:url(#SVGID_13_);}
	.st31{fill:none;stroke:#FFFFFF;stroke-width:2;stroke-miterlimit:10;}
	.st32{fill:none;stroke:#FFFFFF;stroke-width:3;stroke-miterlimit:10;}
	.st33{clip-path:url(#SVGID_15_);}
	.st34{fill:url(#SVGID_16_);}
	.st35{fill:none;stroke:#FFFFFF;stroke-width:0.5;stroke-miterlimit:10;}
	.st36{clip-path:url(#SVGID_18_);fill:#00B2E3;}
	.st37{clip-path:url(#SVGID_20_);}
	.st38{clip-path:url(#SVGID_22_);}
	.st39{fill:url(#SVGID_23_);}
	.st40{clip-path:url(#SVGID_25_);}
	.st41{fill:url(#SVGID_26_);}
	.st42{fill:url(#SVGID_27_);}
	.st43{fill:url(#SVGID_28_);}
	.st44{fill:url(#SVGID_29_);}
	.st45{clip-path:url(#SVGID_31_);fill:#00B2E3;}
	.st46{clip-path:url(#SVGID_33_);}
	.st47{clip-path:url(#SVGID_35_);}
	.st48{fill:url(#SVGID_36_);}
	.st49{clip-path:url(#SVGID_38_);}
	.st50{clip-path:url(#SVGID_40_);}
	.st51{fill:#280210;}
	.st52{opacity:0.5;}
	.st53{opacity:0.6;}
	.st54{fill:url(#SVGID_41_);}
	.st55{fill:url(#SVGID_42_);}
	.st56{fill:url(#SVGID_43_);}
	.st57{fill:url(#SVGID_44_);}
	.st58{opacity:0.8;}
	.st59{opacity:0.9;}
	.st60{fill:url(#SVGID_45_);}
	.st61{clip-path:url(#SVGID_47_);}
	.st62{clip-path:url(#SVGID_49_);}
	.st63{fill:url(#SVGID_50_);}
	.st64{clip-path:url(#SVGID_52_);}
	.st65{fill:url(#SVGID_53_);}
	.st66{clip-path:url(#SVGID_55_);}
	.st67{fill:url(#SVGID_56_);}
	.st68{clip-path:url(#SVGID_58_);}
	.st69{clip-path:url(#SVGID_60_);fill:#00B2E3;}
	.st70{clip-path:url(#SVGID_62_);}
	.st71{clip-path:url(#SVGID_64_);}
	.st72{fill:none;stroke:#FFFFFF;stroke-width:5;stroke-miterlimit:10;}
	.st73{clip-path:url(#SVGID_66_);fill:#00B2E3;}
	.st74{clip-path:url(#SVGID_68_);}
	.st75{clip-path:url(#SVGID_70_);}
	.st76{clip-path:url(#SVGID_72_);fill:#00B2E3;}
	.st77{clip-path:url(#SVGID_74_);}
	.st78{fill:#5B0323;}
	.st79{fill:url(#SVGID_75_);}
	.st80{fill:url(#SVGID_76_);}
	.st81{fill:url(#SVGID_77_);}
	.st82{clip-path:url(#SVGID_80_);fill:#00B2E3;}
	.st83{clip-path:url(#SVGID_84_);}
	.st84{clip-path:url(#SVGID_86_);}
	.st85{fill-rule:evenodd;clip-rule:evenodd;fill:#FFFFFF;}
	.st86{fill:#E5E5E5;}
	.st87{clip-path:url(#SVGID_88_);}
	.st88{fill-rule:evenodd;clip-rule:evenodd;fill:none;stroke:#E7004C;stroke-width:3;stroke-miterlimit:10;}
	.st89{fill:#070101;}
	.st90{fill:none;stroke:#068FFF;stroke-width:5;stroke-miterlimit:10;}
</style>
<g id="Capa_2">
</g>
<g id="Capa_1">
</g>
<g id="Capa_3">
</g>
<g id="Capa_4">
	<g>
		<g>
			<g>
				<path class="st0" d="M8.55,1.85c0,0,6.93-1.79,8.65-1.85c1.15-0.07,0.76,0.71,0.76,0.71l-4.09,7.64l6.27-4.57h9.12
					c0,0,0.76,0.02,0.38,0.66l-9.74,6.65l3.64,6.51l3.55-6.54c0,0,0.17-0.22-0.13-0.22h-3.2c0,0-0.45-0.22-0.18-0.7l8.05-5.14h5.62
					c0,0,0.62,0.13,0.27,0.76l-7.12,14.96c0,0,0,0.21-0.29,0.21h-7.73c0,0-0.5-0.17-0.24-0.62l0.95-1.86h-9.47
					c0,0-0.41,0.05-0.53-0.45l-1.91-4.53l-2.36,4.7c0,0-0.07,0.31-0.57,0.31H0.55c0,0-0.48,0.05-0.48-0.48L8.16,2.28
					C8.16,2.28,8.21,2.02,8.55,1.85z"/>
			</g>
			<path class="st0" d="M8.95,2.76L1.33,17.48h6.69l2.7-5.24c0,0,0.67-1.04,1.09-0.05l2.18,5.29h8.35l-3.53-6.36
				c0,0-0.16-0.27,0.21-0.53c0.53-0.37,8.76-5.99,8.76-5.99h-7.19l-7.7,5.54c0,0-0.73,0.86-1.02-0.22l4.84-8.94
				C16.71,0.98,9.81,2.09,8.95,2.76z"/>
			<path class="st0" d="M29.73,20.07l6.66-14.24h-4.34l-6.51,4.22h2.63c0,0,0.51,0.15,0.33,0.59l-5.15,9.44L29.73,20.07z"/>
			<path class="st0" d="M39.36,7.72c-0.92,0-1.84,0.28-2.75,0.84c-0.89,0.56-1.5,1.22-1.83,1.98l-0.33,0.72
				c-0.17,0.39-0.25,0.75-0.22,1.08c0.02,0.32,0.13,0.61,0.31,0.86c0.18,0.25,0.45,0.45,0.79,0.62c0.34,0.17,0.74,0.28,1.21,0.35
				h9.24l-0.04,0.1c-0.2,0.37-1.06,1.69-3.14,1.7H32.34l-1.11,2.5h14.14c0.94,0,1.85-0.27,2.75-0.82c0.91-0.56,1.54-1.23,1.89-2
				l0.55-1.26c0.17-0.38,0.24-0.72,0.2-1.02c-0.04-0.3-0.16-0.56-0.37-0.77c-0.21-0.21-0.5-0.38-0.87-0.51
				c-0.37-0.13-0.79-0.22-1.28-0.26l-9.22-0.01c0,0,0.83-1.49,2.57-1.54h8.88c1.7-0.04,2.54-1.43,2.59-1.53l0.46-1.02H39.36z"/>
			<path class="st0" d="M93.1,10.4h10.97l1.18-2.67H91.02c-0.85,0-1.71,0.27-2.57,0.82c-0.18,0.12-0.35,0.24-0.51,0.37l0.53-1.19
				H74.24c-0.85,0-1.71,0.27-2.57,0.82c-0.64,0.41-1.13,0.89-1.49,1.43c0.11-0.54-0.01-1.01-0.34-1.43
				c-0.42-0.55-1.12-0.82-2.09-0.82H53.54l-4.77,10.74h3.06c1.52-0.03,2.35-1.13,2.56-1.45l1.06-2.38h9.24
				c0.97-0.01,1.92-0.29,2.83-0.84c0.64-0.37,1.13-0.8,1.49-1.26l-1.38,3.11c-0.35,0.77-0.34,1.44,0.02,2
				c0.34,0.55,0.95,0.82,1.83,0.82h14.29l0.51-1.14c0.04,0.11,0.09,0.22,0.16,0.32c0.34,0.55,0.96,0.82,1.83,0.82h14.29l1.2-2.69
				H88.82l0.7-1.61h10.3c1.56-0.1,2.35-1.34,2.45-1.51l0.35-0.77H90.38C90.57,11.61,91.52,10.43,93.1,10.4z M62.1,12.12h-5.51
				l0.13-0.3c0.14-0.22,0.95-1.44,2.53-1.5h5.82C65.07,10.32,64.28,12.08,62.1,12.12z M86.66,10.56l-2.25,5.09
				c-0.02,0.05-0.04,0.09-0.05,0.13H72.04l0.7-1.61l9.41-0.01c1.69-0.05,2.51-1.44,2.57-1.53l0.35-0.76l-11.48,0.02l0.02-0.03
				c0.28-0.35,1.24-1.42,2.74-1.44h10.39C86.71,10.46,86.68,10.5,86.66,10.56z"/>
			<path class="st0" d="M121.56,8.56c-0.34-0.55-0.95-0.82-1.81-0.82h-14.31l-1.18,2.67h0.02l-3.59,8.07h14.29
				c0.84,0,1.69-0.27,2.55-0.82c0.85-0.56,1.45-1.23,1.81-2l2.26-5.09C121.94,9.78,121.93,9.12,121.56,8.56z M115.58,14.04
				c-0.11,0.22-0.9,1.67-2.84,1.76h-6.41l2.04-4.57l-0.31,0.71c0,0,0.75-1.36,2.34-1.53h6.8L115.58,14.04z"/>
		</g>
		<g>
			<path class="st0" d="M5.12,32.25c0,0.12-0.06,0.18-0.18,0.18H4.69c-0.12,0-0.18-0.06-0.18-0.18v-3.06c0-0.12,0.06-0.18,0.18-0.18
				h0.24c0.12,0,0.18,0.06,0.18,0.18V32.25z"/>
			<path class="st0" d="M8.11,29.15c0-0.01,0-0.01,0-0.02c0-0.08,0.06-0.12,0.18-0.12h0.24c0.04,0,0.12,0.06,0.24,0.18l2.63,2.43
				v-2.43c0-0.12,0.06-0.18,0.18-0.18h0.24c0.12,0,0.18,0.06,0.18,0.18v3.06c0,0.12-0.06,0.19-0.18,0.19H11.6
				c-0.04,0-0.12-0.06-0.24-0.18l-2.63-2.48v2.48c0,0.12-0.06,0.18-0.18,0.18H8.3c-0.12,0-0.18-0.06-0.18-0.18v-3.06
				C8.11,29.18,8.11,29.17,8.11,29.15z"/>
			<path class="st0" d="M17.72,29.01c0.34,0,0.63,0.1,0.87,0.29c0.24,0.19,0.36,0.42,0.36,0.69v1.47c0,0.27-0.12,0.5-0.36,0.69
				c-0.24,0.19-0.53,0.29-0.87,0.29h-2.51c-0.12,0-0.18-0.06-0.18-0.18v-3.06c0-0.12,0.06-0.18,0.18-0.18H17.72z M15.64,31.95h2.08
				c0.17,0,0.31-0.05,0.43-0.14c0.12-0.1,0.18-0.21,0.18-0.35v-1.47c0-0.14-0.06-0.25-0.18-0.35c-0.12-0.1-0.26-0.14-0.43-0.14
				h-2.08V31.95z"/>
			<path class="st0" d="M25.85,31.46c0,0.27-0.12,0.5-0.36,0.69c-0.24,0.19-0.53,0.29-0.87,0.29h-1.47c-0.34,0-0.63-0.1-0.87-0.29
				c-0.24-0.19-0.36-0.42-0.36-0.69v-1.47c0-0.27,0.12-0.5,0.36-0.69c0.24-0.19,0.53-0.29,0.87-0.29h1.47c0.34,0,0.63,0.1,0.87,0.29
				c0.24,0.19,0.36,0.42,0.36,0.69V31.46z M22.55,31.46c0,0.14,0.06,0.25,0.18,0.35c0.12,0.1,0.26,0.14,0.43,0.14h1.47
				c0.17,0,0.31-0.05,0.43-0.14c0.12-0.1,0.18-0.21,0.18-0.35v-1.47c0-0.14-0.06-0.25-0.18-0.35c-0.12-0.1-0.26-0.14-0.43-0.14
				h-1.47c-0.17,0-0.31,0.05-0.43,0.14c-0.12,0.1-0.18,0.21-0.18,0.35V31.46z"/>
			<path class="st0" d="M32.76,31.46c0,0.27-0.12,0.5-0.36,0.69c-0.24,0.19-0.53,0.29-0.87,0.29h-1.47c-0.34,0-0.63-0.1-0.87-0.29
				c-0.24-0.19-0.36-0.42-0.36-0.69v-1.47c0-0.27,0.12-0.5,0.36-0.69c0.24-0.19,0.53-0.29,0.87-0.29h1.47c0.34,0,0.63,0.1,0.87,0.29
				c0.24,0.19,0.36,0.42,0.36,0.69V31.46z M29.46,31.46c0,0.14,0.06,0.25,0.18,0.35c0.12,0.1,0.26,0.14,0.43,0.14h1.47
				c0.17,0,0.31-0.05,0.43-0.14c0.12-0.1,0.18-0.21,0.18-0.35v-1.47c0-0.14-0.06-0.25-0.18-0.35c-0.12-0.1-0.26-0.14-0.43-0.14
				h-1.47c-0.17,0-0.31,0.05-0.43,0.14c-0.12,0.1-0.18,0.21-0.18,0.35V31.46z"/>
			<path class="st0" d="M37.6,30.97h-1.23l0,1.28c0,0.12-0.06,0.18-0.18,0.18h-0.24c-0.12,0-0.18-0.06-0.18-0.18v-3.06
				c0-0.12,0.06-0.18,0.18-0.18h2.51c0.34,0,0.63,0.1,0.87,0.29c0.24,0.19,0.36,0.42,0.36,0.69c0,0.27-0.12,0.5-0.36,0.69
				c-0.24,0.19-0.53,0.29-0.87,0.29h-0.1l1.2,1.1c0.08,0.08,0.12,0.14,0.12,0.18c0,0.12-0.06,0.19-0.18,0.19h-0.18
				c-0.08,0-0.18-0.06-0.31-0.18L37.6,30.97z M36.37,30.48h2.08c0.17,0,0.31-0.05,0.43-0.14c0.12-0.1,0.18-0.21,0.18-0.35
				c0-0.14-0.06-0.25-0.18-0.35c-0.12-0.1-0.26-0.14-0.43-0.14h-2.08V30.48z"/>
			<path class="st0" d="M47.75,31.18v1.07c0,0.12-0.06,0.18-0.18,0.18h-0.24c-0.12,0-0.18-0.06-0.18-0.18v-3.06
				c0-0.12,0.06-0.18,0.18-0.18h0.24c0.12,0,0.18,0.06,0.18,0.18v1.07l2.57-1.13c0.16-0.08,0.29-0.12,0.37-0.12h0.18
				c0.12,0,0.18,0.06,0.18,0.18c0,0.08-0.04,0.14-0.12,0.18l-2.99,1.35l2.98,1.35c0.08,0.04,0.12,0.1,0.12,0.18
				c0,0.12-0.06,0.19-0.18,0.19h-0.18c-0.08,0-0.2-0.04-0.37-0.12L47.75,31.18z"/>
			<path class="st0" d="M54.95,31.7l-0.29,0.55c-0.08,0.12-0.16,0.18-0.24,0.18h-0.18c-0.12,0-0.18-0.06-0.18-0.18
				c0-0.04,0.02-0.1,0.06-0.19l1.59-2.88c0.04-0.12,0.1-0.18,0.18-0.18h0.24c0.08,0,0.14,0.06,0.18,0.18l1.59,2.88
				c0.04,0.08,0.06,0.14,0.06,0.18c0,0.12-0.06,0.18-0.18,0.18h-0.18c-0.08,0-0.16-0.06-0.24-0.18l-0.29-0.55H54.95z M56.8,31.21
				L56,29.72l-0.79,1.49H56.8z"/>
			<path class="st0" d="M62.8,30.97h-1.23l0,1.28c0,0.12-0.06,0.18-0.18,0.18h-0.24c-0.12,0-0.18-0.06-0.18-0.18v-3.06
				c0-0.12,0.06-0.18,0.18-0.18h2.51c0.34,0,0.63,0.1,0.87,0.29c0.24,0.19,0.36,0.42,0.36,0.69c0,0.27-0.12,0.5-0.36,0.69
				c-0.24,0.19-0.53,0.29-0.87,0.29h-0.1l1.2,1.1c0.08,0.08,0.12,0.14,0.12,0.18c0,0.12-0.06,0.19-0.18,0.19h-0.18
				c-0.08,0-0.18-0.06-0.31-0.18L62.8,30.97z M61.57,30.48h2.08c0.17,0,0.31-0.05,0.43-0.14c0.12-0.1,0.18-0.21,0.18-0.35
				c0-0.14-0.06-0.25-0.18-0.35c-0.12-0.1-0.26-0.14-0.43-0.14h-2.08V30.48z"/>
			<path class="st0" d="M69.52,29.5h-1.47c-0.12,0-0.18-0.06-0.18-0.18v-0.12c0-0.12,0.06-0.18,0.18-0.18h3.55
				c0.12,0,0.18,0.06,0.18,0.18v0.12c0,0.12-0.06,0.18-0.18,0.18h-1.47v2.75c0,0.12-0.06,0.18-0.18,0.18H69.7
				c-0.12,0-0.18-0.06-0.18-0.18V29.5z"/>
			<path class="st0" d="M81.09,30.97h-1.23l0,1.28c0,0.12-0.06,0.18-0.18,0.18h-0.24c-0.12,0-0.18-0.06-0.18-0.18v-3.06
				c0-0.12,0.06-0.18,0.18-0.18h2.51c0.34,0,0.63,0.1,0.87,0.29c0.24,0.19,0.36,0.42,0.36,0.69c0,0.27-0.12,0.5-0.36,0.69
				c-0.24,0.19-0.53,0.29-0.87,0.29h-0.1l1.2,1.1c0.08,0.08,0.12,0.14,0.12,0.18c0,0.12-0.06,0.19-0.18,0.19h-0.18
				c-0.08,0-0.18-0.06-0.31-0.18L81.09,30.97z M79.86,30.48h2.08c0.17,0,0.31-0.05,0.43-0.14c0.12-0.1,0.18-0.21,0.18-0.35
				c0-0.14-0.06-0.25-0.18-0.35c-0.12-0.1-0.26-0.14-0.43-0.14h-2.08V30.48z"/>
			<path class="st0" d="M87.06,31.7l-0.29,0.55c-0.08,0.12-0.16,0.18-0.24,0.18h-0.18c-0.12,0-0.18-0.06-0.18-0.18
				c0-0.04,0.02-0.1,0.06-0.19l1.59-2.88c0.04-0.12,0.1-0.18,0.18-0.18h0.24c0.08,0,0.14,0.06,0.18,0.18l1.59,2.88
				c0.04,0.08,0.06,0.14,0.06,0.18c0,0.12-0.06,0.18-0.18,0.18H89.7c-0.08,0-0.16-0.06-0.24-0.18l-0.29-0.55H87.06z M88.91,31.21
				l-0.79-1.49l-0.79,1.49H88.91z"/>
			<path class="st0" d="M96.8,29.01c0.12,0,0.18,0.06,0.18,0.18v0.12c0,0.12-0.06,0.18-0.18,0.18h-2.51c-0.17,0-0.31,0.05-0.43,0.14
				c-0.12,0.1-0.18,0.21-0.18,0.35v1.47c0,0.14,0.06,0.25,0.18,0.35c0.12,0.1,0.26,0.14,0.43,0.14h2.51c0.12,0,0.18,0.06,0.18,0.18
				v0.12c0,0.12-0.06,0.18-0.18,0.18h-2.51c-0.34,0-0.63-0.1-0.87-0.29c-0.24-0.19-0.36-0.42-0.36-0.69v-1.47
				c0-0.27,0.12-0.5,0.36-0.69c0.24-0.19,0.53-0.29,0.87-0.29H96.8z"/>
			<path class="st0" d="M100.59,32.25c0,0.12-0.06,0.18-0.18,0.18h-0.24c-0.12,0-0.18-0.06-0.18-0.18v-3.06
				c0-0.12,0.06-0.18,0.18-0.18h0.24c0.12,0,0.18,0.06,0.18,0.18V32.25z"/>
			<path class="st0" d="M103.59,29.15c0-0.01,0-0.01,0-0.02c0-0.08,0.06-0.12,0.18-0.12h0.24c0.04,0,0.12,0.06,0.24,0.18l2.63,2.43
				v-2.43c0-0.12,0.06-0.18,0.18-0.18h0.24c0.12,0,0.18,0.06,0.18,0.18v3.06c0,0.12-0.06,0.19-0.18,0.19h-0.24
				c-0.04,0-0.12-0.06-0.24-0.18l-2.63-2.48v2.48c0,0.12-0.06,0.18-0.18,0.18h-0.24c-0.12,0-0.18-0.06-0.18-0.18v-3.06
				C103.59,29.18,103.59,29.17,103.59,29.15z"/>
			<path class="st0" d="M111.72,32.44c-0.34,0-0.63-0.1-0.87-0.29c-0.24-0.19-0.36-0.42-0.36-0.69v-1.47c0-0.27,0.12-0.5,0.36-0.69
				c0.24-0.19,0.53-0.29,0.87-0.29h2.51c0.12,0,0.18,0.06,0.18,0.18v0.12c0,0.12-0.06,0.18-0.18,0.18h-2.51
				c-0.17,0-0.31,0.05-0.43,0.14c-0.12,0.1-0.18,0.21-0.18,0.35v1.47c0,0.14,0.06,0.25,0.18,0.35c0.12,0.1,0.26,0.14,0.43,0.14h2.08
				v-1.28c0-0.12,0.06-0.18,0.18-0.18h0.24c0.12,0,0.18,0.06,0.18,0.18v1.59c0,0.12-0.06,0.18-0.18,0.18H111.72z"/>
		</g>
		<rect x="3.98" y="24.58" class="st0" width="110.53" height="0.54"/>
	</g>
</g>
<g id="Capa_6">
</g>
<g id="Capa_5">
</g>
</svg>
