<?xml version="1.0" encoding="utf-8"?>
<!-- Generator: Adobe Illustrator 24.0.3, SVG Export Plug-In . SVG Version: 6.00 Build 0)  -->
<svg version="1.1" xmlns="http://www.w3.org/2000/svg" xmlns:xlink="http://www.w3.org/1999/xlink" x="0px" y="0px"
	 viewBox="0 0 72.84 34.46" style="enable-background:new 0 0 72.84 34.46;" xml:space="preserve">
<style type="text/css">
	.st0{fill:#FFFFFF;}
	.st1{fill:url(#SVGID_1_);}
	.st2{fill:#E7004C;}
	.st3{fill:none;stroke:#00B2E3;stroke-miterlimit:10;}
	.st4{fill:url(#SVGID_2_);}
	.st5{fill:#FCFCFC;}
	.st6{fill:url(#SVGID_3_);}
	.st7{fill:url(#SVGID_4_);}
	.st8{opacity:0.8;fill:#E7004C;}
	.st9{opacity:0.7;fill:#E7004C;}
	.st10{opacity:0.7;}
	.st11{fill:#00B2E3;}
	.st12{opacity:0.8;fill:#00B2E3;}
	.st13{opacity:0.7;fill:#00B2E3;}
	.st14{fill:#BBBBBB;}
	.st15{opacity:0.8;fill:#BBBBBB;}
	.st16{opacity:0.7;fill:#BBBBBB;}
	.st17{fill:url(#SVGID_5_);}
	.st18{fill:url(#SVGID_6_);}
	.st19{fill:none;stroke:#E7004C;stroke-width:2;stroke-miterlimit:10;}
	.st20{fill:url(#SVGID_7_);}
	.st21{fill:url(#SVGID_8_);}
	.st22{fill:url(#SVGID_9_);}
	.st23{fill:none;stroke:#FFFFFF;stroke-miterlimit:10;}
	.st24{fill:none;stroke:#E7004C;stroke-miterlimit:10;}
	.st25{fill-rule:evenodd;clip-rule:evenodd;fill:#E7004C;}
	.st26{fill:none;stroke:#000000;stroke-miterlimit:10;}
	.st27{fill:#38A8E0;}
	.st28{clip-path:url(#SVGID_11_);fill:#00B2E3;}
	.st29{fill:none;stroke:#E7004C;stroke-width:3;stroke-miterlimit:10;}
	.st30{clip-path:url(#SVGID_13_);}
	.st31{fill:none;stroke:#FFFFFF;stroke-width:2;stroke-miterlimit:10;}
	.st32{fill:none;stroke:#FFFFFF;stroke-width:3;stroke-miterlimit:10;}
	.st33{clip-path:url(#SVGID_15_);}
	.st34{fill:url(#SVGID_16_);}
	.st35{fill:none;stroke:#FFFFFF;stroke-width:0.5;stroke-miterlimit:10;}
	.st36{clip-path:url(#SVGID_18_);fill:#00B2E3;}
	.st37{clip-path:url(#SVGID_20_);}
	.st38{clip-path:url(#SVGID_22_);}
	.st39{fill:url(#SVGID_23_);}
	.st40{clip-path:url(#SVGID_25_);}
	.st41{fill:url(#SVGID_26_);}
	.st42{fill:url(#SVGID_27_);}
	.st43{fill:url(#SVGID_28_);}
	.st44{fill:url(#SVGID_29_);}
	.st45{clip-path:url(#SVGID_31_);fill:#00B2E3;}
	.st46{clip-path:url(#SVGID_33_);}
	.st47{clip-path:url(#SVGID_35_);}
	.st48{fill:url(#SVGID_36_);}
	.st49{clip-path:url(#SVGID_38_);}
	.st50{clip-path:url(#SVGID_40_);}
	.st51{fill:#280210;}
	.st52{opacity:0.5;}
	.st53{opacity:0.6;}
	.st54{fill:url(#SVGID_41_);}
	.st55{fill:url(#SVGID_42_);}
	.st56{fill:url(#SVGID_43_);}
	.st57{fill:url(#SVGID_44_);}
	.st58{opacity:0.8;}
	.st59{opacity:0.9;}
	.st60{fill:url(#SVGID_45_);}
	.st61{clip-path:url(#SVGID_47_);}
	.st62{clip-path:url(#SVGID_49_);}
	.st63{fill:url(#SVGID_50_);}
	.st64{clip-path:url(#SVGID_52_);}
	.st65{fill:url(#SVGID_53_);}
	.st66{clip-path:url(#SVGID_55_);}
	.st67{fill:url(#SVGID_56_);}
	.st68{clip-path:url(#SVGID_58_);}
	.st69{clip-path:url(#SVGID_60_);fill:#00B2E3;}
	.st70{clip-path:url(#SVGID_62_);}
	.st71{clip-path:url(#SVGID_64_);}
	.st72{fill:none;stroke:#FFFFFF;stroke-width:5;stroke-miterlimit:10;}
	.st73{clip-path:url(#SVGID_66_);fill:#00B2E3;}
	.st74{clip-path:url(#SVGID_68_);}
	.st75{clip-path:url(#SVGID_70_);}
	.st76{clip-path:url(#SVGID_72_);fill:#00B2E3;}
	.st77{clip-path:url(#SVGID_74_);}
	.st78{fill:#5B0323;}
	.st79{fill:url(#SVGID_75_);}
	.st80{fill:url(#SVGID_76_);}
	.st81{fill:url(#SVGID_77_);}
	.st82{clip-path:url(#SVGID_80_);fill:#00B2E3;}
	.st83{clip-path:url(#SVGID_84_);}
	.st84{clip-path:url(#SVGID_86_);}
	.st85{fill-rule:evenodd;clip-rule:evenodd;fill:#FFFFFF;}
	.st86{fill:#E5E5E5;}
	.st87{clip-path:url(#SVGID_88_);}
	.st88{fill-rule:evenodd;clip-rule:evenodd;fill:none;stroke:#E7004C;stroke-width:3;stroke-miterlimit:10;}
	.st89{fill:#070101;}
	.st90{fill:none;stroke:#068FFF;stroke-width:5;stroke-miterlimit:10;}
</style>
<g id="Capa_2">
</g>
<g id="Capa_1">
</g>
<g id="Capa_3">
</g>
<g id="Capa_4">
	<g>
		<g>
			<path class="st0" d="M8.49,26.14l-0.71,0.72c-0.43-0.41-1.28-1.07-2.77-1.07c-2.18,0-3.68,1.65-3.68,3.84
				c0,2.25,1.55,3.83,3.66,3.83c1.59,0,2.48-0.68,2.78-0.97v-1.96H5.67v-0.95h3.18v3.37c-1.03,1.03-2.27,1.51-3.88,1.51
				c-2.7,0-4.78-1.99-4.78-4.82c0-2.73,2.02-4.85,4.8-4.85C6.88,24.78,8.01,25.65,8.49,26.14"/>
			<path class="st0" d="M15.01,24.78c2.77,0,4.84,2.12,4.84,4.84c0,2.75-2.09,4.84-4.86,4.84c-2.75,0-4.83-2.07-4.83-4.84
				C10.16,26.87,12.25,24.78,15.01,24.78 M15.01,33.45c2.1,0,3.71-1.61,3.71-3.83c0-2.19-1.6-3.83-3.71-3.83
				c-2.1,0-3.71,1.64-3.71,3.83C11.3,31.83,12.91,33.45,15.01,33.45"/>
			<path class="st0" d="M31.75,29.05v3.95c-0.62,0.47-1.25,0.83-1.89,1.09c-0.65,0.25-1.46,0.38-2.45,0.38
				c-1.38,0-2.55-0.45-3.49-1.34c-0.95-0.89-1.42-2.07-1.42-3.53c0-1.36,0.46-2.5,1.39-3.43c0.93-0.92,2.12-1.39,3.58-1.39
				c1.69,0,2.98,0.54,3.87,1.63l-1.47,1.49c-0.16-0.21-0.45-0.44-0.86-0.67c-0.41-0.23-0.89-0.35-1.44-0.35
				c-0.82,0-1.47,0.25-1.95,0.75c-0.48,0.5-0.72,1.14-0.72,1.91c0,0.84,0.25,1.52,0.76,2.03c0.51,0.51,1.14,0.77,1.91,0.77
				c0.52,0,0.95-0.06,1.3-0.19c0.35-0.13,0.59-0.26,0.72-0.38v-0.83h-1.64v-1.91H31.75z"/>
			<polygon class="st0" points="38.37,34.46 33.06,34.46 33.06,24.78 35.39,24.78 35.39,32.38 38.37,32.38 			"/>
			<path class="st0" d="M46.95,33.08c-0.92,0.92-2.12,1.38-3.6,1.38c-1.47,0-2.67-0.46-3.6-1.38c-0.92-0.92-1.38-2.08-1.38-3.47
				c0-1.38,0.46-2.53,1.38-3.45c0.92-0.92,2.12-1.38,3.6-1.38c1.47,0,2.67,0.46,3.6,1.38c0.92,0.92,1.38,2.07,1.38,3.45
				C48.33,31,47.87,32.16,46.95,33.08 M45.2,27.68c-0.48-0.51-1.09-0.77-1.85-0.77c-0.75,0-1.37,0.26-1.85,0.77
				c-0.48,0.51-0.72,1.15-0.72,1.93c0,0.79,0.24,1.44,0.72,1.95c0.48,0.51,1.09,0.77,1.85,0.77c0.75,0,1.37-0.26,1.85-0.77
				c0.48-0.51,0.72-1.16,0.72-1.95C45.92,28.83,45.68,28.19,45.2,27.68"/>
			<path class="st0" d="M56.42,31.62c0,0.92-0.31,1.63-0.92,2.11c-0.61,0.48-1.4,0.73-2.35,0.73h-3.5v-9.69h3.39
				c0.97,0,1.72,0.22,2.27,0.66c0.54,0.44,0.81,1.07,0.81,1.89c0,1.54-0.71,1.97-1.03,2.15C55.98,29.85,56.42,30.56,56.42,31.62
				 M52.92,26.75h-0.96v1.72h0.99c0.26,0,0.46-0.08,0.6-0.24c0.14-0.16,0.21-0.38,0.21-0.64c0-0.26-0.07-0.47-0.21-0.62
				C53.41,26.83,53.2,26.75,52.92,26.75 M53.1,30.52h-1.14v1.94h1.13c0.3,0,0.53-0.09,0.7-0.28c0.17-0.19,0.25-0.42,0.25-0.7
				c0-0.29-0.08-0.52-0.24-0.7C53.63,30.61,53.39,30.52,53.1,30.52"/>
			<path class="st0" d="M63.08,32.33h-2.99l-0.68,2.13h-2.33l3.28-9.68h2.44l3.28,9.68h-2.33L63.08,32.33z M62.48,30.43l-0.9-3.01
				l-0.9,3.01H62.48z"/>
			<polygon class="st0" points="72.84,34.46 67.54,34.46 67.54,24.78 69.86,24.78 69.86,32.38 72.84,32.38 			"/>
		</g>
		<path class="st0" d="M47.24,5.44c-0.5-2.97-4.35-3.68-4.37-3.68c1.33,0.64,2.47,1.84,1.94,4.1c-1.11,4.75-9.96,6.11-9.96,6.11
			s4.49,1.44,8.27-0.39c-0.64,3.62-3.89,6.34-7.74,6.14c-3.71-0.2-6.74-3.16-7.02-6.86c-0.33-4.37,3.12-8.02,7.43-8.02
			c0.33,0,0.65,0.02,0.97,0.06c0.64,0.08,1.29-0.14,1.74-0.61l1.22-1.25c-1.45-0.62-3.06-0.91-4.77-0.77
			c-4.9,0.39-8.84,4.35-9.2,9.26c-0.43,5.89,4.22,10.81,10.02,10.81c5.55,0,10.05-4.5,10.05-10.05c0-0.27-0.01-0.54-0.03-0.81
			c0.37-0.45,0.71-0.96,1-1.55C47.21,7.16,47.39,6.29,47.24,5.44z"/>
	</g>
</g>
<g id="Capa_6">
</g>
<g id="Capa_5">
</g>
</svg>
