<?xml version="1.0" encoding="utf-8"?>
<!-- Generator: Adobe Illustrator 24.0.3, SVG Export Plug-In . SVG Version: 6.00 Build 0)  -->
<svg version="1.1" xmlns="http://www.w3.org/2000/svg" xmlns:xlink="http://www.w3.org/1999/xlink" x="0px" y="0px"
	 viewBox="0 0 133.68 42.64" style="enable-background:new 0 0 133.68 42.64;" xml:space="preserve">
<style type="text/css">
	.st0{fill:#FFFFFF;}
	.st1{fill:url(#SVGID_1_);}
	.st2{fill:#E7004C;}
	.st3{fill:none;stroke:#00B2E3;stroke-miterlimit:10;}
	.st4{fill:url(#SVGID_2_);}
	.st5{fill:#FCFCFC;}
	.st6{fill:url(#SVGID_3_);}
	.st7{fill:url(#SVGID_4_);}
	.st8{opacity:0.8;fill:#E7004C;}
	.st9{opacity:0.7;fill:#E7004C;}
	.st10{opacity:0.7;}
	.st11{fill:#00B2E3;}
	.st12{opacity:0.8;fill:#00B2E3;}
	.st13{opacity:0.7;fill:#00B2E3;}
	.st14{fill:#BBBBBB;}
	.st15{opacity:0.8;fill:#BBBBBB;}
	.st16{opacity:0.7;fill:#BBBBBB;}
	.st17{fill:url(#SVGID_5_);}
	.st18{fill:url(#SVGID_6_);}
	.st19{fill:none;stroke:#E7004C;stroke-width:2;stroke-miterlimit:10;}
	.st20{fill:url(#SVGID_7_);}
	.st21{fill:url(#SVGID_8_);}
	.st22{fill:url(#SVGID_9_);}
	.st23{fill:none;stroke:#FFFFFF;stroke-miterlimit:10;}
	.st24{fill:none;stroke:#E7004C;stroke-miterlimit:10;}
	.st25{fill-rule:evenodd;clip-rule:evenodd;fill:#E7004C;}
	.st26{fill:none;stroke:#000000;stroke-miterlimit:10;}
	.st27{fill:#38A8E0;}
	.st28{clip-path:url(#SVGID_11_);fill:#00B2E3;}
	.st29{fill:none;stroke:#E7004C;stroke-width:3;stroke-miterlimit:10;}
	.st30{clip-path:url(#SVGID_13_);}
	.st31{fill:none;stroke:#FFFFFF;stroke-width:2;stroke-miterlimit:10;}
	.st32{fill:none;stroke:#FFFFFF;stroke-width:3;stroke-miterlimit:10;}
	.st33{clip-path:url(#SVGID_15_);}
	.st34{fill:url(#SVGID_16_);}
	.st35{fill:none;stroke:#FFFFFF;stroke-width:0.5;stroke-miterlimit:10;}
	.st36{clip-path:url(#SVGID_18_);fill:#00B2E3;}
	.st37{clip-path:url(#SVGID_20_);}
	.st38{clip-path:url(#SVGID_22_);}
	.st39{fill:url(#SVGID_23_);}
	.st40{clip-path:url(#SVGID_25_);}
	.st41{fill:url(#SVGID_26_);}
	.st42{fill:url(#SVGID_27_);}
	.st43{fill:url(#SVGID_28_);}
	.st44{fill:url(#SVGID_29_);}
	.st45{clip-path:url(#SVGID_31_);fill:#00B2E3;}
	.st46{clip-path:url(#SVGID_33_);}
	.st47{clip-path:url(#SVGID_35_);}
	.st48{fill:url(#SVGID_36_);}
	.st49{clip-path:url(#SVGID_38_);}
	.st50{clip-path:url(#SVGID_40_);}
	.st51{fill:#280210;}
	.st52{opacity:0.5;}
	.st53{opacity:0.6;}
	.st54{fill:url(#SVGID_41_);}
	.st55{fill:url(#SVGID_42_);}
	.st56{fill:url(#SVGID_43_);}
	.st57{fill:url(#SVGID_44_);}
	.st58{opacity:0.8;}
	.st59{opacity:0.9;}
	.st60{fill:url(#SVGID_45_);}
	.st61{clip-path:url(#SVGID_47_);}
	.st62{clip-path:url(#SVGID_49_);}
	.st63{fill:url(#SVGID_50_);}
	.st64{clip-path:url(#SVGID_52_);}
	.st65{fill:url(#SVGID_53_);}
	.st66{clip-path:url(#SVGID_55_);}
	.st67{fill:url(#SVGID_56_);}
	.st68{clip-path:url(#SVGID_58_);}
	.st69{clip-path:url(#SVGID_60_);fill:#00B2E3;}
	.st70{clip-path:url(#SVGID_62_);}
	.st71{clip-path:url(#SVGID_64_);}
	.st72{fill:none;stroke:#FFFFFF;stroke-width:5;stroke-miterlimit:10;}
	.st73{clip-path:url(#SVGID_66_);fill:#00B2E3;}
	.st74{clip-path:url(#SVGID_68_);}
	.st75{clip-path:url(#SVGID_70_);}
	.st76{clip-path:url(#SVGID_72_);fill:#00B2E3;}
	.st77{clip-path:url(#SVGID_74_);}
	.st78{fill:#5B0323;}
	.st79{fill:url(#SVGID_75_);}
	.st80{fill:url(#SVGID_76_);}
	.st81{fill:url(#SVGID_77_);}
	.st82{clip-path:url(#SVGID_80_);fill:#00B2E3;}
	.st83{clip-path:url(#SVGID_84_);}
	.st84{clip-path:url(#SVGID_86_);}
	.st85{fill-rule:evenodd;clip-rule:evenodd;fill:#FFFFFF;}
	.st86{fill:#E5E5E5;}
	.st87{clip-path:url(#SVGID_88_);}
	.st88{fill-rule:evenodd;clip-rule:evenodd;fill:none;stroke:#E7004C;stroke-width:3;stroke-miterlimit:10;}
	.st89{fill:#070101;}
	.st90{fill:none;stroke:#068FFF;stroke-width:5;stroke-miterlimit:10;}
</style>
<g id="Capa_2">
</g>
<g id="Capa_1">
</g>
<g id="Capa_3">
</g>
<g id="Capa_4">
	<g>
		<path class="st85" d="M131.33,16.01c0.38,0,0.76,0.1,1.12,0.29c0.37,0.2,0.65,0.48,0.85,0.85c0.2,0.37,0.31,0.75,0.31,1.15
			c0,0.39-0.1,0.77-0.3,1.14c-0.2,0.36-0.48,0.64-0.85,0.85c-0.36,0.2-0.74,0.3-1.14,0.3c-0.4,0-0.77-0.1-1.14-0.3
			c-0.36-0.2-0.64-0.48-0.85-0.85c-0.2-0.36-0.3-0.74-0.3-1.14c0-0.4,0.1-0.78,0.31-1.15c0.21-0.37,0.49-0.65,0.86-0.85
			C130.57,16.11,130.94,16.01,131.33,16.01z M131.33,16.39c-0.32,0-0.63,0.08-0.94,0.25c-0.3,0.16-0.54,0.4-0.71,0.7
			c-0.17,0.31-0.26,0.62-0.26,0.96c0,0.33,0.08,0.64,0.25,0.95c0.17,0.3,0.4,0.54,0.71,0.7c0.3,0.17,0.62,0.25,0.95,0.25
			c0.33,0,0.64-0.08,0.95-0.25c0.3-0.17,0.54-0.4,0.71-0.7c0.17-0.3,0.25-0.62,0.25-0.95c0-0.33-0.09-0.65-0.26-0.96
			c-0.17-0.3-0.41-0.54-0.71-0.7C131.96,16.47,131.65,16.39,131.33,16.39z M130.32,19.56V17.1h0.85c0.29,0,0.5,0.02,0.63,0.07
			c0.13,0.05,0.23,0.12,0.31,0.24c0.08,0.11,0.12,0.23,0.12,0.36c0,0.18-0.06,0.34-0.19,0.47c-0.13,0.13-0.3,0.21-0.51,0.22
			c0.09,0.04,0.16,0.08,0.21,0.13c0.1,0.1,0.22,0.26,0.36,0.49l0.3,0.48h-0.48l-0.22-0.39c-0.17-0.3-0.31-0.5-0.42-0.57
			c-0.07-0.06-0.18-0.08-0.32-0.08h-0.23v1.05H130.32z M130.72,18.17h0.49c0.23,0,0.39-0.03,0.48-0.1c0.09-0.07,0.13-0.16,0.13-0.28
			c0-0.07-0.02-0.14-0.06-0.2c-0.04-0.06-0.1-0.1-0.17-0.13c-0.07-0.03-0.21-0.04-0.4-0.04h-0.46V18.17z"/>
		<g>
			<g>
				<path class="st85" d="M2.35,32.61c0,0-0.03,0-0.04,0c-0.09,0-0.16-0.07-0.16-0.16c0-0.08,0.05-0.14,0.13-0.16l0,0
					c17.74-4.94,40.63-7.92,65.62-7.92c24.99,0,47.89,2.98,65.64,7.92c0.07,0.02,0.11,0.08,0.11,0.16c0,0.09-0.07,0.16-0.16,0.16
					c-0.01,0-0.04,0-0.04,0c-20.03-3.23-42.22-5.02-65.56-5.02C44.57,27.59,22.38,29.39,2.35,32.61L2.35,32.61z"/>
				<path class="st85" d="M34.66,4.16c-3.49,0-6.58,0.5-6.58,0.5v2.76c0,0,2.75-0.45,5.22-0.45c3.37,0,3.57,0.91,3.6,2.65
					c-4.25,0-10.27-0.36-10.27,4.29c0,4.77,5.11,4.56,8.23,4.56c2.75,0,7.29-0.44,7.29-0.44V8.74C42.14,4.5,38.14,4.16,34.66,4.16z
					 M36.98,15.69c-0.68,0.11-1.53,0.16-2.24,0.16c-1.42,0-2.84-0.1-2.84-1.82c0-1.69,1.42-1.8,2.84-1.8c0.37,0,1.79,0,2.24,0.03
					V15.69z M86.73,15.64c-2.95,0-3.21-2.18-3.21-4.42c0-2.21,0.25-4.4,3.21-4.4c2.95,0,3.06,2.19,3.06,4.4
					C89.79,13.45,89.68,15.64,86.73,15.64z M86.73,3.98c-4.96,0-8.54,1.92-8.54,7.24c0,5.1,3.97,7.26,8.54,7.26
					c4.57,0,8.39-2.16,8.39-7.26C95.12,5.9,91.69,3.98,86.73,3.98z M120.33,15.64c-2.95,0-3.21-2.18-3.21-4.42
					c0-2.21,0.26-4.4,3.21-4.4c2.94,0,3.06,2.19,3.06,4.4C123.39,13.45,123.28,15.64,120.33,15.64z M120.33,3.98
					c-4.97,0-8.54,1.92-8.54,7.24c0,5.1,3.97,7.26,8.54,7.26c4.56,0,8.39-2.16,8.39-7.26C128.72,5.9,125.29,3.98,120.33,3.98z
					 M43.91,11.18c0,5.34,3.97,7.29,9.27,7.29c1.5,0,3.01-0.13,4.45-0.42v-2.94c-1.02,0.08-1.84,0.21-3.43,0.21
					c-3.32,0-4.96-0.96-4.96-3.98c0-3.02,1.64-4.01,4.96-4.01c1.11,0,2.41,0.13,3.46,0.21V4.7c-1.7-0.36-3.46-0.49-5.19-0.49
					C47.4,4.21,43.91,6.34,43.91,11.18z M96.79,11.18c0,5.34,3.97,7.29,9.27,7.29c1.5,0,3.01-0.13,4.45-0.42v-2.94
					c-1.02,0.08-1.84,0.21-3.43,0.21c-3.32,0-4.96-0.96-4.96-3.98c0-3.02,1.64-4.01,4.96-4.01c1.11,0,2.41,0.13,3.46,0.21V4.7
					c-1.7-0.36-3.46-0.49-5.18-0.49C100.28,4.21,96.79,6.34,96.79,11.18z M20.46,8.64c-0.47-0.08-0.85-0.13-0.85-0.12
					c1.11-0.26,4.88-0.6,4.88-3.96c0-4.7-6.42-4.56-6.42-4.56c-0.47,0.01-1.25,0.02-1.72,0.02H7.96c-0.47,0-0.86,0.39-0.86,0.88
					v16.49c0,0.49,0.39,0.89,0.86,0.89h9.17c2.95,0,7.89-0.68,7.89-4.8C25.02,9.41,20.46,8.64,20.46,8.64z M12.74,3.72
					c0-0.49,0.39-0.89,0.87-0.89h2.14c1.84,0,2.75,0.52,2.75,2.29c0,1.75-1.9,2.11-1.9,2.11c-0.46,0.09-1.24,0.16-1.71,0.16H13.6
					c-0.48,0-0.87-0.4-0.87-0.89V3.72z M17.03,15.24c-0.47,0.09-1.24,0.16-1.71,0.16h-1.75c-0.47,0-0.86-0.4-0.86-0.89v-3.16
					c0-0.49,0.39-0.89,0.86-0.89h2.62c1.99,0,2.95,0.57,2.95,2.45C19.14,14.83,17.03,15.24,17.03,15.24z M71.31,4.65
					c-2.33,0-3.89,0.63-5.57,1.38v-1.6V0.02h-5.35v18.26h5.35V8.65c0.43-0.17,1.7-0.5,2.75-0.5c1.99,0,2.05,1.09,2.05,1.09
					c0.02,0.36,0.03,0.87,0.04,1.33v7.7h0.79h3.75c0.02,0,0.04,0,0.06,0h0.73v-0.69V8.96C75.93,5.8,73.39,4.65,71.31,4.65z"/>
				<path class="st85" d="M99.45,37.56c-0.14,0-0.31-0.06-0.45-0.16c-0.23-0.15-0.44-0.23-0.65-0.23c-0.37,0-0.65,0.24-0.65,0.62
					c0,0.27,0.13,0.57,0.42,0.94c0.31,0.41,0.58,0.9,0.58,1.4c0,0.18,0,0.51-0.29,0.89c-0.74,0.99-1.89,1.63-2.65,1.63
					c-0.57,0-0.86-0.44-0.86-0.6c0-0.24,0.31-0.49,0.47-0.49c0.13,0,0.24,0.07,0.39,0.21c0.23,0.21,0.48,0.21,0.63,0.21
					c0.52,0,1.16-0.35,1.18-1c0-0.33-0.13-0.72-0.47-1.17c-0.34-0.48-0.61-0.96-0.61-1.39c0-1.14,2.21-1.86,2.6-1.86
					c0.29,0,0.69,0.18,0.69,0.6C99.79,37.41,99.66,37.54,99.45,37.56z M77.09,37.56c-0.15,0-0.31-0.06-0.45-0.16
					c-0.23-0.15-0.44-0.23-0.65-0.23c-0.37,0-0.65,0.24-0.65,0.62c0,0.27,0.13,0.57,0.42,0.94c0.31,0.41,0.58,0.9,0.58,1.4
					c0,0.18,0,0.51-0.29,0.89c-0.74,0.99-1.89,1.63-2.65,1.63c-0.57,0-0.86-0.44-0.86-0.6c0-0.24,0.31-0.49,0.47-0.49
					c0.13,0,0.24,0.07,0.39,0.21c0.23,0.21,0.48,0.21,0.63,0.21c0.52,0,1.16-0.35,1.18-1c0-0.33-0.13-0.72-0.47-1.17
					c-0.34-0.48-0.61-0.96-0.61-1.39c0-1.14,2.21-1.86,2.6-1.86c0.29,0,0.69,0.18,0.69,0.6C77.43,37.41,77.3,37.54,77.09,37.56z
					 M66.73,36.14c0.63-1.37,1.27-2.41,1.3-2.5c0.13-0.42,1.33-0.7,1.42-0.7c0.1,0.16,0.1,0.22,0.03,0.31
					c-0.1,0.16-1.56,3.14-1.76,3.57c-0.92,2.02-1.63,4.16-1.63,4.7c0,0.24,0.1,0.35,0.29,0.35c0.28,0,0.75-0.26,1.38-0.78
					c0.16-1.33,1.09-3.12,2.25-3.71c1.24-0.63,2.33-0.79,2.52-0.79c0.6,0,0.79,0.5,0.79,1.02c0,1.08-0.77,2.78-1.79,3.57
					c-1.78,1.39-2.68,1.45-2.96,1.45c-0.59,0-0.84-0.48-0.84-1.15c-0.66,0.54-1.63,1.15-2.26,1.15c-0.71,0-0.71-0.63-0.71-0.82
					C64.76,40.95,65.74,38.28,66.73,36.14z M69.72,41.78c0.31,0.02,0.52-0.13,0.82-0.35c0.94-0.68,1.45-2.31,1.45-3.17
					c0-0.55-0.13-1.02-0.68-1.02c-0.9,0-2.29,2.33-2.29,3.68C69.03,41.41,69.23,41.78,69.72,41.78z M86.83,40.92
					c0.17-0.46,0.98-2.18,1.3-3.05c0.31-0.85,0.32-1.3,1.24-1.31c0.21,0,0.3,0.15,0.3,0.35c0,0.18-0.12,0.66-0.4,1.25
					c-0.41,0.88-0.78,1.52-1.14,2.44c-0.18,0.46-0.26,0.82-0.26,0.99c0,0.18,0.1,0.33,0.25,0.33c0.28,0,0.86-0.38,1.32-0.74
					c0.13-0.1,0.24-0.18,0.34-0.25c0.5-1.59,1.99-4.11,4.23-4.11c0.4,0,0.68,0.05,0.77,0.34c0.02,0.05,0.03,0.06,0.07,0.06
					s0.08-0.03,0.13-0.08c0.15-0.15,0.79-0.52,1.2-0.52c0.08,0,0.11,0.07,0.11,0.13c0,0.05-0.02,0.1-0.08,0.11
					c-0.39,0.13-2,3.29-2,4.62c0,0.5,0.38,0.85,0.15,0.95c-0.16,0.1-0.4,0.18-0.75,0.18c-0.42,0-0.56-0.32-0.56-0.78
					c0-0.34,0.06-0.74,0.19-1.19c0.02-0.03,0-0.08,0-0.08c-1.18,1.39-2.49,2.07-3.02,2.07c-0.45,0-0.63-0.32-0.63-0.74
					c0-0.14,0.03-0.34,0.08-0.56c-0.66,0.57-1.74,1.3-2.49,1.3c-0.36,0-0.58-0.15-0.58-0.68c0-0.12,0.01-0.23,0.03-0.35
					c-0.65,0.51-1.49,1.02-2.02,1.02c-0.44,0-0.63-0.31-0.63-0.86c0-0.34,0.06-0.76,0.21-1.25l0.03-0.2
					c-0.05-0.03-0.11,0.03-0.24,0.2c-1.17,1.43-2.49,2.11-3.06,2.11c-0.47,0-0.65-0.34-0.65-0.83c0-1.28,1.64-5.14,4.44-5.14
					c0.21,0,0.59,0.02,0.76,0.24c0.9-1.66,2.45-5.44,4.88-5.07c0.28,0.04,0.5,0.18,0.5,0.52c0,0.18-0.11,0.31-0.28,0.31
					c-0.08,0-0.18-0.03-0.28-0.1c-0.18-0.11-0.32-0.14-0.47-0.14c-0.41,0-0.78,0.39-1.06,0.73c-0.88,1.07-3.61,6.91-3.61,8.34
					c0,0.29,0.13,0.37,0.29,0.37c0.27,0,0.71-0.23,1.29-0.7C86.77,41.1,86.8,41.02,86.83,40.92z M84.74,37.08
					c-1.38,0-3.07,3.04-3.07,4.26c0,0.29,0.08,0.42,0.25,0.42c0.11,0,0.24-0.08,0.42-0.21c1.62-1.3,2.93-3.61,2.93-4.05
					C85.26,37.29,85.15,37.08,84.74,37.08z M91.93,34.45c-0.42,0.21-1.34,0.82-2.45,1.52c-0.07,0.04-0.12,0.04-0.15,0.04
					c-0.05,0-0.07-0.03-0.07-0.06c0-0.05,0.03-0.1,0.07-0.16c0.44-0.47,2.11-2.29,2.31-2.3c0.17-0.01,0.41,0.34,0.43,0.63
					C92.08,34.27,92.01,34.41,91.93,34.45z M94.04,37.23c-1.36,0-3.08,3-3.08,4.15c0,0.27,0.08,0.4,0.23,0.4
					c0.1,0,0.24-0.06,0.42-0.19c1.37-1.05,2.36-3.1,2.76-3.76c0.06-0.11,0.1-0.21,0.1-0.29C94.46,37.46,94.45,37.23,94.04,37.23z
					 M61.44,37.56c-0.15,0-0.31-0.06-0.45-0.16c-0.23-0.15-0.44-0.23-0.65-0.23c-0.37,0-0.65,0.24-0.65,0.62
					c0,0.27,0.13,0.57,0.42,0.94c0.31,0.41,0.58,0.9,0.58,1.4c0,0.18,0,0.51-0.29,0.89c-0.74,0.99-1.89,1.63-2.65,1.63
					c-0.57,0-0.86-0.44-0.86-0.6c0-0.24,0.31-0.49,0.47-0.49c0.13,0,0.24,0.07,0.39,0.21c0.23,0.21,0.48,0.21,0.63,0.21
					c0.52,0,1.16-0.35,1.18-1c0-0.33-0.13-0.72-0.47-1.17c-0.34-0.48-0.61-0.96-0.61-1.39c0-1.14,2.21-1.86,2.6-1.86
					c0.29,0,0.69,0.18,0.69,0.6C61.78,37.41,61.65,37.54,61.44,37.56z M36.44,42.64c-0.15,0.01-0.21-0.04-0.22-0.1
					c0-0.06,0.12-0.18,0.33-0.21c0.45-0.07,0.66-0.08,0.76-0.34l2.67-7.7c0-0.05-0.04-0.1-0.18-0.12c-3.13-0.49-3.72,0.96-3.73,0.83
					c-0.03-0.65,0.61-2.18,4.86-1.74c4.03,0.42,5.43-0.72,5.59-0.73c0.06,0-0.78,2.08-5.1,1.85c-0.18-0.01-0.2,0.11-0.25,0.2
					c0,0-2.07,5.84-2.46,7.43l-0.01,0.07c0.01,0.18,0.27,0.22,0.67,0.26c0.15,0.02,0.19,0.07,0.19,0.12
					c0.01,0.1-0.13,0.17-0.32,0.18L36.44,42.64z M55.89,32.68c-0.08,0-0.18-0.03-0.28-0.1c-0.18-0.11-0.32-0.14-0.47-0.14
					c-0.41,0-0.78,0.39-1.06,0.73c-0.88,1.07-3.61,6.91-3.61,8.34c0,0.29,0.13,0.37,0.29,0.37c0.25,0,0.67-0.21,1.21-0.64
					c0.11-1.34,1.06-3.24,2.27-3.85c1.24-0.63,2.33-0.79,2.52-0.79c0.6,0,0.79,0.5,0.79,1.02c0,1.08-0.77,2.78-1.79,3.57
					c-1.78,1.39-2.68,1.45-2.95,1.45c-0.56,0-0.81-0.43-0.84-1.05c-0.65,0.52-1.52,1.05-2.05,1.05c-0.44,0-0.63-0.31-0.63-0.86
					c0-0.34,0.06-0.76,0.21-1.25l0.03-0.2c-0.05-0.03-0.11,0.03-0.24,0.2c-1.17,1.43-2.49,2.11-3.06,2.11
					c-0.47,0-0.65-0.34-0.65-0.83c0-1.28,1.64-5.14,4.44-5.14c0.21,0,0.59,0.02,0.76,0.24c0.89-1.66,2.45-5.44,4.88-5.07
					c0.28,0.04,0.5,0.18,0.5,0.52C56.17,32.55,56.05,32.68,55.89,32.68z M50.06,37.08c-1.38,0-3.07,3.04-3.07,4.26
					c0,0.29,0.08,0.42,0.25,0.42c0.11,0,0.24-0.08,0.42-0.21c1.62-1.3,2.93-3.61,2.93-4.05C50.58,37.29,50.46,37.08,50.06,37.08z
					 M42.29,41.78c0.31,0.02,0.52-0.13,0.82-0.35c0.94-0.68,1.45-2.31,1.45-3.17c0-0.55-0.13-1.02-0.68-1.02
					c-0.9,0-2.29,2.33-2.29,3.68C41.6,41.41,41.81,41.78,42.29,41.78z M42.59,37.39c1.24-0.63,2.33-0.79,2.52-0.79
					c0.6,0,0.79,0.5,0.79,1.02c0,1.08-0.78,2.78-1.79,3.57c-1.78,1.39-2.68,1.45-2.96,1.45c-0.6,0-0.84-0.48-0.84-1.16
					C40.31,40.14,41.31,38.04,42.59,37.39z M53.96,41.78c0.31,0.02,0.52-0.13,0.82-0.35c0.94-0.68,1.45-2.31,1.45-3.17
					c0-0.55-0.13-1.02-0.68-1.02c-0.9,0-2.29,2.33-2.29,3.68C53.26,41.41,53.47,41.78,53.96,41.78z"/>
			</g>
			<g>
				<path class="st0" d="M2.35,32.61c0,0-0.03,0-0.04,0c-0.09,0-0.16-0.07-0.16-0.16c0-0.08,0.05-0.14,0.13-0.16l0,0
					c17.74-4.94,40.63-7.92,65.62-7.92c24.99,0,47.89,2.98,65.64,7.92c0.07,0.02,0.11,0.08,0.11,0.16c0,0.09-0.07,0.16-0.16,0.16
					c-0.01,0-0.04,0-0.04,0c-20.03-3.23-42.22-5.02-65.56-5.02C44.57,27.59,22.38,29.39,2.35,32.61L2.35,32.61z"/>
				<path class="st85" d="M34.66,4.16c-3.49,0-6.58,0.5-6.58,0.5v2.76c0,0,2.75-0.45,5.22-0.45c3.37,0,3.57,0.91,3.6,2.65
					c-4.25,0-10.27-0.36-10.27,4.29c0,4.77,5.11,4.56,8.23,4.56c2.75,0,7.29-0.44,7.29-0.44V8.74C42.14,4.5,38.14,4.16,34.66,4.16z
					 M36.98,15.69c-0.68,0.11-1.53,0.16-2.24,0.16c-1.42,0-2.84-0.1-2.84-1.82c0-1.69,1.42-1.8,2.84-1.8c0.37,0,1.79,0,2.24,0.03
					V15.69z M86.73,15.64c-2.95,0-3.21-2.18-3.21-4.42c0-2.21,0.25-4.4,3.21-4.4c2.95,0,3.06,2.19,3.06,4.4
					C89.79,13.45,89.68,15.64,86.73,15.64z M86.73,3.98c-4.96,0-8.54,1.92-8.54,7.24c0,5.1,3.97,7.26,8.54,7.26
					c4.57,0,8.39-2.16,8.39-7.26C95.12,5.9,91.69,3.98,86.73,3.98z M120.33,15.64c-2.95,0-3.21-2.18-3.21-4.42
					c0-2.21,0.26-4.4,3.21-4.4c2.94,0,3.06,2.19,3.06,4.4C123.39,13.45,123.28,15.64,120.33,15.64z M120.33,3.98
					c-4.97,0-8.54,1.92-8.54,7.24c0,5.1,3.97,7.26,8.54,7.26c4.56,0,8.39-2.16,8.39-7.26C128.72,5.9,125.29,3.98,120.33,3.98z
					 M43.91,11.18c0,5.34,3.97,7.29,9.27,7.29c1.5,0,3.01-0.13,4.45-0.42v-2.94c-1.02,0.08-1.84,0.21-3.43,0.21
					c-3.32,0-4.96-0.96-4.96-3.98c0-3.02,1.64-4.01,4.96-4.01c1.11,0,2.41,0.13,3.46,0.21V4.7c-1.7-0.36-3.46-0.49-5.19-0.49
					C47.4,4.21,43.91,6.34,43.91,11.18z M96.79,11.18c0,5.34,3.97,7.29,9.27,7.29c1.5,0,3.01-0.13,4.45-0.42v-2.94
					c-1.02,0.08-1.84,0.21-3.43,0.21c-3.32,0-4.96-0.96-4.96-3.98c0-3.02,1.64-4.01,4.96-4.01c1.11,0,2.41,0.13,3.46,0.21V4.7
					c-1.7-0.36-3.46-0.49-5.18-0.49C100.28,4.21,96.79,6.34,96.79,11.18z M20.46,8.64c-0.47-0.08-0.85-0.13-0.85-0.12
					c1.11-0.26,4.88-0.6,4.88-3.96c0-4.7-6.42-4.56-6.42-4.56c-0.47,0.01-1.25,0.02-1.72,0.02H7.96c-0.47,0-0.86,0.39-0.86,0.88
					v16.49c0,0.49,0.39,0.89,0.86,0.89h9.17c2.95,0,7.89-0.68,7.89-4.8C25.02,9.41,20.46,8.64,20.46,8.64z M12.74,3.72
					c0-0.49,0.39-0.89,0.87-0.89h2.14c1.84,0,2.75,0.52,2.75,2.29c0,1.75-1.9,2.11-1.9,2.11c-0.46,0.09-1.24,0.16-1.71,0.16H13.6
					c-0.48,0-0.87-0.4-0.87-0.89V3.72z M17.03,15.24c-0.47,0.09-1.24,0.16-1.71,0.16h-1.75c-0.47,0-0.86-0.4-0.86-0.89v-3.16
					c0-0.49,0.39-0.89,0.86-0.89h2.62c1.99,0,2.95,0.57,2.95,2.45C19.14,14.83,17.03,15.24,17.03,15.24z M71.31,4.65
					c-2.33,0-3.89,0.63-5.57,1.38v-1.6V0.02h-5.35v18.26h5.35V8.65c0.43-0.17,1.7-0.5,2.75-0.5c1.99,0,2.05,1.09,2.05,1.09
					c0.02,0.36,0.03,0.87,0.04,1.33v7.7h0.79h3.75c0.02,0,0.04,0,0.06,0h0.73v-0.69V8.96C75.93,5.8,73.39,4.65,71.31,4.65z"/>
				<path class="st85" d="M99.45,37.56c-0.14,0-0.31-0.06-0.45-0.16c-0.23-0.15-0.44-0.23-0.65-0.23c-0.37,0-0.65,0.24-0.65,0.62
					c0,0.27,0.13,0.57,0.42,0.94c0.31,0.41,0.58,0.9,0.58,1.4c0,0.18,0,0.51-0.29,0.89c-0.74,0.99-1.89,1.63-2.65,1.63
					c-0.57,0-0.86-0.44-0.86-0.6c0-0.24,0.31-0.49,0.47-0.49c0.13,0,0.24,0.07,0.39,0.21c0.23,0.21,0.48,0.21,0.63,0.21
					c0.52,0,1.16-0.35,1.18-1c0-0.33-0.13-0.72-0.47-1.17c-0.34-0.48-0.61-0.96-0.61-1.39c0-1.14,2.21-1.86,2.6-1.86
					c0.29,0,0.69,0.18,0.69,0.6C99.79,37.41,99.66,37.54,99.45,37.56z M77.09,37.56c-0.15,0-0.31-0.06-0.45-0.16
					c-0.23-0.15-0.44-0.23-0.65-0.23c-0.37,0-0.65,0.24-0.65,0.62c0,0.27,0.13,0.57,0.42,0.94c0.31,0.41,0.58,0.9,0.58,1.4
					c0,0.18,0,0.51-0.29,0.89c-0.74,0.99-1.89,1.63-2.65,1.63c-0.57,0-0.86-0.44-0.86-0.6c0-0.24,0.31-0.49,0.47-0.49
					c0.13,0,0.24,0.07,0.39,0.21c0.23,0.21,0.48,0.21,0.63,0.21c0.52,0,1.16-0.35,1.18-1c0-0.33-0.13-0.72-0.47-1.17
					c-0.34-0.48-0.61-0.96-0.61-1.39c0-1.14,2.21-1.86,2.6-1.86c0.29,0,0.69,0.18,0.69,0.6C77.43,37.41,77.3,37.54,77.09,37.56z
					 M66.73,36.14c0.63-1.37,1.27-2.41,1.3-2.5c0.13-0.42,1.33-0.7,1.42-0.7c0.1,0.16,0.1,0.22,0.03,0.31
					c-0.1,0.16-1.56,3.14-1.76,3.57c-0.92,2.02-1.63,4.16-1.63,4.7c0,0.24,0.1,0.35,0.29,0.35c0.28,0,0.75-0.26,1.38-0.78
					c0.16-1.33,1.09-3.12,2.25-3.71c1.24-0.63,2.33-0.79,2.52-0.79c0.6,0,0.79,0.5,0.79,1.02c0,1.08-0.77,2.78-1.79,3.57
					c-1.78,1.39-2.68,1.45-2.96,1.45c-0.59,0-0.84-0.48-0.84-1.15c-0.66,0.54-1.63,1.15-2.26,1.15c-0.71,0-0.71-0.63-0.71-0.82
					C64.76,40.95,65.74,38.28,66.73,36.14z M69.72,41.78c0.31,0.02,0.52-0.13,0.82-0.35c0.94-0.68,1.45-2.31,1.45-3.17
					c0-0.55-0.13-1.02-0.68-1.02c-0.9,0-2.29,2.33-2.29,3.68C69.03,41.41,69.23,41.78,69.72,41.78z M86.83,40.92
					c0.17-0.46,0.98-2.18,1.3-3.05c0.31-0.85,0.32-1.3,1.24-1.31c0.21,0,0.3,0.15,0.3,0.35c0,0.18-0.12,0.66-0.4,1.25
					c-0.41,0.88-0.78,1.52-1.14,2.44c-0.18,0.46-0.26,0.82-0.26,0.99c0,0.18,0.1,0.33,0.25,0.33c0.28,0,0.86-0.38,1.32-0.74
					c0.13-0.1,0.24-0.18,0.34-0.25c0.5-1.59,1.99-4.11,4.23-4.11c0.4,0,0.68,0.05,0.77,0.34c0.02,0.05,0.03,0.06,0.07,0.06
					s0.08-0.03,0.13-0.08c0.15-0.15,0.79-0.52,1.2-0.52c0.08,0,0.11,0.07,0.11,0.13c0,0.05-0.02,0.1-0.08,0.11
					c-0.39,0.13-2,3.29-2,4.62c0,0.5,0.38,0.85,0.15,0.95c-0.16,0.1-0.4,0.18-0.75,0.18c-0.42,0-0.56-0.32-0.56-0.78
					c0-0.34,0.06-0.74,0.19-1.19c0.02-0.03,0-0.08,0-0.08c-1.18,1.39-2.49,2.07-3.02,2.07c-0.45,0-0.63-0.32-0.63-0.74
					c0-0.14,0.03-0.34,0.08-0.56c-0.66,0.57-1.74,1.3-2.49,1.3c-0.36,0-0.58-0.15-0.58-0.68c0-0.12,0.01-0.23,0.03-0.35
					c-0.65,0.51-1.49,1.02-2.02,1.02c-0.44,0-0.63-0.31-0.63-0.86c0-0.34,0.06-0.76,0.21-1.25l0.03-0.2
					c-0.05-0.03-0.11,0.03-0.24,0.2c-1.17,1.43-2.49,2.11-3.06,2.11c-0.47,0-0.65-0.34-0.65-0.83c0-1.28,1.64-5.14,4.44-5.14
					c0.21,0,0.59,0.02,0.76,0.24c0.9-1.66,2.45-5.44,4.88-5.07c0.28,0.04,0.5,0.18,0.5,0.52c0,0.18-0.11,0.31-0.28,0.31
					c-0.08,0-0.18-0.03-0.28-0.1c-0.18-0.11-0.32-0.14-0.47-0.14c-0.41,0-0.78,0.39-1.06,0.73c-0.88,1.07-3.61,6.91-3.61,8.34
					c0,0.29,0.13,0.37,0.29,0.37c0.27,0,0.71-0.23,1.29-0.7C86.77,41.1,86.8,41.02,86.83,40.92z M84.74,37.08
					c-1.38,0-3.07,3.04-3.07,4.26c0,0.29,0.08,0.42,0.25,0.42c0.11,0,0.24-0.08,0.42-0.21c1.62-1.3,2.93-3.61,2.93-4.05
					C85.26,37.29,85.15,37.08,84.74,37.08z M91.93,34.45c-0.42,0.21-1.34,0.82-2.45,1.52c-0.07,0.04-0.12,0.04-0.15,0.04
					c-0.05,0-0.07-0.03-0.07-0.06c0-0.05,0.03-0.1,0.07-0.16c0.44-0.47,2.11-2.29,2.31-2.3c0.17-0.01,0.41,0.34,0.43,0.63
					C92.08,34.27,92.01,34.41,91.93,34.45z M94.04,37.23c-1.36,0-3.08,3-3.08,4.15c0,0.27,0.08,0.4,0.23,0.4
					c0.1,0,0.24-0.06,0.42-0.19c1.37-1.05,2.36-3.1,2.76-3.76c0.06-0.11,0.1-0.21,0.1-0.29C94.46,37.46,94.45,37.23,94.04,37.23z
					 M61.44,37.56c-0.15,0-0.31-0.06-0.45-0.16c-0.23-0.15-0.44-0.23-0.65-0.23c-0.37,0-0.65,0.24-0.65,0.62
					c0,0.27,0.13,0.57,0.42,0.94c0.31,0.41,0.58,0.9,0.58,1.4c0,0.18,0,0.51-0.29,0.89c-0.74,0.99-1.89,1.63-2.65,1.63
					c-0.57,0-0.86-0.44-0.86-0.6c0-0.24,0.31-0.49,0.47-0.49c0.13,0,0.24,0.07,0.39,0.21c0.23,0.21,0.48,0.21,0.63,0.21
					c0.52,0,1.16-0.35,1.18-1c0-0.33-0.13-0.72-0.47-1.17c-0.34-0.48-0.61-0.96-0.61-1.39c0-1.14,2.21-1.86,2.6-1.86
					c0.29,0,0.69,0.18,0.69,0.6C61.78,37.41,61.65,37.54,61.44,37.56z M36.44,42.64c-0.15,0.01-0.21-0.04-0.22-0.1
					c0-0.06,0.12-0.18,0.33-0.21c0.45-0.07,0.66-0.08,0.76-0.34l2.67-7.7c0-0.05-0.04-0.1-0.18-0.12c-3.13-0.49-3.72,0.96-3.73,0.83
					c-0.03-0.65,0.61-2.18,4.86-1.74c4.03,0.42,5.43-0.72,5.59-0.73c0.06,0-0.78,2.08-5.1,1.85c-0.18-0.01-0.2,0.11-0.25,0.2
					c0,0-2.07,5.84-2.46,7.43l-0.01,0.07c0.01,0.18,0.27,0.22,0.67,0.26c0.15,0.02,0.19,0.07,0.19,0.12
					c0.01,0.1-0.13,0.17-0.32,0.18L36.44,42.64z M55.89,32.68c-0.08,0-0.18-0.03-0.28-0.1c-0.18-0.11-0.32-0.14-0.47-0.14
					c-0.41,0-0.78,0.39-1.06,0.73c-0.88,1.07-3.61,6.91-3.61,8.34c0,0.29,0.13,0.37,0.29,0.37c0.25,0,0.67-0.21,1.21-0.64
					c0.11-1.34,1.06-3.24,2.27-3.85c1.24-0.63,2.33-0.79,2.52-0.79c0.6,0,0.79,0.5,0.79,1.02c0,1.08-0.77,2.78-1.79,3.57
					c-1.78,1.39-2.68,1.45-2.95,1.45c-0.56,0-0.81-0.43-0.84-1.05c-0.65,0.52-1.52,1.05-2.05,1.05c-0.44,0-0.63-0.31-0.63-0.86
					c0-0.34,0.06-0.76,0.21-1.25l0.03-0.2c-0.05-0.03-0.11,0.03-0.24,0.2c-1.17,1.43-2.49,2.11-3.06,2.11
					c-0.47,0-0.65-0.34-0.65-0.83c0-1.28,1.64-5.14,4.44-5.14c0.21,0,0.59,0.02,0.76,0.24c0.89-1.66,2.45-5.44,4.88-5.07
					c0.28,0.04,0.5,0.18,0.5,0.52C56.17,32.55,56.05,32.68,55.89,32.68z M50.06,37.08c-1.38,0-3.07,3.04-3.07,4.26
					c0,0.29,0.08,0.42,0.25,0.42c0.11,0,0.24-0.08,0.42-0.21c1.62-1.3,2.93-3.61,2.93-4.05C50.58,37.29,50.46,37.08,50.06,37.08z
					 M42.29,41.78c0.31,0.02,0.52-0.13,0.82-0.35c0.94-0.68,1.45-2.31,1.45-3.17c0-0.55-0.13-1.02-0.68-1.02
					c-0.9,0-2.29,2.33-2.29,3.68C41.6,41.41,41.81,41.78,42.29,41.78z M42.59,37.39c1.24-0.63,2.33-0.79,2.52-0.79
					c0.6,0,0.79,0.5,0.79,1.02c0,1.08-0.78,2.78-1.79,3.57c-1.78,1.39-2.68,1.45-2.96,1.45c-0.6,0-0.84-0.48-0.84-1.16
					C40.31,40.14,41.31,38.04,42.59,37.39z M53.96,41.78c0.31,0.02,0.52-0.13,0.82-0.35c0.94-0.68,1.45-2.31,1.45-3.17
					c0-0.55-0.13-1.02-0.68-1.02c-0.9,0-2.29,2.33-2.29,3.68C53.26,41.41,53.47,41.78,53.96,41.78z"/>
			</g>
		</g>
	</g>
</g>
<g id="Capa_6">
</g>
<g id="Capa_5">
</g>
</svg>
