<?xml version="1.0" encoding="utf-8"?>
<!-- Generator: Adobe Illustrator 24.0.3, SVG Export Plug-In . SVG Version: 6.00 Build 0)  -->
<svg version="1.1" xmlns="http://www.w3.org/2000/svg" xmlns:xlink="http://www.w3.org/1999/xlink" x="0px" y="0px"
	 viewBox="0 0 102.56 102.29" style="enable-background:new 0 0 102.56 102.29;" xml:space="preserve">
<style type="text/css">
	.st0{fill:none;stroke:#E7004C;stroke-miterlimit:10;}
	.st1{fill:#FFFFFF;}
	.st2{fill:url(#SVGID_1_);}
	.st3{fill:#E7004C;}
	.st4{fill-rule:evenodd;clip-rule:evenodd;fill:#FFFFFF;}
	.st5{fill:none;stroke:#00B2E3;stroke-miterlimit:10;}
	.st6{fill:url(#SVGID_2_);}
	.st7{fill:#FCFCFC;}
	.st8{fill:url(#SVGID_3_);}
	.st9{fill:url(#SVGID_4_);}
	.st10{opacity:0.8;fill:#E7004C;}
	.st11{opacity:0.7;fill:#E7004C;}
	.st12{opacity:0.7;}
	.st13{fill:#00B2E3;}
	.st14{opacity:0.8;fill:#00B2E3;}
	.st15{opacity:0.7;fill:#00B2E3;}
	.st16{fill:#BBBBBB;}
	.st17{opacity:0.8;fill:#BBBBBB;}
	.st18{opacity:0.7;fill:#BBBBBB;}
	.st19{fill:url(#SVGID_5_);}
	.st20{fill:url(#SVGID_6_);}
	.st21{fill:none;stroke:#E7004C;stroke-width:2;stroke-miterlimit:10;}
	.st22{fill:url(#SVGID_7_);}
	.st23{fill:url(#SVGID_8_);}
	.st24{fill:url(#SVGID_9_);}
	.st25{fill:none;stroke:#FFFFFF;stroke-miterlimit:10;}
	.st26{fill-rule:evenodd;clip-rule:evenodd;fill:#E7004C;}
	.st27{fill:none;stroke:#000000;stroke-miterlimit:10;}
	.st28{fill:#38A8E0;}
	.st29{clip-path:url(#SVGID_11_);fill:#00B2E3;}
	.st30{fill:none;stroke:#E7004C;stroke-width:3;stroke-miterlimit:10;}
	.st31{clip-path:url(#SVGID_13_);}
	.st32{fill:none;stroke:#FFFFFF;stroke-width:2;stroke-miterlimit:10;}
	.st33{fill:none;stroke:#FFFFFF;stroke-width:3;stroke-miterlimit:10;}
	.st34{clip-path:url(#SVGID_15_);}
	.st35{fill:url(#SVGID_16_);}
	.st36{fill:none;stroke:#FFFFFF;stroke-width:0.5;stroke-miterlimit:10;}
	.st37{clip-path:url(#SVGID_18_);fill:#00B2E3;}
	.st38{clip-path:url(#SVGID_20_);}
	.st39{clip-path:url(#SVGID_22_);}
	.st40{fill:url(#SVGID_23_);}
	.st41{clip-path:url(#SVGID_25_);}
	.st42{fill:url(#SVGID_26_);}
	.st43{fill:url(#SVGID_27_);}
	.st44{fill:url(#SVGID_28_);}
	.st45{fill:url(#SVGID_29_);}
	.st46{clip-path:url(#SVGID_31_);fill:#00B2E3;}
	.st47{clip-path:url(#SVGID_33_);}
	.st48{clip-path:url(#SVGID_35_);}
	.st49{fill:url(#SVGID_36_);}
	.st50{clip-path:url(#SVGID_38_);}
	.st51{clip-path:url(#SVGID_40_);}
	.st52{fill:#280210;}
	.st53{opacity:0.5;}
	.st54{opacity:0.6;}
	.st55{fill:url(#SVGID_41_);}
	.st56{fill:url(#SVGID_42_);}
	.st57{fill:url(#SVGID_43_);}
	.st58{fill:url(#SVGID_44_);}
	.st59{fill:#42050E;}
	.st60{opacity:0.8;}
	.st61{opacity:0.9;}
	.st62{fill:url(#SVGID_45_);}
	.st63{clip-path:url(#SVGID_47_);}
	.st64{clip-path:url(#SVGID_49_);}
	.st65{fill:url(#SVGID_50_);}
	.st66{clip-path:url(#SVGID_52_);}
	.st67{fill:url(#SVGID_53_);}
	.st68{clip-path:url(#SVGID_55_);}
	.st69{fill:url(#SVGID_56_);}
	.st70{clip-path:url(#SVGID_58_);fill:#00B2E3;}
	.st71{clip-path:url(#SVGID_60_);}
	.st72{clip-path:url(#SVGID_62_);}
	.st73{fill:none;stroke:#FFFFFF;stroke-width:5;stroke-miterlimit:10;}
	.st74{clip-path:url(#SVGID_64_);fill:#00B2E3;}
	.st75{clip-path:url(#SVGID_66_);}
	.st76{clip-path:url(#SVGID_68_);}
	.st77{clip-path:url(#SVGID_70_);fill:#00B2E3;}
	.st78{clip-path:url(#SVGID_72_);}
	.st79{fill:#5B0323;}
	.st80{fill:url(#SVGID_73_);}
	.st81{fill:url(#SVGID_74_);}
	.st82{fill:url(#SVGID_75_);}
	.st83{clip-path:url(#SVGID_77_);fill:#00B2E3;}
	.st84{clip-path:url(#SVGID_80_);}
	.st85{fill:none;stroke:#00B2E3;stroke-width:2;stroke-miterlimit:10;}
	.st86{fill-rule:evenodd;clip-rule:evenodd;fill:#00B2E3;}
	.st87{clip-path:url(#SVGID_84_);}
	.st88{fill:#E5E5E5;}
	.st89{clip-path:url(#SVGID_86_);}
	.st90{fill-rule:evenodd;clip-rule:evenodd;fill:none;stroke:#E7004C;stroke-width:3;stroke-miterlimit:10;}
	.st91{fill:#020202;}
	.st92{fill:none;stroke:#5B0323;stroke-miterlimit:10;}
	.st93{fill:#070101;}
	.st94{fill:none;stroke:#068FFF;stroke-width:5;stroke-miterlimit:10;}
</style>
<g id="Capa_2">
</g>
<g id="Capa_1">
</g>
<g id="Capa_3">
	<g>
		<path class="st1" d="M88.44,102.29H13.85C6.21,102.29,0,96.08,0,88.44V13.85C0,6.21,6.21,0,13.85,0h74.59
			c7.64,0,13.85,6.21,13.85,13.85v74.59C102.29,96.08,96.08,102.29,88.44,102.29z M13.85,2C7.31,2,2,7.31,2,13.85v74.59
			c0,6.53,5.31,11.85,11.85,11.85h74.59c6.53,0,11.85-5.31,11.85-11.85V13.85C100.29,7.31,94.97,2,88.44,2H13.85z"/>
	</g>
	<g>
		<path class="st1" d="M51.55,22.42c-15.09,0-27.32,12.23-27.32,27.32c0,7.49,3.96,14.18,3.96,14.18l-4.78,14.55l14.97-4.78
			c0,0,5.56,3.37,13.16,3.37c15.09,0,27.32-12.23,27.32-27.32C78.87,34.66,66.64,22.42,51.55,22.42z M51.55,72.7
			c-7.02,0-12.65-3.8-12.65-3.8l-8.63,2.82l2.8-8.35c0,0-4.47-6.19-4.47-13.61c0-12.67,10.28-22.95,22.95-22.95
			c12.68,0,22.95,10.28,22.95,22.95C74.5,62.42,64.23,72.7,51.55,72.7z"/>
		<path class="st1" d="M41.15,37.85c0,0,0.74-0.47,1.12-0.47c0.38,0,2.15,0,2.15,0s0.58,0.1,0.84,0.7c0.27,0.6,2.08,4.87,2.21,5.19
			c0.13,0.33,0.49,1.14-0.08,1.87c-0.57,0.73-1.75,2.09-1.75,2.09s-0.47,0.42-0.06,1.09c0.41,0.67,1.83,2.88,3.7,4.55
			c1.87,1.67,4.15,2.9,5.29,3.28c1.14,0.37,1.39-0.12,1.82-0.69c0.44-0.56,1.79-2.28,1.79-2.28s0.47-0.69,1.39-0.27
			c0.92,0.42,5.4,2.59,5.4,2.59s0.55,0.09,0.58,0.7c0.03,0.61,0.41,2.43-1.22,4.18c-1.62,1.75-5.07,2.56-6.71,2.11
			c-1.63-0.46-7.04-1.87-10.56-5.15c-3.52-3.29-6.38-6.74-7.54-9.29c-1.17-2.55-1.1-4.06-1.04-4.78
			C38.56,42.57,38.93,39.27,41.15,37.85z"/>
	</g>
</g>
<g id="Capa_4">
</g>
<g id="Capa_6">
</g>
<g id="Capa_5">
</g>
</svg>
